%
M48
M72
T02C0.0280
T03C0.0350
T05C0.0420
T06C0.0520
T07C0.0600
T09C0.1250
T11C0.0600
%
T02
X14134Y23241
X15134Y23241
X37534Y23241
X38534Y23241
T03
X34984Y23191
X33434Y23191
X38934Y27041
X42434Y28691
X44684Y26991
X44684Y25991
X42434Y24691
X38584Y18191
X40534Y17441
X36034Y14441
X34984Y14441
X35534Y15441
X34484Y15941
X35434Y17441
X30334Y16441
X29584Y14941
X31984Y13041
X33134Y13491
X33694Y12941
X34534Y11991
X35534Y11441
X36034Y12441
X37634Y12491
X38334Y11891
X37634Y10741
X36034Y9441
X36784Y8341
X37534Y7391
X35484Y7841
X34884Y8291
X33734Y7791
X32884Y7591
X32134Y7591
X32284Y6641
X32384Y6091
X31884Y5591
X31184Y6391
X30834Y7641
X30184Y7641
X29034Y6241
X27334Y7841
X26934Y8591
X26984Y9691
X25984Y9691
X24984Y9691
X23984Y9691
X23884Y10991
X25534Y11141
X25984Y12691
X24984Y12691
X23984Y12691
X23334Y12741
X20884Y12391
X20084Y12291
X20334Y10991
X19234Y11191
X17984Y11091
X17034Y11141
X16934Y12041
X17984Y12991
X18884Y13441
X19634Y14091
X15434Y13941
X15734Y17091
X10784Y12941
X9034Y12941
X7484Y12941
X5784Y12941
X4484Y15741
X2184Y14491
X2184Y13491
X3784Y10391
X3034Y9891
X3784Y9391
X5784Y8941
X7484Y8941
X9034Y8941
X10784Y8941
X13484Y7791
X13984Y7041
X14484Y7791
X15834Y9791
X15334Y10591
X18234Y9291
X19934Y8741
X19934Y7841
X21684Y8941
X24984Y7741
X25284Y8291
X25684Y6791
X25084Y6541
X23384Y5491
X30234Y9541
X30484Y8941
X32684Y11391
X26984Y12691
X23334Y16491
X15734Y27041
X15734Y29941
X23734Y29391
X33934Y31641
X39984Y13791
X40484Y11441
X39984Y11041
X40484Y10641
X39984Y9791
X40084Y9041
X33834Y5691
X8484Y15741
X5784Y19391
X4484Y24691
X2184Y25991
X2184Y26991
X4484Y28691
T05
X17934Y19241
X19034Y19241
X20234Y20291
X20934Y19241
X22034Y19241
X24634Y19241
X25734Y19241
X26784Y20391
X27634Y19241
X28734Y19241
X28734Y16241
X27634Y16241
X25734Y16241
X24634Y16241
X22034Y16241
X20934Y16241
X19034Y16241
X17934Y16241
X20234Y29291
X26784Y29391
X41234Y9911
X42334Y9911
X42334Y8771
X41234Y8771
T06
X39944Y20691
X38453Y26006
X37453Y26006
X36453Y26006
X35453Y26006
X34453Y26006
X33453Y26006
X32453Y26006
X31453Y26006
X31953Y28006
X32953Y28006
X33953Y28006
X34953Y28006
X35953Y28006
X36953Y28006
X37953Y28006
X29944Y20691
X16724Y20691
X15224Y26006
X14224Y26006
X13224Y26006
X12224Y26006
X11224Y26006
X10224Y26006
X9224Y26006
X8224Y26006
X8724Y28006
X9724Y28006
X10724Y28006
X11724Y28006
X12724Y28006
X13724Y28006
X14724Y28006
X6724Y20691
T07
X44369Y14311
X44369Y11206
T09
X1984Y7628
X11724Y35116
X2324Y36240
X34953Y35116
X44323Y36240
X44323Y7628
T11
X44218Y17911
X44218Y19471
X2821Y19471
X2821Y17911
M30
