G75*
G70*
%OFA0B0*%
%FSLAX24Y24*%
%IPPOS*%
%LPD*%
%AMOC8*
5,1,8,0,0,1.08239X$1,22.5*
%
%ADD10C,0.0709*%
%ADD11C,0.1004*%
%ADD12C,0.0669*%
%ADD13OC8,0.0480*%
%ADD14C,0.0740*%
%ADD15OC8,0.0600*%
%ADD16C,0.0650*%
%ADD17C,0.1240*%
%ADD18OC8,0.1240*%
%ADD19R,0.1500X0.1500*%
%ADD20C,0.1500*%
%ADD21R,0.0600X0.2550*%
%ADD22C,0.0480*%
%ADD23R,0.0709X0.0630*%
%ADD24C,0.0160*%
%ADD25C,0.0472*%
%ADD26C,0.0400*%
%ADD27C,0.0320*%
%ADD28C,0.0240*%
%ADD29C,0.0500*%
%ADD30C,0.0120*%
D10*
X008224Y025652D02*
X008224Y026360D01*
X009224Y026360D02*
X009224Y025652D01*
X010224Y025652D02*
X010224Y026360D01*
X011224Y026360D02*
X011224Y025652D01*
X012224Y025652D02*
X012224Y026360D01*
X013224Y026360D02*
X013224Y025652D01*
X014224Y025652D02*
X014224Y026360D01*
X015224Y026360D02*
X015224Y025652D01*
X014724Y027652D02*
X014724Y028360D01*
X013724Y028360D02*
X013724Y027652D01*
X012724Y027652D02*
X012724Y028360D01*
X011724Y028360D02*
X011724Y027652D01*
X010724Y027652D02*
X010724Y028360D01*
X009724Y028360D02*
X009724Y027652D01*
X008724Y027652D02*
X008724Y028360D01*
X031453Y026360D02*
X031453Y025652D01*
X032453Y025652D02*
X032453Y026360D01*
X033453Y026360D02*
X033453Y025652D01*
X034453Y025652D02*
X034453Y026360D01*
X035453Y026360D02*
X035453Y025652D01*
X036453Y025652D02*
X036453Y026360D01*
X037453Y026360D02*
X037453Y025652D01*
X038453Y025652D02*
X038453Y026360D01*
X037953Y027652D02*
X037953Y028360D01*
X036953Y028360D02*
X036953Y027652D01*
X035953Y027652D02*
X035953Y028360D01*
X034953Y028360D02*
X034953Y027652D01*
X033953Y027652D02*
X033953Y028360D01*
X032953Y028360D02*
X032953Y027652D01*
X031953Y027652D02*
X031953Y028360D01*
D11*
X043716Y019471D02*
X044720Y019471D01*
X044720Y017911D02*
X043716Y017911D01*
X003323Y017911D02*
X002319Y017911D01*
X002319Y019471D02*
X003323Y019471D01*
D12*
X017934Y019241D03*
X019034Y019241D03*
X020934Y019241D03*
X022034Y019241D03*
X024634Y019241D03*
X025734Y019241D03*
X027634Y019241D03*
X028734Y019241D03*
X028734Y016241D03*
X027634Y016241D03*
X025734Y016241D03*
X024634Y016241D03*
X022034Y016241D03*
X020934Y016241D03*
X019034Y016241D03*
X017934Y016241D03*
D13*
X014484Y007791D03*
X013984Y007041D03*
X013484Y007791D03*
X003784Y009391D03*
X003034Y009891D03*
X003784Y010391D03*
X002184Y013491D03*
X002184Y014491D03*
X002184Y025991D03*
X002184Y026991D03*
X044684Y026991D03*
X044684Y025991D03*
D14*
X042434Y024691D03*
X042434Y028691D03*
X042334Y009911D03*
X041234Y009911D03*
X041234Y008771D03*
X042334Y008771D03*
X010784Y008941D03*
X009034Y008941D03*
X007484Y008941D03*
X005784Y008941D03*
X005784Y012941D03*
X007484Y012941D03*
X009034Y012941D03*
X010784Y012941D03*
X008484Y015741D03*
X004484Y015741D03*
X004484Y024691D03*
X004484Y028691D03*
D15*
X020234Y029291D03*
X026784Y029391D03*
X026784Y020391D03*
X020234Y020291D03*
D16*
X015134Y023241D03*
X014134Y023241D03*
X037534Y023241D03*
X038534Y023241D03*
D17*
X029944Y020691D03*
X006724Y020691D03*
D18*
X016724Y020691D03*
X039944Y020691D03*
D19*
X044369Y014311D03*
D20*
X044369Y011206D03*
D21*
X035378Y003800D03*
X034378Y003800D03*
X033378Y003800D03*
X032378Y003800D03*
X031378Y003800D03*
X030378Y003800D03*
X029378Y003800D03*
X028378Y003800D03*
X027378Y003800D03*
X026378Y003800D03*
X025378Y003800D03*
X024378Y003800D03*
X023378Y003800D03*
X022378Y003800D03*
X021378Y003800D03*
X020378Y003800D03*
X019378Y003800D03*
X018378Y003800D03*
X017378Y003800D03*
X016378Y003800D03*
X015378Y003800D03*
X014378Y003800D03*
X013378Y003800D03*
X012378Y003800D03*
X011378Y003800D03*
D22*
X023984Y009451D02*
X023984Y009931D01*
X024984Y009931D02*
X024984Y009451D01*
X025984Y009451D02*
X025984Y009931D01*
X026984Y009931D02*
X026984Y009451D01*
X026984Y012451D02*
X026984Y012931D01*
X025984Y012931D02*
X025984Y012451D01*
X024984Y012451D02*
X024984Y012931D01*
X023984Y012931D02*
X023984Y012451D01*
D23*
X041234Y012292D03*
X042334Y012292D03*
X042334Y011190D03*
X041234Y011190D03*
D24*
X040735Y011190D01*
X040484Y011441D01*
X039984Y011041D02*
X039984Y013791D01*
X041234Y012292D02*
X042334Y012292D01*
X042334Y011190D02*
X042334Y009911D01*
X041234Y009911D02*
X041234Y011190D01*
X040484Y010641D02*
X037734Y010641D01*
X037634Y010741D01*
X035184Y010741D01*
X034534Y011391D01*
X032684Y011391D01*
X031984Y010041D02*
X032984Y009041D01*
X040084Y009041D01*
X039634Y009441D02*
X036034Y009441D01*
X036084Y008341D02*
X034934Y008341D01*
X034884Y008291D01*
X035484Y007841D02*
X034384Y006441D01*
X034384Y003806D01*
X034378Y003800D01*
X033378Y003800D02*
X033378Y005447D01*
X032784Y006641D01*
X032284Y006641D01*
X032884Y007241D02*
X033834Y005691D01*
X032384Y006091D02*
X032384Y003806D01*
X032378Y003800D01*
X031384Y003806D02*
X031378Y003800D01*
X031384Y003806D02*
X031384Y005841D01*
X031034Y005841D01*
X030184Y006691D01*
X030184Y007641D01*
X030834Y007641D02*
X030834Y007091D01*
X031184Y006391D01*
X031884Y005591D02*
X031884Y007391D01*
X032134Y007591D01*
X032884Y007591D02*
X032884Y007241D01*
X033734Y007791D02*
X033384Y008141D01*
X031084Y008141D01*
X030884Y008341D01*
X029484Y008341D01*
X029034Y007891D01*
X029034Y007035D01*
X030378Y005691D01*
X030378Y003800D01*
X030384Y003806D01*
X029378Y003800D02*
X029378Y005897D01*
X029034Y006241D01*
X027334Y007841D02*
X027334Y003844D01*
X027378Y003800D01*
X028378Y003800D02*
X028484Y003906D01*
X028484Y009291D01*
X028084Y009691D01*
X026984Y009691D01*
X026484Y009041D02*
X026484Y010441D01*
X026984Y010941D01*
X026984Y012691D01*
X026934Y014191D02*
X030284Y014191D01*
X030284Y016391D01*
X030334Y016441D01*
X029034Y015191D02*
X029034Y015141D01*
X028984Y015191D01*
X016084Y015191D01*
X015334Y015941D01*
X015334Y022191D01*
X014934Y022591D01*
X011834Y022591D01*
X011224Y023201D01*
X011224Y026006D01*
X011224Y026681D01*
X011484Y026941D01*
X012434Y026941D01*
X012734Y027241D01*
X012734Y027996D01*
X012724Y028006D01*
X012224Y026006D02*
X012224Y025051D01*
X012484Y024791D01*
X013784Y024791D01*
X014134Y024441D01*
X014134Y023241D01*
X014534Y022141D02*
X014934Y021741D01*
X014934Y015541D01*
X015734Y014741D01*
X026934Y014741D01*
X026934Y014191D01*
X029034Y014941D02*
X029584Y014941D01*
X029034Y014941D02*
X029034Y015141D01*
X030484Y013491D02*
X030234Y013241D01*
X030234Y009541D01*
X031984Y010041D02*
X031984Y013041D01*
X033134Y013491D02*
X030484Y013491D01*
X033484Y013941D02*
X033694Y013731D01*
X033694Y012941D01*
X033484Y013941D02*
X023634Y013941D01*
X023484Y013791D01*
X023484Y012941D01*
X023334Y012741D01*
X024984Y012691D02*
X024984Y010891D01*
X024484Y010391D01*
X024484Y006441D01*
X025334Y005591D01*
X025334Y003844D01*
X025378Y003800D01*
X024384Y003806D02*
X024378Y003800D01*
X024384Y003806D02*
X024384Y005691D01*
X023984Y006091D01*
X023984Y009691D01*
X025984Y009691D02*
X025984Y008941D01*
X026284Y008641D01*
X026284Y004441D01*
X026434Y004291D01*
X028378Y003800D02*
X028384Y003806D01*
X023384Y003806D02*
X023378Y003800D01*
X023384Y003806D02*
X023384Y005491D01*
X026484Y009041D02*
X026934Y008591D01*
X034984Y014441D02*
X034984Y023191D01*
X035734Y024641D02*
X036984Y024641D01*
X037534Y024091D01*
X037534Y023241D01*
X038584Y022191D01*
X038584Y018191D01*
X040534Y017441D02*
X035434Y017441D01*
X034484Y015941D02*
X034434Y019291D01*
X034453Y019560D01*
X034453Y026006D01*
X034453Y026710D01*
X034734Y026991D01*
X035734Y026991D01*
X035934Y027191D01*
X035934Y027987D01*
X035953Y028006D01*
X035453Y026006D02*
X035453Y024923D01*
X035734Y024641D01*
X033453Y026006D02*
X033453Y023210D01*
X033434Y023191D01*
X038934Y027041D02*
X038934Y031191D01*
X038484Y031641D01*
X033934Y031641D01*
X016134Y031641D01*
X015734Y031241D01*
X015734Y029941D01*
X015734Y027041D01*
X010224Y026006D02*
X010224Y022701D01*
X010784Y022141D01*
X014534Y022141D01*
X015734Y017091D02*
X018434Y017091D01*
X019034Y016491D01*
X019034Y016241D01*
X015434Y013941D02*
X008684Y013941D01*
X008484Y014141D01*
X008484Y015741D01*
X009634Y013541D02*
X009034Y012941D01*
X009634Y013541D02*
X011634Y013541D01*
X012234Y012941D01*
X017934Y012941D01*
X017984Y012991D01*
X012378Y007047D02*
X011834Y007591D01*
X007184Y007591D01*
X006684Y008091D01*
X006684Y011191D01*
X005834Y012041D01*
X005834Y012891D01*
X005784Y012941D01*
X005784Y019391D01*
X006724Y020691D02*
X006724Y011951D01*
X007484Y011191D01*
X008584Y011191D01*
X009034Y010741D01*
X009034Y008941D01*
X012378Y007047D02*
X012378Y003800D01*
X035534Y011441D02*
X035534Y015441D01*
X036034Y014441D02*
X036034Y012441D01*
X039634Y009441D02*
X039984Y009791D01*
X041234Y008771D02*
X042334Y008771D01*
X037534Y007391D02*
X037134Y007791D01*
X036384Y007791D01*
X036084Y008091D01*
X036084Y008341D01*
X041784Y023741D02*
X044834Y023741D01*
X045484Y024391D01*
X045484Y026191D01*
X044684Y026991D01*
X008724Y028006D02*
X005199Y028006D01*
X005184Y027991D01*
X004484Y028691D01*
X002184Y026991D02*
X003384Y025791D01*
X003384Y021691D01*
D25*
X005784Y019391D03*
X015434Y013941D03*
X016934Y012041D03*
X017984Y012991D03*
X018884Y013441D03*
X019634Y014091D03*
X020884Y012391D03*
X020084Y012291D03*
X020334Y010991D03*
X019234Y011191D03*
X017984Y011091D03*
X017034Y011141D03*
X015334Y010591D03*
X015834Y009791D03*
X018234Y009291D03*
X019934Y008741D03*
X019934Y007841D03*
X021684Y008941D03*
X023884Y010991D03*
X025534Y011141D03*
X023334Y012741D03*
X023334Y016491D03*
X029584Y014941D03*
X030334Y016441D03*
X033134Y013491D03*
X033694Y012941D03*
X034534Y011991D03*
X035534Y011441D03*
X036034Y012441D03*
X037634Y012491D03*
X038334Y011891D03*
X037634Y010741D03*
X036034Y009441D03*
X036784Y008341D03*
X037534Y007391D03*
X035484Y007841D03*
X034884Y008291D03*
X033734Y007791D03*
X032884Y007591D03*
X032134Y007591D03*
X032284Y006641D03*
X032384Y006091D03*
X031884Y005591D03*
X031184Y006391D03*
X030834Y007641D03*
X030184Y007641D03*
X029034Y006241D03*
X027334Y007841D03*
X026934Y008591D03*
X025284Y008291D03*
X024984Y007741D03*
X025684Y006791D03*
X025084Y006541D03*
X023384Y005491D03*
X030234Y009541D03*
X030484Y008941D03*
X032684Y011391D03*
X031984Y013041D03*
X034984Y014441D03*
X036034Y014441D03*
X035534Y015441D03*
X034484Y015941D03*
X035434Y017441D03*
X038584Y018191D03*
X040534Y017441D03*
X039984Y013791D03*
X040484Y011441D03*
X039984Y011041D03*
X040484Y010641D03*
X039984Y009791D03*
X040084Y009041D03*
X033834Y005691D03*
X015734Y017091D03*
X015734Y027041D03*
X015734Y029941D03*
X023734Y029391D03*
X033434Y023191D03*
X034984Y023191D03*
X038934Y027041D03*
X033934Y031641D03*
D26*
X032384Y029441D02*
X037534Y029441D01*
X037984Y028991D01*
X037984Y028037D01*
X037953Y028006D01*
X037453Y026006D02*
X037484Y025974D01*
X037484Y025191D01*
X038334Y024341D01*
X041184Y024341D01*
X041784Y023741D01*
X041784Y018941D01*
X042784Y017941D01*
X044188Y017941D01*
X044218Y017911D01*
X032453Y025291D02*
X032453Y026006D01*
X032453Y025291D02*
X031053Y023891D01*
X028184Y023891D01*
X027634Y023341D01*
X027634Y019241D01*
X025734Y019241D02*
X025734Y029591D01*
X026334Y030191D01*
X030734Y030191D01*
X031953Y028973D01*
X031953Y028006D01*
X031953Y029010D01*
X032384Y029441D01*
X031417Y026041D02*
X027384Y026041D01*
X026784Y026641D01*
X026784Y029391D01*
X031417Y026041D02*
X031453Y026006D01*
X020934Y023391D02*
X020934Y019241D01*
X020934Y023391D02*
X020434Y023891D01*
X015684Y023891D01*
X014224Y025351D01*
X014224Y026006D01*
X015224Y026006D02*
X015232Y026014D01*
X019657Y026014D01*
X020234Y026591D01*
X020234Y029291D01*
X014724Y029001D02*
X014724Y028006D01*
X014724Y029001D02*
X014184Y029541D01*
X009134Y029541D01*
X008724Y029131D01*
X008724Y028006D01*
X009224Y026006D02*
X009234Y025996D01*
X009234Y022391D01*
X008534Y021691D01*
X003384Y021691D01*
X002821Y021128D01*
X002821Y019471D01*
D27*
X014224Y026006D02*
X014234Y025996D01*
D28*
X000484Y038191D02*
X000484Y006191D01*
X012078Y006191D01*
X012078Y006923D01*
X011710Y007291D01*
X007124Y007291D01*
X007014Y007337D01*
X006514Y007837D01*
X006430Y007921D01*
X006384Y008031D01*
X006384Y011067D01*
X005664Y011787D01*
X005580Y011871D01*
X005534Y011981D01*
X005534Y012406D01*
X005450Y012441D01*
X005284Y012607D01*
X005194Y012824D01*
X005194Y013058D01*
X005284Y013275D01*
X005450Y013441D01*
X005484Y013455D01*
X005484Y019046D01*
X005397Y019133D01*
X005328Y019300D01*
X005328Y019482D01*
X005397Y019649D01*
X005526Y019778D01*
X005693Y019847D01*
X005875Y019847D01*
X006042Y019778D01*
X006171Y019649D01*
X006240Y019482D01*
X006240Y019300D01*
X006171Y019133D01*
X006084Y019046D01*
X006084Y013455D01*
X006118Y013441D01*
X006284Y013275D01*
X006374Y013058D01*
X006374Y012824D01*
X006284Y012607D01*
X006134Y012457D01*
X006134Y012165D01*
X006435Y011864D01*
X006424Y011891D01*
X006424Y019906D01*
X006248Y019979D01*
X006012Y020215D01*
X005884Y020524D01*
X005884Y020858D01*
X006012Y021167D01*
X006116Y021271D01*
X003558Y021271D01*
X003241Y020954D01*
X003241Y020193D01*
X003467Y020193D01*
X003732Y020083D01*
X003935Y019880D01*
X004045Y019614D01*
X004045Y019327D01*
X003935Y019062D01*
X003732Y018858D01*
X003467Y018749D01*
X002176Y018749D01*
X001910Y018858D01*
X001707Y019062D01*
X001597Y019327D01*
X001597Y019614D01*
X001707Y019880D01*
X001910Y020083D01*
X002176Y020193D01*
X002401Y020193D01*
X002401Y021212D01*
X002465Y021366D01*
X003028Y021929D01*
X003084Y021985D01*
X003084Y025667D01*
X002644Y026107D01*
X002644Y025800D01*
X002375Y025531D01*
X001993Y025531D01*
X001724Y025800D01*
X001724Y026182D01*
X001993Y026451D01*
X002300Y026451D01*
X002220Y026531D01*
X001993Y026531D01*
X001724Y026800D01*
X001724Y027182D01*
X001993Y027451D01*
X002375Y027451D01*
X002644Y027182D01*
X002644Y026955D01*
X003638Y025961D01*
X003684Y025851D01*
X003684Y022111D01*
X008360Y022111D01*
X008814Y022565D01*
X008814Y025250D01*
X008737Y025326D01*
X008724Y025358D01*
X008711Y025326D01*
X008550Y025165D01*
X008338Y025077D01*
X008110Y025077D01*
X007899Y025165D01*
X007737Y025326D01*
X007650Y025537D01*
X007650Y026475D01*
X007737Y026686D01*
X007899Y026847D01*
X008110Y026935D01*
X008338Y026935D01*
X008550Y026847D01*
X008711Y026686D01*
X008724Y026654D01*
X008737Y026686D01*
X008899Y026847D01*
X009110Y026935D01*
X009338Y026935D01*
X009550Y026847D01*
X009711Y026686D01*
X009724Y026654D01*
X009737Y026686D01*
X009899Y026847D01*
X010110Y026935D01*
X010338Y026935D01*
X010550Y026847D01*
X010711Y026686D01*
X010724Y026654D01*
X010737Y026686D01*
X010899Y026847D01*
X011013Y026895D01*
X011230Y027111D01*
X011314Y027195D01*
X011353Y027211D01*
X011350Y027214D01*
X011286Y027278D01*
X011233Y027351D01*
X011226Y027363D01*
X011211Y027326D01*
X011050Y027165D01*
X010838Y027077D01*
X010610Y027077D01*
X010399Y027165D01*
X010237Y027326D01*
X010224Y027358D01*
X010211Y027326D01*
X010050Y027165D01*
X009838Y027077D01*
X009610Y027077D01*
X009399Y027165D01*
X009237Y027326D01*
X009224Y027358D01*
X009211Y027326D01*
X009050Y027165D01*
X008838Y027077D01*
X008610Y027077D01*
X008399Y027165D01*
X008237Y027326D01*
X008150Y027537D01*
X008150Y027706D01*
X005280Y027706D01*
X005244Y027691D01*
X005124Y027691D01*
X005014Y027737D01*
X004930Y027821D01*
X004636Y028115D01*
X004601Y028101D01*
X004367Y028101D01*
X004150Y028191D01*
X003984Y028357D01*
X003894Y028574D01*
X003894Y028808D01*
X003984Y029025D01*
X004150Y029191D01*
X004367Y029281D01*
X004601Y029281D01*
X004818Y029191D01*
X004984Y029025D01*
X005074Y028808D01*
X005074Y028574D01*
X005060Y028539D01*
X005293Y028306D01*
X008150Y028306D01*
X008150Y028475D01*
X008237Y028686D01*
X008304Y028753D01*
X008304Y029215D01*
X008368Y029369D01*
X008486Y029487D01*
X008486Y029487D01*
X008896Y029897D01*
X009050Y029961D01*
X014268Y029961D01*
X014422Y029897D01*
X014540Y029779D01*
X015080Y029239D01*
X015144Y029084D01*
X015144Y028753D01*
X015211Y028686D01*
X015299Y028475D01*
X015299Y027537D01*
X015211Y027326D01*
X015050Y027165D01*
X014838Y027077D01*
X014610Y027077D01*
X014399Y027165D01*
X014237Y027326D01*
X014224Y027358D01*
X014211Y027326D01*
X014050Y027165D01*
X013838Y027077D01*
X013610Y027077D01*
X013399Y027165D01*
X013237Y027326D01*
X013224Y027358D01*
X013211Y027326D01*
X013050Y027165D01*
X013023Y027154D01*
X012988Y027071D01*
X012904Y026987D01*
X012657Y026740D01*
X012711Y026686D01*
X012724Y026654D01*
X012737Y026686D01*
X012899Y026847D01*
X013110Y026935D01*
X013338Y026935D01*
X013550Y026847D01*
X013711Y026686D01*
X013724Y026654D01*
X013737Y026686D01*
X013899Y026847D01*
X014110Y026935D01*
X014338Y026935D01*
X014550Y026847D01*
X014711Y026686D01*
X014724Y026654D01*
X014737Y026686D01*
X014899Y026847D01*
X015110Y026935D01*
X015284Y026935D01*
X015278Y026950D01*
X015278Y027132D01*
X015347Y027299D01*
X015434Y027386D01*
X015434Y029596D01*
X015347Y029683D01*
X015278Y029850D01*
X015278Y030032D01*
X015347Y030199D01*
X015434Y030286D01*
X015434Y031301D01*
X015480Y031411D01*
X015880Y031811D01*
X015964Y031895D01*
X016074Y031941D01*
X033589Y031941D01*
X033676Y032028D01*
X033843Y032097D01*
X034025Y032097D01*
X034192Y032028D01*
X034279Y031941D01*
X038544Y031941D01*
X038654Y031895D01*
X039104Y031445D01*
X039188Y031361D01*
X039234Y031251D01*
X039234Y027386D01*
X039321Y027299D01*
X039390Y027132D01*
X039390Y026950D01*
X039321Y026783D01*
X039192Y026654D01*
X039025Y026585D01*
X038981Y026585D01*
X039027Y026475D01*
X039027Y025537D01*
X038939Y025326D01*
X038778Y025165D01*
X038567Y025077D01*
X038338Y025077D01*
X038127Y025165D01*
X037966Y025326D01*
X037953Y025358D01*
X037940Y025329D01*
X038508Y024761D01*
X041268Y024761D01*
X041422Y024697D01*
X042022Y024097D01*
X042078Y024041D01*
X044710Y024041D01*
X045184Y024515D01*
X045184Y026067D01*
X045144Y026107D01*
X045144Y025800D01*
X044875Y025531D01*
X044493Y025531D01*
X044224Y025800D01*
X044224Y026182D01*
X044493Y026451D01*
X044800Y026451D01*
X044720Y026531D01*
X044493Y026531D01*
X044224Y026800D01*
X044224Y027182D01*
X044493Y027451D01*
X044875Y027451D01*
X045144Y027182D01*
X045144Y026955D01*
X045738Y026361D01*
X045784Y026251D01*
X045784Y024331D01*
X045738Y024221D01*
X045654Y024137D01*
X045004Y023487D01*
X044894Y023441D01*
X042204Y023441D01*
X042204Y019115D01*
X042958Y018361D01*
X043144Y018361D01*
X043307Y018524D01*
X043572Y018633D01*
X044863Y018633D01*
X045129Y018524D01*
X045332Y018320D01*
X045442Y018055D01*
X045442Y017768D01*
X045332Y017503D01*
X045129Y017299D01*
X044863Y017190D01*
X043572Y017190D01*
X043307Y017299D01*
X043104Y017503D01*
X043096Y017521D01*
X042700Y017521D01*
X042546Y017585D01*
X042428Y017703D01*
X041428Y018703D01*
X041364Y018857D01*
X041364Y023567D01*
X041010Y023921D01*
X038250Y023921D01*
X038096Y023985D01*
X037246Y024835D01*
X037128Y024953D01*
X037064Y025107D01*
X037064Y025228D01*
X036966Y025326D01*
X036953Y025358D01*
X036939Y025326D01*
X036778Y025165D01*
X036567Y025077D01*
X036338Y025077D01*
X036127Y025165D01*
X035966Y025326D01*
X035953Y025358D01*
X035939Y025326D01*
X035778Y025165D01*
X035753Y025154D01*
X035753Y025047D01*
X035858Y024941D01*
X037044Y024941D01*
X037154Y024895D01*
X037704Y024345D01*
X037788Y024261D01*
X037834Y024151D01*
X037834Y023707D01*
X037843Y023703D01*
X037996Y023550D01*
X038034Y023459D01*
X038068Y023527D01*
X038118Y023596D01*
X038179Y023657D01*
X038248Y023707D01*
X038325Y023746D01*
X038406Y023773D01*
X038491Y023786D01*
X038534Y023786D01*
X038534Y023241D01*
X038534Y023241D01*
X038534Y022696D01*
X038503Y022696D01*
X038838Y022361D01*
X038884Y022251D01*
X038884Y018536D01*
X038971Y018449D01*
X039040Y018282D01*
X039040Y018100D01*
X038971Y017933D01*
X038842Y017804D01*
X038690Y017741D01*
X040189Y017741D01*
X040276Y017828D01*
X040443Y017897D01*
X040625Y017897D01*
X040792Y017828D01*
X040921Y017699D01*
X040990Y017532D01*
X040990Y017350D01*
X040921Y017183D01*
X040792Y017054D01*
X040625Y016985D01*
X040443Y016985D01*
X040276Y017054D01*
X040189Y017141D01*
X035779Y017141D01*
X035692Y017054D01*
X035525Y016985D01*
X035343Y016985D01*
X035284Y017009D01*
X035284Y015831D01*
X035443Y015897D01*
X035625Y015897D01*
X035792Y015828D01*
X035921Y015699D01*
X035990Y015532D01*
X035990Y015350D01*
X035921Y015183D01*
X035834Y015096D01*
X035834Y011786D01*
X035921Y011699D01*
X035990Y011532D01*
X035990Y011350D01*
X035921Y011183D01*
X035792Y011054D01*
X035760Y011041D01*
X037289Y011041D01*
X037376Y011128D01*
X037543Y011197D01*
X037725Y011197D01*
X037892Y011128D01*
X038021Y010999D01*
X038045Y010941D01*
X039532Y010941D01*
X039528Y010950D01*
X039528Y011132D01*
X039597Y011299D01*
X039684Y011386D01*
X039684Y013446D01*
X039597Y013533D01*
X039528Y013700D01*
X039528Y013882D01*
X039597Y014049D01*
X039726Y014178D01*
X039893Y014247D01*
X040075Y014247D01*
X040242Y014178D01*
X040371Y014049D01*
X040440Y013882D01*
X040440Y013700D01*
X040371Y013533D01*
X040284Y013446D01*
X040284Y011852D01*
X040393Y011897D01*
X040575Y011897D01*
X040702Y011844D01*
X040675Y011892D01*
X040660Y011948D01*
X040660Y012255D01*
X041197Y012255D01*
X041271Y012255D01*
X041271Y011757D01*
X041617Y011757D01*
X041673Y011772D01*
X041723Y011801D01*
X041764Y011842D01*
X041784Y011876D01*
X041804Y011842D01*
X041845Y011801D01*
X041895Y011772D01*
X041951Y011757D01*
X042297Y011757D01*
X042297Y012255D01*
X042371Y012255D01*
X042371Y011757D01*
X042717Y011757D01*
X042773Y011772D01*
X042823Y011801D01*
X042864Y011842D01*
X042893Y011892D01*
X042908Y011948D01*
X042908Y012255D01*
X042372Y012255D01*
X042372Y012330D01*
X042908Y012330D01*
X042908Y012636D01*
X042893Y012692D01*
X042864Y012742D01*
X042823Y012783D01*
X042773Y012812D01*
X042717Y012827D01*
X042371Y012827D01*
X042371Y012330D01*
X042297Y012330D01*
X042297Y012827D01*
X041951Y012827D01*
X041895Y012812D01*
X041845Y012783D01*
X041804Y012742D01*
X041784Y012708D01*
X041764Y012742D01*
X041723Y012783D01*
X041673Y012812D01*
X041617Y012827D01*
X041271Y012827D01*
X041271Y012330D01*
X041197Y012330D01*
X041197Y012827D01*
X040851Y012827D01*
X040795Y012812D01*
X040745Y012783D01*
X040704Y012742D01*
X040675Y012692D01*
X040660Y012636D01*
X040660Y012330D01*
X041197Y012330D01*
X041197Y012255D01*
X041197Y011757D01*
X040851Y011757D01*
X040799Y011771D01*
X040845Y011725D01*
X041679Y011725D01*
X041784Y011620D01*
X041889Y011725D01*
X042779Y011725D01*
X042908Y011596D01*
X042908Y010784D01*
X042779Y010655D01*
X042634Y010655D01*
X042634Y010425D01*
X042668Y010411D01*
X042834Y010245D01*
X042924Y010028D01*
X042924Y009794D01*
X042834Y009577D01*
X042668Y009411D01*
X042500Y009341D01*
X042668Y009271D01*
X042834Y009105D01*
X042924Y008888D01*
X042924Y008654D01*
X042834Y008437D01*
X042668Y008271D01*
X042451Y008181D01*
X042217Y008181D01*
X042000Y008271D01*
X041834Y008437D01*
X041820Y008471D01*
X041748Y008471D01*
X041734Y008437D01*
X041568Y008271D01*
X041351Y008181D01*
X041117Y008181D01*
X040900Y008271D01*
X040734Y008437D01*
X040644Y008654D01*
X040644Y008888D01*
X040734Y009105D01*
X040900Y009271D01*
X041068Y009341D01*
X040900Y009411D01*
X040734Y009577D01*
X040644Y009794D01*
X040644Y010028D01*
X040734Y010245D01*
X040900Y010411D01*
X040934Y010425D01*
X040934Y010535D01*
X040871Y010383D01*
X040742Y010254D01*
X040575Y010185D01*
X040393Y010185D01*
X040226Y010254D01*
X040139Y010341D01*
X037860Y010341D01*
X037725Y010285D01*
X037543Y010285D01*
X037376Y010354D01*
X037289Y010441D01*
X035124Y010441D01*
X035014Y010487D01*
X034930Y010571D01*
X034410Y011091D01*
X033029Y011091D01*
X032942Y011004D01*
X032775Y010935D01*
X032593Y010935D01*
X032426Y011004D01*
X032297Y011133D01*
X032284Y011165D01*
X032284Y010165D01*
X033108Y009341D01*
X035582Y009341D01*
X035578Y009350D01*
X035578Y009532D01*
X035647Y009699D01*
X035776Y009828D01*
X035943Y009897D01*
X036125Y009897D01*
X036292Y009828D01*
X036379Y009741D01*
X039510Y009741D01*
X039528Y009759D01*
X039528Y009882D01*
X039597Y010049D01*
X039726Y010178D01*
X039893Y010247D01*
X040075Y010247D01*
X040242Y010178D01*
X040371Y010049D01*
X040440Y009882D01*
X040440Y009700D01*
X040371Y009533D01*
X040288Y009450D01*
X040342Y009428D01*
X040471Y009299D01*
X040540Y009132D01*
X040540Y008950D01*
X040471Y008783D01*
X040342Y008654D01*
X040175Y008585D01*
X039993Y008585D01*
X039826Y008654D01*
X039739Y008741D01*
X034990Y008741D01*
X035142Y008678D01*
X035179Y008641D01*
X036144Y008641D01*
X036254Y008595D01*
X036338Y008511D01*
X036384Y008401D01*
X036384Y008215D01*
X036508Y008091D01*
X037194Y008091D01*
X037304Y008045D01*
X037388Y007961D01*
X037502Y007847D01*
X037625Y007847D01*
X037792Y007778D01*
X037921Y007649D01*
X037990Y007482D01*
X037990Y007300D01*
X037921Y007133D01*
X037792Y007004D01*
X037625Y006935D01*
X037443Y006935D01*
X037276Y007004D01*
X037147Y007133D01*
X037078Y007300D01*
X037078Y007423D01*
X037010Y007491D01*
X036324Y007491D01*
X036214Y007537D01*
X035940Y007811D01*
X035940Y007750D01*
X035871Y007583D01*
X035742Y007454D01*
X035575Y007385D01*
X035507Y007385D01*
X034684Y006337D01*
X034684Y006191D01*
X045984Y006191D01*
X045984Y038191D01*
X000484Y038191D01*
X000484Y038035D02*
X045984Y038035D01*
X045984Y037797D02*
X000484Y037797D01*
X000484Y037558D02*
X045984Y037558D01*
X045984Y037320D02*
X000484Y037320D01*
X000484Y037081D02*
X001786Y037081D01*
X001822Y037111D02*
X001554Y036887D01*
X001554Y036887D01*
X001554Y036887D01*
X001380Y036584D01*
X001319Y036240D01*
X001380Y035897D01*
X001554Y035594D01*
X001822Y035370D01*
X002150Y035250D01*
X002273Y035250D01*
X002499Y035250D01*
X002827Y035370D01*
X003094Y035594D01*
X003094Y035594D01*
X003269Y035897D01*
X003330Y036240D01*
X003269Y036584D01*
X003269Y036584D01*
X003094Y036887D01*
X002827Y037111D01*
X002827Y037111D01*
X002499Y037230D01*
X002150Y037230D01*
X001822Y037111D01*
X001822Y037111D01*
X001529Y036843D02*
X000484Y036843D01*
X000484Y036604D02*
X001391Y036604D01*
X001341Y036366D02*
X000484Y036366D01*
X000484Y036127D02*
X001339Y036127D01*
X001384Y035889D02*
X000484Y035889D01*
X000484Y035650D02*
X001522Y035650D01*
X001554Y035594D02*
X001554Y035594D01*
X001772Y035412D02*
X000484Y035412D01*
X000484Y035173D02*
X010824Y035173D01*
X010824Y035295D02*
X010824Y034937D01*
X010961Y034606D01*
X011214Y034353D01*
X011545Y034216D01*
X011903Y034216D01*
X012234Y034353D01*
X012487Y034606D01*
X012624Y034937D01*
X012624Y035295D01*
X012487Y035626D01*
X012234Y035879D01*
X011903Y036016D01*
X011545Y036016D01*
X011214Y035879D01*
X010961Y035626D01*
X010824Y035295D01*
X010873Y035412D02*
X002877Y035412D01*
X002827Y035370D02*
X002827Y035370D01*
X003094Y035594D02*
X003094Y035594D01*
X003127Y035650D02*
X010986Y035650D01*
X011238Y035889D02*
X003264Y035889D01*
X003269Y035897D02*
X003269Y035897D01*
X003310Y036127D02*
X043337Y036127D01*
X043317Y036240D02*
X043378Y035897D01*
X043378Y035897D01*
X043553Y035594D01*
X043820Y035370D01*
X044148Y035250D01*
X044271Y035250D01*
X044497Y035250D01*
X044825Y035370D01*
X044825Y035370D01*
X045093Y035594D01*
X045267Y035897D01*
X045328Y036240D01*
X045267Y036584D01*
X045093Y036887D01*
X044825Y037111D01*
X044497Y037230D01*
X044148Y037230D01*
X043820Y037111D01*
X043820Y037111D01*
X043553Y036887D01*
X043553Y036887D01*
X043378Y036584D01*
X043317Y036240D01*
X043317Y036240D01*
X043339Y036366D02*
X003307Y036366D01*
X003330Y036240D02*
X003330Y036240D01*
X003257Y036604D02*
X043389Y036604D01*
X043378Y036584D02*
X043378Y036584D01*
X043527Y036843D02*
X003120Y036843D01*
X003094Y036887D02*
X003094Y036887D01*
X002863Y037081D02*
X043784Y037081D01*
X043553Y036887D02*
X043553Y036887D01*
X043383Y035889D02*
X035439Y035889D01*
X035462Y035879D02*
X035132Y036016D01*
X034774Y036016D01*
X034443Y035879D01*
X034190Y035626D01*
X034053Y035295D01*
X034053Y034937D01*
X034190Y034606D01*
X034443Y034353D01*
X034774Y034216D01*
X035132Y034216D01*
X035462Y034353D01*
X035715Y034606D01*
X035852Y034937D01*
X035852Y035295D01*
X035715Y035626D01*
X035462Y035879D01*
X035691Y035650D02*
X043520Y035650D01*
X043553Y035594D02*
X043553Y035594D01*
X043770Y035412D02*
X035804Y035412D01*
X035852Y035173D02*
X045984Y035173D01*
X045984Y034935D02*
X035852Y034935D01*
X035753Y034696D02*
X045984Y034696D01*
X045984Y034458D02*
X035567Y034458D01*
X035139Y034219D02*
X045984Y034219D01*
X045984Y033981D02*
X000484Y033981D01*
X000484Y034219D02*
X011538Y034219D01*
X011911Y034219D02*
X034766Y034219D01*
X034338Y034458D02*
X012339Y034458D01*
X012524Y034696D02*
X034152Y034696D01*
X034054Y034935D02*
X012623Y034935D01*
X012624Y035173D02*
X034053Y035173D01*
X034101Y035412D02*
X012576Y035412D01*
X012463Y035650D02*
X034214Y035650D01*
X034466Y035889D02*
X012210Y035889D01*
X010825Y034935D02*
X000484Y034935D01*
X000484Y034696D02*
X010924Y034696D01*
X011110Y034458D02*
X000484Y034458D01*
X000484Y033742D02*
X045984Y033742D01*
X045984Y033504D02*
X000484Y033504D01*
X000484Y033265D02*
X045984Y033265D01*
X045984Y033027D02*
X000484Y033027D01*
X000484Y032788D02*
X045984Y032788D01*
X045984Y032550D02*
X000484Y032550D01*
X000484Y032311D02*
X045984Y032311D01*
X045984Y032073D02*
X034084Y032073D01*
X033784Y032073D02*
X000484Y032073D01*
X000484Y031834D02*
X015903Y031834D01*
X015664Y031596D02*
X000484Y031596D01*
X000484Y031357D02*
X015457Y031357D01*
X015434Y031119D02*
X000484Y031119D01*
X000484Y030880D02*
X015434Y030880D01*
X015434Y030642D02*
X000484Y030642D01*
X000484Y030403D02*
X015434Y030403D01*
X015333Y030165D02*
X000484Y030165D01*
X000484Y029926D02*
X008966Y029926D01*
X008687Y029688D02*
X000484Y029688D01*
X000484Y029449D02*
X008448Y029449D01*
X008304Y029211D02*
X004772Y029211D01*
X005006Y028972D02*
X008304Y028972D01*
X008285Y028734D02*
X005074Y028734D01*
X005104Y028495D02*
X008158Y028495D01*
X008150Y027541D02*
X000484Y027541D01*
X000484Y027303D02*
X001845Y027303D01*
X001724Y027064D02*
X000484Y027064D01*
X000484Y026826D02*
X001724Y026826D01*
X001937Y026587D02*
X000484Y026587D01*
X000484Y026349D02*
X001891Y026349D01*
X001724Y026110D02*
X000484Y026110D01*
X000484Y025872D02*
X001724Y025872D01*
X001891Y025633D02*
X000484Y025633D01*
X000484Y025395D02*
X003084Y025395D01*
X003084Y025633D02*
X002477Y025633D01*
X002644Y025872D02*
X002879Y025872D01*
X003489Y026110D02*
X007650Y026110D01*
X007650Y025872D02*
X003675Y025872D01*
X003684Y025633D02*
X007650Y025633D01*
X007709Y025395D02*
X003684Y025395D01*
X003684Y025156D02*
X004115Y025156D01*
X004150Y025191D02*
X003984Y025025D01*
X003894Y024808D01*
X003894Y024574D01*
X003984Y024357D01*
X004150Y024191D01*
X004367Y024101D01*
X004601Y024101D01*
X004818Y024191D01*
X004984Y024357D01*
X005074Y024574D01*
X005074Y024808D01*
X004984Y025025D01*
X004818Y025191D01*
X004601Y025281D01*
X004367Y025281D01*
X004150Y025191D01*
X003939Y024918D02*
X003684Y024918D01*
X003684Y024679D02*
X003894Y024679D01*
X003949Y024441D02*
X003684Y024441D01*
X003684Y024202D02*
X004139Y024202D01*
X003684Y023964D02*
X008814Y023964D01*
X008814Y024202D02*
X004829Y024202D01*
X005019Y024441D02*
X008814Y024441D01*
X008814Y024679D02*
X005074Y024679D01*
X005029Y024918D02*
X008814Y024918D01*
X008814Y025156D02*
X008528Y025156D01*
X007920Y025156D02*
X004853Y025156D01*
X003084Y025156D02*
X000484Y025156D01*
X000484Y024918D02*
X003084Y024918D01*
X003084Y024679D02*
X000484Y024679D01*
X000484Y024441D02*
X003084Y024441D01*
X003084Y024202D02*
X000484Y024202D01*
X000484Y023964D02*
X003084Y023964D01*
X003084Y023725D02*
X000484Y023725D01*
X000484Y023487D02*
X003084Y023487D01*
X003084Y023248D02*
X000484Y023248D01*
X000484Y023010D02*
X003084Y023010D01*
X003084Y022771D02*
X000484Y022771D01*
X000484Y022533D02*
X003084Y022533D01*
X003084Y022294D02*
X000484Y022294D01*
X000484Y022056D02*
X003084Y022056D01*
X002916Y021817D02*
X000484Y021817D01*
X000484Y021579D02*
X002678Y021579D01*
X002454Y021340D02*
X000484Y021340D01*
X000484Y021102D02*
X002401Y021102D01*
X002401Y020863D02*
X000484Y020863D01*
X000484Y020625D02*
X002401Y020625D01*
X002401Y020386D02*
X000484Y020386D01*
X000484Y020148D02*
X002067Y020148D01*
X001737Y019909D02*
X000484Y019909D01*
X000484Y019671D02*
X001621Y019671D01*
X001597Y019432D02*
X000484Y019432D01*
X000484Y019194D02*
X001653Y019194D01*
X001814Y018955D02*
X000484Y018955D01*
X000484Y018717D02*
X005484Y018717D01*
X005484Y018955D02*
X003829Y018955D01*
X003990Y019194D02*
X005372Y019194D01*
X005328Y019432D02*
X004045Y019432D01*
X004022Y019671D02*
X005418Y019671D01*
X006150Y019671D02*
X006424Y019671D01*
X006417Y019909D02*
X003906Y019909D01*
X003576Y020148D02*
X006080Y020148D01*
X005941Y020386D02*
X003241Y020386D01*
X003241Y020625D02*
X005884Y020625D01*
X005886Y020863D02*
X003241Y020863D01*
X003389Y021102D02*
X005985Y021102D01*
X007332Y021271D02*
X007436Y021167D01*
X007564Y020858D01*
X007564Y020524D01*
X007436Y020215D01*
X007200Y019979D01*
X007024Y019906D01*
X007024Y013315D01*
X007150Y013441D01*
X007367Y013531D01*
X007601Y013531D01*
X007818Y013441D01*
X007984Y013275D01*
X008074Y013058D01*
X008074Y012824D01*
X007984Y012607D01*
X007818Y012441D01*
X007601Y012351D01*
X007367Y012351D01*
X007150Y012441D01*
X007024Y012567D01*
X007024Y012075D01*
X007608Y011491D01*
X008644Y011491D01*
X008754Y011445D01*
X009204Y010995D01*
X009288Y010911D01*
X009334Y010801D01*
X009334Y009455D01*
X009368Y009441D01*
X009534Y009275D01*
X009624Y009058D01*
X009624Y008824D01*
X009534Y008607D01*
X009368Y008441D01*
X009151Y008351D01*
X008917Y008351D01*
X008700Y008441D01*
X008534Y008607D01*
X008444Y008824D01*
X008444Y009058D01*
X008534Y009275D01*
X008700Y009441D01*
X008734Y009455D01*
X008734Y010617D01*
X008460Y010891D01*
X007424Y010891D01*
X007314Y010937D01*
X007230Y011021D01*
X006973Y011278D01*
X006984Y011251D01*
X006984Y009257D01*
X007034Y009325D01*
X007100Y009391D01*
X007175Y009446D01*
X007258Y009488D01*
X007346Y009516D01*
X007438Y009531D01*
X007484Y009531D01*
X007484Y008941D01*
X007484Y008941D01*
X007484Y008351D01*
X007438Y008351D01*
X007346Y008366D01*
X007258Y008394D01*
X007175Y008436D01*
X007100Y008491D01*
X007034Y008557D01*
X006984Y008625D01*
X006984Y008215D01*
X007308Y007891D01*
X011894Y007891D01*
X012004Y007845D01*
X012088Y007761D01*
X012632Y007217D01*
X012678Y007107D01*
X012678Y006191D01*
X023684Y006191D01*
X023684Y009100D01*
X023594Y009190D01*
X023524Y009360D01*
X023524Y010023D01*
X023594Y010192D01*
X023723Y010321D01*
X023893Y010391D01*
X024076Y010391D01*
X024184Y010346D01*
X024184Y010451D01*
X024230Y010561D01*
X024314Y010645D01*
X024684Y011015D01*
X024684Y012100D01*
X024594Y012190D01*
X024524Y012360D01*
X024524Y013023D01*
X024594Y013192D01*
X024723Y013321D01*
X024893Y013391D01*
X025076Y013391D01*
X025245Y013321D01*
X025374Y013192D01*
X025444Y013023D01*
X025444Y012360D01*
X025374Y012190D01*
X025284Y012100D01*
X025284Y011531D01*
X025443Y011597D01*
X025625Y011597D01*
X025792Y011528D01*
X025921Y011399D01*
X025990Y011232D01*
X025990Y011050D01*
X025921Y010883D01*
X025814Y010776D01*
X025814Y010635D01*
X025771Y010532D01*
X025414Y010175D01*
X025414Y010095D01*
X025444Y010023D01*
X025444Y009360D01*
X025374Y009190D01*
X025245Y009061D01*
X025076Y008991D01*
X024893Y008991D01*
X024784Y009036D01*
X024784Y008152D01*
X024838Y008175D01*
X024828Y008200D01*
X024828Y008382D01*
X024897Y008549D01*
X025026Y008678D01*
X025193Y008747D01*
X025375Y008747D01*
X025542Y008678D01*
X025671Y008549D01*
X025740Y008382D01*
X025740Y008231D01*
X025843Y008128D01*
X025843Y008128D01*
X025921Y008050D01*
X025964Y007947D01*
X025964Y007156D01*
X025984Y007136D01*
X025984Y008517D01*
X025730Y008771D01*
X025684Y008881D01*
X025684Y009100D01*
X025594Y009190D01*
X025524Y009360D01*
X025524Y010023D01*
X025594Y010192D01*
X025723Y010321D01*
X025893Y010391D01*
X026076Y010391D01*
X026184Y010346D01*
X026184Y010501D01*
X026230Y010611D01*
X026314Y010695D01*
X026684Y011065D01*
X026684Y012100D01*
X026594Y012190D01*
X026524Y012360D01*
X026524Y013023D01*
X026594Y013192D01*
X026723Y013321D01*
X026893Y013391D01*
X027076Y013391D01*
X027245Y013321D01*
X027374Y013192D01*
X027444Y013023D01*
X027444Y012360D01*
X027374Y012190D01*
X027284Y012100D01*
X027284Y010881D01*
X027238Y010771D01*
X026834Y010367D01*
X026893Y010391D01*
X027076Y010391D01*
X027245Y010321D01*
X027374Y010192D01*
X027444Y010023D01*
X027444Y009991D01*
X028144Y009991D01*
X028254Y009945D01*
X028654Y009545D01*
X028738Y009461D01*
X028784Y009351D01*
X028784Y008065D01*
X028864Y008145D01*
X029314Y008595D01*
X029424Y008641D01*
X030944Y008641D01*
X031054Y008595D01*
X031138Y008511D01*
X031138Y008511D01*
X031208Y008441D01*
X033444Y008441D01*
X033554Y008395D01*
X033638Y008311D01*
X033638Y008311D01*
X033702Y008247D01*
X033825Y008247D01*
X033992Y008178D01*
X034121Y008049D01*
X034190Y007882D01*
X034190Y007700D01*
X034121Y007533D01*
X033992Y007404D01*
X033825Y007335D01*
X033643Y007335D01*
X033476Y007404D01*
X033347Y007533D01*
X033340Y007550D01*
X033340Y007500D01*
X033271Y007333D01*
X033214Y007276D01*
X033879Y006191D01*
X034084Y006191D01*
X034084Y006423D01*
X034079Y006465D01*
X034084Y006482D01*
X034084Y006501D01*
X034100Y006539D01*
X034111Y006579D01*
X034123Y006594D01*
X034130Y006611D01*
X034159Y006640D01*
X035029Y007747D01*
X035028Y007750D01*
X035028Y007857D01*
X034975Y007835D01*
X034793Y007835D01*
X034626Y007904D01*
X034497Y008033D01*
X034428Y008200D01*
X034428Y008382D01*
X034497Y008549D01*
X034626Y008678D01*
X034778Y008741D01*
X032924Y008741D01*
X032814Y008787D01*
X031730Y009871D01*
X031684Y009981D01*
X031684Y012696D01*
X031597Y012783D01*
X031528Y012950D01*
X031528Y013132D01*
X031552Y013191D01*
X030608Y013191D01*
X030534Y013117D01*
X030534Y009886D01*
X030621Y009799D01*
X030690Y009632D01*
X030690Y009450D01*
X030621Y009283D01*
X030492Y009154D01*
X030325Y009085D01*
X030143Y009085D01*
X029976Y009154D01*
X029847Y009283D01*
X029778Y009450D01*
X029778Y009632D01*
X029847Y009799D01*
X029934Y009886D01*
X029934Y013301D01*
X029980Y013411D01*
X030210Y013641D01*
X023784Y013641D01*
X023784Y013346D01*
X023893Y013391D01*
X024076Y013391D01*
X024245Y013321D01*
X024374Y013192D01*
X024444Y013023D01*
X024444Y012360D01*
X024374Y012190D01*
X024245Y012061D01*
X024076Y011991D01*
X023893Y011991D01*
X023723Y012061D01*
X023594Y012190D01*
X023536Y012331D01*
X023425Y012285D01*
X023386Y012285D01*
X023843Y011828D01*
X023921Y011750D01*
X023964Y011647D01*
X023964Y011447D01*
X023975Y011447D01*
X024142Y011378D01*
X024271Y011249D01*
X024340Y011082D01*
X024340Y010900D01*
X024271Y010733D01*
X024142Y010604D01*
X023975Y010535D01*
X023793Y010535D01*
X023626Y010604D01*
X023497Y010733D01*
X023428Y010900D01*
X023428Y011078D01*
X023404Y011135D01*
X023404Y011475D01*
X022768Y012111D01*
X021249Y012111D01*
X021142Y012004D01*
X020975Y011935D01*
X020793Y011935D01*
X020626Y012004D01*
X020508Y012122D01*
X020471Y012033D01*
X020415Y011976D01*
X020538Y011871D01*
X021740Y011871D01*
X021843Y011828D01*
X021921Y011750D01*
X021964Y011647D01*
X021964Y009306D01*
X022071Y009199D01*
X022140Y009032D01*
X022140Y008850D01*
X022071Y008683D01*
X021942Y008554D01*
X021775Y008485D01*
X021593Y008485D01*
X021426Y008554D01*
X021297Y008683D01*
X021228Y008850D01*
X021228Y009032D01*
X021297Y009199D01*
X021404Y009306D01*
X021404Y011311D01*
X020659Y011311D01*
X020721Y011249D01*
X020790Y011082D01*
X020790Y010900D01*
X020721Y010733D01*
X020592Y010604D01*
X020425Y010535D01*
X020243Y010535D01*
X020076Y010604D01*
X019969Y010711D01*
X019928Y010711D01*
X019825Y010754D01*
X019628Y010951D01*
X019621Y010933D01*
X019492Y010804D01*
X019325Y010735D01*
X019143Y010735D01*
X018976Y010804D01*
X018847Y010933D01*
X018778Y011100D01*
X018778Y011282D01*
X018847Y011449D01*
X018954Y011556D01*
X018954Y012985D01*
X018793Y012985D01*
X018626Y013054D01*
X018497Y013183D01*
X018428Y013350D01*
X018428Y013532D01*
X018497Y013699D01*
X018626Y013828D01*
X018793Y013897D01*
X018975Y013897D01*
X019142Y013828D01*
X019271Y013699D01*
X019306Y013615D01*
X019321Y013600D01*
X019354Y013567D01*
X019354Y013726D01*
X019247Y013833D01*
X019178Y014000D01*
X019178Y014182D01*
X019247Y014349D01*
X019339Y014441D01*
X015674Y014441D01*
X015564Y014487D01*
X015480Y014571D01*
X014680Y015371D01*
X014634Y015481D01*
X014634Y021617D01*
X014410Y021841D01*
X010724Y021841D01*
X010614Y021887D01*
X010530Y021971D01*
X009970Y022531D01*
X009924Y022641D01*
X009924Y025154D01*
X009899Y025165D01*
X009737Y025326D01*
X009724Y025358D01*
X009711Y025326D01*
X009654Y025269D01*
X009654Y022307D01*
X009590Y022153D01*
X009472Y022035D01*
X008772Y021335D01*
X008618Y021271D01*
X007332Y021271D01*
X007463Y021102D02*
X014634Y021102D01*
X014634Y021340D02*
X008777Y021340D01*
X009016Y021579D02*
X014634Y021579D01*
X014434Y021817D02*
X009254Y021817D01*
X009493Y022056D02*
X010445Y022056D01*
X010207Y022294D02*
X009648Y022294D01*
X009654Y022533D02*
X009969Y022533D01*
X009924Y022771D02*
X009654Y022771D01*
X009654Y023010D02*
X009924Y023010D01*
X009924Y023248D02*
X009654Y023248D01*
X009654Y023487D02*
X009924Y023487D01*
X009924Y023725D02*
X009654Y023725D01*
X009654Y023964D02*
X009924Y023964D01*
X009924Y024202D02*
X009654Y024202D01*
X009654Y024441D02*
X009924Y024441D01*
X009924Y024679D02*
X009654Y024679D01*
X009654Y024918D02*
X009924Y024918D01*
X009920Y025156D02*
X009654Y025156D01*
X008814Y023725D02*
X003684Y023725D01*
X003684Y023487D02*
X008814Y023487D01*
X008814Y023248D02*
X003684Y023248D01*
X003684Y023010D02*
X008814Y023010D01*
X008814Y022771D02*
X003684Y022771D01*
X003684Y022533D02*
X008782Y022533D01*
X008543Y022294D02*
X003684Y022294D01*
X007031Y019909D02*
X014634Y019909D01*
X014634Y019671D02*
X007024Y019671D01*
X007024Y019432D02*
X014634Y019432D01*
X014634Y019194D02*
X007024Y019194D01*
X007024Y018955D02*
X014634Y018955D01*
X014634Y018717D02*
X007024Y018717D01*
X007024Y018478D02*
X014634Y018478D01*
X014634Y018240D02*
X007024Y018240D01*
X007024Y018001D02*
X014634Y018001D01*
X014634Y017763D02*
X007024Y017763D01*
X007024Y017524D02*
X014634Y017524D01*
X014634Y017286D02*
X007024Y017286D01*
X007024Y017047D02*
X014634Y017047D01*
X014634Y016809D02*
X007024Y016809D01*
X007024Y016570D02*
X014634Y016570D01*
X014634Y016332D02*
X007024Y016332D01*
X007024Y016093D02*
X008002Y016093D01*
X007984Y016075D02*
X007894Y015858D01*
X007894Y015624D01*
X007984Y015407D01*
X008150Y015241D01*
X008184Y015227D01*
X008184Y014081D01*
X008230Y013971D01*
X008314Y013887D01*
X008514Y013687D01*
X008624Y013641D01*
X009310Y013641D01*
X009186Y013517D01*
X009151Y013531D01*
X008917Y013531D01*
X008700Y013441D01*
X008534Y013275D01*
X008444Y013058D01*
X008444Y012824D01*
X008534Y012607D01*
X008700Y012441D01*
X008917Y012351D01*
X009151Y012351D01*
X009368Y012441D01*
X009534Y012607D01*
X009624Y012824D01*
X009624Y013058D01*
X009610Y013093D01*
X009758Y013241D01*
X010275Y013241D01*
X010237Y013168D01*
X010209Y013079D01*
X010194Y012987D01*
X010194Y012941D01*
X010194Y012895D01*
X010209Y012803D01*
X010237Y012715D01*
X010279Y012632D01*
X010334Y012557D01*
X010400Y012491D01*
X010475Y012436D01*
X010558Y012394D01*
X010646Y012366D01*
X010738Y012351D01*
X010784Y012351D01*
X010784Y012941D01*
X010784Y012941D01*
X010194Y012941D01*
X010784Y012941D01*
X010784Y012941D01*
X010784Y012351D01*
X010830Y012351D01*
X010922Y012366D01*
X011010Y012394D01*
X011093Y012436D01*
X011168Y012491D01*
X011234Y012557D01*
X011289Y012632D01*
X011331Y012715D01*
X011359Y012803D01*
X011374Y012895D01*
X011374Y012941D01*
X010784Y012941D01*
X010784Y012941D01*
X011374Y012941D01*
X011374Y012987D01*
X011359Y013079D01*
X011331Y013168D01*
X011293Y013241D01*
X011510Y013241D01*
X012064Y012687D01*
X012174Y012641D01*
X017689Y012641D01*
X017726Y012604D01*
X017893Y012535D01*
X018075Y012535D01*
X018242Y012604D01*
X018371Y012733D01*
X018440Y012900D01*
X018440Y013082D01*
X018371Y013249D01*
X018242Y013378D01*
X018075Y013447D01*
X017893Y013447D01*
X017726Y013378D01*
X017597Y013249D01*
X017594Y013241D01*
X012358Y013241D01*
X011958Y013641D01*
X015089Y013641D01*
X015176Y013554D01*
X015343Y013485D01*
X015525Y013485D01*
X015692Y013554D01*
X015821Y013683D01*
X015890Y013850D01*
X015890Y014032D01*
X015821Y014199D01*
X015692Y014328D01*
X015525Y014397D01*
X015343Y014397D01*
X015176Y014328D01*
X015089Y014241D01*
X008808Y014241D01*
X008784Y014265D01*
X008784Y015227D01*
X008818Y015241D01*
X008984Y015407D01*
X009074Y015624D01*
X009074Y015858D01*
X008984Y016075D01*
X008818Y016241D01*
X008601Y016331D01*
X008367Y016331D01*
X008150Y016241D01*
X007984Y016075D01*
X007894Y015855D02*
X007024Y015855D01*
X007024Y015616D02*
X007897Y015616D01*
X008013Y015378D02*
X007024Y015378D01*
X007024Y015139D02*
X008184Y015139D01*
X008184Y014901D02*
X007024Y014901D01*
X007024Y014662D02*
X008184Y014662D01*
X008184Y014424D02*
X007024Y014424D01*
X007024Y014185D02*
X008184Y014185D01*
X008254Y013947D02*
X007024Y013947D01*
X007024Y013708D02*
X008493Y013708D01*
X008768Y013470D02*
X007750Y013470D01*
X008003Y013231D02*
X008516Y013231D01*
X008444Y012993D02*
X008074Y012993D01*
X008045Y012754D02*
X008473Y012754D01*
X008625Y012516D02*
X007893Y012516D01*
X007075Y012516D02*
X007024Y012516D01*
X007024Y012277D02*
X016538Y012277D01*
X016547Y012299D02*
X016478Y012132D01*
X016478Y011950D01*
X016547Y011783D01*
X016654Y011676D01*
X016654Y011406D01*
X016647Y011399D01*
X016578Y011232D01*
X016578Y011050D01*
X016647Y010883D01*
X016776Y010754D01*
X016943Y010685D01*
X017125Y010685D01*
X017292Y010754D01*
X017421Y010883D01*
X017490Y011050D01*
X017490Y011232D01*
X017421Y011399D01*
X017292Y011528D01*
X017214Y011560D01*
X017214Y011676D01*
X017321Y011783D01*
X017390Y011950D01*
X017390Y012132D01*
X017321Y012299D01*
X017192Y012428D01*
X017025Y012497D01*
X016843Y012497D01*
X016676Y012428D01*
X016547Y012299D01*
X016478Y012039D02*
X007061Y012039D01*
X007299Y011800D02*
X016540Y011800D01*
X016654Y011562D02*
X007538Y011562D01*
X007166Y011085D02*
X006984Y011085D01*
X006984Y010846D02*
X008505Y010846D01*
X008734Y010608D02*
X006984Y010608D01*
X006984Y010369D02*
X008734Y010369D01*
X008734Y010131D02*
X006984Y010131D01*
X006984Y009892D02*
X008734Y009892D01*
X008734Y009654D02*
X006984Y009654D01*
X006984Y009415D02*
X007133Y009415D01*
X007484Y009415D02*
X007484Y009415D01*
X007484Y009531D02*
X007484Y008941D01*
X007484Y008351D01*
X007530Y008351D01*
X007622Y008366D01*
X007710Y008394D01*
X007793Y008436D01*
X007868Y008491D01*
X007934Y008557D01*
X007989Y008632D01*
X008031Y008715D01*
X008059Y008803D01*
X008074Y008895D01*
X008074Y008941D01*
X007484Y008941D01*
X007484Y008941D01*
X007484Y008941D01*
X008074Y008941D01*
X008074Y008987D01*
X008059Y009079D01*
X008031Y009168D01*
X007989Y009250D01*
X007934Y009325D01*
X007868Y009391D01*
X007793Y009446D01*
X007710Y009488D01*
X007622Y009516D01*
X007530Y009531D01*
X007484Y009531D01*
X007484Y009177D02*
X007484Y009177D01*
X007484Y008938D02*
X007484Y008938D01*
X007484Y008700D02*
X007484Y008700D01*
X007484Y008461D02*
X007484Y008461D01*
X007141Y008461D02*
X006984Y008461D01*
X006984Y008223D02*
X013265Y008223D01*
X013293Y008251D02*
X013024Y007982D01*
X013024Y007600D01*
X013293Y007331D01*
X013623Y007331D01*
X013524Y007232D01*
X013524Y006850D01*
X013793Y006581D01*
X014175Y006581D01*
X014444Y006850D01*
X014444Y007232D01*
X014345Y007331D01*
X014484Y007331D01*
X014484Y007791D01*
X014484Y007791D01*
X014024Y007791D01*
X014024Y007600D01*
X014123Y007501D01*
X013845Y007501D01*
X013944Y007600D01*
X013944Y007982D01*
X013675Y008251D01*
X013293Y008251D01*
X013026Y007984D02*
X007215Y007984D01*
X006844Y007507D02*
X002968Y007507D01*
X002989Y007628D02*
X002929Y007972D01*
X002754Y008274D01*
X002487Y008499D01*
X002159Y008618D01*
X001809Y008618D01*
X001481Y008499D01*
X001214Y008274D01*
X001039Y007972D01*
X001039Y007972D01*
X000979Y007628D01*
X001039Y007284D01*
X001214Y006982D01*
X001214Y006982D01*
X001481Y006757D01*
X001481Y006757D01*
X001809Y006638D01*
X001932Y006638D01*
X002159Y006638D01*
X002487Y006757D01*
X002754Y006982D01*
X002929Y007284D01*
X002929Y007284D01*
X002989Y007628D01*
X002989Y007628D01*
X002969Y007746D02*
X006605Y007746D01*
X006404Y007984D02*
X002922Y007984D01*
X002784Y008223D02*
X006384Y008223D01*
X006384Y008461D02*
X006138Y008461D01*
X006118Y008441D02*
X006284Y008607D01*
X006374Y008824D01*
X006374Y009058D01*
X006284Y009275D01*
X006118Y009441D01*
X005901Y009531D01*
X005667Y009531D01*
X005450Y009441D01*
X005284Y009275D01*
X005194Y009058D01*
X005194Y008824D01*
X005284Y008607D01*
X005450Y008441D01*
X005667Y008351D01*
X005901Y008351D01*
X006118Y008441D01*
X006323Y008700D02*
X006384Y008700D01*
X006374Y008938D02*
X006384Y008938D01*
X006384Y009177D02*
X006325Y009177D01*
X006384Y009415D02*
X006144Y009415D01*
X006384Y009654D02*
X004172Y009654D01*
X004244Y009582D02*
X003975Y009851D01*
X003784Y009851D01*
X003593Y009851D01*
X003494Y009752D01*
X003494Y010030D01*
X003593Y009931D01*
X003975Y009931D01*
X004244Y010200D01*
X004244Y010582D01*
X003975Y010851D01*
X003593Y010851D01*
X003324Y010582D01*
X003324Y010252D01*
X003225Y010351D01*
X002843Y010351D01*
X002574Y010082D01*
X002574Y009700D01*
X002843Y009431D01*
X003225Y009431D01*
X003324Y009530D01*
X003324Y009391D01*
X003324Y009200D01*
X003593Y008931D01*
X003784Y008931D01*
X003784Y009391D01*
X003784Y009391D01*
X003324Y009391D01*
X003784Y009391D01*
X003784Y009391D01*
X003784Y008931D01*
X003975Y008931D01*
X004244Y009200D01*
X004244Y009391D01*
X003784Y009391D01*
X003784Y009391D01*
X003784Y009851D01*
X003784Y009391D01*
X003784Y009391D01*
X004244Y009391D01*
X004244Y009582D01*
X004244Y009415D02*
X005424Y009415D01*
X005243Y009177D02*
X004220Y009177D01*
X003982Y008938D02*
X005194Y008938D01*
X005245Y008700D02*
X000484Y008700D01*
X000484Y008938D02*
X003586Y008938D01*
X003784Y008938D02*
X003784Y008938D01*
X003784Y009177D02*
X003784Y009177D01*
X003784Y009415D02*
X003784Y009415D01*
X003784Y009654D02*
X003784Y009654D01*
X003494Y009892D02*
X006384Y009892D01*
X006384Y010131D02*
X004174Y010131D01*
X004244Y010369D02*
X006384Y010369D01*
X006384Y010608D02*
X004218Y010608D01*
X003980Y010846D02*
X006384Y010846D01*
X006366Y011085D02*
X000484Y011085D01*
X000484Y011323D02*
X006128Y011323D01*
X005889Y011562D02*
X000484Y011562D01*
X000484Y011800D02*
X005651Y011800D01*
X005534Y012039D02*
X000484Y012039D01*
X000484Y012277D02*
X005534Y012277D01*
X005375Y012516D02*
X000484Y012516D01*
X000484Y012754D02*
X005223Y012754D01*
X005194Y012993D02*
X000484Y012993D01*
X000484Y013231D02*
X001793Y013231D01*
X001724Y013300D02*
X001993Y013031D01*
X002184Y013031D01*
X002184Y013491D01*
X002184Y013491D01*
X001724Y013491D01*
X001724Y013300D01*
X001724Y013470D02*
X000484Y013470D01*
X000484Y013708D02*
X001750Y013708D01*
X001724Y013682D02*
X001724Y013491D01*
X002184Y013491D01*
X002184Y013491D01*
X002184Y013031D01*
X002375Y013031D01*
X002644Y013300D01*
X002644Y013491D01*
X002184Y013491D01*
X002184Y013491D01*
X002184Y013951D01*
X001993Y013951D01*
X001724Y013682D01*
X001989Y013947D02*
X000484Y013947D01*
X000484Y014185D02*
X001839Y014185D01*
X001724Y014300D02*
X001993Y014031D01*
X002375Y014031D01*
X002644Y014300D01*
X002644Y014682D01*
X002375Y014951D01*
X001993Y014951D01*
X001724Y014682D01*
X001724Y014300D01*
X001724Y014424D02*
X000484Y014424D01*
X000484Y014662D02*
X001724Y014662D01*
X001943Y014901D02*
X000484Y014901D01*
X000484Y015139D02*
X005484Y015139D01*
X005484Y014901D02*
X002425Y014901D01*
X002644Y014662D02*
X005484Y014662D01*
X005484Y014424D02*
X002644Y014424D01*
X002529Y014185D02*
X005484Y014185D01*
X005484Y013947D02*
X002379Y013947D01*
X002375Y013951D02*
X002184Y013951D01*
X002184Y013491D01*
X002184Y013491D01*
X002644Y013491D01*
X002644Y013682D01*
X002375Y013951D01*
X002184Y013947D02*
X002184Y013947D01*
X002184Y013708D02*
X002184Y013708D01*
X002184Y013470D02*
X002184Y013470D01*
X002184Y013231D02*
X002184Y013231D01*
X002575Y013231D02*
X005266Y013231D01*
X005484Y013470D02*
X002644Y013470D01*
X002618Y013708D02*
X005484Y013708D01*
X006084Y013708D02*
X006424Y013708D01*
X006424Y013470D02*
X006084Y013470D01*
X006303Y013231D02*
X006424Y013231D01*
X006424Y012993D02*
X006374Y012993D01*
X006345Y012754D02*
X006424Y012754D01*
X006424Y012516D02*
X006193Y012516D01*
X006134Y012277D02*
X006424Y012277D01*
X006424Y012039D02*
X006261Y012039D01*
X007024Y013470D02*
X007218Y013470D01*
X006424Y013947D02*
X006084Y013947D01*
X006084Y014185D02*
X006424Y014185D01*
X006424Y014424D02*
X006084Y014424D01*
X006084Y014662D02*
X006424Y014662D01*
X006424Y014901D02*
X006084Y014901D01*
X006084Y015139D02*
X006424Y015139D01*
X006424Y015378D02*
X006084Y015378D01*
X006084Y015616D02*
X006424Y015616D01*
X006424Y015855D02*
X006084Y015855D01*
X006084Y016093D02*
X006424Y016093D01*
X006424Y016332D02*
X006084Y016332D01*
X006084Y016570D02*
X006424Y016570D01*
X006424Y016809D02*
X006084Y016809D01*
X006084Y017047D02*
X006424Y017047D01*
X006424Y017286D02*
X006084Y017286D01*
X006084Y017524D02*
X006424Y017524D01*
X006424Y017763D02*
X006084Y017763D01*
X006084Y018001D02*
X006424Y018001D01*
X006424Y018240D02*
X006084Y018240D01*
X006084Y018478D02*
X006424Y018478D01*
X006424Y018717D02*
X006084Y018717D01*
X006084Y018955D02*
X006424Y018955D01*
X006424Y019194D02*
X006196Y019194D01*
X006240Y019432D02*
X006424Y019432D01*
X007368Y020148D02*
X014634Y020148D01*
X014634Y020386D02*
X007507Y020386D01*
X007564Y020625D02*
X014634Y020625D01*
X014634Y020863D02*
X007562Y020863D01*
X005484Y018478D02*
X003778Y018478D01*
X003732Y018524D02*
X003467Y018633D01*
X002176Y018633D01*
X001910Y018524D01*
X001707Y018320D01*
X001597Y018055D01*
X001597Y017768D01*
X001707Y017503D01*
X001910Y017299D01*
X002176Y017190D01*
X003467Y017190D01*
X003732Y017299D01*
X003935Y017503D01*
X004045Y017768D01*
X004045Y018055D01*
X003935Y018320D01*
X003732Y018524D01*
X003969Y018240D02*
X005484Y018240D01*
X005484Y018001D02*
X004045Y018001D01*
X004043Y017763D02*
X005484Y017763D01*
X005484Y017524D02*
X003944Y017524D01*
X003699Y017286D02*
X005484Y017286D01*
X005484Y017047D02*
X000484Y017047D01*
X000484Y016809D02*
X005484Y016809D01*
X005484Y016570D02*
X000484Y016570D01*
X000484Y016332D02*
X005484Y016332D01*
X005484Y016093D02*
X004966Y016093D01*
X004984Y016075D02*
X004818Y016241D01*
X004601Y016331D01*
X004367Y016331D01*
X004150Y016241D01*
X003984Y016075D01*
X003894Y015858D01*
X003894Y015624D01*
X003984Y015407D01*
X004150Y015241D01*
X004367Y015151D01*
X004601Y015151D01*
X004818Y015241D01*
X004984Y015407D01*
X005074Y015624D01*
X005074Y015858D01*
X004984Y016075D01*
X005074Y015855D02*
X005484Y015855D01*
X005484Y015616D02*
X005071Y015616D01*
X004955Y015378D02*
X005484Y015378D01*
X004013Y015378D02*
X000484Y015378D01*
X000484Y015616D02*
X003897Y015616D01*
X003894Y015855D02*
X000484Y015855D01*
X000484Y016093D02*
X004002Y016093D01*
X001944Y017286D02*
X000484Y017286D01*
X000484Y017524D02*
X001698Y017524D01*
X001600Y017763D02*
X000484Y017763D01*
X000484Y018001D02*
X001597Y018001D01*
X001674Y018240D02*
X000484Y018240D01*
X000484Y018478D02*
X001865Y018478D01*
X008966Y016093D02*
X014634Y016093D01*
X014634Y015855D02*
X009074Y015855D01*
X009071Y015616D02*
X014634Y015616D01*
X014677Y015378D02*
X008955Y015378D01*
X008784Y015139D02*
X014912Y015139D01*
X015150Y014901D02*
X008784Y014901D01*
X008784Y014662D02*
X015389Y014662D01*
X015827Y014185D02*
X019179Y014185D01*
X019200Y013947D02*
X015890Y013947D01*
X015831Y013708D02*
X018506Y013708D01*
X018428Y013470D02*
X012130Y013470D01*
X011758Y012993D02*
X011373Y012993D01*
X011344Y012754D02*
X011997Y012754D01*
X011520Y013231D02*
X011298Y013231D01*
X010784Y012754D02*
X010784Y012754D01*
X010784Y012516D02*
X010784Y012516D01*
X010375Y012516D02*
X009443Y012516D01*
X009595Y012754D02*
X010224Y012754D01*
X010195Y012993D02*
X009624Y012993D01*
X009748Y013231D02*
X010270Y013231D01*
X011193Y012516D02*
X018954Y012516D01*
X018954Y012754D02*
X018380Y012754D01*
X018440Y012993D02*
X018775Y012993D01*
X018477Y013231D02*
X018378Y013231D01*
X019262Y013708D02*
X019354Y013708D01*
X019321Y014424D02*
X008784Y014424D01*
X008876Y011323D02*
X016616Y011323D01*
X016578Y011085D02*
X009115Y011085D01*
X009315Y010846D02*
X014946Y010846D01*
X014947Y010849D02*
X014878Y010682D01*
X014878Y010500D01*
X014947Y010333D01*
X015076Y010204D01*
X015243Y010135D01*
X015394Y010135D01*
X015463Y010066D01*
X015447Y010049D01*
X015378Y009882D01*
X015378Y009700D01*
X015447Y009533D01*
X015576Y009404D01*
X015743Y009335D01*
X015925Y009335D01*
X016092Y009404D01*
X016221Y009533D01*
X016290Y009700D01*
X016290Y009882D01*
X016221Y010049D01*
X016107Y010163D01*
X016071Y010250D01*
X015790Y010531D01*
X015790Y010682D01*
X015721Y010849D01*
X015592Y010978D01*
X015425Y011047D01*
X015243Y011047D01*
X015076Y010978D01*
X014947Y010849D01*
X014878Y010608D02*
X009334Y010608D01*
X009334Y010369D02*
X014932Y010369D01*
X015399Y010131D02*
X009334Y010131D01*
X009334Y009892D02*
X015382Y009892D01*
X015397Y009654D02*
X009334Y009654D01*
X009394Y009415D02*
X010424Y009415D01*
X010450Y009441D02*
X010284Y009275D01*
X010194Y009058D01*
X010194Y008824D01*
X010284Y008607D01*
X010450Y008441D01*
X010667Y008351D01*
X010901Y008351D01*
X011118Y008441D01*
X011284Y008607D01*
X011374Y008824D01*
X011374Y009058D01*
X011284Y009275D01*
X011118Y009441D01*
X010901Y009531D01*
X010667Y009531D01*
X010450Y009441D01*
X010243Y009177D02*
X009575Y009177D01*
X009624Y008938D02*
X010194Y008938D01*
X010245Y008700D02*
X009573Y008700D01*
X009388Y008461D02*
X010430Y008461D01*
X011138Y008461D02*
X019569Y008461D01*
X019547Y008483D02*
X019654Y008376D01*
X019654Y008206D01*
X019547Y008099D01*
X019478Y007932D01*
X019478Y007750D01*
X019547Y007583D01*
X019676Y007454D01*
X019843Y007385D01*
X020025Y007385D01*
X020192Y007454D01*
X020321Y007583D01*
X020390Y007750D01*
X020390Y007932D01*
X020321Y008099D01*
X020214Y008206D01*
X020214Y008376D01*
X020321Y008483D01*
X020390Y008650D01*
X020390Y008832D01*
X020321Y008999D01*
X020192Y009128D01*
X020025Y009197D01*
X019843Y009197D01*
X019676Y009128D01*
X019547Y008999D01*
X019478Y008832D01*
X019478Y008650D01*
X019547Y008483D01*
X019478Y008700D02*
X011323Y008700D01*
X011374Y008938D02*
X017942Y008938D01*
X017976Y008904D02*
X018143Y008835D01*
X018325Y008835D01*
X018492Y008904D01*
X018621Y009033D01*
X018690Y009200D01*
X018690Y009382D01*
X018621Y009549D01*
X018492Y009678D01*
X018325Y009747D01*
X018264Y009747D01*
X018264Y010726D01*
X018371Y010833D01*
X018440Y011000D01*
X018440Y011182D01*
X018371Y011349D01*
X018242Y011478D01*
X018075Y011547D01*
X017893Y011547D01*
X017726Y011478D01*
X017597Y011349D01*
X017528Y011182D01*
X017528Y011000D01*
X017597Y010833D01*
X017704Y010726D01*
X017704Y009485D01*
X017747Y009382D01*
X017778Y009351D01*
X017778Y009200D01*
X017847Y009033D01*
X017976Y008904D01*
X017788Y009177D02*
X011325Y009177D01*
X011144Y009415D02*
X015565Y009415D01*
X016103Y009415D02*
X017733Y009415D01*
X017704Y009654D02*
X016271Y009654D01*
X016286Y009892D02*
X017704Y009892D01*
X017704Y010131D02*
X016140Y010131D01*
X015952Y010369D02*
X017704Y010369D01*
X017704Y010608D02*
X015790Y010608D01*
X015722Y010846D02*
X016684Y010846D01*
X017214Y011562D02*
X018954Y011562D01*
X018954Y011800D02*
X017328Y011800D01*
X017390Y012039D02*
X018954Y012039D01*
X018954Y012277D02*
X017330Y012277D01*
X017452Y011323D02*
X017586Y011323D01*
X017528Y011085D02*
X017490Y011085D01*
X017592Y010846D02*
X017384Y010846D01*
X018264Y010608D02*
X020072Y010608D01*
X019733Y010846D02*
X019534Y010846D01*
X018934Y010846D02*
X018376Y010846D01*
X018440Y011085D02*
X018784Y011085D01*
X018795Y011323D02*
X018382Y011323D01*
X018264Y010369D02*
X021404Y010369D01*
X021404Y010131D02*
X018264Y010131D01*
X018264Y009892D02*
X021404Y009892D01*
X021404Y009654D02*
X018517Y009654D01*
X018676Y009415D02*
X021404Y009415D01*
X021288Y009177D02*
X020075Y009177D01*
X019793Y009177D02*
X018680Y009177D01*
X018526Y008938D02*
X019522Y008938D01*
X019654Y008223D02*
X014703Y008223D01*
X014675Y008251D02*
X014944Y007982D01*
X014944Y007791D01*
X014484Y007791D01*
X014484Y007791D01*
X014484Y007331D01*
X014675Y007331D01*
X014944Y007600D01*
X014944Y007791D01*
X014484Y007791D01*
X014024Y007791D01*
X014024Y007982D01*
X014293Y008251D01*
X014484Y008251D01*
X014484Y007791D01*
X014484Y007791D01*
X014484Y007791D01*
X014484Y008251D01*
X014675Y008251D01*
X014484Y008223D02*
X014484Y008223D01*
X014265Y008223D02*
X013703Y008223D01*
X013942Y007984D02*
X014026Y007984D01*
X014024Y007746D02*
X013944Y007746D01*
X013851Y007507D02*
X014117Y007507D01*
X014484Y007507D02*
X014484Y007507D01*
X014484Y007746D02*
X014484Y007746D01*
X014484Y007984D02*
X014484Y007984D01*
X014942Y007984D02*
X019499Y007984D01*
X019480Y007746D02*
X014944Y007746D01*
X014851Y007507D02*
X019623Y007507D01*
X020245Y007507D02*
X023684Y007507D01*
X023684Y007269D02*
X014407Y007269D01*
X014444Y007030D02*
X023684Y007030D01*
X023684Y006792D02*
X014385Y006792D01*
X013583Y006792D02*
X012678Y006792D01*
X012678Y007030D02*
X013524Y007030D01*
X013561Y007269D02*
X012581Y007269D01*
X012342Y007507D02*
X013117Y007507D01*
X013024Y007746D02*
X012104Y007746D01*
X011732Y007269D02*
X002920Y007269D01*
X002782Y007030D02*
X011971Y007030D01*
X012078Y006792D02*
X002527Y006792D01*
X002487Y006757D02*
X002487Y006757D01*
X002754Y006982D02*
X002754Y006982D01*
X002754Y006982D01*
X002754Y008274D02*
X002754Y008274D01*
X002531Y008461D02*
X005430Y008461D01*
X003348Y009177D02*
X000484Y009177D01*
X000484Y009415D02*
X003324Y009415D01*
X002621Y009654D02*
X000484Y009654D01*
X000484Y009892D02*
X002574Y009892D01*
X002623Y010131D02*
X000484Y010131D01*
X000484Y010369D02*
X003324Y010369D01*
X003350Y010608D02*
X000484Y010608D01*
X000484Y010846D02*
X003588Y010846D01*
X002487Y008499D02*
X002487Y008499D01*
X001481Y008499D02*
X001481Y008499D01*
X001437Y008461D02*
X000484Y008461D01*
X000484Y008223D02*
X001184Y008223D01*
X001214Y008274D02*
X001214Y008274D01*
X001214Y008274D01*
X001046Y007984D02*
X000484Y007984D01*
X000484Y007746D02*
X000999Y007746D01*
X000979Y007628D02*
X000979Y007628D01*
X001000Y007507D02*
X000484Y007507D01*
X000484Y007269D02*
X001048Y007269D01*
X001039Y007284D02*
X001039Y007284D01*
X001186Y007030D02*
X000484Y007030D01*
X000484Y006792D02*
X001441Y006792D01*
X000484Y006553D02*
X012078Y006553D01*
X012078Y006315D02*
X000484Y006315D01*
X007827Y008461D02*
X008680Y008461D01*
X008495Y008700D02*
X008023Y008700D01*
X008074Y008938D02*
X008444Y008938D01*
X008493Y009177D02*
X008026Y009177D01*
X007835Y009415D02*
X008674Y009415D01*
X012678Y006553D02*
X023684Y006553D01*
X023684Y006315D02*
X012678Y006315D01*
X020214Y008223D02*
X023684Y008223D01*
X023684Y008461D02*
X020299Y008461D01*
X020390Y008700D02*
X021290Y008700D01*
X021228Y008938D02*
X020346Y008938D01*
X020369Y007984D02*
X023684Y007984D01*
X023684Y007746D02*
X020388Y007746D01*
X022078Y008700D02*
X023684Y008700D01*
X023684Y008938D02*
X022140Y008938D01*
X022080Y009177D02*
X023608Y009177D01*
X023524Y009415D02*
X021964Y009415D01*
X021964Y009654D02*
X023524Y009654D01*
X023524Y009892D02*
X021964Y009892D01*
X021964Y010131D02*
X023569Y010131D01*
X023839Y010369D02*
X021964Y010369D01*
X021964Y010608D02*
X023622Y010608D01*
X023450Y010846D02*
X021964Y010846D01*
X021964Y011085D02*
X023425Y011085D01*
X023404Y011323D02*
X021964Y011323D01*
X021964Y011562D02*
X023318Y011562D01*
X023079Y011800D02*
X021871Y011800D01*
X021177Y012039D02*
X022841Y012039D01*
X023394Y012277D02*
X023558Y012277D01*
X023632Y012039D02*
X023778Y012039D01*
X023871Y011800D02*
X024684Y011800D01*
X024684Y011562D02*
X023964Y011562D01*
X024197Y011323D02*
X024684Y011323D01*
X024684Y011085D02*
X024339Y011085D01*
X024318Y010846D02*
X024515Y010846D01*
X024276Y010608D02*
X024146Y010608D01*
X024129Y010369D02*
X024184Y010369D01*
X025414Y010131D02*
X025569Y010131D01*
X025608Y010369D02*
X025839Y010369D01*
X025803Y010608D02*
X026228Y010608D01*
X026184Y010369D02*
X026129Y010369D01*
X026836Y010369D02*
X026839Y010369D01*
X027129Y010369D02*
X029934Y010369D01*
X029934Y010131D02*
X027399Y010131D01*
X027075Y010608D02*
X029934Y010608D01*
X029934Y010846D02*
X027269Y010846D01*
X027284Y011085D02*
X029934Y011085D01*
X029934Y011323D02*
X027284Y011323D01*
X027284Y011562D02*
X029934Y011562D01*
X029934Y011800D02*
X027284Y011800D01*
X027284Y012039D02*
X029934Y012039D01*
X029934Y012277D02*
X027410Y012277D01*
X027444Y012516D02*
X029934Y012516D01*
X029934Y012754D02*
X027444Y012754D01*
X027444Y012993D02*
X029934Y012993D01*
X029934Y013231D02*
X027335Y013231D01*
X026633Y013231D02*
X026335Y013231D01*
X026374Y013192D02*
X026245Y013321D01*
X026076Y013391D01*
X025893Y013391D01*
X025723Y013321D01*
X025594Y013192D01*
X025524Y013023D01*
X025524Y012360D01*
X025594Y012190D01*
X025723Y012061D01*
X025893Y011991D01*
X026076Y011991D01*
X026245Y012061D01*
X026374Y012190D01*
X026444Y012360D01*
X026444Y013023D01*
X026374Y013192D01*
X026444Y012993D02*
X026524Y012993D01*
X026524Y012754D02*
X026444Y012754D01*
X026444Y012516D02*
X026524Y012516D01*
X026558Y012277D02*
X026410Y012277D01*
X026190Y012039D02*
X026684Y012039D01*
X026684Y011800D02*
X025284Y011800D01*
X025284Y011562D02*
X025357Y011562D01*
X025711Y011562D02*
X026684Y011562D01*
X026684Y011323D02*
X025952Y011323D01*
X025990Y011085D02*
X026684Y011085D01*
X026465Y010846D02*
X025884Y010846D01*
X025524Y009892D02*
X025444Y009892D01*
X025444Y009654D02*
X025524Y009654D01*
X025524Y009415D02*
X025444Y009415D01*
X025360Y009177D02*
X025608Y009177D01*
X025684Y008938D02*
X024784Y008938D01*
X024784Y008700D02*
X025078Y008700D01*
X024861Y008461D02*
X024784Y008461D01*
X024784Y008223D02*
X024828Y008223D01*
X025490Y008700D02*
X025801Y008700D01*
X025707Y008461D02*
X025984Y008461D01*
X025984Y008223D02*
X025748Y008223D01*
X025949Y007984D02*
X025984Y007984D01*
X025964Y007746D02*
X025984Y007746D01*
X025964Y007507D02*
X025984Y007507D01*
X025964Y007269D02*
X025984Y007269D01*
X028784Y008223D02*
X028941Y008223D01*
X028784Y008461D02*
X029180Y008461D01*
X028784Y008700D02*
X034678Y008700D01*
X034461Y008461D02*
X031188Y008461D01*
X030515Y009177D02*
X032424Y009177D01*
X032186Y009415D02*
X030676Y009415D01*
X030681Y009654D02*
X031947Y009654D01*
X031721Y009892D02*
X030534Y009892D01*
X030534Y010131D02*
X031684Y010131D01*
X031684Y010369D02*
X030534Y010369D01*
X030534Y010608D02*
X031684Y010608D01*
X031684Y010846D02*
X030534Y010846D01*
X030534Y011085D02*
X031684Y011085D01*
X031684Y011323D02*
X030534Y011323D01*
X030534Y011562D02*
X031684Y011562D01*
X031684Y011800D02*
X030534Y011800D01*
X030534Y012039D02*
X031684Y012039D01*
X031684Y012277D02*
X030534Y012277D01*
X030534Y012516D02*
X031684Y012516D01*
X031626Y012754D02*
X030534Y012754D01*
X030534Y012993D02*
X031528Y012993D01*
X032284Y012696D02*
X032371Y012783D01*
X032440Y012950D01*
X032440Y013132D01*
X032416Y013191D01*
X032789Y013191D01*
X032876Y013104D01*
X033043Y013035D01*
X033225Y013035D01*
X033242Y013042D01*
X033238Y013032D01*
X033238Y012850D01*
X033307Y012683D01*
X033436Y012554D01*
X033603Y012485D01*
X033785Y012485D01*
X033952Y012554D01*
X034081Y012683D01*
X034150Y012850D01*
X034150Y013032D01*
X034081Y013199D01*
X033994Y013286D01*
X033994Y013791D01*
X033948Y013901D01*
X033738Y014111D01*
X033654Y014195D01*
X033544Y014241D01*
X030584Y014241D01*
X030584Y016051D01*
X030592Y016054D01*
X030721Y016183D01*
X030790Y016350D01*
X030790Y016532D01*
X030721Y016699D01*
X030592Y016828D01*
X030425Y016897D01*
X030243Y016897D01*
X030076Y016828D01*
X029947Y016699D01*
X029878Y016532D01*
X029878Y016350D01*
X029947Y016183D01*
X029984Y016146D01*
X029984Y015167D01*
X029971Y015199D01*
X029842Y015328D01*
X029675Y015397D01*
X029493Y015397D01*
X029326Y015328D01*
X029309Y015311D01*
X029288Y015361D01*
X029204Y015445D01*
X029094Y015491D01*
X016208Y015491D01*
X015634Y016065D01*
X015634Y016639D01*
X015643Y016635D01*
X015825Y016635D01*
X015992Y016704D01*
X016079Y016791D01*
X017861Y016791D01*
X017804Y016782D01*
X017721Y016755D01*
X017643Y016715D01*
X017573Y016664D01*
X017511Y016602D01*
X017460Y016532D01*
X017420Y016454D01*
X017393Y016371D01*
X017379Y016285D01*
X017379Y016241D01*
X017379Y016197D01*
X017393Y016111D01*
X017420Y016028D01*
X017460Y015950D01*
X017511Y015880D01*
X017573Y015818D01*
X017643Y015767D01*
X017721Y015727D01*
X017804Y015700D01*
X017890Y015686D01*
X017934Y015686D01*
X017934Y016241D01*
X017934Y016241D01*
X017379Y016241D01*
X017934Y016241D01*
X017934Y016241D01*
X017934Y015686D01*
X017978Y015686D01*
X018064Y015700D01*
X018147Y015727D01*
X018225Y015767D01*
X018295Y015818D01*
X018357Y015880D01*
X018408Y015950D01*
X018448Y016028D01*
X018475Y016111D01*
X018479Y016139D01*
X018479Y016131D01*
X018564Y015927D01*
X018720Y015771D01*
X018924Y015686D01*
X019144Y015686D01*
X019348Y015771D01*
X019504Y015927D01*
X019589Y016131D01*
X019589Y016351D01*
X019504Y016555D01*
X019348Y016711D01*
X019160Y016789D01*
X018604Y017345D01*
X018494Y017391D01*
X016079Y017391D01*
X015992Y017478D01*
X015825Y017547D01*
X015643Y017547D01*
X015634Y017543D01*
X015634Y022251D01*
X015588Y022361D01*
X015504Y022445D01*
X015243Y022706D01*
X015262Y022709D01*
X015343Y022736D01*
X015420Y022775D01*
X015489Y022825D01*
X015550Y022886D01*
X015600Y022955D01*
X015639Y023032D01*
X015666Y023113D01*
X015679Y023198D01*
X015679Y023241D01*
X015134Y023241D01*
X015134Y023241D01*
X015134Y023786D01*
X015091Y023786D01*
X015006Y023773D01*
X014925Y023746D01*
X014848Y023707D01*
X014779Y023657D01*
X014718Y023596D01*
X014668Y023527D01*
X014634Y023459D01*
X014596Y023550D01*
X014443Y023703D01*
X014434Y023707D01*
X014434Y024501D01*
X014401Y024580D01*
X015198Y023783D01*
X015177Y023786D01*
X015134Y023786D01*
X015134Y023241D01*
X015134Y023241D01*
X015679Y023241D01*
X015679Y023284D01*
X015666Y023369D01*
X015639Y023450D01*
X015628Y023471D01*
X020260Y023471D01*
X020514Y023217D01*
X020514Y020746D01*
X020449Y020811D01*
X020234Y020811D01*
X020019Y020811D01*
X019714Y020506D01*
X019714Y020291D01*
X019714Y020076D01*
X020019Y019771D01*
X020234Y019771D01*
X020234Y020291D01*
X020234Y020291D01*
X019714Y020291D01*
X020234Y020291D01*
X020234Y020291D01*
X020234Y019771D01*
X020449Y019771D01*
X020514Y019836D01*
X020514Y019605D01*
X020464Y019555D01*
X020379Y019351D01*
X020379Y019131D01*
X020464Y018927D01*
X020620Y018771D01*
X020824Y018686D01*
X021044Y018686D01*
X021248Y018771D01*
X021404Y018927D01*
X021484Y019119D01*
X021564Y018927D01*
X021720Y018771D01*
X021924Y018686D01*
X022144Y018686D01*
X022348Y018771D01*
X022504Y018927D01*
X022589Y019131D01*
X022589Y019351D01*
X022504Y019555D01*
X022348Y019711D01*
X022144Y019796D01*
X021924Y019796D01*
X021720Y019711D01*
X021564Y019555D01*
X021484Y019363D01*
X021404Y019555D01*
X021354Y019605D01*
X021354Y023475D01*
X021290Y023629D01*
X020790Y024129D01*
X020672Y024247D01*
X020518Y024311D01*
X015858Y024311D01*
X015079Y025090D01*
X015110Y025077D01*
X015338Y025077D01*
X015550Y025165D01*
X015711Y025326D01*
X015799Y025537D01*
X015799Y025594D01*
X019740Y025594D01*
X019895Y025658D01*
X020013Y025776D01*
X020472Y026235D01*
X020590Y026353D01*
X020654Y026507D01*
X020654Y028976D01*
X020754Y029076D01*
X020754Y029506D01*
X020449Y029811D01*
X020019Y029811D01*
X019714Y029506D01*
X019714Y029076D01*
X019814Y028976D01*
X019814Y026765D01*
X019483Y026434D01*
X015799Y026434D01*
X015799Y026475D01*
X015753Y026585D01*
X015825Y026585D01*
X015992Y026654D01*
X016121Y026783D01*
X016190Y026950D01*
X016190Y027132D01*
X016121Y027299D01*
X016034Y027386D01*
X016034Y029596D01*
X016121Y029683D01*
X016190Y029850D01*
X016190Y030032D01*
X016121Y030199D01*
X016034Y030286D01*
X016034Y031117D01*
X016258Y031341D01*
X033589Y031341D01*
X033676Y031254D01*
X033843Y031185D01*
X034025Y031185D01*
X034192Y031254D01*
X034279Y031341D01*
X038360Y031341D01*
X038634Y031067D01*
X038634Y027386D01*
X038547Y027299D01*
X038478Y027132D01*
X038478Y026950D01*
X038484Y026935D01*
X038338Y026935D01*
X038127Y026847D01*
X037966Y026686D01*
X037953Y026654D01*
X037939Y026686D01*
X037778Y026847D01*
X037567Y026935D01*
X037338Y026935D01*
X037127Y026847D01*
X036966Y026686D01*
X036953Y026654D01*
X036939Y026686D01*
X036778Y026847D01*
X036567Y026935D01*
X036338Y026935D01*
X036127Y026847D01*
X035966Y026686D01*
X035953Y026654D01*
X035939Y026686D01*
X035893Y026732D01*
X035904Y026737D01*
X036104Y026937D01*
X036188Y027021D01*
X036234Y027131D01*
X036234Y027147D01*
X036278Y027165D01*
X036439Y027326D01*
X036453Y027358D01*
X036466Y027326D01*
X036627Y027165D01*
X036838Y027077D01*
X037067Y027077D01*
X037278Y027165D01*
X037439Y027326D01*
X037453Y027358D01*
X037466Y027326D01*
X037627Y027165D01*
X037838Y027077D01*
X038067Y027077D01*
X038278Y027165D01*
X038439Y027326D01*
X038527Y027537D01*
X038527Y028475D01*
X038439Y028686D01*
X038404Y028721D01*
X038404Y029075D01*
X038340Y029229D01*
X038222Y029347D01*
X037772Y029797D01*
X037618Y029861D01*
X032300Y029861D01*
X032146Y029797D01*
X032028Y029679D01*
X031934Y029585D01*
X031090Y030429D01*
X030972Y030547D01*
X030818Y030611D01*
X026250Y030611D01*
X026096Y030547D01*
X025496Y029947D01*
X025378Y029829D01*
X025314Y029675D01*
X025314Y019605D01*
X025264Y019555D01*
X025184Y019363D01*
X025104Y019555D01*
X024948Y019711D01*
X024744Y019796D01*
X024524Y019796D01*
X024320Y019711D01*
X024164Y019555D01*
X024079Y019351D01*
X024079Y019131D01*
X024164Y018927D01*
X024320Y018771D01*
X024524Y018686D01*
X024744Y018686D01*
X024948Y018771D01*
X025104Y018927D01*
X025184Y019119D01*
X025264Y018927D01*
X025420Y018771D01*
X025624Y018686D01*
X025844Y018686D01*
X026048Y018771D01*
X026204Y018927D01*
X026289Y019131D01*
X026289Y019351D01*
X026204Y019555D01*
X026154Y019605D01*
X026154Y029417D01*
X026264Y029527D01*
X026264Y029176D01*
X026364Y029076D01*
X026364Y026557D01*
X026428Y026403D01*
X027028Y025803D01*
X027146Y025685D01*
X027300Y025621D01*
X030878Y025621D01*
X030878Y025537D01*
X030966Y025326D01*
X031127Y025165D01*
X031338Y025077D01*
X031567Y025077D01*
X031700Y025133D01*
X030879Y024311D01*
X028100Y024311D01*
X027946Y024247D01*
X027828Y024129D01*
X027278Y023579D01*
X027214Y023425D01*
X027214Y020696D01*
X026999Y020911D01*
X026784Y020911D01*
X026569Y020911D01*
X026264Y020606D01*
X026264Y020391D01*
X026264Y020176D01*
X026569Y019871D01*
X026784Y019871D01*
X026784Y020391D01*
X026784Y020391D01*
X026264Y020391D01*
X026784Y020391D01*
X026784Y020391D01*
X026784Y019871D01*
X026999Y019871D01*
X027214Y020086D01*
X027214Y019605D01*
X027164Y019555D01*
X027079Y019351D01*
X027079Y019131D01*
X027164Y018927D01*
X027320Y018771D01*
X027524Y018686D01*
X027744Y018686D01*
X027948Y018771D01*
X028104Y018927D01*
X028184Y019119D01*
X028264Y018927D01*
X028420Y018771D01*
X028624Y018686D01*
X028844Y018686D01*
X029048Y018771D01*
X029204Y018927D01*
X029289Y019131D01*
X029289Y019351D01*
X029204Y019555D01*
X029048Y019711D01*
X028844Y019796D01*
X028624Y019796D01*
X028420Y019711D01*
X028264Y019555D01*
X028184Y019363D01*
X028104Y019555D01*
X028054Y019605D01*
X028054Y023167D01*
X028358Y023471D01*
X031136Y023471D01*
X031290Y023535D01*
X032690Y024935D01*
X032809Y025053D01*
X032873Y025207D01*
X032873Y025259D01*
X032939Y025326D01*
X032953Y025358D01*
X032966Y025326D01*
X033127Y025165D01*
X033153Y025154D01*
X033153Y023555D01*
X033047Y023449D01*
X032978Y023282D01*
X032978Y023100D01*
X033047Y022933D01*
X033176Y022804D01*
X033343Y022735D01*
X033525Y022735D01*
X033692Y022804D01*
X033821Y022933D01*
X033890Y023100D01*
X033890Y023282D01*
X033821Y023449D01*
X033753Y023518D01*
X033753Y025154D01*
X033778Y025165D01*
X033939Y025326D01*
X033953Y025358D01*
X033966Y025326D01*
X034127Y025165D01*
X034153Y025154D01*
X034153Y019570D01*
X034138Y019358D01*
X034133Y019346D01*
X034134Y019299D01*
X034131Y019252D01*
X034135Y019240D01*
X034179Y016281D01*
X034097Y016199D01*
X034028Y016032D01*
X034028Y015850D01*
X034097Y015683D01*
X034226Y015554D01*
X034393Y015485D01*
X034575Y015485D01*
X034684Y015530D01*
X034684Y014786D01*
X034597Y014699D01*
X034528Y014532D01*
X034528Y014350D01*
X034597Y014183D01*
X034726Y014054D01*
X034893Y013985D01*
X035075Y013985D01*
X035234Y014051D01*
X035234Y011786D01*
X035147Y011699D01*
X035078Y011532D01*
X035078Y011350D01*
X035133Y011216D01*
X034704Y011645D01*
X034594Y011691D01*
X033029Y011691D01*
X032942Y011778D01*
X032775Y011847D01*
X032593Y011847D01*
X032426Y011778D01*
X032297Y011649D01*
X032284Y011617D01*
X032284Y012696D01*
X032342Y012754D02*
X033278Y012754D01*
X033238Y012993D02*
X032440Y012993D01*
X032284Y012516D02*
X033529Y012516D01*
X033859Y012516D02*
X035234Y012516D01*
X035234Y012754D02*
X034110Y012754D01*
X034150Y012993D02*
X035234Y012993D01*
X035234Y013231D02*
X034049Y013231D01*
X033994Y013470D02*
X035234Y013470D01*
X035234Y013708D02*
X033994Y013708D01*
X033903Y013947D02*
X035234Y013947D01*
X035834Y013947D02*
X039555Y013947D01*
X039528Y013708D02*
X035834Y013708D01*
X035834Y013470D02*
X039660Y013470D01*
X039684Y013231D02*
X035834Y013231D01*
X035834Y012993D02*
X039684Y012993D01*
X039684Y012754D02*
X035834Y012754D01*
X035834Y012516D02*
X039684Y012516D01*
X039684Y012277D02*
X035834Y012277D01*
X035834Y012039D02*
X039684Y012039D01*
X039684Y011800D02*
X035834Y011800D01*
X035978Y011562D02*
X039684Y011562D01*
X039621Y011323D02*
X035979Y011323D01*
X035823Y011085D02*
X037332Y011085D01*
X037936Y011085D02*
X039528Y011085D01*
X039678Y010131D02*
X032319Y010131D01*
X032284Y010369D02*
X037361Y010369D01*
X036137Y009892D02*
X039532Y009892D01*
X040290Y010131D02*
X040686Y010131D01*
X040644Y009892D02*
X040436Y009892D01*
X040421Y009654D02*
X040702Y009654D01*
X040896Y009415D02*
X040355Y009415D01*
X040522Y009177D02*
X040805Y009177D01*
X040665Y008938D02*
X040535Y008938D01*
X040644Y008700D02*
X040388Y008700D01*
X040724Y008461D02*
X036359Y008461D01*
X036384Y008223D02*
X041016Y008223D01*
X041452Y008223D02*
X042116Y008223D01*
X041824Y008461D02*
X041744Y008461D01*
X042552Y008223D02*
X043523Y008223D01*
X043553Y008274D02*
X043378Y007972D01*
X043378Y007972D01*
X043317Y007628D01*
X043378Y007284D01*
X043553Y006982D01*
X043820Y006757D01*
X044148Y006638D01*
X044271Y006638D01*
X044497Y006638D01*
X044825Y006757D01*
X044825Y006757D01*
X045093Y006982D01*
X045267Y007284D01*
X045328Y007628D01*
X045328Y007628D01*
X045267Y007972D01*
X045093Y008274D01*
X045093Y008274D01*
X044825Y008499D01*
X044497Y008618D01*
X044148Y008618D01*
X043820Y008499D01*
X043553Y008274D01*
X043553Y008274D01*
X043775Y008461D02*
X042844Y008461D01*
X042924Y008700D02*
X045984Y008700D01*
X045984Y008938D02*
X042903Y008938D01*
X042763Y009177D02*
X045984Y009177D01*
X045984Y009415D02*
X042672Y009415D01*
X042866Y009654D02*
X045984Y009654D01*
X045984Y009892D02*
X042924Y009892D01*
X042882Y010131D02*
X045984Y010131D01*
X045984Y010369D02*
X044861Y010369D01*
X044839Y010356D02*
X044932Y010414D01*
X045017Y010482D01*
X045094Y010559D01*
X045162Y010644D01*
X045220Y010736D01*
X045267Y010834D01*
X045303Y010937D01*
X045327Y011043D01*
X045339Y011152D01*
X045339Y011176D01*
X044399Y011176D01*
X044399Y010236D01*
X044424Y010236D01*
X044532Y010248D01*
X044638Y010272D01*
X044741Y010308D01*
X044839Y010356D01*
X045133Y010608D02*
X045984Y010608D01*
X045984Y010846D02*
X045271Y010846D01*
X045332Y011085D02*
X045984Y011085D01*
X045984Y011323D02*
X045332Y011323D01*
X045327Y011369D02*
X045303Y011475D01*
X045267Y011578D01*
X045220Y011676D01*
X045162Y011768D01*
X045094Y011853D01*
X045017Y011930D01*
X044932Y011998D01*
X044839Y012056D01*
X044741Y012104D01*
X044638Y012140D01*
X044532Y012164D01*
X044424Y012176D01*
X044399Y012176D01*
X044399Y011236D01*
X044339Y011236D01*
X044339Y011176D01*
X043399Y011176D01*
X043399Y011152D01*
X043412Y011043D01*
X043436Y010937D01*
X043472Y010834D01*
X043519Y010736D01*
X043577Y010644D01*
X043645Y010559D01*
X043722Y010482D01*
X043807Y010414D01*
X043900Y010356D01*
X043998Y010308D01*
X044100Y010272D01*
X044207Y010248D01*
X044315Y010236D01*
X044339Y010236D01*
X044339Y011176D01*
X044399Y011176D01*
X044399Y011236D01*
X045339Y011236D01*
X045339Y011260D01*
X045327Y011369D01*
X045273Y011562D02*
X045984Y011562D01*
X045984Y011800D02*
X045136Y011800D01*
X044868Y012039D02*
X045984Y012039D01*
X045984Y012277D02*
X042372Y012277D01*
X042297Y012277D02*
X041272Y012277D01*
X041272Y012255D02*
X041272Y012330D01*
X041808Y012330D01*
X042297Y012330D01*
X042297Y012255D01*
X041272Y012255D01*
X041197Y012277D02*
X040284Y012277D01*
X040284Y012039D02*
X040660Y012039D01*
X040660Y012516D02*
X040284Y012516D01*
X040284Y012754D02*
X040715Y012754D01*
X041197Y012754D02*
X041271Y012754D01*
X041271Y012516D02*
X041197Y012516D01*
X041197Y012039D02*
X041271Y012039D01*
X041271Y011800D02*
X041197Y011800D01*
X041721Y011800D02*
X041847Y011800D01*
X042297Y011800D02*
X042371Y011800D01*
X042371Y012039D02*
X042297Y012039D01*
X042297Y012516D02*
X042371Y012516D01*
X042371Y012754D02*
X042297Y012754D01*
X041815Y012754D02*
X041753Y012754D01*
X042853Y012754D02*
X045984Y012754D01*
X045984Y012516D02*
X042908Y012516D01*
X042908Y012039D02*
X043871Y012039D01*
X043900Y012056D02*
X043807Y011998D01*
X043722Y011930D01*
X043645Y011853D01*
X043577Y011768D01*
X043519Y011676D01*
X043472Y011578D01*
X043436Y011475D01*
X043412Y011369D01*
X043399Y011260D01*
X043399Y011236D01*
X044339Y011236D01*
X044339Y012176D01*
X044315Y012176D01*
X044207Y012164D01*
X044100Y012140D01*
X043998Y012104D01*
X043900Y012056D01*
X043602Y011800D02*
X042821Y011800D01*
X042908Y011562D02*
X043466Y011562D01*
X043406Y011323D02*
X042908Y011323D01*
X042908Y011085D02*
X043407Y011085D01*
X043468Y010846D02*
X042908Y010846D01*
X042634Y010608D02*
X043606Y010608D01*
X043878Y010369D02*
X042710Y010369D01*
X044339Y010369D02*
X044399Y010369D01*
X044399Y010608D02*
X044339Y010608D01*
X044339Y010846D02*
X044399Y010846D01*
X044399Y011085D02*
X044339Y011085D01*
X044339Y011323D02*
X044399Y011323D01*
X044399Y011562D02*
X044339Y011562D01*
X044339Y011800D02*
X044399Y011800D01*
X044399Y012039D02*
X044339Y012039D01*
X043528Y013341D02*
X045211Y013341D01*
X045339Y013470D01*
X045339Y015152D01*
X045211Y015281D01*
X043528Y015281D01*
X043399Y015152D01*
X043399Y013470D01*
X043528Y013341D01*
X043399Y013470D02*
X040308Y013470D01*
X040284Y013231D02*
X045984Y013231D01*
X045984Y012993D02*
X040284Y012993D01*
X040440Y013708D02*
X043399Y013708D01*
X043399Y013947D02*
X040413Y013947D01*
X040225Y014185D02*
X043399Y014185D01*
X043399Y014424D02*
X035834Y014424D01*
X035834Y014662D02*
X043399Y014662D01*
X043399Y014901D02*
X035834Y014901D01*
X035877Y015139D02*
X043399Y015139D01*
X045339Y015139D02*
X045984Y015139D01*
X045984Y014901D02*
X045339Y014901D01*
X045339Y014662D02*
X045984Y014662D01*
X045984Y014424D02*
X045339Y014424D01*
X045339Y014185D02*
X045984Y014185D01*
X045984Y013947D02*
X045339Y013947D01*
X045339Y013708D02*
X045984Y013708D01*
X045984Y013470D02*
X045339Y013470D01*
X045984Y015378D02*
X035990Y015378D01*
X035955Y015616D02*
X045984Y015616D01*
X045984Y015855D02*
X035728Y015855D01*
X035340Y015855D02*
X035284Y015855D01*
X035284Y016093D02*
X045984Y016093D01*
X045984Y016332D02*
X035284Y016332D01*
X035284Y016570D02*
X045984Y016570D01*
X045984Y016809D02*
X035284Y016809D01*
X035675Y017047D02*
X040293Y017047D01*
X040775Y017047D02*
X045984Y017047D01*
X045984Y017286D02*
X045095Y017286D01*
X045341Y017524D02*
X045984Y017524D01*
X045984Y017763D02*
X045440Y017763D01*
X045442Y018001D02*
X045984Y018001D01*
X045984Y018240D02*
X045365Y018240D01*
X045174Y018478D02*
X045984Y018478D01*
X045984Y018717D02*
X042602Y018717D01*
X042364Y018955D02*
X043210Y018955D01*
X043307Y018858D02*
X043104Y019062D01*
X042994Y019327D01*
X042994Y019614D01*
X043104Y019880D01*
X043307Y020083D01*
X043572Y020193D01*
X044863Y020193D01*
X045129Y020083D01*
X045332Y019880D01*
X045442Y019614D01*
X045442Y019327D01*
X045332Y019062D01*
X045129Y018858D01*
X044863Y018749D01*
X043572Y018749D01*
X043307Y018858D01*
X043261Y018478D02*
X042841Y018478D01*
X042130Y018001D02*
X038999Y018001D01*
X039040Y018240D02*
X041892Y018240D01*
X041653Y018478D02*
X038942Y018478D01*
X038884Y018717D02*
X041422Y018717D01*
X041364Y018955D02*
X038884Y018955D01*
X038884Y019194D02*
X041364Y019194D01*
X041364Y019432D02*
X038884Y019432D01*
X038884Y019671D02*
X041364Y019671D01*
X041364Y019909D02*
X040350Y019909D01*
X040292Y019851D02*
X040784Y020343D01*
X040784Y020691D01*
X039944Y020691D01*
X039944Y020691D01*
X039944Y019851D01*
X039596Y019851D01*
X039104Y020343D01*
X039104Y020691D01*
X039944Y020691D01*
X039944Y020691D01*
X039944Y019851D01*
X040292Y019851D01*
X039944Y019909D02*
X039944Y019909D01*
X039944Y020148D02*
X039944Y020148D01*
X039944Y020386D02*
X039944Y020386D01*
X039944Y020625D02*
X039944Y020625D01*
X039944Y020691D02*
X039944Y020691D01*
X039104Y020691D01*
X039104Y021039D01*
X039596Y021531D01*
X039944Y021531D01*
X039944Y020691D01*
X039944Y020691D01*
X040784Y020691D01*
X040784Y021039D01*
X040292Y021531D01*
X039944Y021531D01*
X039944Y020691D01*
X039944Y020863D02*
X039944Y020863D01*
X039944Y021102D02*
X039944Y021102D01*
X039944Y021340D02*
X039944Y021340D01*
X039405Y021340D02*
X038884Y021340D01*
X038884Y021102D02*
X039167Y021102D01*
X039104Y020863D02*
X038884Y020863D01*
X038884Y020625D02*
X039104Y020625D01*
X039104Y020386D02*
X038884Y020386D01*
X038884Y020148D02*
X039300Y020148D01*
X039538Y019909D02*
X038884Y019909D01*
X038884Y021579D02*
X041364Y021579D01*
X041364Y021817D02*
X038884Y021817D01*
X038884Y022056D02*
X041364Y022056D01*
X041364Y022294D02*
X038866Y022294D01*
X038667Y022533D02*
X041364Y022533D01*
X041364Y022771D02*
X038812Y022771D01*
X038820Y022775D02*
X038889Y022825D01*
X038950Y022886D01*
X039000Y022955D01*
X039039Y023032D01*
X039066Y023113D01*
X039079Y023198D01*
X039079Y023241D01*
X038534Y023241D01*
X038534Y022696D01*
X038577Y022696D01*
X038662Y022709D01*
X038743Y022736D01*
X038820Y022775D01*
X038534Y022771D02*
X038534Y022771D01*
X038534Y023010D02*
X038534Y023010D01*
X038534Y023241D02*
X038534Y023241D01*
X038534Y023241D01*
X039079Y023241D01*
X039079Y023284D01*
X039066Y023369D01*
X039039Y023450D01*
X039000Y023527D01*
X038950Y023596D01*
X038889Y023657D01*
X038820Y023707D01*
X038743Y023746D01*
X038662Y023773D01*
X038577Y023786D01*
X038534Y023786D01*
X038534Y023241D01*
X038534Y023248D02*
X038534Y023248D01*
X038534Y023487D02*
X038534Y023487D01*
X038534Y023725D02*
X038534Y023725D01*
X038283Y023725D02*
X037834Y023725D01*
X037834Y023964D02*
X038148Y023964D01*
X037879Y024202D02*
X037813Y024202D01*
X037641Y024441D02*
X037609Y024441D01*
X037402Y024679D02*
X037370Y024679D01*
X037164Y024918D02*
X037100Y024918D01*
X037064Y025156D02*
X036757Y025156D01*
X036148Y025156D02*
X035757Y025156D01*
X034148Y025156D02*
X033757Y025156D01*
X033753Y024918D02*
X034153Y024918D01*
X034153Y024679D02*
X033753Y024679D01*
X033753Y024441D02*
X034153Y024441D01*
X034153Y024202D02*
X033753Y024202D01*
X033753Y023964D02*
X034153Y023964D01*
X034153Y023725D02*
X033753Y023725D01*
X033784Y023487D02*
X034153Y023487D01*
X034153Y023248D02*
X033890Y023248D01*
X033853Y023010D02*
X034153Y023010D01*
X034153Y022771D02*
X033612Y022771D01*
X033256Y022771D02*
X028054Y022771D01*
X028054Y022533D02*
X034153Y022533D01*
X034153Y022294D02*
X028054Y022294D01*
X028054Y022056D02*
X034153Y022056D01*
X034153Y021817D02*
X028054Y021817D01*
X028054Y021579D02*
X034153Y021579D01*
X034153Y021340D02*
X030483Y021340D01*
X030420Y021403D02*
X030111Y021531D01*
X029777Y021531D01*
X029468Y021403D01*
X029232Y021167D01*
X029104Y020858D01*
X029104Y020524D01*
X029232Y020215D01*
X029468Y019979D01*
X029777Y019851D01*
X030111Y019851D01*
X030420Y019979D01*
X030656Y020215D01*
X030784Y020524D01*
X030784Y020858D01*
X030656Y021167D01*
X030420Y021403D01*
X030683Y021102D02*
X034153Y021102D01*
X034153Y020863D02*
X030782Y020863D01*
X030784Y020625D02*
X034153Y020625D01*
X034153Y020386D02*
X030727Y020386D01*
X030588Y020148D02*
X034153Y020148D01*
X034153Y019909D02*
X030251Y019909D01*
X029637Y019909D02*
X028054Y019909D01*
X028054Y019671D02*
X028379Y019671D01*
X028213Y019432D02*
X028155Y019432D01*
X028116Y018955D02*
X028252Y018955D01*
X028551Y018717D02*
X027817Y018717D01*
X027451Y018717D02*
X025917Y018717D01*
X025551Y018717D02*
X024817Y018717D01*
X024451Y018717D02*
X023614Y018717D01*
X023614Y018955D02*
X024152Y018955D01*
X024079Y019194D02*
X023614Y019194D01*
X023614Y019432D02*
X024113Y019432D01*
X024279Y019671D02*
X023614Y019671D01*
X023614Y019909D02*
X025314Y019909D01*
X025314Y019671D02*
X024989Y019671D01*
X025155Y019432D02*
X025213Y019432D01*
X025252Y018955D02*
X025116Y018955D01*
X026216Y018955D02*
X027152Y018955D01*
X027079Y019194D02*
X026289Y019194D01*
X026255Y019432D02*
X027113Y019432D01*
X027214Y019671D02*
X026154Y019671D01*
X026154Y019909D02*
X026531Y019909D01*
X026784Y019909D02*
X026784Y019909D01*
X026784Y020148D02*
X026784Y020148D01*
X026784Y020386D02*
X026784Y020386D01*
X026784Y020391D02*
X026784Y020911D01*
X026784Y020391D01*
X026784Y020391D01*
X026784Y020625D02*
X026784Y020625D01*
X026784Y020863D02*
X026784Y020863D01*
X026521Y020863D02*
X026154Y020863D01*
X026154Y020625D02*
X026282Y020625D01*
X026264Y020386D02*
X026154Y020386D01*
X026154Y020148D02*
X026292Y020148D01*
X027037Y019909D02*
X027214Y019909D01*
X028054Y020148D02*
X029300Y020148D01*
X029161Y020386D02*
X028054Y020386D01*
X028054Y020625D02*
X029104Y020625D01*
X029106Y020863D02*
X028054Y020863D01*
X028054Y021102D02*
X029205Y021102D01*
X029405Y021340D02*
X028054Y021340D01*
X027214Y021340D02*
X026154Y021340D01*
X026154Y021102D02*
X027214Y021102D01*
X027214Y020863D02*
X027047Y020863D01*
X027214Y021579D02*
X026154Y021579D01*
X026154Y021817D02*
X027214Y021817D01*
X027214Y022056D02*
X026154Y022056D01*
X026154Y022294D02*
X027214Y022294D01*
X027214Y022533D02*
X026154Y022533D01*
X026154Y022771D02*
X027214Y022771D01*
X027214Y023010D02*
X026154Y023010D01*
X026154Y023248D02*
X027214Y023248D01*
X027240Y023487D02*
X026154Y023487D01*
X026154Y023725D02*
X027424Y023725D01*
X027663Y023964D02*
X026154Y023964D01*
X026154Y024202D02*
X027901Y024202D01*
X028135Y023248D02*
X032978Y023248D01*
X033015Y023010D02*
X028054Y023010D01*
X026154Y024441D02*
X031008Y024441D01*
X031247Y024679D02*
X026154Y024679D01*
X026154Y024918D02*
X031485Y024918D01*
X031148Y025156D02*
X026154Y025156D01*
X026154Y025395D02*
X030937Y025395D01*
X032196Y024441D02*
X033153Y024441D01*
X033153Y024679D02*
X032435Y024679D01*
X032673Y024918D02*
X033153Y024918D01*
X033148Y025156D02*
X032851Y025156D01*
X033153Y024202D02*
X031958Y024202D01*
X031719Y023964D02*
X033153Y023964D01*
X033153Y023725D02*
X031481Y023725D01*
X031174Y023487D02*
X033084Y023487D01*
X035993Y026826D02*
X036106Y026826D01*
X036206Y027064D02*
X038478Y027064D01*
X038416Y027303D02*
X038550Y027303D01*
X038527Y027541D02*
X038634Y027541D01*
X038634Y027780D02*
X038527Y027780D01*
X038527Y028018D02*
X038634Y028018D01*
X038634Y028257D02*
X038527Y028257D01*
X038518Y028495D02*
X038634Y028495D01*
X038634Y028734D02*
X038404Y028734D01*
X038404Y028972D02*
X038634Y028972D01*
X038634Y029211D02*
X038348Y029211D01*
X038120Y029449D02*
X038634Y029449D01*
X038634Y029688D02*
X037881Y029688D01*
X037360Y029021D02*
X037564Y028817D01*
X037564Y028784D01*
X037466Y028686D01*
X037453Y028654D01*
X037439Y028686D01*
X037278Y028847D01*
X037067Y028935D01*
X036838Y028935D01*
X036627Y028847D01*
X036466Y028686D01*
X036453Y028654D01*
X036439Y028686D01*
X036278Y028847D01*
X036067Y028935D01*
X035838Y028935D01*
X035627Y028847D01*
X035466Y028686D01*
X035450Y028649D01*
X035444Y028661D01*
X035391Y028734D01*
X035514Y028734D01*
X035391Y028734D02*
X035327Y028798D01*
X035254Y028852D01*
X035173Y028893D01*
X035087Y028921D01*
X034998Y028935D01*
X034953Y028935D01*
X034953Y028006D01*
X034953Y028006D01*
X034953Y028935D01*
X034907Y028935D01*
X034818Y028921D01*
X034732Y028893D01*
X034652Y028852D01*
X034578Y028798D01*
X034514Y028734D01*
X034392Y028734D01*
X034439Y028686D02*
X034278Y028847D01*
X034067Y028935D01*
X033838Y028935D01*
X033627Y028847D01*
X033466Y028686D01*
X033453Y028654D01*
X033439Y028686D01*
X033278Y028847D01*
X033067Y028935D01*
X032838Y028935D01*
X032627Y028847D01*
X032466Y028686D01*
X032453Y028654D01*
X032439Y028686D01*
X032373Y028753D01*
X032373Y028836D01*
X032558Y029021D01*
X037360Y029021D01*
X037409Y028972D02*
X032509Y028972D01*
X032514Y028734D02*
X032392Y028734D01*
X033392Y028734D02*
X033514Y028734D01*
X034439Y028686D02*
X034455Y028649D01*
X034461Y028661D01*
X034514Y028734D01*
X034953Y028734D02*
X034953Y028734D01*
X034953Y028495D02*
X034953Y028495D01*
X034953Y028257D02*
X034953Y028257D01*
X034953Y028018D02*
X034953Y028018D01*
X036392Y028734D02*
X036514Y028734D01*
X037392Y028734D02*
X037514Y028734D01*
X038634Y029926D02*
X031593Y029926D01*
X031831Y029688D02*
X032037Y029688D01*
X031354Y030165D02*
X038634Y030165D01*
X038634Y030403D02*
X031116Y030403D01*
X026364Y028972D02*
X026154Y028972D01*
X026154Y028734D02*
X026364Y028734D01*
X026364Y028495D02*
X026154Y028495D01*
X026154Y028257D02*
X026364Y028257D01*
X026364Y028018D02*
X026154Y028018D01*
X026154Y027780D02*
X026364Y027780D01*
X026364Y027541D02*
X026154Y027541D01*
X026154Y027303D02*
X026364Y027303D01*
X026364Y027064D02*
X026154Y027064D01*
X026154Y026826D02*
X026364Y026826D01*
X026364Y026587D02*
X026154Y026587D01*
X026154Y026349D02*
X026483Y026349D01*
X026721Y026110D02*
X026154Y026110D01*
X026154Y025872D02*
X026960Y025872D01*
X027271Y025633D02*
X026154Y025633D01*
X025314Y025633D02*
X023614Y025633D01*
X023614Y025395D02*
X025314Y025395D01*
X025314Y025156D02*
X023614Y025156D01*
X023614Y024918D02*
X025314Y024918D01*
X025314Y024679D02*
X023614Y024679D01*
X023614Y024441D02*
X025314Y024441D01*
X025314Y024202D02*
X023614Y024202D01*
X023614Y023964D02*
X025314Y023964D01*
X025314Y023725D02*
X023614Y023725D01*
X023614Y023487D02*
X025314Y023487D01*
X025314Y023248D02*
X023614Y023248D01*
X023614Y023010D02*
X025314Y023010D01*
X025314Y022771D02*
X023614Y022771D01*
X023614Y022533D02*
X025314Y022533D01*
X025314Y022294D02*
X023614Y022294D01*
X023614Y022056D02*
X025314Y022056D01*
X025314Y021817D02*
X023614Y021817D01*
X023614Y021579D02*
X025314Y021579D01*
X025314Y021340D02*
X023614Y021340D01*
X023614Y021102D02*
X025314Y021102D01*
X025314Y020863D02*
X023614Y020863D01*
X023614Y020625D02*
X025314Y020625D01*
X025314Y020386D02*
X023614Y020386D01*
X023614Y020148D02*
X025314Y020148D01*
X023054Y020148D02*
X021354Y020148D01*
X021354Y020386D02*
X023054Y020386D01*
X023054Y020625D02*
X021354Y020625D01*
X021354Y020863D02*
X023054Y020863D01*
X023054Y021102D02*
X021354Y021102D01*
X021354Y021340D02*
X023054Y021340D01*
X023054Y021579D02*
X021354Y021579D01*
X021354Y021817D02*
X023054Y021817D01*
X023054Y022056D02*
X021354Y022056D01*
X021354Y022294D02*
X023054Y022294D01*
X023054Y022533D02*
X021354Y022533D01*
X021354Y022771D02*
X023054Y022771D01*
X023054Y023010D02*
X021354Y023010D01*
X021354Y023248D02*
X023054Y023248D01*
X023054Y023487D02*
X021349Y023487D01*
X021194Y023725D02*
X023054Y023725D01*
X023054Y023964D02*
X020955Y023964D01*
X020717Y024202D02*
X023054Y024202D01*
X023054Y024441D02*
X015728Y024441D01*
X015490Y024679D02*
X023054Y024679D01*
X023054Y024918D02*
X015251Y024918D01*
X015528Y025156D02*
X023054Y025156D01*
X023054Y025395D02*
X015739Y025395D01*
X015830Y026587D02*
X019636Y026587D01*
X019814Y026826D02*
X016139Y026826D01*
X016190Y027064D02*
X019814Y027064D01*
X019814Y027303D02*
X016118Y027303D01*
X016034Y027541D02*
X019814Y027541D01*
X019814Y027780D02*
X016034Y027780D01*
X016034Y028018D02*
X019814Y028018D01*
X019814Y028257D02*
X016034Y028257D01*
X016034Y028495D02*
X019814Y028495D01*
X019814Y028734D02*
X016034Y028734D01*
X016034Y028972D02*
X019814Y028972D01*
X019714Y029211D02*
X016034Y029211D01*
X016034Y029449D02*
X019714Y029449D01*
X019895Y029688D02*
X016123Y029688D01*
X016190Y029926D02*
X025475Y029926D01*
X025319Y029688D02*
X024083Y029688D01*
X024121Y029649D02*
X023992Y029778D01*
X023825Y029847D01*
X023643Y029847D01*
X023476Y029778D01*
X023347Y029649D01*
X023278Y029482D01*
X023278Y029331D01*
X023097Y029150D01*
X023054Y029047D01*
X023054Y016856D01*
X022947Y016749D01*
X022878Y016582D01*
X022878Y016400D01*
X022947Y016233D01*
X023076Y016104D01*
X023243Y016035D01*
X023425Y016035D01*
X023592Y016104D01*
X023721Y016233D01*
X023790Y016400D01*
X023790Y016582D01*
X023721Y016749D01*
X023614Y016856D01*
X023614Y028875D01*
X023674Y028935D01*
X023825Y028935D01*
X023992Y029004D01*
X024121Y029133D01*
X024190Y029300D01*
X024190Y029482D01*
X024121Y029649D01*
X024190Y029449D02*
X025314Y029449D01*
X025314Y029211D02*
X024153Y029211D01*
X023915Y028972D02*
X025314Y028972D01*
X025314Y028734D02*
X023614Y028734D01*
X023614Y028495D02*
X025314Y028495D01*
X025314Y028257D02*
X023614Y028257D01*
X023614Y028018D02*
X025314Y028018D01*
X025314Y027780D02*
X023614Y027780D01*
X023614Y027541D02*
X025314Y027541D01*
X025314Y027303D02*
X023614Y027303D01*
X023614Y027064D02*
X025314Y027064D01*
X025314Y026826D02*
X023614Y026826D01*
X023614Y026587D02*
X025314Y026587D01*
X025314Y026349D02*
X023614Y026349D01*
X023614Y026110D02*
X025314Y026110D01*
X025314Y025872D02*
X023614Y025872D01*
X023054Y025872D02*
X020109Y025872D01*
X020013Y025776D02*
X020013Y025776D01*
X019835Y025633D02*
X023054Y025633D01*
X023054Y026110D02*
X020347Y026110D01*
X020586Y026349D02*
X023054Y026349D01*
X023054Y026587D02*
X020654Y026587D01*
X020654Y026826D02*
X023054Y026826D01*
X023054Y027064D02*
X020654Y027064D01*
X020654Y027303D02*
X023054Y027303D01*
X023054Y027541D02*
X020654Y027541D01*
X020654Y027780D02*
X023054Y027780D01*
X023054Y028018D02*
X020654Y028018D01*
X020654Y028257D02*
X023054Y028257D01*
X023054Y028495D02*
X020654Y028495D01*
X020654Y028734D02*
X023054Y028734D01*
X023054Y028972D02*
X020654Y028972D01*
X020754Y029211D02*
X023158Y029211D01*
X023278Y029449D02*
X020754Y029449D01*
X020573Y029688D02*
X023385Y029688D01*
X025714Y030165D02*
X016135Y030165D01*
X016034Y030403D02*
X025952Y030403D01*
X026186Y029449D02*
X026264Y029449D01*
X026264Y029211D02*
X026154Y029211D01*
X020483Y023248D02*
X015679Y023248D01*
X015628Y023010D02*
X020514Y023010D01*
X020514Y022771D02*
X015412Y022771D01*
X015417Y022533D02*
X020514Y022533D01*
X020514Y022294D02*
X015616Y022294D01*
X015504Y022445D02*
X015504Y022445D01*
X015634Y022056D02*
X020514Y022056D01*
X020514Y021817D02*
X015634Y021817D01*
X015634Y021579D02*
X020514Y021579D01*
X020514Y021340D02*
X017263Y021340D01*
X017072Y021531D02*
X017564Y021039D01*
X017564Y020691D01*
X016724Y020691D01*
X016724Y020691D01*
X016724Y019851D01*
X016376Y019851D01*
X015884Y020343D01*
X015884Y020691D01*
X016724Y020691D01*
X016724Y020691D01*
X016724Y019851D01*
X017072Y019851D01*
X017564Y020343D01*
X017564Y020691D01*
X016724Y020691D01*
X015884Y020691D01*
X015884Y021039D01*
X016376Y021531D01*
X016724Y021531D01*
X016724Y020691D01*
X016724Y020691D01*
X016724Y020691D01*
X016724Y021531D01*
X017072Y021531D01*
X016724Y021340D02*
X016724Y021340D01*
X016724Y021102D02*
X016724Y021102D01*
X016724Y020863D02*
X016724Y020863D01*
X016724Y020625D02*
X016724Y020625D01*
X016724Y020386D02*
X016724Y020386D01*
X016724Y020148D02*
X016724Y020148D01*
X016724Y019909D02*
X016724Y019909D01*
X016318Y019909D02*
X015634Y019909D01*
X015634Y019671D02*
X017579Y019671D01*
X017620Y019711D02*
X017464Y019555D01*
X017379Y019351D01*
X017379Y019131D01*
X017464Y018927D01*
X017620Y018771D01*
X017824Y018686D01*
X018044Y018686D01*
X018248Y018771D01*
X018404Y018927D01*
X018484Y019119D01*
X018564Y018927D01*
X018720Y018771D01*
X018924Y018686D01*
X019144Y018686D01*
X019348Y018771D01*
X019504Y018927D01*
X019589Y019131D01*
X019589Y019351D01*
X019504Y019555D01*
X019348Y019711D01*
X019144Y019796D01*
X018924Y019796D01*
X018720Y019711D01*
X018564Y019555D01*
X018484Y019363D01*
X018404Y019555D01*
X018248Y019711D01*
X018044Y019796D01*
X017824Y019796D01*
X017620Y019711D01*
X017413Y019432D02*
X015634Y019432D01*
X015634Y019194D02*
X017379Y019194D01*
X017452Y018955D02*
X015634Y018955D01*
X015634Y018717D02*
X017751Y018717D01*
X018117Y018717D02*
X018851Y018717D01*
X019217Y018717D02*
X020751Y018717D01*
X021117Y018717D02*
X021851Y018717D01*
X022217Y018717D02*
X023054Y018717D01*
X023054Y018955D02*
X022516Y018955D01*
X022589Y019194D02*
X023054Y019194D01*
X023054Y019432D02*
X022555Y019432D01*
X022389Y019671D02*
X023054Y019671D01*
X023054Y019909D02*
X021354Y019909D01*
X021354Y019671D02*
X021679Y019671D01*
X021513Y019432D02*
X021455Y019432D01*
X021416Y018955D02*
X021552Y018955D01*
X020452Y018955D02*
X019516Y018955D01*
X019589Y019194D02*
X020379Y019194D01*
X020413Y019432D02*
X019555Y019432D01*
X019389Y019671D02*
X020514Y019671D01*
X020234Y019909D02*
X020234Y019909D01*
X020234Y020148D02*
X020234Y020148D01*
X020234Y020291D02*
X020234Y020811D01*
X020234Y020291D01*
X020234Y020291D01*
X020234Y020386D02*
X020234Y020386D01*
X020234Y020625D02*
X020234Y020625D01*
X020514Y020863D02*
X017564Y020863D01*
X017564Y020625D02*
X019832Y020625D01*
X019714Y020386D02*
X017564Y020386D01*
X017368Y020148D02*
X019714Y020148D01*
X019881Y019909D02*
X017130Y019909D01*
X016080Y020148D02*
X015634Y020148D01*
X015634Y020386D02*
X015884Y020386D01*
X015884Y020625D02*
X015634Y020625D01*
X015634Y020863D02*
X015884Y020863D01*
X015947Y021102D02*
X015634Y021102D01*
X015634Y021340D02*
X016185Y021340D01*
X017501Y021102D02*
X020514Y021102D01*
X018679Y019671D02*
X018289Y019671D01*
X018455Y019432D02*
X018513Y019432D01*
X018552Y018955D02*
X018416Y018955D01*
X018664Y017286D02*
X023054Y017286D01*
X023054Y017524D02*
X015881Y017524D01*
X015634Y017763D02*
X023054Y017763D01*
X023054Y018001D02*
X015634Y018001D01*
X015634Y018240D02*
X023054Y018240D01*
X023054Y018478D02*
X015634Y018478D01*
X015634Y016570D02*
X017487Y016570D01*
X017387Y016332D02*
X015634Y016332D01*
X015634Y016093D02*
X017399Y016093D01*
X017536Y015855D02*
X015845Y015855D01*
X016083Y015616D02*
X029984Y015616D01*
X029984Y015378D02*
X029722Y015378D01*
X029446Y015378D02*
X029272Y015378D01*
X029048Y015771D02*
X028844Y015686D01*
X028624Y015686D01*
X028420Y015771D01*
X028264Y015927D01*
X028179Y016131D01*
X028179Y016139D01*
X028175Y016111D01*
X028148Y016028D01*
X028108Y015950D01*
X028057Y015880D01*
X027995Y015818D01*
X027925Y015767D01*
X027847Y015727D01*
X027764Y015700D01*
X027678Y015686D01*
X027634Y015686D01*
X027634Y016241D01*
X027634Y016241D01*
X027079Y016241D01*
X027079Y016197D01*
X027093Y016111D01*
X027120Y016028D01*
X027160Y015950D01*
X027211Y015880D01*
X027273Y015818D01*
X027343Y015767D01*
X027421Y015727D01*
X027504Y015700D01*
X027590Y015686D01*
X027634Y015686D01*
X027634Y016241D01*
X027634Y016241D01*
X027079Y016241D01*
X027079Y016285D01*
X027093Y016371D01*
X027120Y016454D01*
X027160Y016532D01*
X027211Y016602D01*
X027273Y016664D01*
X027343Y016715D01*
X027421Y016755D01*
X027504Y016782D01*
X027590Y016796D01*
X027634Y016796D01*
X027634Y016241D01*
X027634Y016796D01*
X027678Y016796D01*
X027764Y016782D01*
X027847Y016755D01*
X027925Y016715D01*
X027995Y016664D01*
X028057Y016602D01*
X028108Y016532D01*
X028148Y016454D01*
X028175Y016371D01*
X028179Y016343D01*
X028179Y016351D01*
X028264Y016555D01*
X028420Y016711D01*
X028624Y016796D01*
X028844Y016796D01*
X029048Y016711D01*
X029204Y016555D01*
X029289Y016351D01*
X029289Y016131D01*
X029204Y015927D01*
X029048Y015771D01*
X029132Y015855D02*
X029984Y015855D01*
X029984Y016093D02*
X029273Y016093D01*
X029289Y016332D02*
X029886Y016332D01*
X029894Y016570D02*
X029189Y016570D01*
X030056Y016809D02*
X023662Y016809D01*
X023614Y017047D02*
X034167Y017047D01*
X034171Y016809D02*
X030612Y016809D01*
X030774Y016570D02*
X034175Y016570D01*
X034178Y016332D02*
X030782Y016332D01*
X030631Y016093D02*
X034053Y016093D01*
X034028Y015855D02*
X030584Y015855D01*
X030584Y015616D02*
X034164Y015616D01*
X034684Y015378D02*
X030584Y015378D01*
X030584Y015139D02*
X034684Y015139D01*
X034684Y014901D02*
X030584Y014901D01*
X030584Y014662D02*
X034582Y014662D01*
X034528Y014424D02*
X030584Y014424D01*
X030038Y013470D02*
X023784Y013470D01*
X024335Y013231D02*
X024633Y013231D01*
X024524Y012993D02*
X024444Y012993D01*
X024444Y012754D02*
X024524Y012754D01*
X024524Y012516D02*
X024444Y012516D01*
X024410Y012277D02*
X024558Y012277D01*
X024684Y012039D02*
X024190Y012039D01*
X025284Y012039D02*
X025778Y012039D01*
X025558Y012277D02*
X025410Y012277D01*
X025444Y012516D02*
X025524Y012516D01*
X025524Y012754D02*
X025444Y012754D01*
X025444Y012993D02*
X025524Y012993D01*
X025633Y013231D02*
X025335Y013231D01*
X025624Y015686D02*
X025844Y015686D01*
X026048Y015771D01*
X026204Y015927D01*
X026289Y016131D01*
X026289Y016351D01*
X026204Y016555D01*
X026048Y016711D01*
X025844Y016796D01*
X025624Y016796D01*
X025420Y016711D01*
X025264Y016555D01*
X025179Y016351D01*
X025179Y016343D01*
X025175Y016371D01*
X025148Y016454D01*
X025108Y016532D01*
X025057Y016602D01*
X024995Y016664D01*
X024925Y016715D01*
X024847Y016755D01*
X024764Y016782D01*
X024678Y016796D01*
X024634Y016796D01*
X024634Y016241D01*
X024634Y016241D01*
X024634Y015686D01*
X024590Y015686D01*
X024504Y015700D01*
X024421Y015727D01*
X024343Y015767D01*
X024273Y015818D01*
X024211Y015880D01*
X024160Y015950D01*
X024120Y016028D01*
X024093Y016111D01*
X024079Y016197D01*
X024079Y016241D01*
X024634Y016241D01*
X024634Y016241D01*
X024634Y015686D01*
X024678Y015686D01*
X024764Y015700D01*
X024847Y015727D01*
X024925Y015767D01*
X024995Y015818D01*
X025057Y015880D01*
X025108Y015950D01*
X025148Y016028D01*
X025175Y016111D01*
X025179Y016139D01*
X025179Y016131D01*
X025264Y015927D01*
X025420Y015771D01*
X025624Y015686D01*
X025336Y015855D02*
X025032Y015855D01*
X025169Y016093D02*
X025195Y016093D01*
X025279Y016570D02*
X025081Y016570D01*
X024634Y016570D02*
X024634Y016570D01*
X024634Y016796D02*
X024634Y016241D01*
X024079Y016241D01*
X024079Y016285D01*
X024093Y016371D01*
X024120Y016454D01*
X024160Y016532D01*
X024211Y016602D01*
X024273Y016664D01*
X024343Y016715D01*
X024421Y016755D01*
X024504Y016782D01*
X024590Y016796D01*
X024634Y016796D01*
X024634Y016332D02*
X024634Y016332D01*
X024634Y016241D02*
X024634Y016241D01*
X024634Y016093D02*
X024634Y016093D01*
X024634Y015855D02*
X024634Y015855D01*
X024236Y015855D02*
X022432Y015855D01*
X022504Y015927D02*
X022589Y016131D01*
X022589Y016351D01*
X022504Y016555D01*
X022348Y016711D01*
X022144Y016796D01*
X021924Y016796D01*
X021720Y016711D01*
X021564Y016555D01*
X021479Y016351D01*
X021479Y016343D01*
X021475Y016371D01*
X021448Y016454D01*
X021408Y016532D01*
X021357Y016602D01*
X021295Y016664D01*
X021225Y016715D01*
X021147Y016755D01*
X021064Y016782D01*
X020978Y016796D01*
X020934Y016796D01*
X020934Y016241D01*
X020934Y016241D01*
X020934Y015686D01*
X020890Y015686D01*
X020804Y015700D01*
X020721Y015727D01*
X020643Y015767D01*
X020573Y015818D01*
X020511Y015880D01*
X020460Y015950D01*
X020420Y016028D01*
X020393Y016111D01*
X020379Y016197D01*
X020379Y016241D01*
X020934Y016241D01*
X020934Y016241D01*
X020934Y015686D01*
X020978Y015686D01*
X021064Y015700D01*
X021147Y015727D01*
X021225Y015767D01*
X021295Y015818D01*
X021357Y015880D01*
X021408Y015950D01*
X021448Y016028D01*
X021475Y016111D01*
X021479Y016139D01*
X021479Y016131D01*
X021564Y015927D01*
X021720Y015771D01*
X021924Y015686D01*
X022144Y015686D01*
X022348Y015771D01*
X022504Y015927D01*
X022573Y016093D02*
X023103Y016093D01*
X022906Y016332D02*
X022589Y016332D01*
X022489Y016570D02*
X022878Y016570D01*
X023006Y016809D02*
X019141Y016809D01*
X018902Y017047D02*
X023054Y017047D01*
X023614Y017286D02*
X034164Y017286D01*
X034160Y017524D02*
X023614Y017524D01*
X023614Y017763D02*
X034157Y017763D01*
X034153Y018001D02*
X023614Y018001D01*
X023614Y018240D02*
X034150Y018240D01*
X034146Y018478D02*
X023614Y018478D01*
X023790Y016570D02*
X024187Y016570D01*
X024087Y016332D02*
X023762Y016332D01*
X023565Y016093D02*
X024099Y016093D01*
X026132Y015855D02*
X027236Y015855D01*
X027099Y016093D02*
X026273Y016093D01*
X026289Y016332D02*
X027087Y016332D01*
X027187Y016570D02*
X026189Y016570D01*
X027634Y016570D02*
X027634Y016570D01*
X027634Y016332D02*
X027634Y016332D01*
X027634Y016241D02*
X027634Y016241D01*
X027634Y016093D02*
X027634Y016093D01*
X027634Y015855D02*
X027634Y015855D01*
X028032Y015855D02*
X028336Y015855D01*
X028195Y016093D02*
X028169Y016093D01*
X028081Y016570D02*
X028279Y016570D01*
X028917Y018717D02*
X034143Y018717D01*
X034139Y018955D02*
X029216Y018955D01*
X029289Y019194D02*
X034135Y019194D01*
X034143Y019432D02*
X029255Y019432D01*
X029089Y019671D02*
X034153Y019671D01*
X038742Y017763D02*
X040210Y017763D01*
X040858Y017763D02*
X042369Y017763D01*
X042693Y017524D02*
X040990Y017524D01*
X040963Y017286D02*
X043341Y017286D01*
X043049Y019194D02*
X042204Y019194D01*
X042204Y019432D02*
X042994Y019432D01*
X043017Y019671D02*
X042204Y019671D01*
X042204Y019909D02*
X043133Y019909D01*
X043464Y020148D02*
X042204Y020148D01*
X042204Y020386D02*
X045984Y020386D01*
X045984Y020148D02*
X044972Y020148D01*
X045302Y019909D02*
X045984Y019909D01*
X045984Y019671D02*
X045418Y019671D01*
X045442Y019432D02*
X045984Y019432D01*
X045984Y019194D02*
X045387Y019194D01*
X045225Y018955D02*
X045984Y018955D01*
X045984Y020625D02*
X042204Y020625D01*
X042204Y020863D02*
X045984Y020863D01*
X045984Y021102D02*
X042204Y021102D01*
X042204Y021340D02*
X045984Y021340D01*
X045984Y021579D02*
X042204Y021579D01*
X042204Y021817D02*
X045984Y021817D01*
X045984Y022056D02*
X042204Y022056D01*
X042204Y022294D02*
X045984Y022294D01*
X045984Y022533D02*
X042204Y022533D01*
X042204Y022771D02*
X045984Y022771D01*
X045984Y023010D02*
X042204Y023010D01*
X042204Y023248D02*
X045984Y023248D01*
X045984Y023487D02*
X045004Y023487D01*
X045242Y023725D02*
X045984Y023725D01*
X045984Y023964D02*
X045481Y023964D01*
X045719Y024202D02*
X045984Y024202D01*
X045984Y024441D02*
X045784Y024441D01*
X045784Y024679D02*
X045984Y024679D01*
X045984Y024918D02*
X045784Y024918D01*
X045784Y025156D02*
X045984Y025156D01*
X045984Y025395D02*
X045784Y025395D01*
X045784Y025633D02*
X045984Y025633D01*
X045984Y025872D02*
X045784Y025872D01*
X045784Y026110D02*
X045984Y026110D01*
X045984Y026349D02*
X045743Y026349D01*
X045512Y026587D02*
X045984Y026587D01*
X045984Y026826D02*
X045274Y026826D01*
X045144Y027064D02*
X045984Y027064D01*
X045984Y027303D02*
X045023Y027303D01*
X044345Y027303D02*
X039318Y027303D01*
X039390Y027064D02*
X044224Y027064D01*
X044224Y026826D02*
X039339Y026826D01*
X039030Y026587D02*
X044437Y026587D01*
X044391Y026349D02*
X039027Y026349D01*
X039027Y026110D02*
X044224Y026110D01*
X044224Y025872D02*
X039027Y025872D01*
X039027Y025633D02*
X044391Y025633D01*
X044977Y025633D02*
X045184Y025633D01*
X045184Y025395D02*
X038968Y025395D01*
X038757Y025156D02*
X042065Y025156D01*
X042100Y025191D02*
X041934Y025025D01*
X041844Y024808D01*
X041844Y024574D01*
X041934Y024357D01*
X042100Y024191D01*
X042317Y024101D01*
X042551Y024101D01*
X042768Y024191D01*
X042934Y024357D01*
X043024Y024574D01*
X043024Y024808D01*
X042934Y025025D01*
X042768Y025191D01*
X042551Y025281D01*
X042317Y025281D01*
X042100Y025191D01*
X041889Y024918D02*
X038351Y024918D01*
X038148Y025156D02*
X038113Y025156D01*
X038785Y023725D02*
X041206Y023725D01*
X041364Y023487D02*
X039021Y023487D01*
X039079Y023248D02*
X041364Y023248D01*
X041364Y023010D02*
X039028Y023010D01*
X038047Y023487D02*
X038022Y023487D01*
X040483Y021340D02*
X041364Y021340D01*
X041364Y021102D02*
X040721Y021102D01*
X040784Y020863D02*
X041364Y020863D01*
X041364Y020625D02*
X040784Y020625D01*
X040784Y020386D02*
X041364Y020386D01*
X041364Y020148D02*
X040588Y020148D01*
X041917Y024202D02*
X042089Y024202D01*
X041899Y024441D02*
X041678Y024441D01*
X041844Y024679D02*
X041440Y024679D01*
X042779Y024202D02*
X044871Y024202D01*
X045109Y024441D02*
X042969Y024441D01*
X043024Y024679D02*
X045184Y024679D01*
X045184Y024918D02*
X042979Y024918D01*
X042803Y025156D02*
X045184Y025156D01*
X045184Y025872D02*
X045144Y025872D01*
X045984Y027541D02*
X039234Y027541D01*
X039234Y027780D02*
X045984Y027780D01*
X045984Y028018D02*
X039234Y028018D01*
X039234Y028257D02*
X042034Y028257D01*
X042100Y028191D02*
X041934Y028357D01*
X041844Y028574D01*
X041844Y028808D01*
X041934Y029025D01*
X042100Y029191D01*
X042317Y029281D01*
X042551Y029281D01*
X042768Y029191D01*
X042934Y029025D01*
X043024Y028808D01*
X043024Y028574D01*
X042934Y028357D01*
X042768Y028191D01*
X042551Y028101D01*
X042317Y028101D01*
X042100Y028191D01*
X041877Y028495D02*
X039234Y028495D01*
X039234Y028734D02*
X041844Y028734D01*
X041912Y028972D02*
X039234Y028972D01*
X039234Y029211D02*
X042147Y029211D01*
X042722Y029211D02*
X045984Y029211D01*
X045984Y029449D02*
X039234Y029449D01*
X039234Y029688D02*
X045984Y029688D01*
X045984Y029926D02*
X039234Y029926D01*
X039234Y030165D02*
X045984Y030165D01*
X045984Y030403D02*
X039234Y030403D01*
X039234Y030642D02*
X045984Y030642D01*
X045984Y030880D02*
X039234Y030880D01*
X039234Y031119D02*
X045984Y031119D01*
X045984Y031357D02*
X039190Y031357D01*
X038954Y031596D02*
X045984Y031596D01*
X045984Y031834D02*
X038715Y031834D01*
X038582Y031119D02*
X016036Y031119D01*
X016034Y030880D02*
X038634Y030880D01*
X038634Y030642D02*
X016034Y030642D01*
X015278Y029926D02*
X014352Y029926D01*
X014631Y029688D02*
X015345Y029688D01*
X015434Y029449D02*
X014870Y029449D01*
X015092Y029211D02*
X015434Y029211D01*
X015434Y028972D02*
X015144Y028972D01*
X015163Y028734D02*
X015434Y028734D01*
X015434Y028495D02*
X015290Y028495D01*
X015299Y028257D02*
X015434Y028257D01*
X015434Y028018D02*
X015299Y028018D01*
X015299Y027780D02*
X015434Y027780D01*
X015434Y027541D02*
X015299Y027541D01*
X015350Y027303D02*
X015187Y027303D01*
X015278Y027064D02*
X012981Y027064D01*
X012877Y026826D02*
X012743Y026826D01*
X013187Y027303D02*
X013261Y027303D01*
X013571Y026826D02*
X013877Y026826D01*
X014187Y027303D02*
X014261Y027303D01*
X014571Y026826D02*
X014877Y026826D01*
X014224Y028654D02*
X014211Y028686D01*
X014050Y028847D01*
X013838Y028935D01*
X013610Y028935D01*
X013399Y028847D01*
X013237Y028686D01*
X013224Y028654D01*
X013211Y028686D01*
X013050Y028847D01*
X012838Y028935D01*
X012610Y028935D01*
X012399Y028847D01*
X012237Y028686D01*
X012222Y028649D01*
X012215Y028661D01*
X012162Y028734D01*
X012098Y028798D01*
X012025Y028852D01*
X011945Y028893D01*
X011859Y028921D01*
X011769Y028935D01*
X011724Y028935D01*
X011679Y028935D01*
X011590Y028921D01*
X011504Y028893D01*
X011423Y028852D01*
X011350Y028798D01*
X011286Y028734D01*
X011233Y028661D01*
X011226Y028649D01*
X011211Y028686D01*
X011050Y028847D01*
X010838Y028935D01*
X010610Y028935D01*
X010399Y028847D01*
X010237Y028686D01*
X010224Y028654D01*
X010211Y028686D01*
X010050Y028847D01*
X009838Y028935D01*
X009610Y028935D01*
X009399Y028847D01*
X009237Y028686D01*
X009224Y028654D01*
X009211Y028686D01*
X009144Y028753D01*
X009144Y028957D01*
X009308Y029121D01*
X014010Y029121D01*
X014304Y028827D01*
X014304Y028753D01*
X014237Y028686D01*
X014224Y028654D01*
X014163Y028734D02*
X014285Y028734D01*
X014159Y028972D02*
X009159Y028972D01*
X009163Y028734D02*
X009285Y028734D01*
X010163Y028734D02*
X010285Y028734D01*
X011163Y028734D02*
X011285Y028734D01*
X011724Y028734D02*
X011724Y028734D01*
X011724Y028935D02*
X011724Y028006D01*
X011724Y028006D01*
X011724Y028935D01*
X011724Y028495D02*
X011724Y028495D01*
X011724Y028257D02*
X011724Y028257D01*
X011724Y028018D02*
X011724Y028018D01*
X012163Y028734D02*
X012285Y028734D01*
X013163Y028734D02*
X013285Y028734D01*
X011268Y027303D02*
X011187Y027303D01*
X011183Y027064D02*
X002644Y027064D01*
X002523Y027303D02*
X008261Y027303D01*
X008571Y026826D02*
X008877Y026826D01*
X009187Y027303D02*
X009261Y027303D01*
X009571Y026826D02*
X009877Y026826D01*
X010187Y027303D02*
X010261Y027303D01*
X010571Y026826D02*
X010877Y026826D01*
X007877Y026826D02*
X002774Y026826D01*
X003012Y026587D02*
X007696Y026587D01*
X007650Y026349D02*
X003251Y026349D01*
X004971Y027780D02*
X000484Y027780D01*
X000484Y028018D02*
X004733Y028018D01*
X004084Y028257D02*
X000484Y028257D01*
X000484Y028495D02*
X003927Y028495D01*
X003894Y028734D02*
X000484Y028734D01*
X000484Y028972D02*
X003962Y028972D01*
X004197Y029211D02*
X000484Y029211D01*
X001822Y035370D02*
X001822Y035370D01*
X014434Y024441D02*
X014541Y024441D01*
X014434Y024202D02*
X014779Y024202D01*
X015018Y023964D02*
X014434Y023964D01*
X014434Y023725D02*
X014883Y023725D01*
X015134Y023725D02*
X015134Y023725D01*
X015134Y023487D02*
X015134Y023487D01*
X015134Y023248D02*
X015134Y023248D01*
X014647Y023487D02*
X014622Y023487D01*
X020573Y016664D02*
X020511Y016602D01*
X020460Y016532D01*
X020420Y016454D01*
X020393Y016371D01*
X020379Y016285D01*
X020379Y016241D01*
X020934Y016241D01*
X020934Y016796D01*
X020890Y016796D01*
X020804Y016782D01*
X020721Y016755D01*
X020643Y016715D01*
X020573Y016664D01*
X020487Y016570D02*
X019489Y016570D01*
X019589Y016332D02*
X020387Y016332D01*
X020399Y016093D02*
X019573Y016093D01*
X019432Y015855D02*
X020536Y015855D01*
X020934Y015855D02*
X020934Y015855D01*
X020934Y016093D02*
X020934Y016093D01*
X020934Y016241D02*
X020934Y016241D01*
X020934Y016332D02*
X020934Y016332D01*
X020934Y016570D02*
X020934Y016570D01*
X021381Y016570D02*
X021579Y016570D01*
X021495Y016093D02*
X021469Y016093D01*
X021332Y015855D02*
X021636Y015855D01*
X018636Y015855D02*
X018332Y015855D01*
X018469Y016093D02*
X018495Y016093D01*
X017934Y016093D02*
X017934Y016093D01*
X017934Y015855D02*
X017934Y015855D01*
X020473Y012039D02*
X020591Y012039D01*
X020789Y011085D02*
X021404Y011085D01*
X021404Y010846D02*
X020768Y010846D01*
X020596Y010608D02*
X021404Y010608D01*
X028307Y009892D02*
X029934Y009892D01*
X029787Y009654D02*
X028546Y009654D01*
X028757Y009415D02*
X029792Y009415D01*
X029953Y009177D02*
X028784Y009177D01*
X028784Y008938D02*
X032663Y008938D01*
X033034Y009415D02*
X035578Y009415D01*
X035628Y009654D02*
X032796Y009654D01*
X032557Y009892D02*
X035931Y009892D01*
X034893Y010608D02*
X032284Y010608D01*
X032284Y010846D02*
X034655Y010846D01*
X034416Y011085D02*
X033023Y011085D01*
X032345Y011085D02*
X032284Y011085D01*
X032284Y011800D02*
X032479Y011800D01*
X032284Y012039D02*
X035234Y012039D01*
X035234Y012277D02*
X032284Y012277D01*
X032889Y011800D02*
X035234Y011800D01*
X035090Y011562D02*
X034788Y011562D01*
X035026Y011323D02*
X035089Y011323D01*
X035090Y008700D02*
X039780Y008700D01*
X040857Y010369D02*
X040858Y010369D01*
X043385Y007984D02*
X037365Y007984D01*
X037825Y007746D02*
X043338Y007746D01*
X043339Y007507D02*
X037980Y007507D01*
X037977Y007269D02*
X043387Y007269D01*
X043378Y007284D02*
X043378Y007284D01*
X043525Y007030D02*
X037818Y007030D01*
X037250Y007030D02*
X035228Y007030D01*
X035041Y006792D02*
X043779Y006792D01*
X043820Y006757D02*
X043820Y006757D01*
X043553Y006982D02*
X043553Y006982D01*
X044866Y006792D02*
X045984Y006792D01*
X045984Y007030D02*
X045120Y007030D01*
X045093Y006982D02*
X045093Y006982D01*
X045093Y006982D01*
X045258Y007269D02*
X045984Y007269D01*
X045984Y007507D02*
X045307Y007507D01*
X045267Y007284D02*
X045267Y007284D01*
X045307Y007746D02*
X045984Y007746D01*
X045984Y007984D02*
X045260Y007984D01*
X045267Y007972D02*
X045267Y007972D01*
X045123Y008223D02*
X045984Y008223D01*
X045984Y008461D02*
X044870Y008461D01*
X044825Y008499D02*
X044825Y008499D01*
X043820Y008499D02*
X043820Y008499D01*
X045984Y006553D02*
X034854Y006553D01*
X034684Y006315D02*
X045984Y006315D01*
X037091Y007269D02*
X035416Y007269D01*
X035795Y007507D02*
X036286Y007507D01*
X036005Y007746D02*
X035938Y007746D01*
X035027Y007746D02*
X034190Y007746D01*
X034148Y007984D02*
X034546Y007984D01*
X034428Y008223D02*
X033884Y008223D01*
X034095Y007507D02*
X034840Y007507D01*
X034653Y007269D02*
X033219Y007269D01*
X033340Y007507D02*
X033373Y007507D01*
X033365Y007030D02*
X034465Y007030D01*
X034278Y006792D02*
X033511Y006792D01*
X033658Y006553D02*
X034104Y006553D01*
X034084Y006315D02*
X033804Y006315D01*
X026484Y004291D02*
X026434Y004291D01*
X026334Y004291D01*
X026334Y003800D01*
X026378Y003800D01*
X033664Y014185D02*
X034596Y014185D01*
X035834Y014185D02*
X039743Y014185D01*
X038106Y026826D02*
X037800Y026826D01*
X037489Y027303D02*
X037416Y027303D01*
X037106Y026826D02*
X036800Y026826D01*
X036489Y027303D02*
X036416Y027303D01*
X042834Y028257D02*
X045984Y028257D01*
X045984Y028495D02*
X042991Y028495D01*
X043024Y028734D02*
X045984Y028734D01*
X045984Y028972D02*
X042956Y028972D01*
X043820Y035370D02*
X043820Y035370D01*
X044875Y035412D02*
X045984Y035412D01*
X045984Y035650D02*
X045125Y035650D01*
X045093Y035594D02*
X045093Y035594D01*
X045093Y035594D01*
X045263Y035889D02*
X045984Y035889D01*
X045984Y036127D02*
X045308Y036127D01*
X045306Y036366D02*
X045984Y036366D01*
X045984Y036604D02*
X045256Y036604D01*
X045118Y036843D02*
X045984Y036843D01*
X045984Y037081D02*
X044861Y037081D01*
X044825Y037111D02*
X044825Y037111D01*
X045093Y036887D02*
X045093Y036887D01*
D29*
X011384Y006591D02*
X011378Y006585D01*
X011378Y003800D01*
X022378Y003800D02*
X022378Y006447D01*
X022334Y006491D01*
X035378Y006385D02*
X035378Y003800D01*
X035378Y006385D02*
X035384Y006391D01*
D30*
X025684Y006791D02*
X025684Y007891D01*
X025284Y008291D01*
X024984Y007741D02*
X025084Y007641D01*
X025084Y006541D01*
X021684Y008941D02*
X021684Y011591D01*
X020434Y011591D01*
X020084Y011891D01*
X020084Y012291D01*
X020884Y012391D02*
X022884Y012391D01*
X023684Y011591D01*
X023684Y011191D01*
X023884Y010991D01*
X025134Y010291D02*
X025134Y009841D01*
X024984Y009691D01*
X025134Y010291D02*
X025534Y010691D01*
X025534Y011141D01*
X020334Y010991D02*
X019984Y010991D01*
X019634Y011341D01*
X019634Y014091D01*
X019084Y013441D02*
X018884Y013441D01*
X019084Y013441D02*
X019234Y013291D01*
X019234Y011191D01*
X017984Y011091D02*
X017984Y009541D01*
X018234Y009291D01*
X019934Y008741D02*
X019934Y007841D01*
X017034Y011141D02*
X016934Y011241D01*
X016934Y012041D01*
X015334Y010591D02*
X015834Y010091D01*
X015834Y009791D01*
X023334Y016491D02*
X023334Y028991D01*
X023734Y029391D01*
M02*
