G75*
G70*
%OFA0B0*%
%FSLAX24Y24*%
%IPPOS*%
%LPD*%
%AMOC8*
5,1,8,0,0,1.08239X$1,22.5*
%
%ADD10C,0.0749*%
%ADD11C,0.1044*%
%ADD12C,0.0709*%
%ADD13OC8,0.0560*%
%ADD14C,0.0780*%
%ADD15OC8,0.0900*%
%ADD16C,0.0690*%
%ADD17C,0.1280*%
%ADD18OC8,0.1280*%
%ADD19R,0.1540X0.1540*%
%ADD20C,0.1540*%
%ADD21C,0.1340*%
%ADD22R,0.0640X0.2590*%
%ADD23C,0.1300*%
%ADD24C,0.0560*%
%ADD25R,0.0749X0.0670*%
D10*
X012991Y016333D02*
X013700Y016333D01*
X013700Y017333D02*
X012991Y017333D01*
X012991Y018333D02*
X013700Y018333D01*
X013700Y019333D02*
X012991Y019333D01*
X012991Y020333D02*
X013700Y020333D01*
X013700Y021333D02*
X012991Y021333D01*
X012991Y022333D02*
X013700Y022333D01*
X013700Y023333D02*
X012991Y023333D01*
X011700Y022833D02*
X010991Y022833D01*
X010991Y021833D02*
X011700Y021833D01*
X011700Y020833D02*
X010991Y020833D01*
X010991Y019833D02*
X011700Y019833D01*
X011700Y018833D02*
X010991Y018833D01*
X010991Y017833D02*
X011700Y017833D01*
X011700Y016833D02*
X010991Y016833D01*
X034871Y017333D02*
X035580Y017333D01*
X035580Y016333D02*
X034871Y016333D01*
X036871Y016833D02*
X037580Y016833D01*
X037580Y017833D02*
X036871Y017833D01*
X036871Y018833D02*
X037580Y018833D01*
X037580Y019833D02*
X036871Y019833D01*
X036871Y020833D02*
X037580Y020833D01*
X037580Y021833D02*
X036871Y021833D01*
X036871Y022833D02*
X037580Y022833D01*
X035580Y023333D02*
X034871Y023333D01*
X034871Y022333D02*
X035580Y022333D01*
X035580Y021333D02*
X034871Y021333D01*
X034871Y020333D02*
X035580Y020333D01*
X035580Y019333D02*
X034871Y019333D01*
X034871Y018333D02*
X035580Y018333D01*
D11*
X041236Y031571D02*
X042240Y031571D01*
X042240Y033130D02*
X041236Y033130D01*
X041215Y035171D02*
X042219Y035171D01*
X042219Y036730D02*
X041215Y036730D01*
D12*
X028460Y030191D03*
X028460Y029091D03*
X028460Y027191D03*
X028460Y026091D03*
X025460Y026091D03*
X025460Y027191D03*
X025460Y029091D03*
X025460Y030191D03*
X023110Y030141D03*
X023110Y029041D03*
X023110Y027141D03*
X023110Y026041D03*
X020110Y026041D03*
X020110Y027141D03*
X020110Y029041D03*
X020110Y030141D03*
D13*
X010566Y033022D03*
X009816Y033522D03*
X009816Y032522D03*
X010316Y036368D03*
X009316Y036368D03*
X033922Y036762D03*
X034922Y036762D03*
X037269Y036762D03*
X038269Y036762D03*
D14*
X038588Y033022D03*
X038588Y031644D03*
X034588Y031644D03*
X034588Y033022D03*
X015950Y034006D03*
X015950Y031841D03*
X011950Y031841D03*
X011950Y034006D03*
D15*
X010360Y028141D03*
X019360Y028141D03*
X029010Y028141D03*
X038010Y028141D03*
D16*
X032460Y017291D03*
X032460Y016291D03*
X016110Y022241D03*
X016110Y023241D03*
D17*
X018660Y014833D03*
X029910Y024833D03*
D18*
X018660Y024833D03*
X029910Y014833D03*
D19*
X006325Y032515D03*
D20*
X006325Y035620D03*
D21*
X002910Y007628D03*
X003251Y036240D03*
X045249Y036240D03*
X045249Y007628D03*
D22*
X036304Y003800D03*
X035304Y003800D03*
X034304Y003800D03*
X033304Y003800D03*
X032304Y003800D03*
X031304Y003800D03*
X030304Y003800D03*
X029304Y003800D03*
X028304Y003800D03*
X027304Y003800D03*
X026304Y003800D03*
X025304Y003800D03*
X024304Y003800D03*
X023304Y003800D03*
X022304Y003800D03*
X021304Y003800D03*
X020304Y003800D03*
X019304Y003800D03*
X018304Y003800D03*
X017304Y003800D03*
X016304Y003800D03*
X015304Y003800D03*
X014304Y003800D03*
X013304Y003800D03*
X012304Y003800D03*
D23*
X004236Y019833D03*
X044335Y019833D03*
D24*
X031395Y034018D02*
X031395Y034538D01*
X030395Y034538D02*
X030395Y034018D01*
X029395Y034018D02*
X029395Y034538D01*
X028395Y034538D02*
X028395Y034018D01*
X028395Y037018D02*
X028395Y037538D01*
X029395Y037538D02*
X029395Y037018D01*
X030395Y037018D02*
X030395Y037538D01*
X031395Y037538D02*
X031395Y037018D01*
X022930Y037018D02*
X022930Y037538D01*
X021930Y037538D02*
X021930Y037018D01*
X020930Y037018D02*
X020930Y037538D01*
X019930Y037538D02*
X019930Y037018D01*
X019930Y034538D02*
X019930Y034018D01*
X020930Y034018D02*
X020930Y034538D01*
X021930Y034538D02*
X021930Y034018D01*
X022930Y034018D02*
X022930Y034538D01*
D25*
X023897Y035172D03*
X024806Y035172D03*
X024806Y036274D03*
X023897Y036274D03*
X026469Y036234D03*
X027379Y036234D03*
X027379Y035131D03*
X026469Y035131D03*
X032166Y035322D03*
X033076Y035322D03*
X033076Y036424D03*
X032166Y036424D03*
X018129Y036384D03*
X017219Y036384D03*
X017219Y035281D03*
X018129Y035281D03*
M02*
