G75*
G70*
%OFA0B0*%
%FSLAX24Y24*%
%IPPOS*%
%LPD*%
%AMOC8*
5,1,8,0,0,1.08239X$1,22.5*
%
%ADD10R,0.0800X0.0260*%
%ADD11R,0.0630X0.0709*%
%ADD12R,0.0709X0.0630*%
%ADD13R,0.0710X0.0630*%
%ADD14R,0.0780X0.0220*%
D10*
X012650Y007341D03*
X012650Y007841D03*
X012650Y008341D03*
X012650Y008841D03*
X012650Y009341D03*
X012650Y009841D03*
X012650Y010341D03*
X015070Y010341D03*
X015070Y009841D03*
X015070Y009341D03*
X015070Y008841D03*
X015070Y008341D03*
X015070Y007841D03*
X015070Y007341D03*
X018150Y007341D03*
X018150Y007841D03*
X018150Y008341D03*
X018150Y008841D03*
X018150Y009341D03*
X018150Y009841D03*
X018150Y010341D03*
X020570Y010341D03*
X020570Y009841D03*
X020570Y009341D03*
X020570Y008841D03*
X020570Y008341D03*
X020570Y007841D03*
X020570Y007341D03*
X025650Y008741D03*
X025650Y009241D03*
X025650Y009741D03*
X025650Y010241D03*
X025650Y010741D03*
X025650Y011241D03*
X025650Y011741D03*
X025650Y012241D03*
X028070Y012241D03*
X028070Y011741D03*
X028070Y011241D03*
X028070Y010741D03*
X028070Y010241D03*
X028070Y009741D03*
X028070Y009241D03*
X028070Y008741D03*
X034250Y008741D03*
X034250Y009241D03*
X034250Y009741D03*
X034250Y010241D03*
X034250Y010741D03*
X034250Y011241D03*
X034250Y011741D03*
X034250Y012241D03*
X036670Y012241D03*
X036670Y011741D03*
X036670Y011241D03*
X036670Y010741D03*
X036670Y010241D03*
X036670Y009741D03*
X036670Y009241D03*
X036670Y008741D03*
D11*
X024107Y012195D03*
X023005Y012195D03*
X020800Y012943D03*
X019698Y012943D03*
X019912Y011291D03*
X018809Y011291D03*
X014462Y011391D03*
X013359Y011391D03*
X022454Y016289D03*
X023556Y016289D03*
D12*
X023005Y017707D03*
X023005Y018809D03*
X021627Y018809D03*
X021627Y017707D03*
X025761Y017707D03*
X027139Y017707D03*
X027139Y018809D03*
X025761Y018809D03*
X029321Y012232D03*
X029321Y011129D03*
X038061Y011147D03*
X038061Y012249D03*
D13*
X027139Y020651D03*
X025761Y020651D03*
X025761Y021771D03*
X027139Y021771D03*
X023005Y021771D03*
X023005Y020651D03*
X021627Y020651D03*
X021627Y021771D03*
D14*
X022075Y014874D03*
X022075Y014374D03*
X022075Y013874D03*
X022075Y013374D03*
X023935Y013374D03*
X023935Y013874D03*
X023935Y014374D03*
X023935Y014874D03*
M02*
