G75*
G70*
%OFA0B0*%
%FSLAX24Y24*%
%IPPOS*%
%LPD*%
%AMOC8*
5,1,8,0,0,1.08239X$1,22.5*
%
%ADD10C,0.0000*%
%ADD11C,0.0436*%
%ADD12R,0.0709X0.0630*%
%ADD13R,0.0630X0.0709*%
%ADD14OC8,0.0520*%
%ADD15R,0.0591X0.0591*%
%ADD16C,0.0740*%
%ADD17OC8,0.0660*%
%ADD18C,0.0160*%
%ADD19C,0.0120*%
%ADD20C,0.0396*%
D10*
X000100Y000100D02*
X000100Y012100D01*
X016100Y012100D01*
X016100Y000100D01*
X000100Y000100D01*
X000670Y006100D02*
X000672Y006150D01*
X000678Y006200D01*
X000688Y006249D01*
X000702Y006297D01*
X000719Y006344D01*
X000740Y006389D01*
X000765Y006433D01*
X000793Y006474D01*
X000825Y006513D01*
X000859Y006550D01*
X000896Y006584D01*
X000936Y006614D01*
X000978Y006641D01*
X001022Y006665D01*
X001068Y006686D01*
X001115Y006702D01*
X001163Y006715D01*
X001213Y006724D01*
X001262Y006729D01*
X001313Y006730D01*
X001363Y006727D01*
X001412Y006720D01*
X001461Y006709D01*
X001509Y006694D01*
X001555Y006676D01*
X001600Y006654D01*
X001643Y006628D01*
X001684Y006599D01*
X001723Y006567D01*
X001759Y006532D01*
X001791Y006494D01*
X001821Y006454D01*
X001848Y006411D01*
X001871Y006367D01*
X001890Y006321D01*
X001906Y006273D01*
X001918Y006224D01*
X001926Y006175D01*
X001930Y006125D01*
X001930Y006075D01*
X001926Y006025D01*
X001918Y005976D01*
X001906Y005927D01*
X001890Y005879D01*
X001871Y005833D01*
X001848Y005789D01*
X001821Y005746D01*
X001791Y005706D01*
X001759Y005668D01*
X001723Y005633D01*
X001684Y005601D01*
X001643Y005572D01*
X001600Y005546D01*
X001555Y005524D01*
X001509Y005506D01*
X001461Y005491D01*
X001412Y005480D01*
X001363Y005473D01*
X001313Y005470D01*
X001262Y005471D01*
X001213Y005476D01*
X001163Y005485D01*
X001115Y005498D01*
X001068Y005514D01*
X001022Y005535D01*
X000978Y005559D01*
X000936Y005586D01*
X000896Y005616D01*
X000859Y005650D01*
X000825Y005687D01*
X000793Y005726D01*
X000765Y005767D01*
X000740Y005811D01*
X000719Y005856D01*
X000702Y005903D01*
X000688Y005951D01*
X000678Y006000D01*
X000672Y006050D01*
X000670Y006100D01*
X005460Y010600D02*
X005462Y010650D01*
X005468Y010700D01*
X005478Y010749D01*
X005491Y010798D01*
X005509Y010845D01*
X005530Y010891D01*
X005554Y010934D01*
X005582Y010976D01*
X005613Y011016D01*
X005647Y011053D01*
X005684Y011087D01*
X005724Y011118D01*
X005766Y011146D01*
X005809Y011170D01*
X005855Y011191D01*
X005902Y011209D01*
X005951Y011222D01*
X006000Y011232D01*
X006050Y011238D01*
X006100Y011240D01*
X006150Y011238D01*
X006200Y011232D01*
X006249Y011222D01*
X006298Y011209D01*
X006345Y011191D01*
X006391Y011170D01*
X006434Y011146D01*
X006476Y011118D01*
X006516Y011087D01*
X006553Y011053D01*
X006587Y011016D01*
X006618Y010976D01*
X006646Y010934D01*
X006670Y010891D01*
X006691Y010845D01*
X006709Y010798D01*
X006722Y010749D01*
X006732Y010700D01*
X006738Y010650D01*
X006740Y010600D01*
X006738Y010550D01*
X006732Y010500D01*
X006722Y010451D01*
X006709Y010402D01*
X006691Y010355D01*
X006670Y010309D01*
X006646Y010266D01*
X006618Y010224D01*
X006587Y010184D01*
X006553Y010147D01*
X006516Y010113D01*
X006476Y010082D01*
X006434Y010054D01*
X006391Y010030D01*
X006345Y010009D01*
X006298Y009991D01*
X006249Y009978D01*
X006200Y009968D01*
X006150Y009962D01*
X006100Y009960D01*
X006050Y009962D01*
X006000Y009968D01*
X005951Y009978D01*
X005902Y009991D01*
X005855Y010009D01*
X005809Y010030D01*
X005766Y010054D01*
X005724Y010082D01*
X005684Y010113D01*
X005647Y010147D01*
X005613Y010184D01*
X005582Y010224D01*
X005554Y010266D01*
X005530Y010309D01*
X005509Y010355D01*
X005491Y010402D01*
X005478Y010451D01*
X005468Y010500D01*
X005462Y010550D01*
X005460Y010600D01*
X009460Y010600D02*
X009462Y010650D01*
X009468Y010700D01*
X009478Y010749D01*
X009491Y010798D01*
X009509Y010845D01*
X009530Y010891D01*
X009554Y010934D01*
X009582Y010976D01*
X009613Y011016D01*
X009647Y011053D01*
X009684Y011087D01*
X009724Y011118D01*
X009766Y011146D01*
X009809Y011170D01*
X009855Y011191D01*
X009902Y011209D01*
X009951Y011222D01*
X010000Y011232D01*
X010050Y011238D01*
X010100Y011240D01*
X010150Y011238D01*
X010200Y011232D01*
X010249Y011222D01*
X010298Y011209D01*
X010345Y011191D01*
X010391Y011170D01*
X010434Y011146D01*
X010476Y011118D01*
X010516Y011087D01*
X010553Y011053D01*
X010587Y011016D01*
X010618Y010976D01*
X010646Y010934D01*
X010670Y010891D01*
X010691Y010845D01*
X010709Y010798D01*
X010722Y010749D01*
X010732Y010700D01*
X010738Y010650D01*
X010740Y010600D01*
X010738Y010550D01*
X010732Y010500D01*
X010722Y010451D01*
X010709Y010402D01*
X010691Y010355D01*
X010670Y010309D01*
X010646Y010266D01*
X010618Y010224D01*
X010587Y010184D01*
X010553Y010147D01*
X010516Y010113D01*
X010476Y010082D01*
X010434Y010054D01*
X010391Y010030D01*
X010345Y010009D01*
X010298Y009991D01*
X010249Y009978D01*
X010200Y009968D01*
X010150Y009962D01*
X010100Y009960D01*
X010050Y009962D01*
X010000Y009968D01*
X009951Y009978D01*
X009902Y009991D01*
X009855Y010009D01*
X009809Y010030D01*
X009766Y010054D01*
X009724Y010082D01*
X009684Y010113D01*
X009647Y010147D01*
X009613Y010184D01*
X009582Y010224D01*
X009554Y010266D01*
X009530Y010309D01*
X009509Y010355D01*
X009491Y010402D01*
X009478Y010451D01*
X009468Y010500D01*
X009462Y010550D01*
X009460Y010600D01*
X014270Y006100D02*
X014272Y006150D01*
X014278Y006200D01*
X014288Y006249D01*
X014302Y006297D01*
X014319Y006344D01*
X014340Y006389D01*
X014365Y006433D01*
X014393Y006474D01*
X014425Y006513D01*
X014459Y006550D01*
X014496Y006584D01*
X014536Y006614D01*
X014578Y006641D01*
X014622Y006665D01*
X014668Y006686D01*
X014715Y006702D01*
X014763Y006715D01*
X014813Y006724D01*
X014862Y006729D01*
X014913Y006730D01*
X014963Y006727D01*
X015012Y006720D01*
X015061Y006709D01*
X015109Y006694D01*
X015155Y006676D01*
X015200Y006654D01*
X015243Y006628D01*
X015284Y006599D01*
X015323Y006567D01*
X015359Y006532D01*
X015391Y006494D01*
X015421Y006454D01*
X015448Y006411D01*
X015471Y006367D01*
X015490Y006321D01*
X015506Y006273D01*
X015518Y006224D01*
X015526Y006175D01*
X015530Y006125D01*
X015530Y006075D01*
X015526Y006025D01*
X015518Y005976D01*
X015506Y005927D01*
X015490Y005879D01*
X015471Y005833D01*
X015448Y005789D01*
X015421Y005746D01*
X015391Y005706D01*
X015359Y005668D01*
X015323Y005633D01*
X015284Y005601D01*
X015243Y005572D01*
X015200Y005546D01*
X015155Y005524D01*
X015109Y005506D01*
X015061Y005491D01*
X015012Y005480D01*
X014963Y005473D01*
X014913Y005470D01*
X014862Y005471D01*
X014813Y005476D01*
X014763Y005485D01*
X014715Y005498D01*
X014668Y005514D01*
X014622Y005535D01*
X014578Y005559D01*
X014536Y005586D01*
X014496Y005616D01*
X014459Y005650D01*
X014425Y005687D01*
X014393Y005726D01*
X014365Y005767D01*
X014340Y005811D01*
X014319Y005856D01*
X014302Y005903D01*
X014288Y005951D01*
X014278Y006000D01*
X014272Y006050D01*
X014270Y006100D01*
D11*
X008600Y005818D02*
X008600Y005382D01*
X008100Y005382D02*
X008100Y005818D01*
X007600Y005818D02*
X007600Y005382D01*
D12*
X012100Y005651D03*
X012100Y004549D03*
X012100Y007049D03*
X012100Y008151D03*
D13*
X010651Y004600D03*
X009549Y004600D03*
X010049Y003100D03*
X011151Y003100D03*
D14*
X005250Y004400D03*
X004500Y003900D03*
X004500Y004900D03*
D15*
X007511Y003600D03*
X008889Y003600D03*
D16*
X009350Y007100D03*
X008350Y007100D03*
X007350Y007100D03*
X006850Y008100D03*
X007850Y008100D03*
X008850Y008100D03*
D17*
X008200Y002100D03*
X008200Y001100D03*
D18*
X008000Y001100D01*
X007500Y001600D01*
X007500Y003589D01*
X007511Y003600D01*
X006900Y003600D01*
X006600Y003900D01*
X004500Y003900D01*
X004500Y004900D02*
X005200Y005600D01*
X007600Y005600D01*
X007510Y005690D01*
X007510Y006110D01*
X007800Y006400D01*
X009800Y006400D01*
X010100Y006700D01*
X010100Y008151D01*
X008901Y008151D01*
X008850Y008100D01*
X010100Y008151D02*
X012100Y008151D01*
X012549Y008151D01*
X013100Y007600D01*
X013100Y006100D01*
X012651Y005651D01*
X012100Y005651D01*
X012100Y004549D02*
X011400Y004549D01*
X011400Y004100D01*
X011400Y004549D02*
X010702Y004549D01*
X010651Y004600D01*
X010600Y004549D01*
X009549Y004600D02*
X009549Y005549D01*
X009498Y005600D01*
X008600Y005600D01*
X009549Y005549D02*
X011049Y007049D01*
X012100Y007049D01*
X008900Y003600D02*
X009400Y003100D01*
X010049Y003100D01*
X008889Y002789D02*
X008200Y002100D01*
X008889Y002789D02*
X008889Y003600D01*
X008900Y003600D01*
X006600Y003900D02*
X006600Y004600D01*
X006850Y008100D02*
X006799Y008151D01*
D19*
X006810Y008140D02*
X006810Y008630D01*
X006808Y008630D01*
X006726Y008617D01*
X006647Y008591D01*
X006572Y008553D01*
X006505Y008504D01*
X006446Y008445D01*
X006397Y008378D01*
X006359Y008303D01*
X006333Y008224D01*
X006320Y008142D01*
X006320Y008140D01*
X006810Y008140D01*
X006890Y008140D01*
X006890Y008630D01*
X006892Y008630D01*
X006974Y008617D01*
X007053Y008591D01*
X007128Y008553D01*
X007195Y008504D01*
X007254Y008445D01*
X007303Y008378D01*
X007341Y008303D01*
X007359Y008248D01*
X007418Y008389D01*
X007561Y008532D01*
X007749Y008610D01*
X007951Y008610D01*
X008139Y008532D01*
X008282Y008389D01*
X008350Y008226D01*
X008418Y008389D01*
X008561Y008532D01*
X008749Y008610D01*
X008951Y008610D01*
X009139Y008532D01*
X009282Y008389D01*
X009290Y008371D01*
X011606Y008371D01*
X011606Y008524D01*
X011688Y008606D01*
X012512Y008606D01*
X012594Y008524D01*
X012594Y008371D01*
X012640Y008371D01*
X013191Y007820D01*
X013320Y007691D01*
X013320Y006009D01*
X013191Y005880D01*
X012742Y005431D01*
X012594Y005431D01*
X012594Y005278D01*
X012512Y005196D01*
X011688Y005196D01*
X011606Y005278D01*
X011606Y006024D01*
X011688Y006106D01*
X012512Y006106D01*
X012594Y006024D01*
X012594Y005905D01*
X012880Y006191D01*
X012880Y007509D01*
X012594Y007795D01*
X012594Y007778D01*
X012512Y007696D01*
X011688Y007696D01*
X011606Y007778D01*
X011606Y007931D01*
X010320Y007931D01*
X010320Y006631D01*
X010829Y007140D01*
X010958Y007269D01*
X011606Y007269D01*
X011606Y007422D01*
X011688Y007504D01*
X012512Y007504D01*
X012594Y007422D01*
X012594Y006676D01*
X012512Y006594D01*
X011688Y006594D01*
X011606Y006676D01*
X011606Y006829D01*
X011140Y006829D01*
X009769Y005458D01*
X009769Y005094D01*
X009922Y005094D01*
X010004Y005012D01*
X010004Y004188D01*
X009922Y004106D01*
X009176Y004106D01*
X009094Y004188D01*
X009094Y005012D01*
X009176Y005094D01*
X009329Y005094D01*
X009329Y005380D01*
X008958Y005380D01*
X008958Y005311D01*
X008904Y005179D01*
X008803Y005078D01*
X008671Y005024D01*
X008529Y005024D01*
X008397Y005078D01*
X008364Y005111D01*
X008341Y005088D01*
X008279Y005047D01*
X008210Y005018D01*
X008137Y005004D01*
X008100Y005004D01*
X008100Y005600D01*
X008100Y005004D01*
X008063Y005004D01*
X007990Y005018D01*
X007921Y005047D01*
X007859Y005088D01*
X007836Y005111D01*
X007803Y005078D01*
X007671Y005024D01*
X007529Y005024D01*
X007397Y005078D01*
X007296Y005179D01*
X007242Y005311D01*
X007242Y005380D01*
X005291Y005380D01*
X004900Y004989D01*
X004900Y004734D01*
X004666Y004500D01*
X004334Y004500D01*
X004100Y004734D01*
X004100Y005066D01*
X004334Y005300D01*
X004589Y005300D01*
X005109Y005820D01*
X007242Y005820D01*
X007242Y005889D01*
X007290Y006005D01*
X007290Y006201D01*
X007580Y006491D01*
X007709Y006620D01*
X008176Y006620D01*
X008061Y006668D01*
X007918Y006811D01*
X007795Y006811D01*
X007803Y006822D02*
X007841Y006897D01*
X007859Y006952D01*
X007918Y006811D01*
X007803Y006822D02*
X007754Y006755D01*
X007695Y006696D01*
X007628Y006647D01*
X007553Y006609D01*
X007474Y006583D01*
X007392Y006570D01*
X007390Y006570D01*
X007390Y007060D01*
X007310Y007060D01*
X007310Y006570D01*
X007308Y006570D01*
X007226Y006583D01*
X007147Y006609D01*
X007072Y006647D01*
X007005Y006696D01*
X006946Y006755D01*
X006897Y006822D01*
X006859Y006897D01*
X006833Y006976D01*
X006820Y007058D01*
X006820Y007060D01*
X007310Y007060D01*
X007310Y007140D01*
X007310Y007630D01*
X007308Y007630D01*
X007226Y007617D01*
X007147Y007591D01*
X007072Y007553D01*
X007005Y007504D01*
X006946Y007445D01*
X006897Y007378D01*
X006859Y007303D01*
X006833Y007224D01*
X006820Y007142D01*
X006820Y007140D01*
X007310Y007140D01*
X007390Y007140D01*
X007390Y007630D01*
X007392Y007630D01*
X007474Y007617D01*
X007553Y007591D01*
X007628Y007553D01*
X007695Y007504D01*
X007754Y007445D01*
X007803Y007378D01*
X007841Y007303D01*
X007859Y007248D01*
X007918Y007389D01*
X008061Y007532D01*
X008249Y007610D01*
X008451Y007610D01*
X008639Y007532D01*
X008782Y007389D01*
X008850Y007226D01*
X008918Y007389D01*
X009061Y007532D01*
X009249Y007610D01*
X009451Y007610D01*
X009639Y007532D01*
X009782Y007389D01*
X009860Y007201D01*
X009860Y006999D01*
X009782Y006811D01*
X009880Y006811D01*
X009880Y006791D02*
X009709Y006620D01*
X009524Y006620D01*
X009639Y006668D01*
X009782Y006811D01*
X009880Y006791D02*
X009880Y007931D01*
X009332Y007931D01*
X009282Y007811D01*
X009139Y007668D01*
X008951Y007590D01*
X008749Y007590D01*
X008561Y007668D01*
X008418Y007811D01*
X008350Y007974D01*
X008282Y007811D01*
X008139Y007668D01*
X007951Y007590D01*
X007749Y007590D01*
X007561Y007668D01*
X007418Y007811D01*
X007359Y007952D01*
X007341Y007897D01*
X007303Y007822D01*
X007254Y007755D01*
X007195Y007696D01*
X007128Y007647D01*
X007053Y007609D01*
X006974Y007583D01*
X006892Y007570D01*
X006890Y007570D01*
X006890Y008060D01*
X006810Y008060D01*
X006810Y007570D01*
X006808Y007570D01*
X006726Y007583D01*
X006647Y007609D01*
X006572Y007647D01*
X006505Y007696D01*
X006446Y007755D01*
X006397Y007822D01*
X006359Y007897D01*
X006333Y007976D01*
X006320Y008058D01*
X006320Y008060D01*
X006810Y008060D01*
X006810Y008140D01*
X006810Y008115D02*
X000560Y008115D01*
X000560Y008233D02*
X006336Y008233D01*
X006383Y008352D02*
X000560Y008352D01*
X000560Y008470D02*
X006470Y008470D01*
X006641Y008589D02*
X000560Y008589D01*
X000560Y008707D02*
X015640Y008707D01*
X015640Y008589D02*
X012530Y008589D01*
X012594Y008470D02*
X015640Y008470D01*
X015640Y008352D02*
X012660Y008352D01*
X012778Y008233D02*
X015640Y008233D01*
X015640Y008115D02*
X012897Y008115D01*
X013015Y007996D02*
X015640Y007996D01*
X015640Y007878D02*
X013134Y007878D01*
X013252Y007759D02*
X015640Y007759D01*
X015640Y007641D02*
X013320Y007641D01*
X013320Y007522D02*
X015640Y007522D01*
X015640Y007404D02*
X013320Y007404D01*
X013320Y007285D02*
X015640Y007285D01*
X015640Y007167D02*
X015131Y007167D01*
X015043Y007190D02*
X014757Y007190D01*
X014479Y007116D01*
X014231Y006972D01*
X014028Y006769D01*
X013884Y006521D01*
X013810Y006243D01*
X013810Y005957D01*
X013884Y005679D01*
X014028Y005431D01*
X014231Y005228D01*
X014479Y005084D01*
X014757Y005010D01*
X015043Y005010D01*
X015321Y005084D01*
X015569Y005228D01*
X015640Y005299D01*
X015640Y000700D01*
X008465Y000700D01*
X008670Y000905D01*
X008670Y001295D01*
X008395Y001570D01*
X008005Y001570D01*
X007923Y001488D01*
X007720Y001691D01*
X007720Y003165D01*
X007864Y003165D01*
X007946Y003247D01*
X007946Y003953D01*
X007864Y004035D01*
X007158Y004035D01*
X007076Y003953D01*
X007076Y003820D01*
X006991Y003820D01*
X006820Y003991D01*
X006820Y004342D01*
X006887Y004408D01*
X006938Y004533D01*
X006938Y004667D01*
X006887Y004792D01*
X006792Y004887D01*
X006667Y004938D01*
X006533Y004938D01*
X006408Y004887D01*
X006313Y004792D01*
X006262Y004667D01*
X006262Y004533D01*
X006313Y004408D01*
X006380Y004342D01*
X006380Y004120D01*
X005536Y004120D01*
X005650Y004234D01*
X005650Y004566D01*
X005416Y004800D01*
X005084Y004800D01*
X004850Y004566D01*
X004850Y004234D01*
X004964Y004120D01*
X004846Y004120D01*
X004666Y004300D01*
X004334Y004300D01*
X004100Y004066D01*
X004100Y003734D01*
X004334Y003500D01*
X004666Y003500D01*
X004846Y003680D01*
X006509Y003680D01*
X006809Y003380D01*
X007076Y003380D01*
X007076Y003247D01*
X007158Y003165D01*
X007280Y003165D01*
X007280Y001509D01*
X007409Y001380D01*
X007730Y001059D01*
X007730Y000905D01*
X007935Y000700D01*
X000560Y000700D01*
X000560Y005299D01*
X000631Y005228D01*
X000879Y005084D01*
X001157Y005010D01*
X001443Y005010D01*
X001721Y005084D01*
X001969Y005228D01*
X002172Y005431D01*
X002316Y005679D01*
X002390Y005957D01*
X002390Y006243D01*
X002316Y006521D01*
X002172Y006769D01*
X001969Y006972D01*
X001721Y007116D01*
X001443Y007190D01*
X001157Y007190D01*
X000879Y007116D01*
X000631Y006972D01*
X000560Y006901D01*
X000560Y011500D01*
X005459Y011500D01*
X005425Y011480D01*
X005220Y011275D01*
X005075Y011025D01*
X005000Y010745D01*
X005000Y010455D01*
X005075Y010175D01*
X005220Y009925D01*
X005425Y009720D01*
X005675Y009575D01*
X005955Y009500D01*
X006245Y009500D01*
X006525Y009575D01*
X006775Y009720D01*
X006980Y009925D01*
X007125Y010175D01*
X007200Y010455D01*
X007200Y010745D01*
X007125Y011025D01*
X006980Y011275D01*
X006775Y011480D01*
X006741Y011500D01*
X009459Y011500D01*
X009425Y011480D01*
X009220Y011275D01*
X009075Y011025D01*
X009000Y010745D01*
X009000Y010455D01*
X009075Y010175D01*
X009220Y009925D01*
X009425Y009720D01*
X009675Y009575D01*
X009955Y009500D01*
X010245Y009500D01*
X010525Y009575D01*
X010775Y009720D01*
X010980Y009925D01*
X011125Y010175D01*
X011200Y010455D01*
X011200Y010745D01*
X011125Y011025D01*
X010980Y011275D01*
X010775Y011480D01*
X010741Y011500D01*
X015640Y011500D01*
X015640Y006901D01*
X015569Y006972D01*
X015321Y007116D01*
X015043Y007190D01*
X014669Y007167D02*
X013320Y007167D01*
X013320Y007048D02*
X014362Y007048D01*
X014188Y006930D02*
X013320Y006930D01*
X013320Y006811D02*
X014070Y006811D01*
X013984Y006693D02*
X013320Y006693D01*
X013320Y006574D02*
X013915Y006574D01*
X013867Y006456D02*
X013320Y006456D01*
X013320Y006337D02*
X013835Y006337D01*
X013810Y006219D02*
X013320Y006219D01*
X013320Y006100D02*
X013810Y006100D01*
X013810Y005981D02*
X013293Y005981D01*
X013174Y005863D02*
X013835Y005863D01*
X013867Y005744D02*
X013056Y005744D01*
X012937Y005626D02*
X013915Y005626D01*
X013984Y005507D02*
X012819Y005507D01*
X012594Y005389D02*
X014070Y005389D01*
X014188Y005270D02*
X012587Y005270D01*
X012512Y005004D02*
X012594Y004922D01*
X012594Y004176D01*
X012512Y004094D01*
X011738Y004094D01*
X011738Y004033D01*
X011687Y003908D01*
X011592Y003813D01*
X011467Y003762D01*
X011333Y003762D01*
X011208Y003813D01*
X011113Y003908D01*
X011062Y004033D01*
X011062Y004143D01*
X011024Y004106D01*
X010278Y004106D01*
X010196Y004188D01*
X010196Y005012D01*
X010278Y005094D01*
X011024Y005094D01*
X011106Y005012D01*
X011106Y004769D01*
X011606Y004769D01*
X011606Y004922D01*
X011688Y005004D01*
X012512Y005004D01*
X012594Y004915D02*
X015640Y004915D01*
X015640Y005033D02*
X015131Y005033D01*
X015438Y005152D02*
X015640Y005152D01*
X015640Y005270D02*
X015612Y005270D01*
X015640Y004796D02*
X012594Y004796D01*
X012594Y004678D02*
X015640Y004678D01*
X015640Y004559D02*
X012594Y004559D01*
X012594Y004441D02*
X015640Y004441D01*
X015640Y004322D02*
X012594Y004322D01*
X012594Y004204D02*
X015640Y004204D01*
X015640Y004085D02*
X011738Y004085D01*
X011711Y003967D02*
X015640Y003967D01*
X015640Y003848D02*
X011627Y003848D01*
X011528Y003603D02*
X011487Y003614D01*
X011211Y003614D01*
X011211Y003160D01*
X011091Y003160D01*
X011091Y003040D01*
X010676Y003040D01*
X010676Y002725D01*
X010687Y002684D01*
X010708Y002647D01*
X010738Y002618D01*
X010774Y002597D01*
X010815Y002586D01*
X011091Y002586D01*
X011091Y003040D01*
X011211Y003040D01*
X011211Y002586D01*
X011487Y002586D01*
X011528Y002597D01*
X011564Y002618D01*
X011594Y002647D01*
X011615Y002684D01*
X011626Y002725D01*
X011626Y003040D01*
X011211Y003040D01*
X011211Y003160D01*
X011626Y003160D01*
X011626Y003475D01*
X011615Y003516D01*
X011594Y003553D01*
X011564Y003582D01*
X011528Y003603D01*
X011498Y003611D02*
X015640Y003611D01*
X015640Y003493D02*
X011621Y003493D01*
X011626Y003374D02*
X015640Y003374D01*
X015640Y003256D02*
X011626Y003256D01*
X011626Y003019D02*
X015640Y003019D01*
X015640Y003137D02*
X011211Y003137D01*
X011211Y003019D02*
X011091Y003019D01*
X011091Y003137D02*
X010504Y003137D01*
X010504Y003019D02*
X010676Y003019D01*
X010676Y002900D02*
X010504Y002900D01*
X010504Y002782D02*
X010676Y002782D01*
X010699Y002663D02*
X010480Y002663D01*
X010504Y002688D02*
X010504Y003512D01*
X010422Y003594D01*
X009676Y003594D01*
X009594Y003512D01*
X009594Y003320D01*
X009491Y003320D01*
X009324Y003487D01*
X009324Y003953D01*
X009242Y004035D01*
X008536Y004035D01*
X008454Y003953D01*
X008454Y003247D01*
X008536Y003165D01*
X008669Y003165D01*
X008669Y002880D01*
X008359Y002570D01*
X008005Y002570D01*
X007730Y002295D01*
X007730Y001905D01*
X008005Y001630D01*
X008395Y001630D01*
X008670Y001905D01*
X008670Y002259D01*
X009109Y002698D01*
X009109Y003080D01*
X009180Y003009D01*
X009309Y002880D01*
X009594Y002880D01*
X009594Y002688D01*
X009676Y002606D01*
X010422Y002606D01*
X010504Y002688D01*
X010676Y003160D02*
X011091Y003160D01*
X011091Y003614D01*
X010815Y003614D01*
X010774Y003603D01*
X010738Y003582D01*
X010708Y003553D01*
X010687Y003516D01*
X010676Y003475D01*
X010676Y003160D01*
X010676Y003256D02*
X010504Y003256D01*
X010504Y003374D02*
X010676Y003374D01*
X010681Y003493D02*
X010504Y003493D01*
X010805Y003611D02*
X009324Y003611D01*
X009324Y003493D02*
X009594Y003493D01*
X009594Y003374D02*
X009437Y003374D01*
X009324Y003730D02*
X015640Y003730D01*
X015640Y002900D02*
X011626Y002900D01*
X011626Y002782D02*
X015640Y002782D01*
X015640Y002663D02*
X011603Y002663D01*
X011211Y002663D02*
X011091Y002663D01*
X011091Y002782D02*
X011211Y002782D01*
X011211Y002900D02*
X011091Y002900D01*
X011091Y003256D02*
X011211Y003256D01*
X011211Y003374D02*
X011091Y003374D01*
X011091Y003493D02*
X011211Y003493D01*
X011211Y003611D02*
X011091Y003611D01*
X011173Y003848D02*
X009324Y003848D01*
X009311Y003967D02*
X011089Y003967D01*
X011062Y004085D02*
X006820Y004085D01*
X006820Y004204D02*
X009094Y004204D01*
X009094Y004322D02*
X006820Y004322D01*
X006900Y004441D02*
X009094Y004441D01*
X009094Y004559D02*
X006938Y004559D01*
X006934Y004678D02*
X009094Y004678D01*
X009094Y004796D02*
X006882Y004796D01*
X006723Y004915D02*
X009094Y004915D01*
X009115Y005033D02*
X008695Y005033D01*
X008505Y005033D02*
X008247Y005033D01*
X008100Y005033D02*
X008100Y005033D01*
X008100Y005152D02*
X008100Y005152D01*
X008100Y005270D02*
X008100Y005270D01*
X008100Y005389D02*
X008100Y005389D01*
X008100Y005507D02*
X008100Y005507D01*
X008100Y005600D02*
X008100Y005600D01*
X007953Y005033D02*
X007695Y005033D01*
X007505Y005033D02*
X004945Y005033D01*
X004900Y004915D02*
X006477Y004915D01*
X006318Y004796D02*
X005419Y004796D01*
X005538Y004678D02*
X006266Y004678D01*
X006262Y004559D02*
X005650Y004559D01*
X005650Y004441D02*
X006300Y004441D01*
X006380Y004322D02*
X005650Y004322D01*
X005620Y004204D02*
X006380Y004204D01*
X006844Y003967D02*
X007089Y003967D01*
X007076Y003848D02*
X006963Y003848D01*
X006696Y003493D02*
X000560Y003493D01*
X000560Y003611D02*
X004223Y003611D01*
X004104Y003730D02*
X000560Y003730D01*
X000560Y003848D02*
X004100Y003848D01*
X004100Y003967D02*
X000560Y003967D01*
X000560Y004085D02*
X004120Y004085D01*
X004238Y004204D02*
X000560Y004204D01*
X000560Y004322D02*
X004850Y004322D01*
X004850Y004441D02*
X000560Y004441D01*
X000560Y004559D02*
X004275Y004559D01*
X004156Y004678D02*
X000560Y004678D01*
X000560Y004796D02*
X004100Y004796D01*
X004100Y004915D02*
X000560Y004915D01*
X000560Y005033D02*
X001069Y005033D01*
X000762Y005152D02*
X000560Y005152D01*
X000560Y005270D02*
X000588Y005270D01*
X001531Y005033D02*
X004100Y005033D01*
X004186Y005152D02*
X001838Y005152D01*
X002012Y005270D02*
X004305Y005270D01*
X004678Y005389D02*
X002130Y005389D01*
X002216Y005507D02*
X004796Y005507D01*
X004915Y005626D02*
X002285Y005626D01*
X002333Y005744D02*
X005033Y005744D01*
X005182Y005270D02*
X007259Y005270D01*
X007323Y005152D02*
X005063Y005152D01*
X005081Y004796D02*
X004900Y004796D01*
X004844Y004678D02*
X004962Y004678D01*
X004850Y004559D02*
X004725Y004559D01*
X004762Y004204D02*
X004880Y004204D01*
X004777Y003611D02*
X006577Y003611D01*
X007076Y003374D02*
X000560Y003374D01*
X000560Y003256D02*
X007076Y003256D01*
X007280Y003137D02*
X000560Y003137D01*
X000560Y003019D02*
X007280Y003019D01*
X007280Y002900D02*
X000560Y002900D01*
X000560Y002782D02*
X007280Y002782D01*
X007280Y002663D02*
X000560Y002663D01*
X000560Y002545D02*
X007280Y002545D01*
X007280Y002426D02*
X000560Y002426D01*
X000560Y002308D02*
X007280Y002308D01*
X007280Y002189D02*
X000560Y002189D01*
X000560Y002071D02*
X007280Y002071D01*
X007280Y001952D02*
X000560Y001952D01*
X000560Y001834D02*
X007280Y001834D01*
X007280Y001715D02*
X000560Y001715D01*
X000560Y001597D02*
X007280Y001597D01*
X007310Y001478D02*
X000560Y001478D01*
X000560Y001360D02*
X007429Y001360D01*
X007547Y001241D02*
X000560Y001241D01*
X000560Y001123D02*
X007666Y001123D01*
X007730Y001004D02*
X000560Y001004D01*
X000560Y000886D02*
X007749Y000886D01*
X007868Y000767D02*
X000560Y000767D01*
X002365Y005863D02*
X007242Y005863D01*
X007280Y005981D02*
X002390Y005981D01*
X002390Y006100D02*
X007290Y006100D01*
X007307Y006219D02*
X002390Y006219D01*
X002365Y006337D02*
X007426Y006337D01*
X007544Y006456D02*
X002333Y006456D01*
X002285Y006574D02*
X007283Y006574D01*
X007310Y006574D02*
X007390Y006574D01*
X007417Y006574D02*
X007663Y006574D01*
X007691Y006693D02*
X008036Y006693D01*
X007869Y006930D02*
X007852Y006930D01*
X007847Y007285D02*
X007875Y007285D01*
X007932Y007404D02*
X007785Y007404D01*
X007671Y007522D02*
X008051Y007522D01*
X008073Y007641D02*
X008627Y007641D01*
X008649Y007522D02*
X009051Y007522D01*
X009073Y007641D02*
X009880Y007641D01*
X009880Y007759D02*
X009230Y007759D01*
X009310Y007878D02*
X009880Y007878D01*
X009880Y007522D02*
X009649Y007522D01*
X009768Y007404D02*
X009880Y007404D01*
X009880Y007285D02*
X009825Y007285D01*
X009860Y007167D02*
X009880Y007167D01*
X009880Y007048D02*
X009860Y007048D01*
X009880Y006930D02*
X009831Y006930D01*
X009781Y006693D02*
X009664Y006693D01*
X010320Y006693D02*
X010381Y006693D01*
X010320Y006811D02*
X010500Y006811D01*
X010618Y006930D02*
X010320Y006930D01*
X010320Y007048D02*
X010737Y007048D01*
X010855Y007167D02*
X010320Y007167D01*
X010320Y007285D02*
X011606Y007285D01*
X011606Y007404D02*
X010320Y007404D01*
X010320Y007522D02*
X012867Y007522D01*
X012880Y007404D02*
X012594Y007404D01*
X012594Y007285D02*
X012880Y007285D01*
X012880Y007167D02*
X012594Y007167D01*
X012594Y007048D02*
X012880Y007048D01*
X012880Y006930D02*
X012594Y006930D01*
X012594Y006811D02*
X012880Y006811D01*
X012880Y006693D02*
X012594Y006693D01*
X012880Y006574D02*
X010885Y006574D01*
X010767Y006456D02*
X012880Y006456D01*
X012880Y006337D02*
X010648Y006337D01*
X010530Y006219D02*
X012880Y006219D01*
X012789Y006100D02*
X012518Y006100D01*
X012594Y005981D02*
X012670Y005981D01*
X011682Y006100D02*
X010411Y006100D01*
X010293Y005981D02*
X011606Y005981D01*
X011606Y005863D02*
X010174Y005863D01*
X010056Y005744D02*
X011606Y005744D01*
X011606Y005626D02*
X009937Y005626D01*
X009819Y005507D02*
X011606Y005507D01*
X011606Y005389D02*
X009769Y005389D01*
X009769Y005270D02*
X011613Y005270D01*
X011606Y004915D02*
X011106Y004915D01*
X011106Y004796D02*
X011606Y004796D01*
X011085Y005033D02*
X014669Y005033D01*
X014362Y005152D02*
X009769Y005152D01*
X009983Y005033D02*
X010217Y005033D01*
X010196Y004915D02*
X010004Y004915D01*
X010004Y004796D02*
X010196Y004796D01*
X010196Y004678D02*
X010004Y004678D01*
X010004Y004559D02*
X010196Y004559D01*
X010196Y004441D02*
X010004Y004441D01*
X010004Y004322D02*
X010196Y004322D01*
X010196Y004204D02*
X010004Y004204D01*
X009329Y005152D02*
X008877Y005152D01*
X008941Y005270D02*
X009329Y005270D01*
X008467Y003967D02*
X007933Y003967D01*
X007946Y003848D02*
X008454Y003848D01*
X008454Y003730D02*
X007946Y003730D01*
X007946Y003611D02*
X008454Y003611D01*
X008454Y003493D02*
X007946Y003493D01*
X007946Y003374D02*
X008454Y003374D01*
X008454Y003256D02*
X007946Y003256D01*
X007720Y003137D02*
X008669Y003137D01*
X008669Y003019D02*
X007720Y003019D01*
X007720Y002900D02*
X008669Y002900D01*
X008571Y002782D02*
X007720Y002782D01*
X007720Y002663D02*
X008452Y002663D01*
X008838Y002426D02*
X015640Y002426D01*
X015640Y002308D02*
X008719Y002308D01*
X008670Y002189D02*
X015640Y002189D01*
X015640Y002071D02*
X008670Y002071D01*
X008670Y001952D02*
X015640Y001952D01*
X015640Y001834D02*
X008599Y001834D01*
X008480Y001715D02*
X015640Y001715D01*
X015640Y001597D02*
X007814Y001597D01*
X007720Y001715D02*
X007920Y001715D01*
X007801Y001834D02*
X007720Y001834D01*
X007720Y001952D02*
X007730Y001952D01*
X007720Y002071D02*
X007730Y002071D01*
X007720Y002189D02*
X007730Y002189D01*
X007720Y002308D02*
X007743Y002308D01*
X007720Y002426D02*
X007862Y002426D01*
X007980Y002545D02*
X007720Y002545D01*
X008956Y002545D02*
X015640Y002545D01*
X015640Y001478D02*
X008486Y001478D01*
X008605Y001360D02*
X015640Y001360D01*
X015640Y001241D02*
X008670Y001241D01*
X008670Y001123D02*
X015640Y001123D01*
X015640Y001004D02*
X008670Y001004D01*
X008651Y000886D02*
X015640Y000886D01*
X015640Y000767D02*
X008532Y000767D01*
X009075Y002663D02*
X009618Y002663D01*
X009594Y002782D02*
X009109Y002782D01*
X009109Y002900D02*
X009288Y002900D01*
X009170Y003019D02*
X009109Y003019D01*
X007390Y006693D02*
X007310Y006693D01*
X007310Y006811D02*
X007390Y006811D01*
X007390Y006930D02*
X007310Y006930D01*
X007310Y007048D02*
X007390Y007048D01*
X007390Y007167D02*
X007310Y007167D01*
X007310Y007285D02*
X007390Y007285D01*
X007390Y007404D02*
X007310Y007404D01*
X007310Y007522D02*
X007390Y007522D01*
X007470Y007759D02*
X007257Y007759D01*
X007331Y007878D02*
X007390Y007878D01*
X007627Y007641D02*
X007116Y007641D01*
X007029Y007522D02*
X000560Y007522D01*
X000560Y007404D02*
X006915Y007404D01*
X006853Y007285D02*
X000560Y007285D01*
X000560Y007167D02*
X001069Y007167D01*
X000762Y007048D02*
X000560Y007048D01*
X000560Y006930D02*
X000588Y006930D01*
X000560Y007641D02*
X006584Y007641D01*
X006443Y007759D02*
X000560Y007759D01*
X000560Y007878D02*
X006369Y007878D01*
X006330Y007996D02*
X000560Y007996D01*
X000560Y008826D02*
X015640Y008826D01*
X015640Y008944D02*
X000560Y008944D01*
X000560Y009063D02*
X015640Y009063D01*
X015640Y009181D02*
X000560Y009181D01*
X000560Y009300D02*
X015640Y009300D01*
X015640Y009418D02*
X000560Y009418D01*
X000560Y009537D02*
X005819Y009537D01*
X005537Y009655D02*
X000560Y009655D01*
X000560Y009774D02*
X005371Y009774D01*
X005252Y009892D02*
X000560Y009892D01*
X000560Y010011D02*
X005170Y010011D01*
X005102Y010129D02*
X000560Y010129D01*
X000560Y010248D02*
X005056Y010248D01*
X005024Y010366D02*
X000560Y010366D01*
X000560Y010485D02*
X005000Y010485D01*
X005000Y010603D02*
X000560Y010603D01*
X000560Y010722D02*
X005000Y010722D01*
X005026Y010840D02*
X000560Y010840D01*
X000560Y010959D02*
X005057Y010959D01*
X005105Y011077D02*
X000560Y011077D01*
X000560Y011196D02*
X005174Y011196D01*
X005258Y011314D02*
X000560Y011314D01*
X000560Y011433D02*
X005377Y011433D01*
X006823Y011433D02*
X009377Y011433D01*
X009258Y011314D02*
X006942Y011314D01*
X007026Y011196D02*
X009174Y011196D01*
X009105Y011077D02*
X007095Y011077D01*
X007143Y010959D02*
X009057Y010959D01*
X009026Y010840D02*
X007174Y010840D01*
X007200Y010722D02*
X009000Y010722D01*
X009000Y010603D02*
X007200Y010603D01*
X007200Y010485D02*
X009000Y010485D01*
X009024Y010366D02*
X007176Y010366D01*
X007144Y010248D02*
X009056Y010248D01*
X009102Y010129D02*
X007098Y010129D01*
X007030Y010011D02*
X009170Y010011D01*
X009252Y009892D02*
X006948Y009892D01*
X006829Y009774D02*
X009371Y009774D01*
X009537Y009655D02*
X006663Y009655D01*
X006381Y009537D02*
X009819Y009537D01*
X010381Y009537D02*
X015640Y009537D01*
X015640Y009655D02*
X010663Y009655D01*
X010829Y009774D02*
X015640Y009774D01*
X015640Y009892D02*
X010948Y009892D01*
X011030Y010011D02*
X015640Y010011D01*
X015640Y010129D02*
X011098Y010129D01*
X011144Y010248D02*
X015640Y010248D01*
X015640Y010366D02*
X011176Y010366D01*
X011200Y010485D02*
X015640Y010485D01*
X015640Y010603D02*
X011200Y010603D01*
X011200Y010722D02*
X015640Y010722D01*
X015640Y010840D02*
X011174Y010840D01*
X011143Y010959D02*
X015640Y010959D01*
X015640Y011077D02*
X011095Y011077D01*
X011026Y011196D02*
X015640Y011196D01*
X015640Y011314D02*
X010942Y011314D01*
X010823Y011433D02*
X015640Y011433D01*
X011670Y008589D02*
X009003Y008589D01*
X009201Y008470D02*
X011606Y008470D01*
X011606Y007878D02*
X010320Y007878D01*
X010320Y007759D02*
X011625Y007759D01*
X012575Y007759D02*
X012630Y007759D01*
X012748Y007641D02*
X010320Y007641D01*
X011122Y006811D02*
X011606Y006811D01*
X011606Y006693D02*
X011004Y006693D01*
X008932Y007404D02*
X008768Y007404D01*
X008825Y007285D02*
X008875Y007285D01*
X008470Y007759D02*
X008230Y007759D01*
X008310Y007878D02*
X008390Y007878D01*
X008353Y008233D02*
X008347Y008233D01*
X008298Y008352D02*
X008402Y008352D01*
X008499Y008470D02*
X008201Y008470D01*
X008003Y008589D02*
X008697Y008589D01*
X007697Y008589D02*
X007059Y008589D01*
X006890Y008589D02*
X006810Y008589D01*
X006810Y008470D02*
X006890Y008470D01*
X006890Y008352D02*
X006810Y008352D01*
X006810Y008233D02*
X006890Y008233D01*
X006890Y007996D02*
X006810Y007996D01*
X006810Y007878D02*
X006890Y007878D01*
X006890Y007759D02*
X006810Y007759D01*
X006810Y007641D02*
X006890Y007641D01*
X006824Y007167D02*
X001531Y007167D01*
X001838Y007048D02*
X006822Y007048D01*
X006848Y006930D02*
X002012Y006930D01*
X002130Y006811D02*
X006905Y006811D01*
X007009Y006693D02*
X002216Y006693D01*
X007230Y008470D02*
X007499Y008470D01*
X007402Y008352D02*
X007317Y008352D01*
X015438Y007048D02*
X015640Y007048D01*
X015640Y006930D02*
X015612Y006930D01*
D20*
X011400Y004100D03*
X006600Y004600D03*
M02*
