%
M48
M72
T04C0.0380
T09C0.1250
T11C0.0350
T12C0.0280
%
T04
X7350Y7100
X8350Y7100
X9350Y7100
X8850Y8100
X7850Y8100
X6850Y8100
T09
X6100Y10600
X10100Y10600
X14900Y6100
X1300Y6100
T11
X4500Y3900
X5250Y4400
X4500Y4900
X8200Y2100
X8200Y1100
T12
X11400Y4100
X8600Y5600
X8100Y5600
X7600Y5600
X6600Y4600
M30
