G75*
%MOIN*%
%OFA0B0*%
%FSLAX25Y25*%
%IPPOS*%
%LPD*%
%AMOC8*
5,1,8,0,0,1.08239X$1,22.5*
%
%ADD10C,0.08200*%
%ADD11C,0.13800*%
%ADD12R,0.08200X0.08200*%
%ADD13C,0.08200*%
%ADD14R,0.05524X0.06312*%
%ADD15R,0.07099X0.07887*%
%ADD16R,0.07887X0.07099*%
%ADD17C,0.06600*%
D10*
X0011800Y0011800D02*
X0011800Y0019200D01*
X0021800Y0019200D02*
X0021800Y0011800D01*
X0031800Y0011800D02*
X0031800Y0019200D01*
X0041800Y0019200D02*
X0041800Y0011800D01*
X0051800Y0011800D02*
X0051800Y0019200D01*
X0071800Y0019200D02*
X0071800Y0011800D01*
X0081800Y0011800D02*
X0081800Y0019200D01*
X0091800Y0019200D02*
X0091800Y0011800D01*
X0101800Y0011800D02*
X0101800Y0019200D01*
D11*
X0121800Y0088000D03*
X0026800Y0088000D03*
D12*
X0121800Y0015500D03*
D13*
X0131800Y0015500D03*
D14*
X0132706Y0033000D03*
X0120894Y0033000D03*
X0090206Y0033000D03*
X0078394Y0033000D03*
X0052706Y0033000D03*
X0040894Y0033000D03*
X0022706Y0033000D03*
X0010894Y0033000D03*
D15*
X0011288Y0045500D03*
X0022312Y0045500D03*
X0041288Y0045500D03*
X0052312Y0045500D03*
X0078788Y0045500D03*
X0089812Y0045500D03*
X0121288Y0045500D03*
X0132312Y0045500D03*
D16*
X0144300Y0046012D03*
X0144300Y0034988D03*
X0144300Y0026012D03*
X0144300Y0014988D03*
D17*
X0141800Y0058000D03*
X0131800Y0058000D03*
X0121800Y0058000D03*
X0111800Y0058000D03*
X0101800Y0058000D03*
X0091800Y0058000D03*
X0081800Y0058000D03*
X0071800Y0058000D03*
X0061800Y0058000D03*
X0051800Y0058000D03*
X0041800Y0058000D03*
X0031800Y0058000D03*
X0021800Y0058000D03*
X0011800Y0058000D03*
X0011800Y0118000D03*
X0021800Y0118000D03*
X0031800Y0118000D03*
X0041800Y0118000D03*
X0051800Y0118000D03*
X0061800Y0118000D03*
X0071800Y0118000D03*
X0081800Y0118000D03*
X0091800Y0118000D03*
X0101800Y0118000D03*
X0111800Y0118000D03*
X0121800Y0118000D03*
X0131800Y0118000D03*
X0141800Y0118000D03*
X0141800Y0108000D03*
X0141800Y0098000D03*
X0141800Y0088000D03*
X0141800Y0078000D03*
X0141800Y0068000D03*
M02*
