G75*
%MOIN*%
%OFA0B0*%
%FSLAX25Y25*%
%IPPOS*%
%LPD*%
%AMOC8*
5,1,8,0,0,1.08239X$1,22.5*
%
%ADD10C,0.00600*%
%ADD11C,0.00100*%
D10*
X0109438Y0014319D02*
X0109438Y0016681D01*
X0114162Y0016681D02*
X0114162Y0014319D01*
X0077981Y0105638D02*
X0075619Y0105638D01*
X0075619Y0110362D02*
X0077981Y0110362D01*
D11*
X0107000Y0015603D02*
X0108501Y0015603D01*
X0108501Y0016354D01*
X0108251Y0016604D01*
X0107751Y0016604D01*
X0107500Y0016354D01*
X0107500Y0015603D01*
X0107500Y0016104D02*
X0107000Y0016604D01*
X0107250Y0017077D02*
X0107500Y0017077D01*
X0107751Y0017327D01*
X0107751Y0017827D01*
X0107500Y0018078D01*
X0107250Y0018078D01*
X0107000Y0017827D01*
X0107000Y0017327D01*
X0107250Y0017077D01*
X0107751Y0017327D02*
X0108001Y0017077D01*
X0108251Y0017077D01*
X0108501Y0017327D01*
X0108501Y0017827D01*
X0108251Y0018078D01*
X0108001Y0018078D01*
X0107751Y0017827D01*
X0115750Y0018077D02*
X0117251Y0018077D01*
X0117001Y0017604D02*
X0117251Y0017354D01*
X0117251Y0016854D01*
X0117001Y0016603D01*
X0116000Y0016603D01*
X0117001Y0017604D01*
X0116000Y0017604D01*
X0115750Y0017354D01*
X0115750Y0016854D01*
X0116000Y0016603D01*
X0115750Y0016131D02*
X0115750Y0015130D01*
X0115750Y0015631D02*
X0117251Y0015631D01*
X0116751Y0015130D01*
X0116250Y0018077D02*
X0117251Y0019078D01*
X0116501Y0018327D02*
X0115750Y0019078D01*
X0080750Y0102550D02*
X0079749Y0102550D01*
X0080250Y0102550D02*
X0080250Y0104051D01*
X0080750Y0103551D01*
X0079277Y0103801D02*
X0079027Y0104051D01*
X0078526Y0104051D01*
X0078276Y0103801D01*
X0079277Y0102800D01*
X0079027Y0102550D01*
X0078526Y0102550D01*
X0078276Y0102800D01*
X0078276Y0103801D01*
X0077803Y0104051D02*
X0077803Y0102550D01*
X0077803Y0103050D02*
X0076803Y0104051D01*
X0077553Y0103301D02*
X0076803Y0102550D01*
X0079277Y0102800D02*
X0079277Y0103801D01*
X0079750Y0111300D02*
X0079750Y0112801D01*
X0078999Y0112801D01*
X0078749Y0112551D01*
X0078749Y0112051D01*
X0078999Y0111800D01*
X0079750Y0111800D01*
X0079250Y0111800D02*
X0078749Y0111300D01*
X0078277Y0111300D02*
X0078277Y0111550D01*
X0077276Y0112551D01*
X0077276Y0112801D01*
X0078277Y0112801D01*
M02*
