G75*
%MOIN*%
%OFA0B0*%
%FSLAX25Y25*%
%IPPOS*%
%LPD*%
%AMOC8*
5,1,8,0,0,1.08239X$1,22.5*
%
%ADD10C,0.00000*%
%ADD11C,0.07400*%
%ADD12R,0.07400X0.07400*%
%ADD13C,0.07400*%
%ADD14R,0.04724X0.05512*%
%ADD15R,0.06299X0.07087*%
%ADD16R,0.07087X0.06299*%
%ADD17C,0.05800*%
%ADD18C,0.01600*%
%ADD19C,0.02400*%
D10*
X0001800Y0003000D02*
X0001800Y0127961D01*
X0153001Y0127961D01*
X0153001Y0003000D01*
X0001800Y0003000D01*
X0020300Y0088000D02*
X0020302Y0088161D01*
X0020308Y0088321D01*
X0020318Y0088482D01*
X0020332Y0088642D01*
X0020350Y0088802D01*
X0020371Y0088961D01*
X0020397Y0089120D01*
X0020427Y0089278D01*
X0020460Y0089435D01*
X0020498Y0089592D01*
X0020539Y0089747D01*
X0020584Y0089901D01*
X0020633Y0090054D01*
X0020686Y0090206D01*
X0020742Y0090357D01*
X0020803Y0090506D01*
X0020866Y0090654D01*
X0020934Y0090800D01*
X0021005Y0090944D01*
X0021079Y0091086D01*
X0021157Y0091227D01*
X0021239Y0091365D01*
X0021324Y0091502D01*
X0021412Y0091636D01*
X0021504Y0091768D01*
X0021599Y0091898D01*
X0021697Y0092026D01*
X0021798Y0092151D01*
X0021902Y0092273D01*
X0022009Y0092393D01*
X0022119Y0092510D01*
X0022232Y0092625D01*
X0022348Y0092736D01*
X0022467Y0092845D01*
X0022588Y0092950D01*
X0022712Y0093053D01*
X0022838Y0093153D01*
X0022966Y0093249D01*
X0023097Y0093342D01*
X0023231Y0093432D01*
X0023366Y0093519D01*
X0023504Y0093602D01*
X0023643Y0093682D01*
X0023785Y0093758D01*
X0023928Y0093831D01*
X0024073Y0093900D01*
X0024220Y0093966D01*
X0024368Y0094028D01*
X0024518Y0094086D01*
X0024669Y0094141D01*
X0024822Y0094192D01*
X0024976Y0094239D01*
X0025131Y0094282D01*
X0025287Y0094321D01*
X0025443Y0094357D01*
X0025601Y0094388D01*
X0025759Y0094416D01*
X0025918Y0094440D01*
X0026078Y0094460D01*
X0026238Y0094476D01*
X0026398Y0094488D01*
X0026559Y0094496D01*
X0026720Y0094500D01*
X0026880Y0094500D01*
X0027041Y0094496D01*
X0027202Y0094488D01*
X0027362Y0094476D01*
X0027522Y0094460D01*
X0027682Y0094440D01*
X0027841Y0094416D01*
X0027999Y0094388D01*
X0028157Y0094357D01*
X0028313Y0094321D01*
X0028469Y0094282D01*
X0028624Y0094239D01*
X0028778Y0094192D01*
X0028931Y0094141D01*
X0029082Y0094086D01*
X0029232Y0094028D01*
X0029380Y0093966D01*
X0029527Y0093900D01*
X0029672Y0093831D01*
X0029815Y0093758D01*
X0029957Y0093682D01*
X0030096Y0093602D01*
X0030234Y0093519D01*
X0030369Y0093432D01*
X0030503Y0093342D01*
X0030634Y0093249D01*
X0030762Y0093153D01*
X0030888Y0093053D01*
X0031012Y0092950D01*
X0031133Y0092845D01*
X0031252Y0092736D01*
X0031368Y0092625D01*
X0031481Y0092510D01*
X0031591Y0092393D01*
X0031698Y0092273D01*
X0031802Y0092151D01*
X0031903Y0092026D01*
X0032001Y0091898D01*
X0032096Y0091768D01*
X0032188Y0091636D01*
X0032276Y0091502D01*
X0032361Y0091365D01*
X0032443Y0091227D01*
X0032521Y0091086D01*
X0032595Y0090944D01*
X0032666Y0090800D01*
X0032734Y0090654D01*
X0032797Y0090506D01*
X0032858Y0090357D01*
X0032914Y0090206D01*
X0032967Y0090054D01*
X0033016Y0089901D01*
X0033061Y0089747D01*
X0033102Y0089592D01*
X0033140Y0089435D01*
X0033173Y0089278D01*
X0033203Y0089120D01*
X0033229Y0088961D01*
X0033250Y0088802D01*
X0033268Y0088642D01*
X0033282Y0088482D01*
X0033292Y0088321D01*
X0033298Y0088161D01*
X0033300Y0088000D01*
X0033298Y0087839D01*
X0033292Y0087679D01*
X0033282Y0087518D01*
X0033268Y0087358D01*
X0033250Y0087198D01*
X0033229Y0087039D01*
X0033203Y0086880D01*
X0033173Y0086722D01*
X0033140Y0086565D01*
X0033102Y0086408D01*
X0033061Y0086253D01*
X0033016Y0086099D01*
X0032967Y0085946D01*
X0032914Y0085794D01*
X0032858Y0085643D01*
X0032797Y0085494D01*
X0032734Y0085346D01*
X0032666Y0085200D01*
X0032595Y0085056D01*
X0032521Y0084914D01*
X0032443Y0084773D01*
X0032361Y0084635D01*
X0032276Y0084498D01*
X0032188Y0084364D01*
X0032096Y0084232D01*
X0032001Y0084102D01*
X0031903Y0083974D01*
X0031802Y0083849D01*
X0031698Y0083727D01*
X0031591Y0083607D01*
X0031481Y0083490D01*
X0031368Y0083375D01*
X0031252Y0083264D01*
X0031133Y0083155D01*
X0031012Y0083050D01*
X0030888Y0082947D01*
X0030762Y0082847D01*
X0030634Y0082751D01*
X0030503Y0082658D01*
X0030369Y0082568D01*
X0030234Y0082481D01*
X0030096Y0082398D01*
X0029957Y0082318D01*
X0029815Y0082242D01*
X0029672Y0082169D01*
X0029527Y0082100D01*
X0029380Y0082034D01*
X0029232Y0081972D01*
X0029082Y0081914D01*
X0028931Y0081859D01*
X0028778Y0081808D01*
X0028624Y0081761D01*
X0028469Y0081718D01*
X0028313Y0081679D01*
X0028157Y0081643D01*
X0027999Y0081612D01*
X0027841Y0081584D01*
X0027682Y0081560D01*
X0027522Y0081540D01*
X0027362Y0081524D01*
X0027202Y0081512D01*
X0027041Y0081504D01*
X0026880Y0081500D01*
X0026720Y0081500D01*
X0026559Y0081504D01*
X0026398Y0081512D01*
X0026238Y0081524D01*
X0026078Y0081540D01*
X0025918Y0081560D01*
X0025759Y0081584D01*
X0025601Y0081612D01*
X0025443Y0081643D01*
X0025287Y0081679D01*
X0025131Y0081718D01*
X0024976Y0081761D01*
X0024822Y0081808D01*
X0024669Y0081859D01*
X0024518Y0081914D01*
X0024368Y0081972D01*
X0024220Y0082034D01*
X0024073Y0082100D01*
X0023928Y0082169D01*
X0023785Y0082242D01*
X0023643Y0082318D01*
X0023504Y0082398D01*
X0023366Y0082481D01*
X0023231Y0082568D01*
X0023097Y0082658D01*
X0022966Y0082751D01*
X0022838Y0082847D01*
X0022712Y0082947D01*
X0022588Y0083050D01*
X0022467Y0083155D01*
X0022348Y0083264D01*
X0022232Y0083375D01*
X0022119Y0083490D01*
X0022009Y0083607D01*
X0021902Y0083727D01*
X0021798Y0083849D01*
X0021697Y0083974D01*
X0021599Y0084102D01*
X0021504Y0084232D01*
X0021412Y0084364D01*
X0021324Y0084498D01*
X0021239Y0084635D01*
X0021157Y0084773D01*
X0021079Y0084914D01*
X0021005Y0085056D01*
X0020934Y0085200D01*
X0020866Y0085346D01*
X0020803Y0085494D01*
X0020742Y0085643D01*
X0020686Y0085794D01*
X0020633Y0085946D01*
X0020584Y0086099D01*
X0020539Y0086253D01*
X0020498Y0086408D01*
X0020460Y0086565D01*
X0020427Y0086722D01*
X0020397Y0086880D01*
X0020371Y0087039D01*
X0020350Y0087198D01*
X0020332Y0087358D01*
X0020318Y0087518D01*
X0020308Y0087679D01*
X0020302Y0087839D01*
X0020300Y0088000D01*
X0115300Y0088000D02*
X0115302Y0088161D01*
X0115308Y0088321D01*
X0115318Y0088482D01*
X0115332Y0088642D01*
X0115350Y0088802D01*
X0115371Y0088961D01*
X0115397Y0089120D01*
X0115427Y0089278D01*
X0115460Y0089435D01*
X0115498Y0089592D01*
X0115539Y0089747D01*
X0115584Y0089901D01*
X0115633Y0090054D01*
X0115686Y0090206D01*
X0115742Y0090357D01*
X0115803Y0090506D01*
X0115866Y0090654D01*
X0115934Y0090800D01*
X0116005Y0090944D01*
X0116079Y0091086D01*
X0116157Y0091227D01*
X0116239Y0091365D01*
X0116324Y0091502D01*
X0116412Y0091636D01*
X0116504Y0091768D01*
X0116599Y0091898D01*
X0116697Y0092026D01*
X0116798Y0092151D01*
X0116902Y0092273D01*
X0117009Y0092393D01*
X0117119Y0092510D01*
X0117232Y0092625D01*
X0117348Y0092736D01*
X0117467Y0092845D01*
X0117588Y0092950D01*
X0117712Y0093053D01*
X0117838Y0093153D01*
X0117966Y0093249D01*
X0118097Y0093342D01*
X0118231Y0093432D01*
X0118366Y0093519D01*
X0118504Y0093602D01*
X0118643Y0093682D01*
X0118785Y0093758D01*
X0118928Y0093831D01*
X0119073Y0093900D01*
X0119220Y0093966D01*
X0119368Y0094028D01*
X0119518Y0094086D01*
X0119669Y0094141D01*
X0119822Y0094192D01*
X0119976Y0094239D01*
X0120131Y0094282D01*
X0120287Y0094321D01*
X0120443Y0094357D01*
X0120601Y0094388D01*
X0120759Y0094416D01*
X0120918Y0094440D01*
X0121078Y0094460D01*
X0121238Y0094476D01*
X0121398Y0094488D01*
X0121559Y0094496D01*
X0121720Y0094500D01*
X0121880Y0094500D01*
X0122041Y0094496D01*
X0122202Y0094488D01*
X0122362Y0094476D01*
X0122522Y0094460D01*
X0122682Y0094440D01*
X0122841Y0094416D01*
X0122999Y0094388D01*
X0123157Y0094357D01*
X0123313Y0094321D01*
X0123469Y0094282D01*
X0123624Y0094239D01*
X0123778Y0094192D01*
X0123931Y0094141D01*
X0124082Y0094086D01*
X0124232Y0094028D01*
X0124380Y0093966D01*
X0124527Y0093900D01*
X0124672Y0093831D01*
X0124815Y0093758D01*
X0124957Y0093682D01*
X0125096Y0093602D01*
X0125234Y0093519D01*
X0125369Y0093432D01*
X0125503Y0093342D01*
X0125634Y0093249D01*
X0125762Y0093153D01*
X0125888Y0093053D01*
X0126012Y0092950D01*
X0126133Y0092845D01*
X0126252Y0092736D01*
X0126368Y0092625D01*
X0126481Y0092510D01*
X0126591Y0092393D01*
X0126698Y0092273D01*
X0126802Y0092151D01*
X0126903Y0092026D01*
X0127001Y0091898D01*
X0127096Y0091768D01*
X0127188Y0091636D01*
X0127276Y0091502D01*
X0127361Y0091365D01*
X0127443Y0091227D01*
X0127521Y0091086D01*
X0127595Y0090944D01*
X0127666Y0090800D01*
X0127734Y0090654D01*
X0127797Y0090506D01*
X0127858Y0090357D01*
X0127914Y0090206D01*
X0127967Y0090054D01*
X0128016Y0089901D01*
X0128061Y0089747D01*
X0128102Y0089592D01*
X0128140Y0089435D01*
X0128173Y0089278D01*
X0128203Y0089120D01*
X0128229Y0088961D01*
X0128250Y0088802D01*
X0128268Y0088642D01*
X0128282Y0088482D01*
X0128292Y0088321D01*
X0128298Y0088161D01*
X0128300Y0088000D01*
X0128298Y0087839D01*
X0128292Y0087679D01*
X0128282Y0087518D01*
X0128268Y0087358D01*
X0128250Y0087198D01*
X0128229Y0087039D01*
X0128203Y0086880D01*
X0128173Y0086722D01*
X0128140Y0086565D01*
X0128102Y0086408D01*
X0128061Y0086253D01*
X0128016Y0086099D01*
X0127967Y0085946D01*
X0127914Y0085794D01*
X0127858Y0085643D01*
X0127797Y0085494D01*
X0127734Y0085346D01*
X0127666Y0085200D01*
X0127595Y0085056D01*
X0127521Y0084914D01*
X0127443Y0084773D01*
X0127361Y0084635D01*
X0127276Y0084498D01*
X0127188Y0084364D01*
X0127096Y0084232D01*
X0127001Y0084102D01*
X0126903Y0083974D01*
X0126802Y0083849D01*
X0126698Y0083727D01*
X0126591Y0083607D01*
X0126481Y0083490D01*
X0126368Y0083375D01*
X0126252Y0083264D01*
X0126133Y0083155D01*
X0126012Y0083050D01*
X0125888Y0082947D01*
X0125762Y0082847D01*
X0125634Y0082751D01*
X0125503Y0082658D01*
X0125369Y0082568D01*
X0125234Y0082481D01*
X0125096Y0082398D01*
X0124957Y0082318D01*
X0124815Y0082242D01*
X0124672Y0082169D01*
X0124527Y0082100D01*
X0124380Y0082034D01*
X0124232Y0081972D01*
X0124082Y0081914D01*
X0123931Y0081859D01*
X0123778Y0081808D01*
X0123624Y0081761D01*
X0123469Y0081718D01*
X0123313Y0081679D01*
X0123157Y0081643D01*
X0122999Y0081612D01*
X0122841Y0081584D01*
X0122682Y0081560D01*
X0122522Y0081540D01*
X0122362Y0081524D01*
X0122202Y0081512D01*
X0122041Y0081504D01*
X0121880Y0081500D01*
X0121720Y0081500D01*
X0121559Y0081504D01*
X0121398Y0081512D01*
X0121238Y0081524D01*
X0121078Y0081540D01*
X0120918Y0081560D01*
X0120759Y0081584D01*
X0120601Y0081612D01*
X0120443Y0081643D01*
X0120287Y0081679D01*
X0120131Y0081718D01*
X0119976Y0081761D01*
X0119822Y0081808D01*
X0119669Y0081859D01*
X0119518Y0081914D01*
X0119368Y0081972D01*
X0119220Y0082034D01*
X0119073Y0082100D01*
X0118928Y0082169D01*
X0118785Y0082242D01*
X0118643Y0082318D01*
X0118504Y0082398D01*
X0118366Y0082481D01*
X0118231Y0082568D01*
X0118097Y0082658D01*
X0117966Y0082751D01*
X0117838Y0082847D01*
X0117712Y0082947D01*
X0117588Y0083050D01*
X0117467Y0083155D01*
X0117348Y0083264D01*
X0117232Y0083375D01*
X0117119Y0083490D01*
X0117009Y0083607D01*
X0116902Y0083727D01*
X0116798Y0083849D01*
X0116697Y0083974D01*
X0116599Y0084102D01*
X0116504Y0084232D01*
X0116412Y0084364D01*
X0116324Y0084498D01*
X0116239Y0084635D01*
X0116157Y0084773D01*
X0116079Y0084914D01*
X0116005Y0085056D01*
X0115934Y0085200D01*
X0115866Y0085346D01*
X0115803Y0085494D01*
X0115742Y0085643D01*
X0115686Y0085794D01*
X0115633Y0085946D01*
X0115584Y0086099D01*
X0115539Y0086253D01*
X0115498Y0086408D01*
X0115460Y0086565D01*
X0115427Y0086722D01*
X0115397Y0086880D01*
X0115371Y0087039D01*
X0115350Y0087198D01*
X0115332Y0087358D01*
X0115318Y0087518D01*
X0115308Y0087679D01*
X0115302Y0087839D01*
X0115300Y0088000D01*
D11*
X0101800Y0019200D02*
X0101800Y0011800D01*
X0091800Y0011800D02*
X0091800Y0019200D01*
X0081800Y0019200D02*
X0081800Y0011800D01*
X0071800Y0011800D02*
X0071800Y0019200D01*
X0051800Y0019200D02*
X0051800Y0011800D01*
X0041800Y0011800D02*
X0041800Y0019200D01*
X0031800Y0019200D02*
X0031800Y0011800D01*
X0021800Y0011800D02*
X0021800Y0019200D01*
X0011800Y0019200D02*
X0011800Y0011800D01*
D12*
X0121800Y0015500D03*
D13*
X0131800Y0015500D03*
D14*
X0132706Y0033000D03*
X0120894Y0033000D03*
X0090206Y0033000D03*
X0078394Y0033000D03*
X0052706Y0033000D03*
X0040894Y0033000D03*
X0022706Y0033000D03*
X0010894Y0033000D03*
D15*
X0011288Y0045500D03*
X0022312Y0045500D03*
X0041288Y0045500D03*
X0052312Y0045500D03*
X0078788Y0045500D03*
X0089812Y0045500D03*
X0121288Y0045500D03*
X0132312Y0045500D03*
D16*
X0144300Y0046012D03*
X0144300Y0034988D03*
X0144300Y0026012D03*
X0144300Y0014988D03*
D17*
X0141800Y0058000D03*
X0131800Y0058000D03*
X0121800Y0058000D03*
X0111800Y0058000D03*
X0101800Y0058000D03*
X0091800Y0058000D03*
X0081800Y0058000D03*
X0071800Y0058000D03*
X0061800Y0058000D03*
X0051800Y0058000D03*
X0041800Y0058000D03*
X0031800Y0058000D03*
X0021800Y0058000D03*
X0011800Y0058000D03*
X0011800Y0118000D03*
X0021800Y0118000D03*
X0031800Y0118000D03*
X0041800Y0118000D03*
X0051800Y0118000D03*
X0061800Y0118000D03*
X0071800Y0118000D03*
X0081800Y0118000D03*
X0091800Y0118000D03*
X0101800Y0118000D03*
X0111800Y0118000D03*
X0121800Y0118000D03*
X0131800Y0118000D03*
X0141800Y0118000D03*
X0141800Y0108000D03*
X0141800Y0098000D03*
X0141800Y0088000D03*
X0141800Y0078000D03*
X0141800Y0068000D03*
D18*
X0145687Y0070137D02*
X0151217Y0070137D01*
X0151217Y0071736D02*
X0144299Y0071736D01*
X0144297Y0071737D02*
X0142677Y0072409D01*
X0140923Y0072409D01*
X0139303Y0071737D01*
X0138063Y0070497D01*
X0137391Y0068877D01*
X0137391Y0067123D01*
X0138063Y0065503D01*
X0139303Y0064263D01*
X0140923Y0063591D01*
X0142677Y0063591D01*
X0144297Y0064263D01*
X0145537Y0065503D01*
X0146209Y0067123D01*
X0146209Y0068877D01*
X0145537Y0070497D01*
X0144297Y0071737D01*
X0142677Y0073591D02*
X0144297Y0074263D01*
X0145537Y0075503D01*
X0146209Y0077123D01*
X0146209Y0078877D01*
X0145537Y0080497D01*
X0144297Y0081737D01*
X0142677Y0082409D01*
X0140923Y0082409D01*
X0139303Y0081737D01*
X0138063Y0080497D01*
X0137391Y0078877D01*
X0137391Y0077123D01*
X0138063Y0075503D01*
X0139303Y0074263D01*
X0140923Y0073591D01*
X0142677Y0073591D01*
X0144968Y0074933D02*
X0151217Y0074933D01*
X0151217Y0073334D02*
X0102796Y0073334D01*
X0103334Y0072796D02*
X0104096Y0072034D01*
X0104509Y0071039D01*
X0104509Y0061526D01*
X0105537Y0060497D01*
X0106209Y0058877D01*
X0106209Y0057123D01*
X0105537Y0055503D01*
X0104297Y0054263D01*
X0102677Y0053591D01*
X0100923Y0053591D01*
X0099414Y0054216D01*
X0117137Y0036494D01*
X0117907Y0037265D01*
X0123882Y0037265D01*
X0124765Y0036381D01*
X0124765Y0029619D01*
X0123882Y0028735D01*
X0117907Y0028735D01*
X0117024Y0029619D01*
X0117024Y0030291D01*
X0116261Y0030291D01*
X0115266Y0030704D01*
X0114504Y0031466D01*
X0092378Y0053591D01*
X0090923Y0053591D01*
X0089303Y0054263D01*
X0088063Y0055503D01*
X0087391Y0057123D01*
X0087391Y0058877D01*
X0088063Y0060497D01*
X0089303Y0061737D01*
X0090923Y0062409D01*
X0092677Y0062409D01*
X0094297Y0061737D01*
X0095537Y0060497D01*
X0096209Y0058877D01*
X0096209Y0057422D01*
X0098016Y0055614D01*
X0097391Y0057123D01*
X0097391Y0058877D01*
X0098063Y0060497D01*
X0099091Y0061526D01*
X0099091Y0069378D01*
X0098178Y0070291D01*
X0030422Y0070291D01*
X0029509Y0069378D01*
X0029509Y0061823D01*
X0030923Y0062409D01*
X0032677Y0062409D01*
X0034297Y0061737D01*
X0035537Y0060497D01*
X0036209Y0058877D01*
X0036209Y0057123D01*
X0035537Y0055503D01*
X0034297Y0054263D01*
X0032677Y0053591D01*
X0030923Y0053591D01*
X0029509Y0054177D01*
X0029509Y0054122D01*
X0034096Y0049534D01*
X0034509Y0048539D01*
X0034509Y0034961D01*
X0034096Y0033966D01*
X0033334Y0033204D01*
X0030834Y0030704D01*
X0029839Y0030291D01*
X0026576Y0030291D01*
X0026576Y0029619D01*
X0025693Y0028735D01*
X0019718Y0028735D01*
X0018835Y0029619D01*
X0018835Y0036381D01*
X0019718Y0037265D01*
X0025693Y0037265D01*
X0026576Y0036381D01*
X0026576Y0035709D01*
X0028178Y0035709D01*
X0029091Y0036622D01*
X0029091Y0046878D01*
X0027261Y0048708D01*
X0027261Y0046275D01*
X0023087Y0046275D01*
X0023087Y0044725D01*
X0027261Y0044725D01*
X0027261Y0041720D01*
X0027139Y0041262D01*
X0026902Y0040851D01*
X0026567Y0040516D01*
X0026156Y0040279D01*
X0025698Y0040157D01*
X0023087Y0040157D01*
X0023087Y0044725D01*
X0021537Y0044725D01*
X0021537Y0040157D01*
X0018925Y0040157D01*
X0018467Y0040279D01*
X0018057Y0040516D01*
X0017722Y0040851D01*
X0017485Y0041262D01*
X0017362Y0041720D01*
X0017362Y0044725D01*
X0021537Y0044725D01*
X0021537Y0046275D01*
X0021537Y0050843D01*
X0018925Y0050843D01*
X0018467Y0050721D01*
X0018057Y0050484D01*
X0017722Y0050149D01*
X0017485Y0049738D01*
X0017362Y0049280D01*
X0017362Y0046275D01*
X0021537Y0046275D01*
X0023087Y0046275D01*
X0023087Y0050843D01*
X0025126Y0050843D01*
X0024504Y0051466D01*
X0024091Y0052461D01*
X0024091Y0054177D01*
X0022677Y0053591D01*
X0020923Y0053591D01*
X0019303Y0054263D01*
X0018063Y0055503D01*
X0017391Y0057123D01*
X0017391Y0058877D01*
X0018063Y0060497D01*
X0019303Y0061737D01*
X0020923Y0062409D01*
X0022677Y0062409D01*
X0024091Y0061823D01*
X0024091Y0071039D01*
X0024504Y0072034D01*
X0027004Y0074534D01*
X0027766Y0075296D01*
X0028761Y0075709D01*
X0099839Y0075709D01*
X0100834Y0075296D01*
X0103334Y0072796D01*
X0104220Y0071736D02*
X0139301Y0071736D01*
X0137913Y0070137D02*
X0104509Y0070137D01*
X0104509Y0068539D02*
X0137391Y0068539D01*
X0137467Y0066940D02*
X0104509Y0066940D01*
X0104509Y0065342D02*
X0138223Y0065342D01*
X0140556Y0063743D02*
X0104509Y0063743D01*
X0104509Y0062145D02*
X0110286Y0062145D01*
X0110923Y0062409D02*
X0109303Y0061737D01*
X0108063Y0060497D01*
X0107391Y0058877D01*
X0107391Y0057123D01*
X0108063Y0055503D01*
X0109303Y0054263D01*
X0110923Y0053591D01*
X0112677Y0053591D01*
X0114297Y0054263D01*
X0115537Y0055503D01*
X0116209Y0057123D01*
X0116209Y0058877D01*
X0115537Y0060497D01*
X0114297Y0061737D01*
X0112677Y0062409D01*
X0110923Y0062409D01*
X0113314Y0062145D02*
X0120286Y0062145D01*
X0120923Y0062409D02*
X0119303Y0061737D01*
X0118063Y0060497D01*
X0117391Y0058877D01*
X0117391Y0057123D01*
X0118063Y0055503D01*
X0119303Y0054263D01*
X0120923Y0053591D01*
X0122677Y0053591D01*
X0124297Y0054263D01*
X0125537Y0055503D01*
X0126209Y0057123D01*
X0126209Y0058877D01*
X0125537Y0060497D01*
X0124297Y0061737D01*
X0122677Y0062409D01*
X0120923Y0062409D01*
X0123314Y0062145D02*
X0130286Y0062145D01*
X0130923Y0062409D02*
X0129303Y0061737D01*
X0128063Y0060497D01*
X0127391Y0058877D01*
X0127391Y0057123D01*
X0128063Y0055503D01*
X0129303Y0054263D01*
X0130923Y0053591D01*
X0132677Y0053591D01*
X0134297Y0054263D01*
X0135537Y0055503D01*
X0136209Y0057123D01*
X0136209Y0058877D01*
X0135537Y0060497D01*
X0134297Y0061737D01*
X0132677Y0062409D01*
X0130923Y0062409D01*
X0133314Y0062145D02*
X0140286Y0062145D01*
X0140923Y0062409D02*
X0139303Y0061737D01*
X0138063Y0060497D01*
X0137391Y0058877D01*
X0137391Y0057123D01*
X0138063Y0055503D01*
X0139303Y0054263D01*
X0140923Y0053591D01*
X0142677Y0053591D01*
X0144297Y0054263D01*
X0145537Y0055503D01*
X0146209Y0057123D01*
X0146209Y0058877D01*
X0145537Y0060497D01*
X0144297Y0061737D01*
X0142677Y0062409D01*
X0140923Y0062409D01*
X0143044Y0063743D02*
X0151217Y0063743D01*
X0151217Y0065342D02*
X0145377Y0065342D01*
X0146133Y0066940D02*
X0151217Y0066940D01*
X0151217Y0068539D02*
X0146209Y0068539D01*
X0143314Y0062145D02*
X0151217Y0062145D01*
X0151217Y0060546D02*
X0145488Y0060546D01*
X0146179Y0058948D02*
X0151217Y0058948D01*
X0151217Y0057349D02*
X0146209Y0057349D01*
X0145640Y0055751D02*
X0151217Y0055751D01*
X0151217Y0054152D02*
X0144031Y0054152D01*
X0143525Y0050961D02*
X0140520Y0050961D01*
X0140062Y0050839D01*
X0139651Y0050602D01*
X0139316Y0050267D01*
X0139079Y0049856D01*
X0138957Y0049398D01*
X0138957Y0046787D01*
X0143525Y0046787D01*
X0143525Y0050961D01*
X0143525Y0050955D02*
X0145075Y0050955D01*
X0145075Y0050961D02*
X0145075Y0046787D01*
X0143525Y0046787D01*
X0143525Y0045237D01*
X0138957Y0045237D01*
X0138957Y0042625D01*
X0139079Y0042167D01*
X0139316Y0041757D01*
X0139651Y0041422D01*
X0140062Y0041185D01*
X0140520Y0041062D01*
X0143525Y0041062D01*
X0143525Y0045237D01*
X0145075Y0045237D01*
X0145075Y0046787D01*
X0149643Y0046787D01*
X0149643Y0049398D01*
X0149521Y0049856D01*
X0149284Y0050267D01*
X0148949Y0050602D01*
X0148538Y0050839D01*
X0148080Y0050961D01*
X0145075Y0050961D01*
X0145075Y0049357D02*
X0143525Y0049357D01*
X0143525Y0047758D02*
X0145075Y0047758D01*
X0145075Y0046160D02*
X0151217Y0046160D01*
X0151217Y0047758D02*
X0149643Y0047758D01*
X0149643Y0049357D02*
X0151217Y0049357D01*
X0151217Y0050955D02*
X0148103Y0050955D01*
X0151217Y0052554D02*
X0101077Y0052554D01*
X0099569Y0054152D02*
X0099478Y0054152D01*
X0097960Y0055751D02*
X0097880Y0055751D01*
X0097391Y0057349D02*
X0096281Y0057349D01*
X0096179Y0058948D02*
X0097421Y0058948D01*
X0098112Y0060546D02*
X0095488Y0060546D01*
X0093314Y0062145D02*
X0099091Y0062145D01*
X0099091Y0063743D02*
X0084424Y0063743D01*
X0084509Y0063539D02*
X0084096Y0064534D01*
X0083334Y0065296D01*
X0080834Y0067796D01*
X0079839Y0068209D01*
X0068761Y0068209D01*
X0067766Y0067796D01*
X0067004Y0067034D01*
X0064504Y0064534D01*
X0064091Y0063539D01*
X0064091Y0061823D01*
X0062677Y0062409D01*
X0060923Y0062409D01*
X0059303Y0061737D01*
X0058063Y0060497D01*
X0057391Y0058877D01*
X0057391Y0057123D01*
X0058063Y0055503D01*
X0059303Y0054263D01*
X0060923Y0053591D01*
X0062677Y0053591D01*
X0064091Y0054177D01*
X0064091Y0036622D01*
X0063178Y0035709D01*
X0056576Y0035709D01*
X0056576Y0036381D01*
X0055693Y0037265D01*
X0049718Y0037265D01*
X0048835Y0036381D01*
X0048835Y0029619D01*
X0049718Y0028735D01*
X0055693Y0028735D01*
X0056576Y0029619D01*
X0056576Y0030291D01*
X0064839Y0030291D01*
X0065834Y0030704D01*
X0068334Y0033204D01*
X0069096Y0033966D01*
X0069300Y0034457D01*
X0069504Y0033966D01*
X0072004Y0031466D01*
X0072766Y0030704D01*
X0073761Y0030291D01*
X0074524Y0030291D01*
X0074524Y0029619D01*
X0075407Y0028735D01*
X0081382Y0028735D01*
X0082265Y0029619D01*
X0082265Y0036381D01*
X0081382Y0037265D01*
X0075407Y0037265D01*
X0074637Y0036494D01*
X0074509Y0036622D01*
X0074509Y0040541D01*
X0074533Y0040516D01*
X0074944Y0040279D01*
X0075402Y0040157D01*
X0078013Y0040157D01*
X0078013Y0044725D01*
X0079563Y0044725D01*
X0079563Y0040157D01*
X0082175Y0040157D01*
X0082633Y0040279D01*
X0083043Y0040516D01*
X0083378Y0040851D01*
X0083615Y0041262D01*
X0083738Y0041720D01*
X0083738Y0044725D01*
X0079563Y0044725D01*
X0079563Y0046275D01*
X0078013Y0046275D01*
X0078013Y0050843D01*
X0075402Y0050843D01*
X0074944Y0050721D01*
X0074533Y0050484D01*
X0074509Y0050459D01*
X0074509Y0054474D01*
X0075537Y0055503D01*
X0076209Y0057123D01*
X0076209Y0058877D01*
X0075537Y0060497D01*
X0074297Y0061737D01*
X0072677Y0062409D01*
X0070923Y0062409D01*
X0069509Y0061823D01*
X0069509Y0061878D01*
X0070422Y0062791D01*
X0078178Y0062791D01*
X0079091Y0061878D01*
X0079091Y0061526D01*
X0078063Y0060497D01*
X0077391Y0058877D01*
X0077391Y0057123D01*
X0078063Y0055503D01*
X0079303Y0054263D01*
X0080923Y0053591D01*
X0082677Y0053591D01*
X0084297Y0054263D01*
X0085537Y0055503D01*
X0086209Y0057123D01*
X0086209Y0058877D01*
X0085537Y0060497D01*
X0084509Y0061526D01*
X0084509Y0063539D01*
X0084509Y0062145D02*
X0090286Y0062145D01*
X0088112Y0060546D02*
X0085488Y0060546D01*
X0086179Y0058948D02*
X0087421Y0058948D01*
X0087391Y0057349D02*
X0086209Y0057349D01*
X0085640Y0055751D02*
X0087960Y0055751D01*
X0089569Y0054152D02*
X0084031Y0054152D01*
X0082633Y0050721D02*
X0082175Y0050843D01*
X0079563Y0050843D01*
X0079563Y0046275D01*
X0083738Y0046275D01*
X0083738Y0049280D01*
X0083615Y0049738D01*
X0083378Y0050149D01*
X0083043Y0050484D01*
X0082633Y0050721D01*
X0083717Y0049357D02*
X0085154Y0049357D01*
X0085154Y0049668D02*
X0085154Y0041332D01*
X0086037Y0040448D01*
X0087103Y0040448D01*
X0087103Y0037149D01*
X0086335Y0036381D01*
X0086335Y0029619D01*
X0087218Y0028735D01*
X0093193Y0028735D01*
X0094076Y0029619D01*
X0094076Y0036381D01*
X0093193Y0037265D01*
X0092520Y0037265D01*
X0092520Y0040448D01*
X0093586Y0040448D01*
X0094470Y0041332D01*
X0094470Y0049668D01*
X0093586Y0050552D01*
X0086037Y0050552D01*
X0085154Y0049668D01*
X0085154Y0047758D02*
X0083738Y0047758D01*
X0085154Y0046160D02*
X0079563Y0046160D01*
X0079563Y0047758D02*
X0078013Y0047758D01*
X0078013Y0049357D02*
X0079563Y0049357D01*
X0079569Y0054152D02*
X0074509Y0054152D01*
X0074509Y0052554D02*
X0093416Y0052554D01*
X0095014Y0050955D02*
X0074509Y0050955D01*
X0075640Y0055751D02*
X0077960Y0055751D01*
X0077391Y0057349D02*
X0076209Y0057349D01*
X0076179Y0058948D02*
X0077421Y0058948D01*
X0078112Y0060546D02*
X0075488Y0060546D01*
X0073314Y0062145D02*
X0078824Y0062145D01*
X0083289Y0065342D02*
X0099091Y0065342D01*
X0099091Y0066940D02*
X0081690Y0066940D01*
X0070286Y0062145D02*
X0069776Y0062145D01*
X0065311Y0065342D02*
X0029509Y0065342D01*
X0029509Y0066940D02*
X0066910Y0066940D01*
X0064176Y0063743D02*
X0029509Y0063743D01*
X0029509Y0062145D02*
X0030286Y0062145D01*
X0033314Y0062145D02*
X0040286Y0062145D01*
X0040923Y0062409D02*
X0039303Y0061737D01*
X0038063Y0060497D01*
X0037391Y0058877D01*
X0037391Y0057123D01*
X0038063Y0055503D01*
X0039303Y0054263D01*
X0040923Y0053591D01*
X0042677Y0053591D01*
X0044297Y0054263D01*
X0045537Y0055503D01*
X0046209Y0057123D01*
X0046209Y0058877D01*
X0045537Y0060497D01*
X0044297Y0061737D01*
X0042677Y0062409D01*
X0040923Y0062409D01*
X0043314Y0062145D02*
X0050286Y0062145D01*
X0050923Y0062409D02*
X0049303Y0061737D01*
X0048063Y0060497D01*
X0047391Y0058877D01*
X0047391Y0057123D01*
X0048063Y0055503D01*
X0049303Y0054263D01*
X0050923Y0053591D01*
X0052677Y0053591D01*
X0054297Y0054263D01*
X0055537Y0055503D01*
X0056209Y0057123D01*
X0056209Y0058877D01*
X0055537Y0060497D01*
X0054297Y0061737D01*
X0052677Y0062409D01*
X0050923Y0062409D01*
X0053314Y0062145D02*
X0060286Y0062145D01*
X0058112Y0060546D02*
X0055488Y0060546D01*
X0056179Y0058948D02*
X0057421Y0058948D01*
X0057391Y0057349D02*
X0056209Y0057349D01*
X0055640Y0055751D02*
X0057960Y0055751D01*
X0059569Y0054152D02*
X0054031Y0054152D01*
X0053087Y0050843D02*
X0053087Y0046275D01*
X0057261Y0046275D01*
X0057261Y0049280D01*
X0057139Y0049738D01*
X0056902Y0050149D01*
X0056567Y0050484D01*
X0056156Y0050721D01*
X0055698Y0050843D01*
X0053087Y0050843D01*
X0053087Y0049357D02*
X0051537Y0049357D01*
X0051537Y0050843D02*
X0048925Y0050843D01*
X0048467Y0050721D01*
X0048057Y0050484D01*
X0047722Y0050149D01*
X0047485Y0049738D01*
X0047362Y0049280D01*
X0047362Y0046275D01*
X0051537Y0046275D01*
X0051537Y0050843D01*
X0049569Y0054152D02*
X0044031Y0054152D01*
X0045640Y0055751D02*
X0047960Y0055751D01*
X0047391Y0057349D02*
X0046209Y0057349D01*
X0046179Y0058948D02*
X0047421Y0058948D01*
X0048112Y0060546D02*
X0045488Y0060546D01*
X0038112Y0060546D02*
X0035488Y0060546D01*
X0036179Y0058948D02*
X0037421Y0058948D01*
X0037391Y0057349D02*
X0036209Y0057349D01*
X0035640Y0055751D02*
X0037960Y0055751D01*
X0039569Y0054152D02*
X0034031Y0054152D01*
X0031077Y0052554D02*
X0064091Y0052554D01*
X0064091Y0054152D02*
X0064031Y0054152D01*
X0064091Y0050955D02*
X0032675Y0050955D01*
X0034170Y0049357D02*
X0036630Y0049357D01*
X0036630Y0049668D02*
X0036630Y0041332D01*
X0037514Y0040448D01*
X0038580Y0040448D01*
X0038580Y0037265D01*
X0037907Y0037265D01*
X0037024Y0036381D01*
X0037024Y0029619D01*
X0037907Y0028735D01*
X0043882Y0028735D01*
X0044765Y0029619D01*
X0044765Y0036381D01*
X0043997Y0037149D01*
X0043997Y0040448D01*
X0045063Y0040448D01*
X0045946Y0041332D01*
X0045946Y0049668D01*
X0045063Y0050552D01*
X0037514Y0050552D01*
X0036630Y0049668D01*
X0036630Y0047758D02*
X0034509Y0047758D01*
X0034509Y0046160D02*
X0036630Y0046160D01*
X0036630Y0044561D02*
X0034509Y0044561D01*
X0034509Y0042963D02*
X0036630Y0042963D01*
X0036630Y0041364D02*
X0034509Y0041364D01*
X0034509Y0039766D02*
X0038580Y0039766D01*
X0038580Y0038167D02*
X0034509Y0038167D01*
X0034509Y0036569D02*
X0037212Y0036569D01*
X0037024Y0034970D02*
X0034509Y0034970D01*
X0033502Y0033372D02*
X0037024Y0033372D01*
X0037024Y0031773D02*
X0031904Y0031773D01*
X0037024Y0030175D02*
X0026576Y0030175D01*
X0026388Y0036569D02*
X0029038Y0036569D01*
X0029091Y0038167D02*
X0013997Y0038167D01*
X0013997Y0037149D02*
X0013997Y0040448D01*
X0015063Y0040448D01*
X0015946Y0041332D01*
X0015946Y0049668D01*
X0015063Y0050552D01*
X0007514Y0050552D01*
X0006630Y0049668D01*
X0006630Y0041332D01*
X0007514Y0040448D01*
X0008580Y0040448D01*
X0008580Y0037265D01*
X0007907Y0037265D01*
X0007024Y0036381D01*
X0007024Y0029619D01*
X0007907Y0028735D01*
X0013882Y0028735D01*
X0014765Y0029619D01*
X0014765Y0036381D01*
X0013997Y0037149D01*
X0014577Y0036569D02*
X0019023Y0036569D01*
X0018835Y0034970D02*
X0014765Y0034970D01*
X0014765Y0033372D02*
X0018835Y0033372D01*
X0018835Y0031773D02*
X0014765Y0031773D01*
X0014765Y0030175D02*
X0018835Y0030175D01*
X0020764Y0024409D02*
X0018850Y0023616D01*
X0017384Y0022150D01*
X0016800Y0020740D01*
X0016216Y0022150D01*
X0014750Y0023616D01*
X0012836Y0024409D01*
X0010764Y0024409D01*
X0008850Y0023616D01*
X0007384Y0022150D01*
X0006591Y0020236D01*
X0006591Y0010764D01*
X0007384Y0008850D01*
X0008850Y0007384D01*
X0010764Y0006591D01*
X0012836Y0006591D01*
X0014750Y0007384D01*
X0016216Y0008850D01*
X0016800Y0010260D01*
X0017384Y0008850D01*
X0018850Y0007384D01*
X0020764Y0006591D01*
X0022836Y0006591D01*
X0024750Y0007384D01*
X0026216Y0008850D01*
X0026800Y0010260D01*
X0027384Y0008850D01*
X0028850Y0007384D01*
X0030764Y0006591D01*
X0032836Y0006591D01*
X0034750Y0007384D01*
X0036216Y0008850D01*
X0036800Y0010260D01*
X0037384Y0008850D01*
X0038850Y0007384D01*
X0040764Y0006591D01*
X0042836Y0006591D01*
X0044750Y0007384D01*
X0046216Y0008850D01*
X0046642Y0009878D01*
X0046703Y0009689D01*
X0047096Y0008917D01*
X0047605Y0008217D01*
X0048217Y0007605D01*
X0048917Y0007096D01*
X0049689Y0006703D01*
X0050512Y0006435D01*
X0051367Y0006300D01*
X0051500Y0006300D01*
X0051500Y0015200D01*
X0052100Y0015200D01*
X0052100Y0015800D01*
X0057300Y0015800D01*
X0057300Y0019633D01*
X0057165Y0020488D01*
X0056897Y0021311D01*
X0056504Y0022083D01*
X0055995Y0022783D01*
X0055383Y0023395D01*
X0054683Y0023904D01*
X0053911Y0024297D01*
X0053088Y0024565D01*
X0052233Y0024700D01*
X0052100Y0024700D01*
X0052100Y0015800D01*
X0051500Y0015800D01*
X0051500Y0024700D01*
X0051367Y0024700D01*
X0050512Y0024565D01*
X0049689Y0024297D01*
X0048917Y0023904D01*
X0048217Y0023395D01*
X0047605Y0022783D01*
X0047096Y0022083D01*
X0046703Y0021311D01*
X0046642Y0021122D01*
X0046216Y0022150D01*
X0044750Y0023616D01*
X0042836Y0024409D01*
X0040764Y0024409D01*
X0038850Y0023616D01*
X0037384Y0022150D01*
X0036800Y0020740D01*
X0036216Y0022150D01*
X0034750Y0023616D01*
X0032836Y0024409D01*
X0030764Y0024409D01*
X0028850Y0023616D01*
X0027384Y0022150D01*
X0026800Y0020740D01*
X0026216Y0022150D01*
X0024750Y0023616D01*
X0022836Y0024409D01*
X0020764Y0024409D01*
X0019248Y0023781D02*
X0014352Y0023781D01*
X0016184Y0022182D02*
X0017416Y0022182D01*
X0024352Y0023781D02*
X0029248Y0023781D01*
X0027416Y0022182D02*
X0026184Y0022182D01*
X0034352Y0023781D02*
X0039248Y0023781D01*
X0037416Y0022182D02*
X0036184Y0022182D01*
X0044352Y0023781D02*
X0048748Y0023781D01*
X0047168Y0022182D02*
X0046184Y0022182D01*
X0051500Y0022182D02*
X0052100Y0022182D01*
X0052100Y0023781D02*
X0051500Y0023781D01*
X0054852Y0023781D02*
X0069248Y0023781D01*
X0068850Y0023616D02*
X0067384Y0022150D01*
X0066591Y0020236D01*
X0066591Y0010764D01*
X0067384Y0008850D01*
X0068850Y0007384D01*
X0070764Y0006591D01*
X0072836Y0006591D01*
X0074750Y0007384D01*
X0076216Y0008850D01*
X0076642Y0009878D01*
X0076703Y0009689D01*
X0077096Y0008917D01*
X0077605Y0008217D01*
X0078217Y0007605D01*
X0078917Y0007096D01*
X0079689Y0006703D01*
X0080512Y0006435D01*
X0081367Y0006300D01*
X0081500Y0006300D01*
X0081500Y0015200D01*
X0082100Y0015200D01*
X0082100Y0006300D01*
X0082233Y0006300D01*
X0083088Y0006435D01*
X0083911Y0006703D01*
X0084683Y0007096D01*
X0085383Y0007605D01*
X0085995Y0008217D01*
X0086504Y0008917D01*
X0086897Y0009689D01*
X0086958Y0009878D01*
X0087384Y0008850D01*
X0088850Y0007384D01*
X0090764Y0006591D01*
X0092836Y0006591D01*
X0094750Y0007384D01*
X0096216Y0008850D01*
X0096800Y0010260D01*
X0097384Y0008850D01*
X0098850Y0007384D01*
X0100764Y0006591D01*
X0102836Y0006591D01*
X0104750Y0007384D01*
X0106216Y0008850D01*
X0107009Y0010764D01*
X0107009Y0020236D01*
X0106216Y0022150D01*
X0104750Y0023616D01*
X0102836Y0024409D01*
X0100764Y0024409D01*
X0098850Y0023616D01*
X0097384Y0022150D01*
X0096800Y0020740D01*
X0096216Y0022150D01*
X0094750Y0023616D01*
X0092836Y0024409D01*
X0090764Y0024409D01*
X0088850Y0023616D01*
X0087384Y0022150D01*
X0086958Y0021122D01*
X0086897Y0021311D01*
X0086504Y0022083D01*
X0085995Y0022783D01*
X0085383Y0023395D01*
X0084683Y0023904D01*
X0083911Y0024297D01*
X0083088Y0024565D01*
X0082233Y0024700D01*
X0082100Y0024700D01*
X0082100Y0015800D01*
X0081500Y0015800D01*
X0081500Y0024700D01*
X0081367Y0024700D01*
X0080512Y0024565D01*
X0079689Y0024297D01*
X0078917Y0023904D01*
X0078217Y0023395D01*
X0077605Y0022783D01*
X0077096Y0022083D01*
X0076703Y0021311D01*
X0076642Y0021122D01*
X0076216Y0022150D01*
X0074750Y0023616D01*
X0072836Y0024409D01*
X0070764Y0024409D01*
X0068850Y0023616D01*
X0067416Y0022182D02*
X0056432Y0022182D01*
X0057133Y0020584D02*
X0066735Y0020584D01*
X0066591Y0018985D02*
X0057300Y0018985D01*
X0057300Y0017387D02*
X0066591Y0017387D01*
X0066591Y0015788D02*
X0052100Y0015788D01*
X0052100Y0015200D02*
X0057300Y0015200D01*
X0057300Y0011367D01*
X0057165Y0010512D01*
X0056897Y0009689D01*
X0056504Y0008917D01*
X0055995Y0008217D01*
X0055383Y0007605D01*
X0054683Y0007096D01*
X0053911Y0006703D01*
X0053088Y0006435D01*
X0052233Y0006300D01*
X0052100Y0006300D01*
X0052100Y0015200D01*
X0052100Y0014190D02*
X0051500Y0014190D01*
X0051500Y0012591D02*
X0052100Y0012591D01*
X0052100Y0010993D02*
X0051500Y0010993D01*
X0051500Y0009394D02*
X0052100Y0009394D01*
X0052100Y0007796D02*
X0051500Y0007796D01*
X0048026Y0007796D02*
X0045162Y0007796D01*
X0046441Y0009394D02*
X0046853Y0009394D01*
X0038438Y0007796D02*
X0035162Y0007796D01*
X0036441Y0009394D02*
X0037159Y0009394D01*
X0028438Y0007796D02*
X0025162Y0007796D01*
X0026441Y0009394D02*
X0027159Y0009394D01*
X0018438Y0007796D02*
X0015162Y0007796D01*
X0016441Y0009394D02*
X0017159Y0009394D01*
X0008438Y0007796D02*
X0003584Y0007796D01*
X0003584Y0009394D02*
X0007159Y0009394D01*
X0006591Y0010993D02*
X0003584Y0010993D01*
X0003584Y0012591D02*
X0006591Y0012591D01*
X0006591Y0014190D02*
X0003584Y0014190D01*
X0003584Y0015788D02*
X0006591Y0015788D01*
X0006591Y0017387D02*
X0003584Y0017387D01*
X0003584Y0018985D02*
X0006591Y0018985D01*
X0006735Y0020584D02*
X0003584Y0020584D01*
X0003584Y0022182D02*
X0007416Y0022182D01*
X0009248Y0023781D02*
X0003584Y0023781D01*
X0003584Y0025379D02*
X0139248Y0025379D01*
X0139248Y0023781D02*
X0104352Y0023781D01*
X0106184Y0022182D02*
X0139303Y0022182D01*
X0139248Y0022237D02*
X0140132Y0021354D01*
X0148468Y0021354D01*
X0149352Y0022237D01*
X0149352Y0029786D01*
X0148638Y0030500D01*
X0149352Y0031214D01*
X0149352Y0038763D01*
X0148468Y0039646D01*
X0140132Y0039646D01*
X0139248Y0038763D01*
X0139248Y0031214D01*
X0139962Y0030500D01*
X0139248Y0029786D01*
X0139248Y0022237D01*
X0140132Y0019646D02*
X0139248Y0018763D01*
X0139248Y0018209D01*
X0136316Y0018209D01*
X0136216Y0018450D01*
X0134750Y0019916D01*
X0132836Y0020709D01*
X0130764Y0020709D01*
X0128850Y0019916D01*
X0127384Y0018450D01*
X0127009Y0017544D01*
X0127009Y0019825D01*
X0126125Y0020709D01*
X0117475Y0020709D01*
X0116591Y0019825D01*
X0116591Y0011175D01*
X0117475Y0010291D01*
X0126125Y0010291D01*
X0127009Y0011175D01*
X0127009Y0013456D01*
X0127384Y0012550D01*
X0128850Y0011084D01*
X0130764Y0010291D01*
X0132836Y0010291D01*
X0134750Y0011084D01*
X0136216Y0012550D01*
X0136316Y0012791D01*
X0139248Y0012791D01*
X0139248Y0011214D01*
X0140132Y0010330D01*
X0146285Y0010330D01*
X0146572Y0010248D01*
X0147292Y0010330D01*
X0148468Y0010330D01*
X0149352Y0011214D01*
X0149352Y0012073D01*
X0149552Y0012772D01*
X0149430Y0013842D01*
X0149352Y0013983D01*
X0149352Y0018763D01*
X0148468Y0019646D01*
X0140132Y0019646D01*
X0139470Y0018985D02*
X0135681Y0018985D01*
X0133138Y0020584D02*
X0151217Y0020584D01*
X0151217Y0018985D02*
X0149130Y0018985D01*
X0149352Y0017387D02*
X0151217Y0017387D01*
X0151217Y0015788D02*
X0149352Y0015788D01*
X0149352Y0014190D02*
X0151217Y0014190D01*
X0151217Y0012591D02*
X0149501Y0012591D01*
X0149131Y0010993D02*
X0151217Y0010993D01*
X0151217Y0009394D02*
X0106441Y0009394D01*
X0107009Y0010993D02*
X0116774Y0010993D01*
X0116591Y0012591D02*
X0107009Y0012591D01*
X0107009Y0014190D02*
X0116591Y0014190D01*
X0116591Y0015788D02*
X0107009Y0015788D01*
X0107009Y0017387D02*
X0116591Y0017387D01*
X0116591Y0018985D02*
X0107009Y0018985D01*
X0106865Y0020584D02*
X0117350Y0020584D01*
X0126250Y0020584D02*
X0130462Y0020584D01*
X0127919Y0018985D02*
X0127009Y0018985D01*
X0127009Y0012591D02*
X0127367Y0012591D01*
X0126826Y0010993D02*
X0129071Y0010993D01*
X0134529Y0010993D02*
X0139469Y0010993D01*
X0139248Y0012591D02*
X0136233Y0012591D01*
X0149297Y0022182D02*
X0151217Y0022182D01*
X0151217Y0023781D02*
X0149352Y0023781D01*
X0149352Y0025379D02*
X0151217Y0025379D01*
X0151217Y0026978D02*
X0149352Y0026978D01*
X0149352Y0028576D02*
X0151217Y0028576D01*
X0151217Y0030175D02*
X0148964Y0030175D01*
X0149352Y0031773D02*
X0151217Y0031773D01*
X0151217Y0033372D02*
X0149352Y0033372D01*
X0149352Y0034970D02*
X0151217Y0034970D01*
X0151217Y0036569D02*
X0149352Y0036569D01*
X0149352Y0038167D02*
X0151217Y0038167D01*
X0151217Y0039766D02*
X0135020Y0039766D01*
X0135020Y0040448D02*
X0136086Y0040448D01*
X0136970Y0041332D01*
X0136970Y0049668D01*
X0136086Y0050552D01*
X0128537Y0050552D01*
X0127654Y0049668D01*
X0127654Y0041332D01*
X0128537Y0040448D01*
X0129603Y0040448D01*
X0129603Y0037149D01*
X0128835Y0036381D01*
X0128835Y0029619D01*
X0129718Y0028735D01*
X0135693Y0028735D01*
X0136576Y0029619D01*
X0136576Y0036381D01*
X0135693Y0037265D01*
X0135020Y0037265D01*
X0135020Y0040448D01*
X0136970Y0041364D02*
X0139751Y0041364D01*
X0138957Y0042963D02*
X0136970Y0042963D01*
X0136970Y0044561D02*
X0138957Y0044561D01*
X0136970Y0046160D02*
X0143525Y0046160D01*
X0143525Y0044561D02*
X0145075Y0044561D01*
X0145075Y0045237D02*
X0145075Y0041062D01*
X0148080Y0041062D01*
X0148538Y0041185D01*
X0148949Y0041422D01*
X0149284Y0041757D01*
X0149521Y0042167D01*
X0149643Y0042625D01*
X0149643Y0045237D01*
X0145075Y0045237D01*
X0145075Y0042963D02*
X0143525Y0042963D01*
X0143525Y0041364D02*
X0145075Y0041364D01*
X0148849Y0041364D02*
X0151217Y0041364D01*
X0151217Y0042963D02*
X0149643Y0042963D01*
X0149643Y0044561D02*
X0151217Y0044561D01*
X0140497Y0050955D02*
X0102675Y0050955D01*
X0104274Y0049357D02*
X0116359Y0049357D01*
X0116339Y0049280D02*
X0116461Y0049738D01*
X0116698Y0050149D01*
X0117033Y0050484D01*
X0117444Y0050721D01*
X0117902Y0050843D01*
X0120513Y0050843D01*
X0120513Y0046275D01*
X0120513Y0044725D01*
X0116339Y0044725D01*
X0116339Y0041720D01*
X0116461Y0041262D01*
X0116698Y0040851D01*
X0117033Y0040516D01*
X0117444Y0040279D01*
X0117902Y0040157D01*
X0120513Y0040157D01*
X0120513Y0044725D01*
X0122063Y0044725D01*
X0122063Y0040157D01*
X0124675Y0040157D01*
X0125133Y0040279D01*
X0125543Y0040516D01*
X0125878Y0040851D01*
X0126115Y0041262D01*
X0126238Y0041720D01*
X0126238Y0044725D01*
X0122063Y0044725D01*
X0122063Y0046275D01*
X0120513Y0046275D01*
X0116339Y0046275D01*
X0116339Y0049280D01*
X0116339Y0047758D02*
X0105872Y0047758D01*
X0107471Y0046160D02*
X0120513Y0046160D01*
X0122063Y0046160D02*
X0127654Y0046160D01*
X0126238Y0046275D02*
X0126238Y0049280D01*
X0126115Y0049738D01*
X0125878Y0050149D01*
X0125543Y0050484D01*
X0125133Y0050721D01*
X0124675Y0050843D01*
X0122063Y0050843D01*
X0122063Y0046275D01*
X0126238Y0046275D01*
X0126238Y0047758D02*
X0127654Y0047758D01*
X0127654Y0049357D02*
X0126217Y0049357D01*
X0122063Y0049357D02*
X0120513Y0049357D01*
X0120513Y0047758D02*
X0122063Y0047758D01*
X0122063Y0044561D02*
X0120513Y0044561D01*
X0120513Y0042963D02*
X0122063Y0042963D01*
X0122063Y0041364D02*
X0120513Y0041364D01*
X0116434Y0041364D02*
X0112266Y0041364D01*
X0113865Y0039766D02*
X0129603Y0039766D01*
X0129603Y0038167D02*
X0115463Y0038167D01*
X0117062Y0036569D02*
X0117212Y0036569D01*
X0112598Y0033372D02*
X0094076Y0033372D01*
X0094076Y0034970D02*
X0110999Y0034970D01*
X0109401Y0036569D02*
X0093888Y0036569D01*
X0092520Y0038167D02*
X0107802Y0038167D01*
X0106204Y0039766D02*
X0092520Y0039766D01*
X0094470Y0041364D02*
X0104605Y0041364D01*
X0103007Y0042963D02*
X0094470Y0042963D01*
X0094470Y0044561D02*
X0101408Y0044561D01*
X0099810Y0046160D02*
X0094470Y0046160D01*
X0094470Y0047758D02*
X0098211Y0047758D01*
X0096613Y0049357D02*
X0094470Y0049357D01*
X0085154Y0044561D02*
X0083738Y0044561D01*
X0083738Y0042963D02*
X0085154Y0042963D01*
X0085154Y0041364D02*
X0083643Y0041364D01*
X0087103Y0039766D02*
X0074509Y0039766D01*
X0074509Y0038167D02*
X0087103Y0038167D01*
X0086523Y0036569D02*
X0082077Y0036569D01*
X0082265Y0034970D02*
X0086335Y0034970D01*
X0086335Y0033372D02*
X0082265Y0033372D01*
X0082265Y0031773D02*
X0086335Y0031773D01*
X0086335Y0030175D02*
X0082265Y0030175D01*
X0082100Y0023781D02*
X0081500Y0023781D01*
X0081500Y0022182D02*
X0082100Y0022182D01*
X0082100Y0020584D02*
X0081500Y0020584D01*
X0081500Y0018985D02*
X0082100Y0018985D01*
X0082100Y0017387D02*
X0081500Y0017387D01*
X0081500Y0014190D02*
X0082100Y0014190D01*
X0082100Y0012591D02*
X0081500Y0012591D01*
X0081500Y0010993D02*
X0082100Y0010993D01*
X0082100Y0009394D02*
X0081500Y0009394D01*
X0081500Y0007796D02*
X0082100Y0007796D01*
X0085574Y0007796D02*
X0088438Y0007796D01*
X0087159Y0009394D02*
X0086747Y0009394D01*
X0095162Y0007796D02*
X0098438Y0007796D01*
X0097159Y0009394D02*
X0096441Y0009394D01*
X0105162Y0007796D02*
X0151217Y0007796D01*
X0151217Y0006197D02*
X0003584Y0006197D01*
X0003584Y0004784D02*
X0003584Y0126176D01*
X0151217Y0126176D01*
X0151217Y0004784D01*
X0003584Y0004784D01*
X0003584Y0026978D02*
X0139248Y0026978D01*
X0139248Y0028576D02*
X0003584Y0028576D01*
X0003584Y0030175D02*
X0007024Y0030175D01*
X0007024Y0031773D02*
X0003584Y0031773D01*
X0003584Y0033372D02*
X0007024Y0033372D01*
X0007024Y0034970D02*
X0003584Y0034970D01*
X0003584Y0036569D02*
X0007212Y0036569D01*
X0008580Y0038167D02*
X0003584Y0038167D01*
X0003584Y0039766D02*
X0008580Y0039766D01*
X0006630Y0041364D02*
X0003584Y0041364D01*
X0003584Y0042963D02*
X0006630Y0042963D01*
X0006630Y0044561D02*
X0003584Y0044561D01*
X0003584Y0046160D02*
X0006630Y0046160D01*
X0006630Y0047758D02*
X0003584Y0047758D01*
X0003584Y0049357D02*
X0006630Y0049357D01*
X0003584Y0050955D02*
X0025014Y0050955D01*
X0024091Y0052554D02*
X0003584Y0052554D01*
X0003584Y0054152D02*
X0009100Y0054152D01*
X0009337Y0053980D02*
X0008738Y0054415D01*
X0008215Y0054938D01*
X0007780Y0055537D01*
X0007444Y0056196D01*
X0007216Y0056899D01*
X0007100Y0057630D01*
X0007100Y0057850D01*
X0011650Y0057850D01*
X0011650Y0058150D01*
X0011650Y0062700D01*
X0011430Y0062700D01*
X0010699Y0062584D01*
X0009996Y0062356D01*
X0009337Y0062020D01*
X0008738Y0061585D01*
X0008215Y0061062D01*
X0007780Y0060463D01*
X0007444Y0059804D01*
X0007216Y0059101D01*
X0007100Y0058370D01*
X0007100Y0058150D01*
X0011650Y0058150D01*
X0011950Y0058150D01*
X0011950Y0062700D01*
X0012170Y0062700D01*
X0012901Y0062584D01*
X0013604Y0062356D01*
X0014263Y0062020D01*
X0014862Y0061585D01*
X0015385Y0061062D01*
X0015820Y0060463D01*
X0016156Y0059804D01*
X0016384Y0059101D01*
X0016500Y0058370D01*
X0016500Y0058150D01*
X0011950Y0058150D01*
X0011950Y0057850D01*
X0016500Y0057850D01*
X0016500Y0057630D01*
X0016384Y0056899D01*
X0016156Y0056196D01*
X0015820Y0055537D01*
X0015385Y0054938D01*
X0014862Y0054415D01*
X0014263Y0053980D01*
X0013604Y0053644D01*
X0012901Y0053416D01*
X0012170Y0053300D01*
X0011950Y0053300D01*
X0011950Y0057850D01*
X0011650Y0057850D01*
X0011650Y0053300D01*
X0011430Y0053300D01*
X0010699Y0053416D01*
X0009996Y0053644D01*
X0009337Y0053980D01*
X0011650Y0054152D02*
X0011950Y0054152D01*
X0011950Y0055751D02*
X0011650Y0055751D01*
X0011650Y0057349D02*
X0011950Y0057349D01*
X0011950Y0058948D02*
X0011650Y0058948D01*
X0011650Y0060546D02*
X0011950Y0060546D01*
X0011950Y0062145D02*
X0011650Y0062145D01*
X0009582Y0062145D02*
X0003584Y0062145D01*
X0003584Y0060546D02*
X0007841Y0060546D01*
X0007192Y0058948D02*
X0003584Y0058948D01*
X0003584Y0057349D02*
X0007144Y0057349D01*
X0007671Y0055751D02*
X0003584Y0055751D01*
X0003584Y0063743D02*
X0024091Y0063743D01*
X0024091Y0065342D02*
X0003584Y0065342D01*
X0003584Y0066940D02*
X0024091Y0066940D01*
X0024091Y0068539D02*
X0003584Y0068539D01*
X0003584Y0070137D02*
X0024091Y0070137D01*
X0024380Y0071736D02*
X0003584Y0071736D01*
X0003584Y0073334D02*
X0025804Y0073334D01*
X0027402Y0074933D02*
X0003584Y0074933D01*
X0003584Y0076532D02*
X0137636Y0076532D01*
X0138632Y0074933D02*
X0101198Y0074933D01*
X0098332Y0070137D02*
X0030268Y0070137D01*
X0029509Y0068539D02*
X0099091Y0068539D01*
X0105488Y0060546D02*
X0108112Y0060546D01*
X0107421Y0058948D02*
X0106179Y0058948D01*
X0106209Y0057349D02*
X0107391Y0057349D01*
X0107960Y0055751D02*
X0105640Y0055751D01*
X0104031Y0054152D02*
X0109569Y0054152D01*
X0114031Y0054152D02*
X0119569Y0054152D01*
X0117960Y0055751D02*
X0115640Y0055751D01*
X0116209Y0057349D02*
X0117391Y0057349D01*
X0117421Y0058948D02*
X0116179Y0058948D01*
X0115488Y0060546D02*
X0118112Y0060546D01*
X0125488Y0060546D02*
X0128112Y0060546D01*
X0127421Y0058948D02*
X0126179Y0058948D01*
X0126209Y0057349D02*
X0127391Y0057349D01*
X0127960Y0055751D02*
X0125640Y0055751D01*
X0124031Y0054152D02*
X0129569Y0054152D01*
X0134031Y0054152D02*
X0139569Y0054152D01*
X0137960Y0055751D02*
X0135640Y0055751D01*
X0136209Y0057349D02*
X0137391Y0057349D01*
X0137421Y0058948D02*
X0136179Y0058948D01*
X0135488Y0060546D02*
X0138112Y0060546D01*
X0138957Y0049357D02*
X0136970Y0049357D01*
X0136970Y0047758D02*
X0138957Y0047758D01*
X0139248Y0038167D02*
X0135020Y0038167D01*
X0136388Y0036569D02*
X0139248Y0036569D01*
X0139248Y0034970D02*
X0136576Y0034970D01*
X0136576Y0033372D02*
X0139248Y0033372D01*
X0139248Y0031773D02*
X0136576Y0031773D01*
X0136576Y0030175D02*
X0139636Y0030175D01*
X0128835Y0030175D02*
X0124765Y0030175D01*
X0124765Y0031773D02*
X0128835Y0031773D01*
X0128835Y0033372D02*
X0124765Y0033372D01*
X0124765Y0034970D02*
X0128835Y0034970D01*
X0129023Y0036569D02*
X0124577Y0036569D01*
X0126143Y0041364D02*
X0127654Y0041364D01*
X0127654Y0042963D02*
X0126238Y0042963D01*
X0126238Y0044561D02*
X0127654Y0044561D01*
X0116339Y0044561D02*
X0109069Y0044561D01*
X0110668Y0042963D02*
X0116339Y0042963D01*
X0114196Y0031773D02*
X0094076Y0031773D01*
X0094076Y0030175D02*
X0117024Y0030175D01*
X0099248Y0023781D02*
X0094352Y0023781D01*
X0096184Y0022182D02*
X0097416Y0022182D01*
X0089248Y0023781D02*
X0084852Y0023781D01*
X0086432Y0022182D02*
X0087416Y0022182D01*
X0078748Y0023781D02*
X0074352Y0023781D01*
X0076184Y0022182D02*
X0077168Y0022182D01*
X0074524Y0030175D02*
X0056576Y0030175D01*
X0056388Y0036569D02*
X0064038Y0036569D01*
X0064091Y0038167D02*
X0043997Y0038167D01*
X0043997Y0039766D02*
X0064091Y0039766D01*
X0064091Y0041364D02*
X0057166Y0041364D01*
X0057139Y0041262D02*
X0057261Y0041720D01*
X0057261Y0044725D01*
X0053087Y0044725D01*
X0053087Y0046275D01*
X0051537Y0046275D01*
X0051537Y0044725D01*
X0053087Y0044725D01*
X0053087Y0040157D01*
X0055698Y0040157D01*
X0056156Y0040279D01*
X0056567Y0040516D01*
X0056902Y0040851D01*
X0057139Y0041262D01*
X0057261Y0042963D02*
X0064091Y0042963D01*
X0064091Y0044561D02*
X0057261Y0044561D01*
X0057261Y0047758D02*
X0064091Y0047758D01*
X0064091Y0046160D02*
X0053087Y0046160D01*
X0051537Y0046160D02*
X0045946Y0046160D01*
X0045946Y0047758D02*
X0047362Y0047758D01*
X0047383Y0049357D02*
X0045946Y0049357D01*
X0045946Y0044561D02*
X0047362Y0044561D01*
X0047362Y0044725D02*
X0047362Y0041720D01*
X0047485Y0041262D01*
X0047722Y0040851D01*
X0048057Y0040516D01*
X0048467Y0040279D01*
X0048925Y0040157D01*
X0051537Y0040157D01*
X0051537Y0044725D01*
X0047362Y0044725D01*
X0047362Y0042963D02*
X0045946Y0042963D01*
X0045946Y0041364D02*
X0047457Y0041364D01*
X0051537Y0041364D02*
X0053087Y0041364D01*
X0053087Y0042963D02*
X0051537Y0042963D01*
X0051537Y0044561D02*
X0053087Y0044561D01*
X0053087Y0047758D02*
X0051537Y0047758D01*
X0057241Y0049357D02*
X0064091Y0049357D01*
X0064091Y0062145D02*
X0063314Y0062145D01*
X0078013Y0044561D02*
X0079563Y0044561D01*
X0079563Y0042963D02*
X0078013Y0042963D01*
X0078013Y0041364D02*
X0079563Y0041364D01*
X0074712Y0036569D02*
X0074562Y0036569D01*
X0070098Y0033372D02*
X0068502Y0033372D01*
X0066904Y0031773D02*
X0071696Y0031773D01*
X0052100Y0020584D02*
X0051500Y0020584D01*
X0051500Y0018985D02*
X0052100Y0018985D01*
X0052100Y0017387D02*
X0051500Y0017387D01*
X0057300Y0014190D02*
X0066591Y0014190D01*
X0066591Y0012591D02*
X0057300Y0012591D01*
X0057241Y0010993D02*
X0066591Y0010993D01*
X0067159Y0009394D02*
X0056747Y0009394D01*
X0055574Y0007796D02*
X0068438Y0007796D01*
X0075162Y0007796D02*
X0078026Y0007796D01*
X0076853Y0009394D02*
X0076441Y0009394D01*
X0048835Y0030175D02*
X0044765Y0030175D01*
X0044765Y0031773D02*
X0048835Y0031773D01*
X0048835Y0033372D02*
X0044765Y0033372D01*
X0044765Y0034970D02*
X0048835Y0034970D01*
X0049023Y0036569D02*
X0044577Y0036569D01*
X0029091Y0039766D02*
X0013997Y0039766D01*
X0015946Y0041364D02*
X0017457Y0041364D01*
X0017362Y0042963D02*
X0015946Y0042963D01*
X0015946Y0044561D02*
X0017362Y0044561D01*
X0015946Y0046160D02*
X0021537Y0046160D01*
X0023087Y0046160D02*
X0029091Y0046160D01*
X0029091Y0044561D02*
X0027261Y0044561D01*
X0027261Y0042963D02*
X0029091Y0042963D01*
X0029091Y0041364D02*
X0027166Y0041364D01*
X0023087Y0041364D02*
X0021537Y0041364D01*
X0021537Y0042963D02*
X0023087Y0042963D01*
X0023087Y0044561D02*
X0021537Y0044561D01*
X0021537Y0047758D02*
X0023087Y0047758D01*
X0023087Y0049357D02*
X0021537Y0049357D01*
X0017383Y0049357D02*
X0015946Y0049357D01*
X0015946Y0047758D02*
X0017362Y0047758D01*
X0019569Y0054152D02*
X0014500Y0054152D01*
X0015929Y0055751D02*
X0017960Y0055751D01*
X0017391Y0057349D02*
X0016456Y0057349D01*
X0016408Y0058948D02*
X0017421Y0058948D01*
X0018112Y0060546D02*
X0015759Y0060546D01*
X0014018Y0062145D02*
X0020286Y0062145D01*
X0023314Y0062145D02*
X0024091Y0062145D01*
X0024031Y0054152D02*
X0024091Y0054152D01*
X0029509Y0054152D02*
X0029569Y0054152D01*
X0028211Y0047758D02*
X0027261Y0047758D01*
X0003584Y0078130D02*
X0137391Y0078130D01*
X0137744Y0079729D02*
X0124042Y0079729D01*
X0123491Y0079500D02*
X0126615Y0080794D01*
X0129006Y0083185D01*
X0129006Y0083185D01*
X0130300Y0086309D01*
X0130300Y0089691D01*
X0129006Y0092815D01*
X0126615Y0095206D01*
X0126615Y0095206D01*
X0123491Y0096500D01*
X0120109Y0096500D01*
X0116985Y0095206D01*
X0114594Y0092815D01*
X0114594Y0092815D01*
X0113300Y0089691D01*
X0113300Y0086309D01*
X0114594Y0083185D01*
X0116985Y0080794D01*
X0116985Y0080794D01*
X0116985Y0080794D01*
X0120109Y0079500D01*
X0121303Y0079500D01*
X0123491Y0079500D01*
X0126615Y0080794D02*
X0126615Y0080794D01*
X0127148Y0081327D02*
X0138892Y0081327D01*
X0139996Y0083644D02*
X0140699Y0083416D01*
X0141430Y0083300D01*
X0141650Y0083300D01*
X0141650Y0087850D01*
X0137100Y0087850D01*
X0137100Y0087630D01*
X0137216Y0086899D01*
X0137444Y0086196D01*
X0137780Y0085537D01*
X0138215Y0084938D01*
X0138738Y0084415D01*
X0139337Y0083980D01*
X0139996Y0083644D01*
X0138629Y0084524D02*
X0129561Y0084524D01*
X0130223Y0086123D02*
X0137482Y0086123D01*
X0137100Y0087721D02*
X0130300Y0087721D01*
X0130300Y0089320D02*
X0137287Y0089320D01*
X0137216Y0089101D02*
X0137100Y0088370D01*
X0137100Y0088150D01*
X0141650Y0088150D01*
X0141650Y0092700D01*
X0141430Y0092700D01*
X0140699Y0092584D01*
X0139996Y0092356D01*
X0139337Y0092020D01*
X0138738Y0091585D01*
X0138215Y0091062D01*
X0137780Y0090463D01*
X0137444Y0089804D01*
X0137216Y0089101D01*
X0138111Y0090918D02*
X0129792Y0090918D01*
X0129129Y0092517D02*
X0140491Y0092517D01*
X0140923Y0093591D02*
X0139303Y0094263D01*
X0138063Y0095503D01*
X0137391Y0097123D01*
X0137391Y0098877D01*
X0138063Y0100497D01*
X0139303Y0101737D01*
X0140923Y0102409D01*
X0142677Y0102409D01*
X0144297Y0101737D01*
X0145537Y0100497D01*
X0146209Y0098877D01*
X0146209Y0097123D01*
X0145537Y0095503D01*
X0144297Y0094263D01*
X0142677Y0093591D01*
X0140923Y0093591D01*
X0141650Y0092517D02*
X0141950Y0092517D01*
X0141950Y0092700D02*
X0141950Y0088150D01*
X0141650Y0088150D01*
X0141650Y0087850D01*
X0141950Y0087850D01*
X0141950Y0088150D01*
X0146500Y0088150D01*
X0146500Y0088370D01*
X0146384Y0089101D01*
X0146156Y0089804D01*
X0145820Y0090463D01*
X0145385Y0091062D01*
X0144862Y0091585D01*
X0144263Y0092020D01*
X0143604Y0092356D01*
X0142901Y0092584D01*
X0142170Y0092700D01*
X0141950Y0092700D01*
X0143109Y0092517D02*
X0151217Y0092517D01*
X0151217Y0094115D02*
X0143942Y0094115D01*
X0145625Y0095714D02*
X0151217Y0095714D01*
X0151217Y0097312D02*
X0146209Y0097312D01*
X0146195Y0098911D02*
X0151217Y0098911D01*
X0151217Y0100509D02*
X0145526Y0100509D01*
X0143403Y0102108D02*
X0151217Y0102108D01*
X0151217Y0103706D02*
X0142954Y0103706D01*
X0142677Y0103591D02*
X0144297Y0104263D01*
X0145537Y0105503D01*
X0146209Y0107123D01*
X0146209Y0108877D01*
X0145537Y0110497D01*
X0144297Y0111737D01*
X0142677Y0112409D01*
X0140923Y0112409D01*
X0139303Y0111737D01*
X0138063Y0110497D01*
X0137391Y0108877D01*
X0137391Y0107123D01*
X0138063Y0105503D01*
X0139303Y0104263D01*
X0140923Y0103591D01*
X0142677Y0103591D01*
X0140646Y0103706D02*
X0003584Y0103706D01*
X0003584Y0102108D02*
X0140197Y0102108D01*
X0138074Y0100509D02*
X0003584Y0100509D01*
X0003584Y0098911D02*
X0137405Y0098911D01*
X0137391Y0097312D02*
X0003584Y0097312D01*
X0003584Y0095714D02*
X0023211Y0095714D01*
X0021985Y0095206D02*
X0025109Y0096500D01*
X0028491Y0096500D01*
X0031615Y0095206D01*
X0031615Y0095206D01*
X0034006Y0092815D01*
X0034006Y0092815D01*
X0035300Y0089691D01*
X0035300Y0086309D01*
X0034006Y0083185D01*
X0034006Y0083185D01*
X0031615Y0080794D01*
X0031615Y0080794D01*
X0028491Y0079500D01*
X0028491Y0079500D01*
X0027297Y0079500D01*
X0025109Y0079500D01*
X0021985Y0080794D01*
X0021985Y0080794D01*
X0019594Y0083185D01*
X0019594Y0083185D01*
X0018300Y0086309D01*
X0018300Y0089691D01*
X0019594Y0092815D01*
X0019594Y0092815D01*
X0021985Y0095206D01*
X0021985Y0095206D01*
X0020894Y0094115D02*
X0003584Y0094115D01*
X0003584Y0092517D02*
X0019471Y0092517D01*
X0018808Y0090918D02*
X0003584Y0090918D01*
X0003584Y0089320D02*
X0018300Y0089320D01*
X0018300Y0087721D02*
X0003584Y0087721D01*
X0003584Y0086123D02*
X0018377Y0086123D01*
X0019039Y0084524D02*
X0003584Y0084524D01*
X0003584Y0082926D02*
X0019854Y0082926D01*
X0021452Y0081327D02*
X0003584Y0081327D01*
X0003584Y0079729D02*
X0024557Y0079729D01*
X0029042Y0079729D02*
X0119557Y0079729D01*
X0116452Y0081327D02*
X0032148Y0081327D01*
X0033746Y0082926D02*
X0114854Y0082926D01*
X0114039Y0084524D02*
X0034561Y0084524D01*
X0035223Y0086123D02*
X0113377Y0086123D01*
X0113300Y0087721D02*
X0035300Y0087721D01*
X0035300Y0089320D02*
X0113300Y0089320D01*
X0113808Y0090918D02*
X0034792Y0090918D01*
X0034129Y0092517D02*
X0114471Y0092517D01*
X0115894Y0094115D02*
X0032706Y0094115D01*
X0030389Y0095714D02*
X0118211Y0095714D01*
X0116985Y0095206D02*
X0116985Y0095206D01*
X0125389Y0095714D02*
X0137975Y0095714D01*
X0139658Y0094115D02*
X0127706Y0094115D01*
X0129006Y0092815D02*
X0129006Y0092815D01*
X0128746Y0082926D02*
X0151217Y0082926D01*
X0151217Y0081327D02*
X0144708Y0081327D01*
X0145856Y0079729D02*
X0151217Y0079729D01*
X0151217Y0078130D02*
X0146209Y0078130D01*
X0145964Y0076532D02*
X0151217Y0076532D01*
X0144862Y0084415D02*
X0144263Y0083980D01*
X0143604Y0083644D01*
X0142901Y0083416D01*
X0142170Y0083300D01*
X0141950Y0083300D01*
X0141950Y0087850D01*
X0146500Y0087850D01*
X0146500Y0087630D01*
X0146384Y0086899D01*
X0146156Y0086196D01*
X0145820Y0085537D01*
X0145385Y0084938D01*
X0144862Y0084415D01*
X0144971Y0084524D02*
X0151217Y0084524D01*
X0151217Y0086123D02*
X0146118Y0086123D01*
X0146500Y0087721D02*
X0151217Y0087721D01*
X0151217Y0089320D02*
X0146313Y0089320D01*
X0145489Y0090918D02*
X0151217Y0090918D01*
X0141950Y0090918D02*
X0141650Y0090918D01*
X0141650Y0089320D02*
X0141950Y0089320D01*
X0141950Y0087721D02*
X0141650Y0087721D01*
X0141650Y0086123D02*
X0141950Y0086123D01*
X0141950Y0084524D02*
X0141650Y0084524D01*
X0138260Y0105305D02*
X0003584Y0105305D01*
X0003584Y0106903D02*
X0137482Y0106903D01*
X0137391Y0108502D02*
X0003584Y0108502D01*
X0003584Y0110100D02*
X0137898Y0110100D01*
X0139264Y0111699D02*
X0003584Y0111699D01*
X0003584Y0113297D02*
X0151217Y0113297D01*
X0151217Y0111699D02*
X0144336Y0111699D01*
X0142677Y0113591D02*
X0144297Y0114263D01*
X0145537Y0115503D01*
X0146209Y0117123D01*
X0146209Y0118877D01*
X0145537Y0120497D01*
X0144297Y0121737D01*
X0142677Y0122409D01*
X0140923Y0122409D01*
X0139303Y0121737D01*
X0138063Y0120497D01*
X0137391Y0118877D01*
X0137391Y0117123D01*
X0138063Y0115503D01*
X0139303Y0114263D01*
X0140923Y0113591D01*
X0142677Y0113591D01*
X0144931Y0114896D02*
X0151217Y0114896D01*
X0151217Y0116494D02*
X0145948Y0116494D01*
X0146209Y0118093D02*
X0151217Y0118093D01*
X0151217Y0119691D02*
X0145871Y0119691D01*
X0144745Y0121290D02*
X0151217Y0121290D01*
X0151217Y0122888D02*
X0003584Y0122888D01*
X0003584Y0121290D02*
X0008855Y0121290D01*
X0009303Y0121737D02*
X0008063Y0120497D01*
X0007391Y0118877D01*
X0007391Y0117123D01*
X0008063Y0115503D01*
X0009303Y0114263D01*
X0010923Y0113591D01*
X0012677Y0113591D01*
X0014297Y0114263D01*
X0015537Y0115503D01*
X0016209Y0117123D01*
X0016209Y0118877D01*
X0015537Y0120497D01*
X0014297Y0121737D01*
X0012677Y0122409D01*
X0010923Y0122409D01*
X0009303Y0121737D01*
X0007729Y0119691D02*
X0003584Y0119691D01*
X0003584Y0118093D02*
X0007391Y0118093D01*
X0007652Y0116494D02*
X0003584Y0116494D01*
X0003584Y0114896D02*
X0008669Y0114896D01*
X0014931Y0114896D02*
X0018669Y0114896D01*
X0018063Y0115503D02*
X0019303Y0114263D01*
X0020923Y0113591D01*
X0022677Y0113591D01*
X0024297Y0114263D01*
X0025537Y0115503D01*
X0026209Y0117123D01*
X0026209Y0118877D01*
X0025537Y0120497D01*
X0024297Y0121737D01*
X0022677Y0122409D01*
X0020923Y0122409D01*
X0019303Y0121737D01*
X0018063Y0120497D01*
X0017391Y0118877D01*
X0017391Y0117123D01*
X0018063Y0115503D01*
X0017652Y0116494D02*
X0015948Y0116494D01*
X0016209Y0118093D02*
X0017391Y0118093D01*
X0017729Y0119691D02*
X0015871Y0119691D01*
X0014745Y0121290D02*
X0018855Y0121290D01*
X0024745Y0121290D02*
X0028855Y0121290D01*
X0029303Y0121737D02*
X0028063Y0120497D01*
X0027391Y0118877D01*
X0027391Y0117123D01*
X0028063Y0115503D01*
X0029303Y0114263D01*
X0030923Y0113591D01*
X0032677Y0113591D01*
X0034297Y0114263D01*
X0035537Y0115503D01*
X0036209Y0117123D01*
X0036209Y0118877D01*
X0035537Y0120497D01*
X0034297Y0121737D01*
X0032677Y0122409D01*
X0030923Y0122409D01*
X0029303Y0121737D01*
X0027729Y0119691D02*
X0025871Y0119691D01*
X0026209Y0118093D02*
X0027391Y0118093D01*
X0027652Y0116494D02*
X0025948Y0116494D01*
X0024931Y0114896D02*
X0028669Y0114896D01*
X0034931Y0114896D02*
X0038669Y0114896D01*
X0038063Y0115503D02*
X0039303Y0114263D01*
X0040923Y0113591D01*
X0042677Y0113591D01*
X0044297Y0114263D01*
X0045537Y0115503D01*
X0046209Y0117123D01*
X0046209Y0118877D01*
X0045537Y0120497D01*
X0044297Y0121737D01*
X0042677Y0122409D01*
X0040923Y0122409D01*
X0039303Y0121737D01*
X0038063Y0120497D01*
X0037391Y0118877D01*
X0037391Y0117123D01*
X0038063Y0115503D01*
X0037652Y0116494D02*
X0035948Y0116494D01*
X0036209Y0118093D02*
X0037391Y0118093D01*
X0037729Y0119691D02*
X0035871Y0119691D01*
X0034745Y0121290D02*
X0038855Y0121290D01*
X0044745Y0121290D02*
X0048855Y0121290D01*
X0049303Y0121737D02*
X0048063Y0120497D01*
X0047391Y0118877D01*
X0047391Y0117123D01*
X0048063Y0115503D01*
X0049303Y0114263D01*
X0050923Y0113591D01*
X0052677Y0113591D01*
X0054297Y0114263D01*
X0055537Y0115503D01*
X0056209Y0117123D01*
X0056209Y0118877D01*
X0055537Y0120497D01*
X0054297Y0121737D01*
X0052677Y0122409D01*
X0050923Y0122409D01*
X0049303Y0121737D01*
X0047729Y0119691D02*
X0045871Y0119691D01*
X0046209Y0118093D02*
X0047391Y0118093D01*
X0047652Y0116494D02*
X0045948Y0116494D01*
X0044931Y0114896D02*
X0048669Y0114896D01*
X0054931Y0114896D02*
X0058669Y0114896D01*
X0058063Y0115503D02*
X0059303Y0114263D01*
X0060923Y0113591D01*
X0062677Y0113591D01*
X0064297Y0114263D01*
X0065537Y0115503D01*
X0066209Y0117123D01*
X0066209Y0118877D01*
X0065537Y0120497D01*
X0064297Y0121737D01*
X0062677Y0122409D01*
X0060923Y0122409D01*
X0059303Y0121737D01*
X0058063Y0120497D01*
X0057391Y0118877D01*
X0057391Y0117123D01*
X0058063Y0115503D01*
X0057652Y0116494D02*
X0055948Y0116494D01*
X0056209Y0118093D02*
X0057391Y0118093D01*
X0057729Y0119691D02*
X0055871Y0119691D01*
X0054745Y0121290D02*
X0058855Y0121290D01*
X0064745Y0121290D02*
X0068855Y0121290D01*
X0069303Y0121737D02*
X0068063Y0120497D01*
X0067391Y0118877D01*
X0067391Y0117123D01*
X0068063Y0115503D01*
X0069303Y0114263D01*
X0070923Y0113591D01*
X0072677Y0113591D01*
X0074297Y0114263D01*
X0075537Y0115503D01*
X0076209Y0117123D01*
X0076209Y0118877D01*
X0075537Y0120497D01*
X0074297Y0121737D01*
X0072677Y0122409D01*
X0070923Y0122409D01*
X0069303Y0121737D01*
X0067729Y0119691D02*
X0065871Y0119691D01*
X0066209Y0118093D02*
X0067391Y0118093D01*
X0067652Y0116494D02*
X0065948Y0116494D01*
X0064931Y0114896D02*
X0068669Y0114896D01*
X0074931Y0114896D02*
X0078669Y0114896D01*
X0078063Y0115503D02*
X0079303Y0114263D01*
X0080923Y0113591D01*
X0082677Y0113591D01*
X0084297Y0114263D01*
X0085537Y0115503D01*
X0086209Y0117123D01*
X0086209Y0118877D01*
X0085537Y0120497D01*
X0084297Y0121737D01*
X0082677Y0122409D01*
X0080923Y0122409D01*
X0079303Y0121737D01*
X0078063Y0120497D01*
X0077391Y0118877D01*
X0077391Y0117123D01*
X0078063Y0115503D01*
X0077652Y0116494D02*
X0075948Y0116494D01*
X0076209Y0118093D02*
X0077391Y0118093D01*
X0077729Y0119691D02*
X0075871Y0119691D01*
X0074745Y0121290D02*
X0078855Y0121290D01*
X0084745Y0121290D02*
X0088855Y0121290D01*
X0089303Y0121737D02*
X0088063Y0120497D01*
X0087391Y0118877D01*
X0087391Y0117123D01*
X0088063Y0115503D01*
X0089303Y0114263D01*
X0090923Y0113591D01*
X0092677Y0113591D01*
X0094297Y0114263D01*
X0095537Y0115503D01*
X0096209Y0117123D01*
X0096209Y0118877D01*
X0095537Y0120497D01*
X0094297Y0121737D01*
X0092677Y0122409D01*
X0090923Y0122409D01*
X0089303Y0121737D01*
X0087729Y0119691D02*
X0085871Y0119691D01*
X0086209Y0118093D02*
X0087391Y0118093D01*
X0087652Y0116494D02*
X0085948Y0116494D01*
X0084931Y0114896D02*
X0088669Y0114896D01*
X0094931Y0114896D02*
X0098669Y0114896D01*
X0098063Y0115503D02*
X0099303Y0114263D01*
X0100923Y0113591D01*
X0102677Y0113591D01*
X0104297Y0114263D01*
X0105537Y0115503D01*
X0106209Y0117123D01*
X0106209Y0118877D01*
X0105537Y0120497D01*
X0104297Y0121737D01*
X0102677Y0122409D01*
X0100923Y0122409D01*
X0099303Y0121737D01*
X0098063Y0120497D01*
X0097391Y0118877D01*
X0097391Y0117123D01*
X0098063Y0115503D01*
X0097652Y0116494D02*
X0095948Y0116494D01*
X0096209Y0118093D02*
X0097391Y0118093D01*
X0097729Y0119691D02*
X0095871Y0119691D01*
X0094745Y0121290D02*
X0098855Y0121290D01*
X0104745Y0121290D02*
X0108855Y0121290D01*
X0109303Y0121737D02*
X0108063Y0120497D01*
X0107391Y0118877D01*
X0107391Y0117123D01*
X0108063Y0115503D01*
X0109303Y0114263D01*
X0110923Y0113591D01*
X0112677Y0113591D01*
X0114297Y0114263D01*
X0115537Y0115503D01*
X0116209Y0117123D01*
X0116209Y0118877D01*
X0115537Y0120497D01*
X0114297Y0121737D01*
X0112677Y0122409D01*
X0110923Y0122409D01*
X0109303Y0121737D01*
X0107729Y0119691D02*
X0105871Y0119691D01*
X0106209Y0118093D02*
X0107391Y0118093D01*
X0107652Y0116494D02*
X0105948Y0116494D01*
X0104931Y0114896D02*
X0108669Y0114896D01*
X0114931Y0114896D02*
X0118669Y0114896D01*
X0118063Y0115503D02*
X0119303Y0114263D01*
X0120923Y0113591D01*
X0122677Y0113591D01*
X0124297Y0114263D01*
X0125537Y0115503D01*
X0126209Y0117123D01*
X0126209Y0118877D01*
X0125537Y0120497D01*
X0124297Y0121737D01*
X0122677Y0122409D01*
X0120923Y0122409D01*
X0119303Y0121737D01*
X0118063Y0120497D01*
X0117391Y0118877D01*
X0117391Y0117123D01*
X0118063Y0115503D01*
X0117652Y0116494D02*
X0115948Y0116494D01*
X0116209Y0118093D02*
X0117391Y0118093D01*
X0117729Y0119691D02*
X0115871Y0119691D01*
X0114745Y0121290D02*
X0118855Y0121290D01*
X0124745Y0121290D02*
X0128855Y0121290D01*
X0129303Y0121737D02*
X0128063Y0120497D01*
X0127391Y0118877D01*
X0127391Y0117123D01*
X0128063Y0115503D01*
X0129303Y0114263D01*
X0130923Y0113591D01*
X0132677Y0113591D01*
X0134297Y0114263D01*
X0135537Y0115503D01*
X0136209Y0117123D01*
X0136209Y0118877D01*
X0135537Y0120497D01*
X0134297Y0121737D01*
X0132677Y0122409D01*
X0130923Y0122409D01*
X0129303Y0121737D01*
X0127729Y0119691D02*
X0125871Y0119691D01*
X0126209Y0118093D02*
X0127391Y0118093D01*
X0127652Y0116494D02*
X0125948Y0116494D01*
X0124931Y0114896D02*
X0128669Y0114896D01*
X0134931Y0114896D02*
X0138669Y0114896D01*
X0137652Y0116494D02*
X0135948Y0116494D01*
X0136209Y0118093D02*
X0137391Y0118093D01*
X0137729Y0119691D02*
X0135871Y0119691D01*
X0134745Y0121290D02*
X0138855Y0121290D01*
X0151217Y0124487D02*
X0003584Y0124487D01*
X0003584Y0126085D02*
X0151217Y0126085D01*
X0151217Y0110100D02*
X0145702Y0110100D01*
X0146209Y0108502D02*
X0151217Y0108502D01*
X0151217Y0106903D02*
X0146118Y0106903D01*
X0145340Y0105305D02*
X0151217Y0105305D01*
D19*
X0101800Y0070500D02*
X0101800Y0058000D01*
X0091800Y0058000D02*
X0116800Y0033000D01*
X0120894Y0033000D01*
X0132312Y0033394D02*
X0132706Y0033000D01*
X0132312Y0033394D02*
X0132312Y0045500D01*
X0144300Y0034988D02*
X0144300Y0026012D01*
X0143788Y0015500D02*
X0131800Y0015500D01*
X0143788Y0015500D02*
X0144300Y0014988D01*
X0146800Y0013000D01*
X0090206Y0033000D02*
X0089812Y0033394D01*
X0089812Y0045500D01*
X0081800Y0058000D02*
X0081800Y0063000D01*
X0079300Y0065500D01*
X0069300Y0065500D01*
X0066800Y0063000D01*
X0066800Y0035500D01*
X0064300Y0033000D01*
X0052706Y0033000D01*
X0041288Y0033000D02*
X0041288Y0045500D01*
X0031800Y0048000D02*
X0026800Y0053000D01*
X0026800Y0070500D01*
X0029300Y0073000D01*
X0099300Y0073000D01*
X0101800Y0070500D01*
X0071800Y0058000D02*
X0071800Y0035500D01*
X0074300Y0033000D01*
X0078394Y0033000D01*
X0041288Y0033000D02*
X0040894Y0033000D01*
X0031800Y0035500D02*
X0031800Y0048000D01*
X0031800Y0035500D02*
X0029300Y0033000D01*
X0022706Y0033000D01*
X0011288Y0033000D02*
X0011288Y0045500D01*
X0011288Y0033000D02*
X0010894Y0033000D01*
M02*
