%
M48
M72
T04C0.0380
T05C0.0420
T06C0.0520
T09C0.1250
%
T04
X1180Y5800
X2180Y5800
X3180Y5800
X4180Y5800
X5180Y5800
X6180Y5800
X7180Y5800
X8180Y5800
X9180Y5800
X10180Y5800
X11180Y5800
X12180Y5800
X13180Y5800
X14180Y5800
X14180Y6800
X14180Y7800
X14180Y8800
X14180Y9800
X14180Y10800
X14180Y11800
X13180Y11800
X12180Y11800
X11180Y11800
X10180Y11800
X9180Y11800
X8180Y11800
X7180Y11800
X6180Y11800
X5180Y11800
X4180Y11800
X3180Y11800
X2180Y11800
X1180Y11800
T05
X12180Y1550
X13180Y1550
T06
X1180Y1550
X2180Y1550
X3180Y1550
X4180Y1550
X5180Y1550
X7180Y1550
X8180Y1550
X9180Y1550
X10180Y1550
T09
X12180Y8800
X2680Y8800
M30
