G75*
%MOIN*%
%OFA0B0*%
%FSLAX25Y25*%
%IPPOS*%
%LPD*%
%AMOC8*
5,1,8,0,0,1.08239X$1,22.5*
%
%ADD10C,0.00600*%
%ADD11C,0.00300*%
%ADD12C,0.00800*%
%ADD13C,0.00200*%
%ADD14C,0.00500*%
%ADD15C,0.00100*%
D10*
X0048168Y0090800D02*
X0047100Y0091868D01*
X0048168Y0090800D02*
X0050303Y0090800D01*
X0051370Y0091868D01*
X0051370Y0092935D01*
X0050303Y0094003D01*
X0048168Y0094003D01*
X0047100Y0095070D01*
X0047100Y0096138D01*
X0048168Y0097205D01*
X0050303Y0097205D01*
X0051370Y0096138D01*
X0053545Y0094003D02*
X0054613Y0095070D01*
X0056748Y0095070D01*
X0057816Y0094003D01*
X0057816Y0092935D01*
X0053545Y0092935D01*
X0053545Y0091868D02*
X0053545Y0094003D01*
X0053545Y0091868D02*
X0054613Y0090800D01*
X0056748Y0090800D01*
X0059991Y0090800D02*
X0059991Y0095070D01*
X0063194Y0095070D01*
X0064261Y0094003D01*
X0064261Y0090800D01*
X0066436Y0090800D02*
X0069639Y0090800D01*
X0070707Y0091868D01*
X0069639Y0092935D01*
X0067504Y0092935D01*
X0066436Y0094003D01*
X0067504Y0095070D01*
X0070707Y0095070D01*
X0072882Y0094003D02*
X0072882Y0091868D01*
X0073950Y0090800D01*
X0076085Y0090800D01*
X0077152Y0091868D01*
X0077152Y0094003D01*
X0076085Y0095070D01*
X0073950Y0095070D01*
X0072882Y0094003D01*
X0079327Y0095070D02*
X0079327Y0090800D01*
X0079327Y0092935D02*
X0081463Y0095070D01*
X0082530Y0095070D01*
X0091144Y0095070D02*
X0091144Y0092935D01*
X0093279Y0090800D01*
X0095441Y0090800D02*
X0099712Y0095070D01*
X0099712Y0096138D01*
X0098644Y0097205D01*
X0096509Y0097205D01*
X0095441Y0096138D01*
X0093279Y0097205D02*
X0091144Y0095070D01*
X0095441Y0090800D02*
X0099712Y0090800D01*
X0101887Y0091868D02*
X0102954Y0090800D01*
X0105089Y0090800D01*
X0106157Y0091868D01*
X0106157Y0096138D01*
X0101887Y0091868D01*
X0101887Y0096138D01*
X0102954Y0097205D01*
X0105089Y0097205D01*
X0106157Y0096138D01*
X0108332Y0095070D02*
X0110467Y0097205D01*
X0110467Y0090800D01*
X0108332Y0090800D02*
X0112603Y0090800D01*
X0114778Y0091868D02*
X0115845Y0090800D01*
X0117980Y0090800D01*
X0119048Y0091868D01*
X0119048Y0092935D01*
X0117980Y0094003D01*
X0114778Y0094003D01*
X0114778Y0091868D01*
X0114778Y0094003D02*
X0116913Y0096138D01*
X0119048Y0097205D01*
X0121223Y0097205D02*
X0123358Y0095070D01*
X0123358Y0092935D01*
X0121223Y0090800D01*
D11*
X0098313Y0085085D02*
X0097829Y0085085D01*
X0096862Y0084117D01*
X0096862Y0083150D02*
X0096862Y0085085D01*
X0095850Y0084601D02*
X0095850Y0083150D01*
X0094399Y0083150D01*
X0093915Y0083634D01*
X0094399Y0084117D01*
X0095850Y0084117D01*
X0095850Y0084601D02*
X0095366Y0085085D01*
X0094399Y0085085D01*
X0092904Y0085085D02*
X0091452Y0085085D01*
X0090969Y0084601D01*
X0090969Y0083634D01*
X0091452Y0083150D01*
X0092904Y0083150D01*
X0092904Y0082183D02*
X0092904Y0085085D01*
X0089957Y0084601D02*
X0089957Y0083150D01*
X0088506Y0083150D01*
X0088022Y0083634D01*
X0088506Y0084117D01*
X0089957Y0084117D01*
X0089957Y0084601D02*
X0089473Y0085085D01*
X0088506Y0085085D01*
X0087011Y0086052D02*
X0087011Y0083150D01*
X0086043Y0084117D01*
X0085076Y0083150D01*
X0085076Y0086052D01*
X0081118Y0084601D02*
X0081118Y0083150D01*
X0081118Y0084601D02*
X0080634Y0085085D01*
X0079183Y0085085D01*
X0079183Y0083150D01*
X0078171Y0083150D02*
X0078171Y0084601D01*
X0077687Y0085085D01*
X0076720Y0085085D01*
X0076720Y0084117D02*
X0078171Y0084117D01*
X0078171Y0083150D02*
X0076720Y0083150D01*
X0076236Y0083634D01*
X0076720Y0084117D01*
X0075225Y0084601D02*
X0075225Y0083150D01*
X0074257Y0083150D02*
X0074257Y0084601D01*
X0074741Y0085085D01*
X0075225Y0084601D01*
X0074257Y0084601D02*
X0073773Y0085085D01*
X0073290Y0085085D01*
X0073290Y0083150D01*
X0072278Y0083150D02*
X0072278Y0084601D01*
X0071794Y0085085D01*
X0071311Y0084601D01*
X0071311Y0083150D01*
X0070343Y0083150D02*
X0070343Y0085085D01*
X0070827Y0085085D01*
X0071311Y0084601D01*
X0069331Y0085085D02*
X0069331Y0083150D01*
X0067880Y0083150D01*
X0067397Y0083634D01*
X0067397Y0085085D01*
X0066385Y0085569D02*
X0066385Y0084601D01*
X0065901Y0084117D01*
X0064450Y0084117D01*
X0064450Y0083150D02*
X0064450Y0086052D01*
X0065901Y0086052D01*
X0066385Y0085569D01*
X0065417Y0084117D02*
X0066385Y0083150D01*
X0022350Y0099794D02*
X0022350Y0100762D01*
X0021866Y0101245D01*
X0019448Y0101245D01*
X0019931Y0102257D02*
X0019448Y0102741D01*
X0019448Y0103708D01*
X0019931Y0104192D01*
X0020899Y0103708D02*
X0020899Y0102741D01*
X0020415Y0102257D01*
X0019931Y0102257D01*
X0018964Y0103224D02*
X0022834Y0103224D01*
X0022350Y0102741D02*
X0022350Y0103708D01*
X0021866Y0104192D01*
X0021383Y0104192D01*
X0020899Y0103708D01*
X0021866Y0102257D02*
X0022350Y0102741D01*
X0022350Y0105203D02*
X0022350Y0107138D01*
X0022350Y0106171D02*
X0019448Y0106171D01*
X0020415Y0105203D01*
X0022350Y0099794D02*
X0021866Y0099310D01*
X0019448Y0099310D01*
D12*
X0011800Y0093000D02*
X0006800Y0093000D01*
X0006800Y0123000D01*
X0146800Y0123000D01*
X0146800Y0053000D01*
X0006800Y0053000D01*
X0006800Y0083000D01*
X0011800Y0083000D01*
X0011800Y0093000D01*
X0012863Y0036937D02*
X0007351Y0036937D01*
X0007351Y0029063D01*
X0012863Y0029063D01*
X0015619Y0030244D02*
X0015619Y0033000D01*
X0017981Y0035362D01*
X0017981Y0030638D01*
X0015619Y0033000D01*
X0015619Y0035756D01*
X0020737Y0036937D02*
X0026249Y0036937D01*
X0026249Y0029063D01*
X0020737Y0029063D01*
X0006800Y0018000D02*
X0006800Y0013000D01*
X0037351Y0029063D02*
X0037351Y0036937D01*
X0042863Y0036937D01*
X0045619Y0035756D02*
X0045619Y0033000D01*
X0047981Y0035362D01*
X0047981Y0030638D01*
X0045619Y0033000D01*
X0045619Y0030244D01*
X0042863Y0029063D02*
X0037351Y0029063D01*
X0050737Y0029063D02*
X0056249Y0029063D01*
X0056249Y0036937D01*
X0050737Y0036937D01*
X0056800Y0018000D02*
X0056800Y0013000D01*
X0066800Y0013000D02*
X0066800Y0018000D01*
X0074851Y0029063D02*
X0080363Y0029063D01*
X0083119Y0030638D02*
X0085481Y0033000D01*
X0083119Y0035362D01*
X0083119Y0030638D01*
X0085481Y0030244D02*
X0085481Y0033000D01*
X0085481Y0035756D01*
X0088237Y0036937D02*
X0093749Y0036937D01*
X0093749Y0029063D01*
X0088237Y0029063D01*
X0080363Y0036937D02*
X0074851Y0036937D01*
X0074851Y0029063D01*
X0106800Y0018000D02*
X0106800Y0013000D01*
X0117351Y0029063D02*
X0122863Y0029063D01*
X0125619Y0030638D02*
X0127981Y0033000D01*
X0125619Y0035362D01*
X0125619Y0030638D01*
X0127981Y0030244D02*
X0127981Y0033000D01*
X0127981Y0035756D01*
X0130737Y0036937D02*
X0136249Y0036937D01*
X0136249Y0029063D01*
X0130737Y0029063D01*
X0122863Y0036937D02*
X0117351Y0036937D01*
X0117351Y0029063D01*
D13*
X0004098Y0010738D02*
X0004098Y0010004D01*
X0004098Y0010371D02*
X0005933Y0010371D01*
X0006300Y0010004D01*
X0006300Y0009637D01*
X0005933Y0009270D01*
X0006300Y0011480D02*
X0004098Y0011480D01*
X0004098Y0012581D01*
X0004465Y0012948D01*
X0005199Y0012948D01*
X0005566Y0012581D01*
X0005566Y0011480D01*
X0006300Y0013690D02*
X0004832Y0015158D01*
X0004465Y0015158D01*
X0004098Y0014791D01*
X0004098Y0014057D01*
X0004465Y0013690D01*
X0006300Y0013690D02*
X0006300Y0015158D01*
X0064798Y0015454D02*
X0067000Y0015454D01*
X0067000Y0014720D02*
X0067000Y0016188D01*
X0065532Y0014720D02*
X0064798Y0015454D01*
X0065165Y0013978D02*
X0065899Y0013978D01*
X0066266Y0013611D01*
X0066266Y0012510D01*
X0067000Y0012510D02*
X0064798Y0012510D01*
X0064798Y0013611D01*
X0065165Y0013978D01*
X0064798Y0011768D02*
X0064798Y0011034D01*
X0064798Y0011401D02*
X0066633Y0011401D01*
X0067000Y0011034D01*
X0067000Y0010667D01*
X0066633Y0010300D01*
X0066261Y0100600D02*
X0065360Y0100600D01*
X0064720Y0100600D02*
X0064720Y0101801D01*
X0065360Y0101501D02*
X0065661Y0101801D01*
X0066561Y0101801D01*
X0066261Y0101201D02*
X0065661Y0101201D01*
X0065360Y0101501D01*
X0066261Y0101201D02*
X0066561Y0100900D01*
X0066261Y0100600D01*
X0064720Y0100600D02*
X0063819Y0100600D01*
X0063519Y0100900D01*
X0063519Y0101801D01*
X0062878Y0101501D02*
X0062878Y0100900D01*
X0062578Y0100600D01*
X0061977Y0100600D01*
X0061677Y0100900D01*
X0061677Y0101501D01*
X0061977Y0101801D01*
X0062578Y0101801D01*
X0062878Y0101501D01*
X0061037Y0101501D02*
X0061037Y0100600D01*
X0060436Y0100600D02*
X0060436Y0101501D01*
X0060736Y0101801D01*
X0061037Y0101501D01*
X0060436Y0101501D02*
X0060136Y0101801D01*
X0059836Y0101801D01*
X0059836Y0100600D01*
X0059195Y0100900D02*
X0059195Y0101501D01*
X0058895Y0101801D01*
X0058294Y0101801D01*
X0057994Y0101501D01*
X0057994Y0100900D01*
X0058294Y0100600D01*
X0058895Y0100600D01*
X0059195Y0100900D01*
X0057353Y0100600D02*
X0057353Y0101501D01*
X0057053Y0101801D01*
X0056152Y0101801D01*
X0056152Y0100600D01*
X0055512Y0100900D02*
X0055512Y0101501D01*
X0055212Y0101801D01*
X0054611Y0101801D01*
X0054311Y0101501D01*
X0054311Y0100900D01*
X0054611Y0100600D01*
X0055212Y0100600D01*
X0055512Y0100900D01*
X0053684Y0100600D02*
X0053383Y0100900D01*
X0053383Y0102101D01*
X0053083Y0101801D02*
X0053684Y0101801D01*
X0052443Y0101801D02*
X0052443Y0100600D01*
X0051542Y0100600D01*
X0051242Y0100900D01*
X0051242Y0101801D01*
X0050601Y0101501D02*
X0050601Y0100600D01*
X0049700Y0100600D01*
X0049400Y0100900D01*
X0049700Y0101201D01*
X0050601Y0101201D01*
X0050601Y0101501D02*
X0050301Y0101801D01*
X0049700Y0101801D01*
X0050000Y0104200D02*
X0048800Y0105100D01*
X0049300Y0105300D01*
X0049000Y0106000D01*
X0049800Y0105800D01*
X0049900Y0106300D01*
X0050700Y0105600D01*
X0050300Y0107200D01*
X0051000Y0106900D01*
X0051500Y0108000D01*
X0052000Y0106900D01*
X0052600Y0107200D01*
X0052200Y0105600D01*
X0069043Y0101801D02*
X0069043Y0100600D01*
X0069043Y0101201D02*
X0069644Y0101801D01*
X0069944Y0101801D01*
X0070578Y0101501D02*
X0070578Y0100900D01*
X0070878Y0100600D01*
X0071479Y0100600D01*
X0071779Y0100900D01*
X0071779Y0101501D01*
X0071479Y0101801D01*
X0070878Y0101801D01*
X0070578Y0101501D01*
X0072420Y0101801D02*
X0073320Y0101801D01*
X0073621Y0101501D01*
X0073621Y0100900D01*
X0073320Y0100600D01*
X0072420Y0100600D01*
X0072420Y0102402D01*
X0074261Y0101501D02*
X0074261Y0100900D01*
X0074561Y0100600D01*
X0075162Y0100600D01*
X0075462Y0100900D01*
X0075462Y0101501D01*
X0075162Y0101801D01*
X0074561Y0101801D01*
X0074261Y0101501D01*
X0076103Y0101801D02*
X0076703Y0101801D01*
X0076403Y0102101D02*
X0076403Y0100900D01*
X0076703Y0100600D01*
X0077330Y0100600D02*
X0077931Y0100600D01*
X0077631Y0100600D02*
X0077631Y0101801D01*
X0077330Y0101801D01*
X0077631Y0102402D02*
X0077631Y0102702D01*
X0078558Y0101501D02*
X0078558Y0100900D01*
X0078858Y0100600D01*
X0079759Y0100600D01*
X0079759Y0101801D02*
X0078858Y0101801D01*
X0078558Y0101501D01*
X0082241Y0101801D02*
X0082842Y0100600D01*
X0083442Y0101801D01*
X0084083Y0101501D02*
X0084383Y0101801D01*
X0084984Y0101801D01*
X0085284Y0101501D01*
X0085284Y0101201D01*
X0084083Y0101201D01*
X0084083Y0101501D02*
X0084083Y0100900D01*
X0084383Y0100600D01*
X0084984Y0100600D01*
X0085924Y0100600D02*
X0085924Y0102402D01*
X0086225Y0101801D02*
X0086825Y0101801D01*
X0087126Y0101501D01*
X0087126Y0100600D01*
X0087766Y0100600D02*
X0088367Y0100600D01*
X0088066Y0100600D02*
X0088066Y0101801D01*
X0087766Y0101801D01*
X0088066Y0102402D02*
X0088066Y0102702D01*
X0088994Y0101501D02*
X0088994Y0100900D01*
X0089294Y0100600D01*
X0090195Y0100600D01*
X0090835Y0100600D02*
X0091436Y0100600D01*
X0091136Y0100600D02*
X0091136Y0102402D01*
X0090835Y0102402D01*
X0090195Y0101801D02*
X0089294Y0101801D01*
X0088994Y0101501D01*
X0086225Y0101801D02*
X0085924Y0101501D01*
X0092063Y0101501D02*
X0092063Y0100900D01*
X0092363Y0100600D01*
X0092964Y0100600D01*
X0093264Y0101201D02*
X0092063Y0101201D01*
X0092063Y0101501D02*
X0092363Y0101801D01*
X0092964Y0101801D01*
X0093264Y0101501D01*
X0093264Y0101201D01*
X0095746Y0101801D02*
X0095746Y0099999D01*
X0095746Y0100600D02*
X0096647Y0100600D01*
X0096947Y0100900D01*
X0096947Y0101501D01*
X0096647Y0101801D01*
X0095746Y0101801D01*
X0097588Y0101801D02*
X0097588Y0100600D01*
X0097588Y0101201D02*
X0098188Y0101801D01*
X0098489Y0101801D01*
X0099122Y0101501D02*
X0099122Y0100900D01*
X0099423Y0100600D01*
X0100023Y0100600D01*
X0100323Y0100900D01*
X0100323Y0101501D01*
X0100023Y0101801D01*
X0099423Y0101801D01*
X0099122Y0101501D01*
X0100964Y0099999D02*
X0101264Y0099999D01*
X0101564Y0100300D01*
X0101564Y0101801D01*
X0101564Y0102402D02*
X0101564Y0102702D01*
X0102492Y0101801D02*
X0103092Y0101801D01*
X0103393Y0101501D01*
X0103393Y0101201D01*
X0102192Y0101201D01*
X0102192Y0101501D02*
X0102192Y0100900D01*
X0102492Y0100600D01*
X0103092Y0100600D01*
X0104033Y0100900D02*
X0104033Y0101501D01*
X0104333Y0101801D01*
X0105234Y0101801D01*
X0105875Y0101801D02*
X0106475Y0101801D01*
X0106175Y0102101D02*
X0106175Y0100900D01*
X0106475Y0100600D01*
X0105234Y0100600D02*
X0104333Y0100600D01*
X0104033Y0100900D01*
X0102492Y0101801D02*
X0102192Y0101501D01*
D14*
X0105400Y0105300D02*
X0093000Y0105300D01*
X0093000Y0103400D01*
X0093000Y0105300D02*
X0093000Y0110000D01*
X0105400Y0110000D01*
X0105451Y0109999D01*
X0105501Y0109994D01*
X0105550Y0109986D01*
X0105599Y0109974D01*
X0105647Y0109959D01*
X0105694Y0109940D01*
X0105739Y0109918D01*
X0105783Y0109893D01*
X0105825Y0109865D01*
X0105864Y0109833D01*
X0105901Y0109799D01*
X0105935Y0109762D01*
X0105967Y0109723D01*
X0105996Y0109682D01*
X0106022Y0109638D01*
X0106044Y0109593D01*
X0106063Y0109547D01*
X0106079Y0109499D01*
X0106091Y0109450D01*
X0106100Y0109400D01*
X0106100Y0106000D01*
X0106100Y0105900D01*
X0106100Y0106000D02*
X0106099Y0105949D01*
X0106094Y0105899D01*
X0106086Y0105850D01*
X0106074Y0105801D01*
X0106059Y0105753D01*
X0106040Y0105706D01*
X0106018Y0105661D01*
X0105993Y0105617D01*
X0105965Y0105575D01*
X0105933Y0105536D01*
X0105899Y0105499D01*
X0105862Y0105465D01*
X0105823Y0105433D01*
X0105782Y0105404D01*
X0105738Y0105378D01*
X0105693Y0105356D01*
X0105647Y0105337D01*
X0105599Y0105321D01*
X0105550Y0105309D01*
X0105500Y0105300D01*
X0091500Y0110000D02*
X0078700Y0103600D01*
X0078700Y0110100D01*
X0077100Y0109400D02*
X0077100Y0106000D01*
X0077100Y0105900D01*
X0077100Y0106000D02*
X0077099Y0105949D01*
X0077094Y0105899D01*
X0077086Y0105850D01*
X0077074Y0105801D01*
X0077059Y0105753D01*
X0077040Y0105706D01*
X0077018Y0105661D01*
X0076993Y0105617D01*
X0076965Y0105575D01*
X0076933Y0105536D01*
X0076899Y0105499D01*
X0076862Y0105465D01*
X0076823Y0105433D01*
X0076782Y0105404D01*
X0076738Y0105378D01*
X0076693Y0105356D01*
X0076647Y0105337D01*
X0076599Y0105321D01*
X0076550Y0105309D01*
X0076500Y0105300D01*
X0076400Y0105300D02*
X0076300Y0105300D01*
X0064000Y0105300D01*
X0064000Y0103400D01*
X0062700Y0103400D02*
X0062700Y0110100D01*
X0062500Y0110000D02*
X0050200Y0103400D01*
X0053800Y0105300D02*
X0062500Y0105300D01*
X0064000Y0105300D02*
X0064000Y0110000D01*
X0076400Y0110000D01*
X0076451Y0109999D01*
X0076501Y0109994D01*
X0076550Y0109986D01*
X0076599Y0109974D01*
X0076647Y0109959D01*
X0076694Y0109940D01*
X0076739Y0109918D01*
X0076783Y0109893D01*
X0076825Y0109865D01*
X0076864Y0109833D01*
X0076901Y0109799D01*
X0076935Y0109762D01*
X0076967Y0109723D01*
X0076996Y0109682D01*
X0077022Y0109638D01*
X0077044Y0109593D01*
X0077063Y0109547D01*
X0077079Y0109499D01*
X0077091Y0109450D01*
X0077100Y0109400D01*
X0077000Y0104800D02*
X0077000Y0103400D01*
X0077000Y0104700D02*
X0076991Y0104750D01*
X0076979Y0104799D01*
X0076963Y0104846D01*
X0076944Y0104893D01*
X0076922Y0104938D01*
X0076896Y0104982D01*
X0076867Y0105023D01*
X0076836Y0105062D01*
X0076801Y0105099D01*
X0076764Y0105133D01*
X0076725Y0105165D01*
X0076683Y0105193D01*
X0076639Y0105218D01*
X0076594Y0105240D01*
X0076547Y0105259D01*
X0076499Y0105275D01*
X0076450Y0105286D01*
X0076400Y0105294D01*
X0076350Y0105299D01*
X0076300Y0105300D01*
X0116800Y0027500D02*
X0136800Y0027500D01*
X0136800Y0005500D01*
X0131800Y0005500D01*
X0131800Y0010500D01*
X0121800Y0010500D01*
X0121800Y0005500D01*
X0116800Y0005500D01*
X0116800Y0027500D01*
X0121800Y0005500D02*
X0131800Y0005500D01*
D15*
X0148849Y0022603D02*
X0148849Y0023354D01*
X0149099Y0023604D01*
X0149599Y0023604D01*
X0149850Y0023354D01*
X0149850Y0022603D01*
X0150350Y0022603D02*
X0148849Y0022603D01*
X0149850Y0023104D02*
X0150350Y0023604D01*
X0150100Y0024077D02*
X0150350Y0024327D01*
X0150350Y0024827D01*
X0150100Y0025078D01*
X0149850Y0025078D01*
X0149599Y0024827D01*
X0149599Y0024077D01*
X0150100Y0024077D01*
X0149599Y0024077D02*
X0149099Y0024577D01*
X0148849Y0025078D01*
X0148849Y0042603D02*
X0148849Y0043354D01*
X0149099Y0043604D01*
X0149599Y0043604D01*
X0149850Y0043354D01*
X0149850Y0042603D01*
X0150350Y0042603D02*
X0148849Y0042603D01*
X0149850Y0043104D02*
X0150350Y0043604D01*
X0150100Y0044077D02*
X0150350Y0044327D01*
X0150350Y0044827D01*
X0150100Y0045078D01*
X0149599Y0045078D01*
X0149349Y0044827D01*
X0149349Y0044577D01*
X0149599Y0044077D01*
X0148849Y0044077D01*
X0148849Y0045078D01*
X0124324Y0050050D02*
X0123323Y0050050D01*
X0124324Y0051051D01*
X0124324Y0051301D01*
X0124074Y0051551D01*
X0123573Y0051551D01*
X0123323Y0051301D01*
X0122851Y0051301D02*
X0122851Y0050801D01*
X0122601Y0050550D01*
X0121850Y0050550D01*
X0121850Y0050050D02*
X0121850Y0051551D01*
X0122601Y0051551D01*
X0122851Y0051301D01*
X0122350Y0050550D02*
X0122851Y0050050D01*
X0116250Y0036444D02*
X0114749Y0036444D01*
X0115499Y0036444D02*
X0115499Y0035443D01*
X0114999Y0034971D02*
X0114749Y0034720D01*
X0114749Y0034220D01*
X0114999Y0033970D01*
X0116000Y0033970D01*
X0116250Y0034220D01*
X0116250Y0034720D01*
X0116000Y0034971D01*
X0116250Y0035443D02*
X0114749Y0035443D01*
X0114749Y0033497D02*
X0116000Y0033497D01*
X0116250Y0033247D01*
X0116250Y0032747D01*
X0116000Y0032497D01*
X0114749Y0032497D01*
X0114999Y0032024D02*
X0114749Y0031774D01*
X0114749Y0031273D01*
X0114999Y0031023D01*
X0116000Y0031023D01*
X0116250Y0031273D01*
X0116250Y0031774D01*
X0116000Y0032024D01*
X0114999Y0032024D01*
X0114749Y0030551D02*
X0114749Y0029550D01*
X0114749Y0030050D02*
X0116250Y0030050D01*
X0081824Y0050801D02*
X0080823Y0050801D01*
X0081574Y0051551D01*
X0081574Y0050050D01*
X0080351Y0050050D02*
X0079850Y0050550D01*
X0080101Y0050550D02*
X0079350Y0050550D01*
X0079350Y0050050D02*
X0079350Y0051551D01*
X0080101Y0051551D01*
X0080351Y0051301D01*
X0080351Y0050801D01*
X0080101Y0050550D01*
X0073750Y0036444D02*
X0072249Y0036444D01*
X0072999Y0036444D02*
X0072999Y0035443D01*
X0072249Y0035443D02*
X0073750Y0035443D01*
X0073750Y0034470D02*
X0072249Y0034470D01*
X0072249Y0033970D02*
X0072249Y0034971D01*
X0072499Y0033497D02*
X0072249Y0033247D01*
X0072249Y0032497D01*
X0073750Y0032497D01*
X0073750Y0032024D02*
X0073750Y0031023D01*
X0072249Y0031023D01*
X0072249Y0032024D01*
X0072999Y0031524D02*
X0072999Y0031023D01*
X0072499Y0030551D02*
X0072249Y0030301D01*
X0072249Y0029550D01*
X0073750Y0029550D01*
X0073750Y0030301D01*
X0073500Y0030551D01*
X0072499Y0030551D01*
X0073250Y0032497D02*
X0073250Y0033247D01*
X0072999Y0033497D01*
X0072499Y0033497D01*
X0051378Y0039700D02*
X0051127Y0039450D01*
X0050627Y0039450D01*
X0050377Y0039700D01*
X0049904Y0039450D02*
X0049404Y0039950D01*
X0049654Y0039950D02*
X0048903Y0039950D01*
X0048903Y0039450D02*
X0048903Y0040951D01*
X0049654Y0040951D01*
X0049904Y0040701D01*
X0049904Y0040201D01*
X0049654Y0039950D01*
X0050377Y0040701D02*
X0050627Y0040951D01*
X0051127Y0040951D01*
X0051378Y0040701D01*
X0051378Y0040451D01*
X0051127Y0040201D01*
X0051378Y0039950D01*
X0051378Y0039700D01*
X0051127Y0040201D02*
X0050877Y0040201D01*
X0036350Y0033327D02*
X0036100Y0033578D01*
X0034849Y0033578D01*
X0034849Y0032577D02*
X0036100Y0032577D01*
X0036350Y0032827D01*
X0036350Y0033327D01*
X0036350Y0032104D02*
X0034849Y0032104D01*
X0035349Y0031604D01*
X0034849Y0031103D01*
X0036350Y0031103D01*
X0036350Y0030622D02*
X0036350Y0030121D01*
X0036350Y0030372D02*
X0034849Y0030372D01*
X0034849Y0030622D02*
X0034849Y0030121D01*
X0021378Y0039450D02*
X0020377Y0039450D01*
X0019904Y0039450D02*
X0019404Y0039950D01*
X0019654Y0039950D02*
X0018903Y0039950D01*
X0018903Y0039450D02*
X0018903Y0040951D01*
X0019654Y0040951D01*
X0019904Y0040701D01*
X0019904Y0040201D01*
X0019654Y0039950D01*
X0020377Y0040451D02*
X0020877Y0040951D01*
X0020877Y0039450D01*
X0006350Y0036078D02*
X0006350Y0035077D01*
X0004849Y0035077D01*
X0005349Y0034604D02*
X0006350Y0034604D01*
X0005599Y0034604D02*
X0005599Y0033603D01*
X0005349Y0033603D02*
X0004849Y0034104D01*
X0005349Y0034604D01*
X0005349Y0033603D02*
X0006350Y0033603D01*
X0006350Y0033122D02*
X0006350Y0032621D01*
X0006350Y0032872D02*
X0004849Y0032872D01*
X0004849Y0033122D02*
X0004849Y0032621D01*
X0005099Y0032149D02*
X0005599Y0032149D01*
X0005850Y0031899D01*
X0005850Y0031148D01*
X0006350Y0031148D02*
X0004849Y0031148D01*
X0004849Y0031899D01*
X0005099Y0032149D01*
X0005850Y0031648D02*
X0006350Y0032149D01*
X0006350Y0030676D02*
X0006350Y0029675D01*
X0004849Y0029675D01*
X0004849Y0030676D01*
X0005599Y0030175D02*
X0005599Y0029675D01*
X0005850Y0029202D02*
X0006100Y0029202D01*
X0006350Y0028952D01*
X0006350Y0028452D01*
X0006100Y0028202D01*
X0005599Y0028452D02*
X0005599Y0028952D01*
X0005850Y0029202D01*
X0005099Y0029202D02*
X0004849Y0028952D01*
X0004849Y0028452D01*
X0005099Y0028202D01*
X0005349Y0028202D01*
X0005599Y0028452D01*
M02*
