G75*
G70*
%OFA0B0*%
%FSLAX24Y24*%
%IPPOS*%
%LPD*%
%AMOC8*
5,1,8,0,0,1.08239X$1,22.5*
%
%ADD10C,0.0100*%
%ADD11C,0.0040*%
%ADD12C,0.0000*%
%ADD13C,0.0050*%
%ADD14C,0.0020*%
D10*
X000150Y005775D02*
X000157Y006051D01*
X000177Y006326D01*
X000211Y006600D01*
X000258Y006872D01*
X000319Y007142D01*
X000392Y007408D01*
X000479Y007670D01*
X000578Y007928D01*
X000690Y008180D01*
X000814Y008427D01*
X000950Y008667D01*
X001098Y008900D01*
X001257Y009126D01*
X001427Y009343D01*
X001607Y009553D01*
X001798Y009752D01*
X001997Y009943D01*
X002207Y010123D01*
X002424Y010293D01*
X002650Y010452D01*
X002883Y010600D01*
X003123Y010736D01*
X003370Y010860D01*
X003622Y010972D01*
X003880Y011071D01*
X004142Y011158D01*
X004408Y011231D01*
X004678Y011292D01*
X004950Y011339D01*
X005224Y011373D01*
X005499Y011393D01*
X005775Y011400D01*
X006051Y011393D01*
X006326Y011373D01*
X006600Y011339D01*
X006872Y011292D01*
X007142Y011231D01*
X007408Y011158D01*
X007670Y011071D01*
X007928Y010972D01*
X008180Y010860D01*
X008427Y010736D01*
X008667Y010600D01*
X008900Y010452D01*
X009126Y010293D01*
X009343Y010123D01*
X009553Y009943D01*
X009752Y009752D01*
X009943Y009553D01*
X010123Y009343D01*
X010293Y009126D01*
X010452Y008900D01*
X010600Y008667D01*
X010736Y008427D01*
X010860Y008180D01*
X010972Y007928D01*
X011071Y007670D01*
X011158Y007408D01*
X011231Y007142D01*
X011292Y006872D01*
X011339Y006600D01*
X011373Y006326D01*
X011393Y006051D01*
X011400Y005775D01*
X011393Y005499D01*
X011373Y005224D01*
X011339Y004950D01*
X011292Y004678D01*
X011231Y004408D01*
X011158Y004142D01*
X011071Y003880D01*
X010972Y003622D01*
X010860Y003370D01*
X010736Y003123D01*
X010600Y002883D01*
X010452Y002650D01*
X010293Y002424D01*
X010123Y002207D01*
X009943Y001997D01*
X009752Y001798D01*
X009553Y001607D01*
X009343Y001427D01*
X009126Y001257D01*
X008900Y001098D01*
X008667Y000950D01*
X008427Y000814D01*
X008180Y000690D01*
X007928Y000578D01*
X007670Y000479D01*
X007408Y000392D01*
X007142Y000319D01*
X006872Y000258D01*
X006600Y000211D01*
X006326Y000177D01*
X006051Y000157D01*
X005775Y000150D01*
X005499Y000157D01*
X005224Y000177D01*
X004950Y000211D01*
X004678Y000258D01*
X004408Y000319D01*
X004142Y000392D01*
X003880Y000479D01*
X003622Y000578D01*
X003370Y000690D01*
X003123Y000814D01*
X002883Y000950D01*
X002650Y001098D01*
X002424Y001257D01*
X002207Y001427D01*
X001997Y001607D01*
X001798Y001798D01*
X001607Y001997D01*
X001427Y002207D01*
X001257Y002424D01*
X001098Y002650D01*
X000950Y002883D01*
X000814Y003123D01*
X000690Y003370D01*
X000578Y003622D01*
X000479Y003880D01*
X000392Y004142D01*
X000319Y004408D01*
X000258Y004678D01*
X000211Y004950D01*
X000177Y005224D01*
X000157Y005499D01*
X000150Y005775D01*
D11*
X004370Y001062D02*
X004370Y001028D01*
X004403Y000995D01*
X004470Y000995D01*
X004503Y001028D01*
X004503Y001095D01*
X004403Y001095D01*
X004370Y001062D01*
X004436Y001162D02*
X004370Y001195D01*
X004436Y001162D02*
X004503Y001095D01*
X004591Y000995D02*
X004724Y000995D01*
X004657Y000995D02*
X004657Y001195D01*
X004724Y001128D01*
X004812Y001162D02*
X004812Y001028D01*
X004845Y000995D01*
X004912Y000995D01*
X004945Y001028D01*
X004812Y001162D01*
X004845Y001195D01*
X004912Y001195D01*
X004945Y001162D01*
X004945Y001028D01*
X005033Y000995D02*
X005166Y000995D01*
X005033Y001128D01*
X005033Y001162D01*
X005066Y001195D01*
X005133Y001195D01*
X005166Y001162D01*
X005475Y001162D02*
X005475Y001028D01*
X005508Y000995D01*
X005608Y000995D01*
X005608Y001195D01*
X005508Y001195D01*
X005475Y001162D01*
X005696Y000995D02*
X005829Y000995D01*
X005829Y001195D01*
X005917Y001162D02*
X005917Y001028D01*
X005950Y000995D01*
X006017Y000995D01*
X006050Y001028D01*
X006050Y001162D01*
X006017Y001195D01*
X005950Y001195D01*
X005917Y001162D01*
X006138Y001195D02*
X006204Y001195D01*
X006171Y001195D02*
X006171Y001028D01*
X006204Y000995D01*
X006238Y000995D01*
X006271Y001028D01*
X006359Y001028D02*
X006359Y001195D01*
X006492Y001195D02*
X006492Y001028D01*
X006459Y000995D01*
X006392Y000995D01*
X006359Y001028D01*
X006580Y001028D02*
X006613Y000995D01*
X006713Y000995D01*
X006713Y001195D01*
X006613Y001195D01*
X006580Y001162D01*
X006580Y001128D01*
X006613Y001095D01*
X006713Y001095D01*
X006613Y001095D02*
X006580Y001062D01*
X006580Y001028D01*
X007022Y000995D02*
X007022Y001195D01*
X007088Y001128D01*
X007155Y001195D01*
X007155Y000995D01*
D12*
X007135Y010275D02*
X007137Y010325D01*
X007143Y010375D01*
X007153Y010424D01*
X007166Y010473D01*
X007184Y010520D01*
X007205Y010566D01*
X007229Y010609D01*
X007257Y010651D01*
X007288Y010691D01*
X007322Y010728D01*
X007359Y010762D01*
X007399Y010793D01*
X007441Y010821D01*
X007484Y010845D01*
X007530Y010866D01*
X007577Y010884D01*
X007626Y010897D01*
X007675Y010907D01*
X007725Y010913D01*
X007775Y010915D01*
X007825Y010913D01*
X007875Y010907D01*
X007924Y010897D01*
X007973Y010884D01*
X008020Y010866D01*
X008066Y010845D01*
X008109Y010821D01*
X008151Y010793D01*
X008191Y010762D01*
X008228Y010728D01*
X008262Y010691D01*
X008293Y010651D01*
X008321Y010609D01*
X008345Y010566D01*
X008366Y010520D01*
X008384Y010473D01*
X008397Y010424D01*
X008407Y010375D01*
X008413Y010325D01*
X008415Y010275D01*
X008413Y010225D01*
X008407Y010175D01*
X008397Y010126D01*
X008384Y010077D01*
X008366Y010030D01*
X008345Y009984D01*
X008321Y009941D01*
X008293Y009899D01*
X008262Y009859D01*
X008228Y009822D01*
X008191Y009788D01*
X008151Y009757D01*
X008109Y009729D01*
X008066Y009705D01*
X008020Y009684D01*
X007973Y009666D01*
X007924Y009653D01*
X007875Y009643D01*
X007825Y009637D01*
X007775Y009635D01*
X007725Y009637D01*
X007675Y009643D01*
X007626Y009653D01*
X007577Y009666D01*
X007530Y009684D01*
X007484Y009705D01*
X007441Y009729D01*
X007399Y009757D01*
X007359Y009788D01*
X007322Y009822D01*
X007288Y009859D01*
X007257Y009899D01*
X007229Y009941D01*
X007205Y009984D01*
X007184Y010030D01*
X007166Y010077D01*
X007153Y010126D01*
X007143Y010175D01*
X007137Y010225D01*
X007135Y010275D01*
X003135Y010275D02*
X003137Y010325D01*
X003143Y010375D01*
X003153Y010424D01*
X003166Y010473D01*
X003184Y010520D01*
X003205Y010566D01*
X003229Y010609D01*
X003257Y010651D01*
X003288Y010691D01*
X003322Y010728D01*
X003359Y010762D01*
X003399Y010793D01*
X003441Y010821D01*
X003484Y010845D01*
X003530Y010866D01*
X003577Y010884D01*
X003626Y010897D01*
X003675Y010907D01*
X003725Y010913D01*
X003775Y010915D01*
X003825Y010913D01*
X003875Y010907D01*
X003924Y010897D01*
X003973Y010884D01*
X004020Y010866D01*
X004066Y010845D01*
X004109Y010821D01*
X004151Y010793D01*
X004191Y010762D01*
X004228Y010728D01*
X004262Y010691D01*
X004293Y010651D01*
X004321Y010609D01*
X004345Y010566D01*
X004366Y010520D01*
X004384Y010473D01*
X004397Y010424D01*
X004407Y010375D01*
X004413Y010325D01*
X004415Y010275D01*
X004413Y010225D01*
X004407Y010175D01*
X004397Y010126D01*
X004384Y010077D01*
X004366Y010030D01*
X004345Y009984D01*
X004321Y009941D01*
X004293Y009899D01*
X004262Y009859D01*
X004228Y009822D01*
X004191Y009788D01*
X004151Y009757D01*
X004109Y009729D01*
X004066Y009705D01*
X004020Y009684D01*
X003973Y009666D01*
X003924Y009653D01*
X003875Y009643D01*
X003825Y009637D01*
X003775Y009635D01*
X003725Y009637D01*
X003675Y009643D01*
X003626Y009653D01*
X003577Y009666D01*
X003530Y009684D01*
X003484Y009705D01*
X003441Y009729D01*
X003399Y009757D01*
X003359Y009788D01*
X003322Y009822D01*
X003288Y009859D01*
X003257Y009899D01*
X003229Y009941D01*
X003205Y009984D01*
X003184Y010030D01*
X003166Y010077D01*
X003153Y010126D01*
X003143Y010175D01*
X003137Y010225D01*
X003135Y010275D01*
D13*
X003065Y009325D02*
X004305Y009325D01*
X004305Y008855D01*
X003065Y008855D01*
X003055Y008856D02*
X003041Y008859D01*
X003028Y008865D01*
X003017Y008874D01*
X003007Y008885D01*
X003000Y008897D01*
X002996Y008911D01*
X002995Y008925D01*
X002995Y008915D01*
X002995Y008925D02*
X002995Y009265D01*
X002996Y009265D02*
X002999Y009279D01*
X003005Y009292D01*
X003014Y009303D01*
X003025Y009313D01*
X003037Y009320D01*
X003051Y009324D01*
X003065Y009325D01*
X004305Y008855D02*
X004305Y008665D01*
X004455Y009325D02*
X005735Y008685D01*
X005735Y009335D01*
X005895Y009265D02*
X005895Y008925D01*
X005895Y008915D01*
X005895Y008925D02*
X005896Y008911D01*
X005900Y008897D01*
X005907Y008885D01*
X005917Y008874D01*
X005928Y008865D01*
X005941Y008859D01*
X005955Y008856D01*
X005965Y008855D02*
X005975Y008855D01*
X007205Y008855D01*
X007205Y008665D01*
X007335Y008665D02*
X007335Y009335D01*
X007355Y009325D02*
X008585Y008665D01*
X008225Y008855D02*
X007355Y008855D01*
X007205Y008855D02*
X007205Y009325D01*
X005965Y009325D01*
X005951Y009324D01*
X005937Y009320D01*
X005925Y009313D01*
X005914Y009303D01*
X005905Y009292D01*
X005899Y009279D01*
X005896Y009265D01*
X005905Y008805D02*
X005905Y008665D01*
X005906Y008795D02*
X005909Y008809D01*
X005915Y008822D01*
X005924Y008833D01*
X005935Y008843D01*
X005947Y008850D01*
X005961Y008854D01*
X005975Y008855D01*
D14*
X005842Y008595D02*
X005842Y008565D01*
X005842Y008505D02*
X005842Y008385D01*
X005872Y008385D02*
X005812Y008385D01*
X005749Y008415D02*
X005749Y008475D01*
X005719Y008505D01*
X005629Y008505D01*
X005629Y008385D02*
X005719Y008385D01*
X005749Y008415D01*
X005842Y008505D02*
X005872Y008505D01*
X005935Y008505D02*
X005995Y008505D01*
X005965Y008535D02*
X005965Y008415D01*
X005935Y008385D01*
X006059Y008415D02*
X006059Y008475D01*
X006089Y008505D01*
X006149Y008505D01*
X006179Y008475D01*
X006179Y008415D01*
X006149Y008385D01*
X006089Y008385D01*
X006059Y008415D01*
X006243Y008415D02*
X006243Y008475D01*
X006273Y008505D01*
X006363Y008505D01*
X006363Y008565D02*
X006363Y008385D01*
X006273Y008385D01*
X006243Y008415D01*
X006427Y008415D02*
X006427Y008475D01*
X006457Y008505D01*
X006517Y008505D01*
X006547Y008475D01*
X006547Y008415D01*
X006517Y008385D01*
X006457Y008385D01*
X006427Y008415D01*
X006611Y008505D02*
X006641Y008505D01*
X006701Y008445D01*
X006701Y008385D02*
X006701Y008505D01*
X006949Y008505D02*
X007039Y008505D01*
X007069Y008475D01*
X007039Y008445D01*
X006979Y008445D01*
X006949Y008415D01*
X006979Y008385D01*
X007069Y008385D01*
X007133Y008385D02*
X007133Y008505D01*
X007133Y008385D02*
X007223Y008385D01*
X007253Y008415D01*
X007253Y008505D01*
X007317Y008475D02*
X007317Y008415D01*
X007347Y008385D01*
X007407Y008385D01*
X007437Y008415D01*
X007437Y008475D01*
X007407Y008505D01*
X007347Y008505D01*
X007317Y008475D01*
X007501Y008475D02*
X007501Y008385D01*
X007561Y008385D02*
X007561Y008475D01*
X007531Y008505D01*
X007501Y008475D01*
X007561Y008475D02*
X007591Y008505D01*
X007621Y008505D01*
X007621Y008385D01*
X007685Y008415D02*
X007685Y008475D01*
X007716Y008505D01*
X007776Y008505D01*
X007806Y008475D01*
X007806Y008415D01*
X007776Y008385D01*
X007716Y008385D01*
X007685Y008415D01*
X007870Y008385D02*
X007870Y008475D01*
X007900Y008505D01*
X007990Y008505D01*
X007990Y008385D01*
X008054Y008415D02*
X008054Y008475D01*
X008084Y008505D01*
X008144Y008505D01*
X008174Y008475D01*
X008174Y008415D01*
X008144Y008385D01*
X008084Y008385D01*
X008054Y008415D01*
X008237Y008385D02*
X008267Y008415D01*
X008267Y008535D01*
X008297Y008505D02*
X008237Y008505D01*
X008361Y008505D02*
X008361Y008385D01*
X008451Y008385D01*
X008481Y008415D01*
X008481Y008505D01*
X008545Y008475D02*
X008545Y008385D01*
X008635Y008385D01*
X008665Y008415D01*
X008635Y008445D01*
X008545Y008445D01*
X008545Y008475D02*
X008575Y008505D01*
X008635Y008505D01*
X008605Y008745D02*
X008725Y008835D01*
X008675Y008855D01*
X008705Y008925D01*
X008625Y008905D01*
X008615Y008955D01*
X008535Y008885D01*
X008575Y009045D01*
X008505Y009015D01*
X008455Y009125D01*
X008405Y009015D01*
X008345Y009045D01*
X008385Y008885D01*
X005381Y008505D02*
X005321Y008385D01*
X005261Y008505D01*
X005197Y008475D02*
X005197Y008415D01*
X005167Y008385D01*
X005107Y008385D01*
X005077Y008445D02*
X005197Y008445D01*
X005197Y008475D02*
X005167Y008505D01*
X005107Y008505D01*
X005077Y008475D01*
X005077Y008445D01*
X005013Y008475D02*
X004983Y008505D01*
X004922Y008505D01*
X004892Y008475D01*
X004892Y008385D01*
X004828Y008385D02*
X004768Y008385D01*
X004798Y008385D02*
X004798Y008505D01*
X004828Y008505D01*
X004798Y008565D02*
X004798Y008595D01*
X004706Y008475D02*
X004706Y008415D01*
X004676Y008385D01*
X004586Y008385D01*
X004521Y008385D02*
X004461Y008385D01*
X004491Y008385D02*
X004491Y008565D01*
X004521Y008565D01*
X004586Y008505D02*
X004676Y008505D01*
X004706Y008475D01*
X004399Y008475D02*
X004399Y008415D01*
X004369Y008385D01*
X004309Y008385D01*
X004279Y008445D02*
X004399Y008445D01*
X004399Y008475D02*
X004369Y008505D01*
X004309Y008505D01*
X004279Y008475D01*
X004279Y008445D01*
X004030Y008385D02*
X003940Y008385D01*
X003910Y008415D01*
X003910Y008475D01*
X003940Y008505D01*
X004030Y008505D01*
X004030Y008325D01*
X003846Y008385D02*
X003846Y008505D01*
X003846Y008445D02*
X003786Y008505D01*
X003756Y008505D01*
X003693Y008475D02*
X003693Y008415D01*
X003663Y008385D01*
X003603Y008385D01*
X003573Y008415D01*
X003573Y008475D01*
X003603Y008505D01*
X003663Y008505D01*
X003693Y008475D01*
X003509Y008325D02*
X003479Y008325D01*
X003449Y008355D01*
X003449Y008505D01*
X003449Y008565D02*
X003449Y008595D01*
X003356Y008505D02*
X003296Y008505D01*
X003266Y008475D01*
X003266Y008445D01*
X003386Y008445D01*
X003386Y008415D02*
X003386Y008475D01*
X003356Y008505D01*
X003386Y008415D02*
X003356Y008385D01*
X003296Y008385D01*
X003202Y008415D02*
X003202Y008475D01*
X003172Y008505D01*
X003082Y008505D01*
X003018Y008505D02*
X002957Y008505D01*
X002987Y008535D02*
X002987Y008415D01*
X002957Y008385D01*
X003082Y008385D02*
X003172Y008385D01*
X003202Y008415D01*
X005013Y008385D02*
X005013Y008565D01*
M02*
