G75*
G70*
%OFA0B0*%
%FSLAX24Y24*%
%IPPOS*%
%LPD*%
%AMOC8*
5,1,8,0,0,1.08239X$1,22.5*
%
%ADD10C,0.0100*%
%ADD11C,0.0000*%
D10*
X000150Y005775D02*
X000157Y006051D01*
X000177Y006326D01*
X000211Y006600D01*
X000258Y006872D01*
X000319Y007142D01*
X000392Y007408D01*
X000479Y007670D01*
X000578Y007928D01*
X000690Y008180D01*
X000814Y008427D01*
X000950Y008667D01*
X001098Y008900D01*
X001257Y009126D01*
X001427Y009343D01*
X001607Y009553D01*
X001798Y009752D01*
X001997Y009943D01*
X002207Y010123D01*
X002424Y010293D01*
X002650Y010452D01*
X002883Y010600D01*
X003123Y010736D01*
X003370Y010860D01*
X003622Y010972D01*
X003880Y011071D01*
X004142Y011158D01*
X004408Y011231D01*
X004678Y011292D01*
X004950Y011339D01*
X005224Y011373D01*
X005499Y011393D01*
X005775Y011400D01*
X006051Y011393D01*
X006326Y011373D01*
X006600Y011339D01*
X006872Y011292D01*
X007142Y011231D01*
X007408Y011158D01*
X007670Y011071D01*
X007928Y010972D01*
X008180Y010860D01*
X008427Y010736D01*
X008667Y010600D01*
X008900Y010452D01*
X009126Y010293D01*
X009343Y010123D01*
X009553Y009943D01*
X009752Y009752D01*
X009943Y009553D01*
X010123Y009343D01*
X010293Y009126D01*
X010452Y008900D01*
X010600Y008667D01*
X010736Y008427D01*
X010860Y008180D01*
X010972Y007928D01*
X011071Y007670D01*
X011158Y007408D01*
X011231Y007142D01*
X011292Y006872D01*
X011339Y006600D01*
X011373Y006326D01*
X011393Y006051D01*
X011400Y005775D01*
X011393Y005499D01*
X011373Y005224D01*
X011339Y004950D01*
X011292Y004678D01*
X011231Y004408D01*
X011158Y004142D01*
X011071Y003880D01*
X010972Y003622D01*
X010860Y003370D01*
X010736Y003123D01*
X010600Y002883D01*
X010452Y002650D01*
X010293Y002424D01*
X010123Y002207D01*
X009943Y001997D01*
X009752Y001798D01*
X009553Y001607D01*
X009343Y001427D01*
X009126Y001257D01*
X008900Y001098D01*
X008667Y000950D01*
X008427Y000814D01*
X008180Y000690D01*
X007928Y000578D01*
X007670Y000479D01*
X007408Y000392D01*
X007142Y000319D01*
X006872Y000258D01*
X006600Y000211D01*
X006326Y000177D01*
X006051Y000157D01*
X005775Y000150D01*
X005499Y000157D01*
X005224Y000177D01*
X004950Y000211D01*
X004678Y000258D01*
X004408Y000319D01*
X004142Y000392D01*
X003880Y000479D01*
X003622Y000578D01*
X003370Y000690D01*
X003123Y000814D01*
X002883Y000950D01*
X002650Y001098D01*
X002424Y001257D01*
X002207Y001427D01*
X001997Y001607D01*
X001798Y001798D01*
X001607Y001997D01*
X001427Y002207D01*
X001257Y002424D01*
X001098Y002650D01*
X000950Y002883D01*
X000814Y003123D01*
X000690Y003370D01*
X000578Y003622D01*
X000479Y003880D01*
X000392Y004142D01*
X000319Y004408D01*
X000258Y004678D01*
X000211Y004950D01*
X000177Y005224D01*
X000157Y005499D01*
X000150Y005775D01*
D11*
X003135Y010275D02*
X003137Y010325D01*
X003143Y010375D01*
X003153Y010424D01*
X003166Y010473D01*
X003184Y010520D01*
X003205Y010566D01*
X003229Y010609D01*
X003257Y010651D01*
X003288Y010691D01*
X003322Y010728D01*
X003359Y010762D01*
X003399Y010793D01*
X003441Y010821D01*
X003484Y010845D01*
X003530Y010866D01*
X003577Y010884D01*
X003626Y010897D01*
X003675Y010907D01*
X003725Y010913D01*
X003775Y010915D01*
X003825Y010913D01*
X003875Y010907D01*
X003924Y010897D01*
X003973Y010884D01*
X004020Y010866D01*
X004066Y010845D01*
X004109Y010821D01*
X004151Y010793D01*
X004191Y010762D01*
X004228Y010728D01*
X004262Y010691D01*
X004293Y010651D01*
X004321Y010609D01*
X004345Y010566D01*
X004366Y010520D01*
X004384Y010473D01*
X004397Y010424D01*
X004407Y010375D01*
X004413Y010325D01*
X004415Y010275D01*
X004413Y010225D01*
X004407Y010175D01*
X004397Y010126D01*
X004384Y010077D01*
X004366Y010030D01*
X004345Y009984D01*
X004321Y009941D01*
X004293Y009899D01*
X004262Y009859D01*
X004228Y009822D01*
X004191Y009788D01*
X004151Y009757D01*
X004109Y009729D01*
X004066Y009705D01*
X004020Y009684D01*
X003973Y009666D01*
X003924Y009653D01*
X003875Y009643D01*
X003825Y009637D01*
X003775Y009635D01*
X003725Y009637D01*
X003675Y009643D01*
X003626Y009653D01*
X003577Y009666D01*
X003530Y009684D01*
X003484Y009705D01*
X003441Y009729D01*
X003399Y009757D01*
X003359Y009788D01*
X003322Y009822D01*
X003288Y009859D01*
X003257Y009899D01*
X003229Y009941D01*
X003205Y009984D01*
X003184Y010030D01*
X003166Y010077D01*
X003153Y010126D01*
X003143Y010175D01*
X003137Y010225D01*
X003135Y010275D01*
X007135Y010275D02*
X007137Y010325D01*
X007143Y010375D01*
X007153Y010424D01*
X007166Y010473D01*
X007184Y010520D01*
X007205Y010566D01*
X007229Y010609D01*
X007257Y010651D01*
X007288Y010691D01*
X007322Y010728D01*
X007359Y010762D01*
X007399Y010793D01*
X007441Y010821D01*
X007484Y010845D01*
X007530Y010866D01*
X007577Y010884D01*
X007626Y010897D01*
X007675Y010907D01*
X007725Y010913D01*
X007775Y010915D01*
X007825Y010913D01*
X007875Y010907D01*
X007924Y010897D01*
X007973Y010884D01*
X008020Y010866D01*
X008066Y010845D01*
X008109Y010821D01*
X008151Y010793D01*
X008191Y010762D01*
X008228Y010728D01*
X008262Y010691D01*
X008293Y010651D01*
X008321Y010609D01*
X008345Y010566D01*
X008366Y010520D01*
X008384Y010473D01*
X008397Y010424D01*
X008407Y010375D01*
X008413Y010325D01*
X008415Y010275D01*
X008413Y010225D01*
X008407Y010175D01*
X008397Y010126D01*
X008384Y010077D01*
X008366Y010030D01*
X008345Y009984D01*
X008321Y009941D01*
X008293Y009899D01*
X008262Y009859D01*
X008228Y009822D01*
X008191Y009788D01*
X008151Y009757D01*
X008109Y009729D01*
X008066Y009705D01*
X008020Y009684D01*
X007973Y009666D01*
X007924Y009653D01*
X007875Y009643D01*
X007825Y009637D01*
X007775Y009635D01*
X007725Y009637D01*
X007675Y009643D01*
X007626Y009653D01*
X007577Y009666D01*
X007530Y009684D01*
X007484Y009705D01*
X007441Y009729D01*
X007399Y009757D01*
X007359Y009788D01*
X007322Y009822D01*
X007288Y009859D01*
X007257Y009899D01*
X007229Y009941D01*
X007205Y009984D01*
X007184Y010030D01*
X007166Y010077D01*
X007153Y010126D01*
X007143Y010175D01*
X007137Y010225D01*
X007135Y010275D01*
M02*
