G75*
G70*
%OFA0B0*%
%FSLAX24Y24*%
%IPPOS*%
%LPD*%
%AMOC8*
5,1,8,0,0,1.08239X$1,22.5*
%
%ADD10C,0.0100*%
%ADD11C,0.0436*%
%ADD12R,0.0709X0.0630*%
%ADD13R,0.0630X0.0709*%
%ADD14R,0.0551X0.0315*%
%ADD15R,0.0748X0.0315*%
%ADD16C,0.0600*%
%ADD17R,0.0591X0.0591*%
%ADD18C,0.0740*%
%ADD19C,0.0000*%
%ADD20C,0.0160*%
%ADD21C,0.0396*%
D10*
X000150Y005775D02*
X000157Y006051D01*
X000177Y006326D01*
X000211Y006600D01*
X000258Y006872D01*
X000319Y007142D01*
X000392Y007408D01*
X000479Y007670D01*
X000578Y007928D01*
X000690Y008180D01*
X000814Y008427D01*
X000950Y008667D01*
X001098Y008900D01*
X001257Y009126D01*
X001427Y009343D01*
X001607Y009553D01*
X001798Y009752D01*
X001997Y009943D01*
X002207Y010123D01*
X002424Y010293D01*
X002650Y010452D01*
X002883Y010600D01*
X003123Y010736D01*
X003370Y010860D01*
X003622Y010972D01*
X003880Y011071D01*
X004142Y011158D01*
X004408Y011231D01*
X004678Y011292D01*
X004950Y011339D01*
X005224Y011373D01*
X005499Y011393D01*
X005775Y011400D01*
X006051Y011393D01*
X006326Y011373D01*
X006600Y011339D01*
X006872Y011292D01*
X007142Y011231D01*
X007408Y011158D01*
X007670Y011071D01*
X007928Y010972D01*
X008180Y010860D01*
X008427Y010736D01*
X008667Y010600D01*
X008900Y010452D01*
X009126Y010293D01*
X009343Y010123D01*
X009553Y009943D01*
X009752Y009752D01*
X009943Y009553D01*
X010123Y009343D01*
X010293Y009126D01*
X010452Y008900D01*
X010600Y008667D01*
X010736Y008427D01*
X010860Y008180D01*
X010972Y007928D01*
X011071Y007670D01*
X011158Y007408D01*
X011231Y007142D01*
X011292Y006872D01*
X011339Y006600D01*
X011373Y006326D01*
X011393Y006051D01*
X011400Y005775D01*
X011393Y005499D01*
X011373Y005224D01*
X011339Y004950D01*
X011292Y004678D01*
X011231Y004408D01*
X011158Y004142D01*
X011071Y003880D01*
X010972Y003622D01*
X010860Y003370D01*
X010736Y003123D01*
X010600Y002883D01*
X010452Y002650D01*
X010293Y002424D01*
X010123Y002207D01*
X009943Y001997D01*
X009752Y001798D01*
X009553Y001607D01*
X009343Y001427D01*
X009126Y001257D01*
X008900Y001098D01*
X008667Y000950D01*
X008427Y000814D01*
X008180Y000690D01*
X007928Y000578D01*
X007670Y000479D01*
X007408Y000392D01*
X007142Y000319D01*
X006872Y000258D01*
X006600Y000211D01*
X006326Y000177D01*
X006051Y000157D01*
X005775Y000150D01*
X005499Y000157D01*
X005224Y000177D01*
X004950Y000211D01*
X004678Y000258D01*
X004408Y000319D01*
X004142Y000392D01*
X003880Y000479D01*
X003622Y000578D01*
X003370Y000690D01*
X003123Y000814D01*
X002883Y000950D01*
X002650Y001098D01*
X002424Y001257D01*
X002207Y001427D01*
X001997Y001607D01*
X001798Y001798D01*
X001607Y001997D01*
X001427Y002207D01*
X001257Y002424D01*
X001098Y002650D01*
X000950Y002883D01*
X000814Y003123D01*
X000690Y003370D01*
X000578Y003622D01*
X000479Y003880D01*
X000392Y004142D01*
X000319Y004408D01*
X000258Y004678D01*
X000211Y004950D01*
X000177Y005224D01*
X000157Y005499D01*
X000150Y005775D01*
D11*
X005275Y005493D02*
X005275Y005057D01*
X005775Y005057D02*
X005775Y005493D01*
X006275Y005493D02*
X006275Y005057D01*
D12*
X009775Y005326D03*
X009775Y004224D03*
X009775Y006724D03*
X009775Y007826D03*
D13*
X008326Y004275D03*
X007224Y004275D03*
X007724Y002775D03*
X008826Y002775D03*
D14*
X003055Y004185D03*
X003055Y005365D03*
D15*
X002955Y004775D03*
D16*
X002323Y004875D02*
X002323Y004675D01*
X001487Y004675D01*
X001487Y004875D01*
X002323Y004875D01*
D17*
X005086Y002775D03*
X006464Y002775D03*
D18*
X006025Y006775D03*
X007025Y006775D03*
X006525Y007775D03*
X005525Y007775D03*
X004525Y007775D03*
X005025Y006775D03*
D19*
X003135Y010275D02*
X003137Y010325D01*
X003143Y010375D01*
X003153Y010424D01*
X003166Y010473D01*
X003184Y010520D01*
X003205Y010566D01*
X003229Y010609D01*
X003257Y010651D01*
X003288Y010691D01*
X003322Y010728D01*
X003359Y010762D01*
X003399Y010793D01*
X003441Y010821D01*
X003484Y010845D01*
X003530Y010866D01*
X003577Y010884D01*
X003626Y010897D01*
X003675Y010907D01*
X003725Y010913D01*
X003775Y010915D01*
X003825Y010913D01*
X003875Y010907D01*
X003924Y010897D01*
X003973Y010884D01*
X004020Y010866D01*
X004066Y010845D01*
X004109Y010821D01*
X004151Y010793D01*
X004191Y010762D01*
X004228Y010728D01*
X004262Y010691D01*
X004293Y010651D01*
X004321Y010609D01*
X004345Y010566D01*
X004366Y010520D01*
X004384Y010473D01*
X004397Y010424D01*
X004407Y010375D01*
X004413Y010325D01*
X004415Y010275D01*
X004413Y010225D01*
X004407Y010175D01*
X004397Y010126D01*
X004384Y010077D01*
X004366Y010030D01*
X004345Y009984D01*
X004321Y009941D01*
X004293Y009899D01*
X004262Y009859D01*
X004228Y009822D01*
X004191Y009788D01*
X004151Y009757D01*
X004109Y009729D01*
X004066Y009705D01*
X004020Y009684D01*
X003973Y009666D01*
X003924Y009653D01*
X003875Y009643D01*
X003825Y009637D01*
X003775Y009635D01*
X003725Y009637D01*
X003675Y009643D01*
X003626Y009653D01*
X003577Y009666D01*
X003530Y009684D01*
X003484Y009705D01*
X003441Y009729D01*
X003399Y009757D01*
X003359Y009788D01*
X003322Y009822D01*
X003288Y009859D01*
X003257Y009899D01*
X003229Y009941D01*
X003205Y009984D01*
X003184Y010030D01*
X003166Y010077D01*
X003153Y010126D01*
X003143Y010175D01*
X003137Y010225D01*
X003135Y010275D01*
X007135Y010275D02*
X007137Y010325D01*
X007143Y010375D01*
X007153Y010424D01*
X007166Y010473D01*
X007184Y010520D01*
X007205Y010566D01*
X007229Y010609D01*
X007257Y010651D01*
X007288Y010691D01*
X007322Y010728D01*
X007359Y010762D01*
X007399Y010793D01*
X007441Y010821D01*
X007484Y010845D01*
X007530Y010866D01*
X007577Y010884D01*
X007626Y010897D01*
X007675Y010907D01*
X007725Y010913D01*
X007775Y010915D01*
X007825Y010913D01*
X007875Y010907D01*
X007924Y010897D01*
X007973Y010884D01*
X008020Y010866D01*
X008066Y010845D01*
X008109Y010821D01*
X008151Y010793D01*
X008191Y010762D01*
X008228Y010728D01*
X008262Y010691D01*
X008293Y010651D01*
X008321Y010609D01*
X008345Y010566D01*
X008366Y010520D01*
X008384Y010473D01*
X008397Y010424D01*
X008407Y010375D01*
X008413Y010325D01*
X008415Y010275D01*
X008413Y010225D01*
X008407Y010175D01*
X008397Y010126D01*
X008384Y010077D01*
X008366Y010030D01*
X008345Y009984D01*
X008321Y009941D01*
X008293Y009899D01*
X008262Y009859D01*
X008228Y009822D01*
X008191Y009788D01*
X008151Y009757D01*
X008109Y009729D01*
X008066Y009705D01*
X008020Y009684D01*
X007973Y009666D01*
X007924Y009653D01*
X007875Y009643D01*
X007825Y009637D01*
X007775Y009635D01*
X007725Y009637D01*
X007675Y009643D01*
X007626Y009653D01*
X007577Y009666D01*
X007530Y009684D01*
X007484Y009705D01*
X007441Y009729D01*
X007399Y009757D01*
X007359Y009788D01*
X007322Y009822D01*
X007288Y009859D01*
X007257Y009899D01*
X007229Y009941D01*
X007205Y009984D01*
X007184Y010030D01*
X007166Y010077D01*
X007153Y010126D01*
X007143Y010175D01*
X007137Y010225D01*
X007135Y010275D01*
D20*
X002815Y002288D02*
X002073Y002288D01*
X002172Y002172D02*
X001653Y002780D01*
X001235Y003462D01*
X000929Y004201D01*
X000829Y004617D01*
X000800Y004805D01*
X000775Y005275D01*
X000775Y006275D01*
X000800Y006745D01*
X000829Y006933D01*
X000929Y007349D01*
X001235Y008088D01*
X001653Y008770D01*
X002172Y009378D01*
X002729Y009853D01*
X002731Y009843D01*
X002879Y009587D01*
X003087Y009379D01*
X003343Y009231D01*
X003628Y009155D01*
X003922Y009155D01*
X004207Y009231D01*
X004463Y009379D01*
X004671Y009587D01*
X004819Y009843D01*
X004895Y010128D01*
X004895Y010422D01*
X004819Y010707D01*
X004795Y010749D01*
X004805Y010750D01*
X005275Y010775D01*
X005775Y010775D01*
X006265Y010751D01*
X006725Y010683D01*
X006655Y010422D01*
X006655Y010128D01*
X006731Y009843D01*
X006879Y009587D01*
X007087Y009379D01*
X007343Y009231D01*
X007628Y009155D01*
X007922Y009155D01*
X008207Y009231D01*
X008463Y009379D01*
X008671Y009587D01*
X008775Y009767D01*
X008947Y009640D01*
X009311Y009311D01*
X009640Y008947D01*
X009932Y008553D01*
X010083Y008301D01*
X009354Y008301D01*
X009261Y008207D01*
X009261Y008066D01*
X006978Y008066D01*
X006974Y008075D01*
X006825Y008224D01*
X006630Y008305D01*
X006420Y008305D01*
X006225Y008224D01*
X006076Y008075D01*
X006025Y007953D01*
X005974Y008075D01*
X005825Y008224D01*
X005630Y008305D01*
X005420Y008305D01*
X005225Y008224D01*
X005076Y008075D01*
X005036Y007981D01*
X005035Y007986D01*
X004995Y008063D01*
X004945Y008133D01*
X004883Y008195D01*
X004813Y008245D01*
X004736Y008285D01*
X004654Y008311D01*
X004568Y008325D01*
X004545Y008325D01*
X004545Y007795D01*
X004505Y007795D01*
X004505Y008325D01*
X004482Y008325D01*
X004396Y008311D01*
X004314Y008285D01*
X004237Y008245D01*
X004167Y008195D01*
X004105Y008133D01*
X004055Y008063D01*
X004015Y007986D01*
X003989Y007904D01*
X003975Y007818D01*
X003975Y007795D01*
X004505Y007795D01*
X004505Y007755D01*
X004545Y007755D01*
X004545Y007225D01*
X004568Y007225D01*
X004654Y007239D01*
X004736Y007265D01*
X004813Y007305D01*
X004883Y007355D01*
X004945Y007417D01*
X004995Y007487D01*
X005035Y007564D01*
X005036Y007569D01*
X005076Y007475D01*
X005225Y007326D01*
X005420Y007245D01*
X005630Y007245D01*
X005825Y007326D01*
X005974Y007475D01*
X006025Y007597D01*
X006076Y007475D01*
X006225Y007326D01*
X006420Y007245D01*
X006630Y007245D01*
X006825Y007326D01*
X006974Y007475D01*
X007020Y007586D01*
X007535Y007586D01*
X007535Y006929D01*
X007474Y007075D01*
X007325Y007224D01*
X007130Y007305D01*
X006920Y007305D01*
X006725Y007224D01*
X006576Y007075D01*
X006525Y006953D01*
X006474Y007075D01*
X006325Y007224D01*
X006130Y007305D01*
X005920Y007305D01*
X005725Y007224D01*
X005576Y007075D01*
X005536Y006981D01*
X005535Y006986D01*
X005495Y007063D01*
X005445Y007133D01*
X005383Y007195D01*
X005313Y007245D01*
X005236Y007285D01*
X005154Y007311D01*
X005068Y007325D01*
X005045Y007325D01*
X005045Y006795D01*
X005005Y006795D01*
X005005Y007325D01*
X004982Y007325D01*
X004896Y007311D01*
X004814Y007285D01*
X004737Y007245D01*
X004667Y007195D01*
X004605Y007133D01*
X004555Y007063D01*
X004515Y006986D01*
X004489Y006904D01*
X004475Y006818D01*
X004475Y006795D01*
X005005Y006795D01*
X005005Y006755D01*
X005045Y006755D01*
X005045Y006225D01*
X005068Y006225D01*
X005154Y006239D01*
X005236Y006265D01*
X005313Y006305D01*
X005383Y006355D01*
X005445Y006417D01*
X005495Y006487D01*
X005535Y006564D01*
X005536Y006569D01*
X005576Y006475D01*
X005725Y006326D01*
X005751Y006315D01*
X005427Y006315D01*
X005339Y006278D01*
X005272Y006211D01*
X004981Y005921D01*
X004945Y005833D01*
X004945Y005684D01*
X004912Y005605D01*
X003474Y005605D01*
X003397Y005683D01*
X002713Y005683D01*
X002619Y005589D01*
X002619Y005230D01*
X002584Y005265D01*
X002415Y005335D01*
X001395Y005335D01*
X001226Y005265D01*
X001096Y005136D01*
X001026Y004966D01*
X001026Y004583D01*
X001096Y004414D01*
X001226Y004285D01*
X001395Y004215D01*
X002415Y004215D01*
X002584Y004285D01*
X002619Y004320D01*
X002619Y003961D01*
X002713Y003867D01*
X002815Y003867D01*
X002815Y001947D01*
X002851Y001859D01*
X003072Y001639D01*
X003139Y001572D01*
X003227Y001535D01*
X007823Y001535D01*
X007911Y001572D01*
X008411Y002072D01*
X008478Y002139D01*
X008515Y002227D01*
X008515Y002241D01*
X008749Y002241D01*
X008749Y002698D01*
X008904Y002698D01*
X008904Y002852D01*
X009321Y002852D01*
X009321Y003153D01*
X009309Y003199D01*
X009285Y003240D01*
X009252Y003273D01*
X009211Y003297D01*
X009165Y003309D01*
X008904Y003309D01*
X008904Y002852D01*
X008749Y002852D01*
X008749Y003309D01*
X008515Y003309D01*
X008515Y003761D01*
X008707Y003761D01*
X008801Y003854D01*
X008801Y003984D01*
X009261Y003984D01*
X009261Y003843D01*
X009354Y003749D01*
X010196Y003749D01*
X010289Y003843D01*
X010289Y004605D01*
X010196Y004699D01*
X009354Y004699D01*
X009261Y004605D01*
X009261Y004464D01*
X008801Y004464D01*
X008801Y004696D01*
X008707Y004789D01*
X007945Y004789D01*
X007851Y004696D01*
X007851Y003854D01*
X007945Y003761D01*
X008035Y003761D01*
X008035Y003289D01*
X007343Y003289D01*
X007249Y003196D01*
X007249Y003015D01*
X006919Y003015D01*
X006919Y003137D01*
X006826Y003230D01*
X006102Y003230D01*
X006009Y003137D01*
X006009Y002413D01*
X006102Y002320D01*
X006826Y002320D01*
X006919Y002413D01*
X006919Y002535D01*
X007249Y002535D01*
X007249Y002354D01*
X007343Y002261D01*
X007921Y002261D01*
X007676Y002015D01*
X003374Y002015D01*
X003295Y002094D01*
X003295Y003867D01*
X003397Y003867D01*
X003491Y003961D01*
X003491Y004409D01*
X003418Y004481D01*
X003473Y004535D01*
X003676Y004535D01*
X003917Y004294D01*
X003917Y004204D01*
X003971Y004072D01*
X004072Y003971D01*
X004204Y003917D01*
X004294Y003917D01*
X004846Y003365D01*
X004846Y003230D01*
X004724Y003230D01*
X004631Y003137D01*
X004631Y002413D01*
X004724Y002320D01*
X005448Y002320D01*
X005541Y002413D01*
X005541Y003137D01*
X005448Y003230D01*
X005326Y003230D01*
X005326Y003512D01*
X005289Y003600D01*
X004633Y004256D01*
X004633Y004346D01*
X004579Y004478D01*
X004478Y004579D01*
X004346Y004633D01*
X004256Y004633D01*
X003978Y004911D01*
X003911Y004978D01*
X003823Y005015D01*
X003473Y005015D01*
X003418Y005069D01*
X003474Y005125D01*
X004897Y005125D01*
X004897Y004982D01*
X004954Y004843D01*
X005061Y004736D01*
X005200Y004679D01*
X005350Y004679D01*
X005489Y004736D01*
X005511Y004758D01*
X005521Y004748D01*
X005586Y004704D01*
X005659Y004674D01*
X005736Y004659D01*
X005775Y004659D01*
X005814Y004659D01*
X005891Y004674D01*
X005964Y004704D01*
X006029Y004748D01*
X006039Y004758D01*
X006061Y004736D01*
X006200Y004679D01*
X006350Y004679D01*
X006489Y004736D01*
X006596Y004843D01*
X006653Y004982D01*
X006653Y005035D01*
X006984Y005035D01*
X006984Y004789D01*
X006843Y004789D01*
X006749Y004696D01*
X006749Y003854D01*
X006843Y003761D01*
X007605Y003761D01*
X007699Y003854D01*
X007699Y004696D01*
X007605Y004789D01*
X007464Y004789D01*
X007464Y005124D01*
X008823Y006484D01*
X009261Y006484D01*
X009261Y006343D01*
X009354Y006249D01*
X010196Y006249D01*
X010289Y006343D01*
X010289Y007105D01*
X010196Y007199D01*
X009354Y007199D01*
X009261Y007105D01*
X009261Y006964D01*
X008676Y006964D01*
X008588Y006927D01*
X008520Y006860D01*
X008015Y006354D01*
X008015Y007586D01*
X009261Y007586D01*
X009261Y007445D01*
X009354Y007351D01*
X010196Y007351D01*
X010277Y007433D01*
X010535Y007176D01*
X010535Y005874D01*
X010289Y005629D01*
X010289Y005707D01*
X010196Y005801D01*
X009354Y005801D01*
X009261Y005707D01*
X009261Y004945D01*
X009354Y004851D01*
X010196Y004851D01*
X010289Y004945D01*
X010289Y005086D01*
X010374Y005086D01*
X010462Y005123D01*
X010757Y005418D01*
X010751Y005285D01*
X010679Y004800D01*
X010560Y004324D01*
X010394Y003862D01*
X010185Y003418D01*
X009932Y002997D01*
X009640Y002603D01*
X009311Y002239D01*
X008947Y001910D01*
X008553Y001618D01*
X008132Y001365D01*
X007688Y001156D01*
X007226Y000990D01*
X006750Y000871D01*
X006265Y000799D01*
X005775Y000775D01*
X005275Y000775D01*
X004805Y000800D01*
X004617Y000829D01*
X004201Y000929D01*
X003462Y001235D01*
X002780Y001653D01*
X002172Y002172D01*
X002222Y002129D02*
X002815Y002129D01*
X002815Y001971D02*
X002408Y001971D01*
X002594Y001812D02*
X002898Y001812D01*
X002779Y001654D02*
X003057Y001654D01*
X003037Y001495D02*
X008349Y001495D01*
X008602Y001654D02*
X007993Y001654D01*
X008152Y001812D02*
X008816Y001812D01*
X009014Y001971D02*
X008310Y001971D01*
X008469Y002129D02*
X009189Y002129D01*
X009165Y002241D02*
X009211Y002253D01*
X009252Y002277D01*
X009285Y002310D01*
X009309Y002351D01*
X009321Y002397D01*
X009321Y002698D01*
X008904Y002698D01*
X008904Y002241D01*
X009165Y002241D01*
X009263Y002288D02*
X009355Y002288D01*
X009321Y002446D02*
X009498Y002446D01*
X009642Y002605D02*
X009321Y002605D01*
X009321Y002922D02*
X009877Y002922D01*
X009982Y003080D02*
X009321Y003080D01*
X009286Y003239D02*
X010077Y003239D01*
X010172Y003397D02*
X008515Y003397D01*
X008515Y003556D02*
X010250Y003556D01*
X010325Y003714D02*
X008515Y003714D01*
X008801Y003873D02*
X009261Y003873D01*
X009775Y004224D02*
X008377Y004224D01*
X008326Y004275D01*
X008275Y004224D01*
X008275Y002275D01*
X007775Y001775D01*
X003275Y001775D01*
X003055Y001995D01*
X003055Y004185D01*
X003402Y003873D02*
X004338Y003873D01*
X004496Y003714D02*
X003295Y003714D01*
X003295Y003556D02*
X004655Y003556D01*
X004813Y003397D02*
X003295Y003397D01*
X003295Y003239D02*
X004846Y003239D01*
X004631Y003080D02*
X003295Y003080D01*
X003295Y002922D02*
X004631Y002922D01*
X004631Y002763D02*
X003295Y002763D01*
X003295Y002605D02*
X004631Y002605D01*
X004631Y002446D02*
X003295Y002446D01*
X003295Y002288D02*
X007315Y002288D01*
X007249Y002446D02*
X006919Y002446D01*
X006464Y002775D02*
X007724Y002775D01*
X007292Y003239D02*
X005326Y003239D01*
X005326Y003397D02*
X008035Y003397D01*
X008035Y003556D02*
X005308Y003556D01*
X005175Y003714D02*
X008035Y003714D01*
X007851Y003873D02*
X007699Y003873D01*
X007699Y004031D02*
X007851Y004031D01*
X007851Y004190D02*
X007699Y004190D01*
X007699Y004348D02*
X007851Y004348D01*
X007851Y004507D02*
X007699Y004507D01*
X007699Y004665D02*
X007851Y004665D01*
X007464Y004824D02*
X010683Y004824D01*
X010706Y004982D02*
X010289Y004982D01*
X010480Y005141D02*
X010730Y005141D01*
X010752Y005299D02*
X010639Y005299D01*
X010326Y005326D02*
X010775Y005775D01*
X010775Y007275D01*
X010224Y007826D01*
X009775Y007826D01*
X007775Y007826D01*
X007775Y006375D01*
X007475Y006075D01*
X005475Y006075D01*
X005185Y005785D01*
X005185Y005365D01*
X005275Y005275D01*
X005185Y005365D02*
X003055Y005365D01*
X003463Y005616D02*
X004917Y005616D01*
X004945Y005775D02*
X000775Y005775D01*
X000775Y005616D02*
X002647Y005616D01*
X002619Y005458D02*
X000775Y005458D01*
X000775Y005299D02*
X001309Y005299D01*
X001102Y005141D02*
X000782Y005141D01*
X000790Y004982D02*
X001033Y004982D01*
X001026Y004824D02*
X000799Y004824D01*
X000822Y004665D02*
X001026Y004665D01*
X001058Y004507D02*
X000856Y004507D01*
X000894Y004348D02*
X001162Y004348D01*
X000934Y004190D02*
X002619Y004190D01*
X002619Y004031D02*
X000999Y004031D01*
X001065Y003873D02*
X002707Y003873D01*
X002815Y003714D02*
X001131Y003714D01*
X001196Y003556D02*
X002815Y003556D01*
X002815Y003397D02*
X001275Y003397D01*
X001372Y003239D02*
X002815Y003239D01*
X002815Y003080D02*
X001469Y003080D01*
X001566Y002922D02*
X002815Y002922D01*
X002815Y002763D02*
X001667Y002763D01*
X001803Y002605D02*
X002815Y002605D01*
X002815Y002446D02*
X001938Y002446D01*
X003295Y002129D02*
X007790Y002129D01*
X008072Y001337D02*
X003296Y001337D01*
X003599Y001178D02*
X007737Y001178D01*
X007309Y001020D02*
X003982Y001020D01*
X004483Y000861D02*
X006686Y000861D01*
X006009Y002446D02*
X005541Y002446D01*
X005541Y002605D02*
X006009Y002605D01*
X006009Y002763D02*
X005541Y002763D01*
X005541Y002922D02*
X006009Y002922D01*
X006009Y003080D02*
X005541Y003080D01*
X005086Y002775D02*
X005086Y003464D01*
X004275Y004275D01*
X003775Y004775D01*
X002955Y004775D01*
X002619Y005299D02*
X002501Y005299D01*
X003445Y004507D02*
X003704Y004507D01*
X003862Y004348D02*
X003491Y004348D01*
X003491Y004190D02*
X003923Y004190D01*
X004012Y004031D02*
X003491Y004031D01*
X004224Y004665D02*
X005702Y004665D01*
X005775Y004665D02*
X005775Y004665D01*
X005775Y004659D02*
X005775Y005275D01*
X005775Y005275D01*
X005775Y004659D01*
X005848Y004665D02*
X006749Y004665D01*
X006749Y004507D02*
X004549Y004507D01*
X004632Y004348D02*
X006749Y004348D01*
X006749Y004190D02*
X004699Y004190D01*
X004858Y004031D02*
X006749Y004031D01*
X006749Y003873D02*
X005016Y003873D01*
X004973Y004824D02*
X004065Y004824D01*
X003901Y004982D02*
X004897Y004982D01*
X004994Y005934D02*
X000775Y005934D01*
X000775Y006092D02*
X005153Y006092D01*
X005191Y006251D02*
X005311Y006251D01*
X005437Y006409D02*
X005641Y006409D01*
X005537Y006568D02*
X005536Y006568D01*
X005506Y007043D02*
X005562Y007043D01*
X005702Y007202D02*
X005374Y007202D01*
X005190Y007360D02*
X004888Y007360D01*
X005012Y007519D02*
X005058Y007519D01*
X005045Y007202D02*
X005005Y007202D01*
X005005Y007043D02*
X005045Y007043D01*
X005045Y006885D02*
X005005Y006885D01*
X005005Y006755D02*
X004475Y006755D01*
X004475Y006732D01*
X004489Y006646D01*
X004515Y006564D01*
X004555Y006487D01*
X004605Y006417D01*
X004667Y006355D01*
X004737Y006305D01*
X004814Y006265D01*
X004896Y006239D01*
X004982Y006225D01*
X005005Y006225D01*
X005005Y006755D01*
X005005Y006726D02*
X005045Y006726D01*
X005045Y006568D02*
X005005Y006568D01*
X005005Y006409D02*
X005045Y006409D01*
X005045Y006251D02*
X005005Y006251D01*
X004859Y006251D02*
X000775Y006251D01*
X000782Y006409D02*
X004613Y006409D01*
X004514Y006568D02*
X000790Y006568D01*
X000799Y006726D02*
X004476Y006726D01*
X004485Y006885D02*
X000822Y006885D01*
X000856Y007043D02*
X004544Y007043D01*
X004676Y007202D02*
X000894Y007202D01*
X000934Y007360D02*
X004162Y007360D01*
X004167Y007355D02*
X004237Y007305D01*
X004314Y007265D01*
X004396Y007239D01*
X004482Y007225D01*
X004505Y007225D01*
X004505Y007755D01*
X003975Y007755D01*
X003975Y007732D01*
X003989Y007646D01*
X004015Y007564D01*
X004055Y007487D01*
X004105Y007417D01*
X004167Y007355D01*
X004038Y007519D02*
X000999Y007519D01*
X001065Y007677D02*
X003984Y007677D01*
X003978Y007836D02*
X001131Y007836D01*
X001196Y007994D02*
X004019Y007994D01*
X004125Y008153D02*
X001275Y008153D01*
X001372Y008311D02*
X004395Y008311D01*
X004505Y008311D02*
X004545Y008311D01*
X004655Y008311D02*
X010077Y008311D01*
X009982Y008470D02*
X001469Y008470D01*
X001566Y008628D02*
X009877Y008628D01*
X009759Y008787D02*
X001667Y008787D01*
X001803Y008945D02*
X009642Y008945D01*
X009498Y009104D02*
X001938Y009104D01*
X002073Y009262D02*
X003290Y009262D01*
X003046Y009421D02*
X002222Y009421D01*
X002408Y009579D02*
X002887Y009579D01*
X002792Y009738D02*
X002594Y009738D01*
X004260Y009262D02*
X007290Y009262D01*
X007046Y009421D02*
X004504Y009421D01*
X004663Y009579D02*
X006887Y009579D01*
X006792Y009738D02*
X004758Y009738D01*
X004833Y009896D02*
X006717Y009896D01*
X006675Y010055D02*
X004875Y010055D01*
X004895Y010213D02*
X006655Y010213D01*
X006655Y010372D02*
X004895Y010372D01*
X004866Y010530D02*
X006684Y010530D01*
X006686Y010689D02*
X004824Y010689D01*
X004925Y008153D02*
X005153Y008153D01*
X005042Y007994D02*
X005031Y007994D01*
X004545Y007994D02*
X004505Y007994D01*
X004505Y007836D02*
X004545Y007836D01*
X004525Y007775D02*
X004474Y007826D01*
X004505Y007677D02*
X004545Y007677D01*
X004545Y007519D02*
X004505Y007519D01*
X004505Y007360D02*
X004545Y007360D01*
X004545Y008153D02*
X004505Y008153D01*
X005860Y007360D02*
X006190Y007360D01*
X006058Y007519D02*
X005992Y007519D01*
X006008Y007994D02*
X006042Y007994D01*
X006153Y008153D02*
X005897Y008153D01*
X006525Y007775D02*
X006576Y007826D01*
X007775Y007826D01*
X008015Y007519D02*
X009261Y007519D01*
X009346Y007360D02*
X008015Y007360D01*
X008015Y007202D02*
X010509Y007202D01*
X010535Y007043D02*
X010289Y007043D01*
X010289Y006885D02*
X010535Y006885D01*
X010535Y006726D02*
X010289Y006726D01*
X010289Y006568D02*
X010535Y006568D01*
X010535Y006409D02*
X010289Y006409D01*
X010197Y006251D02*
X010535Y006251D01*
X010535Y006092D02*
X008431Y006092D01*
X008273Y005934D02*
X010535Y005934D01*
X010436Y005775D02*
X010222Y005775D01*
X010326Y005326D02*
X009775Y005326D01*
X009261Y005299D02*
X007639Y005299D01*
X007480Y005141D02*
X009261Y005141D01*
X009261Y004982D02*
X007464Y004982D01*
X007224Y005224D02*
X007173Y005275D01*
X006275Y005275D01*
X006653Y004982D02*
X006984Y004982D01*
X006984Y004824D02*
X006577Y004824D01*
X007224Y005224D02*
X007224Y004275D01*
X007224Y005224D02*
X008724Y006724D01*
X009775Y006724D01*
X009261Y006409D02*
X008748Y006409D01*
X008590Y006251D02*
X009353Y006251D01*
X009328Y005775D02*
X008114Y005775D01*
X007956Y005616D02*
X009261Y005616D01*
X009261Y005458D02*
X007797Y005458D01*
X008015Y006409D02*
X008070Y006409D01*
X008015Y006568D02*
X008228Y006568D01*
X008387Y006726D02*
X008015Y006726D01*
X008015Y006885D02*
X008545Y006885D01*
X008015Y007043D02*
X009261Y007043D01*
X010204Y007360D02*
X010351Y007360D01*
X009261Y008153D02*
X006897Y008153D01*
X006992Y007519D02*
X007535Y007519D01*
X007535Y007360D02*
X006860Y007360D01*
X006702Y007202D02*
X006348Y007202D01*
X006488Y007043D02*
X006562Y007043D01*
X007348Y007202D02*
X007535Y007202D01*
X007535Y007043D02*
X007488Y007043D01*
X005775Y005141D02*
X005775Y005141D01*
X005775Y004982D02*
X005775Y004982D01*
X005775Y004824D02*
X005775Y004824D01*
X006919Y003080D02*
X007249Y003080D01*
X008749Y003080D02*
X008904Y003080D01*
X008904Y002922D02*
X008749Y002922D01*
X008904Y002763D02*
X009759Y002763D01*
X008904Y002605D02*
X008749Y002605D01*
X008749Y002446D02*
X008904Y002446D01*
X008904Y002288D02*
X008749Y002288D01*
X008749Y003239D02*
X008904Y003239D01*
X008801Y004507D02*
X009261Y004507D01*
X009321Y004665D02*
X008801Y004665D01*
X010229Y004665D02*
X010645Y004665D01*
X010606Y004507D02*
X010289Y004507D01*
X010289Y004348D02*
X010566Y004348D01*
X010512Y004190D02*
X010289Y004190D01*
X010289Y004031D02*
X010455Y004031D01*
X010398Y003873D02*
X010289Y003873D01*
X009355Y009262D02*
X008260Y009262D01*
X008504Y009421D02*
X009189Y009421D01*
X009014Y009579D02*
X008663Y009579D01*
X008758Y009738D02*
X008816Y009738D01*
D21*
X004275Y004275D03*
M02*
