G75*
%MOIN*%
%OFA0B0*%
%FSLAX25Y25*%
%IPPOS*%
%LPD*%
%AMOC8*
5,1,8,0,0,1.08239X$1,22.5*
%
%ADD10C,0.01600*%
%ADD11C,0.00300*%
%ADD12C,0.00800*%
%ADD13C,0.00500*%
%ADD14C,0.00600*%
%ADD15R,0.02000X0.10000*%
%ADD16R,0.07500X0.03000*%
%ADD17C,0.00100*%
%ADD18C,0.00200*%
%ADD19C,0.00700*%
%ADD20C,0.00400*%
%ADD21R,0.03000X0.02500*%
%ADD22R,0.05000X0.11000*%
%ADD23C,0.03400*%
%ADD24R,0.05000X0.07000*%
%ADD25R,0.03000X0.08500*%
D10*
X0021800Y0051433D02*
X0021800Y0121433D01*
X0096800Y0121433D01*
X0096800Y0051433D01*
X0021800Y0051433D01*
D11*
X0154450Y0066583D02*
X0154450Y0070286D01*
X0156302Y0070286D01*
X0156919Y0069669D01*
X0156919Y0068435D01*
X0156302Y0067817D01*
X0154450Y0067817D01*
X0155684Y0067817D02*
X0156919Y0066583D01*
X0158133Y0067200D02*
X0158133Y0069052D01*
X0158133Y0067200D02*
X0158750Y0066583D01*
X0160602Y0066583D01*
X0160602Y0069052D01*
X0161816Y0069052D02*
X0161816Y0066583D01*
X0163051Y0066583D02*
X0163051Y0068435D01*
X0163668Y0069052D01*
X0164285Y0068435D01*
X0164285Y0066583D01*
X0165499Y0066583D02*
X0165499Y0069052D01*
X0166117Y0069052D01*
X0166734Y0068435D01*
X0167351Y0069052D01*
X0167968Y0068435D01*
X0167968Y0066583D01*
X0166734Y0066583D02*
X0166734Y0068435D01*
X0169183Y0067200D02*
X0169800Y0067817D01*
X0171651Y0067817D01*
X0171651Y0068435D02*
X0171651Y0066583D01*
X0169800Y0066583D01*
X0169183Y0067200D01*
X0169800Y0069052D02*
X0171034Y0069052D01*
X0171651Y0068435D01*
X0172866Y0069052D02*
X0172866Y0066583D01*
X0175334Y0066583D02*
X0175334Y0068435D01*
X0174717Y0069052D01*
X0172866Y0069052D01*
X0173493Y0071583D02*
X0172259Y0072817D01*
X0171024Y0071583D01*
X0171024Y0075286D01*
X0173493Y0075286D02*
X0173493Y0071583D01*
X0174707Y0072200D02*
X0174707Y0073435D01*
X0175324Y0074052D01*
X0176559Y0074052D01*
X0177176Y0073435D01*
X0177176Y0072817D01*
X0174707Y0072817D01*
X0174707Y0072200D02*
X0175324Y0071583D01*
X0176559Y0071583D01*
X0178390Y0071583D02*
X0179625Y0071583D01*
X0179008Y0071583D02*
X0179008Y0075286D01*
X0178390Y0075286D01*
X0180846Y0075286D02*
X0181463Y0075286D01*
X0181463Y0071583D01*
X0180846Y0071583D02*
X0182080Y0071583D01*
X0183301Y0071583D02*
X0185153Y0071583D01*
X0185770Y0072200D01*
X0185153Y0072817D01*
X0183918Y0072817D01*
X0183301Y0073435D01*
X0183918Y0074052D01*
X0185770Y0074052D01*
X0186988Y0079083D02*
X0186371Y0079700D01*
X0186371Y0080935D01*
X0186988Y0081552D01*
X0188222Y0081552D01*
X0188839Y0080935D01*
X0188839Y0079700D01*
X0188222Y0079083D01*
X0186988Y0079083D01*
X0190054Y0079083D02*
X0190054Y0081552D01*
X0191288Y0081552D02*
X0191905Y0081552D01*
X0191288Y0081552D02*
X0190054Y0080317D01*
X0193123Y0079083D02*
X0194975Y0079083D01*
X0195592Y0079700D01*
X0195592Y0080935D01*
X0194975Y0081552D01*
X0193123Y0081552D01*
X0193123Y0077849D01*
X0196806Y0079700D02*
X0196806Y0080935D01*
X0197423Y0081552D01*
X0198658Y0081552D01*
X0199275Y0080935D01*
X0199275Y0080317D01*
X0196806Y0080317D01*
X0196806Y0079700D02*
X0197423Y0079083D01*
X0198658Y0079083D01*
X0200489Y0079700D02*
X0200489Y0080935D01*
X0201106Y0081552D01*
X0202958Y0081552D01*
X0202958Y0082786D02*
X0202958Y0079083D01*
X0201106Y0079083D01*
X0200489Y0079700D01*
X0204172Y0079700D02*
X0204790Y0079083D01*
X0206024Y0079083D01*
X0206641Y0079700D01*
X0206641Y0080935D01*
X0206024Y0081552D01*
X0204790Y0081552D01*
X0204172Y0080935D01*
X0204172Y0079700D01*
X0211539Y0079083D02*
X0213390Y0079083D01*
X0214007Y0079700D01*
X0214007Y0080317D01*
X0213390Y0080935D01*
X0211539Y0080935D01*
X0211539Y0082786D02*
X0211539Y0079083D01*
X0213390Y0080935D02*
X0214007Y0081552D01*
X0214007Y0082169D01*
X0213390Y0082786D01*
X0211539Y0082786D01*
X0215222Y0080935D02*
X0215222Y0079700D01*
X0215839Y0079083D01*
X0217073Y0079083D01*
X0217691Y0079700D01*
X0217691Y0080935D01*
X0217073Y0081552D01*
X0215839Y0081552D01*
X0215222Y0080935D01*
X0218905Y0079700D02*
X0219522Y0079083D01*
X0221374Y0079083D01*
X0221374Y0080935D01*
X0220757Y0081552D01*
X0219522Y0081552D01*
X0219522Y0080317D02*
X0221374Y0080317D01*
X0222588Y0080317D02*
X0223823Y0081552D01*
X0224440Y0081552D01*
X0225657Y0080935D02*
X0226275Y0081552D01*
X0228126Y0081552D01*
X0228126Y0082786D02*
X0228126Y0079083D01*
X0226275Y0079083D01*
X0225657Y0079700D01*
X0225657Y0080935D01*
X0222588Y0081552D02*
X0222588Y0079083D01*
X0219522Y0080317D02*
X0218905Y0079700D01*
X0233024Y0080317D02*
X0233024Y0081552D01*
X0234258Y0082786D01*
X0235479Y0082169D02*
X0236096Y0082786D01*
X0237331Y0082786D01*
X0237948Y0082169D01*
X0237948Y0081552D01*
X0235479Y0079083D01*
X0237948Y0079083D01*
X0239162Y0079700D02*
X0239779Y0079083D01*
X0241014Y0079083D01*
X0241631Y0079700D01*
X0241631Y0082169D01*
X0239162Y0079700D01*
X0239162Y0082169D01*
X0239779Y0082786D01*
X0241014Y0082786D01*
X0241631Y0082169D01*
X0242845Y0081552D02*
X0244080Y0082786D01*
X0244080Y0079083D01*
X0245314Y0079083D02*
X0242845Y0079083D01*
X0246529Y0079700D02*
X0247146Y0079083D01*
X0248380Y0079083D01*
X0248997Y0079700D01*
X0248997Y0080317D01*
X0248380Y0080935D01*
X0246529Y0080935D01*
X0246529Y0079700D01*
X0246529Y0080935D02*
X0247763Y0082169D01*
X0248997Y0082786D01*
X0250212Y0082786D02*
X0251446Y0081552D01*
X0251446Y0080317D01*
X0250212Y0079083D01*
X0234258Y0079083D02*
X0233024Y0080317D01*
X0196816Y0069052D02*
X0196199Y0069052D01*
X0194965Y0067817D01*
X0193750Y0067817D02*
X0191899Y0067817D01*
X0191281Y0067200D01*
X0191899Y0066583D01*
X0193750Y0066583D01*
X0193750Y0068435D01*
X0193133Y0069052D01*
X0191899Y0069052D01*
X0190067Y0069052D02*
X0190067Y0065349D01*
X0190067Y0066583D02*
X0188215Y0066583D01*
X0187598Y0067200D01*
X0187598Y0068435D01*
X0188215Y0069052D01*
X0190067Y0069052D01*
X0186384Y0068435D02*
X0186384Y0066583D01*
X0184532Y0066583D01*
X0183915Y0067200D01*
X0184532Y0067817D01*
X0186384Y0067817D01*
X0186384Y0068435D02*
X0185767Y0069052D01*
X0184532Y0069052D01*
X0182701Y0070286D02*
X0182701Y0066583D01*
X0181466Y0067817D01*
X0180232Y0066583D01*
X0180232Y0070286D01*
X0183922Y0079083D02*
X0183922Y0082786D01*
X0185156Y0082786D02*
X0182687Y0082786D01*
X0177787Y0081552D02*
X0177169Y0081552D01*
X0175935Y0080317D01*
X0174721Y0080317D02*
X0172252Y0080317D01*
X0172252Y0079700D02*
X0172252Y0080935D01*
X0172869Y0081552D01*
X0174103Y0081552D01*
X0174721Y0080935D01*
X0174721Y0080317D01*
X0174103Y0079083D02*
X0172869Y0079083D01*
X0172252Y0079700D01*
X0171037Y0079700D02*
X0170420Y0079083D01*
X0168569Y0079083D01*
X0168569Y0077849D02*
X0168569Y0081552D01*
X0170420Y0081552D01*
X0171037Y0080935D01*
X0171037Y0079700D01*
X0167354Y0079700D02*
X0166737Y0079083D01*
X0164886Y0079083D01*
X0164886Y0077849D02*
X0164886Y0081552D01*
X0166737Y0081552D01*
X0167354Y0080935D01*
X0167354Y0079700D01*
X0163671Y0079700D02*
X0163054Y0079083D01*
X0161820Y0079083D01*
X0161202Y0079700D01*
X0161202Y0080935D01*
X0161820Y0081552D01*
X0163054Y0081552D01*
X0163671Y0080935D01*
X0163671Y0079700D01*
X0159985Y0081552D02*
X0159368Y0081552D01*
X0158133Y0080317D01*
X0158133Y0079083D02*
X0158133Y0081552D01*
X0156919Y0082169D02*
X0156302Y0082786D01*
X0154450Y0082786D01*
X0154450Y0079083D01*
X0156302Y0079083D01*
X0156919Y0079700D01*
X0156919Y0082169D01*
X0156919Y0075286D02*
X0154450Y0075286D01*
X0154450Y0071583D01*
X0156919Y0071583D01*
X0158133Y0071583D02*
X0158133Y0074052D01*
X0159368Y0074052D02*
X0159985Y0074052D01*
X0159368Y0074052D02*
X0158133Y0072817D01*
X0155684Y0073435D02*
X0154450Y0073435D01*
X0161202Y0074052D02*
X0161820Y0074052D01*
X0161820Y0071583D01*
X0162437Y0071583D02*
X0161202Y0071583D01*
X0163658Y0072200D02*
X0164275Y0071583D01*
X0166127Y0071583D01*
X0166127Y0074052D02*
X0164275Y0074052D01*
X0163658Y0073435D01*
X0163658Y0072200D01*
X0162433Y0069052D02*
X0163051Y0068435D01*
X0162433Y0069052D02*
X0161816Y0069052D01*
X0161820Y0075286D02*
X0161820Y0075903D01*
X0175935Y0079083D02*
X0175935Y0081552D01*
X0194965Y0069052D02*
X0194965Y0066583D01*
D12*
X0123611Y0062102D02*
X0121800Y0062102D01*
X0122720Y0060882D01*
X0121800Y0062102D02*
X0119989Y0062102D01*
X0120940Y0060882D02*
X0121700Y0062042D01*
X0039300Y0071433D02*
X0039300Y0076433D01*
X0036800Y0078933D01*
X0039300Y0081433D01*
X0039300Y0086433D01*
X0036800Y0088933D01*
X0039300Y0091433D01*
X0039300Y0096433D01*
X0036800Y0098933D01*
X0039300Y0101433D01*
X0039300Y0106433D01*
X0036800Y0108933D01*
X0039300Y0111433D01*
X0039300Y0116433D01*
X0036800Y0118933D01*
X0031800Y0118933D01*
X0029300Y0116433D01*
X0029300Y0111433D01*
X0031800Y0108933D01*
X0029300Y0106433D01*
X0029300Y0101433D01*
X0031800Y0098933D01*
X0029300Y0096433D01*
X0029300Y0091433D01*
X0031800Y0088933D01*
X0029300Y0086433D01*
X0029300Y0081433D01*
X0031800Y0078933D01*
X0029300Y0076433D01*
X0029300Y0071433D01*
X0031800Y0068933D01*
X0036800Y0068933D01*
X0039300Y0071433D01*
X0072489Y0223264D02*
X0074300Y0223264D01*
X0073380Y0224484D01*
X0074300Y0223264D02*
X0076111Y0223264D01*
X0075160Y0224484D02*
X0074400Y0223324D01*
X0137489Y0225764D02*
X0139300Y0225764D01*
X0138380Y0226984D01*
X0139300Y0225764D02*
X0141111Y0225764D01*
X0140160Y0226984D02*
X0139400Y0225824D01*
D13*
X0128449Y0235934D02*
X0127698Y0235183D01*
X0126197Y0235183D01*
X0125446Y0235934D01*
X0123845Y0235934D02*
X0123845Y0238936D01*
X0123094Y0239687D01*
X0120842Y0239687D01*
X0120842Y0235183D01*
X0123094Y0235183D01*
X0123845Y0235934D01*
X0125446Y0238936D02*
X0126197Y0239687D01*
X0127698Y0239687D01*
X0128449Y0238936D01*
X0128449Y0238186D01*
X0127698Y0237435D01*
X0128449Y0236684D01*
X0128449Y0235934D01*
X0127698Y0237435D02*
X0126947Y0237435D01*
X0126800Y0256433D02*
X0121800Y0256433D01*
X0121800Y0261433D01*
X0101800Y0261433D01*
X0101800Y0256433D01*
X0096800Y0256433D01*
X0096800Y0278433D01*
X0126800Y0278433D01*
X0126800Y0256433D01*
X0121800Y0256433D02*
X0101800Y0256433D01*
X0061800Y0256433D02*
X0056800Y0256433D01*
X0056800Y0261433D01*
X0036800Y0261433D01*
X0036800Y0256433D01*
X0031800Y0256433D01*
X0031800Y0278433D01*
X0061800Y0278433D01*
X0061800Y0256433D01*
X0056800Y0256433D02*
X0036800Y0256433D01*
X0055842Y0239687D02*
X0058094Y0239687D01*
X0058845Y0238936D01*
X0058845Y0235934D01*
X0058094Y0235183D01*
X0055842Y0235183D01*
X0055842Y0239687D01*
X0060446Y0237435D02*
X0063449Y0237435D01*
X0062698Y0235183D02*
X0062698Y0239687D01*
X0060446Y0237435D01*
X0171800Y0256433D02*
X0176800Y0256433D01*
X0176800Y0261433D01*
X0196800Y0261433D01*
X0196800Y0256433D01*
X0176800Y0256433D01*
X0171800Y0256433D02*
X0171800Y0278433D01*
X0201800Y0278433D01*
X0201800Y0256433D01*
X0196800Y0256433D01*
X0226800Y0256433D02*
X0231800Y0256433D01*
X0231800Y0261433D01*
X0251800Y0261433D01*
X0251800Y0256433D01*
X0231800Y0256433D01*
X0226800Y0256433D02*
X0226800Y0278433D01*
X0256800Y0278433D01*
X0256800Y0256433D01*
X0251800Y0256433D01*
X0271800Y0256433D02*
X0276800Y0256433D01*
X0276800Y0261433D01*
X0306800Y0261433D01*
X0306800Y0256433D01*
X0276800Y0256433D01*
X0271800Y0256433D02*
X0271800Y0278433D01*
X0311800Y0278433D01*
X0311800Y0256433D01*
X0306800Y0256433D01*
X0257300Y0196433D02*
X0226300Y0196433D01*
X0226300Y0155433D01*
X0257300Y0155433D01*
X0257300Y0196433D01*
X0246679Y0178996D02*
X0244826Y0177186D01*
X0247622Y0174324D02*
X0249474Y0176135D01*
X0235300Y0171433D02*
X0235302Y0171594D01*
X0235308Y0171754D01*
X0235318Y0171915D01*
X0235332Y0172075D01*
X0235350Y0172235D01*
X0235371Y0172394D01*
X0235397Y0172553D01*
X0235427Y0172711D01*
X0235460Y0172868D01*
X0235498Y0173025D01*
X0235539Y0173180D01*
X0235584Y0173334D01*
X0235633Y0173487D01*
X0235686Y0173639D01*
X0235742Y0173790D01*
X0235803Y0173939D01*
X0235866Y0174087D01*
X0235934Y0174233D01*
X0236005Y0174377D01*
X0236079Y0174519D01*
X0236157Y0174660D01*
X0236239Y0174798D01*
X0236324Y0174935D01*
X0236412Y0175069D01*
X0236504Y0175201D01*
X0236599Y0175331D01*
X0236697Y0175459D01*
X0236798Y0175584D01*
X0236902Y0175706D01*
X0237009Y0175826D01*
X0237119Y0175943D01*
X0237232Y0176058D01*
X0237348Y0176169D01*
X0237467Y0176278D01*
X0237588Y0176383D01*
X0237712Y0176486D01*
X0237838Y0176586D01*
X0237966Y0176682D01*
X0238097Y0176775D01*
X0238231Y0176865D01*
X0238366Y0176952D01*
X0238504Y0177035D01*
X0238643Y0177115D01*
X0238785Y0177191D01*
X0238928Y0177264D01*
X0239073Y0177333D01*
X0239220Y0177399D01*
X0239368Y0177461D01*
X0239518Y0177519D01*
X0239669Y0177574D01*
X0239822Y0177625D01*
X0239976Y0177672D01*
X0240131Y0177715D01*
X0240287Y0177754D01*
X0240443Y0177790D01*
X0240601Y0177821D01*
X0240759Y0177849D01*
X0240918Y0177873D01*
X0241078Y0177893D01*
X0241238Y0177909D01*
X0241398Y0177921D01*
X0241559Y0177929D01*
X0241720Y0177933D01*
X0241880Y0177933D01*
X0242041Y0177929D01*
X0242202Y0177921D01*
X0242362Y0177909D01*
X0242522Y0177893D01*
X0242682Y0177873D01*
X0242841Y0177849D01*
X0242999Y0177821D01*
X0243157Y0177790D01*
X0243313Y0177754D01*
X0243469Y0177715D01*
X0243624Y0177672D01*
X0243778Y0177625D01*
X0243931Y0177574D01*
X0244082Y0177519D01*
X0244232Y0177461D01*
X0244380Y0177399D01*
X0244527Y0177333D01*
X0244672Y0177264D01*
X0244815Y0177191D01*
X0244957Y0177115D01*
X0245096Y0177035D01*
X0245234Y0176952D01*
X0245369Y0176865D01*
X0245503Y0176775D01*
X0245634Y0176682D01*
X0245762Y0176586D01*
X0245888Y0176486D01*
X0246012Y0176383D01*
X0246133Y0176278D01*
X0246252Y0176169D01*
X0246368Y0176058D01*
X0246481Y0175943D01*
X0246591Y0175826D01*
X0246698Y0175706D01*
X0246802Y0175584D01*
X0246903Y0175459D01*
X0247001Y0175331D01*
X0247096Y0175201D01*
X0247188Y0175069D01*
X0247276Y0174935D01*
X0247361Y0174798D01*
X0247443Y0174660D01*
X0247521Y0174519D01*
X0247595Y0174377D01*
X0247666Y0174233D01*
X0247734Y0174087D01*
X0247797Y0173939D01*
X0247858Y0173790D01*
X0247914Y0173639D01*
X0247967Y0173487D01*
X0248016Y0173334D01*
X0248061Y0173180D01*
X0248102Y0173025D01*
X0248140Y0172868D01*
X0248173Y0172711D01*
X0248203Y0172553D01*
X0248229Y0172394D01*
X0248250Y0172235D01*
X0248268Y0172075D01*
X0248282Y0171915D01*
X0248292Y0171754D01*
X0248298Y0171594D01*
X0248300Y0171433D01*
X0248298Y0171272D01*
X0248292Y0171112D01*
X0248282Y0170951D01*
X0248268Y0170791D01*
X0248250Y0170631D01*
X0248229Y0170472D01*
X0248203Y0170313D01*
X0248173Y0170155D01*
X0248140Y0169998D01*
X0248102Y0169841D01*
X0248061Y0169686D01*
X0248016Y0169532D01*
X0247967Y0169379D01*
X0247914Y0169227D01*
X0247858Y0169076D01*
X0247797Y0168927D01*
X0247734Y0168779D01*
X0247666Y0168633D01*
X0247595Y0168489D01*
X0247521Y0168347D01*
X0247443Y0168206D01*
X0247361Y0168068D01*
X0247276Y0167931D01*
X0247188Y0167797D01*
X0247096Y0167665D01*
X0247001Y0167535D01*
X0246903Y0167407D01*
X0246802Y0167282D01*
X0246698Y0167160D01*
X0246591Y0167040D01*
X0246481Y0166923D01*
X0246368Y0166808D01*
X0246252Y0166697D01*
X0246133Y0166588D01*
X0246012Y0166483D01*
X0245888Y0166380D01*
X0245762Y0166280D01*
X0245634Y0166184D01*
X0245503Y0166091D01*
X0245369Y0166001D01*
X0245234Y0165914D01*
X0245096Y0165831D01*
X0244957Y0165751D01*
X0244815Y0165675D01*
X0244672Y0165602D01*
X0244527Y0165533D01*
X0244380Y0165467D01*
X0244232Y0165405D01*
X0244082Y0165347D01*
X0243931Y0165292D01*
X0243778Y0165241D01*
X0243624Y0165194D01*
X0243469Y0165151D01*
X0243313Y0165112D01*
X0243157Y0165076D01*
X0242999Y0165045D01*
X0242841Y0165017D01*
X0242682Y0164993D01*
X0242522Y0164973D01*
X0242362Y0164957D01*
X0242202Y0164945D01*
X0242041Y0164937D01*
X0241880Y0164933D01*
X0241720Y0164933D01*
X0241559Y0164937D01*
X0241398Y0164945D01*
X0241238Y0164957D01*
X0241078Y0164973D01*
X0240918Y0164993D01*
X0240759Y0165017D01*
X0240601Y0165045D01*
X0240443Y0165076D01*
X0240287Y0165112D01*
X0240131Y0165151D01*
X0239976Y0165194D01*
X0239822Y0165241D01*
X0239669Y0165292D01*
X0239518Y0165347D01*
X0239368Y0165405D01*
X0239220Y0165467D01*
X0239073Y0165533D01*
X0238928Y0165602D01*
X0238785Y0165675D01*
X0238643Y0165751D01*
X0238504Y0165831D01*
X0238366Y0165914D01*
X0238231Y0166001D01*
X0238097Y0166091D01*
X0237966Y0166184D01*
X0237838Y0166280D01*
X0237712Y0166380D01*
X0237588Y0166483D01*
X0237467Y0166588D01*
X0237348Y0166697D01*
X0237232Y0166808D01*
X0237119Y0166923D01*
X0237009Y0167040D01*
X0236902Y0167160D01*
X0236798Y0167282D01*
X0236697Y0167407D01*
X0236599Y0167535D01*
X0236504Y0167665D01*
X0236412Y0167797D01*
X0236324Y0167931D01*
X0236239Y0168068D01*
X0236157Y0168206D01*
X0236079Y0168347D01*
X0236005Y0168489D01*
X0235934Y0168633D01*
X0235866Y0168779D01*
X0235803Y0168927D01*
X0235742Y0169076D01*
X0235686Y0169227D01*
X0235633Y0169379D01*
X0235584Y0169532D01*
X0235539Y0169686D01*
X0235498Y0169841D01*
X0235460Y0169998D01*
X0235427Y0170155D01*
X0235397Y0170313D01*
X0235371Y0170472D01*
X0235350Y0170631D01*
X0235332Y0170791D01*
X0235318Y0170951D01*
X0235308Y0171112D01*
X0235302Y0171272D01*
X0235300Y0171433D01*
X0235978Y0174324D02*
X0234126Y0176135D01*
X0236921Y0178996D02*
X0238774Y0177186D01*
X0239800Y0162658D02*
X0240007Y0162613D01*
X0240216Y0162573D01*
X0240425Y0162539D01*
X0240636Y0162509D01*
X0240846Y0162484D01*
X0241058Y0162464D01*
X0241270Y0162449D01*
X0241482Y0162439D01*
X0241694Y0162434D01*
X0241906Y0162434D01*
X0242118Y0162439D01*
X0242330Y0162449D01*
X0242542Y0162464D01*
X0242754Y0162484D01*
X0242964Y0162509D01*
X0243175Y0162539D01*
X0243384Y0162573D01*
X0243593Y0162613D01*
X0243800Y0162658D01*
X0243800Y0165248D01*
X0239800Y0165248D02*
X0239800Y0162658D01*
X0242842Y0161187D02*
X0245845Y0161187D01*
X0244343Y0161187D02*
X0244343Y0156683D01*
X0247446Y0157434D02*
X0248197Y0156683D01*
X0249698Y0156683D01*
X0250449Y0157434D01*
X0250449Y0158184D01*
X0249698Y0158935D01*
X0248947Y0158935D01*
X0249698Y0158935D02*
X0250449Y0159686D01*
X0250449Y0160436D01*
X0249698Y0161187D01*
X0248197Y0161187D01*
X0247446Y0160436D01*
X0249474Y0176135D02*
X0249361Y0176315D01*
X0249244Y0176492D01*
X0249123Y0176666D01*
X0248997Y0176837D01*
X0248868Y0177005D01*
X0248734Y0177170D01*
X0248597Y0177332D01*
X0248456Y0177491D01*
X0248311Y0177646D01*
X0248163Y0177798D01*
X0248011Y0177946D01*
X0247856Y0178091D01*
X0247697Y0178232D01*
X0247535Y0178369D01*
X0247370Y0178503D01*
X0247201Y0178632D01*
X0247030Y0178757D01*
X0246856Y0178879D01*
X0246679Y0178996D01*
X0236921Y0178996D02*
X0236744Y0178879D01*
X0236570Y0178757D01*
X0236399Y0178632D01*
X0236230Y0178503D01*
X0236065Y0178369D01*
X0235903Y0178232D01*
X0235744Y0178091D01*
X0235589Y0177946D01*
X0235437Y0177798D01*
X0235289Y0177646D01*
X0235144Y0177491D01*
X0235003Y0177332D01*
X0234866Y0177170D01*
X0234732Y0177005D01*
X0234603Y0176837D01*
X0234477Y0176666D01*
X0234356Y0176492D01*
X0234239Y0176315D01*
X0234126Y0176135D01*
X0202300Y0196433D02*
X0202300Y0155433D01*
X0171300Y0155433D01*
X0171300Y0196433D01*
X0202300Y0196433D01*
X0191679Y0178996D02*
X0189826Y0177186D01*
X0192622Y0174324D02*
X0194474Y0176135D01*
X0180300Y0171433D02*
X0180302Y0171594D01*
X0180308Y0171754D01*
X0180318Y0171915D01*
X0180332Y0172075D01*
X0180350Y0172235D01*
X0180371Y0172394D01*
X0180397Y0172553D01*
X0180427Y0172711D01*
X0180460Y0172868D01*
X0180498Y0173025D01*
X0180539Y0173180D01*
X0180584Y0173334D01*
X0180633Y0173487D01*
X0180686Y0173639D01*
X0180742Y0173790D01*
X0180803Y0173939D01*
X0180866Y0174087D01*
X0180934Y0174233D01*
X0181005Y0174377D01*
X0181079Y0174519D01*
X0181157Y0174660D01*
X0181239Y0174798D01*
X0181324Y0174935D01*
X0181412Y0175069D01*
X0181504Y0175201D01*
X0181599Y0175331D01*
X0181697Y0175459D01*
X0181798Y0175584D01*
X0181902Y0175706D01*
X0182009Y0175826D01*
X0182119Y0175943D01*
X0182232Y0176058D01*
X0182348Y0176169D01*
X0182467Y0176278D01*
X0182588Y0176383D01*
X0182712Y0176486D01*
X0182838Y0176586D01*
X0182966Y0176682D01*
X0183097Y0176775D01*
X0183231Y0176865D01*
X0183366Y0176952D01*
X0183504Y0177035D01*
X0183643Y0177115D01*
X0183785Y0177191D01*
X0183928Y0177264D01*
X0184073Y0177333D01*
X0184220Y0177399D01*
X0184368Y0177461D01*
X0184518Y0177519D01*
X0184669Y0177574D01*
X0184822Y0177625D01*
X0184976Y0177672D01*
X0185131Y0177715D01*
X0185287Y0177754D01*
X0185443Y0177790D01*
X0185601Y0177821D01*
X0185759Y0177849D01*
X0185918Y0177873D01*
X0186078Y0177893D01*
X0186238Y0177909D01*
X0186398Y0177921D01*
X0186559Y0177929D01*
X0186720Y0177933D01*
X0186880Y0177933D01*
X0187041Y0177929D01*
X0187202Y0177921D01*
X0187362Y0177909D01*
X0187522Y0177893D01*
X0187682Y0177873D01*
X0187841Y0177849D01*
X0187999Y0177821D01*
X0188157Y0177790D01*
X0188313Y0177754D01*
X0188469Y0177715D01*
X0188624Y0177672D01*
X0188778Y0177625D01*
X0188931Y0177574D01*
X0189082Y0177519D01*
X0189232Y0177461D01*
X0189380Y0177399D01*
X0189527Y0177333D01*
X0189672Y0177264D01*
X0189815Y0177191D01*
X0189957Y0177115D01*
X0190096Y0177035D01*
X0190234Y0176952D01*
X0190369Y0176865D01*
X0190503Y0176775D01*
X0190634Y0176682D01*
X0190762Y0176586D01*
X0190888Y0176486D01*
X0191012Y0176383D01*
X0191133Y0176278D01*
X0191252Y0176169D01*
X0191368Y0176058D01*
X0191481Y0175943D01*
X0191591Y0175826D01*
X0191698Y0175706D01*
X0191802Y0175584D01*
X0191903Y0175459D01*
X0192001Y0175331D01*
X0192096Y0175201D01*
X0192188Y0175069D01*
X0192276Y0174935D01*
X0192361Y0174798D01*
X0192443Y0174660D01*
X0192521Y0174519D01*
X0192595Y0174377D01*
X0192666Y0174233D01*
X0192734Y0174087D01*
X0192797Y0173939D01*
X0192858Y0173790D01*
X0192914Y0173639D01*
X0192967Y0173487D01*
X0193016Y0173334D01*
X0193061Y0173180D01*
X0193102Y0173025D01*
X0193140Y0172868D01*
X0193173Y0172711D01*
X0193203Y0172553D01*
X0193229Y0172394D01*
X0193250Y0172235D01*
X0193268Y0172075D01*
X0193282Y0171915D01*
X0193292Y0171754D01*
X0193298Y0171594D01*
X0193300Y0171433D01*
X0193298Y0171272D01*
X0193292Y0171112D01*
X0193282Y0170951D01*
X0193268Y0170791D01*
X0193250Y0170631D01*
X0193229Y0170472D01*
X0193203Y0170313D01*
X0193173Y0170155D01*
X0193140Y0169998D01*
X0193102Y0169841D01*
X0193061Y0169686D01*
X0193016Y0169532D01*
X0192967Y0169379D01*
X0192914Y0169227D01*
X0192858Y0169076D01*
X0192797Y0168927D01*
X0192734Y0168779D01*
X0192666Y0168633D01*
X0192595Y0168489D01*
X0192521Y0168347D01*
X0192443Y0168206D01*
X0192361Y0168068D01*
X0192276Y0167931D01*
X0192188Y0167797D01*
X0192096Y0167665D01*
X0192001Y0167535D01*
X0191903Y0167407D01*
X0191802Y0167282D01*
X0191698Y0167160D01*
X0191591Y0167040D01*
X0191481Y0166923D01*
X0191368Y0166808D01*
X0191252Y0166697D01*
X0191133Y0166588D01*
X0191012Y0166483D01*
X0190888Y0166380D01*
X0190762Y0166280D01*
X0190634Y0166184D01*
X0190503Y0166091D01*
X0190369Y0166001D01*
X0190234Y0165914D01*
X0190096Y0165831D01*
X0189957Y0165751D01*
X0189815Y0165675D01*
X0189672Y0165602D01*
X0189527Y0165533D01*
X0189380Y0165467D01*
X0189232Y0165405D01*
X0189082Y0165347D01*
X0188931Y0165292D01*
X0188778Y0165241D01*
X0188624Y0165194D01*
X0188469Y0165151D01*
X0188313Y0165112D01*
X0188157Y0165076D01*
X0187999Y0165045D01*
X0187841Y0165017D01*
X0187682Y0164993D01*
X0187522Y0164973D01*
X0187362Y0164957D01*
X0187202Y0164945D01*
X0187041Y0164937D01*
X0186880Y0164933D01*
X0186720Y0164933D01*
X0186559Y0164937D01*
X0186398Y0164945D01*
X0186238Y0164957D01*
X0186078Y0164973D01*
X0185918Y0164993D01*
X0185759Y0165017D01*
X0185601Y0165045D01*
X0185443Y0165076D01*
X0185287Y0165112D01*
X0185131Y0165151D01*
X0184976Y0165194D01*
X0184822Y0165241D01*
X0184669Y0165292D01*
X0184518Y0165347D01*
X0184368Y0165405D01*
X0184220Y0165467D01*
X0184073Y0165533D01*
X0183928Y0165602D01*
X0183785Y0165675D01*
X0183643Y0165751D01*
X0183504Y0165831D01*
X0183366Y0165914D01*
X0183231Y0166001D01*
X0183097Y0166091D01*
X0182966Y0166184D01*
X0182838Y0166280D01*
X0182712Y0166380D01*
X0182588Y0166483D01*
X0182467Y0166588D01*
X0182348Y0166697D01*
X0182232Y0166808D01*
X0182119Y0166923D01*
X0182009Y0167040D01*
X0181902Y0167160D01*
X0181798Y0167282D01*
X0181697Y0167407D01*
X0181599Y0167535D01*
X0181504Y0167665D01*
X0181412Y0167797D01*
X0181324Y0167931D01*
X0181239Y0168068D01*
X0181157Y0168206D01*
X0181079Y0168347D01*
X0181005Y0168489D01*
X0180934Y0168633D01*
X0180866Y0168779D01*
X0180803Y0168927D01*
X0180742Y0169076D01*
X0180686Y0169227D01*
X0180633Y0169379D01*
X0180584Y0169532D01*
X0180539Y0169686D01*
X0180498Y0169841D01*
X0180460Y0169998D01*
X0180427Y0170155D01*
X0180397Y0170313D01*
X0180371Y0170472D01*
X0180350Y0170631D01*
X0180332Y0170791D01*
X0180318Y0170951D01*
X0180308Y0171112D01*
X0180302Y0171272D01*
X0180300Y0171433D01*
X0180978Y0174324D02*
X0179126Y0176135D01*
X0181921Y0178996D02*
X0183774Y0177186D01*
X0184800Y0162658D02*
X0185007Y0162613D01*
X0185216Y0162573D01*
X0185425Y0162539D01*
X0185636Y0162509D01*
X0185846Y0162484D01*
X0186058Y0162464D01*
X0186270Y0162449D01*
X0186482Y0162439D01*
X0186694Y0162434D01*
X0186906Y0162434D01*
X0187118Y0162439D01*
X0187330Y0162449D01*
X0187542Y0162464D01*
X0187754Y0162484D01*
X0187964Y0162509D01*
X0188175Y0162539D01*
X0188384Y0162573D01*
X0188593Y0162613D01*
X0188800Y0162658D01*
X0188800Y0165248D01*
X0184800Y0165248D02*
X0184800Y0162658D01*
X0187842Y0161187D02*
X0190845Y0161187D01*
X0189343Y0161187D02*
X0189343Y0156683D01*
X0192446Y0158935D02*
X0195449Y0158935D01*
X0194698Y0156683D02*
X0194698Y0161187D01*
X0192446Y0158935D01*
X0194474Y0176135D02*
X0194361Y0176315D01*
X0194244Y0176492D01*
X0194123Y0176666D01*
X0193997Y0176837D01*
X0193868Y0177005D01*
X0193734Y0177170D01*
X0193597Y0177332D01*
X0193456Y0177491D01*
X0193311Y0177646D01*
X0193163Y0177798D01*
X0193011Y0177946D01*
X0192856Y0178091D01*
X0192697Y0178232D01*
X0192535Y0178369D01*
X0192370Y0178503D01*
X0192201Y0178632D01*
X0192030Y0178757D01*
X0191856Y0178879D01*
X0191679Y0178996D01*
X0181921Y0178996D02*
X0181744Y0178879D01*
X0181570Y0178757D01*
X0181399Y0178632D01*
X0181230Y0178503D01*
X0181065Y0178369D01*
X0180903Y0178232D01*
X0180744Y0178091D01*
X0180589Y0177946D01*
X0180437Y0177798D01*
X0180289Y0177646D01*
X0180144Y0177491D01*
X0180003Y0177332D01*
X0179866Y0177170D01*
X0179732Y0177005D01*
X0179603Y0176837D01*
X0179477Y0176666D01*
X0179356Y0176492D01*
X0179239Y0176315D01*
X0179126Y0176135D01*
X0139300Y0114933D02*
X0139300Y0042933D01*
X0329300Y0042933D01*
X0329300Y0114933D01*
X0139300Y0114933D01*
X0155200Y0089333D02*
X0167500Y0095933D01*
X0167700Y0096033D02*
X0167700Y0089333D01*
X0169000Y0089333D02*
X0169000Y0091233D01*
X0181300Y0091233D01*
X0181400Y0091233D01*
X0181500Y0091233D02*
X0181550Y0091242D01*
X0181599Y0091254D01*
X0181647Y0091270D01*
X0181693Y0091289D01*
X0181738Y0091311D01*
X0181782Y0091337D01*
X0181823Y0091366D01*
X0181862Y0091398D01*
X0181899Y0091432D01*
X0181933Y0091469D01*
X0181965Y0091508D01*
X0181993Y0091550D01*
X0182018Y0091594D01*
X0182040Y0091639D01*
X0182059Y0091686D01*
X0182074Y0091734D01*
X0182086Y0091783D01*
X0182094Y0091832D01*
X0182099Y0091882D01*
X0182100Y0091933D01*
X0182100Y0091833D01*
X0182100Y0091933D02*
X0182100Y0095333D01*
X0182091Y0095383D01*
X0182079Y0095432D01*
X0182063Y0095480D01*
X0182044Y0095526D01*
X0182022Y0095571D01*
X0181996Y0095615D01*
X0181967Y0095656D01*
X0181935Y0095695D01*
X0181901Y0095732D01*
X0181864Y0095766D01*
X0181825Y0095798D01*
X0181783Y0095826D01*
X0181739Y0095851D01*
X0181694Y0095873D01*
X0181647Y0095892D01*
X0181599Y0095907D01*
X0181550Y0095919D01*
X0181501Y0095927D01*
X0181451Y0095932D01*
X0181400Y0095933D01*
X0169000Y0095933D01*
X0169000Y0091233D01*
X0167500Y0091233D02*
X0158800Y0091233D01*
X0181300Y0091233D02*
X0181350Y0091232D01*
X0181400Y0091227D01*
X0181450Y0091219D01*
X0181499Y0091208D01*
X0181547Y0091192D01*
X0181594Y0091173D01*
X0181639Y0091151D01*
X0181683Y0091126D01*
X0181725Y0091098D01*
X0181764Y0091066D01*
X0181801Y0091032D01*
X0181836Y0090995D01*
X0181867Y0090956D01*
X0181896Y0090915D01*
X0181922Y0090871D01*
X0181944Y0090826D01*
X0181963Y0090779D01*
X0181979Y0090732D01*
X0181991Y0090683D01*
X0182000Y0090633D01*
X0182000Y0090733D02*
X0182000Y0089333D01*
X0183700Y0089533D02*
X0196500Y0095933D01*
X0198000Y0095933D02*
X0210400Y0095933D01*
X0210451Y0095932D01*
X0210501Y0095927D01*
X0210550Y0095919D01*
X0210599Y0095907D01*
X0210647Y0095892D01*
X0210694Y0095873D01*
X0210739Y0095851D01*
X0210783Y0095826D01*
X0210825Y0095798D01*
X0210864Y0095766D01*
X0210901Y0095732D01*
X0210935Y0095695D01*
X0210967Y0095656D01*
X0210996Y0095615D01*
X0211022Y0095571D01*
X0211044Y0095526D01*
X0211063Y0095480D01*
X0211079Y0095432D01*
X0211091Y0095383D01*
X0211100Y0095333D01*
X0211100Y0091933D01*
X0211100Y0091833D01*
X0211100Y0091933D02*
X0211099Y0091882D01*
X0211094Y0091832D01*
X0211086Y0091783D01*
X0211074Y0091734D01*
X0211059Y0091686D01*
X0211040Y0091639D01*
X0211018Y0091594D01*
X0210993Y0091550D01*
X0210965Y0091508D01*
X0210933Y0091469D01*
X0210899Y0091432D01*
X0210862Y0091398D01*
X0210823Y0091366D01*
X0210782Y0091337D01*
X0210738Y0091311D01*
X0210693Y0091289D01*
X0210647Y0091270D01*
X0210599Y0091254D01*
X0210550Y0091242D01*
X0210500Y0091233D01*
X0210400Y0091233D02*
X0198000Y0091233D01*
X0198000Y0089333D01*
X0198000Y0091233D02*
X0198000Y0095933D01*
X0183700Y0096033D02*
X0183700Y0089533D01*
X0026850Y0090301D02*
X0026850Y0087299D01*
X0023847Y0090301D01*
X0023097Y0090301D01*
X0022346Y0089551D01*
X0022346Y0088049D01*
X0023097Y0087299D01*
X0022346Y0085697D02*
X0025349Y0085697D01*
X0026850Y0084196D01*
X0025349Y0082695D01*
X0022346Y0082695D01*
X0022346Y0080343D02*
X0024598Y0078091D01*
X0024598Y0081093D01*
X0026850Y0080343D02*
X0022346Y0080343D01*
X0023097Y0076490D02*
X0022346Y0075739D01*
X0022346Y0074238D01*
X0023097Y0073487D01*
X0023097Y0071886D02*
X0022346Y0071135D01*
X0022346Y0068883D01*
X0026850Y0068883D01*
X0026850Y0071135D01*
X0026099Y0071886D01*
X0023097Y0071886D01*
X0026850Y0073487D02*
X0023847Y0076490D01*
X0023097Y0076490D01*
X0026850Y0076490D02*
X0026850Y0073487D01*
X0026850Y0091903D02*
X0023847Y0094905D01*
X0023097Y0094905D01*
X0022346Y0094155D01*
X0022346Y0092653D01*
X0023097Y0091903D01*
X0026850Y0091903D02*
X0026850Y0094905D01*
X0026850Y0096507D02*
X0022346Y0096507D01*
X0022346Y0099509D01*
X0022346Y0101111D02*
X0024598Y0101111D01*
X0023847Y0102612D01*
X0023847Y0103362D01*
X0024598Y0104113D01*
X0026099Y0104113D01*
X0026850Y0103362D01*
X0026850Y0101861D01*
X0026099Y0101111D01*
X0024598Y0098008D02*
X0024598Y0096507D01*
X0022346Y0101111D02*
X0022346Y0104113D01*
D14*
X0026300Y0143933D02*
X0026300Y0151433D01*
X0029800Y0151433D01*
X0029800Y0157433D01*
X0026300Y0157433D01*
X0026300Y0206433D01*
X0067300Y0206433D01*
X0067300Y0157433D01*
X0063800Y0157433D01*
X0063800Y0151433D01*
X0067300Y0151433D01*
X0067300Y0143933D01*
X0026300Y0143933D01*
X0039700Y0157433D02*
X0039702Y0157607D01*
X0039709Y0157781D01*
X0039719Y0157955D01*
X0039734Y0158129D01*
X0039753Y0158302D01*
X0039777Y0158475D01*
X0039805Y0158647D01*
X0039836Y0158818D01*
X0039873Y0158989D01*
X0039913Y0159158D01*
X0039957Y0159327D01*
X0040006Y0159494D01*
X0040058Y0159660D01*
X0040115Y0159825D01*
X0040176Y0159988D01*
X0040240Y0160150D01*
X0040309Y0160310D01*
X0040382Y0160469D01*
X0040458Y0160625D01*
X0040538Y0160780D01*
X0040622Y0160933D01*
X0040710Y0161083D01*
X0040802Y0161231D01*
X0040897Y0161378D01*
X0040995Y0161521D01*
X0041097Y0161662D01*
X0041203Y0161801D01*
X0041312Y0161937D01*
X0041424Y0162071D01*
X0041539Y0162201D01*
X0041658Y0162329D01*
X0041780Y0162453D01*
X0041904Y0162575D01*
X0042032Y0162694D01*
X0042162Y0162809D01*
X0042296Y0162921D01*
X0042432Y0163030D01*
X0042571Y0163136D01*
X0042712Y0163238D01*
X0042855Y0163336D01*
X0043002Y0163431D01*
X0043150Y0163523D01*
X0043300Y0163611D01*
X0043453Y0163695D01*
X0043608Y0163775D01*
X0043764Y0163851D01*
X0043923Y0163924D01*
X0044083Y0163993D01*
X0044245Y0164057D01*
X0044408Y0164118D01*
X0044573Y0164175D01*
X0044739Y0164227D01*
X0044906Y0164276D01*
X0045075Y0164320D01*
X0045244Y0164360D01*
X0045415Y0164397D01*
X0045586Y0164428D01*
X0045758Y0164456D01*
X0045931Y0164480D01*
X0046104Y0164499D01*
X0046278Y0164514D01*
X0046452Y0164524D01*
X0046626Y0164531D01*
X0046800Y0164533D01*
X0046974Y0164531D01*
X0047148Y0164524D01*
X0047322Y0164514D01*
X0047496Y0164499D01*
X0047669Y0164480D01*
X0047842Y0164456D01*
X0048014Y0164428D01*
X0048185Y0164397D01*
X0048356Y0164360D01*
X0048525Y0164320D01*
X0048694Y0164276D01*
X0048861Y0164227D01*
X0049027Y0164175D01*
X0049192Y0164118D01*
X0049355Y0164057D01*
X0049517Y0163993D01*
X0049677Y0163924D01*
X0049836Y0163851D01*
X0049992Y0163775D01*
X0050147Y0163695D01*
X0050300Y0163611D01*
X0050450Y0163523D01*
X0050598Y0163431D01*
X0050745Y0163336D01*
X0050888Y0163238D01*
X0051029Y0163136D01*
X0051168Y0163030D01*
X0051304Y0162921D01*
X0051438Y0162809D01*
X0051568Y0162694D01*
X0051696Y0162575D01*
X0051820Y0162453D01*
X0051942Y0162329D01*
X0052061Y0162201D01*
X0052176Y0162071D01*
X0052288Y0161937D01*
X0052397Y0161801D01*
X0052503Y0161662D01*
X0052605Y0161521D01*
X0052703Y0161378D01*
X0052798Y0161231D01*
X0052890Y0161083D01*
X0052978Y0160933D01*
X0053062Y0160780D01*
X0053142Y0160625D01*
X0053218Y0160469D01*
X0053291Y0160310D01*
X0053360Y0160150D01*
X0053424Y0159988D01*
X0053485Y0159825D01*
X0053542Y0159660D01*
X0053594Y0159494D01*
X0053643Y0159327D01*
X0053687Y0159158D01*
X0053727Y0158989D01*
X0053764Y0158818D01*
X0053795Y0158647D01*
X0053823Y0158475D01*
X0053847Y0158302D01*
X0053866Y0158129D01*
X0053881Y0157955D01*
X0053891Y0157781D01*
X0053898Y0157607D01*
X0053900Y0157433D01*
X0053898Y0157259D01*
X0053891Y0157085D01*
X0053881Y0156911D01*
X0053866Y0156737D01*
X0053847Y0156564D01*
X0053823Y0156391D01*
X0053795Y0156219D01*
X0053764Y0156048D01*
X0053727Y0155877D01*
X0053687Y0155708D01*
X0053643Y0155539D01*
X0053594Y0155372D01*
X0053542Y0155206D01*
X0053485Y0155041D01*
X0053424Y0154878D01*
X0053360Y0154716D01*
X0053291Y0154556D01*
X0053218Y0154397D01*
X0053142Y0154241D01*
X0053062Y0154086D01*
X0052978Y0153933D01*
X0052890Y0153783D01*
X0052798Y0153635D01*
X0052703Y0153488D01*
X0052605Y0153345D01*
X0052503Y0153204D01*
X0052397Y0153065D01*
X0052288Y0152929D01*
X0052176Y0152795D01*
X0052061Y0152665D01*
X0051942Y0152537D01*
X0051820Y0152413D01*
X0051696Y0152291D01*
X0051568Y0152172D01*
X0051438Y0152057D01*
X0051304Y0151945D01*
X0051168Y0151836D01*
X0051029Y0151730D01*
X0050888Y0151628D01*
X0050745Y0151530D01*
X0050598Y0151435D01*
X0050450Y0151343D01*
X0050300Y0151255D01*
X0050147Y0151171D01*
X0049992Y0151091D01*
X0049836Y0151015D01*
X0049677Y0150942D01*
X0049517Y0150873D01*
X0049355Y0150809D01*
X0049192Y0150748D01*
X0049027Y0150691D01*
X0048861Y0150639D01*
X0048694Y0150590D01*
X0048525Y0150546D01*
X0048356Y0150506D01*
X0048185Y0150469D01*
X0048014Y0150438D01*
X0047842Y0150410D01*
X0047669Y0150386D01*
X0047496Y0150367D01*
X0047322Y0150352D01*
X0047148Y0150342D01*
X0046974Y0150335D01*
X0046800Y0150333D01*
X0046626Y0150335D01*
X0046452Y0150342D01*
X0046278Y0150352D01*
X0046104Y0150367D01*
X0045931Y0150386D01*
X0045758Y0150410D01*
X0045586Y0150438D01*
X0045415Y0150469D01*
X0045244Y0150506D01*
X0045075Y0150546D01*
X0044906Y0150590D01*
X0044739Y0150639D01*
X0044573Y0150691D01*
X0044408Y0150748D01*
X0044245Y0150809D01*
X0044083Y0150873D01*
X0043923Y0150942D01*
X0043764Y0151015D01*
X0043608Y0151091D01*
X0043453Y0151171D01*
X0043300Y0151255D01*
X0043150Y0151343D01*
X0043002Y0151435D01*
X0042855Y0151530D01*
X0042712Y0151628D01*
X0042571Y0151730D01*
X0042432Y0151836D01*
X0042296Y0151945D01*
X0042162Y0152057D01*
X0042032Y0152172D01*
X0041904Y0152291D01*
X0041780Y0152413D01*
X0041658Y0152537D01*
X0041539Y0152665D01*
X0041424Y0152795D01*
X0041312Y0152929D01*
X0041203Y0153065D01*
X0041097Y0153204D01*
X0040995Y0153345D01*
X0040897Y0153488D01*
X0040802Y0153635D01*
X0040710Y0153783D01*
X0040622Y0153933D01*
X0040538Y0154086D01*
X0040458Y0154241D01*
X0040382Y0154397D01*
X0040309Y0154556D01*
X0040240Y0154716D01*
X0040176Y0154878D01*
X0040115Y0155041D01*
X0040058Y0155206D01*
X0040006Y0155372D01*
X0039957Y0155539D01*
X0039913Y0155708D01*
X0039873Y0155877D01*
X0039836Y0156048D01*
X0039805Y0156219D01*
X0039777Y0156391D01*
X0039753Y0156564D01*
X0039734Y0156737D01*
X0039719Y0156911D01*
X0039709Y0157085D01*
X0039702Y0157259D01*
X0039700Y0157433D01*
X0093800Y0157433D02*
X0097300Y0157433D01*
X0097300Y0151433D01*
X0093800Y0151433D01*
X0093800Y0143933D01*
X0134800Y0143933D01*
X0134800Y0151433D01*
X0131300Y0151433D01*
X0131300Y0157433D01*
X0134800Y0157433D01*
X0134800Y0206433D01*
X0093800Y0206433D01*
X0093800Y0157433D01*
X0107200Y0157433D02*
X0107202Y0157607D01*
X0107209Y0157781D01*
X0107219Y0157955D01*
X0107234Y0158129D01*
X0107253Y0158302D01*
X0107277Y0158475D01*
X0107305Y0158647D01*
X0107336Y0158818D01*
X0107373Y0158989D01*
X0107413Y0159158D01*
X0107457Y0159327D01*
X0107506Y0159494D01*
X0107558Y0159660D01*
X0107615Y0159825D01*
X0107676Y0159988D01*
X0107740Y0160150D01*
X0107809Y0160310D01*
X0107882Y0160469D01*
X0107958Y0160625D01*
X0108038Y0160780D01*
X0108122Y0160933D01*
X0108210Y0161083D01*
X0108302Y0161231D01*
X0108397Y0161378D01*
X0108495Y0161521D01*
X0108597Y0161662D01*
X0108703Y0161801D01*
X0108812Y0161937D01*
X0108924Y0162071D01*
X0109039Y0162201D01*
X0109158Y0162329D01*
X0109280Y0162453D01*
X0109404Y0162575D01*
X0109532Y0162694D01*
X0109662Y0162809D01*
X0109796Y0162921D01*
X0109932Y0163030D01*
X0110071Y0163136D01*
X0110212Y0163238D01*
X0110355Y0163336D01*
X0110502Y0163431D01*
X0110650Y0163523D01*
X0110800Y0163611D01*
X0110953Y0163695D01*
X0111108Y0163775D01*
X0111264Y0163851D01*
X0111423Y0163924D01*
X0111583Y0163993D01*
X0111745Y0164057D01*
X0111908Y0164118D01*
X0112073Y0164175D01*
X0112239Y0164227D01*
X0112406Y0164276D01*
X0112575Y0164320D01*
X0112744Y0164360D01*
X0112915Y0164397D01*
X0113086Y0164428D01*
X0113258Y0164456D01*
X0113431Y0164480D01*
X0113604Y0164499D01*
X0113778Y0164514D01*
X0113952Y0164524D01*
X0114126Y0164531D01*
X0114300Y0164533D01*
X0114474Y0164531D01*
X0114648Y0164524D01*
X0114822Y0164514D01*
X0114996Y0164499D01*
X0115169Y0164480D01*
X0115342Y0164456D01*
X0115514Y0164428D01*
X0115685Y0164397D01*
X0115856Y0164360D01*
X0116025Y0164320D01*
X0116194Y0164276D01*
X0116361Y0164227D01*
X0116527Y0164175D01*
X0116692Y0164118D01*
X0116855Y0164057D01*
X0117017Y0163993D01*
X0117177Y0163924D01*
X0117336Y0163851D01*
X0117492Y0163775D01*
X0117647Y0163695D01*
X0117800Y0163611D01*
X0117950Y0163523D01*
X0118098Y0163431D01*
X0118245Y0163336D01*
X0118388Y0163238D01*
X0118529Y0163136D01*
X0118668Y0163030D01*
X0118804Y0162921D01*
X0118938Y0162809D01*
X0119068Y0162694D01*
X0119196Y0162575D01*
X0119320Y0162453D01*
X0119442Y0162329D01*
X0119561Y0162201D01*
X0119676Y0162071D01*
X0119788Y0161937D01*
X0119897Y0161801D01*
X0120003Y0161662D01*
X0120105Y0161521D01*
X0120203Y0161378D01*
X0120298Y0161231D01*
X0120390Y0161083D01*
X0120478Y0160933D01*
X0120562Y0160780D01*
X0120642Y0160625D01*
X0120718Y0160469D01*
X0120791Y0160310D01*
X0120860Y0160150D01*
X0120924Y0159988D01*
X0120985Y0159825D01*
X0121042Y0159660D01*
X0121094Y0159494D01*
X0121143Y0159327D01*
X0121187Y0159158D01*
X0121227Y0158989D01*
X0121264Y0158818D01*
X0121295Y0158647D01*
X0121323Y0158475D01*
X0121347Y0158302D01*
X0121366Y0158129D01*
X0121381Y0157955D01*
X0121391Y0157781D01*
X0121398Y0157607D01*
X0121400Y0157433D01*
X0121398Y0157259D01*
X0121391Y0157085D01*
X0121381Y0156911D01*
X0121366Y0156737D01*
X0121347Y0156564D01*
X0121323Y0156391D01*
X0121295Y0156219D01*
X0121264Y0156048D01*
X0121227Y0155877D01*
X0121187Y0155708D01*
X0121143Y0155539D01*
X0121094Y0155372D01*
X0121042Y0155206D01*
X0120985Y0155041D01*
X0120924Y0154878D01*
X0120860Y0154716D01*
X0120791Y0154556D01*
X0120718Y0154397D01*
X0120642Y0154241D01*
X0120562Y0154086D01*
X0120478Y0153933D01*
X0120390Y0153783D01*
X0120298Y0153635D01*
X0120203Y0153488D01*
X0120105Y0153345D01*
X0120003Y0153204D01*
X0119897Y0153065D01*
X0119788Y0152929D01*
X0119676Y0152795D01*
X0119561Y0152665D01*
X0119442Y0152537D01*
X0119320Y0152413D01*
X0119196Y0152291D01*
X0119068Y0152172D01*
X0118938Y0152057D01*
X0118804Y0151945D01*
X0118668Y0151836D01*
X0118529Y0151730D01*
X0118388Y0151628D01*
X0118245Y0151530D01*
X0118098Y0151435D01*
X0117950Y0151343D01*
X0117800Y0151255D01*
X0117647Y0151171D01*
X0117492Y0151091D01*
X0117336Y0151015D01*
X0117177Y0150942D01*
X0117017Y0150873D01*
X0116855Y0150809D01*
X0116692Y0150748D01*
X0116527Y0150691D01*
X0116361Y0150639D01*
X0116194Y0150590D01*
X0116025Y0150546D01*
X0115856Y0150506D01*
X0115685Y0150469D01*
X0115514Y0150438D01*
X0115342Y0150410D01*
X0115169Y0150386D01*
X0114996Y0150367D01*
X0114822Y0150352D01*
X0114648Y0150342D01*
X0114474Y0150335D01*
X0114300Y0150333D01*
X0114126Y0150335D01*
X0113952Y0150342D01*
X0113778Y0150352D01*
X0113604Y0150367D01*
X0113431Y0150386D01*
X0113258Y0150410D01*
X0113086Y0150438D01*
X0112915Y0150469D01*
X0112744Y0150506D01*
X0112575Y0150546D01*
X0112406Y0150590D01*
X0112239Y0150639D01*
X0112073Y0150691D01*
X0111908Y0150748D01*
X0111745Y0150809D01*
X0111583Y0150873D01*
X0111423Y0150942D01*
X0111264Y0151015D01*
X0111108Y0151091D01*
X0110953Y0151171D01*
X0110800Y0151255D01*
X0110650Y0151343D01*
X0110502Y0151435D01*
X0110355Y0151530D01*
X0110212Y0151628D01*
X0110071Y0151730D01*
X0109932Y0151836D01*
X0109796Y0151945D01*
X0109662Y0152057D01*
X0109532Y0152172D01*
X0109404Y0152291D01*
X0109280Y0152413D01*
X0109158Y0152537D01*
X0109039Y0152665D01*
X0108924Y0152795D01*
X0108812Y0152929D01*
X0108703Y0153065D01*
X0108597Y0153204D01*
X0108495Y0153345D01*
X0108397Y0153488D01*
X0108302Y0153635D01*
X0108210Y0153783D01*
X0108122Y0153933D01*
X0108038Y0154086D01*
X0107958Y0154241D01*
X0107882Y0154397D01*
X0107809Y0154556D01*
X0107740Y0154716D01*
X0107676Y0154878D01*
X0107615Y0155041D01*
X0107558Y0155206D01*
X0107506Y0155372D01*
X0107457Y0155539D01*
X0107413Y0155708D01*
X0107373Y0155877D01*
X0107336Y0156048D01*
X0107305Y0156219D01*
X0107277Y0156391D01*
X0107253Y0156564D01*
X0107234Y0156737D01*
X0107219Y0156911D01*
X0107209Y0157085D01*
X0107202Y0157259D01*
X0107200Y0157433D01*
X0076662Y0207752D02*
X0076662Y0210114D01*
X0071938Y0210114D02*
X0071938Y0207752D01*
X0081938Y0229002D02*
X0081938Y0231364D01*
X0086662Y0231364D02*
X0086662Y0229002D01*
X0064800Y0241433D02*
X0064800Y0251433D01*
X0048800Y0251433D01*
X0048800Y0241433D01*
X0064800Y0241433D01*
X0059300Y0246433D02*
X0056800Y0246433D01*
X0056800Y0248933D01*
X0056800Y0246433D02*
X0056800Y0243933D01*
X0056800Y0246433D02*
X0050800Y0246433D01*
X0052800Y0243933D02*
X0052800Y0248933D01*
X0056800Y0246433D01*
X0052800Y0243933D01*
X0113800Y0241433D02*
X0129800Y0241433D01*
X0129800Y0251433D01*
X0113800Y0251433D01*
X0113800Y0241433D01*
X0117800Y0243933D02*
X0121800Y0246433D01*
X0121800Y0248933D01*
X0121800Y0246433D02*
X0121800Y0243933D01*
X0121800Y0246433D02*
X0115800Y0246433D01*
X0117800Y0243933D02*
X0117800Y0248933D01*
X0121800Y0246433D01*
X0124300Y0246433D01*
X0152119Y0220795D02*
X0154481Y0220795D01*
X0154481Y0216071D02*
X0152119Y0216071D01*
X0141662Y0212614D02*
X0141662Y0210252D01*
X0136938Y0210252D02*
X0136938Y0212614D01*
X0174438Y0230252D02*
X0174438Y0232614D01*
X0179162Y0232614D02*
X0179162Y0230252D01*
X0229438Y0230252D02*
X0229438Y0232614D01*
X0234162Y0232614D02*
X0234162Y0230252D01*
X0135481Y0066295D02*
X0133119Y0066295D01*
X0133119Y0061571D02*
X0135481Y0061571D01*
D15*
X0127300Y0246433D03*
X0062300Y0246433D03*
D16*
X0068550Y0246433D03*
X0045050Y0246433D03*
X0110050Y0246433D03*
X0133550Y0246433D03*
D17*
X0142349Y0229511D02*
X0142099Y0229260D01*
X0142099Y0228760D01*
X0142349Y0228510D01*
X0142349Y0228037D02*
X0142099Y0227787D01*
X0142099Y0227037D01*
X0143600Y0227037D01*
X0143600Y0227787D01*
X0143350Y0228037D01*
X0142349Y0228037D01*
X0143600Y0228510D02*
X0142599Y0229511D01*
X0142349Y0229511D01*
X0143600Y0229511D02*
X0143600Y0228510D01*
X0143600Y0226564D02*
X0143600Y0225563D01*
X0142099Y0225563D01*
X0142099Y0226564D01*
X0142849Y0226064D02*
X0142849Y0225563D01*
X0143600Y0225091D02*
X0143600Y0224090D01*
X0142099Y0224090D01*
X0153403Y0215134D02*
X0154154Y0215134D01*
X0154404Y0214884D01*
X0154404Y0214384D01*
X0154154Y0214133D01*
X0153403Y0214133D01*
X0153403Y0213633D02*
X0153403Y0215134D01*
X0153904Y0214133D02*
X0154404Y0213633D01*
X0154877Y0213883D02*
X0155127Y0213633D01*
X0155627Y0213633D01*
X0155878Y0213883D01*
X0155878Y0214133D01*
X0155627Y0214384D01*
X0155377Y0214384D01*
X0155627Y0214384D02*
X0155878Y0214634D01*
X0155878Y0214884D01*
X0155627Y0215134D01*
X0155127Y0215134D01*
X0154877Y0214884D01*
X0136000Y0210957D02*
X0136000Y0209956D01*
X0136000Y0209484D02*
X0135500Y0208983D01*
X0135500Y0209234D02*
X0135500Y0208483D01*
X0136000Y0208483D02*
X0134499Y0208483D01*
X0134499Y0209234D01*
X0134749Y0209484D01*
X0135249Y0209484D01*
X0135500Y0209234D01*
X0134999Y0209956D02*
X0134499Y0210457D01*
X0136000Y0210457D01*
X0180099Y0231537D02*
X0180099Y0232287D01*
X0180349Y0232537D01*
X0180849Y0232537D01*
X0181100Y0232287D01*
X0181100Y0231537D01*
X0181100Y0232037D02*
X0181600Y0232537D01*
X0181350Y0233010D02*
X0181600Y0233260D01*
X0181600Y0233760D01*
X0181350Y0234011D01*
X0181100Y0234011D01*
X0180849Y0233760D01*
X0180849Y0233010D01*
X0181350Y0233010D01*
X0180849Y0233010D02*
X0180349Y0233510D01*
X0180099Y0234011D01*
X0180099Y0231537D02*
X0181600Y0231537D01*
X0235099Y0231537D02*
X0235099Y0232287D01*
X0235349Y0232537D01*
X0235849Y0232537D01*
X0236100Y0232287D01*
X0236100Y0231537D01*
X0236100Y0232037D02*
X0236600Y0232537D01*
X0236350Y0233010D02*
X0236600Y0233260D01*
X0236600Y0233760D01*
X0236350Y0234011D01*
X0235849Y0234011D01*
X0235599Y0233760D01*
X0235599Y0233510D01*
X0235849Y0233010D01*
X0235099Y0233010D01*
X0235099Y0234011D01*
X0235099Y0231537D02*
X0236600Y0231537D01*
X0089100Y0231760D02*
X0088850Y0231760D01*
X0087849Y0232761D01*
X0087599Y0232761D01*
X0087599Y0231760D01*
X0087849Y0231287D02*
X0088349Y0231287D01*
X0088600Y0231037D01*
X0088600Y0230287D01*
X0088600Y0230787D02*
X0089100Y0231287D01*
X0089100Y0230287D02*
X0087599Y0230287D01*
X0087599Y0231037D01*
X0087849Y0231287D01*
X0078600Y0226760D02*
X0078600Y0226260D01*
X0078350Y0226010D01*
X0078350Y0225537D02*
X0077349Y0225537D01*
X0077099Y0225287D01*
X0077099Y0224537D01*
X0078600Y0224537D01*
X0078600Y0225287D01*
X0078350Y0225537D01*
X0077849Y0226510D02*
X0077849Y0226760D01*
X0078100Y0227011D01*
X0078350Y0227011D01*
X0078600Y0226760D01*
X0077849Y0226760D02*
X0077599Y0227011D01*
X0077349Y0227011D01*
X0077099Y0226760D01*
X0077099Y0226260D01*
X0077349Y0226010D01*
X0077099Y0224064D02*
X0077099Y0223063D01*
X0078600Y0223063D01*
X0078600Y0224064D01*
X0077849Y0223564D02*
X0077849Y0223063D01*
X0078600Y0222591D02*
X0078600Y0221590D01*
X0077099Y0221590D01*
X0071000Y0208457D02*
X0071000Y0207456D01*
X0069999Y0208457D01*
X0069749Y0208457D01*
X0069499Y0208207D01*
X0069499Y0207707D01*
X0069749Y0207456D01*
X0069749Y0206984D02*
X0070249Y0206984D01*
X0070500Y0206734D01*
X0070500Y0205983D01*
X0071000Y0205983D02*
X0069499Y0205983D01*
X0069499Y0206734D01*
X0069749Y0206984D01*
X0070500Y0206483D02*
X0071000Y0206984D01*
X0119000Y0063404D02*
X0119000Y0062403D01*
X0119000Y0062903D02*
X0117499Y0062903D01*
X0117999Y0062403D01*
X0117749Y0061930D02*
X0117499Y0061680D01*
X0117499Y0060930D01*
X0119000Y0060930D01*
X0119000Y0061680D01*
X0118750Y0061930D01*
X0117749Y0061930D01*
X0117499Y0060457D02*
X0117499Y0059456D01*
X0119000Y0059456D01*
X0119000Y0060457D01*
X0118249Y0059957D02*
X0118249Y0059456D01*
X0119000Y0058984D02*
X0119000Y0057983D01*
X0117499Y0057983D01*
X0134403Y0059133D02*
X0134403Y0060634D01*
X0135154Y0060634D01*
X0135404Y0060384D01*
X0135404Y0059884D01*
X0135154Y0059633D01*
X0134403Y0059633D01*
X0134904Y0059633D02*
X0135404Y0059133D01*
X0135877Y0059884D02*
X0136878Y0059884D01*
X0136627Y0060634D02*
X0135877Y0059884D01*
X0136627Y0060634D02*
X0136627Y0059133D01*
D18*
X0154700Y0086533D02*
X0154400Y0086833D01*
X0154700Y0087134D01*
X0155601Y0087134D01*
X0155601Y0087434D02*
X0155601Y0086533D01*
X0154700Y0086533D01*
X0154700Y0087734D02*
X0155301Y0087734D01*
X0155601Y0087434D01*
X0156242Y0087734D02*
X0156242Y0086833D01*
X0156542Y0086533D01*
X0157443Y0086533D01*
X0157443Y0087734D01*
X0158083Y0087734D02*
X0158684Y0087734D01*
X0158383Y0088034D02*
X0158383Y0086833D01*
X0158684Y0086533D01*
X0159311Y0086833D02*
X0159611Y0086533D01*
X0160212Y0086533D01*
X0160512Y0086833D01*
X0160512Y0087434D01*
X0160212Y0087734D01*
X0159611Y0087734D01*
X0159311Y0087434D01*
X0159311Y0086833D01*
X0161152Y0086533D02*
X0161152Y0087734D01*
X0162053Y0087734D01*
X0162353Y0087434D01*
X0162353Y0086533D01*
X0162994Y0086833D02*
X0163294Y0086533D01*
X0163895Y0086533D01*
X0164195Y0086833D01*
X0164195Y0087434D01*
X0163895Y0087734D01*
X0163294Y0087734D01*
X0162994Y0087434D01*
X0162994Y0086833D01*
X0164836Y0086533D02*
X0164836Y0087734D01*
X0165136Y0087734D01*
X0165436Y0087434D01*
X0165736Y0087734D01*
X0166037Y0087434D01*
X0166037Y0086533D01*
X0165436Y0086533D02*
X0165436Y0087434D01*
X0166677Y0087434D02*
X0166677Y0086833D01*
X0166977Y0086533D01*
X0167578Y0086533D01*
X0167878Y0086833D01*
X0167878Y0087434D01*
X0167578Y0087734D01*
X0166977Y0087734D01*
X0166677Y0087434D01*
X0168519Y0087734D02*
X0168519Y0086833D01*
X0168819Y0086533D01*
X0169720Y0086533D01*
X0169720Y0087734D01*
X0170360Y0087434D02*
X0170661Y0087734D01*
X0171561Y0087734D01*
X0171261Y0087134D02*
X0170661Y0087134D01*
X0170360Y0087434D01*
X0170360Y0086533D02*
X0171261Y0086533D01*
X0171561Y0086833D01*
X0171261Y0087134D01*
X0174043Y0087134D02*
X0174644Y0087734D01*
X0174944Y0087734D01*
X0175578Y0087434D02*
X0175578Y0086833D01*
X0175878Y0086533D01*
X0176479Y0086533D01*
X0176779Y0086833D01*
X0176779Y0087434D01*
X0176479Y0087734D01*
X0175878Y0087734D01*
X0175578Y0087434D01*
X0174043Y0087734D02*
X0174043Y0086533D01*
X0177420Y0086533D02*
X0177420Y0088335D01*
X0177420Y0087734D02*
X0178320Y0087734D01*
X0178621Y0087434D01*
X0178621Y0086833D01*
X0178320Y0086533D01*
X0177420Y0086533D01*
X0179261Y0086833D02*
X0179561Y0086533D01*
X0180162Y0086533D01*
X0180462Y0086833D01*
X0180462Y0087434D01*
X0180162Y0087734D01*
X0179561Y0087734D01*
X0179261Y0087434D01*
X0179261Y0086833D01*
X0181103Y0087734D02*
X0181703Y0087734D01*
X0181403Y0088034D02*
X0181403Y0086833D01*
X0181703Y0086533D01*
X0182330Y0086533D02*
X0182931Y0086533D01*
X0182631Y0086533D02*
X0182631Y0087734D01*
X0182330Y0087734D01*
X0182631Y0088335D02*
X0182631Y0088635D01*
X0183558Y0087434D02*
X0183558Y0086833D01*
X0183858Y0086533D01*
X0184759Y0086533D01*
X0184759Y0087734D02*
X0183858Y0087734D01*
X0183558Y0087434D01*
X0187241Y0087734D02*
X0187842Y0086533D01*
X0188442Y0087734D01*
X0189083Y0087434D02*
X0189383Y0087734D01*
X0189984Y0087734D01*
X0190284Y0087434D01*
X0190284Y0087134D01*
X0189083Y0087134D01*
X0189083Y0087434D02*
X0189083Y0086833D01*
X0189383Y0086533D01*
X0189984Y0086533D01*
X0190924Y0086533D02*
X0190924Y0088335D01*
X0191225Y0087734D02*
X0191825Y0087734D01*
X0192126Y0087434D01*
X0192126Y0086533D01*
X0192766Y0086533D02*
X0193367Y0086533D01*
X0193066Y0086533D02*
X0193066Y0087734D01*
X0192766Y0087734D01*
X0193066Y0088335D02*
X0193066Y0088635D01*
X0193994Y0087434D02*
X0193994Y0086833D01*
X0194294Y0086533D01*
X0195195Y0086533D01*
X0195835Y0086533D02*
X0196436Y0086533D01*
X0196136Y0086533D02*
X0196136Y0088335D01*
X0195835Y0088335D01*
X0195195Y0087734D02*
X0194294Y0087734D01*
X0193994Y0087434D01*
X0191225Y0087734D02*
X0190924Y0087434D01*
X0197063Y0087434D02*
X0197363Y0087734D01*
X0197964Y0087734D01*
X0198264Y0087434D01*
X0198264Y0087134D01*
X0197063Y0087134D01*
X0197063Y0087434D02*
X0197063Y0086833D01*
X0197363Y0086533D01*
X0197964Y0086533D01*
X0200746Y0086533D02*
X0201647Y0086533D01*
X0201947Y0086833D01*
X0201947Y0087434D01*
X0201647Y0087734D01*
X0200746Y0087734D01*
X0200746Y0085933D01*
X0202588Y0086533D02*
X0202588Y0087734D01*
X0202588Y0087134D02*
X0203188Y0087734D01*
X0203489Y0087734D01*
X0204122Y0087434D02*
X0204122Y0086833D01*
X0204423Y0086533D01*
X0205023Y0086533D01*
X0205323Y0086833D01*
X0205323Y0087434D01*
X0205023Y0087734D01*
X0204423Y0087734D01*
X0204122Y0087434D01*
X0205964Y0085933D02*
X0206264Y0085933D01*
X0206564Y0086233D01*
X0206564Y0087734D01*
X0206564Y0088335D02*
X0206564Y0088635D01*
X0207492Y0087734D02*
X0208092Y0087734D01*
X0208393Y0087434D01*
X0208393Y0087134D01*
X0207192Y0087134D01*
X0207192Y0087434D02*
X0207492Y0087734D01*
X0207192Y0087434D02*
X0207192Y0086833D01*
X0207492Y0086533D01*
X0208092Y0086533D01*
X0209033Y0086833D02*
X0209333Y0086533D01*
X0210234Y0086533D01*
X0211175Y0086833D02*
X0211175Y0088034D01*
X0210875Y0087734D02*
X0211475Y0087734D01*
X0211175Y0086833D02*
X0211475Y0086533D01*
X0210234Y0087734D02*
X0209333Y0087734D01*
X0209033Y0087434D01*
X0209033Y0086833D01*
X0157600Y0093133D02*
X0157000Y0092833D01*
X0156500Y0093933D01*
X0156000Y0092833D01*
X0155300Y0093133D01*
X0155700Y0091533D01*
X0154900Y0092233D01*
X0154800Y0091733D01*
X0154000Y0091933D01*
X0154300Y0091233D01*
X0153800Y0091033D01*
X0155000Y0090133D01*
X0157200Y0091533D02*
X0157600Y0093133D01*
X0132300Y0171433D02*
X0096300Y0171433D01*
X0096300Y0203933D01*
X0132300Y0203933D01*
X0132300Y0171433D01*
X0064800Y0171433D02*
X0064800Y0203933D01*
X0028800Y0203933D01*
X0028800Y0171433D01*
X0064800Y0171433D01*
D19*
X0058857Y0174283D02*
X0058857Y0180588D01*
X0055704Y0177436D01*
X0059908Y0177436D01*
X0053463Y0179538D02*
X0053463Y0175334D01*
X0052412Y0174283D01*
X0050310Y0174283D01*
X0049259Y0175334D01*
X0049259Y0179538D01*
X0050310Y0180588D01*
X0052412Y0180588D01*
X0053463Y0179538D01*
X0051361Y0176385D02*
X0053463Y0174283D01*
X0116759Y0175334D02*
X0117810Y0174283D01*
X0119912Y0174283D01*
X0120963Y0175334D01*
X0120963Y0179538D01*
X0119912Y0180588D01*
X0117810Y0180588D01*
X0116759Y0179538D01*
X0116759Y0175334D01*
X0118861Y0176385D02*
X0120963Y0174283D01*
X0123204Y0175334D02*
X0124255Y0174283D01*
X0126357Y0174283D01*
X0127408Y0175334D01*
X0127408Y0176385D01*
X0126357Y0177436D01*
X0125306Y0177436D01*
X0126357Y0177436D02*
X0127408Y0178487D01*
X0127408Y0179538D01*
X0126357Y0180588D01*
X0124255Y0180588D01*
X0123204Y0179538D01*
D20*
X0123353Y0170236D02*
X0120951Y0170236D01*
X0120951Y0168435D01*
X0122152Y0169035D01*
X0122752Y0169035D01*
X0123353Y0168435D01*
X0123353Y0167234D01*
X0122752Y0166633D01*
X0121551Y0166633D01*
X0120951Y0167234D01*
X0119696Y0167234D02*
X0119096Y0167234D01*
X0119096Y0166633D01*
X0119696Y0166633D01*
X0119696Y0167234D01*
X0119696Y0166633D02*
X0118495Y0165432D01*
X0114812Y0166633D02*
X0114812Y0167234D01*
X0117214Y0169636D01*
X0117214Y0170236D01*
X0114812Y0170236D01*
X0112330Y0170236D02*
X0112330Y0166633D01*
X0111129Y0166633D02*
X0113531Y0166633D01*
X0111129Y0169035D02*
X0112330Y0170236D01*
X0109848Y0169035D02*
X0109848Y0166633D01*
X0109848Y0168435D02*
X0107446Y0168435D01*
X0107446Y0169035D02*
X0108647Y0170236D01*
X0109848Y0169035D01*
X0107446Y0169035D02*
X0107446Y0166633D01*
X0124634Y0166633D02*
X0124634Y0169035D01*
X0125234Y0169035D01*
X0125835Y0168435D01*
X0126435Y0169035D01*
X0127036Y0168435D01*
X0127036Y0166633D01*
X0125835Y0166633D02*
X0125835Y0168435D01*
X0128317Y0169035D02*
X0128317Y0166633D01*
X0129518Y0166633D02*
X0129518Y0168435D01*
X0130118Y0169035D01*
X0130719Y0168435D01*
X0130719Y0166633D01*
X0129518Y0168435D02*
X0128917Y0169035D01*
X0128317Y0169035D01*
X0063219Y0168435D02*
X0063219Y0166633D01*
X0062018Y0166633D02*
X0062018Y0168435D01*
X0062618Y0169035D01*
X0063219Y0168435D01*
X0062018Y0168435D02*
X0061417Y0169035D01*
X0060817Y0169035D01*
X0060817Y0166633D01*
X0059536Y0166633D02*
X0059536Y0168435D01*
X0058935Y0169035D01*
X0058335Y0168435D01*
X0058335Y0166633D01*
X0057134Y0166633D02*
X0057134Y0169035D01*
X0057734Y0169035D01*
X0058335Y0168435D01*
X0055853Y0168435D02*
X0055853Y0167234D01*
X0055252Y0166633D01*
X0054051Y0166633D01*
X0053451Y0167234D01*
X0053451Y0168435D02*
X0054652Y0169035D01*
X0055252Y0169035D01*
X0055853Y0168435D01*
X0055853Y0170236D02*
X0053451Y0170236D01*
X0053451Y0168435D01*
X0052196Y0167234D02*
X0051596Y0167234D01*
X0051596Y0166633D01*
X0052196Y0166633D01*
X0052196Y0167234D01*
X0052196Y0166633D02*
X0050995Y0165432D01*
X0047312Y0166633D02*
X0047312Y0167234D01*
X0049714Y0169636D01*
X0049714Y0170236D01*
X0047312Y0170236D01*
X0044830Y0170236D02*
X0043629Y0169035D01*
X0042348Y0169035D02*
X0042348Y0166633D01*
X0043629Y0166633D02*
X0046031Y0166633D01*
X0044830Y0166633D02*
X0044830Y0170236D01*
X0042348Y0169035D02*
X0041147Y0170236D01*
X0039946Y0169035D01*
X0039946Y0166633D01*
X0039946Y0168435D02*
X0042348Y0168435D01*
D21*
X0046800Y0218683D03*
X0056800Y0218683D03*
X0036800Y0218683D03*
X0104300Y0218683D03*
X0114300Y0218683D03*
X0124300Y0218683D03*
D22*
X0124300Y0211933D03*
X0114300Y0211933D03*
X0104300Y0211933D03*
X0056800Y0211933D03*
X0046800Y0211933D03*
X0036800Y0211933D03*
D23*
X0199100Y0193333D03*
X0254100Y0193333D03*
D24*
X0241800Y0199933D03*
X0186800Y0199933D03*
D25*
X0186800Y0200683D03*
X0177800Y0200683D03*
X0195800Y0200683D03*
X0232800Y0200683D03*
X0241800Y0200683D03*
X0250800Y0200683D03*
M02*
