G75*
%MOIN*%
%OFA0B0*%
%FSLAX25Y25*%
%IPPOS*%
%LPD*%
%AMOC8*
5,1,8,0,0,1.08239X$1,22.5*
%
%ADD10C,0.08200*%
%ADD11C,0.07400*%
%ADD12R,0.08200X0.08200*%
%ADD13C,0.13800*%
%ADD14C,0.07400*%
%ADD15C,0.08400*%
%ADD16C,0.04762*%
%ADD17R,0.04762X0.04762*%
D10*
X0034300Y0073933D03*
X0034300Y0083933D03*
X0034300Y0093933D03*
X0034300Y0103933D03*
X0034300Y0113933D03*
X0046800Y0266433D03*
X0056800Y0266433D03*
X0111800Y0266433D03*
X0121800Y0266433D03*
X0186800Y0266433D03*
X0196800Y0266433D03*
X0241800Y0266433D03*
X0251800Y0266433D03*
X0286800Y0266433D03*
X0296800Y0266433D03*
X0306800Y0266433D03*
D11*
X0141800Y0246433D03*
X0101800Y0246433D03*
X0076800Y0246433D03*
X0036800Y0246433D03*
D12*
X0036800Y0266433D03*
X0101800Y0266433D03*
X0176800Y0266433D03*
X0231800Y0266433D03*
X0276800Y0266433D03*
D13*
X0314300Y0238933D03*
X0241800Y0171433D03*
X0186800Y0171433D03*
X0114300Y0157433D03*
X0046800Y0157433D03*
X0119300Y0081433D03*
X0314300Y0081433D03*
X0156800Y0238933D03*
D14*
X0177800Y0214733D02*
X0177800Y0208133D01*
X0186800Y0208133D02*
X0186800Y0214733D01*
X0195800Y0214733D02*
X0195800Y0208133D01*
X0232800Y0208133D02*
X0232800Y0214733D01*
X0241800Y0214733D02*
X0241800Y0208133D01*
X0250800Y0208133D02*
X0250800Y0214733D01*
X0124300Y0223133D02*
X0124300Y0229733D01*
X0114300Y0229733D02*
X0114300Y0223133D01*
X0104300Y0223133D02*
X0104300Y0229733D01*
X0056800Y0229733D02*
X0056800Y0223133D01*
X0046800Y0223133D02*
X0046800Y0229733D01*
X0036800Y0229733D02*
X0036800Y0223133D01*
D15*
X0154300Y0108933D03*
X0164300Y0108933D03*
X0174300Y0108933D03*
X0184300Y0108933D03*
X0194300Y0108933D03*
X0204300Y0108933D03*
X0214300Y0108933D03*
X0224300Y0108933D03*
X0234300Y0108933D03*
X0244300Y0108933D03*
X0254300Y0108933D03*
X0264300Y0108933D03*
X0274300Y0108933D03*
X0284300Y0108933D03*
X0294300Y0108933D03*
X0304300Y0108933D03*
X0314300Y0108933D03*
X0314300Y0048933D03*
X0304300Y0048933D03*
X0294300Y0048933D03*
X0284300Y0048933D03*
X0274300Y0048933D03*
X0264300Y0048933D03*
X0254300Y0048933D03*
X0244300Y0048933D03*
X0234300Y0048933D03*
X0224300Y0048933D03*
X0214300Y0048933D03*
X0204300Y0048933D03*
X0194300Y0048933D03*
X0184300Y0048933D03*
X0174300Y0048933D03*
X0164300Y0048933D03*
X0154300Y0048933D03*
D16*
X0121800Y0051433D03*
X0176800Y0243933D03*
D17*
X0206800Y0211433D03*
M02*
