%
M48
M72
T02C0.0280
T05C0.0420
T06C0.0520
T09C0.1250
%
T02
X12180Y5143
X20680Y21143
X17680Y24393
T05
X3430Y7393
X3430Y8393
X3430Y9393
X3430Y10393
X3430Y11393
X15430Y10893
X16430Y10893
X17430Y10893
X18430Y10893
X19430Y10893
X20430Y10893
X21430Y10893
X22430Y10893
X23430Y10893
X24430Y10893
X25430Y10893
X26430Y10893
X27430Y10893
X28430Y10893
X29430Y10893
X30430Y10893
X31430Y10893
X31430Y4893
X30430Y4893
X29430Y4893
X28430Y4893
X27430Y4893
X26430Y4893
X25430Y4893
X24430Y4893
X23430Y4893
X22430Y4893
X21430Y4893
X20430Y4893
X19430Y4893
X18430Y4893
X17430Y4893
X16430Y4893
X15430Y4893
X17680Y26643
X18680Y26643
X19680Y26643
X23180Y26643
X24180Y26643
X25180Y26643
X27680Y26643
X28680Y26643
X29680Y26643
X30680Y26643
X12180Y26643
X11180Y26643
X10180Y26643
X5680Y26643
X4680Y26643
X3680Y26643
T06
X3680Y24643
X3680Y22643
X4680Y22643
X5680Y22643
X7680Y24643
X10180Y24643
X10430Y22643
X11430Y22643
X12430Y22643
X14180Y24643
X17780Y21143
X18680Y21143
X19580Y21143
X23280Y21143
X24180Y21143
X25080Y21143
T09
X24180Y17143
X18680Y17143
X11430Y15743
X4680Y15743
X11930Y8143
X31430Y8143
X31430Y23893
X15680Y23893
M30
