%
M48
M72
T02C0.02800
T05C0.04200
T06C0.05200
T09C0.12500
%
T02
X121800Y51433
X206800Y211433
X176800Y243933
T05
X34300Y73933
X34300Y83933
X34300Y93933
X34300Y103933
X34300Y113933
X154300Y108933
X164300Y108933
X174300Y108933
X184300Y108933
X194300Y108933
X204300Y108933
X214300Y108933
X224300Y108933
X234300Y108933
X244300Y108933
X254300Y108933
X264300Y108933
X274300Y108933
X284300Y108933
X294300Y108933
X304300Y108933
X314300Y108933
X314300Y48933
X304300Y48933
X294300Y48933
X284300Y48933
X274300Y48933
X264300Y48933
X254300Y48933
X244300Y48933
X234300Y48933
X224300Y48933
X214300Y48933
X204300Y48933
X194300Y48933
X184300Y48933
X174300Y48933
X164300Y48933
X154300Y48933
X176800Y266433
X186800Y266433
X196800Y266433
X231800Y266433
X241800Y266433
X251800Y266433
X276800Y266433
X286800Y266433
X296800Y266433
X306800Y266433
X121800Y266433
X111800Y266433
X101800Y266433
X56800Y266433
X46800Y266433
X36800Y266433
T06
X36800Y246433
X36800Y226433
X46800Y226433
X56800Y226433
X76800Y246433
X101800Y246433
X104300Y226433
X114300Y226433
X124300Y226433
X141800Y246433
X177800Y211433
X186800Y211433
X195800Y211433
X232800Y211433
X241800Y211433
X250800Y211433
T09
X241800Y171433
X186800Y171433
X114300Y157433
X46800Y157433
X119300Y81433
X314300Y81433
X314300Y238933
X156800Y238933
M30
