G75*
%MOIN*%
%OFA0B0*%
%FSLAX25Y25*%
%IPPOS*%
%LPD*%
%AMOC8*
5,1,8,0,0,1.08239X$1,22.5*
%
%ADD10C,0.07400*%
%ADD11C,0.06600*%
%ADD12R,0.07400X0.07400*%
%ADD13C,0.06600*%
%ADD14C,0.07600*%
%ADD15C,0.03962*%
%ADD16C,0.04000*%
%ADD17C,0.01600*%
%ADD18C,0.05000*%
%ADD19R,0.03962X0.03962*%
D10*
X0034300Y0073933D03*
X0034300Y0083933D03*
X0034300Y0093933D03*
X0034300Y0103933D03*
X0034300Y0113933D03*
X0046800Y0266433D03*
X0056800Y0266433D03*
X0111800Y0266433D03*
X0121800Y0266433D03*
X0186800Y0266433D03*
X0196800Y0266433D03*
X0241800Y0266433D03*
X0251800Y0266433D03*
X0286800Y0266433D03*
X0296800Y0266433D03*
X0306800Y0266433D03*
D11*
X0141800Y0246433D03*
X0101800Y0246433D03*
X0076800Y0246433D03*
X0036800Y0246433D03*
D12*
X0036800Y0266433D03*
X0101800Y0266433D03*
X0176800Y0266433D03*
X0231800Y0266433D03*
X0276800Y0266433D03*
D13*
X0250800Y0214733D02*
X0250800Y0208133D01*
X0241800Y0208133D02*
X0241800Y0214733D01*
X0232800Y0214733D02*
X0232800Y0208133D01*
X0195800Y0208133D02*
X0195800Y0214733D01*
X0186800Y0214733D02*
X0186800Y0208133D01*
X0177800Y0208133D02*
X0177800Y0214733D01*
X0124300Y0223133D02*
X0124300Y0229733D01*
X0114300Y0229733D02*
X0114300Y0223133D01*
X0104300Y0223133D02*
X0104300Y0229733D01*
X0056800Y0229733D02*
X0056800Y0223133D01*
X0046800Y0223133D02*
X0046800Y0229733D01*
X0036800Y0229733D02*
X0036800Y0223133D01*
D14*
X0154300Y0108933D03*
X0164300Y0108933D03*
X0174300Y0108933D03*
X0184300Y0108933D03*
X0194300Y0108933D03*
X0204300Y0108933D03*
X0214300Y0108933D03*
X0224300Y0108933D03*
X0234300Y0108933D03*
X0244300Y0108933D03*
X0254300Y0108933D03*
X0264300Y0108933D03*
X0274300Y0108933D03*
X0284300Y0108933D03*
X0294300Y0108933D03*
X0304300Y0108933D03*
X0314300Y0108933D03*
X0314300Y0048933D03*
X0304300Y0048933D03*
X0294300Y0048933D03*
X0284300Y0048933D03*
X0274300Y0048933D03*
X0264300Y0048933D03*
X0254300Y0048933D03*
X0244300Y0048933D03*
X0234300Y0048933D03*
X0224300Y0048933D03*
X0214300Y0048933D03*
X0204300Y0048933D03*
X0194300Y0048933D03*
X0184300Y0048933D03*
X0174300Y0048933D03*
X0164300Y0048933D03*
X0154300Y0048933D03*
D15*
X0121800Y0051433D03*
X0176800Y0243933D03*
D16*
X0194300Y0243933D01*
X0196800Y0246433D01*
X0196800Y0266433D01*
D17*
X0024300Y0281433D02*
X0024300Y0038217D01*
X0324300Y0038217D01*
X0324300Y0061433D01*
X0066800Y0061433D01*
X0066800Y0069924D01*
X0037657Y0069924D01*
X0037250Y0069517D01*
X0035336Y0068724D01*
X0033264Y0068724D01*
X0031350Y0069517D01*
X0029884Y0070983D01*
X0029091Y0072897D01*
X0029091Y0074969D01*
X0029884Y0076884D01*
X0031350Y0078349D01*
X0032760Y0078933D01*
X0031350Y0079517D01*
X0029884Y0080983D01*
X0029091Y0082897D01*
X0029091Y0084969D01*
X0029884Y0086884D01*
X0031350Y0088349D01*
X0032378Y0088775D01*
X0032189Y0088836D01*
X0031417Y0089229D01*
X0030717Y0089738D01*
X0030105Y0090350D01*
X0029596Y0091050D01*
X0029203Y0091822D01*
X0028935Y0092645D01*
X0028800Y0093500D01*
X0028800Y0093733D01*
X0034100Y0093733D01*
X0034100Y0094133D01*
X0028800Y0094133D01*
X0028800Y0094366D01*
X0028935Y0095221D01*
X0029203Y0096044D01*
X0029596Y0096816D01*
X0030105Y0097516D01*
X0030717Y0098128D01*
X0031417Y0098637D01*
X0032189Y0099030D01*
X0032378Y0099091D01*
X0031350Y0099517D01*
X0029884Y0100983D01*
X0029091Y0102897D01*
X0029091Y0104969D01*
X0029884Y0106884D01*
X0031350Y0108349D01*
X0032760Y0108933D01*
X0031350Y0109517D01*
X0029884Y0110983D01*
X0029091Y0112897D01*
X0029091Y0114969D01*
X0029884Y0116884D01*
X0031350Y0118349D01*
X0033264Y0119142D01*
X0035336Y0119142D01*
X0037250Y0118349D01*
X0038716Y0116884D01*
X0039509Y0114969D01*
X0039509Y0112897D01*
X0038716Y0110983D01*
X0037250Y0109517D01*
X0035840Y0108933D01*
X0037250Y0108349D01*
X0038716Y0106884D01*
X0039509Y0104969D01*
X0039509Y0102897D01*
X0038716Y0100983D01*
X0037250Y0099517D01*
X0036222Y0099091D01*
X0036411Y0099030D01*
X0037183Y0098637D01*
X0037883Y0098128D01*
X0038495Y0097516D01*
X0039004Y0096816D01*
X0039397Y0096044D01*
X0039665Y0095221D01*
X0039800Y0094366D01*
X0039800Y0094133D01*
X0034500Y0094133D01*
X0034500Y0093733D01*
X0039800Y0093733D01*
X0039800Y0093500D01*
X0039665Y0092645D01*
X0039397Y0091822D01*
X0039004Y0091050D01*
X0038495Y0090350D01*
X0037883Y0089738D01*
X0037183Y0089229D01*
X0036411Y0088836D01*
X0036222Y0088775D01*
X0037250Y0088349D01*
X0038716Y0086884D01*
X0039509Y0084969D01*
X0039509Y0082897D01*
X0038716Y0080983D01*
X0037250Y0079517D01*
X0035840Y0078933D01*
X0037250Y0078349D01*
X0037657Y0077942D01*
X0066800Y0077942D01*
X0066800Y0241433D01*
X0075767Y0241433D01*
X0075606Y0241459D01*
X0074842Y0241707D01*
X0074127Y0242071D01*
X0073478Y0242543D01*
X0072910Y0243111D01*
X0072438Y0243760D01*
X0072074Y0244475D01*
X0071826Y0245239D01*
X0071700Y0246032D01*
X0071700Y0246133D01*
X0076500Y0246133D01*
X0076500Y0246733D01*
X0071700Y0246733D01*
X0071700Y0246834D01*
X0071826Y0247627D01*
X0072074Y0248391D01*
X0072438Y0249106D01*
X0072910Y0249755D01*
X0073478Y0250323D01*
X0074127Y0250795D01*
X0074842Y0251159D01*
X0075606Y0251407D01*
X0076399Y0251533D01*
X0076500Y0251533D01*
X0076500Y0246733D01*
X0077100Y0246733D01*
X0081900Y0246733D01*
X0081900Y0246834D01*
X0081774Y0247627D01*
X0081526Y0248391D01*
X0081162Y0249106D01*
X0080690Y0249755D01*
X0080122Y0250323D01*
X0079473Y0250795D01*
X0078758Y0251159D01*
X0077994Y0251407D01*
X0077201Y0251533D01*
X0077100Y0251533D01*
X0077100Y0246733D01*
X0077100Y0246133D01*
X0081900Y0246133D01*
X0081900Y0246032D01*
X0081774Y0245239D01*
X0081526Y0244475D01*
X0081162Y0243760D01*
X0080690Y0243111D01*
X0080122Y0242543D01*
X0079473Y0242071D01*
X0078758Y0241707D01*
X0077994Y0241459D01*
X0077833Y0241433D01*
X0140767Y0241433D01*
X0140606Y0241459D01*
X0139842Y0241707D01*
X0139127Y0242071D01*
X0138478Y0242543D01*
X0137910Y0243111D01*
X0137438Y0243760D01*
X0137074Y0244475D01*
X0136826Y0245239D01*
X0136700Y0246032D01*
X0136700Y0246133D01*
X0141500Y0246133D01*
X0141500Y0246733D01*
X0136700Y0246733D01*
X0136700Y0246834D01*
X0136826Y0247627D01*
X0137074Y0248391D01*
X0137438Y0249106D01*
X0137910Y0249755D01*
X0138478Y0250323D01*
X0139127Y0250795D01*
X0139842Y0251159D01*
X0140606Y0251407D01*
X0141399Y0251533D01*
X0141500Y0251533D01*
X0141500Y0246733D01*
X0142100Y0246733D01*
X0146900Y0246733D01*
X0146900Y0246834D01*
X0146774Y0247627D01*
X0146526Y0248391D01*
X0146162Y0249106D01*
X0145690Y0249755D01*
X0145122Y0250323D01*
X0144473Y0250795D01*
X0143758Y0251159D01*
X0142994Y0251407D01*
X0142201Y0251533D01*
X0142100Y0251533D01*
X0142100Y0246733D01*
X0142100Y0246133D01*
X0146900Y0246133D01*
X0146900Y0246032D01*
X0146774Y0245239D01*
X0146526Y0244475D01*
X0146162Y0243760D01*
X0145690Y0243111D01*
X0145122Y0242543D01*
X0144473Y0242071D01*
X0143758Y0241707D01*
X0142994Y0241459D01*
X0142833Y0241433D01*
X0148635Y0241433D01*
X0149594Y0243748D01*
X0149594Y0243748D01*
X0151985Y0246139D01*
X0151985Y0246139D01*
X0155109Y0247433D01*
X0158491Y0247433D01*
X0161615Y0246139D01*
X0161615Y0246139D01*
X0164006Y0243748D01*
X0164006Y0243748D01*
X0164965Y0241433D01*
X0174338Y0241433D01*
X0173826Y0241946D01*
X0173291Y0243235D01*
X0173291Y0244631D01*
X0173826Y0245921D01*
X0174812Y0246908D01*
X0176102Y0247442D01*
X0192847Y0247442D01*
X0193291Y0247886D01*
X0193291Y0262576D01*
X0192384Y0263483D01*
X0191800Y0264893D01*
X0191216Y0263483D01*
X0189750Y0262017D01*
X0187836Y0261224D01*
X0185764Y0261224D01*
X0183850Y0262017D01*
X0182384Y0263483D01*
X0182009Y0264390D01*
X0182009Y0262108D01*
X0181125Y0261224D01*
X0172475Y0261224D01*
X0171591Y0262108D01*
X0171591Y0270758D01*
X0172475Y0271642D01*
X0181125Y0271642D01*
X0182009Y0270758D01*
X0182009Y0268477D01*
X0182384Y0269384D01*
X0183850Y0270849D01*
X0185764Y0271642D01*
X0187836Y0271642D01*
X0189750Y0270849D01*
X0191216Y0269384D01*
X0191800Y0267973D01*
X0192384Y0269384D01*
X0193850Y0270849D01*
X0195764Y0271642D01*
X0197836Y0271642D01*
X0199750Y0270849D01*
X0201216Y0269384D01*
X0202009Y0267469D01*
X0202009Y0265397D01*
X0201216Y0263483D01*
X0200309Y0262576D01*
X0200309Y0245735D01*
X0199774Y0244446D01*
X0198787Y0243459D01*
X0196762Y0241433D01*
X0281800Y0241433D01*
X0281800Y0261487D01*
X0281605Y0261293D01*
X0281195Y0261056D01*
X0280737Y0260933D01*
X0277000Y0260933D01*
X0277000Y0266233D01*
X0276600Y0266233D01*
X0276600Y0260933D01*
X0272863Y0260933D01*
X0272405Y0261056D01*
X0271995Y0261293D01*
X0271660Y0261628D01*
X0271423Y0262038D01*
X0271300Y0262496D01*
X0271300Y0266233D01*
X0276600Y0266233D01*
X0276600Y0266633D01*
X0271300Y0266633D01*
X0271300Y0270370D01*
X0271423Y0270828D01*
X0271660Y0271238D01*
X0271995Y0271573D01*
X0272405Y0271810D01*
X0272863Y0271933D01*
X0276600Y0271933D01*
X0276600Y0266633D01*
X0277000Y0266633D01*
X0277000Y0271933D01*
X0280737Y0271933D01*
X0281195Y0271810D01*
X0281605Y0271573D01*
X0281800Y0271379D01*
X0281800Y0281433D01*
X0024300Y0281433D01*
X0024300Y0279946D02*
X0281800Y0279946D01*
X0281800Y0278347D02*
X0024300Y0278347D01*
X0024300Y0276749D02*
X0281800Y0276749D01*
X0281800Y0275150D02*
X0024300Y0275150D01*
X0024300Y0273552D02*
X0281800Y0273552D01*
X0281800Y0271953D02*
X0024300Y0271953D01*
X0024300Y0270355D02*
X0031591Y0270355D01*
X0031591Y0270758D02*
X0031591Y0262108D01*
X0032475Y0261224D01*
X0041125Y0261224D01*
X0042009Y0262108D01*
X0042009Y0263722D01*
X0042096Y0263550D01*
X0042605Y0262850D01*
X0043217Y0262238D01*
X0043917Y0261729D01*
X0044689Y0261336D01*
X0045512Y0261069D01*
X0046367Y0260933D01*
X0046600Y0260933D01*
X0046600Y0266233D01*
X0047000Y0266233D01*
X0047000Y0260933D01*
X0047233Y0260933D01*
X0048088Y0261069D01*
X0048911Y0261336D01*
X0049683Y0261729D01*
X0050383Y0262238D01*
X0050995Y0262850D01*
X0051504Y0263550D01*
X0051897Y0264322D01*
X0051958Y0264511D01*
X0052384Y0263483D01*
X0053850Y0262017D01*
X0055764Y0261224D01*
X0057836Y0261224D01*
X0059750Y0262017D01*
X0061216Y0263483D01*
X0062009Y0265397D01*
X0062009Y0267469D01*
X0061216Y0269384D01*
X0059750Y0270849D01*
X0057836Y0271642D01*
X0055764Y0271642D01*
X0053850Y0270849D01*
X0052384Y0269384D01*
X0051958Y0268355D01*
X0051897Y0268544D01*
X0051504Y0269316D01*
X0050995Y0270016D01*
X0050383Y0270628D01*
X0049683Y0271137D01*
X0048911Y0271530D01*
X0048088Y0271798D01*
X0047233Y0271933D01*
X0047000Y0271933D01*
X0047000Y0266633D01*
X0046600Y0266633D01*
X0046600Y0271933D01*
X0046367Y0271933D01*
X0045512Y0271798D01*
X0044689Y0271530D01*
X0043917Y0271137D01*
X0043217Y0270628D01*
X0042605Y0270016D01*
X0042096Y0269316D01*
X0042009Y0269144D01*
X0042009Y0270758D01*
X0041125Y0271642D01*
X0032475Y0271642D01*
X0031591Y0270758D01*
X0031591Y0268756D02*
X0024300Y0268756D01*
X0024300Y0267158D02*
X0031591Y0267158D01*
X0031591Y0265559D02*
X0024300Y0265559D01*
X0024300Y0263961D02*
X0031591Y0263961D01*
X0031591Y0262362D02*
X0024300Y0262362D01*
X0024300Y0260764D02*
X0193291Y0260764D01*
X0193291Y0262362D02*
X0190095Y0262362D01*
X0191414Y0263961D02*
X0192186Y0263961D01*
X0192124Y0268756D02*
X0191476Y0268756D01*
X0190245Y0270355D02*
X0193355Y0270355D01*
X0200245Y0270355D02*
X0226591Y0270355D01*
X0226591Y0270758D02*
X0226591Y0262108D01*
X0227475Y0261224D01*
X0236125Y0261224D01*
X0237009Y0262108D01*
X0237009Y0264390D01*
X0237384Y0263483D01*
X0238850Y0262017D01*
X0240764Y0261224D01*
X0242836Y0261224D01*
X0244750Y0262017D01*
X0246216Y0263483D01*
X0246800Y0264893D01*
X0247384Y0263483D01*
X0248850Y0262017D01*
X0250764Y0261224D01*
X0252836Y0261224D01*
X0254750Y0262017D01*
X0256216Y0263483D01*
X0257009Y0265397D01*
X0257009Y0267469D01*
X0256216Y0269384D01*
X0254750Y0270849D01*
X0252836Y0271642D01*
X0250764Y0271642D01*
X0248850Y0270849D01*
X0247384Y0269384D01*
X0246800Y0267973D01*
X0246216Y0269384D01*
X0244750Y0270849D01*
X0242836Y0271642D01*
X0240764Y0271642D01*
X0238850Y0270849D01*
X0237384Y0269384D01*
X0237009Y0268477D01*
X0237009Y0270758D01*
X0236125Y0271642D01*
X0227475Y0271642D01*
X0226591Y0270758D01*
X0226591Y0268756D02*
X0201476Y0268756D01*
X0202009Y0267158D02*
X0226591Y0267158D01*
X0226591Y0265559D02*
X0202009Y0265559D01*
X0201414Y0263961D02*
X0226591Y0263961D01*
X0226591Y0262362D02*
X0200309Y0262362D01*
X0200309Y0260764D02*
X0281800Y0260764D01*
X0281800Y0259165D02*
X0200309Y0259165D01*
X0200309Y0257567D02*
X0281800Y0257567D01*
X0281800Y0255968D02*
X0200309Y0255968D01*
X0200309Y0254370D02*
X0281800Y0254370D01*
X0281800Y0252771D02*
X0200309Y0252771D01*
X0200309Y0251173D02*
X0281800Y0251173D01*
X0281800Y0249574D02*
X0200309Y0249574D01*
X0200309Y0247976D02*
X0281800Y0247976D01*
X0281800Y0246377D02*
X0200309Y0246377D01*
X0199912Y0244779D02*
X0281800Y0244779D01*
X0281800Y0243180D02*
X0198509Y0243180D01*
X0196910Y0241581D02*
X0281800Y0241581D01*
X0277000Y0262362D02*
X0276600Y0262362D01*
X0276600Y0263961D02*
X0277000Y0263961D01*
X0277000Y0265559D02*
X0276600Y0265559D01*
X0276600Y0267158D02*
X0277000Y0267158D01*
X0277000Y0268756D02*
X0276600Y0268756D01*
X0276600Y0270355D02*
X0277000Y0270355D01*
X0271300Y0270355D02*
X0255245Y0270355D01*
X0256476Y0268756D02*
X0271300Y0268756D01*
X0271300Y0267158D02*
X0257009Y0267158D01*
X0257009Y0265559D02*
X0271300Y0265559D01*
X0271300Y0263961D02*
X0256414Y0263961D01*
X0255095Y0262362D02*
X0271336Y0262362D01*
X0248505Y0262362D02*
X0245095Y0262362D01*
X0246414Y0263961D02*
X0247186Y0263961D01*
X0247124Y0268756D02*
X0246476Y0268756D01*
X0245245Y0270355D02*
X0248355Y0270355D01*
X0238355Y0270355D02*
X0237009Y0270355D01*
X0237009Y0268756D02*
X0237124Y0268756D01*
X0237186Y0263961D02*
X0237009Y0263961D01*
X0237009Y0262362D02*
X0238505Y0262362D01*
X0193291Y0259165D02*
X0024300Y0259165D01*
X0024300Y0257567D02*
X0193291Y0257567D01*
X0193291Y0255968D02*
X0024300Y0255968D01*
X0024300Y0254370D02*
X0193291Y0254370D01*
X0193291Y0252771D02*
X0024300Y0252771D01*
X0024300Y0251173D02*
X0035677Y0251173D01*
X0035843Y0251242D02*
X0034076Y0250510D01*
X0032723Y0249157D01*
X0031991Y0247390D01*
X0031991Y0245477D01*
X0032723Y0243709D01*
X0034076Y0242356D01*
X0035843Y0241624D01*
X0037756Y0241624D01*
X0039524Y0242356D01*
X0040877Y0243709D01*
X0041609Y0245477D01*
X0041609Y0247390D01*
X0040877Y0249157D01*
X0039524Y0250510D01*
X0037756Y0251242D01*
X0035843Y0251242D01*
X0037923Y0251173D02*
X0074883Y0251173D01*
X0076500Y0251173D02*
X0077100Y0251173D01*
X0077100Y0249574D02*
X0076500Y0249574D01*
X0076500Y0247976D02*
X0077100Y0247976D01*
X0077100Y0246377D02*
X0096991Y0246377D01*
X0096991Y0245477D02*
X0096991Y0247390D01*
X0097723Y0249157D01*
X0099076Y0250510D01*
X0100843Y0251242D01*
X0102756Y0251242D01*
X0104524Y0250510D01*
X0105877Y0249157D01*
X0106609Y0247390D01*
X0106609Y0245477D01*
X0105877Y0243709D01*
X0104524Y0242356D01*
X0102756Y0241624D01*
X0100843Y0241624D01*
X0099076Y0242356D01*
X0097723Y0243709D01*
X0096991Y0245477D01*
X0097280Y0244779D02*
X0081625Y0244779D01*
X0080740Y0243180D02*
X0098253Y0243180D01*
X0097234Y0247976D02*
X0081661Y0247976D01*
X0080822Y0249574D02*
X0098141Y0249574D01*
X0100677Y0251173D02*
X0078717Y0251173D01*
X0076500Y0246377D02*
X0041609Y0246377D01*
X0041366Y0247976D02*
X0071939Y0247976D01*
X0072778Y0249574D02*
X0040459Y0249574D01*
X0041320Y0244779D02*
X0071975Y0244779D01*
X0072860Y0243180D02*
X0040347Y0243180D01*
X0033253Y0243180D02*
X0024300Y0243180D01*
X0024300Y0241581D02*
X0075228Y0241581D01*
X0078372Y0241581D02*
X0140228Y0241581D01*
X0137860Y0243180D02*
X0105347Y0243180D01*
X0106320Y0244779D02*
X0136975Y0244779D01*
X0136939Y0247976D02*
X0106366Y0247976D01*
X0106609Y0246377D02*
X0141500Y0246377D01*
X0142100Y0246377D02*
X0152560Y0246377D01*
X0150625Y0244779D02*
X0146625Y0244779D01*
X0145740Y0243180D02*
X0149359Y0243180D01*
X0148697Y0241581D02*
X0143372Y0241581D01*
X0142100Y0247976D02*
X0141500Y0247976D01*
X0141500Y0249574D02*
X0142100Y0249574D01*
X0142100Y0251173D02*
X0141500Y0251173D01*
X0139883Y0251173D02*
X0102923Y0251173D01*
X0105459Y0249574D02*
X0137778Y0249574D01*
X0143717Y0251173D02*
X0193291Y0251173D01*
X0193291Y0249574D02*
X0145822Y0249574D01*
X0146661Y0247976D02*
X0193291Y0247976D01*
X0183505Y0262362D02*
X0182009Y0262362D01*
X0182009Y0263961D02*
X0182186Y0263961D01*
X0182124Y0268756D02*
X0182009Y0268756D01*
X0182009Y0270355D02*
X0183355Y0270355D01*
X0171591Y0270355D02*
X0125245Y0270355D01*
X0124750Y0270849D02*
X0122836Y0271642D01*
X0120764Y0271642D01*
X0118850Y0270849D01*
X0117384Y0269384D01*
X0116958Y0268355D01*
X0116897Y0268544D01*
X0116504Y0269316D01*
X0115995Y0270016D01*
X0115383Y0270628D01*
X0114683Y0271137D01*
X0113911Y0271530D01*
X0113088Y0271798D01*
X0112233Y0271933D01*
X0112000Y0271933D01*
X0112000Y0266633D01*
X0111600Y0266633D01*
X0111600Y0271933D01*
X0111367Y0271933D01*
X0110512Y0271798D01*
X0109689Y0271530D01*
X0108917Y0271137D01*
X0108217Y0270628D01*
X0107605Y0270016D01*
X0107096Y0269316D01*
X0107009Y0269144D01*
X0107009Y0270758D01*
X0106125Y0271642D01*
X0097475Y0271642D01*
X0096591Y0270758D01*
X0096591Y0262108D01*
X0097475Y0261224D01*
X0106125Y0261224D01*
X0107009Y0262108D01*
X0107009Y0263722D01*
X0107096Y0263550D01*
X0107605Y0262850D01*
X0108217Y0262238D01*
X0108917Y0261729D01*
X0109689Y0261336D01*
X0110512Y0261069D01*
X0111367Y0260933D01*
X0111600Y0260933D01*
X0111600Y0266233D01*
X0112000Y0266233D01*
X0112000Y0260933D01*
X0112233Y0260933D01*
X0113088Y0261069D01*
X0113911Y0261336D01*
X0114683Y0261729D01*
X0115383Y0262238D01*
X0115995Y0262850D01*
X0116504Y0263550D01*
X0116897Y0264322D01*
X0116958Y0264511D01*
X0117384Y0263483D01*
X0118850Y0262017D01*
X0120764Y0261224D01*
X0122836Y0261224D01*
X0124750Y0262017D01*
X0126216Y0263483D01*
X0127009Y0265397D01*
X0127009Y0267469D01*
X0126216Y0269384D01*
X0124750Y0270849D01*
X0126476Y0268756D02*
X0171591Y0268756D01*
X0171591Y0267158D02*
X0127009Y0267158D01*
X0127009Y0265559D02*
X0171591Y0265559D01*
X0171591Y0263961D02*
X0126414Y0263961D01*
X0125095Y0262362D02*
X0171591Y0262362D01*
X0174282Y0246377D02*
X0161040Y0246377D01*
X0162975Y0244779D02*
X0173352Y0244779D01*
X0173314Y0243180D02*
X0164241Y0243180D01*
X0164903Y0241581D02*
X0174190Y0241581D01*
X0206800Y0211433D02*
X0232800Y0211433D01*
X0118505Y0262362D02*
X0115507Y0262362D01*
X0116713Y0263961D02*
X0117186Y0263961D01*
X0117124Y0268756D02*
X0116789Y0268756D01*
X0115657Y0270355D02*
X0118355Y0270355D01*
X0112000Y0270355D02*
X0111600Y0270355D01*
X0111600Y0268756D02*
X0112000Y0268756D01*
X0112000Y0267158D02*
X0111600Y0267158D01*
X0111600Y0265559D02*
X0112000Y0265559D01*
X0112000Y0263961D02*
X0111600Y0263961D01*
X0111600Y0262362D02*
X0112000Y0262362D01*
X0108093Y0262362D02*
X0107009Y0262362D01*
X0096591Y0262362D02*
X0060095Y0262362D01*
X0061414Y0263961D02*
X0096591Y0263961D01*
X0096591Y0265559D02*
X0062009Y0265559D01*
X0062009Y0267158D02*
X0096591Y0267158D01*
X0096591Y0268756D02*
X0061476Y0268756D01*
X0060245Y0270355D02*
X0096591Y0270355D01*
X0107009Y0270355D02*
X0107943Y0270355D01*
X0066800Y0239983D02*
X0024300Y0239983D01*
X0024300Y0238384D02*
X0066800Y0238384D01*
X0066800Y0236786D02*
X0024300Y0236786D01*
X0024300Y0235187D02*
X0066800Y0235187D01*
X0066800Y0233589D02*
X0059745Y0233589D01*
X0059524Y0233810D02*
X0057756Y0234542D01*
X0055843Y0234542D01*
X0054076Y0233810D01*
X0052723Y0232457D01*
X0051991Y0230690D01*
X0051991Y0222177D01*
X0052723Y0220409D01*
X0054076Y0219056D01*
X0055843Y0218324D01*
X0057756Y0218324D01*
X0059524Y0219056D01*
X0060877Y0220409D01*
X0061609Y0222177D01*
X0061609Y0230690D01*
X0060877Y0232457D01*
X0059524Y0233810D01*
X0061070Y0231990D02*
X0066800Y0231990D01*
X0066800Y0230392D02*
X0061609Y0230392D01*
X0061609Y0228793D02*
X0066800Y0228793D01*
X0066800Y0227195D02*
X0061609Y0227195D01*
X0061609Y0225596D02*
X0066800Y0225596D01*
X0066800Y0223998D02*
X0061609Y0223998D01*
X0061609Y0222399D02*
X0066800Y0222399D01*
X0066800Y0220801D02*
X0061039Y0220801D01*
X0059670Y0219202D02*
X0066800Y0219202D01*
X0066800Y0217604D02*
X0024300Y0217604D01*
X0024300Y0219202D02*
X0033930Y0219202D01*
X0034076Y0219056D02*
X0035843Y0218324D01*
X0037756Y0218324D01*
X0039524Y0219056D01*
X0040877Y0220409D01*
X0041609Y0222177D01*
X0041609Y0230690D01*
X0040877Y0232457D01*
X0039524Y0233810D01*
X0037756Y0234542D01*
X0035843Y0234542D01*
X0034076Y0233810D01*
X0032723Y0232457D01*
X0031991Y0230690D01*
X0031991Y0222177D01*
X0032723Y0220409D01*
X0034076Y0219056D01*
X0032561Y0220801D02*
X0024300Y0220801D01*
X0024300Y0222399D02*
X0031991Y0222399D01*
X0031991Y0223998D02*
X0024300Y0223998D01*
X0024300Y0225596D02*
X0031991Y0225596D01*
X0031991Y0227195D02*
X0024300Y0227195D01*
X0024300Y0228793D02*
X0031991Y0228793D01*
X0031991Y0230392D02*
X0024300Y0230392D01*
X0024300Y0231990D02*
X0032530Y0231990D01*
X0033855Y0233589D02*
X0024300Y0233589D01*
X0024300Y0244779D02*
X0032280Y0244779D01*
X0031991Y0246377D02*
X0024300Y0246377D01*
X0024300Y0247976D02*
X0032234Y0247976D01*
X0033141Y0249574D02*
X0024300Y0249574D01*
X0042009Y0262362D02*
X0043093Y0262362D01*
X0046600Y0262362D02*
X0047000Y0262362D01*
X0047000Y0263961D02*
X0046600Y0263961D01*
X0046600Y0265559D02*
X0047000Y0265559D01*
X0047000Y0267158D02*
X0046600Y0267158D01*
X0046600Y0268756D02*
X0047000Y0268756D01*
X0047000Y0270355D02*
X0046600Y0270355D01*
X0042943Y0270355D02*
X0042009Y0270355D01*
X0050657Y0270355D02*
X0053355Y0270355D01*
X0052124Y0268756D02*
X0051789Y0268756D01*
X0051713Y0263961D02*
X0052186Y0263961D01*
X0053505Y0262362D02*
X0050507Y0262362D01*
X0047756Y0234542D02*
X0045843Y0234542D01*
X0044076Y0233810D01*
X0042723Y0232457D01*
X0041991Y0230690D01*
X0041991Y0222177D01*
X0042723Y0220409D01*
X0044076Y0219056D01*
X0045843Y0218324D01*
X0047756Y0218324D01*
X0049524Y0219056D01*
X0050877Y0220409D01*
X0051609Y0222177D01*
X0051609Y0230690D01*
X0050877Y0232457D01*
X0049524Y0233810D01*
X0047756Y0234542D01*
X0049745Y0233589D02*
X0053855Y0233589D01*
X0052530Y0231990D02*
X0051070Y0231990D01*
X0051609Y0230392D02*
X0051991Y0230392D01*
X0051991Y0228793D02*
X0051609Y0228793D01*
X0051609Y0227195D02*
X0051991Y0227195D01*
X0051991Y0225596D02*
X0051609Y0225596D01*
X0051609Y0223998D02*
X0051991Y0223998D01*
X0051991Y0222399D02*
X0051609Y0222399D01*
X0051039Y0220801D02*
X0052561Y0220801D01*
X0053930Y0219202D02*
X0049670Y0219202D01*
X0043930Y0219202D02*
X0039670Y0219202D01*
X0041039Y0220801D02*
X0042561Y0220801D01*
X0041991Y0222399D02*
X0041609Y0222399D01*
X0041609Y0223998D02*
X0041991Y0223998D01*
X0041991Y0225596D02*
X0041609Y0225596D01*
X0041609Y0227195D02*
X0041991Y0227195D01*
X0041991Y0228793D02*
X0041609Y0228793D01*
X0041609Y0230392D02*
X0041991Y0230392D01*
X0042530Y0231990D02*
X0041070Y0231990D01*
X0039745Y0233589D02*
X0043855Y0233589D01*
X0024300Y0216005D02*
X0066800Y0216005D01*
X0066800Y0214407D02*
X0024300Y0214407D01*
X0024300Y0212808D02*
X0066800Y0212808D01*
X0066800Y0211210D02*
X0024300Y0211210D01*
X0024300Y0209611D02*
X0066800Y0209611D01*
X0066800Y0208013D02*
X0024300Y0208013D01*
X0024300Y0206414D02*
X0066800Y0206414D01*
X0066800Y0204816D02*
X0024300Y0204816D01*
X0024300Y0203217D02*
X0066800Y0203217D01*
X0066800Y0201619D02*
X0024300Y0201619D01*
X0024300Y0200020D02*
X0066800Y0200020D01*
X0066800Y0198422D02*
X0024300Y0198422D01*
X0024300Y0196823D02*
X0066800Y0196823D01*
X0066800Y0195225D02*
X0024300Y0195225D01*
X0024300Y0193626D02*
X0066800Y0193626D01*
X0066800Y0192028D02*
X0024300Y0192028D01*
X0024300Y0190429D02*
X0066800Y0190429D01*
X0066800Y0188831D02*
X0024300Y0188831D01*
X0024300Y0187232D02*
X0066800Y0187232D01*
X0066800Y0185634D02*
X0024300Y0185634D01*
X0024300Y0184035D02*
X0066800Y0184035D01*
X0066800Y0182437D02*
X0024300Y0182437D01*
X0024300Y0180838D02*
X0066800Y0180838D01*
X0066800Y0179240D02*
X0024300Y0179240D01*
X0024300Y0177641D02*
X0066800Y0177641D01*
X0066800Y0176043D02*
X0024300Y0176043D01*
X0024300Y0174444D02*
X0043444Y0174444D01*
X0044522Y0174733D02*
X0040122Y0173554D01*
X0036178Y0171277D01*
X0032957Y0168056D01*
X0030679Y0164111D01*
X0029500Y0159711D01*
X0029500Y0155155D01*
X0030679Y0150756D01*
X0032957Y0146811D01*
X0036178Y0143590D01*
X0040122Y0141312D01*
X0044522Y0140133D01*
X0049078Y0140133D01*
X0053478Y0141312D01*
X0057422Y0143590D01*
X0060643Y0146811D01*
X0062921Y0150756D01*
X0064100Y0155155D01*
X0064100Y0159711D01*
X0062921Y0164111D01*
X0060643Y0168056D01*
X0057422Y0171277D01*
X0053478Y0173554D01*
X0049078Y0174733D01*
X0044522Y0174733D01*
X0038895Y0172845D02*
X0024300Y0172845D01*
X0024300Y0171247D02*
X0036148Y0171247D01*
X0034550Y0169648D02*
X0024300Y0169648D01*
X0024300Y0168050D02*
X0032953Y0168050D01*
X0032030Y0166451D02*
X0024300Y0166451D01*
X0024300Y0164853D02*
X0031108Y0164853D01*
X0030450Y0163254D02*
X0024300Y0163254D01*
X0024300Y0161656D02*
X0030021Y0161656D01*
X0029593Y0160057D02*
X0024300Y0160057D01*
X0024300Y0158459D02*
X0029500Y0158459D01*
X0029500Y0156860D02*
X0024300Y0156860D01*
X0024300Y0155262D02*
X0029500Y0155262D01*
X0029900Y0153663D02*
X0024300Y0153663D01*
X0024300Y0152065D02*
X0030328Y0152065D01*
X0030846Y0150466D02*
X0024300Y0150466D01*
X0024300Y0148868D02*
X0031769Y0148868D01*
X0032692Y0147269D02*
X0024300Y0147269D01*
X0024300Y0145671D02*
X0034096Y0145671D01*
X0035695Y0144072D02*
X0024300Y0144072D01*
X0024300Y0142474D02*
X0038110Y0142474D01*
X0041752Y0140875D02*
X0024300Y0140875D01*
X0024300Y0139277D02*
X0066800Y0139277D01*
X0066800Y0140875D02*
X0051848Y0140875D01*
X0055490Y0142474D02*
X0066800Y0142474D01*
X0066800Y0144072D02*
X0057905Y0144072D01*
X0059504Y0145671D02*
X0066800Y0145671D01*
X0066800Y0147269D02*
X0060908Y0147269D01*
X0061831Y0148868D02*
X0066800Y0148868D01*
X0066800Y0150466D02*
X0062754Y0150466D01*
X0063272Y0152065D02*
X0066800Y0152065D01*
X0066800Y0153663D02*
X0063700Y0153663D01*
X0064100Y0155262D02*
X0066800Y0155262D01*
X0066800Y0156860D02*
X0064100Y0156860D01*
X0064100Y0158459D02*
X0066800Y0158459D01*
X0066800Y0160057D02*
X0064007Y0160057D01*
X0063579Y0161656D02*
X0066800Y0161656D01*
X0066800Y0163254D02*
X0063150Y0163254D01*
X0062492Y0164853D02*
X0066800Y0164853D01*
X0066800Y0166451D02*
X0061570Y0166451D01*
X0060647Y0168050D02*
X0066800Y0168050D01*
X0066800Y0169648D02*
X0059050Y0169648D01*
X0057452Y0171247D02*
X0066800Y0171247D01*
X0066800Y0172845D02*
X0054705Y0172845D01*
X0050156Y0174444D02*
X0066800Y0174444D01*
X0066800Y0137678D02*
X0024300Y0137678D01*
X0024300Y0136080D02*
X0066800Y0136080D01*
X0066800Y0134481D02*
X0024300Y0134481D01*
X0024300Y0132883D02*
X0066800Y0132883D01*
X0066800Y0131284D02*
X0024300Y0131284D01*
X0024300Y0129686D02*
X0066800Y0129686D01*
X0066800Y0128087D02*
X0024300Y0128087D01*
X0024300Y0126489D02*
X0066800Y0126489D01*
X0066800Y0124890D02*
X0024300Y0124890D01*
X0024300Y0123292D02*
X0066800Y0123292D01*
X0066800Y0121693D02*
X0024300Y0121693D01*
X0024300Y0120095D02*
X0066800Y0120095D01*
X0066800Y0118496D02*
X0036895Y0118496D01*
X0038702Y0116898D02*
X0066800Y0116898D01*
X0066800Y0115299D02*
X0039372Y0115299D01*
X0039509Y0113701D02*
X0066800Y0113701D01*
X0066800Y0112102D02*
X0039179Y0112102D01*
X0038237Y0110504D02*
X0066800Y0110504D01*
X0066800Y0108905D02*
X0035907Y0108905D01*
X0038293Y0107307D02*
X0066800Y0107307D01*
X0066800Y0105708D02*
X0039203Y0105708D01*
X0039509Y0104110D02*
X0066800Y0104110D01*
X0066800Y0102511D02*
X0039349Y0102511D01*
X0038646Y0100912D02*
X0066800Y0100912D01*
X0066800Y0099314D02*
X0036759Y0099314D01*
X0038296Y0097715D02*
X0066800Y0097715D01*
X0066800Y0096117D02*
X0039360Y0096117D01*
X0039776Y0094518D02*
X0066800Y0094518D01*
X0066800Y0092920D02*
X0039708Y0092920D01*
X0039142Y0091321D02*
X0066800Y0091321D01*
X0066800Y0089723D02*
X0037862Y0089723D01*
X0037475Y0088124D02*
X0066800Y0088124D01*
X0066800Y0086526D02*
X0038864Y0086526D01*
X0039509Y0084927D02*
X0066800Y0084927D01*
X0066800Y0083329D02*
X0039509Y0083329D01*
X0039025Y0081730D02*
X0066800Y0081730D01*
X0066800Y0080132D02*
X0037865Y0080132D01*
X0036805Y0078533D02*
X0066800Y0078533D01*
X0066800Y0068942D02*
X0035862Y0068942D01*
X0032738Y0068942D02*
X0024300Y0068942D01*
X0024300Y0067344D02*
X0066800Y0067344D01*
X0066800Y0065745D02*
X0024300Y0065745D01*
X0024300Y0064147D02*
X0066800Y0064147D01*
X0066800Y0062548D02*
X0024300Y0062548D01*
X0024300Y0060950D02*
X0324300Y0060950D01*
X0324300Y0059351D02*
X0024300Y0059351D01*
X0024300Y0057753D02*
X0324300Y0057753D01*
X0324300Y0056154D02*
X0024300Y0056154D01*
X0024300Y0054556D02*
X0324300Y0054556D01*
X0324300Y0052957D02*
X0317783Y0052957D01*
X0317307Y0053434D02*
X0315356Y0054242D01*
X0313244Y0054242D01*
X0311293Y0053434D01*
X0309800Y0051940D01*
X0309300Y0050734D01*
X0308800Y0051940D01*
X0307307Y0053434D01*
X0305356Y0054242D01*
X0303244Y0054242D01*
X0301293Y0053434D01*
X0299800Y0051940D01*
X0299465Y0051132D01*
X0299090Y0051868D01*
X0298571Y0052581D01*
X0297948Y0053205D01*
X0297235Y0053723D01*
X0296450Y0054123D01*
X0295611Y0054395D01*
X0294741Y0054533D01*
X0294583Y0054533D01*
X0294583Y0049216D01*
X0294017Y0049216D01*
X0294017Y0054533D01*
X0293859Y0054533D01*
X0292989Y0054395D01*
X0292150Y0054123D01*
X0291365Y0053723D01*
X0290652Y0053205D01*
X0290029Y0052581D01*
X0289510Y0051868D01*
X0289135Y0051132D01*
X0288800Y0051940D01*
X0287307Y0053434D01*
X0285356Y0054242D01*
X0283244Y0054242D01*
X0281293Y0053434D01*
X0279800Y0051940D01*
X0279300Y0050734D01*
X0278800Y0051940D01*
X0277307Y0053434D01*
X0275356Y0054242D01*
X0273244Y0054242D01*
X0271293Y0053434D01*
X0269800Y0051940D01*
X0269300Y0050734D01*
X0268800Y0051940D01*
X0267307Y0053434D01*
X0265356Y0054242D01*
X0263244Y0054242D01*
X0261293Y0053434D01*
X0259800Y0051940D01*
X0259300Y0050734D01*
X0258800Y0051940D01*
X0257307Y0053434D01*
X0255356Y0054242D01*
X0253244Y0054242D01*
X0251293Y0053434D01*
X0249800Y0051940D01*
X0249300Y0050734D01*
X0248800Y0051940D01*
X0247307Y0053434D01*
X0245356Y0054242D01*
X0243244Y0054242D01*
X0241293Y0053434D01*
X0239800Y0051940D01*
X0239300Y0050734D01*
X0238800Y0051940D01*
X0237307Y0053434D01*
X0235356Y0054242D01*
X0233244Y0054242D01*
X0231293Y0053434D01*
X0229800Y0051940D01*
X0229300Y0050734D01*
X0228800Y0051940D01*
X0227307Y0053434D01*
X0225356Y0054242D01*
X0223244Y0054242D01*
X0221293Y0053434D01*
X0219800Y0051940D01*
X0219300Y0050734D01*
X0218800Y0051940D01*
X0217307Y0053434D01*
X0215356Y0054242D01*
X0213244Y0054242D01*
X0211293Y0053434D01*
X0209800Y0051940D01*
X0209300Y0050734D01*
X0208800Y0051940D01*
X0207307Y0053434D01*
X0205356Y0054242D01*
X0203244Y0054242D01*
X0201293Y0053434D01*
X0199800Y0051940D01*
X0199300Y0050734D01*
X0198800Y0051940D01*
X0197307Y0053434D01*
X0195356Y0054242D01*
X0193244Y0054242D01*
X0191293Y0053434D01*
X0189800Y0051940D01*
X0189300Y0050734D01*
X0188800Y0051940D01*
X0187307Y0053434D01*
X0185356Y0054242D01*
X0183244Y0054242D01*
X0181293Y0053434D01*
X0179800Y0051940D01*
X0179300Y0050734D01*
X0178800Y0051940D01*
X0177307Y0053434D01*
X0175356Y0054242D01*
X0173244Y0054242D01*
X0171293Y0053434D01*
X0169800Y0051940D01*
X0169300Y0050734D01*
X0168800Y0051940D01*
X0167307Y0053434D01*
X0165356Y0054242D01*
X0163244Y0054242D01*
X0161293Y0053434D01*
X0159800Y0051940D01*
X0159300Y0050734D01*
X0158800Y0051940D01*
X0157307Y0053434D01*
X0155356Y0054242D01*
X0153244Y0054242D01*
X0151293Y0053434D01*
X0149800Y0051940D01*
X0148991Y0049989D01*
X0148991Y0047877D01*
X0149800Y0045926D01*
X0151293Y0044433D01*
X0153244Y0043624D01*
X0155356Y0043624D01*
X0157307Y0044433D01*
X0158800Y0045926D01*
X0159300Y0047132D01*
X0159800Y0045926D01*
X0161293Y0044433D01*
X0163244Y0043624D01*
X0165356Y0043624D01*
X0167307Y0044433D01*
X0168800Y0045926D01*
X0169300Y0047132D01*
X0169800Y0045926D01*
X0171293Y0044433D01*
X0173244Y0043624D01*
X0175356Y0043624D01*
X0177307Y0044433D01*
X0178800Y0045926D01*
X0179300Y0047132D01*
X0179800Y0045926D01*
X0181293Y0044433D01*
X0183244Y0043624D01*
X0185356Y0043624D01*
X0187307Y0044433D01*
X0188800Y0045926D01*
X0189300Y0047132D01*
X0189800Y0045926D01*
X0191293Y0044433D01*
X0193244Y0043624D01*
X0195356Y0043624D01*
X0197307Y0044433D01*
X0198800Y0045926D01*
X0199300Y0047132D01*
X0199800Y0045926D01*
X0201293Y0044433D01*
X0203244Y0043624D01*
X0205356Y0043624D01*
X0207307Y0044433D01*
X0208800Y0045926D01*
X0209300Y0047132D01*
X0209800Y0045926D01*
X0211293Y0044433D01*
X0213244Y0043624D01*
X0215356Y0043624D01*
X0217307Y0044433D01*
X0218800Y0045926D01*
X0219300Y0047132D01*
X0219800Y0045926D01*
X0221293Y0044433D01*
X0223244Y0043624D01*
X0225356Y0043624D01*
X0227307Y0044433D01*
X0228800Y0045926D01*
X0229300Y0047132D01*
X0229800Y0045926D01*
X0231293Y0044433D01*
X0233244Y0043624D01*
X0235356Y0043624D01*
X0237307Y0044433D01*
X0238800Y0045926D01*
X0239300Y0047132D01*
X0239800Y0045926D01*
X0241293Y0044433D01*
X0243244Y0043624D01*
X0245356Y0043624D01*
X0247307Y0044433D01*
X0248800Y0045926D01*
X0249300Y0047132D01*
X0249800Y0045926D01*
X0251293Y0044433D01*
X0253244Y0043624D01*
X0255356Y0043624D01*
X0257307Y0044433D01*
X0258800Y0045926D01*
X0259300Y0047132D01*
X0259800Y0045926D01*
X0261293Y0044433D01*
X0263244Y0043624D01*
X0265356Y0043624D01*
X0267307Y0044433D01*
X0268800Y0045926D01*
X0269300Y0047132D01*
X0269800Y0045926D01*
X0271293Y0044433D01*
X0273244Y0043624D01*
X0275356Y0043624D01*
X0277307Y0044433D01*
X0278800Y0045926D01*
X0279300Y0047132D01*
X0279800Y0045926D01*
X0281293Y0044433D01*
X0283244Y0043624D01*
X0285356Y0043624D01*
X0287307Y0044433D01*
X0288800Y0045926D01*
X0289135Y0046734D01*
X0289510Y0045998D01*
X0290029Y0045285D01*
X0290652Y0044662D01*
X0291365Y0044144D01*
X0292150Y0043743D01*
X0292989Y0043471D01*
X0293859Y0043333D01*
X0294017Y0043333D01*
X0294017Y0048650D01*
X0294583Y0048650D01*
X0294583Y0043333D01*
X0294741Y0043333D01*
X0295611Y0043471D01*
X0296450Y0043743D01*
X0297235Y0044144D01*
X0297948Y0044662D01*
X0298571Y0045285D01*
X0299090Y0045998D01*
X0299465Y0046734D01*
X0299800Y0045926D01*
X0301293Y0044433D01*
X0303244Y0043624D01*
X0305356Y0043624D01*
X0307307Y0044433D01*
X0308800Y0045926D01*
X0309300Y0047132D01*
X0309800Y0045926D01*
X0311293Y0044433D01*
X0313244Y0043624D01*
X0315356Y0043624D01*
X0317307Y0044433D01*
X0318800Y0045926D01*
X0319609Y0047877D01*
X0319609Y0049989D01*
X0318800Y0051940D01*
X0317307Y0053434D01*
X0319041Y0051359D02*
X0324300Y0051359D01*
X0324300Y0049760D02*
X0319609Y0049760D01*
X0319609Y0048162D02*
X0324300Y0048162D01*
X0324300Y0046563D02*
X0319064Y0046563D01*
X0317839Y0044965D02*
X0324300Y0044965D01*
X0324300Y0043366D02*
X0294949Y0043366D01*
X0294583Y0043366D02*
X0294017Y0043366D01*
X0293651Y0043366D02*
X0024300Y0043366D01*
X0024300Y0041768D02*
X0324300Y0041768D01*
X0324300Y0040169D02*
X0024300Y0040169D01*
X0024300Y0038571D02*
X0324300Y0038571D01*
X0310761Y0044965D02*
X0307839Y0044965D01*
X0309064Y0046563D02*
X0309536Y0046563D01*
X0309559Y0051359D02*
X0309041Y0051359D01*
X0307783Y0052957D02*
X0310816Y0052957D01*
X0300816Y0052957D02*
X0298195Y0052957D01*
X0299349Y0051359D02*
X0299559Y0051359D01*
X0299536Y0046563D02*
X0299377Y0046563D01*
X0298251Y0044965D02*
X0300761Y0044965D01*
X0294583Y0044965D02*
X0294017Y0044965D01*
X0294017Y0046563D02*
X0294583Y0046563D01*
X0294583Y0048162D02*
X0294017Y0048162D01*
X0294017Y0049760D02*
X0294583Y0049760D01*
X0294583Y0051359D02*
X0294017Y0051359D01*
X0294017Y0052957D02*
X0294583Y0052957D01*
X0290404Y0052957D02*
X0287783Y0052957D01*
X0289041Y0051359D02*
X0289251Y0051359D01*
X0289223Y0046563D02*
X0289064Y0046563D01*
X0287839Y0044965D02*
X0290349Y0044965D01*
X0280761Y0044965D02*
X0277839Y0044965D01*
X0279064Y0046563D02*
X0279536Y0046563D01*
X0279559Y0051359D02*
X0279041Y0051359D01*
X0277783Y0052957D02*
X0280816Y0052957D01*
X0270816Y0052957D02*
X0267783Y0052957D01*
X0269041Y0051359D02*
X0269559Y0051359D01*
X0269536Y0046563D02*
X0269064Y0046563D01*
X0267839Y0044965D02*
X0270761Y0044965D01*
X0260761Y0044965D02*
X0257839Y0044965D01*
X0259064Y0046563D02*
X0259536Y0046563D01*
X0259559Y0051359D02*
X0259041Y0051359D01*
X0257783Y0052957D02*
X0260816Y0052957D01*
X0250816Y0052957D02*
X0247783Y0052957D01*
X0249041Y0051359D02*
X0249559Y0051359D01*
X0249536Y0046563D02*
X0249064Y0046563D01*
X0247839Y0044965D02*
X0250761Y0044965D01*
X0240761Y0044965D02*
X0237839Y0044965D01*
X0239064Y0046563D02*
X0239536Y0046563D01*
X0239559Y0051359D02*
X0239041Y0051359D01*
X0237783Y0052957D02*
X0240816Y0052957D01*
X0230816Y0052957D02*
X0227783Y0052957D01*
X0229041Y0051359D02*
X0229559Y0051359D01*
X0229536Y0046563D02*
X0229064Y0046563D01*
X0227839Y0044965D02*
X0230761Y0044965D01*
X0220761Y0044965D02*
X0217839Y0044965D01*
X0219064Y0046563D02*
X0219536Y0046563D01*
X0219559Y0051359D02*
X0219041Y0051359D01*
X0217783Y0052957D02*
X0220816Y0052957D01*
X0210816Y0052957D02*
X0207783Y0052957D01*
X0209041Y0051359D02*
X0209559Y0051359D01*
X0209536Y0046563D02*
X0209064Y0046563D01*
X0207839Y0044965D02*
X0210761Y0044965D01*
X0200761Y0044965D02*
X0197839Y0044965D01*
X0199064Y0046563D02*
X0199536Y0046563D01*
X0199559Y0051359D02*
X0199041Y0051359D01*
X0197783Y0052957D02*
X0200816Y0052957D01*
X0190816Y0052957D02*
X0187783Y0052957D01*
X0189041Y0051359D02*
X0189559Y0051359D01*
X0189536Y0046563D02*
X0189064Y0046563D01*
X0187839Y0044965D02*
X0190761Y0044965D01*
X0180761Y0044965D02*
X0177839Y0044965D01*
X0179064Y0046563D02*
X0179536Y0046563D01*
X0179559Y0051359D02*
X0179041Y0051359D01*
X0177783Y0052957D02*
X0180816Y0052957D01*
X0170816Y0052957D02*
X0167783Y0052957D01*
X0169041Y0051359D02*
X0169559Y0051359D01*
X0169536Y0046563D02*
X0169064Y0046563D01*
X0167839Y0044965D02*
X0170761Y0044965D01*
X0160761Y0044965D02*
X0157839Y0044965D01*
X0159064Y0046563D02*
X0159536Y0046563D01*
X0159559Y0051359D02*
X0159041Y0051359D01*
X0157783Y0052957D02*
X0160816Y0052957D01*
X0150816Y0052957D02*
X0024300Y0052957D01*
X0024300Y0051359D02*
X0149559Y0051359D01*
X0148991Y0049760D02*
X0024300Y0049760D01*
X0024300Y0048162D02*
X0148991Y0048162D01*
X0149536Y0046563D02*
X0024300Y0046563D01*
X0024300Y0044965D02*
X0150761Y0044965D01*
X0121800Y0048933D02*
X0121800Y0051433D01*
X0031795Y0078533D02*
X0024300Y0078533D01*
X0024300Y0076935D02*
X0029936Y0076935D01*
X0029243Y0075336D02*
X0024300Y0075336D01*
X0024300Y0073738D02*
X0029091Y0073738D01*
X0029405Y0072139D02*
X0024300Y0072139D01*
X0024300Y0070541D02*
X0030326Y0070541D01*
X0030735Y0080132D02*
X0024300Y0080132D01*
X0024300Y0081730D02*
X0029575Y0081730D01*
X0029091Y0083329D02*
X0024300Y0083329D01*
X0024300Y0084927D02*
X0029091Y0084927D01*
X0029736Y0086526D02*
X0024300Y0086526D01*
X0024300Y0088124D02*
X0031125Y0088124D01*
X0030738Y0089723D02*
X0024300Y0089723D01*
X0024300Y0091321D02*
X0029458Y0091321D01*
X0028892Y0092920D02*
X0024300Y0092920D01*
X0024300Y0094518D02*
X0028824Y0094518D01*
X0029240Y0096117D02*
X0024300Y0096117D01*
X0024300Y0097715D02*
X0030304Y0097715D01*
X0031841Y0099314D02*
X0024300Y0099314D01*
X0024300Y0100912D02*
X0029954Y0100912D01*
X0029251Y0102511D02*
X0024300Y0102511D01*
X0024300Y0104110D02*
X0029091Y0104110D01*
X0029397Y0105708D02*
X0024300Y0105708D01*
X0024300Y0107307D02*
X0030307Y0107307D01*
X0032693Y0108905D02*
X0024300Y0108905D01*
X0024300Y0110504D02*
X0030363Y0110504D01*
X0029421Y0112102D02*
X0024300Y0112102D01*
X0024300Y0113701D02*
X0029091Y0113701D01*
X0029228Y0115299D02*
X0024300Y0115299D01*
X0024300Y0116898D02*
X0029898Y0116898D01*
X0031705Y0118496D02*
X0024300Y0118496D01*
D18*
X0034300Y0073933D02*
X0089300Y0073933D01*
X0099300Y0083933D01*
X0099300Y0118933D01*
X0109300Y0126433D01*
X0261800Y0126433D01*
X0266800Y0131433D01*
X0266800Y0188933D01*
X0261800Y0193933D01*
X0246800Y0193933D01*
X0191800Y0193933D01*
X0186800Y0198933D01*
X0186800Y0211433D01*
X0241800Y0211433D02*
X0241800Y0198933D01*
X0246800Y0193933D01*
D19*
X0206800Y0211433D03*
M02*
