G75*
%MOIN*%
%OFA0B0*%
%FSLAX25Y25*%
%IPPOS*%
%LPD*%
%AMOC8*
5,1,8,0,0,1.08239X$1,22.5*
%
%ADD10C,0.00000*%
%ADD11C,0.07400*%
%ADD12C,0.06600*%
%ADD13R,0.07400X0.07400*%
%ADD14R,0.03150X0.03150*%
%ADD15C,0.06600*%
%ADD16R,0.04724X0.03150*%
%ADD17R,0.03150X0.04724*%
%ADD18C,0.07600*%
%ADD19C,0.01600*%
%ADD20C,0.03962*%
%ADD21C,0.04000*%
%ADD22R,0.03962X0.03962*%
%ADD23C,0.05000*%
D10*
X0011800Y0036433D02*
X0335500Y0036433D01*
X0335501Y0036433D02*
X0335501Y0286394D01*
X0011800Y0286394D01*
X0011800Y0036433D01*
X0112800Y0081433D02*
X0112802Y0081594D01*
X0112808Y0081754D01*
X0112818Y0081915D01*
X0112832Y0082075D01*
X0112850Y0082235D01*
X0112871Y0082394D01*
X0112897Y0082553D01*
X0112927Y0082711D01*
X0112960Y0082868D01*
X0112998Y0083025D01*
X0113039Y0083180D01*
X0113084Y0083334D01*
X0113133Y0083487D01*
X0113186Y0083639D01*
X0113242Y0083790D01*
X0113303Y0083939D01*
X0113366Y0084087D01*
X0113434Y0084233D01*
X0113505Y0084377D01*
X0113579Y0084519D01*
X0113657Y0084660D01*
X0113739Y0084798D01*
X0113824Y0084935D01*
X0113912Y0085069D01*
X0114004Y0085201D01*
X0114099Y0085331D01*
X0114197Y0085459D01*
X0114298Y0085584D01*
X0114402Y0085706D01*
X0114509Y0085826D01*
X0114619Y0085943D01*
X0114732Y0086058D01*
X0114848Y0086169D01*
X0114967Y0086278D01*
X0115088Y0086383D01*
X0115212Y0086486D01*
X0115338Y0086586D01*
X0115466Y0086682D01*
X0115597Y0086775D01*
X0115731Y0086865D01*
X0115866Y0086952D01*
X0116004Y0087035D01*
X0116143Y0087115D01*
X0116285Y0087191D01*
X0116428Y0087264D01*
X0116573Y0087333D01*
X0116720Y0087399D01*
X0116868Y0087461D01*
X0117018Y0087519D01*
X0117169Y0087574D01*
X0117322Y0087625D01*
X0117476Y0087672D01*
X0117631Y0087715D01*
X0117787Y0087754D01*
X0117943Y0087790D01*
X0118101Y0087821D01*
X0118259Y0087849D01*
X0118418Y0087873D01*
X0118578Y0087893D01*
X0118738Y0087909D01*
X0118898Y0087921D01*
X0119059Y0087929D01*
X0119220Y0087933D01*
X0119380Y0087933D01*
X0119541Y0087929D01*
X0119702Y0087921D01*
X0119862Y0087909D01*
X0120022Y0087893D01*
X0120182Y0087873D01*
X0120341Y0087849D01*
X0120499Y0087821D01*
X0120657Y0087790D01*
X0120813Y0087754D01*
X0120969Y0087715D01*
X0121124Y0087672D01*
X0121278Y0087625D01*
X0121431Y0087574D01*
X0121582Y0087519D01*
X0121732Y0087461D01*
X0121880Y0087399D01*
X0122027Y0087333D01*
X0122172Y0087264D01*
X0122315Y0087191D01*
X0122457Y0087115D01*
X0122596Y0087035D01*
X0122734Y0086952D01*
X0122869Y0086865D01*
X0123003Y0086775D01*
X0123134Y0086682D01*
X0123262Y0086586D01*
X0123388Y0086486D01*
X0123512Y0086383D01*
X0123633Y0086278D01*
X0123752Y0086169D01*
X0123868Y0086058D01*
X0123981Y0085943D01*
X0124091Y0085826D01*
X0124198Y0085706D01*
X0124302Y0085584D01*
X0124403Y0085459D01*
X0124501Y0085331D01*
X0124596Y0085201D01*
X0124688Y0085069D01*
X0124776Y0084935D01*
X0124861Y0084798D01*
X0124943Y0084660D01*
X0125021Y0084519D01*
X0125095Y0084377D01*
X0125166Y0084233D01*
X0125234Y0084087D01*
X0125297Y0083939D01*
X0125358Y0083790D01*
X0125414Y0083639D01*
X0125467Y0083487D01*
X0125516Y0083334D01*
X0125561Y0083180D01*
X0125602Y0083025D01*
X0125640Y0082868D01*
X0125673Y0082711D01*
X0125703Y0082553D01*
X0125729Y0082394D01*
X0125750Y0082235D01*
X0125768Y0082075D01*
X0125782Y0081915D01*
X0125792Y0081754D01*
X0125798Y0081594D01*
X0125800Y0081433D01*
X0125798Y0081272D01*
X0125792Y0081112D01*
X0125782Y0080951D01*
X0125768Y0080791D01*
X0125750Y0080631D01*
X0125729Y0080472D01*
X0125703Y0080313D01*
X0125673Y0080155D01*
X0125640Y0079998D01*
X0125602Y0079841D01*
X0125561Y0079686D01*
X0125516Y0079532D01*
X0125467Y0079379D01*
X0125414Y0079227D01*
X0125358Y0079076D01*
X0125297Y0078927D01*
X0125234Y0078779D01*
X0125166Y0078633D01*
X0125095Y0078489D01*
X0125021Y0078347D01*
X0124943Y0078206D01*
X0124861Y0078068D01*
X0124776Y0077931D01*
X0124688Y0077797D01*
X0124596Y0077665D01*
X0124501Y0077535D01*
X0124403Y0077407D01*
X0124302Y0077282D01*
X0124198Y0077160D01*
X0124091Y0077040D01*
X0123981Y0076923D01*
X0123868Y0076808D01*
X0123752Y0076697D01*
X0123633Y0076588D01*
X0123512Y0076483D01*
X0123388Y0076380D01*
X0123262Y0076280D01*
X0123134Y0076184D01*
X0123003Y0076091D01*
X0122869Y0076001D01*
X0122734Y0075914D01*
X0122596Y0075831D01*
X0122457Y0075751D01*
X0122315Y0075675D01*
X0122172Y0075602D01*
X0122027Y0075533D01*
X0121880Y0075467D01*
X0121732Y0075405D01*
X0121582Y0075347D01*
X0121431Y0075292D01*
X0121278Y0075241D01*
X0121124Y0075194D01*
X0120969Y0075151D01*
X0120813Y0075112D01*
X0120657Y0075076D01*
X0120499Y0075045D01*
X0120341Y0075017D01*
X0120182Y0074993D01*
X0120022Y0074973D01*
X0119862Y0074957D01*
X0119702Y0074945D01*
X0119541Y0074937D01*
X0119380Y0074933D01*
X0119220Y0074933D01*
X0119059Y0074937D01*
X0118898Y0074945D01*
X0118738Y0074957D01*
X0118578Y0074973D01*
X0118418Y0074993D01*
X0118259Y0075017D01*
X0118101Y0075045D01*
X0117943Y0075076D01*
X0117787Y0075112D01*
X0117631Y0075151D01*
X0117476Y0075194D01*
X0117322Y0075241D01*
X0117169Y0075292D01*
X0117018Y0075347D01*
X0116868Y0075405D01*
X0116720Y0075467D01*
X0116573Y0075533D01*
X0116428Y0075602D01*
X0116285Y0075675D01*
X0116143Y0075751D01*
X0116004Y0075831D01*
X0115866Y0075914D01*
X0115731Y0076001D01*
X0115597Y0076091D01*
X0115466Y0076184D01*
X0115338Y0076280D01*
X0115212Y0076380D01*
X0115088Y0076483D01*
X0114967Y0076588D01*
X0114848Y0076697D01*
X0114732Y0076808D01*
X0114619Y0076923D01*
X0114509Y0077040D01*
X0114402Y0077160D01*
X0114298Y0077282D01*
X0114197Y0077407D01*
X0114099Y0077535D01*
X0114004Y0077665D01*
X0113912Y0077797D01*
X0113824Y0077931D01*
X0113739Y0078068D01*
X0113657Y0078206D01*
X0113579Y0078347D01*
X0113505Y0078489D01*
X0113434Y0078633D01*
X0113366Y0078779D01*
X0113303Y0078927D01*
X0113242Y0079076D01*
X0113186Y0079227D01*
X0113133Y0079379D01*
X0113084Y0079532D01*
X0113039Y0079686D01*
X0112998Y0079841D01*
X0112960Y0079998D01*
X0112927Y0080155D01*
X0112897Y0080313D01*
X0112871Y0080472D01*
X0112850Y0080631D01*
X0112832Y0080791D01*
X0112818Y0080951D01*
X0112808Y0081112D01*
X0112802Y0081272D01*
X0112800Y0081433D01*
X0107800Y0157433D02*
X0107802Y0157594D01*
X0107808Y0157754D01*
X0107818Y0157915D01*
X0107832Y0158075D01*
X0107850Y0158235D01*
X0107871Y0158394D01*
X0107897Y0158553D01*
X0107927Y0158711D01*
X0107960Y0158868D01*
X0107998Y0159025D01*
X0108039Y0159180D01*
X0108084Y0159334D01*
X0108133Y0159487D01*
X0108186Y0159639D01*
X0108242Y0159790D01*
X0108303Y0159939D01*
X0108366Y0160087D01*
X0108434Y0160233D01*
X0108505Y0160377D01*
X0108579Y0160519D01*
X0108657Y0160660D01*
X0108739Y0160798D01*
X0108824Y0160935D01*
X0108912Y0161069D01*
X0109004Y0161201D01*
X0109099Y0161331D01*
X0109197Y0161459D01*
X0109298Y0161584D01*
X0109402Y0161706D01*
X0109509Y0161826D01*
X0109619Y0161943D01*
X0109732Y0162058D01*
X0109848Y0162169D01*
X0109967Y0162278D01*
X0110088Y0162383D01*
X0110212Y0162486D01*
X0110338Y0162586D01*
X0110466Y0162682D01*
X0110597Y0162775D01*
X0110731Y0162865D01*
X0110866Y0162952D01*
X0111004Y0163035D01*
X0111143Y0163115D01*
X0111285Y0163191D01*
X0111428Y0163264D01*
X0111573Y0163333D01*
X0111720Y0163399D01*
X0111868Y0163461D01*
X0112018Y0163519D01*
X0112169Y0163574D01*
X0112322Y0163625D01*
X0112476Y0163672D01*
X0112631Y0163715D01*
X0112787Y0163754D01*
X0112943Y0163790D01*
X0113101Y0163821D01*
X0113259Y0163849D01*
X0113418Y0163873D01*
X0113578Y0163893D01*
X0113738Y0163909D01*
X0113898Y0163921D01*
X0114059Y0163929D01*
X0114220Y0163933D01*
X0114380Y0163933D01*
X0114541Y0163929D01*
X0114702Y0163921D01*
X0114862Y0163909D01*
X0115022Y0163893D01*
X0115182Y0163873D01*
X0115341Y0163849D01*
X0115499Y0163821D01*
X0115657Y0163790D01*
X0115813Y0163754D01*
X0115969Y0163715D01*
X0116124Y0163672D01*
X0116278Y0163625D01*
X0116431Y0163574D01*
X0116582Y0163519D01*
X0116732Y0163461D01*
X0116880Y0163399D01*
X0117027Y0163333D01*
X0117172Y0163264D01*
X0117315Y0163191D01*
X0117457Y0163115D01*
X0117596Y0163035D01*
X0117734Y0162952D01*
X0117869Y0162865D01*
X0118003Y0162775D01*
X0118134Y0162682D01*
X0118262Y0162586D01*
X0118388Y0162486D01*
X0118512Y0162383D01*
X0118633Y0162278D01*
X0118752Y0162169D01*
X0118868Y0162058D01*
X0118981Y0161943D01*
X0119091Y0161826D01*
X0119198Y0161706D01*
X0119302Y0161584D01*
X0119403Y0161459D01*
X0119501Y0161331D01*
X0119596Y0161201D01*
X0119688Y0161069D01*
X0119776Y0160935D01*
X0119861Y0160798D01*
X0119943Y0160660D01*
X0120021Y0160519D01*
X0120095Y0160377D01*
X0120166Y0160233D01*
X0120234Y0160087D01*
X0120297Y0159939D01*
X0120358Y0159790D01*
X0120414Y0159639D01*
X0120467Y0159487D01*
X0120516Y0159334D01*
X0120561Y0159180D01*
X0120602Y0159025D01*
X0120640Y0158868D01*
X0120673Y0158711D01*
X0120703Y0158553D01*
X0120729Y0158394D01*
X0120750Y0158235D01*
X0120768Y0158075D01*
X0120782Y0157915D01*
X0120792Y0157754D01*
X0120798Y0157594D01*
X0120800Y0157433D01*
X0120798Y0157272D01*
X0120792Y0157112D01*
X0120782Y0156951D01*
X0120768Y0156791D01*
X0120750Y0156631D01*
X0120729Y0156472D01*
X0120703Y0156313D01*
X0120673Y0156155D01*
X0120640Y0155998D01*
X0120602Y0155841D01*
X0120561Y0155686D01*
X0120516Y0155532D01*
X0120467Y0155379D01*
X0120414Y0155227D01*
X0120358Y0155076D01*
X0120297Y0154927D01*
X0120234Y0154779D01*
X0120166Y0154633D01*
X0120095Y0154489D01*
X0120021Y0154347D01*
X0119943Y0154206D01*
X0119861Y0154068D01*
X0119776Y0153931D01*
X0119688Y0153797D01*
X0119596Y0153665D01*
X0119501Y0153535D01*
X0119403Y0153407D01*
X0119302Y0153282D01*
X0119198Y0153160D01*
X0119091Y0153040D01*
X0118981Y0152923D01*
X0118868Y0152808D01*
X0118752Y0152697D01*
X0118633Y0152588D01*
X0118512Y0152483D01*
X0118388Y0152380D01*
X0118262Y0152280D01*
X0118134Y0152184D01*
X0118003Y0152091D01*
X0117869Y0152001D01*
X0117734Y0151914D01*
X0117596Y0151831D01*
X0117457Y0151751D01*
X0117315Y0151675D01*
X0117172Y0151602D01*
X0117027Y0151533D01*
X0116880Y0151467D01*
X0116732Y0151405D01*
X0116582Y0151347D01*
X0116431Y0151292D01*
X0116278Y0151241D01*
X0116124Y0151194D01*
X0115969Y0151151D01*
X0115813Y0151112D01*
X0115657Y0151076D01*
X0115499Y0151045D01*
X0115341Y0151017D01*
X0115182Y0150993D01*
X0115022Y0150973D01*
X0114862Y0150957D01*
X0114702Y0150945D01*
X0114541Y0150937D01*
X0114380Y0150933D01*
X0114220Y0150933D01*
X0114059Y0150937D01*
X0113898Y0150945D01*
X0113738Y0150957D01*
X0113578Y0150973D01*
X0113418Y0150993D01*
X0113259Y0151017D01*
X0113101Y0151045D01*
X0112943Y0151076D01*
X0112787Y0151112D01*
X0112631Y0151151D01*
X0112476Y0151194D01*
X0112322Y0151241D01*
X0112169Y0151292D01*
X0112018Y0151347D01*
X0111868Y0151405D01*
X0111720Y0151467D01*
X0111573Y0151533D01*
X0111428Y0151602D01*
X0111285Y0151675D01*
X0111143Y0151751D01*
X0111004Y0151831D01*
X0110866Y0151914D01*
X0110731Y0152001D01*
X0110597Y0152091D01*
X0110466Y0152184D01*
X0110338Y0152280D01*
X0110212Y0152380D01*
X0110088Y0152483D01*
X0109967Y0152588D01*
X0109848Y0152697D01*
X0109732Y0152808D01*
X0109619Y0152923D01*
X0109509Y0153040D01*
X0109402Y0153160D01*
X0109298Y0153282D01*
X0109197Y0153407D01*
X0109099Y0153535D01*
X0109004Y0153665D01*
X0108912Y0153797D01*
X0108824Y0153931D01*
X0108739Y0154068D01*
X0108657Y0154206D01*
X0108579Y0154347D01*
X0108505Y0154489D01*
X0108434Y0154633D01*
X0108366Y0154779D01*
X0108303Y0154927D01*
X0108242Y0155076D01*
X0108186Y0155227D01*
X0108133Y0155379D01*
X0108084Y0155532D01*
X0108039Y0155686D01*
X0107998Y0155841D01*
X0107960Y0155998D01*
X0107927Y0156155D01*
X0107897Y0156313D01*
X0107871Y0156472D01*
X0107850Y0156631D01*
X0107832Y0156791D01*
X0107818Y0156951D01*
X0107808Y0157112D01*
X0107802Y0157272D01*
X0107800Y0157433D01*
X0040300Y0157433D02*
X0040302Y0157594D01*
X0040308Y0157754D01*
X0040318Y0157915D01*
X0040332Y0158075D01*
X0040350Y0158235D01*
X0040371Y0158394D01*
X0040397Y0158553D01*
X0040427Y0158711D01*
X0040460Y0158868D01*
X0040498Y0159025D01*
X0040539Y0159180D01*
X0040584Y0159334D01*
X0040633Y0159487D01*
X0040686Y0159639D01*
X0040742Y0159790D01*
X0040803Y0159939D01*
X0040866Y0160087D01*
X0040934Y0160233D01*
X0041005Y0160377D01*
X0041079Y0160519D01*
X0041157Y0160660D01*
X0041239Y0160798D01*
X0041324Y0160935D01*
X0041412Y0161069D01*
X0041504Y0161201D01*
X0041599Y0161331D01*
X0041697Y0161459D01*
X0041798Y0161584D01*
X0041902Y0161706D01*
X0042009Y0161826D01*
X0042119Y0161943D01*
X0042232Y0162058D01*
X0042348Y0162169D01*
X0042467Y0162278D01*
X0042588Y0162383D01*
X0042712Y0162486D01*
X0042838Y0162586D01*
X0042966Y0162682D01*
X0043097Y0162775D01*
X0043231Y0162865D01*
X0043366Y0162952D01*
X0043504Y0163035D01*
X0043643Y0163115D01*
X0043785Y0163191D01*
X0043928Y0163264D01*
X0044073Y0163333D01*
X0044220Y0163399D01*
X0044368Y0163461D01*
X0044518Y0163519D01*
X0044669Y0163574D01*
X0044822Y0163625D01*
X0044976Y0163672D01*
X0045131Y0163715D01*
X0045287Y0163754D01*
X0045443Y0163790D01*
X0045601Y0163821D01*
X0045759Y0163849D01*
X0045918Y0163873D01*
X0046078Y0163893D01*
X0046238Y0163909D01*
X0046398Y0163921D01*
X0046559Y0163929D01*
X0046720Y0163933D01*
X0046880Y0163933D01*
X0047041Y0163929D01*
X0047202Y0163921D01*
X0047362Y0163909D01*
X0047522Y0163893D01*
X0047682Y0163873D01*
X0047841Y0163849D01*
X0047999Y0163821D01*
X0048157Y0163790D01*
X0048313Y0163754D01*
X0048469Y0163715D01*
X0048624Y0163672D01*
X0048778Y0163625D01*
X0048931Y0163574D01*
X0049082Y0163519D01*
X0049232Y0163461D01*
X0049380Y0163399D01*
X0049527Y0163333D01*
X0049672Y0163264D01*
X0049815Y0163191D01*
X0049957Y0163115D01*
X0050096Y0163035D01*
X0050234Y0162952D01*
X0050369Y0162865D01*
X0050503Y0162775D01*
X0050634Y0162682D01*
X0050762Y0162586D01*
X0050888Y0162486D01*
X0051012Y0162383D01*
X0051133Y0162278D01*
X0051252Y0162169D01*
X0051368Y0162058D01*
X0051481Y0161943D01*
X0051591Y0161826D01*
X0051698Y0161706D01*
X0051802Y0161584D01*
X0051903Y0161459D01*
X0052001Y0161331D01*
X0052096Y0161201D01*
X0052188Y0161069D01*
X0052276Y0160935D01*
X0052361Y0160798D01*
X0052443Y0160660D01*
X0052521Y0160519D01*
X0052595Y0160377D01*
X0052666Y0160233D01*
X0052734Y0160087D01*
X0052797Y0159939D01*
X0052858Y0159790D01*
X0052914Y0159639D01*
X0052967Y0159487D01*
X0053016Y0159334D01*
X0053061Y0159180D01*
X0053102Y0159025D01*
X0053140Y0158868D01*
X0053173Y0158711D01*
X0053203Y0158553D01*
X0053229Y0158394D01*
X0053250Y0158235D01*
X0053268Y0158075D01*
X0053282Y0157915D01*
X0053292Y0157754D01*
X0053298Y0157594D01*
X0053300Y0157433D01*
X0053298Y0157272D01*
X0053292Y0157112D01*
X0053282Y0156951D01*
X0053268Y0156791D01*
X0053250Y0156631D01*
X0053229Y0156472D01*
X0053203Y0156313D01*
X0053173Y0156155D01*
X0053140Y0155998D01*
X0053102Y0155841D01*
X0053061Y0155686D01*
X0053016Y0155532D01*
X0052967Y0155379D01*
X0052914Y0155227D01*
X0052858Y0155076D01*
X0052797Y0154927D01*
X0052734Y0154779D01*
X0052666Y0154633D01*
X0052595Y0154489D01*
X0052521Y0154347D01*
X0052443Y0154206D01*
X0052361Y0154068D01*
X0052276Y0153931D01*
X0052188Y0153797D01*
X0052096Y0153665D01*
X0052001Y0153535D01*
X0051903Y0153407D01*
X0051802Y0153282D01*
X0051698Y0153160D01*
X0051591Y0153040D01*
X0051481Y0152923D01*
X0051368Y0152808D01*
X0051252Y0152697D01*
X0051133Y0152588D01*
X0051012Y0152483D01*
X0050888Y0152380D01*
X0050762Y0152280D01*
X0050634Y0152184D01*
X0050503Y0152091D01*
X0050369Y0152001D01*
X0050234Y0151914D01*
X0050096Y0151831D01*
X0049957Y0151751D01*
X0049815Y0151675D01*
X0049672Y0151602D01*
X0049527Y0151533D01*
X0049380Y0151467D01*
X0049232Y0151405D01*
X0049082Y0151347D01*
X0048931Y0151292D01*
X0048778Y0151241D01*
X0048624Y0151194D01*
X0048469Y0151151D01*
X0048313Y0151112D01*
X0048157Y0151076D01*
X0047999Y0151045D01*
X0047841Y0151017D01*
X0047682Y0150993D01*
X0047522Y0150973D01*
X0047362Y0150957D01*
X0047202Y0150945D01*
X0047041Y0150937D01*
X0046880Y0150933D01*
X0046720Y0150933D01*
X0046559Y0150937D01*
X0046398Y0150945D01*
X0046238Y0150957D01*
X0046078Y0150973D01*
X0045918Y0150993D01*
X0045759Y0151017D01*
X0045601Y0151045D01*
X0045443Y0151076D01*
X0045287Y0151112D01*
X0045131Y0151151D01*
X0044976Y0151194D01*
X0044822Y0151241D01*
X0044669Y0151292D01*
X0044518Y0151347D01*
X0044368Y0151405D01*
X0044220Y0151467D01*
X0044073Y0151533D01*
X0043928Y0151602D01*
X0043785Y0151675D01*
X0043643Y0151751D01*
X0043504Y0151831D01*
X0043366Y0151914D01*
X0043231Y0152001D01*
X0043097Y0152091D01*
X0042966Y0152184D01*
X0042838Y0152280D01*
X0042712Y0152380D01*
X0042588Y0152483D01*
X0042467Y0152588D01*
X0042348Y0152697D01*
X0042232Y0152808D01*
X0042119Y0152923D01*
X0042009Y0153040D01*
X0041902Y0153160D01*
X0041798Y0153282D01*
X0041697Y0153407D01*
X0041599Y0153535D01*
X0041504Y0153665D01*
X0041412Y0153797D01*
X0041324Y0153931D01*
X0041239Y0154068D01*
X0041157Y0154206D01*
X0041079Y0154347D01*
X0041005Y0154489D01*
X0040934Y0154633D01*
X0040866Y0154779D01*
X0040803Y0154927D01*
X0040742Y0155076D01*
X0040686Y0155227D01*
X0040633Y0155379D01*
X0040584Y0155532D01*
X0040539Y0155686D01*
X0040498Y0155841D01*
X0040460Y0155998D01*
X0040427Y0156155D01*
X0040397Y0156313D01*
X0040371Y0156472D01*
X0040350Y0156631D01*
X0040332Y0156791D01*
X0040318Y0156951D01*
X0040308Y0157112D01*
X0040302Y0157272D01*
X0040300Y0157433D01*
X0150300Y0238933D02*
X0150302Y0239094D01*
X0150308Y0239254D01*
X0150318Y0239415D01*
X0150332Y0239575D01*
X0150350Y0239735D01*
X0150371Y0239894D01*
X0150397Y0240053D01*
X0150427Y0240211D01*
X0150460Y0240368D01*
X0150498Y0240525D01*
X0150539Y0240680D01*
X0150584Y0240834D01*
X0150633Y0240987D01*
X0150686Y0241139D01*
X0150742Y0241290D01*
X0150803Y0241439D01*
X0150866Y0241587D01*
X0150934Y0241733D01*
X0151005Y0241877D01*
X0151079Y0242019D01*
X0151157Y0242160D01*
X0151239Y0242298D01*
X0151324Y0242435D01*
X0151412Y0242569D01*
X0151504Y0242701D01*
X0151599Y0242831D01*
X0151697Y0242959D01*
X0151798Y0243084D01*
X0151902Y0243206D01*
X0152009Y0243326D01*
X0152119Y0243443D01*
X0152232Y0243558D01*
X0152348Y0243669D01*
X0152467Y0243778D01*
X0152588Y0243883D01*
X0152712Y0243986D01*
X0152838Y0244086D01*
X0152966Y0244182D01*
X0153097Y0244275D01*
X0153231Y0244365D01*
X0153366Y0244452D01*
X0153504Y0244535D01*
X0153643Y0244615D01*
X0153785Y0244691D01*
X0153928Y0244764D01*
X0154073Y0244833D01*
X0154220Y0244899D01*
X0154368Y0244961D01*
X0154518Y0245019D01*
X0154669Y0245074D01*
X0154822Y0245125D01*
X0154976Y0245172D01*
X0155131Y0245215D01*
X0155287Y0245254D01*
X0155443Y0245290D01*
X0155601Y0245321D01*
X0155759Y0245349D01*
X0155918Y0245373D01*
X0156078Y0245393D01*
X0156238Y0245409D01*
X0156398Y0245421D01*
X0156559Y0245429D01*
X0156720Y0245433D01*
X0156880Y0245433D01*
X0157041Y0245429D01*
X0157202Y0245421D01*
X0157362Y0245409D01*
X0157522Y0245393D01*
X0157682Y0245373D01*
X0157841Y0245349D01*
X0157999Y0245321D01*
X0158157Y0245290D01*
X0158313Y0245254D01*
X0158469Y0245215D01*
X0158624Y0245172D01*
X0158778Y0245125D01*
X0158931Y0245074D01*
X0159082Y0245019D01*
X0159232Y0244961D01*
X0159380Y0244899D01*
X0159527Y0244833D01*
X0159672Y0244764D01*
X0159815Y0244691D01*
X0159957Y0244615D01*
X0160096Y0244535D01*
X0160234Y0244452D01*
X0160369Y0244365D01*
X0160503Y0244275D01*
X0160634Y0244182D01*
X0160762Y0244086D01*
X0160888Y0243986D01*
X0161012Y0243883D01*
X0161133Y0243778D01*
X0161252Y0243669D01*
X0161368Y0243558D01*
X0161481Y0243443D01*
X0161591Y0243326D01*
X0161698Y0243206D01*
X0161802Y0243084D01*
X0161903Y0242959D01*
X0162001Y0242831D01*
X0162096Y0242701D01*
X0162188Y0242569D01*
X0162276Y0242435D01*
X0162361Y0242298D01*
X0162443Y0242160D01*
X0162521Y0242019D01*
X0162595Y0241877D01*
X0162666Y0241733D01*
X0162734Y0241587D01*
X0162797Y0241439D01*
X0162858Y0241290D01*
X0162914Y0241139D01*
X0162967Y0240987D01*
X0163016Y0240834D01*
X0163061Y0240680D01*
X0163102Y0240525D01*
X0163140Y0240368D01*
X0163173Y0240211D01*
X0163203Y0240053D01*
X0163229Y0239894D01*
X0163250Y0239735D01*
X0163268Y0239575D01*
X0163282Y0239415D01*
X0163292Y0239254D01*
X0163298Y0239094D01*
X0163300Y0238933D01*
X0163298Y0238772D01*
X0163292Y0238612D01*
X0163282Y0238451D01*
X0163268Y0238291D01*
X0163250Y0238131D01*
X0163229Y0237972D01*
X0163203Y0237813D01*
X0163173Y0237655D01*
X0163140Y0237498D01*
X0163102Y0237341D01*
X0163061Y0237186D01*
X0163016Y0237032D01*
X0162967Y0236879D01*
X0162914Y0236727D01*
X0162858Y0236576D01*
X0162797Y0236427D01*
X0162734Y0236279D01*
X0162666Y0236133D01*
X0162595Y0235989D01*
X0162521Y0235847D01*
X0162443Y0235706D01*
X0162361Y0235568D01*
X0162276Y0235431D01*
X0162188Y0235297D01*
X0162096Y0235165D01*
X0162001Y0235035D01*
X0161903Y0234907D01*
X0161802Y0234782D01*
X0161698Y0234660D01*
X0161591Y0234540D01*
X0161481Y0234423D01*
X0161368Y0234308D01*
X0161252Y0234197D01*
X0161133Y0234088D01*
X0161012Y0233983D01*
X0160888Y0233880D01*
X0160762Y0233780D01*
X0160634Y0233684D01*
X0160503Y0233591D01*
X0160369Y0233501D01*
X0160234Y0233414D01*
X0160096Y0233331D01*
X0159957Y0233251D01*
X0159815Y0233175D01*
X0159672Y0233102D01*
X0159527Y0233033D01*
X0159380Y0232967D01*
X0159232Y0232905D01*
X0159082Y0232847D01*
X0158931Y0232792D01*
X0158778Y0232741D01*
X0158624Y0232694D01*
X0158469Y0232651D01*
X0158313Y0232612D01*
X0158157Y0232576D01*
X0157999Y0232545D01*
X0157841Y0232517D01*
X0157682Y0232493D01*
X0157522Y0232473D01*
X0157362Y0232457D01*
X0157202Y0232445D01*
X0157041Y0232437D01*
X0156880Y0232433D01*
X0156720Y0232433D01*
X0156559Y0232437D01*
X0156398Y0232445D01*
X0156238Y0232457D01*
X0156078Y0232473D01*
X0155918Y0232493D01*
X0155759Y0232517D01*
X0155601Y0232545D01*
X0155443Y0232576D01*
X0155287Y0232612D01*
X0155131Y0232651D01*
X0154976Y0232694D01*
X0154822Y0232741D01*
X0154669Y0232792D01*
X0154518Y0232847D01*
X0154368Y0232905D01*
X0154220Y0232967D01*
X0154073Y0233033D01*
X0153928Y0233102D01*
X0153785Y0233175D01*
X0153643Y0233251D01*
X0153504Y0233331D01*
X0153366Y0233414D01*
X0153231Y0233501D01*
X0153097Y0233591D01*
X0152966Y0233684D01*
X0152838Y0233780D01*
X0152712Y0233880D01*
X0152588Y0233983D01*
X0152467Y0234088D01*
X0152348Y0234197D01*
X0152232Y0234308D01*
X0152119Y0234423D01*
X0152009Y0234540D01*
X0151902Y0234660D01*
X0151798Y0234782D01*
X0151697Y0234907D01*
X0151599Y0235035D01*
X0151504Y0235165D01*
X0151412Y0235297D01*
X0151324Y0235431D01*
X0151239Y0235568D01*
X0151157Y0235706D01*
X0151079Y0235847D01*
X0151005Y0235989D01*
X0150934Y0236133D01*
X0150866Y0236279D01*
X0150803Y0236427D01*
X0150742Y0236576D01*
X0150686Y0236727D01*
X0150633Y0236879D01*
X0150584Y0237032D01*
X0150539Y0237186D01*
X0150498Y0237341D01*
X0150460Y0237498D01*
X0150427Y0237655D01*
X0150397Y0237813D01*
X0150371Y0237972D01*
X0150350Y0238131D01*
X0150332Y0238291D01*
X0150318Y0238451D01*
X0150308Y0238612D01*
X0150302Y0238772D01*
X0150300Y0238933D01*
X0180300Y0171433D02*
X0180302Y0171594D01*
X0180308Y0171754D01*
X0180318Y0171915D01*
X0180332Y0172075D01*
X0180350Y0172235D01*
X0180371Y0172394D01*
X0180397Y0172553D01*
X0180427Y0172711D01*
X0180460Y0172868D01*
X0180498Y0173025D01*
X0180539Y0173180D01*
X0180584Y0173334D01*
X0180633Y0173487D01*
X0180686Y0173639D01*
X0180742Y0173790D01*
X0180803Y0173939D01*
X0180866Y0174087D01*
X0180934Y0174233D01*
X0181005Y0174377D01*
X0181079Y0174519D01*
X0181157Y0174660D01*
X0181239Y0174798D01*
X0181324Y0174935D01*
X0181412Y0175069D01*
X0181504Y0175201D01*
X0181599Y0175331D01*
X0181697Y0175459D01*
X0181798Y0175584D01*
X0181902Y0175706D01*
X0182009Y0175826D01*
X0182119Y0175943D01*
X0182232Y0176058D01*
X0182348Y0176169D01*
X0182467Y0176278D01*
X0182588Y0176383D01*
X0182712Y0176486D01*
X0182838Y0176586D01*
X0182966Y0176682D01*
X0183097Y0176775D01*
X0183231Y0176865D01*
X0183366Y0176952D01*
X0183504Y0177035D01*
X0183643Y0177115D01*
X0183785Y0177191D01*
X0183928Y0177264D01*
X0184073Y0177333D01*
X0184220Y0177399D01*
X0184368Y0177461D01*
X0184518Y0177519D01*
X0184669Y0177574D01*
X0184822Y0177625D01*
X0184976Y0177672D01*
X0185131Y0177715D01*
X0185287Y0177754D01*
X0185443Y0177790D01*
X0185601Y0177821D01*
X0185759Y0177849D01*
X0185918Y0177873D01*
X0186078Y0177893D01*
X0186238Y0177909D01*
X0186398Y0177921D01*
X0186559Y0177929D01*
X0186720Y0177933D01*
X0186880Y0177933D01*
X0187041Y0177929D01*
X0187202Y0177921D01*
X0187362Y0177909D01*
X0187522Y0177893D01*
X0187682Y0177873D01*
X0187841Y0177849D01*
X0187999Y0177821D01*
X0188157Y0177790D01*
X0188313Y0177754D01*
X0188469Y0177715D01*
X0188624Y0177672D01*
X0188778Y0177625D01*
X0188931Y0177574D01*
X0189082Y0177519D01*
X0189232Y0177461D01*
X0189380Y0177399D01*
X0189527Y0177333D01*
X0189672Y0177264D01*
X0189815Y0177191D01*
X0189957Y0177115D01*
X0190096Y0177035D01*
X0190234Y0176952D01*
X0190369Y0176865D01*
X0190503Y0176775D01*
X0190634Y0176682D01*
X0190762Y0176586D01*
X0190888Y0176486D01*
X0191012Y0176383D01*
X0191133Y0176278D01*
X0191252Y0176169D01*
X0191368Y0176058D01*
X0191481Y0175943D01*
X0191591Y0175826D01*
X0191698Y0175706D01*
X0191802Y0175584D01*
X0191903Y0175459D01*
X0192001Y0175331D01*
X0192096Y0175201D01*
X0192188Y0175069D01*
X0192276Y0174935D01*
X0192361Y0174798D01*
X0192443Y0174660D01*
X0192521Y0174519D01*
X0192595Y0174377D01*
X0192666Y0174233D01*
X0192734Y0174087D01*
X0192797Y0173939D01*
X0192858Y0173790D01*
X0192914Y0173639D01*
X0192967Y0173487D01*
X0193016Y0173334D01*
X0193061Y0173180D01*
X0193102Y0173025D01*
X0193140Y0172868D01*
X0193173Y0172711D01*
X0193203Y0172553D01*
X0193229Y0172394D01*
X0193250Y0172235D01*
X0193268Y0172075D01*
X0193282Y0171915D01*
X0193292Y0171754D01*
X0193298Y0171594D01*
X0193300Y0171433D01*
X0193298Y0171272D01*
X0193292Y0171112D01*
X0193282Y0170951D01*
X0193268Y0170791D01*
X0193250Y0170631D01*
X0193229Y0170472D01*
X0193203Y0170313D01*
X0193173Y0170155D01*
X0193140Y0169998D01*
X0193102Y0169841D01*
X0193061Y0169686D01*
X0193016Y0169532D01*
X0192967Y0169379D01*
X0192914Y0169227D01*
X0192858Y0169076D01*
X0192797Y0168927D01*
X0192734Y0168779D01*
X0192666Y0168633D01*
X0192595Y0168489D01*
X0192521Y0168347D01*
X0192443Y0168206D01*
X0192361Y0168068D01*
X0192276Y0167931D01*
X0192188Y0167797D01*
X0192096Y0167665D01*
X0192001Y0167535D01*
X0191903Y0167407D01*
X0191802Y0167282D01*
X0191698Y0167160D01*
X0191591Y0167040D01*
X0191481Y0166923D01*
X0191368Y0166808D01*
X0191252Y0166697D01*
X0191133Y0166588D01*
X0191012Y0166483D01*
X0190888Y0166380D01*
X0190762Y0166280D01*
X0190634Y0166184D01*
X0190503Y0166091D01*
X0190369Y0166001D01*
X0190234Y0165914D01*
X0190096Y0165831D01*
X0189957Y0165751D01*
X0189815Y0165675D01*
X0189672Y0165602D01*
X0189527Y0165533D01*
X0189380Y0165467D01*
X0189232Y0165405D01*
X0189082Y0165347D01*
X0188931Y0165292D01*
X0188778Y0165241D01*
X0188624Y0165194D01*
X0188469Y0165151D01*
X0188313Y0165112D01*
X0188157Y0165076D01*
X0187999Y0165045D01*
X0187841Y0165017D01*
X0187682Y0164993D01*
X0187522Y0164973D01*
X0187362Y0164957D01*
X0187202Y0164945D01*
X0187041Y0164937D01*
X0186880Y0164933D01*
X0186720Y0164933D01*
X0186559Y0164937D01*
X0186398Y0164945D01*
X0186238Y0164957D01*
X0186078Y0164973D01*
X0185918Y0164993D01*
X0185759Y0165017D01*
X0185601Y0165045D01*
X0185443Y0165076D01*
X0185287Y0165112D01*
X0185131Y0165151D01*
X0184976Y0165194D01*
X0184822Y0165241D01*
X0184669Y0165292D01*
X0184518Y0165347D01*
X0184368Y0165405D01*
X0184220Y0165467D01*
X0184073Y0165533D01*
X0183928Y0165602D01*
X0183785Y0165675D01*
X0183643Y0165751D01*
X0183504Y0165831D01*
X0183366Y0165914D01*
X0183231Y0166001D01*
X0183097Y0166091D01*
X0182966Y0166184D01*
X0182838Y0166280D01*
X0182712Y0166380D01*
X0182588Y0166483D01*
X0182467Y0166588D01*
X0182348Y0166697D01*
X0182232Y0166808D01*
X0182119Y0166923D01*
X0182009Y0167040D01*
X0181902Y0167160D01*
X0181798Y0167282D01*
X0181697Y0167407D01*
X0181599Y0167535D01*
X0181504Y0167665D01*
X0181412Y0167797D01*
X0181324Y0167931D01*
X0181239Y0168068D01*
X0181157Y0168206D01*
X0181079Y0168347D01*
X0181005Y0168489D01*
X0180934Y0168633D01*
X0180866Y0168779D01*
X0180803Y0168927D01*
X0180742Y0169076D01*
X0180686Y0169227D01*
X0180633Y0169379D01*
X0180584Y0169532D01*
X0180539Y0169686D01*
X0180498Y0169841D01*
X0180460Y0169998D01*
X0180427Y0170155D01*
X0180397Y0170313D01*
X0180371Y0170472D01*
X0180350Y0170631D01*
X0180332Y0170791D01*
X0180318Y0170951D01*
X0180308Y0171112D01*
X0180302Y0171272D01*
X0180300Y0171433D01*
X0235300Y0171433D02*
X0235302Y0171594D01*
X0235308Y0171754D01*
X0235318Y0171915D01*
X0235332Y0172075D01*
X0235350Y0172235D01*
X0235371Y0172394D01*
X0235397Y0172553D01*
X0235427Y0172711D01*
X0235460Y0172868D01*
X0235498Y0173025D01*
X0235539Y0173180D01*
X0235584Y0173334D01*
X0235633Y0173487D01*
X0235686Y0173639D01*
X0235742Y0173790D01*
X0235803Y0173939D01*
X0235866Y0174087D01*
X0235934Y0174233D01*
X0236005Y0174377D01*
X0236079Y0174519D01*
X0236157Y0174660D01*
X0236239Y0174798D01*
X0236324Y0174935D01*
X0236412Y0175069D01*
X0236504Y0175201D01*
X0236599Y0175331D01*
X0236697Y0175459D01*
X0236798Y0175584D01*
X0236902Y0175706D01*
X0237009Y0175826D01*
X0237119Y0175943D01*
X0237232Y0176058D01*
X0237348Y0176169D01*
X0237467Y0176278D01*
X0237588Y0176383D01*
X0237712Y0176486D01*
X0237838Y0176586D01*
X0237966Y0176682D01*
X0238097Y0176775D01*
X0238231Y0176865D01*
X0238366Y0176952D01*
X0238504Y0177035D01*
X0238643Y0177115D01*
X0238785Y0177191D01*
X0238928Y0177264D01*
X0239073Y0177333D01*
X0239220Y0177399D01*
X0239368Y0177461D01*
X0239518Y0177519D01*
X0239669Y0177574D01*
X0239822Y0177625D01*
X0239976Y0177672D01*
X0240131Y0177715D01*
X0240287Y0177754D01*
X0240443Y0177790D01*
X0240601Y0177821D01*
X0240759Y0177849D01*
X0240918Y0177873D01*
X0241078Y0177893D01*
X0241238Y0177909D01*
X0241398Y0177921D01*
X0241559Y0177929D01*
X0241720Y0177933D01*
X0241880Y0177933D01*
X0242041Y0177929D01*
X0242202Y0177921D01*
X0242362Y0177909D01*
X0242522Y0177893D01*
X0242682Y0177873D01*
X0242841Y0177849D01*
X0242999Y0177821D01*
X0243157Y0177790D01*
X0243313Y0177754D01*
X0243469Y0177715D01*
X0243624Y0177672D01*
X0243778Y0177625D01*
X0243931Y0177574D01*
X0244082Y0177519D01*
X0244232Y0177461D01*
X0244380Y0177399D01*
X0244527Y0177333D01*
X0244672Y0177264D01*
X0244815Y0177191D01*
X0244957Y0177115D01*
X0245096Y0177035D01*
X0245234Y0176952D01*
X0245369Y0176865D01*
X0245503Y0176775D01*
X0245634Y0176682D01*
X0245762Y0176586D01*
X0245888Y0176486D01*
X0246012Y0176383D01*
X0246133Y0176278D01*
X0246252Y0176169D01*
X0246368Y0176058D01*
X0246481Y0175943D01*
X0246591Y0175826D01*
X0246698Y0175706D01*
X0246802Y0175584D01*
X0246903Y0175459D01*
X0247001Y0175331D01*
X0247096Y0175201D01*
X0247188Y0175069D01*
X0247276Y0174935D01*
X0247361Y0174798D01*
X0247443Y0174660D01*
X0247521Y0174519D01*
X0247595Y0174377D01*
X0247666Y0174233D01*
X0247734Y0174087D01*
X0247797Y0173939D01*
X0247858Y0173790D01*
X0247914Y0173639D01*
X0247967Y0173487D01*
X0248016Y0173334D01*
X0248061Y0173180D01*
X0248102Y0173025D01*
X0248140Y0172868D01*
X0248173Y0172711D01*
X0248203Y0172553D01*
X0248229Y0172394D01*
X0248250Y0172235D01*
X0248268Y0172075D01*
X0248282Y0171915D01*
X0248292Y0171754D01*
X0248298Y0171594D01*
X0248300Y0171433D01*
X0248298Y0171272D01*
X0248292Y0171112D01*
X0248282Y0170951D01*
X0248268Y0170791D01*
X0248250Y0170631D01*
X0248229Y0170472D01*
X0248203Y0170313D01*
X0248173Y0170155D01*
X0248140Y0169998D01*
X0248102Y0169841D01*
X0248061Y0169686D01*
X0248016Y0169532D01*
X0247967Y0169379D01*
X0247914Y0169227D01*
X0247858Y0169076D01*
X0247797Y0168927D01*
X0247734Y0168779D01*
X0247666Y0168633D01*
X0247595Y0168489D01*
X0247521Y0168347D01*
X0247443Y0168206D01*
X0247361Y0168068D01*
X0247276Y0167931D01*
X0247188Y0167797D01*
X0247096Y0167665D01*
X0247001Y0167535D01*
X0246903Y0167407D01*
X0246802Y0167282D01*
X0246698Y0167160D01*
X0246591Y0167040D01*
X0246481Y0166923D01*
X0246368Y0166808D01*
X0246252Y0166697D01*
X0246133Y0166588D01*
X0246012Y0166483D01*
X0245888Y0166380D01*
X0245762Y0166280D01*
X0245634Y0166184D01*
X0245503Y0166091D01*
X0245369Y0166001D01*
X0245234Y0165914D01*
X0245096Y0165831D01*
X0244957Y0165751D01*
X0244815Y0165675D01*
X0244672Y0165602D01*
X0244527Y0165533D01*
X0244380Y0165467D01*
X0244232Y0165405D01*
X0244082Y0165347D01*
X0243931Y0165292D01*
X0243778Y0165241D01*
X0243624Y0165194D01*
X0243469Y0165151D01*
X0243313Y0165112D01*
X0243157Y0165076D01*
X0242999Y0165045D01*
X0242841Y0165017D01*
X0242682Y0164993D01*
X0242522Y0164973D01*
X0242362Y0164957D01*
X0242202Y0164945D01*
X0242041Y0164937D01*
X0241880Y0164933D01*
X0241720Y0164933D01*
X0241559Y0164937D01*
X0241398Y0164945D01*
X0241238Y0164957D01*
X0241078Y0164973D01*
X0240918Y0164993D01*
X0240759Y0165017D01*
X0240601Y0165045D01*
X0240443Y0165076D01*
X0240287Y0165112D01*
X0240131Y0165151D01*
X0239976Y0165194D01*
X0239822Y0165241D01*
X0239669Y0165292D01*
X0239518Y0165347D01*
X0239368Y0165405D01*
X0239220Y0165467D01*
X0239073Y0165533D01*
X0238928Y0165602D01*
X0238785Y0165675D01*
X0238643Y0165751D01*
X0238504Y0165831D01*
X0238366Y0165914D01*
X0238231Y0166001D01*
X0238097Y0166091D01*
X0237966Y0166184D01*
X0237838Y0166280D01*
X0237712Y0166380D01*
X0237588Y0166483D01*
X0237467Y0166588D01*
X0237348Y0166697D01*
X0237232Y0166808D01*
X0237119Y0166923D01*
X0237009Y0167040D01*
X0236902Y0167160D01*
X0236798Y0167282D01*
X0236697Y0167407D01*
X0236599Y0167535D01*
X0236504Y0167665D01*
X0236412Y0167797D01*
X0236324Y0167931D01*
X0236239Y0168068D01*
X0236157Y0168206D01*
X0236079Y0168347D01*
X0236005Y0168489D01*
X0235934Y0168633D01*
X0235866Y0168779D01*
X0235803Y0168927D01*
X0235742Y0169076D01*
X0235686Y0169227D01*
X0235633Y0169379D01*
X0235584Y0169532D01*
X0235539Y0169686D01*
X0235498Y0169841D01*
X0235460Y0169998D01*
X0235427Y0170155D01*
X0235397Y0170313D01*
X0235371Y0170472D01*
X0235350Y0170631D01*
X0235332Y0170791D01*
X0235318Y0170951D01*
X0235308Y0171112D01*
X0235302Y0171272D01*
X0235300Y0171433D01*
X0307800Y0238933D02*
X0307802Y0239094D01*
X0307808Y0239254D01*
X0307818Y0239415D01*
X0307832Y0239575D01*
X0307850Y0239735D01*
X0307871Y0239894D01*
X0307897Y0240053D01*
X0307927Y0240211D01*
X0307960Y0240368D01*
X0307998Y0240525D01*
X0308039Y0240680D01*
X0308084Y0240834D01*
X0308133Y0240987D01*
X0308186Y0241139D01*
X0308242Y0241290D01*
X0308303Y0241439D01*
X0308366Y0241587D01*
X0308434Y0241733D01*
X0308505Y0241877D01*
X0308579Y0242019D01*
X0308657Y0242160D01*
X0308739Y0242298D01*
X0308824Y0242435D01*
X0308912Y0242569D01*
X0309004Y0242701D01*
X0309099Y0242831D01*
X0309197Y0242959D01*
X0309298Y0243084D01*
X0309402Y0243206D01*
X0309509Y0243326D01*
X0309619Y0243443D01*
X0309732Y0243558D01*
X0309848Y0243669D01*
X0309967Y0243778D01*
X0310088Y0243883D01*
X0310212Y0243986D01*
X0310338Y0244086D01*
X0310466Y0244182D01*
X0310597Y0244275D01*
X0310731Y0244365D01*
X0310866Y0244452D01*
X0311004Y0244535D01*
X0311143Y0244615D01*
X0311285Y0244691D01*
X0311428Y0244764D01*
X0311573Y0244833D01*
X0311720Y0244899D01*
X0311868Y0244961D01*
X0312018Y0245019D01*
X0312169Y0245074D01*
X0312322Y0245125D01*
X0312476Y0245172D01*
X0312631Y0245215D01*
X0312787Y0245254D01*
X0312943Y0245290D01*
X0313101Y0245321D01*
X0313259Y0245349D01*
X0313418Y0245373D01*
X0313578Y0245393D01*
X0313738Y0245409D01*
X0313898Y0245421D01*
X0314059Y0245429D01*
X0314220Y0245433D01*
X0314380Y0245433D01*
X0314541Y0245429D01*
X0314702Y0245421D01*
X0314862Y0245409D01*
X0315022Y0245393D01*
X0315182Y0245373D01*
X0315341Y0245349D01*
X0315499Y0245321D01*
X0315657Y0245290D01*
X0315813Y0245254D01*
X0315969Y0245215D01*
X0316124Y0245172D01*
X0316278Y0245125D01*
X0316431Y0245074D01*
X0316582Y0245019D01*
X0316732Y0244961D01*
X0316880Y0244899D01*
X0317027Y0244833D01*
X0317172Y0244764D01*
X0317315Y0244691D01*
X0317457Y0244615D01*
X0317596Y0244535D01*
X0317734Y0244452D01*
X0317869Y0244365D01*
X0318003Y0244275D01*
X0318134Y0244182D01*
X0318262Y0244086D01*
X0318388Y0243986D01*
X0318512Y0243883D01*
X0318633Y0243778D01*
X0318752Y0243669D01*
X0318868Y0243558D01*
X0318981Y0243443D01*
X0319091Y0243326D01*
X0319198Y0243206D01*
X0319302Y0243084D01*
X0319403Y0242959D01*
X0319501Y0242831D01*
X0319596Y0242701D01*
X0319688Y0242569D01*
X0319776Y0242435D01*
X0319861Y0242298D01*
X0319943Y0242160D01*
X0320021Y0242019D01*
X0320095Y0241877D01*
X0320166Y0241733D01*
X0320234Y0241587D01*
X0320297Y0241439D01*
X0320358Y0241290D01*
X0320414Y0241139D01*
X0320467Y0240987D01*
X0320516Y0240834D01*
X0320561Y0240680D01*
X0320602Y0240525D01*
X0320640Y0240368D01*
X0320673Y0240211D01*
X0320703Y0240053D01*
X0320729Y0239894D01*
X0320750Y0239735D01*
X0320768Y0239575D01*
X0320782Y0239415D01*
X0320792Y0239254D01*
X0320798Y0239094D01*
X0320800Y0238933D01*
X0320798Y0238772D01*
X0320792Y0238612D01*
X0320782Y0238451D01*
X0320768Y0238291D01*
X0320750Y0238131D01*
X0320729Y0237972D01*
X0320703Y0237813D01*
X0320673Y0237655D01*
X0320640Y0237498D01*
X0320602Y0237341D01*
X0320561Y0237186D01*
X0320516Y0237032D01*
X0320467Y0236879D01*
X0320414Y0236727D01*
X0320358Y0236576D01*
X0320297Y0236427D01*
X0320234Y0236279D01*
X0320166Y0236133D01*
X0320095Y0235989D01*
X0320021Y0235847D01*
X0319943Y0235706D01*
X0319861Y0235568D01*
X0319776Y0235431D01*
X0319688Y0235297D01*
X0319596Y0235165D01*
X0319501Y0235035D01*
X0319403Y0234907D01*
X0319302Y0234782D01*
X0319198Y0234660D01*
X0319091Y0234540D01*
X0318981Y0234423D01*
X0318868Y0234308D01*
X0318752Y0234197D01*
X0318633Y0234088D01*
X0318512Y0233983D01*
X0318388Y0233880D01*
X0318262Y0233780D01*
X0318134Y0233684D01*
X0318003Y0233591D01*
X0317869Y0233501D01*
X0317734Y0233414D01*
X0317596Y0233331D01*
X0317457Y0233251D01*
X0317315Y0233175D01*
X0317172Y0233102D01*
X0317027Y0233033D01*
X0316880Y0232967D01*
X0316732Y0232905D01*
X0316582Y0232847D01*
X0316431Y0232792D01*
X0316278Y0232741D01*
X0316124Y0232694D01*
X0315969Y0232651D01*
X0315813Y0232612D01*
X0315657Y0232576D01*
X0315499Y0232545D01*
X0315341Y0232517D01*
X0315182Y0232493D01*
X0315022Y0232473D01*
X0314862Y0232457D01*
X0314702Y0232445D01*
X0314541Y0232437D01*
X0314380Y0232433D01*
X0314220Y0232433D01*
X0314059Y0232437D01*
X0313898Y0232445D01*
X0313738Y0232457D01*
X0313578Y0232473D01*
X0313418Y0232493D01*
X0313259Y0232517D01*
X0313101Y0232545D01*
X0312943Y0232576D01*
X0312787Y0232612D01*
X0312631Y0232651D01*
X0312476Y0232694D01*
X0312322Y0232741D01*
X0312169Y0232792D01*
X0312018Y0232847D01*
X0311868Y0232905D01*
X0311720Y0232967D01*
X0311573Y0233033D01*
X0311428Y0233102D01*
X0311285Y0233175D01*
X0311143Y0233251D01*
X0311004Y0233331D01*
X0310866Y0233414D01*
X0310731Y0233501D01*
X0310597Y0233591D01*
X0310466Y0233684D01*
X0310338Y0233780D01*
X0310212Y0233880D01*
X0310088Y0233983D01*
X0309967Y0234088D01*
X0309848Y0234197D01*
X0309732Y0234308D01*
X0309619Y0234423D01*
X0309509Y0234540D01*
X0309402Y0234660D01*
X0309298Y0234782D01*
X0309197Y0234907D01*
X0309099Y0235035D01*
X0309004Y0235165D01*
X0308912Y0235297D01*
X0308824Y0235431D01*
X0308739Y0235568D01*
X0308657Y0235706D01*
X0308579Y0235847D01*
X0308505Y0235989D01*
X0308434Y0236133D01*
X0308366Y0236279D01*
X0308303Y0236427D01*
X0308242Y0236576D01*
X0308186Y0236727D01*
X0308133Y0236879D01*
X0308084Y0237032D01*
X0308039Y0237186D01*
X0307998Y0237341D01*
X0307960Y0237498D01*
X0307927Y0237655D01*
X0307897Y0237813D01*
X0307871Y0237972D01*
X0307850Y0238131D01*
X0307832Y0238291D01*
X0307818Y0238451D01*
X0307808Y0238612D01*
X0307802Y0238772D01*
X0307800Y0238933D01*
X0307800Y0081433D02*
X0307802Y0081594D01*
X0307808Y0081754D01*
X0307818Y0081915D01*
X0307832Y0082075D01*
X0307850Y0082235D01*
X0307871Y0082394D01*
X0307897Y0082553D01*
X0307927Y0082711D01*
X0307960Y0082868D01*
X0307998Y0083025D01*
X0308039Y0083180D01*
X0308084Y0083334D01*
X0308133Y0083487D01*
X0308186Y0083639D01*
X0308242Y0083790D01*
X0308303Y0083939D01*
X0308366Y0084087D01*
X0308434Y0084233D01*
X0308505Y0084377D01*
X0308579Y0084519D01*
X0308657Y0084660D01*
X0308739Y0084798D01*
X0308824Y0084935D01*
X0308912Y0085069D01*
X0309004Y0085201D01*
X0309099Y0085331D01*
X0309197Y0085459D01*
X0309298Y0085584D01*
X0309402Y0085706D01*
X0309509Y0085826D01*
X0309619Y0085943D01*
X0309732Y0086058D01*
X0309848Y0086169D01*
X0309967Y0086278D01*
X0310088Y0086383D01*
X0310212Y0086486D01*
X0310338Y0086586D01*
X0310466Y0086682D01*
X0310597Y0086775D01*
X0310731Y0086865D01*
X0310866Y0086952D01*
X0311004Y0087035D01*
X0311143Y0087115D01*
X0311285Y0087191D01*
X0311428Y0087264D01*
X0311573Y0087333D01*
X0311720Y0087399D01*
X0311868Y0087461D01*
X0312018Y0087519D01*
X0312169Y0087574D01*
X0312322Y0087625D01*
X0312476Y0087672D01*
X0312631Y0087715D01*
X0312787Y0087754D01*
X0312943Y0087790D01*
X0313101Y0087821D01*
X0313259Y0087849D01*
X0313418Y0087873D01*
X0313578Y0087893D01*
X0313738Y0087909D01*
X0313898Y0087921D01*
X0314059Y0087929D01*
X0314220Y0087933D01*
X0314380Y0087933D01*
X0314541Y0087929D01*
X0314702Y0087921D01*
X0314862Y0087909D01*
X0315022Y0087893D01*
X0315182Y0087873D01*
X0315341Y0087849D01*
X0315499Y0087821D01*
X0315657Y0087790D01*
X0315813Y0087754D01*
X0315969Y0087715D01*
X0316124Y0087672D01*
X0316278Y0087625D01*
X0316431Y0087574D01*
X0316582Y0087519D01*
X0316732Y0087461D01*
X0316880Y0087399D01*
X0317027Y0087333D01*
X0317172Y0087264D01*
X0317315Y0087191D01*
X0317457Y0087115D01*
X0317596Y0087035D01*
X0317734Y0086952D01*
X0317869Y0086865D01*
X0318003Y0086775D01*
X0318134Y0086682D01*
X0318262Y0086586D01*
X0318388Y0086486D01*
X0318512Y0086383D01*
X0318633Y0086278D01*
X0318752Y0086169D01*
X0318868Y0086058D01*
X0318981Y0085943D01*
X0319091Y0085826D01*
X0319198Y0085706D01*
X0319302Y0085584D01*
X0319403Y0085459D01*
X0319501Y0085331D01*
X0319596Y0085201D01*
X0319688Y0085069D01*
X0319776Y0084935D01*
X0319861Y0084798D01*
X0319943Y0084660D01*
X0320021Y0084519D01*
X0320095Y0084377D01*
X0320166Y0084233D01*
X0320234Y0084087D01*
X0320297Y0083939D01*
X0320358Y0083790D01*
X0320414Y0083639D01*
X0320467Y0083487D01*
X0320516Y0083334D01*
X0320561Y0083180D01*
X0320602Y0083025D01*
X0320640Y0082868D01*
X0320673Y0082711D01*
X0320703Y0082553D01*
X0320729Y0082394D01*
X0320750Y0082235D01*
X0320768Y0082075D01*
X0320782Y0081915D01*
X0320792Y0081754D01*
X0320798Y0081594D01*
X0320800Y0081433D01*
X0320798Y0081272D01*
X0320792Y0081112D01*
X0320782Y0080951D01*
X0320768Y0080791D01*
X0320750Y0080631D01*
X0320729Y0080472D01*
X0320703Y0080313D01*
X0320673Y0080155D01*
X0320640Y0079998D01*
X0320602Y0079841D01*
X0320561Y0079686D01*
X0320516Y0079532D01*
X0320467Y0079379D01*
X0320414Y0079227D01*
X0320358Y0079076D01*
X0320297Y0078927D01*
X0320234Y0078779D01*
X0320166Y0078633D01*
X0320095Y0078489D01*
X0320021Y0078347D01*
X0319943Y0078206D01*
X0319861Y0078068D01*
X0319776Y0077931D01*
X0319688Y0077797D01*
X0319596Y0077665D01*
X0319501Y0077535D01*
X0319403Y0077407D01*
X0319302Y0077282D01*
X0319198Y0077160D01*
X0319091Y0077040D01*
X0318981Y0076923D01*
X0318868Y0076808D01*
X0318752Y0076697D01*
X0318633Y0076588D01*
X0318512Y0076483D01*
X0318388Y0076380D01*
X0318262Y0076280D01*
X0318134Y0076184D01*
X0318003Y0076091D01*
X0317869Y0076001D01*
X0317734Y0075914D01*
X0317596Y0075831D01*
X0317457Y0075751D01*
X0317315Y0075675D01*
X0317172Y0075602D01*
X0317027Y0075533D01*
X0316880Y0075467D01*
X0316732Y0075405D01*
X0316582Y0075347D01*
X0316431Y0075292D01*
X0316278Y0075241D01*
X0316124Y0075194D01*
X0315969Y0075151D01*
X0315813Y0075112D01*
X0315657Y0075076D01*
X0315499Y0075045D01*
X0315341Y0075017D01*
X0315182Y0074993D01*
X0315022Y0074973D01*
X0314862Y0074957D01*
X0314702Y0074945D01*
X0314541Y0074937D01*
X0314380Y0074933D01*
X0314220Y0074933D01*
X0314059Y0074937D01*
X0313898Y0074945D01*
X0313738Y0074957D01*
X0313578Y0074973D01*
X0313418Y0074993D01*
X0313259Y0075017D01*
X0313101Y0075045D01*
X0312943Y0075076D01*
X0312787Y0075112D01*
X0312631Y0075151D01*
X0312476Y0075194D01*
X0312322Y0075241D01*
X0312169Y0075292D01*
X0312018Y0075347D01*
X0311868Y0075405D01*
X0311720Y0075467D01*
X0311573Y0075533D01*
X0311428Y0075602D01*
X0311285Y0075675D01*
X0311143Y0075751D01*
X0311004Y0075831D01*
X0310866Y0075914D01*
X0310731Y0076001D01*
X0310597Y0076091D01*
X0310466Y0076184D01*
X0310338Y0076280D01*
X0310212Y0076380D01*
X0310088Y0076483D01*
X0309967Y0076588D01*
X0309848Y0076697D01*
X0309732Y0076808D01*
X0309619Y0076923D01*
X0309509Y0077040D01*
X0309402Y0077160D01*
X0309298Y0077282D01*
X0309197Y0077407D01*
X0309099Y0077535D01*
X0309004Y0077665D01*
X0308912Y0077797D01*
X0308824Y0077931D01*
X0308739Y0078068D01*
X0308657Y0078206D01*
X0308579Y0078347D01*
X0308505Y0078489D01*
X0308434Y0078633D01*
X0308366Y0078779D01*
X0308303Y0078927D01*
X0308242Y0079076D01*
X0308186Y0079227D01*
X0308133Y0079379D01*
X0308084Y0079532D01*
X0308039Y0079686D01*
X0307998Y0079841D01*
X0307960Y0079998D01*
X0307927Y0080155D01*
X0307897Y0080313D01*
X0307871Y0080472D01*
X0307850Y0080631D01*
X0307832Y0080791D01*
X0307818Y0080951D01*
X0307808Y0081112D01*
X0307802Y0081272D01*
X0307800Y0081433D01*
D11*
X0306800Y0266433D03*
X0296800Y0266433D03*
X0286800Y0266433D03*
X0251800Y0266433D03*
X0241800Y0266433D03*
X0196800Y0266433D03*
X0186800Y0266433D03*
X0121800Y0266433D03*
X0111800Y0266433D03*
X0056800Y0266433D03*
X0046800Y0266433D03*
X0034300Y0113933D03*
X0034300Y0103933D03*
X0034300Y0093933D03*
X0034300Y0083933D03*
X0034300Y0073933D03*
D12*
X0036800Y0246433D03*
X0076800Y0246433D03*
X0101800Y0246433D03*
X0141800Y0246433D03*
D13*
X0176800Y0266433D03*
X0231800Y0266433D03*
X0276800Y0266433D03*
X0101800Y0266433D03*
X0036800Y0266433D03*
D14*
X0074300Y0226886D03*
X0074300Y0220980D03*
X0139300Y0223480D03*
X0139300Y0229386D03*
X0121800Y0064386D03*
X0121800Y0058480D03*
D15*
X0177800Y0208133D02*
X0177800Y0214733D01*
X0186800Y0214733D02*
X0186800Y0208133D01*
X0195800Y0208133D02*
X0195800Y0214733D01*
X0232800Y0214733D02*
X0232800Y0208133D01*
X0241800Y0208133D02*
X0241800Y0214733D01*
X0250800Y0214733D02*
X0250800Y0208133D01*
X0124300Y0223133D02*
X0124300Y0229733D01*
X0114300Y0229733D02*
X0114300Y0223133D01*
X0104300Y0223133D02*
X0104300Y0229733D01*
X0056800Y0229733D02*
X0056800Y0223133D01*
X0046800Y0223133D02*
X0046800Y0229733D01*
X0036800Y0229733D02*
X0036800Y0223133D01*
D16*
X0074300Y0212476D03*
X0074300Y0205390D03*
X0084300Y0226640D03*
X0084300Y0233726D03*
X0139300Y0214976D03*
X0139300Y0207890D03*
X0176800Y0227890D03*
X0176800Y0234976D03*
X0231800Y0234976D03*
X0231800Y0227890D03*
D17*
X0156843Y0218433D03*
X0149757Y0218433D03*
X0137843Y0063933D03*
X0130757Y0063933D03*
D18*
X0154300Y0048933D03*
X0164300Y0048933D03*
X0174300Y0048933D03*
X0184300Y0048933D03*
X0194300Y0048933D03*
X0204300Y0048933D03*
X0214300Y0048933D03*
X0224300Y0048933D03*
X0234300Y0048933D03*
X0244300Y0048933D03*
X0254300Y0048933D03*
X0264300Y0048933D03*
X0274300Y0048933D03*
X0284300Y0048933D03*
X0294300Y0048933D03*
X0304300Y0048933D03*
X0314300Y0048933D03*
X0314300Y0108933D03*
X0304300Y0108933D03*
X0294300Y0108933D03*
X0284300Y0108933D03*
X0274300Y0108933D03*
X0264300Y0108933D03*
X0254300Y0108933D03*
X0244300Y0108933D03*
X0234300Y0108933D03*
X0224300Y0108933D03*
X0214300Y0108933D03*
X0204300Y0108933D03*
X0194300Y0108933D03*
X0184300Y0108933D03*
X0174300Y0108933D03*
X0164300Y0108933D03*
X0154300Y0108933D03*
D19*
X0159300Y0107132D02*
X0159800Y0105926D01*
X0161293Y0104433D01*
X0163244Y0103624D01*
X0165356Y0103624D01*
X0167307Y0104433D01*
X0168800Y0105926D01*
X0169300Y0107132D01*
X0169800Y0105926D01*
X0171293Y0104433D01*
X0173244Y0103624D01*
X0175356Y0103624D01*
X0177307Y0104433D01*
X0178800Y0105926D01*
X0179300Y0107132D01*
X0179800Y0105926D01*
X0181293Y0104433D01*
X0183244Y0103624D01*
X0185356Y0103624D01*
X0187307Y0104433D01*
X0188800Y0105926D01*
X0189300Y0107132D01*
X0189800Y0105926D01*
X0191293Y0104433D01*
X0193244Y0103624D01*
X0195356Y0103624D01*
X0197307Y0104433D01*
X0198800Y0105926D01*
X0199300Y0107132D01*
X0199800Y0105926D01*
X0201293Y0104433D01*
X0203244Y0103624D01*
X0205356Y0103624D01*
X0207307Y0104433D01*
X0208800Y0105926D01*
X0209300Y0107132D01*
X0209800Y0105926D01*
X0211293Y0104433D01*
X0213244Y0103624D01*
X0215356Y0103624D01*
X0217307Y0104433D01*
X0218800Y0105926D01*
X0219300Y0107132D01*
X0219800Y0105926D01*
X0221293Y0104433D01*
X0223244Y0103624D01*
X0225356Y0103624D01*
X0227307Y0104433D01*
X0228800Y0105926D01*
X0229300Y0107132D01*
X0229800Y0105926D01*
X0231293Y0104433D01*
X0233244Y0103624D01*
X0235356Y0103624D01*
X0237307Y0104433D01*
X0238800Y0105926D01*
X0239300Y0107132D01*
X0239800Y0105926D01*
X0241293Y0104433D01*
X0243244Y0103624D01*
X0245356Y0103624D01*
X0247307Y0104433D01*
X0248800Y0105926D01*
X0249300Y0107132D01*
X0249800Y0105926D01*
X0251293Y0104433D01*
X0253244Y0103624D01*
X0255356Y0103624D01*
X0257307Y0104433D01*
X0258800Y0105926D01*
X0259135Y0106734D01*
X0259510Y0105998D01*
X0260029Y0105285D01*
X0260652Y0104662D01*
X0261365Y0104144D01*
X0262150Y0103743D01*
X0262989Y0103471D01*
X0263859Y0103333D01*
X0264017Y0103333D01*
X0264017Y0108650D01*
X0264583Y0108650D01*
X0264583Y0103333D01*
X0264741Y0103333D01*
X0265611Y0103471D01*
X0266450Y0103743D01*
X0267235Y0104144D01*
X0267948Y0104662D01*
X0268571Y0105285D01*
X0269090Y0105998D01*
X0269465Y0106734D01*
X0269800Y0105926D01*
X0271293Y0104433D01*
X0273244Y0103624D01*
X0275356Y0103624D01*
X0277307Y0104433D01*
X0278800Y0105926D01*
X0279300Y0107132D01*
X0279800Y0105926D01*
X0281293Y0104433D01*
X0283244Y0103624D01*
X0285356Y0103624D01*
X0287307Y0104433D01*
X0288800Y0105926D01*
X0289300Y0107132D01*
X0289800Y0105926D01*
X0291293Y0104433D01*
X0293244Y0103624D01*
X0295356Y0103624D01*
X0297307Y0104433D01*
X0298800Y0105926D01*
X0299300Y0107132D01*
X0299800Y0105926D01*
X0301293Y0104433D01*
X0303244Y0103624D01*
X0305356Y0103624D01*
X0307307Y0104433D01*
X0308800Y0105926D01*
X0309300Y0107132D01*
X0309800Y0105926D01*
X0311293Y0104433D01*
X0313244Y0103624D01*
X0315356Y0103624D01*
X0317307Y0104433D01*
X0318800Y0105926D01*
X0319609Y0107877D01*
X0319609Y0109989D01*
X0318800Y0111940D01*
X0317307Y0113434D01*
X0315356Y0114242D01*
X0313244Y0114242D01*
X0311293Y0113434D01*
X0309800Y0111940D01*
X0309300Y0110734D01*
X0308800Y0111940D01*
X0307307Y0113434D01*
X0305356Y0114242D01*
X0303244Y0114242D01*
X0301293Y0113434D01*
X0299800Y0111940D01*
X0299300Y0110734D01*
X0299109Y0111196D01*
X0299109Y0261752D01*
X0299750Y0262017D01*
X0301216Y0263483D01*
X0301642Y0264511D01*
X0301703Y0264322D01*
X0302096Y0263550D01*
X0302605Y0262850D01*
X0303217Y0262238D01*
X0303917Y0261729D01*
X0304689Y0261336D01*
X0305512Y0261069D01*
X0306367Y0260933D01*
X0306600Y0260933D01*
X0306600Y0266233D01*
X0307000Y0266233D01*
X0307000Y0260933D01*
X0307233Y0260933D01*
X0308088Y0261069D01*
X0308911Y0261336D01*
X0309683Y0261729D01*
X0310383Y0262238D01*
X0310995Y0262850D01*
X0311504Y0263550D01*
X0311897Y0264322D01*
X0312165Y0265145D01*
X0312300Y0266000D01*
X0312300Y0266233D01*
X0307000Y0266233D01*
X0307000Y0266633D01*
X0312300Y0266633D01*
X0312300Y0266866D01*
X0312165Y0267721D01*
X0311897Y0268544D01*
X0311504Y0269316D01*
X0310995Y0270016D01*
X0310383Y0270628D01*
X0309683Y0271137D01*
X0308911Y0271530D01*
X0308088Y0271798D01*
X0307233Y0271933D01*
X0307000Y0271933D01*
X0307000Y0266633D01*
X0306600Y0266633D01*
X0306600Y0271933D01*
X0306367Y0271933D01*
X0305512Y0271798D01*
X0304689Y0271530D01*
X0303917Y0271137D01*
X0303217Y0270628D01*
X0302605Y0270016D01*
X0302096Y0269316D01*
X0301703Y0268544D01*
X0301642Y0268355D01*
X0301216Y0269384D01*
X0299750Y0270849D01*
X0297836Y0271642D01*
X0295764Y0271642D01*
X0293850Y0270849D01*
X0292384Y0269384D01*
X0291800Y0267973D01*
X0291216Y0269384D01*
X0289750Y0270849D01*
X0287836Y0271642D01*
X0285764Y0271642D01*
X0283850Y0270849D01*
X0282384Y0269384D01*
X0282009Y0268477D01*
X0282009Y0270758D01*
X0281125Y0271642D01*
X0272475Y0271642D01*
X0271591Y0270758D01*
X0271591Y0262108D01*
X0272475Y0261224D01*
X0281125Y0261224D01*
X0282009Y0262108D01*
X0282009Y0264390D01*
X0282384Y0263483D01*
X0283850Y0262017D01*
X0284491Y0261752D01*
X0284491Y0114242D01*
X0283244Y0114242D01*
X0281293Y0113434D01*
X0279800Y0111940D01*
X0279300Y0110734D01*
X0278800Y0111940D01*
X0277307Y0113434D01*
X0275356Y0114242D01*
X0273244Y0114242D01*
X0271293Y0113434D01*
X0269800Y0111940D01*
X0269465Y0111132D01*
X0269090Y0111868D01*
X0268571Y0112581D01*
X0267948Y0113205D01*
X0267235Y0113723D01*
X0266450Y0114123D01*
X0265611Y0114395D01*
X0264741Y0114533D01*
X0264583Y0114533D01*
X0264583Y0109216D01*
X0264017Y0109216D01*
X0264017Y0114533D01*
X0263859Y0114533D01*
X0262989Y0114395D01*
X0262150Y0114123D01*
X0261365Y0113723D01*
X0260652Y0113205D01*
X0260029Y0112581D01*
X0259510Y0111868D01*
X0259135Y0111132D01*
X0258800Y0111940D01*
X0257307Y0113434D01*
X0255356Y0114242D01*
X0253244Y0114242D01*
X0251293Y0113434D01*
X0249800Y0111940D01*
X0249300Y0110734D01*
X0248800Y0111940D01*
X0247307Y0113434D01*
X0245356Y0114242D01*
X0243244Y0114242D01*
X0241293Y0113434D01*
X0239800Y0111940D01*
X0239300Y0110734D01*
X0238800Y0111940D01*
X0237307Y0113434D01*
X0235356Y0114242D01*
X0233244Y0114242D01*
X0231293Y0113434D01*
X0229800Y0111940D01*
X0229300Y0110734D01*
X0228800Y0111940D01*
X0227307Y0113434D01*
X0226609Y0113723D01*
X0226609Y0262091D01*
X0227475Y0261224D01*
X0236125Y0261224D01*
X0237009Y0262108D01*
X0237009Y0264390D01*
X0237384Y0263483D01*
X0238291Y0262576D01*
X0238291Y0233235D01*
X0238826Y0231946D01*
X0247291Y0223480D01*
X0247291Y0218025D01*
X0246723Y0217457D01*
X0246300Y0216435D01*
X0245877Y0217457D01*
X0244524Y0218810D01*
X0242756Y0219542D01*
X0240843Y0219542D01*
X0239076Y0218810D01*
X0237723Y0217457D01*
X0237300Y0216435D01*
X0236877Y0217457D01*
X0235524Y0218810D01*
X0234109Y0219396D01*
X0234109Y0224806D01*
X0234787Y0224806D01*
X0235671Y0225690D01*
X0235671Y0230089D01*
X0234787Y0230973D01*
X0228813Y0230973D01*
X0227929Y0230089D01*
X0227929Y0225690D01*
X0228813Y0224806D01*
X0229491Y0224806D01*
X0229491Y0218225D01*
X0228723Y0217457D01*
X0227991Y0215690D01*
X0227991Y0207177D01*
X0228723Y0205409D01*
X0230076Y0204056D01*
X0231843Y0203324D01*
X0233756Y0203324D01*
X0235524Y0204056D01*
X0236877Y0205409D01*
X0237300Y0206431D01*
X0237723Y0205409D01*
X0239076Y0204056D01*
X0240843Y0203324D01*
X0242756Y0203324D01*
X0244524Y0204056D01*
X0245877Y0205409D01*
X0246300Y0206431D01*
X0246723Y0205409D01*
X0248076Y0204056D01*
X0249843Y0203324D01*
X0251756Y0203324D01*
X0253524Y0204056D01*
X0254877Y0205409D01*
X0255609Y0207177D01*
X0255609Y0215690D01*
X0254877Y0217457D01*
X0254309Y0218025D01*
X0254309Y0225631D01*
X0253774Y0226921D01*
X0252787Y0227908D01*
X0245309Y0235386D01*
X0245309Y0262576D01*
X0246216Y0263483D01*
X0246642Y0264511D01*
X0246703Y0264322D01*
X0247096Y0263550D01*
X0247605Y0262850D01*
X0248217Y0262238D01*
X0248917Y0261729D01*
X0249689Y0261336D01*
X0250512Y0261069D01*
X0251367Y0260933D01*
X0251600Y0260933D01*
X0251600Y0266233D01*
X0252000Y0266233D01*
X0252000Y0260933D01*
X0252233Y0260933D01*
X0253088Y0261069D01*
X0253911Y0261336D01*
X0254683Y0261729D01*
X0255383Y0262238D01*
X0255995Y0262850D01*
X0256504Y0263550D01*
X0256897Y0264322D01*
X0257165Y0265145D01*
X0257300Y0266000D01*
X0257300Y0266233D01*
X0252000Y0266233D01*
X0252000Y0266633D01*
X0257300Y0266633D01*
X0257300Y0266866D01*
X0257165Y0267721D01*
X0256897Y0268544D01*
X0256504Y0269316D01*
X0255995Y0270016D01*
X0255383Y0270628D01*
X0254683Y0271137D01*
X0253911Y0271530D01*
X0253088Y0271798D01*
X0252233Y0271933D01*
X0252000Y0271933D01*
X0252000Y0266633D01*
X0251600Y0266633D01*
X0251600Y0271933D01*
X0251367Y0271933D01*
X0250512Y0271798D01*
X0249689Y0271530D01*
X0248917Y0271137D01*
X0248217Y0270628D01*
X0247605Y0270016D01*
X0247096Y0269316D01*
X0246703Y0268544D01*
X0246642Y0268355D01*
X0246216Y0269384D01*
X0244750Y0270849D01*
X0242836Y0271642D01*
X0240764Y0271642D01*
X0238850Y0270849D01*
X0237384Y0269384D01*
X0237009Y0268477D01*
X0237009Y0270758D01*
X0236125Y0271642D01*
X0227475Y0271642D01*
X0226591Y0270758D01*
X0226591Y0268742D01*
X0225844Y0268742D01*
X0224491Y0267389D01*
X0221991Y0264889D01*
X0221991Y0113723D01*
X0221293Y0113434D01*
X0219800Y0111940D01*
X0219300Y0110734D01*
X0218800Y0111940D01*
X0217307Y0113434D01*
X0216609Y0113723D01*
X0216609Y0269889D01*
X0209109Y0277389D01*
X0207756Y0278742D01*
X0178344Y0278742D01*
X0175844Y0276242D01*
X0174491Y0274889D01*
X0174491Y0271642D01*
X0172475Y0271642D01*
X0171591Y0270758D01*
X0171591Y0262108D01*
X0172475Y0261224D01*
X0181125Y0261224D01*
X0182009Y0262108D01*
X0182009Y0264390D01*
X0182384Y0263483D01*
X0183291Y0262576D01*
X0183291Y0233235D01*
X0183826Y0231946D01*
X0192291Y0223480D01*
X0192291Y0218025D01*
X0191723Y0217457D01*
X0191300Y0216435D01*
X0190877Y0217457D01*
X0189524Y0218810D01*
X0187756Y0219542D01*
X0185843Y0219542D01*
X0184076Y0218810D01*
X0182723Y0217457D01*
X0182300Y0216435D01*
X0181877Y0217457D01*
X0180524Y0218810D01*
X0179109Y0219396D01*
X0179109Y0224806D01*
X0179787Y0224806D01*
X0180671Y0225690D01*
X0180671Y0230089D01*
X0179787Y0230973D01*
X0173813Y0230973D01*
X0172929Y0230089D01*
X0172929Y0225690D01*
X0173813Y0224806D01*
X0174491Y0224806D01*
X0174491Y0218225D01*
X0173723Y0217457D01*
X0172991Y0215690D01*
X0172991Y0213742D01*
X0165844Y0213742D01*
X0161991Y0209889D01*
X0161991Y0155477D01*
X0163344Y0154124D01*
X0170844Y0146624D01*
X0180844Y0146624D01*
X0191991Y0135477D01*
X0191991Y0113723D01*
X0191293Y0113434D01*
X0189800Y0111940D01*
X0189300Y0110734D01*
X0188800Y0111940D01*
X0187307Y0113434D01*
X0186609Y0113723D01*
X0186609Y0132389D01*
X0174109Y0144889D01*
X0172756Y0146242D01*
X0160256Y0146242D01*
X0152108Y0154390D01*
X0152068Y0214674D01*
X0152840Y0215446D01*
X0152840Y0221420D01*
X0152065Y0222195D01*
X0152065Y0226933D01*
X0150713Y0228285D01*
X0147304Y0231694D01*
X0142274Y0231694D01*
X0141500Y0232469D01*
X0137100Y0232469D01*
X0136325Y0231694D01*
X0128692Y0231694D01*
X0128377Y0232457D01*
X0127024Y0233810D01*
X0125256Y0234542D01*
X0123343Y0234542D01*
X0121576Y0233810D01*
X0120223Y0232457D01*
X0119491Y0230690D01*
X0119491Y0222177D01*
X0120223Y0220409D01*
X0121576Y0219056D01*
X0123343Y0218324D01*
X0125256Y0218324D01*
X0127024Y0219056D01*
X0128377Y0220409D01*
X0129109Y0222177D01*
X0129109Y0227077D01*
X0136325Y0227077D01*
X0136970Y0226433D01*
X0136217Y0225680D01*
X0136217Y0221281D01*
X0136991Y0220506D01*
X0136991Y0218060D01*
X0136313Y0218060D01*
X0135429Y0217176D01*
X0135429Y0212777D01*
X0136313Y0211893D01*
X0142287Y0211893D01*
X0143171Y0212777D01*
X0143171Y0217176D01*
X0142287Y0218060D01*
X0141609Y0218060D01*
X0141609Y0220506D01*
X0142383Y0221281D01*
X0142383Y0225680D01*
X0141630Y0226433D01*
X0142274Y0227077D01*
X0145391Y0227077D01*
X0147448Y0225020D01*
X0147448Y0222195D01*
X0146673Y0221420D01*
X0146673Y0215446D01*
X0147451Y0214669D01*
X0147491Y0153436D01*
X0147491Y0152477D01*
X0147492Y0152476D01*
X0147492Y0152475D01*
X0148168Y0151800D01*
X0158344Y0141624D01*
X0170844Y0141624D01*
X0181991Y0130477D01*
X0181991Y0113723D01*
X0181293Y0113434D01*
X0179800Y0111940D01*
X0179300Y0110734D01*
X0178800Y0111940D01*
X0177307Y0113434D01*
X0176609Y0113723D01*
X0176609Y0129889D01*
X0175256Y0131242D01*
X0170256Y0136242D01*
X0087756Y0136242D01*
X0086609Y0137389D01*
X0086609Y0223556D01*
X0087287Y0223556D01*
X0088171Y0224440D01*
X0088171Y0228839D01*
X0087287Y0229723D01*
X0081313Y0229723D01*
X0080784Y0229194D01*
X0077274Y0229194D01*
X0076500Y0229969D01*
X0072100Y0229969D01*
X0071325Y0229194D01*
X0061609Y0229194D01*
X0061609Y0230690D01*
X0060877Y0232457D01*
X0059524Y0233810D01*
X0057756Y0234542D01*
X0055843Y0234542D01*
X0054076Y0233810D01*
X0052723Y0232457D01*
X0051991Y0230690D01*
X0051991Y0222177D01*
X0052723Y0220409D01*
X0054076Y0219056D01*
X0055843Y0218324D01*
X0057756Y0218324D01*
X0059524Y0219056D01*
X0060877Y0220409D01*
X0061609Y0222177D01*
X0061609Y0224577D01*
X0071325Y0224577D01*
X0071970Y0223933D01*
X0071217Y0223180D01*
X0071217Y0218781D01*
X0071991Y0218006D01*
X0071991Y0215560D01*
X0071313Y0215560D01*
X0070429Y0214676D01*
X0070429Y0210277D01*
X0071313Y0209393D01*
X0077287Y0209393D01*
X0078171Y0210277D01*
X0078171Y0214676D01*
X0077287Y0215560D01*
X0076609Y0215560D01*
X0076609Y0218006D01*
X0077383Y0218781D01*
X0077383Y0223180D01*
X0076630Y0223933D01*
X0077274Y0224577D01*
X0080429Y0224577D01*
X0080429Y0224440D01*
X0081313Y0223556D01*
X0081991Y0223556D01*
X0081991Y0135477D01*
X0084491Y0132977D01*
X0085844Y0131624D01*
X0168344Y0131624D01*
X0171991Y0127977D01*
X0171991Y0113723D01*
X0171293Y0113434D01*
X0169800Y0111940D01*
X0169300Y0110734D01*
X0168800Y0111940D01*
X0167307Y0113434D01*
X0165356Y0114242D01*
X0163244Y0114242D01*
X0161293Y0113434D01*
X0159800Y0111940D01*
X0159300Y0110734D01*
X0158800Y0111940D01*
X0157307Y0113434D01*
X0155356Y0114242D01*
X0153244Y0114242D01*
X0151293Y0113434D01*
X0149800Y0111940D01*
X0148991Y0109989D01*
X0148991Y0107877D01*
X0149800Y0105926D01*
X0151293Y0104433D01*
X0153244Y0103624D01*
X0155356Y0103624D01*
X0157307Y0104433D01*
X0158800Y0105926D01*
X0159300Y0107132D01*
X0158583Y0105708D02*
X0160017Y0105708D01*
X0162073Y0104110D02*
X0156527Y0104110D01*
X0152073Y0104110D02*
X0039509Y0104110D01*
X0039509Y0104969D02*
X0038716Y0106884D01*
X0037250Y0108349D01*
X0035840Y0108933D01*
X0037250Y0109517D01*
X0038716Y0110983D01*
X0039509Y0112897D01*
X0039509Y0114969D01*
X0038716Y0116884D01*
X0037250Y0118349D01*
X0035336Y0119142D01*
X0033264Y0119142D01*
X0031350Y0118349D01*
X0029884Y0116884D01*
X0029091Y0114969D01*
X0029091Y0112897D01*
X0029884Y0110983D01*
X0031350Y0109517D01*
X0032760Y0108933D01*
X0031350Y0108349D01*
X0029884Y0106884D01*
X0029091Y0104969D01*
X0029091Y0102897D01*
X0029884Y0100983D01*
X0031350Y0099517D01*
X0032760Y0098933D01*
X0031350Y0098349D01*
X0029884Y0096884D01*
X0029091Y0094969D01*
X0029091Y0092897D01*
X0029884Y0090983D01*
X0031350Y0089517D01*
X0032378Y0089091D01*
X0032189Y0089030D01*
X0031417Y0088637D01*
X0030717Y0088128D01*
X0030105Y0087516D01*
X0029596Y0086816D01*
X0029203Y0086044D01*
X0028935Y0085221D01*
X0028800Y0084366D01*
X0028800Y0084133D01*
X0034100Y0084133D01*
X0034100Y0083733D01*
X0028800Y0083733D01*
X0028800Y0083500D01*
X0028935Y0082645D01*
X0029203Y0081822D01*
X0029596Y0081050D01*
X0030105Y0080350D01*
X0030717Y0079738D01*
X0031417Y0079229D01*
X0032189Y0078836D01*
X0032378Y0078775D01*
X0031350Y0078349D01*
X0029884Y0076884D01*
X0029091Y0074969D01*
X0029091Y0072897D01*
X0029884Y0070983D01*
X0031350Y0069517D01*
X0033264Y0068724D01*
X0035336Y0068724D01*
X0037250Y0069517D01*
X0038716Y0070983D01*
X0039509Y0072897D01*
X0039509Y0074969D01*
X0038716Y0076884D01*
X0037250Y0078349D01*
X0036222Y0078775D01*
X0036411Y0078836D01*
X0037183Y0079229D01*
X0037883Y0079738D01*
X0038495Y0080350D01*
X0039004Y0081050D01*
X0039397Y0081822D01*
X0039665Y0082645D01*
X0039800Y0083500D01*
X0039800Y0083733D01*
X0034500Y0083733D01*
X0034500Y0084133D01*
X0039800Y0084133D01*
X0039800Y0084366D01*
X0039665Y0085221D01*
X0039397Y0086044D01*
X0039004Y0086816D01*
X0038495Y0087516D01*
X0037883Y0088128D01*
X0037183Y0088637D01*
X0036411Y0089030D01*
X0036222Y0089091D01*
X0037250Y0089517D01*
X0038716Y0090983D01*
X0039509Y0092897D01*
X0039509Y0094969D01*
X0038716Y0096884D01*
X0037250Y0098349D01*
X0035840Y0098933D01*
X0037250Y0099517D01*
X0038716Y0100983D01*
X0039509Y0102897D01*
X0039509Y0104969D01*
X0039203Y0105708D02*
X0150017Y0105708D01*
X0149228Y0107307D02*
X0038293Y0107307D01*
X0035907Y0108905D02*
X0148991Y0108905D01*
X0149204Y0110504D02*
X0038237Y0110504D01*
X0039179Y0112102D02*
X0149961Y0112102D01*
X0151938Y0113701D02*
X0039509Y0113701D01*
X0039372Y0115299D02*
X0171991Y0115299D01*
X0171991Y0116898D02*
X0038702Y0116898D01*
X0036895Y0118496D02*
X0171991Y0118496D01*
X0171991Y0120095D02*
X0013584Y0120095D01*
X0013584Y0121693D02*
X0171991Y0121693D01*
X0171991Y0123292D02*
X0013584Y0123292D01*
X0013584Y0124890D02*
X0171991Y0124890D01*
X0171991Y0126489D02*
X0013584Y0126489D01*
X0013584Y0128087D02*
X0171881Y0128087D01*
X0170282Y0129686D02*
X0013584Y0129686D01*
X0013584Y0131284D02*
X0168684Y0131284D01*
X0169300Y0133933D02*
X0174300Y0128933D01*
X0174300Y0108933D01*
X0171938Y0113701D02*
X0166662Y0113701D01*
X0168639Y0112102D02*
X0169961Y0112102D01*
X0170017Y0105708D02*
X0168583Y0105708D01*
X0166527Y0104110D02*
X0172073Y0104110D01*
X0176527Y0104110D02*
X0182073Y0104110D01*
X0180017Y0105708D02*
X0178583Y0105708D01*
X0178639Y0112102D02*
X0179961Y0112102D01*
X0181938Y0113701D02*
X0176662Y0113701D01*
X0176609Y0115299D02*
X0181991Y0115299D01*
X0181991Y0116898D02*
X0176609Y0116898D01*
X0176609Y0118496D02*
X0181991Y0118496D01*
X0181991Y0120095D02*
X0176609Y0120095D01*
X0176609Y0121693D02*
X0181991Y0121693D01*
X0181991Y0123292D02*
X0176609Y0123292D01*
X0176609Y0124890D02*
X0181991Y0124890D01*
X0181991Y0126489D02*
X0176609Y0126489D01*
X0176609Y0128087D02*
X0181991Y0128087D01*
X0181991Y0129686D02*
X0176609Y0129686D01*
X0175214Y0131284D02*
X0181184Y0131284D01*
X0179585Y0132883D02*
X0173615Y0132883D01*
X0172017Y0134481D02*
X0177987Y0134481D01*
X0176388Y0136080D02*
X0170418Y0136080D01*
X0169300Y0133933D02*
X0086800Y0133933D01*
X0084300Y0136433D01*
X0084300Y0226640D01*
X0084054Y0226886D01*
X0074300Y0226886D01*
X0057253Y0226886D01*
X0056800Y0226433D01*
X0051991Y0227195D02*
X0051609Y0227195D01*
X0051609Y0228793D02*
X0051991Y0228793D01*
X0051991Y0230392D02*
X0051609Y0230392D01*
X0051609Y0230690D02*
X0050877Y0232457D01*
X0050809Y0232525D01*
X0050809Y0237230D01*
X0050198Y0238704D01*
X0041609Y0247294D01*
X0041609Y0247390D01*
X0040877Y0249157D01*
X0040809Y0249225D01*
X0040809Y0261224D01*
X0041125Y0261224D01*
X0042009Y0262108D01*
X0042009Y0264390D01*
X0042384Y0263483D01*
X0043850Y0262017D01*
X0044491Y0261752D01*
X0044491Y0260477D01*
X0049491Y0255477D01*
X0050844Y0254124D01*
X0065844Y0254124D01*
X0072163Y0247805D01*
X0071991Y0247390D01*
X0071991Y0245477D01*
X0072723Y0243709D01*
X0074076Y0242356D01*
X0075843Y0241624D01*
X0077756Y0241624D01*
X0079524Y0242356D01*
X0080877Y0243709D01*
X0081609Y0245477D01*
X0081609Y0247390D01*
X0080877Y0249157D01*
X0079524Y0250510D01*
X0077756Y0251242D01*
X0075843Y0251242D01*
X0075428Y0251070D01*
X0067756Y0258742D01*
X0052756Y0258742D01*
X0049560Y0261938D01*
X0049750Y0262017D01*
X0051216Y0263483D01*
X0051800Y0264893D01*
X0052384Y0263483D01*
X0053850Y0262017D01*
X0055764Y0261224D01*
X0057836Y0261224D01*
X0059750Y0262017D01*
X0061216Y0263483D01*
X0062009Y0265397D01*
X0062009Y0267469D01*
X0061216Y0269384D01*
X0059750Y0270849D01*
X0057836Y0271642D01*
X0055764Y0271642D01*
X0053850Y0270849D01*
X0052384Y0269384D01*
X0051800Y0267973D01*
X0051216Y0269384D01*
X0049750Y0270849D01*
X0047836Y0271642D01*
X0045764Y0271642D01*
X0043850Y0270849D01*
X0042384Y0269384D01*
X0042009Y0268477D01*
X0042009Y0270758D01*
X0041125Y0271642D01*
X0032475Y0271642D01*
X0031591Y0270758D01*
X0031591Y0262108D01*
X0032475Y0261224D01*
X0032791Y0261224D01*
X0032791Y0249225D01*
X0032723Y0249157D01*
X0031991Y0247390D01*
X0031991Y0245477D01*
X0032723Y0243709D01*
X0034076Y0242356D01*
X0035843Y0241624D01*
X0035940Y0241624D01*
X0042791Y0234773D01*
X0042791Y0232525D01*
X0042723Y0232457D01*
X0041991Y0230690D01*
X0041991Y0222177D01*
X0042723Y0220409D01*
X0044076Y0219056D01*
X0045843Y0218324D01*
X0047756Y0218324D01*
X0049524Y0219056D01*
X0050877Y0220409D01*
X0051609Y0222177D01*
X0051609Y0230690D01*
X0051070Y0231990D02*
X0052530Y0231990D01*
X0053855Y0233589D02*
X0050809Y0233589D01*
X0050809Y0235187D02*
X0080138Y0235187D01*
X0080138Y0235538D02*
X0080138Y0233726D01*
X0080138Y0231915D01*
X0080260Y0231457D01*
X0080497Y0231046D01*
X0080833Y0230711D01*
X0081243Y0230474D01*
X0081701Y0230352D01*
X0084300Y0230352D01*
X0086899Y0230352D01*
X0087357Y0230474D01*
X0087767Y0230711D01*
X0088103Y0231046D01*
X0088340Y0231457D01*
X0088462Y0231915D01*
X0088462Y0233726D01*
X0084300Y0233726D01*
X0084300Y0230352D01*
X0084300Y0233726D01*
X0084300Y0233726D01*
X0084300Y0233726D01*
X0080138Y0233726D01*
X0084300Y0233726D01*
X0084300Y0233726D01*
X0088462Y0233726D01*
X0088462Y0235538D01*
X0088340Y0235996D01*
X0088103Y0236406D01*
X0087767Y0236742D01*
X0087357Y0236979D01*
X0086899Y0237101D01*
X0084300Y0237101D01*
X0084300Y0233727D01*
X0084300Y0237101D01*
X0081701Y0237101D01*
X0081243Y0236979D01*
X0080833Y0236742D01*
X0080497Y0236406D01*
X0080260Y0235996D01*
X0080138Y0235538D01*
X0080909Y0236786D02*
X0050809Y0236786D01*
X0050331Y0238384D02*
X0104180Y0238384D01*
X0105778Y0236786D02*
X0087691Y0236786D01*
X0088462Y0235187D02*
X0107377Y0235187D01*
X0106973Y0234095D02*
X0106258Y0234459D01*
X0105494Y0234707D01*
X0104701Y0234833D01*
X0104600Y0234833D01*
X0104600Y0226733D01*
X0109400Y0226733D01*
X0109400Y0230134D01*
X0109274Y0230927D01*
X0109026Y0231691D01*
X0108662Y0232406D01*
X0108190Y0233055D01*
X0107622Y0233623D01*
X0106973Y0234095D01*
X0107657Y0233589D02*
X0108975Y0233589D01*
X0108874Y0231990D02*
X0110030Y0231990D01*
X0110189Y0232375D02*
X0109491Y0230690D01*
X0109491Y0222177D01*
X0110223Y0220409D01*
X0111576Y0219056D01*
X0113343Y0218324D01*
X0115256Y0218324D01*
X0117024Y0219056D01*
X0118377Y0220409D01*
X0119109Y0222177D01*
X0119109Y0230690D01*
X0118377Y0232457D01*
X0118309Y0232525D01*
X0118309Y0234730D01*
X0117698Y0236204D01*
X0106609Y0247293D01*
X0106609Y0247390D01*
X0105877Y0249157D01*
X0105809Y0249225D01*
X0105809Y0261224D01*
X0106125Y0261224D01*
X0107009Y0262108D01*
X0107009Y0264390D01*
X0107384Y0263483D01*
X0108850Y0262017D01*
X0109491Y0261752D01*
X0109491Y0260477D01*
X0114491Y0255477D01*
X0115844Y0254124D01*
X0130844Y0254124D01*
X0137163Y0247805D01*
X0136991Y0247390D01*
X0136991Y0245477D01*
X0137723Y0243709D01*
X0139076Y0242356D01*
X0140843Y0241624D01*
X0142756Y0241624D01*
X0144524Y0242356D01*
X0145877Y0243709D01*
X0146609Y0245477D01*
X0146609Y0247390D01*
X0145877Y0249157D01*
X0144524Y0250510D01*
X0142756Y0251242D01*
X0140843Y0251242D01*
X0140428Y0251070D01*
X0132756Y0258742D01*
X0117756Y0258742D01*
X0114560Y0261938D01*
X0114750Y0262017D01*
X0116216Y0263483D01*
X0116800Y0264893D01*
X0117384Y0263483D01*
X0118850Y0262017D01*
X0120764Y0261224D01*
X0122836Y0261224D01*
X0124750Y0262017D01*
X0126216Y0263483D01*
X0127009Y0265397D01*
X0127009Y0267469D01*
X0126216Y0269384D01*
X0124750Y0270849D01*
X0122836Y0271642D01*
X0120764Y0271642D01*
X0118850Y0270849D01*
X0117384Y0269384D01*
X0116800Y0267973D01*
X0116216Y0269384D01*
X0114750Y0270849D01*
X0112836Y0271642D01*
X0110764Y0271642D01*
X0108850Y0270849D01*
X0107384Y0269384D01*
X0107009Y0268477D01*
X0107009Y0270758D01*
X0106125Y0271642D01*
X0097475Y0271642D01*
X0096591Y0270758D01*
X0096591Y0262108D01*
X0097475Y0261224D01*
X0097791Y0261224D01*
X0097791Y0249225D01*
X0097723Y0249157D01*
X0096991Y0247390D01*
X0096991Y0245477D01*
X0097723Y0243709D01*
X0099076Y0242356D01*
X0100843Y0241624D01*
X0100940Y0241624D01*
X0110189Y0232375D01*
X0109491Y0230392D02*
X0109359Y0230392D01*
X0109400Y0228793D02*
X0109491Y0228793D01*
X0109491Y0227195D02*
X0109400Y0227195D01*
X0109400Y0226133D02*
X0104600Y0226133D01*
X0104600Y0218033D01*
X0104701Y0218033D01*
X0105494Y0218159D01*
X0106258Y0218407D01*
X0106973Y0218771D01*
X0107622Y0219243D01*
X0108190Y0219811D01*
X0108662Y0220460D01*
X0109026Y0221175D01*
X0109274Y0221939D01*
X0109400Y0222732D01*
X0109400Y0226133D01*
X0109400Y0225596D02*
X0109491Y0225596D01*
X0109491Y0223998D02*
X0109400Y0223998D01*
X0109347Y0222399D02*
X0109491Y0222399D01*
X0110061Y0220801D02*
X0108836Y0220801D01*
X0107566Y0219202D02*
X0111430Y0219202D01*
X0117170Y0219202D02*
X0121430Y0219202D01*
X0120061Y0220801D02*
X0118539Y0220801D01*
X0119109Y0222399D02*
X0119491Y0222399D01*
X0119491Y0223998D02*
X0119109Y0223998D01*
X0119109Y0225596D02*
X0119491Y0225596D01*
X0119491Y0227195D02*
X0119109Y0227195D01*
X0119109Y0228793D02*
X0119491Y0228793D01*
X0119491Y0230392D02*
X0119109Y0230392D01*
X0118570Y0231990D02*
X0120030Y0231990D01*
X0121355Y0233589D02*
X0118309Y0233589D01*
X0118119Y0235187D02*
X0149151Y0235187D01*
X0149594Y0234118D02*
X0148300Y0237242D01*
X0148300Y0240624D01*
X0149594Y0243748D01*
X0149594Y0243748D01*
X0151985Y0246139D01*
X0151985Y0246139D01*
X0155109Y0247433D01*
X0158491Y0247433D01*
X0161615Y0246139D01*
X0161615Y0246139D01*
X0164006Y0243748D01*
X0164006Y0243748D01*
X0165300Y0240624D01*
X0165300Y0237242D01*
X0164006Y0234118D01*
X0164006Y0234118D01*
X0161615Y0231727D01*
X0161615Y0231727D01*
X0158491Y0230433D01*
X0158491Y0230433D01*
X0157297Y0230433D01*
X0155109Y0230433D01*
X0151985Y0231727D01*
X0151985Y0231727D01*
X0149594Y0234118D01*
X0149594Y0234118D01*
X0150123Y0233589D02*
X0127245Y0233589D01*
X0128570Y0231990D02*
X0136621Y0231990D01*
X0139300Y0229386D02*
X0146347Y0229386D01*
X0149757Y0225976D01*
X0149757Y0218433D01*
X0149800Y0153433D01*
X0159300Y0143933D01*
X0171800Y0143933D01*
X0184300Y0131433D01*
X0184300Y0108933D01*
X0186662Y0113701D02*
X0191938Y0113701D01*
X0191991Y0115299D02*
X0186609Y0115299D01*
X0186609Y0116898D02*
X0191991Y0116898D01*
X0191991Y0118496D02*
X0186609Y0118496D01*
X0186609Y0120095D02*
X0191991Y0120095D01*
X0191991Y0121693D02*
X0186609Y0121693D01*
X0186609Y0123292D02*
X0191991Y0123292D01*
X0191991Y0124890D02*
X0186609Y0124890D01*
X0186609Y0126489D02*
X0191991Y0126489D01*
X0191991Y0128087D02*
X0186609Y0128087D01*
X0186609Y0129686D02*
X0191991Y0129686D01*
X0191991Y0131284D02*
X0186609Y0131284D01*
X0186115Y0132883D02*
X0191991Y0132883D01*
X0191991Y0134481D02*
X0184517Y0134481D01*
X0182918Y0136080D02*
X0191388Y0136080D01*
X0189790Y0137678D02*
X0181320Y0137678D01*
X0179721Y0139277D02*
X0188191Y0139277D01*
X0186593Y0140875D02*
X0178123Y0140875D01*
X0176524Y0142474D02*
X0184994Y0142474D01*
X0183396Y0144072D02*
X0174926Y0144072D01*
X0173327Y0145671D02*
X0181797Y0145671D01*
X0181800Y0148933D02*
X0171800Y0148933D01*
X0164300Y0156433D01*
X0164300Y0208933D01*
X0166800Y0211433D01*
X0177800Y0211433D01*
X0176800Y0212433D01*
X0176800Y0227890D01*
X0176800Y0231602D02*
X0174201Y0231602D01*
X0173743Y0231724D01*
X0173333Y0231961D01*
X0172997Y0232296D01*
X0172760Y0232707D01*
X0172638Y0233165D01*
X0172638Y0234976D01*
X0176800Y0234976D01*
X0176800Y0231602D01*
X0179399Y0231602D01*
X0179857Y0231724D01*
X0180267Y0231961D01*
X0180603Y0232296D01*
X0180840Y0232707D01*
X0180962Y0233165D01*
X0180962Y0234976D01*
X0176800Y0234976D01*
X0176800Y0234976D01*
X0176800Y0231602D01*
X0176800Y0231990D02*
X0176800Y0231990D01*
X0176800Y0233589D02*
X0176800Y0233589D01*
X0176800Y0234976D02*
X0176800Y0234976D01*
X0176800Y0234976D01*
X0176800Y0243933D01*
X0183291Y0243180D02*
X0164241Y0243180D01*
X0164903Y0241581D02*
X0183291Y0241581D01*
X0183291Y0239983D02*
X0165300Y0239983D01*
X0165300Y0238384D02*
X0183291Y0238384D01*
X0183291Y0236786D02*
X0180962Y0236786D01*
X0180962Y0236788D02*
X0180840Y0237246D01*
X0180603Y0237656D01*
X0180267Y0237992D01*
X0179857Y0238229D01*
X0179399Y0238351D01*
X0176800Y0238351D01*
X0176800Y0234977D01*
X0176800Y0238351D01*
X0174201Y0238351D01*
X0173743Y0238229D01*
X0173333Y0237992D01*
X0172997Y0237656D01*
X0172760Y0237246D01*
X0172638Y0236788D01*
X0172638Y0234976D01*
X0176800Y0234976D01*
X0180962Y0234976D01*
X0180962Y0236788D01*
X0180962Y0235187D02*
X0183291Y0235187D01*
X0183291Y0233589D02*
X0180962Y0233589D01*
X0180297Y0231990D02*
X0183807Y0231990D01*
X0185379Y0230392D02*
X0180368Y0230392D01*
X0180671Y0228793D02*
X0186978Y0228793D01*
X0188576Y0227195D02*
X0180671Y0227195D01*
X0180577Y0225596D02*
X0190175Y0225596D01*
X0191773Y0223998D02*
X0179109Y0223998D01*
X0179109Y0222399D02*
X0192291Y0222399D01*
X0192291Y0220801D02*
X0179109Y0220801D01*
X0179576Y0219202D02*
X0185024Y0219202D01*
X0182870Y0217604D02*
X0181730Y0217604D01*
X0188576Y0219202D02*
X0192291Y0219202D01*
X0191870Y0217604D02*
X0190730Y0217604D01*
X0199309Y0218025D02*
X0199309Y0225631D01*
X0198774Y0226921D01*
X0197787Y0227908D01*
X0190309Y0235386D01*
X0190309Y0262576D01*
X0191216Y0263483D01*
X0191642Y0264511D01*
X0191703Y0264322D01*
X0192096Y0263550D01*
X0192605Y0262850D01*
X0193217Y0262238D01*
X0193917Y0261729D01*
X0194689Y0261336D01*
X0195512Y0261069D01*
X0196367Y0260933D01*
X0196600Y0260933D01*
X0196600Y0266233D01*
X0197000Y0266233D01*
X0197000Y0260933D01*
X0197233Y0260933D01*
X0198088Y0261069D01*
X0198911Y0261336D01*
X0199683Y0261729D01*
X0200383Y0262238D01*
X0200995Y0262850D01*
X0201504Y0263550D01*
X0201897Y0264322D01*
X0202165Y0265145D01*
X0202300Y0266000D01*
X0202300Y0266233D01*
X0197000Y0266233D01*
X0197000Y0266633D01*
X0202300Y0266633D01*
X0202300Y0266866D01*
X0202165Y0267721D01*
X0201897Y0268544D01*
X0201504Y0269316D01*
X0200995Y0270016D01*
X0200383Y0270628D01*
X0199683Y0271137D01*
X0198911Y0271530D01*
X0198088Y0271798D01*
X0197233Y0271933D01*
X0197000Y0271933D01*
X0197000Y0266633D01*
X0196600Y0266633D01*
X0196600Y0271933D01*
X0196367Y0271933D01*
X0195512Y0271798D01*
X0194689Y0271530D01*
X0193917Y0271137D01*
X0193217Y0270628D01*
X0192605Y0270016D01*
X0192096Y0269316D01*
X0191703Y0268544D01*
X0191642Y0268355D01*
X0191216Y0269384D01*
X0189750Y0270849D01*
X0187836Y0271642D01*
X0185764Y0271642D01*
X0183850Y0270849D01*
X0182384Y0269384D01*
X0182009Y0268477D01*
X0182009Y0270758D01*
X0181125Y0271642D01*
X0179109Y0271642D01*
X0179109Y0272977D01*
X0180256Y0274124D01*
X0205844Y0274124D01*
X0211991Y0267977D01*
X0211991Y0113723D01*
X0211293Y0113434D01*
X0209800Y0111940D01*
X0209300Y0110734D01*
X0208800Y0111940D01*
X0207307Y0113434D01*
X0206609Y0113723D01*
X0206609Y0207943D01*
X0209406Y0207943D01*
X0210290Y0208827D01*
X0210290Y0214039D01*
X0209406Y0214923D01*
X0204194Y0214923D01*
X0203310Y0214039D01*
X0203310Y0211208D01*
X0201991Y0209889D01*
X0201991Y0113723D01*
X0201293Y0113434D01*
X0199800Y0111940D01*
X0199300Y0110734D01*
X0198800Y0111940D01*
X0197307Y0113434D01*
X0196609Y0113723D01*
X0196609Y0137389D01*
X0184109Y0149889D01*
X0182756Y0151242D01*
X0172756Y0151242D01*
X0166609Y0157389D01*
X0166609Y0207977D01*
X0167756Y0209124D01*
X0172991Y0209124D01*
X0172991Y0207177D01*
X0173723Y0205409D01*
X0175076Y0204056D01*
X0176843Y0203324D01*
X0178756Y0203324D01*
X0180524Y0204056D01*
X0181877Y0205409D01*
X0182300Y0206431D01*
X0182723Y0205409D01*
X0184076Y0204056D01*
X0185843Y0203324D01*
X0187756Y0203324D01*
X0189524Y0204056D01*
X0190877Y0205409D01*
X0191300Y0206431D01*
X0191723Y0205409D01*
X0193076Y0204056D01*
X0194843Y0203324D01*
X0196756Y0203324D01*
X0198524Y0204056D01*
X0199877Y0205409D01*
X0200609Y0207177D01*
X0200609Y0215690D01*
X0199877Y0217457D01*
X0199309Y0218025D01*
X0199730Y0217604D02*
X0211991Y0217604D01*
X0211991Y0219202D02*
X0199309Y0219202D01*
X0199309Y0220801D02*
X0211991Y0220801D01*
X0211991Y0222399D02*
X0199309Y0222399D01*
X0199309Y0223998D02*
X0211991Y0223998D01*
X0211991Y0225596D02*
X0199309Y0225596D01*
X0198500Y0227195D02*
X0211991Y0227195D01*
X0211991Y0228793D02*
X0196902Y0228793D01*
X0195303Y0230392D02*
X0211991Y0230392D01*
X0211991Y0231990D02*
X0193705Y0231990D01*
X0192106Y0233589D02*
X0211991Y0233589D01*
X0211991Y0235187D02*
X0190508Y0235187D01*
X0190309Y0236786D02*
X0211991Y0236786D01*
X0211991Y0238384D02*
X0190309Y0238384D01*
X0190309Y0239983D02*
X0211991Y0239983D01*
X0211991Y0241581D02*
X0190309Y0241581D01*
X0190309Y0243180D02*
X0211991Y0243180D01*
X0211991Y0244779D02*
X0190309Y0244779D01*
X0190309Y0246377D02*
X0211991Y0246377D01*
X0211991Y0247976D02*
X0190309Y0247976D01*
X0190309Y0249574D02*
X0211991Y0249574D01*
X0211991Y0251173D02*
X0190309Y0251173D01*
X0190309Y0252771D02*
X0211991Y0252771D01*
X0211991Y0254370D02*
X0190309Y0254370D01*
X0190309Y0255968D02*
X0211991Y0255968D01*
X0211991Y0257567D02*
X0190309Y0257567D01*
X0190309Y0259165D02*
X0211991Y0259165D01*
X0211991Y0260764D02*
X0190309Y0260764D01*
X0190309Y0262362D02*
X0193093Y0262362D01*
X0191887Y0263961D02*
X0191414Y0263961D01*
X0191476Y0268756D02*
X0191811Y0268756D01*
X0192943Y0270355D02*
X0190245Y0270355D01*
X0196600Y0270355D02*
X0197000Y0270355D01*
X0197000Y0268756D02*
X0196600Y0268756D01*
X0196600Y0267158D02*
X0197000Y0267158D01*
X0197000Y0265559D02*
X0196600Y0265559D01*
X0196600Y0263961D02*
X0197000Y0263961D01*
X0197000Y0262362D02*
X0196600Y0262362D01*
X0200507Y0262362D02*
X0211991Y0262362D01*
X0211991Y0263961D02*
X0201713Y0263961D01*
X0202230Y0265559D02*
X0211991Y0265559D01*
X0211991Y0267158D02*
X0202254Y0267158D01*
X0201789Y0268756D02*
X0211212Y0268756D01*
X0209613Y0270355D02*
X0200657Y0270355D01*
X0206416Y0273552D02*
X0179684Y0273552D01*
X0179109Y0271953D02*
X0208015Y0271953D01*
X0211348Y0275150D02*
X0333717Y0275150D01*
X0333717Y0273552D02*
X0212946Y0273552D01*
X0214545Y0271953D02*
X0333717Y0271953D01*
X0333717Y0270355D02*
X0310657Y0270355D01*
X0311789Y0268756D02*
X0333717Y0268756D01*
X0333717Y0267158D02*
X0312254Y0267158D01*
X0312230Y0265559D02*
X0333717Y0265559D01*
X0333717Y0263961D02*
X0311713Y0263961D01*
X0310507Y0262362D02*
X0333717Y0262362D01*
X0333717Y0260764D02*
X0299109Y0260764D01*
X0299109Y0259165D02*
X0333717Y0259165D01*
X0333717Y0257567D02*
X0299109Y0257567D01*
X0299109Y0255968D02*
X0333717Y0255968D01*
X0333717Y0254370D02*
X0299109Y0254370D01*
X0299109Y0252771D02*
X0333717Y0252771D01*
X0333717Y0251173D02*
X0299109Y0251173D01*
X0299109Y0249574D02*
X0333717Y0249574D01*
X0333717Y0247976D02*
X0299109Y0247976D01*
X0299109Y0246377D02*
X0310060Y0246377D01*
X0309485Y0246139D02*
X0307094Y0243748D01*
X0307094Y0243748D01*
X0307094Y0243748D01*
X0305800Y0240624D01*
X0305800Y0237242D01*
X0307094Y0234118D01*
X0309485Y0231727D01*
X0309485Y0231727D01*
X0312609Y0230433D01*
X0313803Y0230433D01*
X0315991Y0230433D01*
X0319115Y0231727D01*
X0321506Y0234118D01*
X0321506Y0234118D01*
X0322800Y0237242D01*
X0322800Y0240624D01*
X0321506Y0243748D01*
X0319115Y0246139D01*
X0319115Y0246139D01*
X0315991Y0247433D01*
X0312609Y0247433D01*
X0309485Y0246139D01*
X0308125Y0244779D02*
X0299109Y0244779D01*
X0299109Y0243180D02*
X0306859Y0243180D01*
X0306197Y0241581D02*
X0299109Y0241581D01*
X0299109Y0239983D02*
X0305800Y0239983D01*
X0305800Y0238384D02*
X0299109Y0238384D01*
X0299109Y0236786D02*
X0305989Y0236786D01*
X0306651Y0235187D02*
X0299109Y0235187D01*
X0299109Y0233589D02*
X0307623Y0233589D01*
X0307094Y0234118D02*
X0307094Y0234118D01*
X0309222Y0231990D02*
X0299109Y0231990D01*
X0299109Y0230392D02*
X0333717Y0230392D01*
X0333717Y0231990D02*
X0319378Y0231990D01*
X0319115Y0231727D02*
X0319115Y0231727D01*
X0320977Y0233589D02*
X0333717Y0233589D01*
X0333717Y0235187D02*
X0321949Y0235187D01*
X0322611Y0236786D02*
X0333717Y0236786D01*
X0333717Y0238384D02*
X0322800Y0238384D01*
X0322800Y0239983D02*
X0333717Y0239983D01*
X0333717Y0241581D02*
X0322403Y0241581D01*
X0321741Y0243180D02*
X0333717Y0243180D01*
X0333717Y0244779D02*
X0320475Y0244779D01*
X0321506Y0243748D02*
X0321506Y0243748D01*
X0318540Y0246377D02*
X0333717Y0246377D01*
X0333717Y0228793D02*
X0299109Y0228793D01*
X0299109Y0227195D02*
X0333717Y0227195D01*
X0333717Y0225596D02*
X0299109Y0225596D01*
X0299109Y0223998D02*
X0333717Y0223998D01*
X0333717Y0222399D02*
X0299109Y0222399D01*
X0299109Y0220801D02*
X0333717Y0220801D01*
X0333717Y0219202D02*
X0299109Y0219202D01*
X0299109Y0217604D02*
X0333717Y0217604D01*
X0333717Y0216005D02*
X0299109Y0216005D01*
X0299109Y0214407D02*
X0333717Y0214407D01*
X0333717Y0212808D02*
X0299109Y0212808D01*
X0299109Y0211210D02*
X0333717Y0211210D01*
X0333717Y0209611D02*
X0299109Y0209611D01*
X0299109Y0208013D02*
X0333717Y0208013D01*
X0333717Y0206414D02*
X0299109Y0206414D01*
X0299109Y0204816D02*
X0333717Y0204816D01*
X0333717Y0203217D02*
X0299109Y0203217D01*
X0299109Y0201619D02*
X0333717Y0201619D01*
X0333717Y0200020D02*
X0299109Y0200020D01*
X0299109Y0198422D02*
X0333717Y0198422D01*
X0333717Y0196823D02*
X0299109Y0196823D01*
X0299109Y0195225D02*
X0333717Y0195225D01*
X0333717Y0193626D02*
X0299109Y0193626D01*
X0299109Y0192028D02*
X0333717Y0192028D01*
X0333717Y0190429D02*
X0299109Y0190429D01*
X0299109Y0188831D02*
X0333717Y0188831D01*
X0333717Y0187232D02*
X0299109Y0187232D01*
X0299109Y0185634D02*
X0333717Y0185634D01*
X0333717Y0184035D02*
X0299109Y0184035D01*
X0299109Y0182437D02*
X0333717Y0182437D01*
X0333717Y0180838D02*
X0299109Y0180838D01*
X0299109Y0179240D02*
X0333717Y0179240D01*
X0333717Y0177641D02*
X0299109Y0177641D01*
X0299109Y0176043D02*
X0333717Y0176043D01*
X0333717Y0174444D02*
X0299109Y0174444D01*
X0299109Y0172845D02*
X0333717Y0172845D01*
X0333717Y0171247D02*
X0299109Y0171247D01*
X0299109Y0169648D02*
X0333717Y0169648D01*
X0333717Y0168050D02*
X0299109Y0168050D01*
X0299109Y0166451D02*
X0333717Y0166451D01*
X0333717Y0164853D02*
X0299109Y0164853D01*
X0299109Y0163254D02*
X0333717Y0163254D01*
X0333717Y0161656D02*
X0299109Y0161656D01*
X0299109Y0160057D02*
X0333717Y0160057D01*
X0333717Y0158459D02*
X0299109Y0158459D01*
X0299109Y0156860D02*
X0333717Y0156860D01*
X0333717Y0155262D02*
X0299109Y0155262D01*
X0299109Y0153663D02*
X0333717Y0153663D01*
X0333717Y0152065D02*
X0299109Y0152065D01*
X0299109Y0150466D02*
X0333717Y0150466D01*
X0333717Y0148868D02*
X0299109Y0148868D01*
X0299109Y0147269D02*
X0333717Y0147269D01*
X0333717Y0145671D02*
X0299109Y0145671D01*
X0299109Y0144072D02*
X0333717Y0144072D01*
X0333717Y0142474D02*
X0299109Y0142474D01*
X0299109Y0140875D02*
X0333717Y0140875D01*
X0333717Y0139277D02*
X0299109Y0139277D01*
X0299109Y0137678D02*
X0333717Y0137678D01*
X0333717Y0136080D02*
X0299109Y0136080D01*
X0299109Y0134481D02*
X0333717Y0134481D01*
X0333717Y0132883D02*
X0299109Y0132883D01*
X0299109Y0131284D02*
X0333717Y0131284D01*
X0333717Y0129686D02*
X0299109Y0129686D01*
X0299109Y0128087D02*
X0333717Y0128087D01*
X0333717Y0126489D02*
X0299109Y0126489D01*
X0299109Y0124890D02*
X0333717Y0124890D01*
X0333717Y0123292D02*
X0299109Y0123292D01*
X0299109Y0121693D02*
X0333717Y0121693D01*
X0333717Y0120095D02*
X0299109Y0120095D01*
X0299109Y0118496D02*
X0333717Y0118496D01*
X0333717Y0116898D02*
X0299109Y0116898D01*
X0299109Y0115299D02*
X0333717Y0115299D01*
X0333717Y0113701D02*
X0316662Y0113701D01*
X0318639Y0112102D02*
X0333717Y0112102D01*
X0333717Y0110504D02*
X0319396Y0110504D01*
X0319609Y0108905D02*
X0333717Y0108905D01*
X0333717Y0107307D02*
X0319372Y0107307D01*
X0318583Y0105708D02*
X0333717Y0105708D01*
X0333717Y0104110D02*
X0316527Y0104110D01*
X0312073Y0104110D02*
X0306527Y0104110D01*
X0308583Y0105708D02*
X0310017Y0105708D01*
X0309961Y0112102D02*
X0308639Y0112102D01*
X0306662Y0113701D02*
X0311938Y0113701D01*
X0301938Y0113701D02*
X0299109Y0113701D01*
X0299109Y0112102D02*
X0299961Y0112102D01*
X0296800Y0111433D02*
X0294300Y0108933D01*
X0296800Y0111433D02*
X0296800Y0266433D01*
X0292124Y0268756D02*
X0291476Y0268756D01*
X0290245Y0270355D02*
X0293355Y0270355D01*
X0300245Y0270355D02*
X0302943Y0270355D01*
X0301811Y0268756D02*
X0301476Y0268756D01*
X0301414Y0263961D02*
X0301887Y0263961D01*
X0303093Y0262362D02*
X0300095Y0262362D01*
X0306600Y0262362D02*
X0307000Y0262362D01*
X0307000Y0263961D02*
X0306600Y0263961D01*
X0306600Y0265559D02*
X0307000Y0265559D01*
X0307000Y0267158D02*
X0306600Y0267158D01*
X0306600Y0268756D02*
X0307000Y0268756D01*
X0307000Y0270355D02*
X0306600Y0270355D01*
X0286800Y0266433D02*
X0286800Y0111433D01*
X0284300Y0108933D01*
X0281938Y0113701D02*
X0276662Y0113701D01*
X0278639Y0112102D02*
X0279961Y0112102D01*
X0284491Y0115299D02*
X0226609Y0115299D01*
X0226609Y0116898D02*
X0284491Y0116898D01*
X0284491Y0118496D02*
X0226609Y0118496D01*
X0226609Y0120095D02*
X0284491Y0120095D01*
X0284491Y0121693D02*
X0226609Y0121693D01*
X0226609Y0123292D02*
X0284491Y0123292D01*
X0284491Y0124890D02*
X0226609Y0124890D01*
X0226609Y0126489D02*
X0284491Y0126489D01*
X0284491Y0128087D02*
X0226609Y0128087D01*
X0226609Y0129686D02*
X0284491Y0129686D01*
X0284491Y0131284D02*
X0226609Y0131284D01*
X0226609Y0132883D02*
X0284491Y0132883D01*
X0284491Y0134481D02*
X0226609Y0134481D01*
X0226609Y0136080D02*
X0284491Y0136080D01*
X0284491Y0137678D02*
X0226609Y0137678D01*
X0226609Y0139277D02*
X0284491Y0139277D01*
X0284491Y0140875D02*
X0226609Y0140875D01*
X0226609Y0142474D02*
X0284491Y0142474D01*
X0284491Y0144072D02*
X0226609Y0144072D01*
X0226609Y0145671D02*
X0284491Y0145671D01*
X0284491Y0147269D02*
X0226609Y0147269D01*
X0226609Y0148868D02*
X0284491Y0148868D01*
X0284491Y0150466D02*
X0226609Y0150466D01*
X0226609Y0152065D02*
X0284491Y0152065D01*
X0284491Y0153663D02*
X0226609Y0153663D01*
X0226609Y0155262D02*
X0284491Y0155262D01*
X0284491Y0156860D02*
X0226609Y0156860D01*
X0226609Y0158459D02*
X0284491Y0158459D01*
X0284491Y0160057D02*
X0226609Y0160057D01*
X0226609Y0161656D02*
X0284491Y0161656D01*
X0284491Y0163254D02*
X0243703Y0163254D01*
X0243448Y0163149D02*
X0246493Y0164410D01*
X0248823Y0166740D01*
X0250084Y0169785D01*
X0250084Y0173081D01*
X0248823Y0176126D01*
X0246493Y0178456D01*
X0243448Y0179717D01*
X0240152Y0179717D01*
X0237107Y0178456D01*
X0234777Y0176126D01*
X0233516Y0173081D01*
X0233516Y0169785D01*
X0234777Y0166740D01*
X0237107Y0164410D01*
X0240152Y0163149D01*
X0243448Y0163149D01*
X0239897Y0163254D02*
X0226609Y0163254D01*
X0226609Y0164853D02*
X0236664Y0164853D01*
X0235066Y0166451D02*
X0226609Y0166451D01*
X0226609Y0168050D02*
X0234235Y0168050D01*
X0233572Y0169648D02*
X0226609Y0169648D01*
X0226609Y0171247D02*
X0233516Y0171247D01*
X0233516Y0172845D02*
X0226609Y0172845D01*
X0226609Y0174444D02*
X0234080Y0174444D01*
X0234742Y0176043D02*
X0226609Y0176043D01*
X0226609Y0177641D02*
X0236292Y0177641D01*
X0238999Y0179240D02*
X0226609Y0179240D01*
X0226609Y0180838D02*
X0284491Y0180838D01*
X0284491Y0179240D02*
X0244601Y0179240D01*
X0247308Y0177641D02*
X0284491Y0177641D01*
X0284491Y0176043D02*
X0248858Y0176043D01*
X0249520Y0174444D02*
X0284491Y0174444D01*
X0284491Y0172845D02*
X0250084Y0172845D01*
X0250084Y0171247D02*
X0284491Y0171247D01*
X0284491Y0169648D02*
X0250028Y0169648D01*
X0249365Y0168050D02*
X0284491Y0168050D01*
X0284491Y0166451D02*
X0248534Y0166451D01*
X0246936Y0164853D02*
X0284491Y0164853D01*
X0284491Y0182437D02*
X0226609Y0182437D01*
X0226609Y0184035D02*
X0284491Y0184035D01*
X0284491Y0185634D02*
X0226609Y0185634D01*
X0226609Y0187232D02*
X0284491Y0187232D01*
X0284491Y0188831D02*
X0226609Y0188831D01*
X0226609Y0190429D02*
X0284491Y0190429D01*
X0284491Y0192028D02*
X0226609Y0192028D01*
X0226609Y0193626D02*
X0284491Y0193626D01*
X0284491Y0195225D02*
X0226609Y0195225D01*
X0226609Y0196823D02*
X0284491Y0196823D01*
X0284491Y0198422D02*
X0226609Y0198422D01*
X0226609Y0200020D02*
X0284491Y0200020D01*
X0284491Y0201619D02*
X0226609Y0201619D01*
X0226609Y0203217D02*
X0284491Y0203217D01*
X0284491Y0204816D02*
X0254283Y0204816D01*
X0255293Y0206414D02*
X0284491Y0206414D01*
X0284491Y0208013D02*
X0255609Y0208013D01*
X0255609Y0209611D02*
X0284491Y0209611D01*
X0284491Y0211210D02*
X0255609Y0211210D01*
X0255609Y0212808D02*
X0284491Y0212808D01*
X0284491Y0214407D02*
X0255609Y0214407D01*
X0255478Y0216005D02*
X0284491Y0216005D01*
X0284491Y0217604D02*
X0254730Y0217604D01*
X0254309Y0219202D02*
X0284491Y0219202D01*
X0284491Y0220801D02*
X0254309Y0220801D01*
X0254309Y0222399D02*
X0284491Y0222399D01*
X0284491Y0223998D02*
X0254309Y0223998D01*
X0254309Y0225596D02*
X0284491Y0225596D01*
X0284491Y0227195D02*
X0253500Y0227195D01*
X0251902Y0228793D02*
X0284491Y0228793D01*
X0284491Y0230392D02*
X0250303Y0230392D01*
X0248705Y0231990D02*
X0284491Y0231990D01*
X0284491Y0233589D02*
X0247106Y0233589D01*
X0245508Y0235187D02*
X0284491Y0235187D01*
X0284491Y0236786D02*
X0245309Y0236786D01*
X0245309Y0238384D02*
X0284491Y0238384D01*
X0284491Y0239983D02*
X0245309Y0239983D01*
X0245309Y0241581D02*
X0284491Y0241581D01*
X0284491Y0243180D02*
X0245309Y0243180D01*
X0245309Y0244779D02*
X0284491Y0244779D01*
X0284491Y0246377D02*
X0245309Y0246377D01*
X0245309Y0247976D02*
X0284491Y0247976D01*
X0284491Y0249574D02*
X0245309Y0249574D01*
X0245309Y0251173D02*
X0284491Y0251173D01*
X0284491Y0252771D02*
X0245309Y0252771D01*
X0245309Y0254370D02*
X0284491Y0254370D01*
X0284491Y0255968D02*
X0245309Y0255968D01*
X0245309Y0257567D02*
X0284491Y0257567D01*
X0284491Y0259165D02*
X0245309Y0259165D01*
X0245309Y0260764D02*
X0284491Y0260764D01*
X0283505Y0262362D02*
X0282009Y0262362D01*
X0282009Y0263961D02*
X0282186Y0263961D01*
X0282124Y0268756D02*
X0282009Y0268756D01*
X0282009Y0270355D02*
X0283355Y0270355D01*
X0271591Y0270355D02*
X0255657Y0270355D01*
X0256789Y0268756D02*
X0271591Y0268756D01*
X0271591Y0267158D02*
X0257254Y0267158D01*
X0257230Y0265559D02*
X0271591Y0265559D01*
X0271591Y0263961D02*
X0256713Y0263961D01*
X0255507Y0262362D02*
X0271591Y0262362D01*
X0252000Y0262362D02*
X0251600Y0262362D01*
X0251600Y0263961D02*
X0252000Y0263961D01*
X0252000Y0265559D02*
X0251600Y0265559D01*
X0251600Y0267158D02*
X0252000Y0267158D01*
X0252000Y0268756D02*
X0251600Y0268756D01*
X0251600Y0270355D02*
X0252000Y0270355D01*
X0247943Y0270355D02*
X0245245Y0270355D01*
X0246476Y0268756D02*
X0246811Y0268756D01*
X0246887Y0263961D02*
X0246414Y0263961D01*
X0245309Y0262362D02*
X0248093Y0262362D01*
X0238291Y0262362D02*
X0237009Y0262362D01*
X0237009Y0263961D02*
X0237186Y0263961D01*
X0237124Y0268756D02*
X0237009Y0268756D01*
X0237009Y0270355D02*
X0238355Y0270355D01*
X0231800Y0266433D02*
X0226800Y0266433D01*
X0224300Y0263933D01*
X0224300Y0108933D01*
X0221938Y0113701D02*
X0216662Y0113701D01*
X0216609Y0115299D02*
X0221991Y0115299D01*
X0221991Y0116898D02*
X0216609Y0116898D01*
X0216609Y0118496D02*
X0221991Y0118496D01*
X0221991Y0120095D02*
X0216609Y0120095D01*
X0216609Y0121693D02*
X0221991Y0121693D01*
X0221991Y0123292D02*
X0216609Y0123292D01*
X0216609Y0124890D02*
X0221991Y0124890D01*
X0221991Y0126489D02*
X0216609Y0126489D01*
X0216609Y0128087D02*
X0221991Y0128087D01*
X0221991Y0129686D02*
X0216609Y0129686D01*
X0216609Y0131284D02*
X0221991Y0131284D01*
X0221991Y0132883D02*
X0216609Y0132883D01*
X0216609Y0134481D02*
X0221991Y0134481D01*
X0221991Y0136080D02*
X0216609Y0136080D01*
X0216609Y0137678D02*
X0221991Y0137678D01*
X0221991Y0139277D02*
X0216609Y0139277D01*
X0216609Y0140875D02*
X0221991Y0140875D01*
X0221991Y0142474D02*
X0216609Y0142474D01*
X0216609Y0144072D02*
X0221991Y0144072D01*
X0221991Y0145671D02*
X0216609Y0145671D01*
X0216609Y0147269D02*
X0221991Y0147269D01*
X0221991Y0148868D02*
X0216609Y0148868D01*
X0216609Y0150466D02*
X0221991Y0150466D01*
X0221991Y0152065D02*
X0216609Y0152065D01*
X0216609Y0153663D02*
X0221991Y0153663D01*
X0221991Y0155262D02*
X0216609Y0155262D01*
X0216609Y0156860D02*
X0221991Y0156860D01*
X0221991Y0158459D02*
X0216609Y0158459D01*
X0216609Y0160057D02*
X0221991Y0160057D01*
X0221991Y0161656D02*
X0216609Y0161656D01*
X0216609Y0163254D02*
X0221991Y0163254D01*
X0221991Y0164853D02*
X0216609Y0164853D01*
X0216609Y0166451D02*
X0221991Y0166451D01*
X0221991Y0168050D02*
X0216609Y0168050D01*
X0216609Y0169648D02*
X0221991Y0169648D01*
X0221991Y0171247D02*
X0216609Y0171247D01*
X0216609Y0172845D02*
X0221991Y0172845D01*
X0221991Y0174444D02*
X0216609Y0174444D01*
X0216609Y0176043D02*
X0221991Y0176043D01*
X0221991Y0177641D02*
X0216609Y0177641D01*
X0216609Y0179240D02*
X0221991Y0179240D01*
X0221991Y0180838D02*
X0216609Y0180838D01*
X0216609Y0182437D02*
X0221991Y0182437D01*
X0221991Y0184035D02*
X0216609Y0184035D01*
X0216609Y0185634D02*
X0221991Y0185634D01*
X0221991Y0187232D02*
X0216609Y0187232D01*
X0216609Y0188831D02*
X0221991Y0188831D01*
X0221991Y0190429D02*
X0216609Y0190429D01*
X0216609Y0192028D02*
X0221991Y0192028D01*
X0221991Y0193626D02*
X0216609Y0193626D01*
X0216609Y0195225D02*
X0221991Y0195225D01*
X0221991Y0196823D02*
X0216609Y0196823D01*
X0216609Y0198422D02*
X0221991Y0198422D01*
X0221991Y0200020D02*
X0216609Y0200020D01*
X0216609Y0201619D02*
X0221991Y0201619D01*
X0221991Y0203217D02*
X0216609Y0203217D01*
X0216609Y0204816D02*
X0221991Y0204816D01*
X0221991Y0206414D02*
X0216609Y0206414D01*
X0216609Y0208013D02*
X0221991Y0208013D01*
X0221991Y0209611D02*
X0216609Y0209611D01*
X0216609Y0211210D02*
X0221991Y0211210D01*
X0221991Y0212808D02*
X0216609Y0212808D01*
X0216609Y0214407D02*
X0221991Y0214407D01*
X0221991Y0216005D02*
X0216609Y0216005D01*
X0216609Y0217604D02*
X0221991Y0217604D01*
X0221991Y0219202D02*
X0216609Y0219202D01*
X0216609Y0220801D02*
X0221991Y0220801D01*
X0221991Y0222399D02*
X0216609Y0222399D01*
X0216609Y0223998D02*
X0221991Y0223998D01*
X0221991Y0225596D02*
X0216609Y0225596D01*
X0216609Y0227195D02*
X0221991Y0227195D01*
X0221991Y0228793D02*
X0216609Y0228793D01*
X0216609Y0230392D02*
X0221991Y0230392D01*
X0221991Y0231990D02*
X0216609Y0231990D01*
X0216609Y0233589D02*
X0221991Y0233589D01*
X0221991Y0235187D02*
X0216609Y0235187D01*
X0216609Y0236786D02*
X0221991Y0236786D01*
X0221991Y0238384D02*
X0216609Y0238384D01*
X0216609Y0239983D02*
X0221991Y0239983D01*
X0221991Y0241581D02*
X0216609Y0241581D01*
X0216609Y0243180D02*
X0221991Y0243180D01*
X0221991Y0244779D02*
X0216609Y0244779D01*
X0216609Y0246377D02*
X0221991Y0246377D01*
X0221991Y0247976D02*
X0216609Y0247976D01*
X0216609Y0249574D02*
X0221991Y0249574D01*
X0221991Y0251173D02*
X0216609Y0251173D01*
X0216609Y0252771D02*
X0221991Y0252771D01*
X0221991Y0254370D02*
X0216609Y0254370D01*
X0216609Y0255968D02*
X0221991Y0255968D01*
X0221991Y0257567D02*
X0216609Y0257567D01*
X0216609Y0259165D02*
X0221991Y0259165D01*
X0221991Y0260764D02*
X0216609Y0260764D01*
X0216609Y0262362D02*
X0221991Y0262362D01*
X0221991Y0263961D02*
X0216609Y0263961D01*
X0216609Y0265559D02*
X0222661Y0265559D01*
X0224260Y0267158D02*
X0216609Y0267158D01*
X0216609Y0268756D02*
X0226591Y0268756D01*
X0226591Y0270355D02*
X0216143Y0270355D01*
X0214300Y0268933D02*
X0206800Y0276433D01*
X0179300Y0276433D01*
X0176800Y0273933D01*
X0176800Y0266433D01*
X0182009Y0268756D02*
X0182124Y0268756D01*
X0182009Y0270355D02*
X0183355Y0270355D01*
X0182186Y0263961D02*
X0182009Y0263961D01*
X0182009Y0262362D02*
X0183291Y0262362D01*
X0183291Y0260764D02*
X0115734Y0260764D01*
X0115095Y0262362D02*
X0118505Y0262362D01*
X0117186Y0263961D02*
X0116414Y0263961D01*
X0116476Y0268756D02*
X0117124Y0268756D01*
X0118355Y0270355D02*
X0115245Y0270355D01*
X0111800Y0266433D02*
X0111800Y0261433D01*
X0116800Y0256433D01*
X0131800Y0256433D01*
X0141800Y0246433D01*
X0146609Y0246377D02*
X0152560Y0246377D01*
X0150625Y0244779D02*
X0146320Y0244779D01*
X0145347Y0243180D02*
X0149359Y0243180D01*
X0148697Y0241581D02*
X0112321Y0241581D01*
X0113919Y0239983D02*
X0148300Y0239983D01*
X0148300Y0238384D02*
X0115518Y0238384D01*
X0117116Y0236786D02*
X0148489Y0236786D01*
X0151722Y0231990D02*
X0141979Y0231990D01*
X0139300Y0229386D02*
X0127253Y0229386D01*
X0124300Y0226433D01*
X0129109Y0225596D02*
X0136217Y0225596D01*
X0136217Y0223998D02*
X0129109Y0223998D01*
X0129109Y0222399D02*
X0136217Y0222399D01*
X0136696Y0220801D02*
X0128539Y0220801D01*
X0127170Y0219202D02*
X0136991Y0219202D01*
X0135857Y0217604D02*
X0086609Y0217604D01*
X0086609Y0219202D02*
X0101034Y0219202D01*
X0100978Y0219243D02*
X0101627Y0218771D01*
X0102342Y0218407D01*
X0103106Y0218159D01*
X0103899Y0218033D01*
X0104000Y0218033D01*
X0104000Y0226133D01*
X0104600Y0226133D01*
X0104600Y0226733D01*
X0104000Y0226733D01*
X0104000Y0226133D01*
X0099200Y0226133D01*
X0099200Y0222732D01*
X0099326Y0221939D01*
X0099574Y0221175D01*
X0099938Y0220460D01*
X0100410Y0219811D01*
X0100978Y0219243D01*
X0099764Y0220801D02*
X0086609Y0220801D01*
X0086609Y0222399D02*
X0099253Y0222399D01*
X0099200Y0223998D02*
X0087729Y0223998D01*
X0088171Y0225596D02*
X0099200Y0225596D01*
X0099200Y0226733D02*
X0104000Y0226733D01*
X0104000Y0234833D01*
X0103899Y0234833D01*
X0103106Y0234707D01*
X0102342Y0234459D01*
X0101627Y0234095D01*
X0100978Y0233623D01*
X0100410Y0233055D01*
X0099938Y0232406D01*
X0099574Y0231691D01*
X0099326Y0230927D01*
X0099200Y0230134D01*
X0099200Y0226733D01*
X0099200Y0227195D02*
X0088171Y0227195D01*
X0088171Y0228793D02*
X0099200Y0228793D01*
X0099241Y0230392D02*
X0087050Y0230392D01*
X0088462Y0231990D02*
X0099726Y0231990D01*
X0100943Y0233589D02*
X0088462Y0233589D01*
X0084300Y0233589D02*
X0084300Y0233589D01*
X0084300Y0233727D02*
X0084300Y0233727D01*
X0084300Y0235187D02*
X0084300Y0235187D01*
X0084300Y0236786D02*
X0084300Y0236786D01*
X0084300Y0231990D02*
X0084300Y0231990D01*
X0084300Y0230392D02*
X0084300Y0230392D01*
X0081550Y0230392D02*
X0061609Y0230392D01*
X0061070Y0231990D02*
X0080138Y0231990D01*
X0080138Y0233589D02*
X0059745Y0233589D01*
X0061609Y0223998D02*
X0071905Y0223998D01*
X0071217Y0222399D02*
X0061609Y0222399D01*
X0061039Y0220801D02*
X0071217Y0220801D01*
X0071217Y0219202D02*
X0059670Y0219202D01*
X0053930Y0219202D02*
X0049670Y0219202D01*
X0051039Y0220801D02*
X0052561Y0220801D01*
X0051991Y0222399D02*
X0051609Y0222399D01*
X0051609Y0223998D02*
X0051991Y0223998D01*
X0051991Y0225596D02*
X0051609Y0225596D01*
X0043930Y0219202D02*
X0040066Y0219202D01*
X0040122Y0219243D02*
X0040690Y0219811D01*
X0041162Y0220460D01*
X0041526Y0221175D01*
X0041774Y0221939D01*
X0041900Y0222732D01*
X0041900Y0226133D01*
X0037100Y0226133D01*
X0037100Y0218033D01*
X0037201Y0218033D01*
X0037994Y0218159D01*
X0038758Y0218407D01*
X0039473Y0218771D01*
X0040122Y0219243D01*
X0041336Y0220801D02*
X0042561Y0220801D01*
X0041991Y0222399D02*
X0041847Y0222399D01*
X0041900Y0223998D02*
X0041991Y0223998D01*
X0041991Y0225596D02*
X0041900Y0225596D01*
X0041900Y0226733D02*
X0037100Y0226733D01*
X0037100Y0226133D01*
X0036500Y0226133D01*
X0036500Y0218033D01*
X0036399Y0218033D01*
X0035606Y0218159D01*
X0034842Y0218407D01*
X0034127Y0218771D01*
X0033478Y0219243D01*
X0032910Y0219811D01*
X0032438Y0220460D01*
X0032074Y0221175D01*
X0031826Y0221939D01*
X0031700Y0222732D01*
X0031700Y0226133D01*
X0036500Y0226133D01*
X0036500Y0226733D01*
X0031700Y0226733D01*
X0031700Y0230134D01*
X0031826Y0230927D01*
X0032074Y0231691D01*
X0032438Y0232406D01*
X0032910Y0233055D01*
X0033478Y0233623D01*
X0034127Y0234095D01*
X0034842Y0234459D01*
X0035606Y0234707D01*
X0036399Y0234833D01*
X0036500Y0234833D01*
X0036500Y0226733D01*
X0037100Y0226733D01*
X0037100Y0234833D01*
X0037201Y0234833D01*
X0037994Y0234707D01*
X0038758Y0234459D01*
X0039473Y0234095D01*
X0040122Y0233623D01*
X0040690Y0233055D01*
X0041162Y0232406D01*
X0041526Y0231691D01*
X0041774Y0230927D01*
X0041900Y0230134D01*
X0041900Y0226733D01*
X0041900Y0227195D02*
X0041991Y0227195D01*
X0041991Y0228793D02*
X0041900Y0228793D01*
X0041859Y0230392D02*
X0041991Y0230392D01*
X0042530Y0231990D02*
X0041374Y0231990D01*
X0040157Y0233589D02*
X0042791Y0233589D01*
X0042377Y0235187D02*
X0013584Y0235187D01*
X0013584Y0233589D02*
X0033443Y0233589D01*
X0032226Y0231990D02*
X0013584Y0231990D01*
X0013584Y0230392D02*
X0031741Y0230392D01*
X0031700Y0228793D02*
X0013584Y0228793D01*
X0013584Y0227195D02*
X0031700Y0227195D01*
X0031700Y0225596D02*
X0013584Y0225596D01*
X0013584Y0223998D02*
X0031700Y0223998D01*
X0031753Y0222399D02*
X0013584Y0222399D01*
X0013584Y0220801D02*
X0032264Y0220801D01*
X0033534Y0219202D02*
X0013584Y0219202D01*
X0013584Y0217604D02*
X0071991Y0217604D01*
X0071991Y0216005D02*
X0013584Y0216005D01*
X0013584Y0214407D02*
X0070429Y0214407D01*
X0070429Y0212808D02*
X0013584Y0212808D01*
X0013584Y0211210D02*
X0070429Y0211210D01*
X0071095Y0209611D02*
X0013584Y0209611D01*
X0013584Y0208013D02*
X0070465Y0208013D01*
X0070497Y0208070D02*
X0070260Y0207659D01*
X0070138Y0207202D01*
X0070138Y0205390D01*
X0074300Y0205390D01*
X0074300Y0205390D01*
X0074300Y0208765D01*
X0071701Y0208765D01*
X0071243Y0208642D01*
X0070833Y0208405D01*
X0070497Y0208070D01*
X0070138Y0206414D02*
X0013584Y0206414D01*
X0013584Y0204816D02*
X0070138Y0204816D01*
X0070138Y0205390D02*
X0070138Y0203578D01*
X0070260Y0203120D01*
X0070497Y0202710D01*
X0070833Y0202375D01*
X0071243Y0202138D01*
X0071701Y0202015D01*
X0074300Y0202015D01*
X0076899Y0202015D01*
X0077357Y0202138D01*
X0077767Y0202375D01*
X0078103Y0202710D01*
X0078340Y0203120D01*
X0078462Y0203578D01*
X0078462Y0205390D01*
X0078462Y0207202D01*
X0078340Y0207659D01*
X0078103Y0208070D01*
X0077767Y0208405D01*
X0077357Y0208642D01*
X0076899Y0208765D01*
X0074300Y0208765D01*
X0074300Y0205390D01*
X0078462Y0205390D01*
X0074300Y0205390D01*
X0074300Y0205390D01*
X0074300Y0205390D01*
X0070138Y0205390D01*
X0070234Y0203217D02*
X0013584Y0203217D01*
X0013584Y0201619D02*
X0081991Y0201619D01*
X0081991Y0203217D02*
X0078366Y0203217D01*
X0078462Y0204816D02*
X0081991Y0204816D01*
X0081991Y0206414D02*
X0078462Y0206414D01*
X0078135Y0208013D02*
X0081991Y0208013D01*
X0081991Y0209611D02*
X0077505Y0209611D01*
X0078171Y0211210D02*
X0081991Y0211210D01*
X0081991Y0212808D02*
X0078171Y0212808D01*
X0078171Y0214407D02*
X0081991Y0214407D01*
X0081991Y0216005D02*
X0076609Y0216005D01*
X0076609Y0217604D02*
X0081991Y0217604D01*
X0081991Y0219202D02*
X0077383Y0219202D01*
X0077383Y0220801D02*
X0081991Y0220801D01*
X0081991Y0222399D02*
X0077383Y0222399D01*
X0076695Y0223998D02*
X0080871Y0223998D01*
X0074300Y0220980D02*
X0074300Y0212476D01*
X0074300Y0208013D02*
X0074300Y0208013D01*
X0074300Y0206414D02*
X0074300Y0206414D01*
X0074300Y0205390D02*
X0074300Y0202015D01*
X0074300Y0205390D01*
X0074300Y0205390D01*
X0074300Y0204816D02*
X0074300Y0204816D01*
X0074300Y0203217D02*
X0074300Y0203217D01*
X0081991Y0200020D02*
X0013584Y0200020D01*
X0013584Y0198422D02*
X0081991Y0198422D01*
X0081991Y0196823D02*
X0013584Y0196823D01*
X0013584Y0195225D02*
X0081991Y0195225D01*
X0081991Y0193626D02*
X0013584Y0193626D01*
X0013584Y0192028D02*
X0081991Y0192028D01*
X0081991Y0190429D02*
X0013584Y0190429D01*
X0013584Y0188831D02*
X0081991Y0188831D01*
X0081991Y0187232D02*
X0013584Y0187232D01*
X0013584Y0185634D02*
X0081991Y0185634D01*
X0081991Y0184035D02*
X0013584Y0184035D01*
X0013584Y0182437D02*
X0081991Y0182437D01*
X0081991Y0180838D02*
X0013584Y0180838D01*
X0013584Y0179240D02*
X0081991Y0179240D01*
X0081991Y0177641D02*
X0013584Y0177641D01*
X0013584Y0176043D02*
X0081991Y0176043D01*
X0081991Y0174444D02*
X0013584Y0174444D01*
X0013584Y0172845D02*
X0081991Y0172845D01*
X0081991Y0171247D02*
X0013584Y0171247D01*
X0013584Y0169648D02*
X0081991Y0169648D01*
X0081991Y0168050D02*
X0013584Y0168050D01*
X0013584Y0166451D02*
X0081991Y0166451D01*
X0081991Y0164853D02*
X0050535Y0164853D01*
X0051493Y0164456D02*
X0048448Y0165717D01*
X0045152Y0165717D01*
X0042107Y0164456D01*
X0039777Y0162126D01*
X0038516Y0159081D01*
X0038516Y0155785D01*
X0039777Y0152740D01*
X0042107Y0150410D01*
X0045152Y0149149D01*
X0048448Y0149149D01*
X0051493Y0150410D01*
X0053823Y0152740D01*
X0055084Y0155785D01*
X0055084Y0159081D01*
X0053823Y0162126D01*
X0051493Y0164456D01*
X0052694Y0163254D02*
X0081991Y0163254D01*
X0081991Y0161656D02*
X0054018Y0161656D01*
X0054680Y0160057D02*
X0081991Y0160057D01*
X0081991Y0158459D02*
X0055084Y0158459D01*
X0055084Y0156860D02*
X0081991Y0156860D01*
X0081991Y0155262D02*
X0054867Y0155262D01*
X0054205Y0153663D02*
X0081991Y0153663D01*
X0081991Y0152065D02*
X0053147Y0152065D01*
X0051549Y0150466D02*
X0081991Y0150466D01*
X0081991Y0148868D02*
X0013584Y0148868D01*
X0013584Y0150466D02*
X0042051Y0150466D01*
X0040453Y0152065D02*
X0013584Y0152065D01*
X0013584Y0153663D02*
X0039395Y0153663D01*
X0038733Y0155262D02*
X0013584Y0155262D01*
X0013584Y0156860D02*
X0038516Y0156860D01*
X0038516Y0158459D02*
X0013584Y0158459D01*
X0013584Y0160057D02*
X0038920Y0160057D01*
X0039582Y0161656D02*
X0013584Y0161656D01*
X0013584Y0163254D02*
X0040906Y0163254D01*
X0043065Y0164853D02*
X0013584Y0164853D01*
X0013584Y0147269D02*
X0081991Y0147269D01*
X0081991Y0145671D02*
X0013584Y0145671D01*
X0013584Y0144072D02*
X0081991Y0144072D01*
X0081991Y0142474D02*
X0013584Y0142474D01*
X0013584Y0140875D02*
X0081991Y0140875D01*
X0081991Y0139277D02*
X0013584Y0139277D01*
X0013584Y0137678D02*
X0081991Y0137678D01*
X0081991Y0136080D02*
X0013584Y0136080D01*
X0013584Y0134481D02*
X0082987Y0134481D01*
X0084585Y0132883D02*
X0013584Y0132883D01*
X0013584Y0118496D02*
X0031705Y0118496D01*
X0029898Y0116898D02*
X0013584Y0116898D01*
X0013584Y0115299D02*
X0029228Y0115299D01*
X0029091Y0113701D02*
X0013584Y0113701D01*
X0013584Y0112102D02*
X0029421Y0112102D01*
X0030363Y0110504D02*
X0013584Y0110504D01*
X0013584Y0108905D02*
X0032693Y0108905D01*
X0030307Y0107307D02*
X0013584Y0107307D01*
X0013584Y0105708D02*
X0029397Y0105708D01*
X0029091Y0104110D02*
X0013584Y0104110D01*
X0013584Y0102511D02*
X0029251Y0102511D01*
X0029954Y0100912D02*
X0013584Y0100912D01*
X0013584Y0099314D02*
X0031841Y0099314D01*
X0030716Y0097715D02*
X0013584Y0097715D01*
X0013584Y0096117D02*
X0029567Y0096117D01*
X0029091Y0094518D02*
X0013584Y0094518D01*
X0013584Y0092920D02*
X0029091Y0092920D01*
X0029744Y0091321D02*
X0013584Y0091321D01*
X0013584Y0089723D02*
X0031144Y0089723D01*
X0030713Y0088124D02*
X0013584Y0088124D01*
X0013584Y0086526D02*
X0029448Y0086526D01*
X0028889Y0084927D02*
X0013584Y0084927D01*
X0013584Y0083329D02*
X0028827Y0083329D01*
X0029250Y0081730D02*
X0013584Y0081730D01*
X0013584Y0080132D02*
X0030323Y0080132D01*
X0031795Y0078533D02*
X0013584Y0078533D01*
X0013584Y0076935D02*
X0029936Y0076935D01*
X0029243Y0075336D02*
X0013584Y0075336D01*
X0013584Y0073738D02*
X0029091Y0073738D01*
X0029405Y0072139D02*
X0013584Y0072139D01*
X0013584Y0070541D02*
X0030326Y0070541D01*
X0032738Y0068942D02*
X0013584Y0068942D01*
X0013584Y0067344D02*
X0119475Y0067344D01*
X0119600Y0067469D02*
X0118717Y0066586D01*
X0118717Y0062186D01*
X0119470Y0061433D01*
X0118717Y0060680D01*
X0118717Y0056281D01*
X0119491Y0055506D01*
X0119491Y0054060D01*
X0118842Y0053410D01*
X0118310Y0052127D01*
X0118310Y0050739D01*
X0118842Y0049456D01*
X0119823Y0048475D01*
X0121106Y0047943D01*
X0122494Y0047943D01*
X0123777Y0048475D01*
X0124758Y0049456D01*
X0125290Y0050739D01*
X0125290Y0052127D01*
X0124758Y0053410D01*
X0124109Y0054060D01*
X0124109Y0055506D01*
X0124883Y0056281D01*
X0124883Y0060680D01*
X0124130Y0061433D01*
X0124322Y0061624D01*
X0127673Y0061624D01*
X0127673Y0060946D01*
X0128557Y0060062D01*
X0132956Y0060062D01*
X0133840Y0060946D01*
X0133840Y0066920D01*
X0132956Y0067804D01*
X0128557Y0067804D01*
X0127673Y0066920D01*
X0127673Y0066242D01*
X0124883Y0066242D01*
X0124883Y0066586D01*
X0124000Y0067469D01*
X0119600Y0067469D01*
X0118717Y0065745D02*
X0013584Y0065745D01*
X0013584Y0064147D02*
X0118717Y0064147D01*
X0118717Y0062548D02*
X0013584Y0062548D01*
X0013584Y0060950D02*
X0118986Y0060950D01*
X0118717Y0059351D02*
X0013584Y0059351D01*
X0013584Y0057753D02*
X0118717Y0057753D01*
X0118843Y0056154D02*
X0013584Y0056154D01*
X0013584Y0054556D02*
X0119491Y0054556D01*
X0118654Y0052957D02*
X0013584Y0052957D01*
X0013584Y0051359D02*
X0118310Y0051359D01*
X0118716Y0049760D02*
X0013584Y0049760D01*
X0013584Y0048162D02*
X0120579Y0048162D01*
X0123021Y0048162D02*
X0148991Y0048162D01*
X0148991Y0047877D02*
X0149800Y0045926D01*
X0151293Y0044433D01*
X0153244Y0043624D01*
X0155356Y0043624D01*
X0157307Y0044433D01*
X0158800Y0045926D01*
X0159300Y0047132D01*
X0159800Y0045926D01*
X0161293Y0044433D01*
X0163244Y0043624D01*
X0165356Y0043624D01*
X0167307Y0044433D01*
X0168800Y0045926D01*
X0169300Y0047132D01*
X0169800Y0045926D01*
X0171293Y0044433D01*
X0173244Y0043624D01*
X0175356Y0043624D01*
X0177307Y0044433D01*
X0178800Y0045926D01*
X0179300Y0047132D01*
X0179800Y0045926D01*
X0181293Y0044433D01*
X0183244Y0043624D01*
X0185356Y0043624D01*
X0187307Y0044433D01*
X0188800Y0045926D01*
X0189300Y0047132D01*
X0189800Y0045926D01*
X0191293Y0044433D01*
X0193244Y0043624D01*
X0195356Y0043624D01*
X0197307Y0044433D01*
X0198800Y0045926D01*
X0199300Y0047132D01*
X0199800Y0045926D01*
X0201293Y0044433D01*
X0203244Y0043624D01*
X0205356Y0043624D01*
X0207307Y0044433D01*
X0208800Y0045926D01*
X0209300Y0047132D01*
X0209800Y0045926D01*
X0211293Y0044433D01*
X0213244Y0043624D01*
X0215356Y0043624D01*
X0217307Y0044433D01*
X0218800Y0045926D01*
X0219300Y0047132D01*
X0219800Y0045926D01*
X0221293Y0044433D01*
X0223244Y0043624D01*
X0225356Y0043624D01*
X0227307Y0044433D01*
X0228800Y0045926D01*
X0229300Y0047132D01*
X0229800Y0045926D01*
X0231293Y0044433D01*
X0233244Y0043624D01*
X0235356Y0043624D01*
X0237307Y0044433D01*
X0238800Y0045926D01*
X0239300Y0047132D01*
X0239800Y0045926D01*
X0241293Y0044433D01*
X0243244Y0043624D01*
X0245356Y0043624D01*
X0247307Y0044433D01*
X0248800Y0045926D01*
X0249300Y0047132D01*
X0249800Y0045926D01*
X0251293Y0044433D01*
X0253244Y0043624D01*
X0255356Y0043624D01*
X0257307Y0044433D01*
X0258800Y0045926D01*
X0259300Y0047132D01*
X0259800Y0045926D01*
X0261293Y0044433D01*
X0263244Y0043624D01*
X0265356Y0043624D01*
X0267307Y0044433D01*
X0268800Y0045926D01*
X0269300Y0047132D01*
X0269800Y0045926D01*
X0271293Y0044433D01*
X0273244Y0043624D01*
X0275356Y0043624D01*
X0277307Y0044433D01*
X0278800Y0045926D01*
X0279135Y0046734D01*
X0279510Y0045998D01*
X0280029Y0045285D01*
X0280652Y0044662D01*
X0281365Y0044144D01*
X0282150Y0043743D01*
X0282989Y0043471D01*
X0283859Y0043333D01*
X0284017Y0043333D01*
X0284017Y0048650D01*
X0284583Y0048650D01*
X0284583Y0043333D01*
X0284741Y0043333D01*
X0285611Y0043471D01*
X0286450Y0043743D01*
X0287235Y0044144D01*
X0287948Y0044662D01*
X0288571Y0045285D01*
X0289090Y0045998D01*
X0289465Y0046734D01*
X0289800Y0045926D01*
X0291293Y0044433D01*
X0293244Y0043624D01*
X0295356Y0043624D01*
X0297307Y0044433D01*
X0298800Y0045926D01*
X0299300Y0047132D01*
X0299800Y0045926D01*
X0301293Y0044433D01*
X0303244Y0043624D01*
X0305356Y0043624D01*
X0307307Y0044433D01*
X0308800Y0045926D01*
X0309300Y0047132D01*
X0309800Y0045926D01*
X0311293Y0044433D01*
X0313244Y0043624D01*
X0315356Y0043624D01*
X0317307Y0044433D01*
X0318800Y0045926D01*
X0319609Y0047877D01*
X0319609Y0049989D01*
X0318800Y0051940D01*
X0317307Y0053434D01*
X0315356Y0054242D01*
X0313244Y0054242D01*
X0311293Y0053434D01*
X0309800Y0051940D01*
X0309300Y0050734D01*
X0308800Y0051940D01*
X0307307Y0053434D01*
X0305356Y0054242D01*
X0303244Y0054242D01*
X0301293Y0053434D01*
X0299800Y0051940D01*
X0299300Y0050734D01*
X0298800Y0051940D01*
X0297307Y0053434D01*
X0295356Y0054242D01*
X0293244Y0054242D01*
X0291293Y0053434D01*
X0289800Y0051940D01*
X0289465Y0051132D01*
X0289090Y0051868D01*
X0288571Y0052581D01*
X0287948Y0053205D01*
X0287235Y0053723D01*
X0286450Y0054123D01*
X0285611Y0054395D01*
X0284741Y0054533D01*
X0284583Y0054533D01*
X0284583Y0049216D01*
X0284017Y0049216D01*
X0284017Y0054533D01*
X0283859Y0054533D01*
X0282989Y0054395D01*
X0282150Y0054123D01*
X0281365Y0053723D01*
X0280652Y0053205D01*
X0280029Y0052581D01*
X0279510Y0051868D01*
X0279135Y0051132D01*
X0278800Y0051940D01*
X0277307Y0053434D01*
X0275356Y0054242D01*
X0273244Y0054242D01*
X0271293Y0053434D01*
X0269800Y0051940D01*
X0269300Y0050734D01*
X0268800Y0051940D01*
X0267307Y0053434D01*
X0265356Y0054242D01*
X0263244Y0054242D01*
X0261293Y0053434D01*
X0259800Y0051940D01*
X0259300Y0050734D01*
X0258800Y0051940D01*
X0257307Y0053434D01*
X0255356Y0054242D01*
X0253244Y0054242D01*
X0251293Y0053434D01*
X0249800Y0051940D01*
X0249300Y0050734D01*
X0248800Y0051940D01*
X0247307Y0053434D01*
X0245356Y0054242D01*
X0243244Y0054242D01*
X0241293Y0053434D01*
X0239800Y0051940D01*
X0239300Y0050734D01*
X0238800Y0051940D01*
X0237307Y0053434D01*
X0235356Y0054242D01*
X0233244Y0054242D01*
X0231293Y0053434D01*
X0229800Y0051940D01*
X0229300Y0050734D01*
X0228800Y0051940D01*
X0227307Y0053434D01*
X0225356Y0054242D01*
X0223244Y0054242D01*
X0221293Y0053434D01*
X0219800Y0051940D01*
X0219300Y0050734D01*
X0218800Y0051940D01*
X0217307Y0053434D01*
X0215356Y0054242D01*
X0213244Y0054242D01*
X0211293Y0053434D01*
X0209800Y0051940D01*
X0209300Y0050734D01*
X0208800Y0051940D01*
X0207307Y0053434D01*
X0205356Y0054242D01*
X0203244Y0054242D01*
X0201293Y0053434D01*
X0199800Y0051940D01*
X0199300Y0050734D01*
X0198800Y0051940D01*
X0197307Y0053434D01*
X0195356Y0054242D01*
X0193244Y0054242D01*
X0191293Y0053434D01*
X0189800Y0051940D01*
X0189300Y0050734D01*
X0188800Y0051940D01*
X0187307Y0053434D01*
X0185356Y0054242D01*
X0183244Y0054242D01*
X0181293Y0053434D01*
X0179800Y0051940D01*
X0179300Y0050734D01*
X0178800Y0051940D01*
X0177307Y0053434D01*
X0175356Y0054242D01*
X0173244Y0054242D01*
X0171293Y0053434D01*
X0169800Y0051940D01*
X0169300Y0050734D01*
X0168800Y0051940D01*
X0167307Y0053434D01*
X0165356Y0054242D01*
X0163244Y0054242D01*
X0161293Y0053434D01*
X0159800Y0051940D01*
X0159300Y0050734D01*
X0158800Y0051940D01*
X0157307Y0053434D01*
X0155356Y0054242D01*
X0153244Y0054242D01*
X0151293Y0053434D01*
X0149800Y0051940D01*
X0148991Y0049989D01*
X0148991Y0047877D01*
X0149536Y0046563D02*
X0013584Y0046563D01*
X0013584Y0044965D02*
X0150761Y0044965D01*
X0148991Y0049760D02*
X0124884Y0049760D01*
X0125290Y0051359D02*
X0149559Y0051359D01*
X0150816Y0052957D02*
X0124946Y0052957D01*
X0124109Y0054556D02*
X0333717Y0054556D01*
X0333717Y0056154D02*
X0124757Y0056154D01*
X0124883Y0057753D02*
X0333717Y0057753D01*
X0333717Y0059351D02*
X0124883Y0059351D01*
X0124614Y0060950D02*
X0127673Y0060950D01*
X0130757Y0063933D02*
X0122253Y0063933D01*
X0121800Y0064386D01*
X0124125Y0067344D02*
X0128097Y0067344D01*
X0133417Y0067344D02*
X0134795Y0067344D01*
X0134828Y0067400D02*
X0134591Y0066990D01*
X0134469Y0066532D01*
X0134468Y0063933D01*
X0134469Y0063933D02*
X0134469Y0061334D01*
X0134591Y0060876D01*
X0134828Y0060466D01*
X0135163Y0060130D01*
X0135574Y0059894D01*
X0136032Y0059771D01*
X0137843Y0059771D01*
X0137843Y0063933D01*
X0134469Y0063933D01*
X0134468Y0063933D02*
X0137843Y0063933D01*
X0137843Y0063933D01*
X0137843Y0063933D01*
X0137843Y0068095D01*
X0136032Y0068095D01*
X0135574Y0067973D01*
X0135163Y0067736D01*
X0134828Y0067400D01*
X0134469Y0065745D02*
X0133840Y0065745D01*
X0133840Y0064147D02*
X0134469Y0064147D01*
X0134469Y0062548D02*
X0133840Y0062548D01*
X0133840Y0060950D02*
X0134571Y0060950D01*
X0137843Y0060950D02*
X0137843Y0060950D01*
X0137843Y0059771D02*
X0139655Y0059771D01*
X0140113Y0059894D01*
X0140523Y0060130D01*
X0140858Y0060466D01*
X0141095Y0060876D01*
X0141218Y0061334D01*
X0141218Y0063933D01*
X0137843Y0063933D01*
X0137843Y0063933D01*
X0137843Y0059771D01*
X0137843Y0062548D02*
X0137843Y0062548D01*
X0137843Y0063933D02*
X0137843Y0063933D01*
X0137843Y0068095D01*
X0139655Y0068095D01*
X0140113Y0067973D01*
X0140523Y0067736D01*
X0140858Y0067400D01*
X0141095Y0066990D01*
X0141218Y0066532D01*
X0141218Y0063933D01*
X0137843Y0063933D01*
X0137843Y0064147D02*
X0137843Y0064147D01*
X0137843Y0065745D02*
X0137843Y0065745D01*
X0137843Y0067344D02*
X0137843Y0067344D01*
X0140891Y0067344D02*
X0333717Y0067344D01*
X0333717Y0068942D02*
X0035862Y0068942D01*
X0038274Y0070541D02*
X0333717Y0070541D01*
X0333717Y0072139D02*
X0039195Y0072139D01*
X0039509Y0073738D02*
X0115666Y0073738D01*
X0114485Y0074227D02*
X0117609Y0072933D01*
X0118803Y0072933D01*
X0120991Y0072933D01*
X0120991Y0072933D01*
X0124115Y0074227D01*
X0126506Y0076618D01*
X0127800Y0079742D01*
X0127800Y0083124D01*
X0126506Y0086248D01*
X0124115Y0088639D01*
X0124115Y0088639D01*
X0120991Y0089933D01*
X0117609Y0089933D01*
X0114485Y0088639D01*
X0112094Y0086248D01*
X0112094Y0086248D01*
X0110800Y0083124D01*
X0110800Y0079742D01*
X0112094Y0076618D01*
X0114485Y0074227D01*
X0114485Y0074227D01*
X0113376Y0075336D02*
X0039357Y0075336D01*
X0038664Y0076935D02*
X0111963Y0076935D01*
X0112094Y0076618D02*
X0112094Y0076618D01*
X0111301Y0078533D02*
X0036805Y0078533D01*
X0038277Y0080132D02*
X0110800Y0080132D01*
X0110800Y0081730D02*
X0039350Y0081730D01*
X0039773Y0083329D02*
X0110885Y0083329D01*
X0111547Y0084927D02*
X0039711Y0084927D01*
X0039152Y0086526D02*
X0112372Y0086526D01*
X0113971Y0088124D02*
X0037887Y0088124D01*
X0037456Y0089723D02*
X0117102Y0089723D01*
X0114485Y0088639D02*
X0114485Y0088639D01*
X0121498Y0089723D02*
X0312102Y0089723D01*
X0312609Y0089933D02*
X0309485Y0088639D01*
X0307094Y0086248D01*
X0305800Y0083124D01*
X0305800Y0079742D01*
X0307094Y0076618D01*
X0309485Y0074227D01*
X0309485Y0074227D01*
X0309485Y0074227D01*
X0312609Y0072933D01*
X0313803Y0072933D01*
X0315991Y0072933D01*
X0319115Y0074227D01*
X0321506Y0076618D01*
X0321506Y0076618D01*
X0322800Y0079742D01*
X0322800Y0083124D01*
X0321506Y0086248D01*
X0319115Y0088639D01*
X0319115Y0088639D01*
X0315991Y0089933D01*
X0312609Y0089933D01*
X0309485Y0088639D02*
X0309485Y0088639D01*
X0308971Y0088124D02*
X0124629Y0088124D01*
X0126228Y0086526D02*
X0307372Y0086526D01*
X0306547Y0084927D02*
X0127053Y0084927D01*
X0126506Y0086248D02*
X0126506Y0086248D01*
X0127715Y0083329D02*
X0305885Y0083329D01*
X0305800Y0081730D02*
X0127800Y0081730D01*
X0127800Y0080132D02*
X0305800Y0080132D01*
X0306301Y0078533D02*
X0127299Y0078533D01*
X0126637Y0076935D02*
X0306963Y0076935D01*
X0307094Y0076618D02*
X0307094Y0076618D01*
X0308376Y0075336D02*
X0125224Y0075336D01*
X0126506Y0076618D02*
X0126506Y0076618D01*
X0122934Y0073738D02*
X0310666Y0073738D01*
X0317934Y0073738D02*
X0333717Y0073738D01*
X0333717Y0075336D02*
X0320224Y0075336D01*
X0319115Y0074227D02*
X0319115Y0074227D01*
X0321637Y0076935D02*
X0333717Y0076935D01*
X0333717Y0078533D02*
X0322299Y0078533D01*
X0322800Y0080132D02*
X0333717Y0080132D01*
X0333717Y0081730D02*
X0322800Y0081730D01*
X0322715Y0083329D02*
X0333717Y0083329D01*
X0333717Y0084927D02*
X0322053Y0084927D01*
X0321506Y0086248D02*
X0321506Y0086248D01*
X0321228Y0086526D02*
X0333717Y0086526D01*
X0333717Y0088124D02*
X0319629Y0088124D01*
X0316498Y0089723D02*
X0333717Y0089723D01*
X0333717Y0091321D02*
X0038856Y0091321D01*
X0039509Y0092920D02*
X0333717Y0092920D01*
X0333717Y0094518D02*
X0039509Y0094518D01*
X0039033Y0096117D02*
X0333717Y0096117D01*
X0333717Y0097715D02*
X0037884Y0097715D01*
X0036759Y0099314D02*
X0333717Y0099314D01*
X0333717Y0100912D02*
X0038646Y0100912D01*
X0039349Y0102511D02*
X0333717Y0102511D01*
X0302073Y0104110D02*
X0296527Y0104110D01*
X0298583Y0105708D02*
X0300017Y0105708D01*
X0292073Y0104110D02*
X0286527Y0104110D01*
X0288583Y0105708D02*
X0290017Y0105708D01*
X0282073Y0104110D02*
X0276527Y0104110D01*
X0278583Y0105708D02*
X0280017Y0105708D01*
X0272073Y0104110D02*
X0267168Y0104110D01*
X0268879Y0105708D02*
X0270017Y0105708D01*
X0264583Y0105708D02*
X0264017Y0105708D01*
X0264017Y0104110D02*
X0264583Y0104110D01*
X0261432Y0104110D02*
X0256527Y0104110D01*
X0258583Y0105708D02*
X0259721Y0105708D01*
X0264017Y0107307D02*
X0264583Y0107307D01*
X0264583Y0110504D02*
X0264017Y0110504D01*
X0264017Y0112102D02*
X0264583Y0112102D01*
X0264583Y0113701D02*
X0264017Y0113701D01*
X0261335Y0113701D02*
X0256662Y0113701D01*
X0258639Y0112102D02*
X0259680Y0112102D01*
X0267265Y0113701D02*
X0271938Y0113701D01*
X0269961Y0112102D02*
X0268920Y0112102D01*
X0251938Y0113701D02*
X0246662Y0113701D01*
X0248639Y0112102D02*
X0249961Y0112102D01*
X0250017Y0105708D02*
X0248583Y0105708D01*
X0246527Y0104110D02*
X0252073Y0104110D01*
X0242073Y0104110D02*
X0236527Y0104110D01*
X0238583Y0105708D02*
X0240017Y0105708D01*
X0239961Y0112102D02*
X0238639Y0112102D01*
X0236662Y0113701D02*
X0241938Y0113701D01*
X0231938Y0113701D02*
X0226662Y0113701D01*
X0228639Y0112102D02*
X0229961Y0112102D01*
X0230017Y0105708D02*
X0228583Y0105708D01*
X0226527Y0104110D02*
X0232073Y0104110D01*
X0222073Y0104110D02*
X0216527Y0104110D01*
X0218583Y0105708D02*
X0220017Y0105708D01*
X0219961Y0112102D02*
X0218639Y0112102D01*
X0214300Y0108933D02*
X0214300Y0268933D01*
X0209749Y0276749D02*
X0333717Y0276749D01*
X0333717Y0278347D02*
X0208151Y0278347D01*
X0226609Y0260764D02*
X0238291Y0260764D01*
X0238291Y0259165D02*
X0226609Y0259165D01*
X0226609Y0257567D02*
X0238291Y0257567D01*
X0238291Y0255968D02*
X0226609Y0255968D01*
X0226609Y0254370D02*
X0238291Y0254370D01*
X0238291Y0252771D02*
X0226609Y0252771D01*
X0226609Y0251173D02*
X0238291Y0251173D01*
X0238291Y0249574D02*
X0226609Y0249574D01*
X0226609Y0247976D02*
X0238291Y0247976D01*
X0238291Y0246377D02*
X0226609Y0246377D01*
X0226609Y0244779D02*
X0238291Y0244779D01*
X0238291Y0243180D02*
X0226609Y0243180D01*
X0226609Y0241581D02*
X0238291Y0241581D01*
X0238291Y0239983D02*
X0226609Y0239983D01*
X0226609Y0238384D02*
X0238291Y0238384D01*
X0238291Y0236786D02*
X0235962Y0236786D01*
X0235962Y0236788D02*
X0235840Y0237246D01*
X0235603Y0237656D01*
X0235267Y0237992D01*
X0234857Y0238229D01*
X0234399Y0238351D01*
X0231800Y0238351D01*
X0231800Y0234977D01*
X0231800Y0238351D01*
X0229201Y0238351D01*
X0228743Y0238229D01*
X0228333Y0237992D01*
X0227997Y0237656D01*
X0227760Y0237246D01*
X0227638Y0236788D01*
X0227638Y0234976D01*
X0227638Y0233165D01*
X0227760Y0232707D01*
X0227997Y0232296D01*
X0228333Y0231961D01*
X0228743Y0231724D01*
X0229201Y0231602D01*
X0231800Y0231602D01*
X0234399Y0231602D01*
X0234857Y0231724D01*
X0235267Y0231961D01*
X0235603Y0232296D01*
X0235840Y0232707D01*
X0235962Y0233165D01*
X0235962Y0234976D01*
X0231800Y0234976D01*
X0231800Y0231602D01*
X0231800Y0234976D01*
X0231800Y0234976D01*
X0231800Y0234976D01*
X0227638Y0234976D01*
X0231800Y0234976D01*
X0231800Y0234976D01*
X0235962Y0234976D01*
X0235962Y0236788D01*
X0235962Y0235187D02*
X0238291Y0235187D01*
X0238291Y0233589D02*
X0235962Y0233589D01*
X0235297Y0231990D02*
X0238807Y0231990D01*
X0240379Y0230392D02*
X0235368Y0230392D01*
X0235671Y0228793D02*
X0241978Y0228793D01*
X0243576Y0227195D02*
X0235671Y0227195D01*
X0235577Y0225596D02*
X0245175Y0225596D01*
X0246773Y0223998D02*
X0234109Y0223998D01*
X0234109Y0222399D02*
X0247291Y0222399D01*
X0247291Y0220801D02*
X0234109Y0220801D01*
X0234576Y0219202D02*
X0240024Y0219202D01*
X0237870Y0217604D02*
X0236730Y0217604D01*
X0243576Y0219202D02*
X0247291Y0219202D01*
X0246870Y0217604D02*
X0245730Y0217604D01*
X0246293Y0206414D02*
X0246307Y0206414D01*
X0247317Y0204816D02*
X0245283Y0204816D01*
X0238317Y0204816D02*
X0236283Y0204816D01*
X0237293Y0206414D02*
X0237307Y0206414D01*
X0232800Y0211433D02*
X0231800Y0212433D01*
X0231800Y0227890D01*
X0227929Y0227195D02*
X0226609Y0227195D01*
X0226609Y0228793D02*
X0227929Y0228793D01*
X0228232Y0230392D02*
X0226609Y0230392D01*
X0226609Y0231990D02*
X0228303Y0231990D01*
X0227638Y0233589D02*
X0226609Y0233589D01*
X0226609Y0235187D02*
X0227638Y0235187D01*
X0227638Y0236786D02*
X0226609Y0236786D01*
X0231800Y0236786D02*
X0231800Y0236786D01*
X0231800Y0235187D02*
X0231800Y0235187D01*
X0231800Y0234977D02*
X0231800Y0234977D01*
X0231800Y0233589D02*
X0231800Y0233589D01*
X0231800Y0231990D02*
X0231800Y0231990D01*
X0228023Y0225596D02*
X0226609Y0225596D01*
X0226609Y0223998D02*
X0229491Y0223998D01*
X0229491Y0222399D02*
X0226609Y0222399D01*
X0226609Y0220801D02*
X0229491Y0220801D01*
X0229491Y0219202D02*
X0226609Y0219202D01*
X0226609Y0217604D02*
X0228870Y0217604D01*
X0228122Y0216005D02*
X0226609Y0216005D01*
X0226609Y0214407D02*
X0227991Y0214407D01*
X0227991Y0212808D02*
X0226609Y0212808D01*
X0226609Y0211210D02*
X0227991Y0211210D01*
X0227991Y0209611D02*
X0226609Y0209611D01*
X0226609Y0208013D02*
X0227991Y0208013D01*
X0228307Y0206414D02*
X0226609Y0206414D01*
X0226609Y0204816D02*
X0229317Y0204816D01*
X0211991Y0204816D02*
X0206609Y0204816D01*
X0206609Y0206414D02*
X0211991Y0206414D01*
X0211991Y0208013D02*
X0209475Y0208013D01*
X0210290Y0209611D02*
X0211991Y0209611D01*
X0211991Y0211210D02*
X0210290Y0211210D01*
X0210290Y0212808D02*
X0211991Y0212808D01*
X0211991Y0214407D02*
X0209922Y0214407D01*
X0211991Y0216005D02*
X0200478Y0216005D01*
X0200609Y0214407D02*
X0203678Y0214407D01*
X0203310Y0212808D02*
X0200609Y0212808D01*
X0200609Y0211210D02*
X0203310Y0211210D01*
X0201991Y0209611D02*
X0200609Y0209611D01*
X0200609Y0208013D02*
X0201991Y0208013D01*
X0201991Y0206414D02*
X0200293Y0206414D01*
X0199283Y0204816D02*
X0201991Y0204816D01*
X0201991Y0203217D02*
X0166609Y0203217D01*
X0166609Y0201619D02*
X0201991Y0201619D01*
X0201991Y0200020D02*
X0166609Y0200020D01*
X0166609Y0198422D02*
X0201991Y0198422D01*
X0201991Y0196823D02*
X0166609Y0196823D01*
X0166609Y0195225D02*
X0201991Y0195225D01*
X0201991Y0193626D02*
X0166609Y0193626D01*
X0166609Y0192028D02*
X0201991Y0192028D01*
X0201991Y0190429D02*
X0166609Y0190429D01*
X0166609Y0188831D02*
X0201991Y0188831D01*
X0201991Y0187232D02*
X0166609Y0187232D01*
X0166609Y0185634D02*
X0201991Y0185634D01*
X0201991Y0184035D02*
X0166609Y0184035D01*
X0166609Y0182437D02*
X0201991Y0182437D01*
X0201991Y0180838D02*
X0166609Y0180838D01*
X0166609Y0179240D02*
X0183999Y0179240D01*
X0185152Y0179717D02*
X0182107Y0178456D01*
X0179777Y0176126D01*
X0178516Y0173081D01*
X0178516Y0169785D01*
X0179777Y0166740D01*
X0182107Y0164410D01*
X0185152Y0163149D01*
X0188448Y0163149D01*
X0191493Y0164410D01*
X0193823Y0166740D01*
X0195084Y0169785D01*
X0195084Y0173081D01*
X0193823Y0176126D01*
X0191493Y0178456D01*
X0188448Y0179717D01*
X0185152Y0179717D01*
X0181292Y0177641D02*
X0166609Y0177641D01*
X0166609Y0176043D02*
X0179742Y0176043D01*
X0179080Y0174444D02*
X0166609Y0174444D01*
X0166609Y0172845D02*
X0178516Y0172845D01*
X0178516Y0171247D02*
X0166609Y0171247D01*
X0166609Y0169648D02*
X0178572Y0169648D01*
X0179235Y0168050D02*
X0166609Y0168050D01*
X0166609Y0166451D02*
X0180066Y0166451D01*
X0181664Y0164853D02*
X0166609Y0164853D01*
X0166609Y0163254D02*
X0184897Y0163254D01*
X0188703Y0163254D02*
X0201991Y0163254D01*
X0201991Y0161656D02*
X0166609Y0161656D01*
X0166609Y0160057D02*
X0201991Y0160057D01*
X0201991Y0158459D02*
X0166609Y0158459D01*
X0167138Y0156860D02*
X0201991Y0156860D01*
X0201991Y0155262D02*
X0168736Y0155262D01*
X0170335Y0153663D02*
X0201991Y0153663D01*
X0201991Y0152065D02*
X0171933Y0152065D01*
X0168600Y0148868D02*
X0157630Y0148868D01*
X0156032Y0150466D02*
X0167002Y0150466D01*
X0165403Y0152065D02*
X0154433Y0152065D01*
X0152835Y0153663D02*
X0163805Y0153663D01*
X0162206Y0155262D02*
X0152107Y0155262D01*
X0152106Y0156860D02*
X0161991Y0156860D01*
X0161991Y0158459D02*
X0152105Y0158459D01*
X0152104Y0160057D02*
X0161991Y0160057D01*
X0161991Y0161656D02*
X0152103Y0161656D01*
X0152102Y0163254D02*
X0161991Y0163254D01*
X0161991Y0164853D02*
X0152101Y0164853D01*
X0152100Y0166451D02*
X0161991Y0166451D01*
X0161991Y0168050D02*
X0152099Y0168050D01*
X0152098Y0169648D02*
X0161991Y0169648D01*
X0161991Y0171247D02*
X0152097Y0171247D01*
X0152096Y0172845D02*
X0161991Y0172845D01*
X0161991Y0174444D02*
X0152095Y0174444D01*
X0152094Y0176043D02*
X0161991Y0176043D01*
X0161991Y0177641D02*
X0152093Y0177641D01*
X0152091Y0179240D02*
X0161991Y0179240D01*
X0161991Y0180838D02*
X0152090Y0180838D01*
X0152089Y0182437D02*
X0161991Y0182437D01*
X0161991Y0184035D02*
X0152088Y0184035D01*
X0152087Y0185634D02*
X0161991Y0185634D01*
X0161991Y0187232D02*
X0152086Y0187232D01*
X0152085Y0188831D02*
X0161991Y0188831D01*
X0161991Y0190429D02*
X0152084Y0190429D01*
X0152083Y0192028D02*
X0161991Y0192028D01*
X0161991Y0193626D02*
X0152082Y0193626D01*
X0152081Y0195225D02*
X0161991Y0195225D01*
X0161991Y0196823D02*
X0152080Y0196823D01*
X0152079Y0198422D02*
X0161991Y0198422D01*
X0161991Y0200020D02*
X0152078Y0200020D01*
X0152077Y0201619D02*
X0161991Y0201619D01*
X0161991Y0203217D02*
X0152075Y0203217D01*
X0152074Y0204816D02*
X0161991Y0204816D01*
X0161991Y0206414D02*
X0152073Y0206414D01*
X0152072Y0208013D02*
X0161991Y0208013D01*
X0161991Y0209611D02*
X0152071Y0209611D01*
X0152070Y0211210D02*
X0163312Y0211210D01*
X0164910Y0212808D02*
X0152069Y0212808D01*
X0152068Y0214407D02*
X0154551Y0214407D01*
X0154574Y0214394D02*
X0155032Y0214271D01*
X0156843Y0214271D01*
X0156843Y0218433D01*
X0153469Y0218433D01*
X0153469Y0215834D01*
X0153591Y0215376D01*
X0153828Y0214966D01*
X0154163Y0214630D01*
X0154574Y0214394D01*
X0153469Y0216005D02*
X0152840Y0216005D01*
X0152840Y0217604D02*
X0153469Y0217604D01*
X0153468Y0218433D02*
X0156843Y0218433D01*
X0156843Y0218433D01*
X0156843Y0218433D01*
X0156843Y0222595D01*
X0155032Y0222595D01*
X0154574Y0222473D01*
X0154163Y0222236D01*
X0153828Y0221900D01*
X0153591Y0221490D01*
X0153469Y0221032D01*
X0153468Y0218433D01*
X0153469Y0219202D02*
X0152840Y0219202D01*
X0152840Y0220801D02*
X0153469Y0220801D01*
X0154447Y0222399D02*
X0152065Y0222399D01*
X0152065Y0223998D02*
X0174491Y0223998D01*
X0174491Y0222399D02*
X0159240Y0222399D01*
X0159113Y0222473D02*
X0158655Y0222595D01*
X0156843Y0222595D01*
X0156843Y0218433D01*
X0156843Y0218433D01*
X0156843Y0214271D01*
X0158655Y0214271D01*
X0159113Y0214394D01*
X0159523Y0214630D01*
X0159858Y0214966D01*
X0160095Y0215376D01*
X0160218Y0215834D01*
X0160218Y0218433D01*
X0156843Y0218433D01*
X0156843Y0218433D01*
X0160218Y0218433D01*
X0160218Y0221032D01*
X0160095Y0221490D01*
X0159858Y0221900D01*
X0159523Y0222236D01*
X0159113Y0222473D01*
X0160218Y0220801D02*
X0174491Y0220801D01*
X0174491Y0219202D02*
X0160218Y0219202D01*
X0160218Y0217604D02*
X0173870Y0217604D01*
X0173122Y0216005D02*
X0160218Y0216005D01*
X0159136Y0214407D02*
X0172991Y0214407D01*
X0172991Y0208013D02*
X0166645Y0208013D01*
X0166609Y0206414D02*
X0173307Y0206414D01*
X0174317Y0204816D02*
X0166609Y0204816D01*
X0156843Y0214407D02*
X0156843Y0214407D01*
X0156843Y0216005D02*
X0156843Y0216005D01*
X0156843Y0217604D02*
X0156843Y0217604D01*
X0156843Y0219202D02*
X0156843Y0219202D01*
X0156843Y0220801D02*
X0156843Y0220801D01*
X0156843Y0222399D02*
X0156843Y0222399D01*
X0152065Y0225596D02*
X0173023Y0225596D01*
X0172929Y0227195D02*
X0151803Y0227195D01*
X0150205Y0228793D02*
X0172929Y0228793D01*
X0173232Y0230392D02*
X0148606Y0230392D01*
X0146872Y0225596D02*
X0142383Y0225596D01*
X0142383Y0223998D02*
X0147448Y0223998D01*
X0147448Y0222399D02*
X0142383Y0222399D01*
X0141904Y0220801D02*
X0146673Y0220801D01*
X0146673Y0219202D02*
X0141609Y0219202D01*
X0142743Y0217604D02*
X0146673Y0217604D01*
X0146673Y0216005D02*
X0143171Y0216005D01*
X0143171Y0214407D02*
X0147451Y0214407D01*
X0147452Y0212808D02*
X0143171Y0212808D01*
X0142357Y0211142D02*
X0141899Y0211265D01*
X0139300Y0211265D01*
X0136701Y0211265D01*
X0136243Y0211142D01*
X0135833Y0210905D01*
X0135497Y0210570D01*
X0135260Y0210159D01*
X0135138Y0209702D01*
X0135138Y0207890D01*
X0139300Y0207890D01*
X0139300Y0207890D01*
X0139300Y0211265D01*
X0139300Y0207890D01*
X0143462Y0207890D01*
X0143462Y0209702D01*
X0143340Y0210159D01*
X0143103Y0210570D01*
X0142767Y0210905D01*
X0142357Y0211142D01*
X0142104Y0211210D02*
X0147453Y0211210D01*
X0147454Y0209611D02*
X0143462Y0209611D01*
X0143462Y0208013D02*
X0147455Y0208013D01*
X0147456Y0206414D02*
X0143462Y0206414D01*
X0143462Y0206078D02*
X0143462Y0207890D01*
X0139300Y0207890D01*
X0139300Y0207890D01*
X0139300Y0207890D01*
X0135138Y0207890D01*
X0135138Y0206078D01*
X0135260Y0205620D01*
X0135497Y0205210D01*
X0135833Y0204875D01*
X0136243Y0204638D01*
X0136701Y0204515D01*
X0139300Y0204515D01*
X0141899Y0204515D01*
X0142357Y0204638D01*
X0142767Y0204875D01*
X0143103Y0205210D01*
X0143340Y0205620D01*
X0143462Y0206078D01*
X0142665Y0204816D02*
X0147457Y0204816D01*
X0147458Y0203217D02*
X0086609Y0203217D01*
X0086609Y0201619D02*
X0147459Y0201619D01*
X0147460Y0200020D02*
X0086609Y0200020D01*
X0086609Y0198422D02*
X0147461Y0198422D01*
X0147462Y0196823D02*
X0086609Y0196823D01*
X0086609Y0195225D02*
X0147463Y0195225D01*
X0147465Y0193626D02*
X0086609Y0193626D01*
X0086609Y0192028D02*
X0147466Y0192028D01*
X0147467Y0190429D02*
X0086609Y0190429D01*
X0086609Y0188831D02*
X0147468Y0188831D01*
X0147469Y0187232D02*
X0086609Y0187232D01*
X0086609Y0185634D02*
X0147470Y0185634D01*
X0147471Y0184035D02*
X0086609Y0184035D01*
X0086609Y0182437D02*
X0147472Y0182437D01*
X0147473Y0180838D02*
X0086609Y0180838D01*
X0086609Y0179240D02*
X0147474Y0179240D01*
X0147475Y0177641D02*
X0086609Y0177641D01*
X0086609Y0176043D02*
X0147476Y0176043D01*
X0147477Y0174444D02*
X0086609Y0174444D01*
X0086609Y0172845D02*
X0147478Y0172845D01*
X0147479Y0171247D02*
X0086609Y0171247D01*
X0086609Y0169648D02*
X0147481Y0169648D01*
X0147482Y0168050D02*
X0086609Y0168050D01*
X0086609Y0166451D02*
X0147483Y0166451D01*
X0147484Y0164853D02*
X0118035Y0164853D01*
X0118993Y0164456D02*
X0115948Y0165717D01*
X0112652Y0165717D01*
X0109607Y0164456D01*
X0107277Y0162126D01*
X0106016Y0159081D01*
X0106016Y0155785D01*
X0107277Y0152740D01*
X0109607Y0150410D01*
X0112652Y0149149D01*
X0115948Y0149149D01*
X0118993Y0150410D01*
X0121323Y0152740D01*
X0122584Y0155785D01*
X0122584Y0159081D01*
X0121323Y0162126D01*
X0118993Y0164456D01*
X0120194Y0163254D02*
X0147485Y0163254D01*
X0147486Y0161656D02*
X0121518Y0161656D01*
X0122180Y0160057D02*
X0147487Y0160057D01*
X0147488Y0158459D02*
X0122584Y0158459D01*
X0122584Y0156860D02*
X0147489Y0156860D01*
X0147490Y0155262D02*
X0122367Y0155262D01*
X0121705Y0153663D02*
X0147491Y0153663D01*
X0147903Y0152065D02*
X0120647Y0152065D01*
X0119049Y0150466D02*
X0149502Y0150466D01*
X0151100Y0148868D02*
X0086609Y0148868D01*
X0086609Y0150466D02*
X0109551Y0150466D01*
X0107953Y0152065D02*
X0086609Y0152065D01*
X0086609Y0153663D02*
X0106895Y0153663D01*
X0106233Y0155262D02*
X0086609Y0155262D01*
X0086609Y0156860D02*
X0106016Y0156860D01*
X0106016Y0158459D02*
X0086609Y0158459D01*
X0086609Y0160057D02*
X0106420Y0160057D01*
X0107082Y0161656D02*
X0086609Y0161656D01*
X0086609Y0163254D02*
X0108406Y0163254D01*
X0110565Y0164853D02*
X0086609Y0164853D01*
X0086609Y0147269D02*
X0152699Y0147269D01*
X0154297Y0145671D02*
X0086609Y0145671D01*
X0086609Y0144072D02*
X0155896Y0144072D01*
X0157494Y0142474D02*
X0086609Y0142474D01*
X0086609Y0140875D02*
X0171593Y0140875D01*
X0173191Y0139277D02*
X0086609Y0139277D01*
X0086609Y0137678D02*
X0174790Y0137678D01*
X0170199Y0147269D02*
X0159229Y0147269D01*
X0181800Y0148933D02*
X0194300Y0136433D01*
X0194300Y0108933D01*
X0196662Y0113701D02*
X0201938Y0113701D01*
X0201991Y0115299D02*
X0196609Y0115299D01*
X0196609Y0116898D02*
X0201991Y0116898D01*
X0201991Y0118496D02*
X0196609Y0118496D01*
X0196609Y0120095D02*
X0201991Y0120095D01*
X0201991Y0121693D02*
X0196609Y0121693D01*
X0196609Y0123292D02*
X0201991Y0123292D01*
X0201991Y0124890D02*
X0196609Y0124890D01*
X0196609Y0126489D02*
X0201991Y0126489D01*
X0201991Y0128087D02*
X0196609Y0128087D01*
X0196609Y0129686D02*
X0201991Y0129686D01*
X0201991Y0131284D02*
X0196609Y0131284D01*
X0196609Y0132883D02*
X0201991Y0132883D01*
X0201991Y0134481D02*
X0196609Y0134481D01*
X0196609Y0136080D02*
X0201991Y0136080D01*
X0201991Y0137678D02*
X0196320Y0137678D01*
X0194721Y0139277D02*
X0201991Y0139277D01*
X0201991Y0140875D02*
X0193123Y0140875D01*
X0191524Y0142474D02*
X0201991Y0142474D01*
X0201991Y0144072D02*
X0189926Y0144072D01*
X0188327Y0145671D02*
X0201991Y0145671D01*
X0201991Y0147269D02*
X0186729Y0147269D01*
X0185130Y0148868D02*
X0201991Y0148868D01*
X0201991Y0150466D02*
X0183532Y0150466D01*
X0191936Y0164853D02*
X0201991Y0164853D01*
X0201991Y0166451D02*
X0193534Y0166451D01*
X0194365Y0168050D02*
X0201991Y0168050D01*
X0201991Y0169648D02*
X0195028Y0169648D01*
X0195084Y0171247D02*
X0201991Y0171247D01*
X0201991Y0172845D02*
X0195084Y0172845D01*
X0194520Y0174444D02*
X0201991Y0174444D01*
X0201991Y0176043D02*
X0193858Y0176043D01*
X0192308Y0177641D02*
X0201991Y0177641D01*
X0201991Y0179240D02*
X0189601Y0179240D01*
X0206609Y0179240D02*
X0211991Y0179240D01*
X0211991Y0180838D02*
X0206609Y0180838D01*
X0206609Y0182437D02*
X0211991Y0182437D01*
X0211991Y0184035D02*
X0206609Y0184035D01*
X0206609Y0185634D02*
X0211991Y0185634D01*
X0211991Y0187232D02*
X0206609Y0187232D01*
X0206609Y0188831D02*
X0211991Y0188831D01*
X0211991Y0190429D02*
X0206609Y0190429D01*
X0206609Y0192028D02*
X0211991Y0192028D01*
X0211991Y0193626D02*
X0206609Y0193626D01*
X0206609Y0195225D02*
X0211991Y0195225D01*
X0211991Y0196823D02*
X0206609Y0196823D01*
X0206609Y0198422D02*
X0211991Y0198422D01*
X0211991Y0200020D02*
X0206609Y0200020D01*
X0206609Y0201619D02*
X0211991Y0201619D01*
X0211991Y0203217D02*
X0206609Y0203217D01*
X0204300Y0208933D02*
X0206800Y0211433D01*
X0204300Y0208933D02*
X0204300Y0108933D01*
X0206662Y0113701D02*
X0211938Y0113701D01*
X0211991Y0115299D02*
X0206609Y0115299D01*
X0206609Y0116898D02*
X0211991Y0116898D01*
X0211991Y0118496D02*
X0206609Y0118496D01*
X0206609Y0120095D02*
X0211991Y0120095D01*
X0211991Y0121693D02*
X0206609Y0121693D01*
X0206609Y0123292D02*
X0211991Y0123292D01*
X0211991Y0124890D02*
X0206609Y0124890D01*
X0206609Y0126489D02*
X0211991Y0126489D01*
X0211991Y0128087D02*
X0206609Y0128087D01*
X0206609Y0129686D02*
X0211991Y0129686D01*
X0211991Y0131284D02*
X0206609Y0131284D01*
X0206609Y0132883D02*
X0211991Y0132883D01*
X0211991Y0134481D02*
X0206609Y0134481D01*
X0206609Y0136080D02*
X0211991Y0136080D01*
X0211991Y0137678D02*
X0206609Y0137678D01*
X0206609Y0139277D02*
X0211991Y0139277D01*
X0211991Y0140875D02*
X0206609Y0140875D01*
X0206609Y0142474D02*
X0211991Y0142474D01*
X0211991Y0144072D02*
X0206609Y0144072D01*
X0206609Y0145671D02*
X0211991Y0145671D01*
X0211991Y0147269D02*
X0206609Y0147269D01*
X0206609Y0148868D02*
X0211991Y0148868D01*
X0211991Y0150466D02*
X0206609Y0150466D01*
X0206609Y0152065D02*
X0211991Y0152065D01*
X0211991Y0153663D02*
X0206609Y0153663D01*
X0206609Y0155262D02*
X0211991Y0155262D01*
X0211991Y0156860D02*
X0206609Y0156860D01*
X0206609Y0158459D02*
X0211991Y0158459D01*
X0211991Y0160057D02*
X0206609Y0160057D01*
X0206609Y0161656D02*
X0211991Y0161656D01*
X0211991Y0163254D02*
X0206609Y0163254D01*
X0206609Y0164853D02*
X0211991Y0164853D01*
X0211991Y0166451D02*
X0206609Y0166451D01*
X0206609Y0168050D02*
X0211991Y0168050D01*
X0211991Y0169648D02*
X0206609Y0169648D01*
X0206609Y0171247D02*
X0211991Y0171247D01*
X0211991Y0172845D02*
X0206609Y0172845D01*
X0206609Y0174444D02*
X0211991Y0174444D01*
X0211991Y0176043D02*
X0206609Y0176043D01*
X0206609Y0177641D02*
X0211991Y0177641D01*
X0192317Y0204816D02*
X0190283Y0204816D01*
X0191293Y0206414D02*
X0191307Y0206414D01*
X0183317Y0204816D02*
X0181283Y0204816D01*
X0182293Y0206414D02*
X0182307Y0206414D01*
X0173303Y0231990D02*
X0161878Y0231990D01*
X0163477Y0233589D02*
X0172638Y0233589D01*
X0172638Y0235187D02*
X0164449Y0235187D01*
X0165111Y0236786D02*
X0172638Y0236786D01*
X0176800Y0236786D02*
X0176800Y0236786D01*
X0176800Y0235187D02*
X0176800Y0235187D01*
X0176800Y0234977D02*
X0176800Y0234977D01*
X0183291Y0244779D02*
X0162975Y0244779D01*
X0161040Y0246377D02*
X0183291Y0246377D01*
X0183291Y0247976D02*
X0146366Y0247976D01*
X0145459Y0249574D02*
X0183291Y0249574D01*
X0183291Y0251173D02*
X0142923Y0251173D01*
X0140677Y0251173D02*
X0140325Y0251173D01*
X0138727Y0252771D02*
X0183291Y0252771D01*
X0183291Y0254370D02*
X0137128Y0254370D01*
X0135530Y0255968D02*
X0183291Y0255968D01*
X0183291Y0257567D02*
X0133931Y0257567D01*
X0132197Y0252771D02*
X0105809Y0252771D01*
X0105809Y0251173D02*
X0133796Y0251173D01*
X0135394Y0249574D02*
X0105809Y0249574D01*
X0106366Y0247976D02*
X0136993Y0247976D01*
X0136991Y0246377D02*
X0107525Y0246377D01*
X0109124Y0244779D02*
X0137280Y0244779D01*
X0138253Y0243180D02*
X0110722Y0243180D01*
X0102581Y0239983D02*
X0048919Y0239983D01*
X0047321Y0241581D02*
X0100982Y0241581D01*
X0098253Y0243180D02*
X0080347Y0243180D01*
X0081320Y0244779D02*
X0097280Y0244779D01*
X0096991Y0246377D02*
X0081609Y0246377D01*
X0081366Y0247976D02*
X0097234Y0247976D01*
X0097791Y0249574D02*
X0080459Y0249574D01*
X0077923Y0251173D02*
X0097791Y0251173D01*
X0097791Y0252771D02*
X0073727Y0252771D01*
X0075325Y0251173D02*
X0075677Y0251173D01*
X0072128Y0254370D02*
X0097791Y0254370D01*
X0097791Y0255968D02*
X0070530Y0255968D01*
X0068931Y0257567D02*
X0097791Y0257567D01*
X0097791Y0259165D02*
X0052333Y0259165D01*
X0050734Y0260764D02*
X0097791Y0260764D01*
X0096591Y0262362D02*
X0060095Y0262362D01*
X0061414Y0263961D02*
X0096591Y0263961D01*
X0096591Y0265559D02*
X0062009Y0265559D01*
X0062009Y0267158D02*
X0096591Y0267158D01*
X0096591Y0268756D02*
X0061476Y0268756D01*
X0060245Y0270355D02*
X0096591Y0270355D01*
X0107009Y0270355D02*
X0108355Y0270355D01*
X0107124Y0268756D02*
X0107009Y0268756D01*
X0107009Y0263961D02*
X0107186Y0263961D01*
X0107009Y0262362D02*
X0108505Y0262362D01*
X0109491Y0260764D02*
X0105809Y0260764D01*
X0105809Y0259165D02*
X0110803Y0259165D01*
X0112402Y0257567D02*
X0105809Y0257567D01*
X0105809Y0255968D02*
X0114000Y0255968D01*
X0115599Y0254370D02*
X0105809Y0254370D01*
X0117333Y0259165D02*
X0183291Y0259165D01*
X0171591Y0262362D02*
X0125095Y0262362D01*
X0126414Y0263961D02*
X0171591Y0263961D01*
X0171591Y0265559D02*
X0127009Y0265559D01*
X0127009Y0267158D02*
X0171591Y0267158D01*
X0171591Y0268756D02*
X0126476Y0268756D01*
X0125245Y0270355D02*
X0171591Y0270355D01*
X0174491Y0271953D02*
X0013584Y0271953D01*
X0013584Y0270355D02*
X0031591Y0270355D01*
X0031591Y0268756D02*
X0013584Y0268756D01*
X0013584Y0267158D02*
X0031591Y0267158D01*
X0031591Y0265559D02*
X0013584Y0265559D01*
X0013584Y0263961D02*
X0031591Y0263961D01*
X0031591Y0262362D02*
X0013584Y0262362D01*
X0013584Y0260764D02*
X0032791Y0260764D01*
X0032791Y0259165D02*
X0013584Y0259165D01*
X0013584Y0257567D02*
X0032791Y0257567D01*
X0032791Y0255968D02*
X0013584Y0255968D01*
X0013584Y0254370D02*
X0032791Y0254370D01*
X0032791Y0252771D02*
X0013584Y0252771D01*
X0013584Y0251173D02*
X0032791Y0251173D01*
X0032791Y0249574D02*
X0013584Y0249574D01*
X0013584Y0247976D02*
X0032234Y0247976D01*
X0031991Y0246377D02*
X0013584Y0246377D01*
X0013584Y0244779D02*
X0032280Y0244779D01*
X0033253Y0243180D02*
X0013584Y0243180D01*
X0013584Y0241581D02*
X0035982Y0241581D01*
X0037581Y0239983D02*
X0013584Y0239983D01*
X0013584Y0238384D02*
X0039180Y0238384D01*
X0040778Y0236786D02*
X0013584Y0236786D01*
X0036500Y0233589D02*
X0037100Y0233589D01*
X0037100Y0231990D02*
X0036500Y0231990D01*
X0036500Y0230392D02*
X0037100Y0230392D01*
X0037100Y0228793D02*
X0036500Y0228793D01*
X0036500Y0227195D02*
X0037100Y0227195D01*
X0037100Y0225596D02*
X0036500Y0225596D01*
X0036500Y0223998D02*
X0037100Y0223998D01*
X0037100Y0222399D02*
X0036500Y0222399D01*
X0036500Y0220801D02*
X0037100Y0220801D01*
X0037100Y0219202D02*
X0036500Y0219202D01*
X0045722Y0243180D02*
X0073253Y0243180D01*
X0072280Y0244779D02*
X0044124Y0244779D01*
X0042525Y0246377D02*
X0071991Y0246377D01*
X0071993Y0247976D02*
X0041366Y0247976D01*
X0040809Y0249574D02*
X0070394Y0249574D01*
X0068796Y0251173D02*
X0040809Y0251173D01*
X0040809Y0252771D02*
X0067197Y0252771D01*
X0066800Y0256433D02*
X0076800Y0246433D01*
X0066800Y0256433D02*
X0051800Y0256433D01*
X0046800Y0261433D01*
X0046800Y0266433D01*
X0051476Y0268756D02*
X0052124Y0268756D01*
X0053355Y0270355D02*
X0050245Y0270355D01*
X0051414Y0263961D02*
X0052186Y0263961D01*
X0053505Y0262362D02*
X0050095Y0262362D01*
X0045803Y0259165D02*
X0040809Y0259165D01*
X0040809Y0257567D02*
X0047402Y0257567D01*
X0049000Y0255968D02*
X0040809Y0255968D01*
X0040809Y0254370D02*
X0050599Y0254370D01*
X0044491Y0260764D02*
X0040809Y0260764D01*
X0042009Y0262362D02*
X0043505Y0262362D01*
X0042186Y0263961D02*
X0042009Y0263961D01*
X0042009Y0268756D02*
X0042124Y0268756D01*
X0042009Y0270355D02*
X0043355Y0270355D01*
X0013584Y0273552D02*
X0174491Y0273552D01*
X0174752Y0275150D02*
X0013584Y0275150D01*
X0013584Y0276749D02*
X0176351Y0276749D01*
X0177949Y0278347D02*
X0013584Y0278347D01*
X0013584Y0279946D02*
X0333717Y0279946D01*
X0333717Y0281544D02*
X0013584Y0281544D01*
X0013584Y0283143D02*
X0333717Y0283143D01*
X0333717Y0284609D02*
X0333717Y0038217D01*
X0013584Y0038217D01*
X0013584Y0284609D01*
X0333717Y0284609D01*
X0139300Y0223480D02*
X0139300Y0214976D01*
X0139300Y0211210D02*
X0139300Y0211210D01*
X0139300Y0209611D02*
X0139300Y0209611D01*
X0139300Y0208013D02*
X0139300Y0208013D01*
X0139300Y0207890D02*
X0139300Y0204515D01*
X0139300Y0207890D01*
X0139300Y0207890D01*
X0139300Y0206414D02*
X0139300Y0206414D01*
X0139300Y0204816D02*
X0139300Y0204816D01*
X0135935Y0204816D02*
X0086609Y0204816D01*
X0086609Y0206414D02*
X0135138Y0206414D01*
X0135138Y0208013D02*
X0086609Y0208013D01*
X0086609Y0209611D02*
X0135138Y0209611D01*
X0136496Y0211210D02*
X0086609Y0211210D01*
X0086609Y0212808D02*
X0135429Y0212808D01*
X0135429Y0214407D02*
X0086609Y0214407D01*
X0086609Y0216005D02*
X0135429Y0216005D01*
X0104600Y0219202D02*
X0104000Y0219202D01*
X0104000Y0220801D02*
X0104600Y0220801D01*
X0104600Y0222399D02*
X0104000Y0222399D01*
X0104000Y0223998D02*
X0104600Y0223998D01*
X0104600Y0225596D02*
X0104000Y0225596D01*
X0104000Y0227195D02*
X0104600Y0227195D01*
X0104600Y0228793D02*
X0104000Y0228793D01*
X0104000Y0230392D02*
X0104600Y0230392D01*
X0104600Y0231990D02*
X0104000Y0231990D01*
X0104000Y0233589D02*
X0104600Y0233589D01*
X0156662Y0113701D02*
X0161938Y0113701D01*
X0159961Y0112102D02*
X0158639Y0112102D01*
X0186527Y0104110D02*
X0192073Y0104110D01*
X0190017Y0105708D02*
X0188583Y0105708D01*
X0188639Y0112102D02*
X0189961Y0112102D01*
X0198639Y0112102D02*
X0199961Y0112102D01*
X0200017Y0105708D02*
X0198583Y0105708D01*
X0196527Y0104110D02*
X0202073Y0104110D01*
X0206527Y0104110D02*
X0212073Y0104110D01*
X0210017Y0105708D02*
X0208583Y0105708D01*
X0208639Y0112102D02*
X0209961Y0112102D01*
X0141218Y0065745D02*
X0333717Y0065745D01*
X0333717Y0064147D02*
X0141218Y0064147D01*
X0141218Y0062548D02*
X0333717Y0062548D01*
X0333717Y0060950D02*
X0141115Y0060950D01*
X0157783Y0052957D02*
X0160816Y0052957D01*
X0159559Y0051359D02*
X0159041Y0051359D01*
X0159064Y0046563D02*
X0159536Y0046563D01*
X0160761Y0044965D02*
X0157839Y0044965D01*
X0167839Y0044965D02*
X0170761Y0044965D01*
X0169536Y0046563D02*
X0169064Y0046563D01*
X0169041Y0051359D02*
X0169559Y0051359D01*
X0170816Y0052957D02*
X0167783Y0052957D01*
X0177783Y0052957D02*
X0180816Y0052957D01*
X0179559Y0051359D02*
X0179041Y0051359D01*
X0179064Y0046563D02*
X0179536Y0046563D01*
X0180761Y0044965D02*
X0177839Y0044965D01*
X0187839Y0044965D02*
X0190761Y0044965D01*
X0189536Y0046563D02*
X0189064Y0046563D01*
X0189041Y0051359D02*
X0189559Y0051359D01*
X0190816Y0052957D02*
X0187783Y0052957D01*
X0197783Y0052957D02*
X0200816Y0052957D01*
X0199559Y0051359D02*
X0199041Y0051359D01*
X0199064Y0046563D02*
X0199536Y0046563D01*
X0200761Y0044965D02*
X0197839Y0044965D01*
X0207839Y0044965D02*
X0210761Y0044965D01*
X0209536Y0046563D02*
X0209064Y0046563D01*
X0209041Y0051359D02*
X0209559Y0051359D01*
X0210816Y0052957D02*
X0207783Y0052957D01*
X0217783Y0052957D02*
X0220816Y0052957D01*
X0219559Y0051359D02*
X0219041Y0051359D01*
X0219064Y0046563D02*
X0219536Y0046563D01*
X0220761Y0044965D02*
X0217839Y0044965D01*
X0227839Y0044965D02*
X0230761Y0044965D01*
X0229536Y0046563D02*
X0229064Y0046563D01*
X0229041Y0051359D02*
X0229559Y0051359D01*
X0230816Y0052957D02*
X0227783Y0052957D01*
X0237783Y0052957D02*
X0240816Y0052957D01*
X0239559Y0051359D02*
X0239041Y0051359D01*
X0239064Y0046563D02*
X0239536Y0046563D01*
X0240761Y0044965D02*
X0237839Y0044965D01*
X0247839Y0044965D02*
X0250761Y0044965D01*
X0249536Y0046563D02*
X0249064Y0046563D01*
X0249041Y0051359D02*
X0249559Y0051359D01*
X0250816Y0052957D02*
X0247783Y0052957D01*
X0257783Y0052957D02*
X0260816Y0052957D01*
X0259559Y0051359D02*
X0259041Y0051359D01*
X0259064Y0046563D02*
X0259536Y0046563D01*
X0260761Y0044965D02*
X0257839Y0044965D01*
X0267839Y0044965D02*
X0270761Y0044965D01*
X0269536Y0046563D02*
X0269064Y0046563D01*
X0269041Y0051359D02*
X0269559Y0051359D01*
X0270816Y0052957D02*
X0267783Y0052957D01*
X0277783Y0052957D02*
X0280404Y0052957D01*
X0279251Y0051359D02*
X0279041Y0051359D01*
X0279064Y0046563D02*
X0279223Y0046563D01*
X0280349Y0044965D02*
X0277839Y0044965D01*
X0283651Y0043366D02*
X0013584Y0043366D01*
X0013584Y0041768D02*
X0333717Y0041768D01*
X0333717Y0043366D02*
X0284949Y0043366D01*
X0284583Y0043366D02*
X0284017Y0043366D01*
X0284017Y0044965D02*
X0284583Y0044965D01*
X0284583Y0046563D02*
X0284017Y0046563D01*
X0284017Y0048162D02*
X0284583Y0048162D01*
X0284583Y0049760D02*
X0284017Y0049760D01*
X0284017Y0051359D02*
X0284583Y0051359D01*
X0284583Y0052957D02*
X0284017Y0052957D01*
X0288195Y0052957D02*
X0290816Y0052957D01*
X0289559Y0051359D02*
X0289349Y0051359D01*
X0289377Y0046563D02*
X0289536Y0046563D01*
X0290761Y0044965D02*
X0288251Y0044965D01*
X0297839Y0044965D02*
X0300761Y0044965D01*
X0299536Y0046563D02*
X0299064Y0046563D01*
X0299041Y0051359D02*
X0299559Y0051359D01*
X0300816Y0052957D02*
X0297783Y0052957D01*
X0307783Y0052957D02*
X0310816Y0052957D01*
X0309559Y0051359D02*
X0309041Y0051359D01*
X0309064Y0046563D02*
X0309536Y0046563D01*
X0310761Y0044965D02*
X0307839Y0044965D01*
X0317839Y0044965D02*
X0333717Y0044965D01*
X0333717Y0046563D02*
X0319064Y0046563D01*
X0319609Y0048162D02*
X0333717Y0048162D01*
X0333717Y0049760D02*
X0319609Y0049760D01*
X0319041Y0051359D02*
X0333717Y0051359D01*
X0333717Y0052957D02*
X0317783Y0052957D01*
X0333717Y0040169D02*
X0013584Y0040169D01*
X0013584Y0038571D02*
X0333717Y0038571D01*
X0121800Y0051433D02*
X0121800Y0058480D01*
D20*
X0121800Y0051433D03*
X0176800Y0243933D03*
D21*
X0186800Y0233933D02*
X0195800Y0224933D01*
X0195800Y0211433D01*
X0186800Y0233933D02*
X0186800Y0266433D01*
X0241800Y0266433D02*
X0241800Y0233933D01*
X0250800Y0224933D01*
X0250800Y0211433D01*
D22*
X0206800Y0211433D03*
D23*
X0114300Y0226433D02*
X0114300Y0233933D01*
X0101800Y0246433D01*
X0101800Y0266433D01*
X0046800Y0236433D02*
X0046800Y0226433D01*
X0046800Y0236433D02*
X0036800Y0246433D01*
X0036800Y0266433D01*
M02*
