%
M48
M72
T02C0.0280
T05C0.0420
T07C0.0600
T09C0.1250
%
T02
X17876Y9393
T05
X2626Y7893
X1626Y7893
X1626Y4643
X2626Y4643
T07
X6299Y5311
X7952Y5311
X13299Y5311
X14952Y5311
X20299Y5311
X21952Y5311
X27299Y5311
X28952Y5311
X34299Y5311
X35952Y5311
X35952Y7476
X34299Y7476
X28952Y7476
X27299Y7476
X21952Y7476
X20299Y7476
X14952Y7476
X13299Y7476
X7952Y7476
X6299Y7476
T09
X10626Y3893
X11448Y7295
X9803Y7295
X4448Y7295
X16803Y7295
X18448Y7295
X23803Y7295
X25448Y7295
X30803Y7295
X32448Y7295
X37803Y7295
X31626Y3893
M30
