G75*
G70*
%OFA0B0*%
%FSLAX24Y24*%
%IPPOS*%
%LPD*%
%AMOC8*
5,1,8,0,0,1.08239X$1,22.5*
%
%ADD10C,0.0000*%
%ADD11C,0.0769*%
%ADD12C,0.1064*%
%ADD13C,0.0729*%
%ADD14OC8,0.0540*%
%ADD15C,0.0800*%
%ADD16OC8,0.0660*%
%ADD17C,0.0710*%
%ADD18C,0.1300*%
%ADD19OC8,0.1300*%
%ADD20R,0.1560X0.1560*%
%ADD21C,0.1560*%
%ADD22C,0.1360*%
%ADD23R,0.0660X0.2610*%
%ADD24C,0.1320*%
%ADD25C,0.0540*%
%ADD26R,0.0769X0.0690*%
%ADD27C,0.0532*%
D10*
X000102Y005856D02*
X000100Y038516D01*
X046584Y038516D01*
X046586Y005856D01*
X037374Y005856D01*
X037378Y005855D02*
X036378Y005855D01*
X036378Y002300D01*
X036078Y002000D01*
X010678Y002000D01*
X010378Y002300D01*
X010378Y005855D01*
X009378Y005855D01*
X009382Y005856D02*
X000102Y005856D01*
X001334Y007628D02*
X001336Y007678D01*
X001342Y007728D01*
X001352Y007778D01*
X001365Y007826D01*
X001382Y007874D01*
X001403Y007920D01*
X001427Y007964D01*
X001455Y008006D01*
X001486Y008046D01*
X001520Y008083D01*
X001557Y008118D01*
X001596Y008149D01*
X001637Y008178D01*
X001681Y008203D01*
X001727Y008225D01*
X001774Y008243D01*
X001822Y008257D01*
X001871Y008268D01*
X001921Y008275D01*
X001971Y008278D01*
X002022Y008277D01*
X002072Y008272D01*
X002122Y008263D01*
X002170Y008251D01*
X002218Y008234D01*
X002264Y008214D01*
X002309Y008191D01*
X002352Y008164D01*
X002392Y008134D01*
X002430Y008101D01*
X002465Y008065D01*
X002498Y008026D01*
X002527Y007985D01*
X002553Y007942D01*
X002576Y007897D01*
X002595Y007850D01*
X002610Y007802D01*
X002622Y007753D01*
X002630Y007703D01*
X002634Y007653D01*
X002634Y007603D01*
X002630Y007553D01*
X002622Y007503D01*
X002610Y007454D01*
X002595Y007406D01*
X002576Y007359D01*
X002553Y007314D01*
X002527Y007271D01*
X002498Y007230D01*
X002465Y007191D01*
X002430Y007155D01*
X002392Y007122D01*
X002352Y007092D01*
X002309Y007065D01*
X002264Y007042D01*
X002218Y007022D01*
X002170Y007005D01*
X002122Y006993D01*
X002072Y006984D01*
X002022Y006979D01*
X001971Y006978D01*
X001921Y006981D01*
X001871Y006988D01*
X001822Y006999D01*
X001774Y007013D01*
X001727Y007031D01*
X001681Y007053D01*
X001637Y007078D01*
X001596Y007107D01*
X001557Y007138D01*
X001520Y007173D01*
X001486Y007210D01*
X001455Y007250D01*
X001427Y007292D01*
X001403Y007336D01*
X001382Y007382D01*
X001365Y007430D01*
X001352Y007478D01*
X001342Y007528D01*
X001336Y007578D01*
X001334Y007628D01*
X011094Y035116D02*
X011096Y035166D01*
X011102Y035216D01*
X011112Y035265D01*
X011126Y035313D01*
X011143Y035360D01*
X011164Y035405D01*
X011189Y035449D01*
X011217Y035490D01*
X011249Y035529D01*
X011283Y035566D01*
X011320Y035600D01*
X011360Y035630D01*
X011402Y035657D01*
X011446Y035681D01*
X011492Y035702D01*
X011539Y035718D01*
X011587Y035731D01*
X011637Y035740D01*
X011686Y035745D01*
X011737Y035746D01*
X011787Y035743D01*
X011836Y035736D01*
X011885Y035725D01*
X011933Y035710D01*
X011979Y035692D01*
X012024Y035670D01*
X012067Y035644D01*
X012108Y035615D01*
X012147Y035583D01*
X012183Y035548D01*
X012215Y035510D01*
X012245Y035470D01*
X012272Y035427D01*
X012295Y035383D01*
X012314Y035337D01*
X012330Y035289D01*
X012342Y035240D01*
X012350Y035191D01*
X012354Y035141D01*
X012354Y035091D01*
X012350Y035041D01*
X012342Y034992D01*
X012330Y034943D01*
X012314Y034895D01*
X012295Y034849D01*
X012272Y034805D01*
X012245Y034762D01*
X012215Y034722D01*
X012183Y034684D01*
X012147Y034649D01*
X012108Y034617D01*
X012067Y034588D01*
X012024Y034562D01*
X011979Y034540D01*
X011933Y034522D01*
X011885Y034507D01*
X011836Y034496D01*
X011787Y034489D01*
X011737Y034486D01*
X011686Y034487D01*
X011637Y034492D01*
X011587Y034501D01*
X011539Y034514D01*
X011492Y034530D01*
X011446Y034551D01*
X011402Y034575D01*
X011360Y034602D01*
X011320Y034632D01*
X011283Y034666D01*
X011249Y034703D01*
X011217Y034742D01*
X011189Y034783D01*
X011164Y034827D01*
X011143Y034872D01*
X011126Y034919D01*
X011112Y034967D01*
X011102Y035016D01*
X011096Y035066D01*
X011094Y035116D01*
X001674Y036240D02*
X001676Y036290D01*
X001682Y036340D01*
X001692Y036390D01*
X001705Y036438D01*
X001722Y036486D01*
X001743Y036532D01*
X001767Y036576D01*
X001795Y036618D01*
X001826Y036658D01*
X001860Y036695D01*
X001897Y036730D01*
X001936Y036761D01*
X001977Y036790D01*
X002021Y036815D01*
X002067Y036837D01*
X002114Y036855D01*
X002162Y036869D01*
X002211Y036880D01*
X002261Y036887D01*
X002311Y036890D01*
X002362Y036889D01*
X002412Y036884D01*
X002462Y036875D01*
X002510Y036863D01*
X002558Y036846D01*
X002604Y036826D01*
X002649Y036803D01*
X002692Y036776D01*
X002732Y036746D01*
X002770Y036713D01*
X002805Y036677D01*
X002838Y036638D01*
X002867Y036597D01*
X002893Y036554D01*
X002916Y036509D01*
X002935Y036462D01*
X002950Y036414D01*
X002962Y036365D01*
X002970Y036315D01*
X002974Y036265D01*
X002974Y036215D01*
X002970Y036165D01*
X002962Y036115D01*
X002950Y036066D01*
X002935Y036018D01*
X002916Y035971D01*
X002893Y035926D01*
X002867Y035883D01*
X002838Y035842D01*
X002805Y035803D01*
X002770Y035767D01*
X002732Y035734D01*
X002692Y035704D01*
X002649Y035677D01*
X002604Y035654D01*
X002558Y035634D01*
X002510Y035617D01*
X002462Y035605D01*
X002412Y035596D01*
X002362Y035591D01*
X002311Y035590D01*
X002261Y035593D01*
X002211Y035600D01*
X002162Y035611D01*
X002114Y035625D01*
X002067Y035643D01*
X002021Y035665D01*
X001977Y035690D01*
X001936Y035719D01*
X001897Y035750D01*
X001860Y035785D01*
X001826Y035822D01*
X001795Y035862D01*
X001767Y035904D01*
X001743Y035948D01*
X001722Y035994D01*
X001705Y036042D01*
X001692Y036090D01*
X001682Y036140D01*
X001676Y036190D01*
X001674Y036240D01*
X034323Y035116D02*
X034325Y035166D01*
X034331Y035216D01*
X034341Y035265D01*
X034355Y035313D01*
X034372Y035360D01*
X034393Y035405D01*
X034418Y035449D01*
X034446Y035490D01*
X034478Y035529D01*
X034512Y035566D01*
X034549Y035600D01*
X034589Y035630D01*
X034631Y035657D01*
X034675Y035681D01*
X034721Y035702D01*
X034768Y035718D01*
X034816Y035731D01*
X034866Y035740D01*
X034915Y035745D01*
X034966Y035746D01*
X035016Y035743D01*
X035065Y035736D01*
X035114Y035725D01*
X035162Y035710D01*
X035208Y035692D01*
X035253Y035670D01*
X035296Y035644D01*
X035337Y035615D01*
X035376Y035583D01*
X035412Y035548D01*
X035444Y035510D01*
X035474Y035470D01*
X035501Y035427D01*
X035524Y035383D01*
X035543Y035337D01*
X035559Y035289D01*
X035571Y035240D01*
X035579Y035191D01*
X035583Y035141D01*
X035583Y035091D01*
X035579Y035041D01*
X035571Y034992D01*
X035559Y034943D01*
X035543Y034895D01*
X035524Y034849D01*
X035501Y034805D01*
X035474Y034762D01*
X035444Y034722D01*
X035412Y034684D01*
X035376Y034649D01*
X035337Y034617D01*
X035296Y034588D01*
X035253Y034562D01*
X035208Y034540D01*
X035162Y034522D01*
X035114Y034507D01*
X035065Y034496D01*
X035016Y034489D01*
X034966Y034486D01*
X034915Y034487D01*
X034866Y034492D01*
X034816Y034501D01*
X034768Y034514D01*
X034721Y034530D01*
X034675Y034551D01*
X034631Y034575D01*
X034589Y034602D01*
X034549Y034632D01*
X034512Y034666D01*
X034478Y034703D01*
X034446Y034742D01*
X034418Y034783D01*
X034393Y034827D01*
X034372Y034872D01*
X034355Y034919D01*
X034341Y034967D01*
X034331Y035016D01*
X034325Y035066D01*
X034323Y035116D01*
X043673Y036240D02*
X043675Y036290D01*
X043681Y036340D01*
X043691Y036390D01*
X043704Y036438D01*
X043721Y036486D01*
X043742Y036532D01*
X043766Y036576D01*
X043794Y036618D01*
X043825Y036658D01*
X043859Y036695D01*
X043896Y036730D01*
X043935Y036761D01*
X043976Y036790D01*
X044020Y036815D01*
X044066Y036837D01*
X044113Y036855D01*
X044161Y036869D01*
X044210Y036880D01*
X044260Y036887D01*
X044310Y036890D01*
X044361Y036889D01*
X044411Y036884D01*
X044461Y036875D01*
X044509Y036863D01*
X044557Y036846D01*
X044603Y036826D01*
X044648Y036803D01*
X044691Y036776D01*
X044731Y036746D01*
X044769Y036713D01*
X044804Y036677D01*
X044837Y036638D01*
X044866Y036597D01*
X044892Y036554D01*
X044915Y036509D01*
X044934Y036462D01*
X044949Y036414D01*
X044961Y036365D01*
X044969Y036315D01*
X044973Y036265D01*
X044973Y036215D01*
X044969Y036165D01*
X044961Y036115D01*
X044949Y036066D01*
X044934Y036018D01*
X044915Y035971D01*
X044892Y035926D01*
X044866Y035883D01*
X044837Y035842D01*
X044804Y035803D01*
X044769Y035767D01*
X044731Y035734D01*
X044691Y035704D01*
X044648Y035677D01*
X044603Y035654D01*
X044557Y035634D01*
X044509Y035617D01*
X044461Y035605D01*
X044411Y035596D01*
X044361Y035591D01*
X044310Y035590D01*
X044260Y035593D01*
X044210Y035600D01*
X044161Y035611D01*
X044113Y035625D01*
X044066Y035643D01*
X044020Y035665D01*
X043976Y035690D01*
X043935Y035719D01*
X043896Y035750D01*
X043859Y035785D01*
X043825Y035822D01*
X043794Y035862D01*
X043766Y035904D01*
X043742Y035948D01*
X043721Y035994D01*
X043704Y036042D01*
X043691Y036090D01*
X043681Y036140D01*
X043675Y036190D01*
X043673Y036240D01*
X043673Y007628D02*
X043675Y007678D01*
X043681Y007728D01*
X043691Y007778D01*
X043704Y007826D01*
X043721Y007874D01*
X043742Y007920D01*
X043766Y007964D01*
X043794Y008006D01*
X043825Y008046D01*
X043859Y008083D01*
X043896Y008118D01*
X043935Y008149D01*
X043976Y008178D01*
X044020Y008203D01*
X044066Y008225D01*
X044113Y008243D01*
X044161Y008257D01*
X044210Y008268D01*
X044260Y008275D01*
X044310Y008278D01*
X044361Y008277D01*
X044411Y008272D01*
X044461Y008263D01*
X044509Y008251D01*
X044557Y008234D01*
X044603Y008214D01*
X044648Y008191D01*
X044691Y008164D01*
X044731Y008134D01*
X044769Y008101D01*
X044804Y008065D01*
X044837Y008026D01*
X044866Y007985D01*
X044892Y007942D01*
X044915Y007897D01*
X044934Y007850D01*
X044949Y007802D01*
X044961Y007753D01*
X044969Y007703D01*
X044973Y007653D01*
X044973Y007603D01*
X044969Y007553D01*
X044961Y007503D01*
X044949Y007454D01*
X044934Y007406D01*
X044915Y007359D01*
X044892Y007314D01*
X044866Y007271D01*
X044837Y007230D01*
X044804Y007191D01*
X044769Y007155D01*
X044731Y007122D01*
X044691Y007092D01*
X044648Y007065D01*
X044603Y007042D01*
X044557Y007022D01*
X044509Y007005D01*
X044461Y006993D01*
X044411Y006984D01*
X044361Y006979D01*
X044310Y006978D01*
X044260Y006981D01*
X044210Y006988D01*
X044161Y006999D01*
X044113Y007013D01*
X044066Y007031D01*
X044020Y007053D01*
X043976Y007078D01*
X043935Y007107D01*
X043896Y007138D01*
X043859Y007173D01*
X043825Y007210D01*
X043794Y007250D01*
X043766Y007292D01*
X043742Y007336D01*
X043721Y007382D01*
X043704Y007430D01*
X043691Y007478D01*
X043681Y007528D01*
X043675Y007578D01*
X043673Y007628D01*
D11*
X038453Y025652D02*
X038453Y026360D01*
X037453Y026360D02*
X037453Y025652D01*
X036453Y025652D02*
X036453Y026360D01*
X035453Y026360D02*
X035453Y025652D01*
X034453Y025652D02*
X034453Y026360D01*
X033453Y026360D02*
X033453Y025652D01*
X032453Y025652D02*
X032453Y026360D01*
X031453Y026360D02*
X031453Y025652D01*
X031953Y027652D02*
X031953Y028360D01*
X032953Y028360D02*
X032953Y027652D01*
X033953Y027652D02*
X033953Y028360D01*
X034953Y028360D02*
X034953Y027652D01*
X035953Y027652D02*
X035953Y028360D01*
X036953Y028360D02*
X036953Y027652D01*
X037953Y027652D02*
X037953Y028360D01*
X015224Y026360D02*
X015224Y025652D01*
X014224Y025652D02*
X014224Y026360D01*
X013224Y026360D02*
X013224Y025652D01*
X012224Y025652D02*
X012224Y026360D01*
X011224Y026360D02*
X011224Y025652D01*
X010224Y025652D02*
X010224Y026360D01*
X009224Y026360D02*
X009224Y025652D01*
X008224Y025652D02*
X008224Y026360D01*
X008724Y027652D02*
X008724Y028360D01*
X009724Y028360D02*
X009724Y027652D01*
X010724Y027652D02*
X010724Y028360D01*
X011724Y028360D02*
X011724Y027652D01*
X012724Y027652D02*
X012724Y028360D01*
X013724Y028360D02*
X013724Y027652D01*
X014724Y027652D02*
X014724Y028360D01*
D12*
X003323Y019471D02*
X002319Y019471D01*
X002319Y017911D02*
X003323Y017911D01*
X043716Y017911D02*
X044720Y017911D01*
X044720Y019471D02*
X043716Y019471D01*
D13*
X028734Y019241D03*
X027634Y019241D03*
X025734Y019241D03*
X024634Y019241D03*
X022034Y019241D03*
X020934Y019241D03*
X019034Y019241D03*
X017934Y019241D03*
X017934Y016241D03*
X019034Y016241D03*
X020934Y016241D03*
X022034Y016241D03*
X024634Y016241D03*
X025734Y016241D03*
X027634Y016241D03*
X028734Y016241D03*
D14*
X014484Y007791D03*
X013984Y007041D03*
X013484Y007791D03*
X003784Y009391D03*
X003034Y009891D03*
X003784Y010391D03*
X002184Y013491D03*
X002184Y014491D03*
X002184Y025991D03*
X002184Y026991D03*
X044684Y026991D03*
X044684Y025991D03*
D15*
X042434Y024691D03*
X042434Y028691D03*
X042334Y009911D03*
X041234Y009911D03*
X041234Y008771D03*
X042334Y008771D03*
X010784Y008941D03*
X009034Y008941D03*
X007484Y008941D03*
X005784Y008941D03*
X005784Y012941D03*
X007484Y012941D03*
X009034Y012941D03*
X010784Y012941D03*
X008484Y015741D03*
X004484Y015741D03*
X004484Y024691D03*
X004484Y028691D03*
D16*
X020234Y029291D03*
X026784Y029391D03*
X026784Y020391D03*
X020234Y020291D03*
D17*
X015134Y023241D03*
X014134Y023241D03*
X037534Y023241D03*
X038534Y023241D03*
D18*
X029944Y020691D03*
X006724Y020691D03*
D19*
X016724Y020691D03*
X039944Y020691D03*
D20*
X044369Y014311D03*
D21*
X044369Y011206D03*
D22*
X044323Y007628D03*
X044323Y036240D03*
X002324Y036240D03*
X001984Y007628D03*
D23*
X011378Y003800D03*
X012378Y003800D03*
X013378Y003800D03*
X014378Y003800D03*
X015378Y003800D03*
X016378Y003800D03*
X017378Y003800D03*
X018378Y003800D03*
X019378Y003800D03*
X020378Y003800D03*
X021378Y003800D03*
X022378Y003800D03*
X023378Y003800D03*
X024378Y003800D03*
X025378Y003800D03*
X026378Y003800D03*
X027378Y003800D03*
X028378Y003800D03*
X029378Y003800D03*
X030378Y003800D03*
X031378Y003800D03*
X032378Y003800D03*
X033378Y003800D03*
X034378Y003800D03*
X035378Y003800D03*
D24*
X034953Y035116D03*
X011724Y035116D03*
D25*
X023984Y012931D02*
X023984Y012451D01*
X024984Y012451D02*
X024984Y012931D01*
X025984Y012931D02*
X025984Y012451D01*
X026984Y012451D02*
X026984Y012931D01*
X026984Y009931D02*
X026984Y009451D01*
X025984Y009451D02*
X025984Y009931D01*
X024984Y009931D02*
X024984Y009451D01*
X023984Y009451D02*
X023984Y009931D01*
D26*
X041234Y011190D03*
X042334Y011190D03*
X042334Y012292D03*
X041234Y012292D03*
D27*
X040484Y011441D03*
X039984Y011041D03*
X040484Y010641D03*
X039984Y009791D03*
X040084Y009041D03*
X037634Y010741D03*
X038334Y011891D03*
X037634Y012491D03*
X036034Y012441D03*
X035534Y011441D03*
X034534Y011991D03*
X033694Y012941D03*
X033134Y013491D03*
X031984Y013041D03*
X032684Y011391D03*
X030234Y009541D03*
X030484Y008941D03*
X030184Y007641D03*
X030834Y007641D03*
X031184Y006391D03*
X031884Y005591D03*
X032384Y006091D03*
X032284Y006641D03*
X032134Y007591D03*
X032884Y007591D03*
X033734Y007791D03*
X034884Y008291D03*
X035484Y007841D03*
X036784Y008341D03*
X037534Y007391D03*
X036034Y009441D03*
X033834Y005691D03*
X029034Y006241D03*
X027334Y007841D03*
X026934Y008591D03*
X025284Y008291D03*
X024984Y007741D03*
X025684Y006791D03*
X025084Y006541D03*
X023384Y005491D03*
X019934Y007841D03*
X019934Y008741D03*
X021684Y008941D03*
X020334Y010991D03*
X019234Y011191D03*
X017984Y011091D03*
X017034Y011141D03*
X016934Y012041D03*
X017984Y012991D03*
X018884Y013441D03*
X019634Y014091D03*
X020884Y012391D03*
X020084Y012291D03*
X023334Y012741D03*
X023884Y010991D03*
X025534Y011141D03*
X029584Y014941D03*
X030334Y016441D03*
X034484Y015941D03*
X035534Y015441D03*
X036034Y014441D03*
X034984Y014441D03*
X035434Y017441D03*
X038584Y018191D03*
X040534Y017441D03*
X039984Y013791D03*
X034984Y023191D03*
X033434Y023191D03*
X038934Y027041D03*
X033934Y031641D03*
X023734Y029391D03*
X015734Y029941D03*
X015734Y027041D03*
X005784Y019391D03*
X015434Y013941D03*
X015734Y017091D03*
X023334Y016491D03*
X015334Y010591D03*
X015834Y009791D03*
X018234Y009291D03*
M02*
