G75*
G70*
%OFA0B0*%
%FSLAX24Y24*%
%IPPOS*%
%LPD*%
%AMOC8*
5,1,8,0,0,1.08239X$1,22.5*
%
%ADD10C,0.0000*%
%ADD11C,0.0010*%
D10*
X001029Y005856D02*
X001026Y038516D01*
X047510Y038516D01*
X047513Y005856D01*
X038300Y005856D01*
X038304Y005855D02*
X037304Y005855D01*
X037304Y002300D01*
X037004Y002000D01*
X011604Y002000D01*
X011304Y002300D01*
X011304Y005855D01*
X010304Y005855D01*
X010308Y005856D02*
X001029Y005856D01*
X002260Y007628D02*
X002262Y007678D01*
X002268Y007728D01*
X002278Y007778D01*
X002291Y007826D01*
X002308Y007874D01*
X002329Y007920D01*
X002353Y007964D01*
X002381Y008006D01*
X002412Y008046D01*
X002446Y008083D01*
X002483Y008118D01*
X002522Y008149D01*
X002563Y008178D01*
X002607Y008203D01*
X002653Y008225D01*
X002700Y008243D01*
X002748Y008257D01*
X002797Y008268D01*
X002847Y008275D01*
X002897Y008278D01*
X002948Y008277D01*
X002998Y008272D01*
X003048Y008263D01*
X003096Y008251D01*
X003144Y008234D01*
X003190Y008214D01*
X003235Y008191D01*
X003278Y008164D01*
X003318Y008134D01*
X003356Y008101D01*
X003391Y008065D01*
X003424Y008026D01*
X003453Y007985D01*
X003479Y007942D01*
X003502Y007897D01*
X003521Y007850D01*
X003536Y007802D01*
X003548Y007753D01*
X003556Y007703D01*
X003560Y007653D01*
X003560Y007603D01*
X003556Y007553D01*
X003548Y007503D01*
X003536Y007454D01*
X003521Y007406D01*
X003502Y007359D01*
X003479Y007314D01*
X003453Y007271D01*
X003424Y007230D01*
X003391Y007191D01*
X003356Y007155D01*
X003318Y007122D01*
X003278Y007092D01*
X003235Y007065D01*
X003190Y007042D01*
X003144Y007022D01*
X003096Y007005D01*
X003048Y006993D01*
X002998Y006984D01*
X002948Y006979D01*
X002897Y006978D01*
X002847Y006981D01*
X002797Y006988D01*
X002748Y006999D01*
X002700Y007013D01*
X002653Y007031D01*
X002607Y007053D01*
X002563Y007078D01*
X002522Y007107D01*
X002483Y007138D01*
X002446Y007173D01*
X002412Y007210D01*
X002381Y007250D01*
X002353Y007292D01*
X002329Y007336D01*
X002308Y007382D01*
X002291Y007430D01*
X002278Y007478D01*
X002268Y007528D01*
X002262Y007578D01*
X002260Y007628D01*
X003606Y019833D02*
X003608Y019883D01*
X003614Y019933D01*
X003624Y019982D01*
X003638Y020030D01*
X003655Y020077D01*
X003676Y020122D01*
X003701Y020166D01*
X003729Y020207D01*
X003761Y020246D01*
X003795Y020283D01*
X003832Y020317D01*
X003872Y020347D01*
X003914Y020374D01*
X003958Y020398D01*
X004004Y020419D01*
X004051Y020435D01*
X004099Y020448D01*
X004149Y020457D01*
X004198Y020462D01*
X004249Y020463D01*
X004299Y020460D01*
X004348Y020453D01*
X004397Y020442D01*
X004445Y020427D01*
X004491Y020409D01*
X004536Y020387D01*
X004579Y020361D01*
X004620Y020332D01*
X004659Y020300D01*
X004695Y020265D01*
X004727Y020227D01*
X004757Y020187D01*
X004784Y020144D01*
X004807Y020100D01*
X004826Y020054D01*
X004842Y020006D01*
X004854Y019957D01*
X004862Y019908D01*
X004866Y019858D01*
X004866Y019808D01*
X004862Y019758D01*
X004854Y019709D01*
X004842Y019660D01*
X004826Y019612D01*
X004807Y019566D01*
X004784Y019522D01*
X004757Y019479D01*
X004727Y019439D01*
X004695Y019401D01*
X004659Y019366D01*
X004620Y019334D01*
X004579Y019305D01*
X004536Y019279D01*
X004491Y019257D01*
X004445Y019239D01*
X004397Y019224D01*
X004348Y019213D01*
X004299Y019206D01*
X004249Y019203D01*
X004198Y019204D01*
X004149Y019209D01*
X004099Y019218D01*
X004051Y019231D01*
X004004Y019247D01*
X003958Y019268D01*
X003914Y019292D01*
X003872Y019319D01*
X003832Y019349D01*
X003795Y019383D01*
X003761Y019420D01*
X003729Y019459D01*
X003701Y019500D01*
X003676Y019544D01*
X003655Y019589D01*
X003638Y019636D01*
X003624Y019684D01*
X003614Y019733D01*
X003608Y019783D01*
X003606Y019833D01*
X002601Y036240D02*
X002603Y036290D01*
X002609Y036340D01*
X002619Y036390D01*
X002632Y036438D01*
X002649Y036486D01*
X002670Y036532D01*
X002694Y036576D01*
X002722Y036618D01*
X002753Y036658D01*
X002787Y036695D01*
X002824Y036730D01*
X002863Y036761D01*
X002904Y036790D01*
X002948Y036815D01*
X002994Y036837D01*
X003041Y036855D01*
X003089Y036869D01*
X003138Y036880D01*
X003188Y036887D01*
X003238Y036890D01*
X003289Y036889D01*
X003339Y036884D01*
X003389Y036875D01*
X003437Y036863D01*
X003485Y036846D01*
X003531Y036826D01*
X003576Y036803D01*
X003619Y036776D01*
X003659Y036746D01*
X003697Y036713D01*
X003732Y036677D01*
X003765Y036638D01*
X003794Y036597D01*
X003820Y036554D01*
X003843Y036509D01*
X003862Y036462D01*
X003877Y036414D01*
X003889Y036365D01*
X003897Y036315D01*
X003901Y036265D01*
X003901Y036215D01*
X003897Y036165D01*
X003889Y036115D01*
X003877Y036066D01*
X003862Y036018D01*
X003843Y035971D01*
X003820Y035926D01*
X003794Y035883D01*
X003765Y035842D01*
X003732Y035803D01*
X003697Y035767D01*
X003659Y035734D01*
X003619Y035704D01*
X003576Y035677D01*
X003531Y035654D01*
X003485Y035634D01*
X003437Y035617D01*
X003389Y035605D01*
X003339Y035596D01*
X003289Y035591D01*
X003238Y035590D01*
X003188Y035593D01*
X003138Y035600D01*
X003089Y035611D01*
X003041Y035625D01*
X002994Y035643D01*
X002948Y035665D01*
X002904Y035690D01*
X002863Y035719D01*
X002824Y035750D01*
X002787Y035785D01*
X002753Y035822D01*
X002722Y035862D01*
X002694Y035904D01*
X002670Y035948D01*
X002649Y035994D01*
X002632Y036042D01*
X002619Y036090D01*
X002609Y036140D01*
X002603Y036190D01*
X002601Y036240D01*
X043705Y019833D02*
X043707Y019883D01*
X043713Y019933D01*
X043723Y019982D01*
X043737Y020030D01*
X043754Y020077D01*
X043775Y020122D01*
X043800Y020166D01*
X043828Y020207D01*
X043860Y020246D01*
X043894Y020283D01*
X043931Y020317D01*
X043971Y020347D01*
X044013Y020374D01*
X044057Y020398D01*
X044103Y020419D01*
X044150Y020435D01*
X044198Y020448D01*
X044248Y020457D01*
X044297Y020462D01*
X044348Y020463D01*
X044398Y020460D01*
X044447Y020453D01*
X044496Y020442D01*
X044544Y020427D01*
X044590Y020409D01*
X044635Y020387D01*
X044678Y020361D01*
X044719Y020332D01*
X044758Y020300D01*
X044794Y020265D01*
X044826Y020227D01*
X044856Y020187D01*
X044883Y020144D01*
X044906Y020100D01*
X044925Y020054D01*
X044941Y020006D01*
X044953Y019957D01*
X044961Y019908D01*
X044965Y019858D01*
X044965Y019808D01*
X044961Y019758D01*
X044953Y019709D01*
X044941Y019660D01*
X044925Y019612D01*
X044906Y019566D01*
X044883Y019522D01*
X044856Y019479D01*
X044826Y019439D01*
X044794Y019401D01*
X044758Y019366D01*
X044719Y019334D01*
X044678Y019305D01*
X044635Y019279D01*
X044590Y019257D01*
X044544Y019239D01*
X044496Y019224D01*
X044447Y019213D01*
X044398Y019206D01*
X044348Y019203D01*
X044297Y019204D01*
X044248Y019209D01*
X044198Y019218D01*
X044150Y019231D01*
X044103Y019247D01*
X044057Y019268D01*
X044013Y019292D01*
X043971Y019319D01*
X043931Y019349D01*
X043894Y019383D01*
X043860Y019420D01*
X043828Y019459D01*
X043800Y019500D01*
X043775Y019544D01*
X043754Y019589D01*
X043737Y019636D01*
X043723Y019684D01*
X043713Y019733D01*
X043707Y019783D01*
X043705Y019833D01*
X044599Y007628D02*
X044601Y007678D01*
X044607Y007728D01*
X044617Y007778D01*
X044630Y007826D01*
X044647Y007874D01*
X044668Y007920D01*
X044692Y007964D01*
X044720Y008006D01*
X044751Y008046D01*
X044785Y008083D01*
X044822Y008118D01*
X044861Y008149D01*
X044902Y008178D01*
X044946Y008203D01*
X044992Y008225D01*
X045039Y008243D01*
X045087Y008257D01*
X045136Y008268D01*
X045186Y008275D01*
X045236Y008278D01*
X045287Y008277D01*
X045337Y008272D01*
X045387Y008263D01*
X045435Y008251D01*
X045483Y008234D01*
X045529Y008214D01*
X045574Y008191D01*
X045617Y008164D01*
X045657Y008134D01*
X045695Y008101D01*
X045730Y008065D01*
X045763Y008026D01*
X045792Y007985D01*
X045818Y007942D01*
X045841Y007897D01*
X045860Y007850D01*
X045875Y007802D01*
X045887Y007753D01*
X045895Y007703D01*
X045899Y007653D01*
X045899Y007603D01*
X045895Y007553D01*
X045887Y007503D01*
X045875Y007454D01*
X045860Y007406D01*
X045841Y007359D01*
X045818Y007314D01*
X045792Y007271D01*
X045763Y007230D01*
X045730Y007191D01*
X045695Y007155D01*
X045657Y007122D01*
X045617Y007092D01*
X045574Y007065D01*
X045529Y007042D01*
X045483Y007022D01*
X045435Y007005D01*
X045387Y006993D01*
X045337Y006984D01*
X045287Y006979D01*
X045236Y006978D01*
X045186Y006981D01*
X045136Y006988D01*
X045087Y006999D01*
X045039Y007013D01*
X044992Y007031D01*
X044946Y007053D01*
X044902Y007078D01*
X044861Y007107D01*
X044822Y007138D01*
X044785Y007173D01*
X044751Y007210D01*
X044720Y007250D01*
X044692Y007292D01*
X044668Y007336D01*
X044647Y007382D01*
X044630Y007430D01*
X044617Y007478D01*
X044607Y007528D01*
X044601Y007578D01*
X044599Y007628D01*
X044599Y036240D02*
X044601Y036290D01*
X044607Y036340D01*
X044617Y036390D01*
X044630Y036438D01*
X044647Y036486D01*
X044668Y036532D01*
X044692Y036576D01*
X044720Y036618D01*
X044751Y036658D01*
X044785Y036695D01*
X044822Y036730D01*
X044861Y036761D01*
X044902Y036790D01*
X044946Y036815D01*
X044992Y036837D01*
X045039Y036855D01*
X045087Y036869D01*
X045136Y036880D01*
X045186Y036887D01*
X045236Y036890D01*
X045287Y036889D01*
X045337Y036884D01*
X045387Y036875D01*
X045435Y036863D01*
X045483Y036846D01*
X045529Y036826D01*
X045574Y036803D01*
X045617Y036776D01*
X045657Y036746D01*
X045695Y036713D01*
X045730Y036677D01*
X045763Y036638D01*
X045792Y036597D01*
X045818Y036554D01*
X045841Y036509D01*
X045860Y036462D01*
X045875Y036414D01*
X045887Y036365D01*
X045895Y036315D01*
X045899Y036265D01*
X045899Y036215D01*
X045895Y036165D01*
X045887Y036115D01*
X045875Y036066D01*
X045860Y036018D01*
X045841Y035971D01*
X045818Y035926D01*
X045792Y035883D01*
X045763Y035842D01*
X045730Y035803D01*
X045695Y035767D01*
X045657Y035734D01*
X045617Y035704D01*
X045574Y035677D01*
X045529Y035654D01*
X045483Y035634D01*
X045435Y035617D01*
X045387Y035605D01*
X045337Y035596D01*
X045287Y035591D01*
X045236Y035590D01*
X045186Y035593D01*
X045136Y035600D01*
X045087Y035611D01*
X045039Y035625D01*
X044992Y035643D01*
X044946Y035665D01*
X044902Y035690D01*
X044861Y035719D01*
X044822Y035750D01*
X044785Y035785D01*
X044751Y035822D01*
X044720Y035862D01*
X044692Y035904D01*
X044668Y035948D01*
X044647Y035994D01*
X044630Y036042D01*
X044617Y036090D01*
X044607Y036140D01*
X044601Y036190D01*
X044599Y036240D01*
D11*
X033681Y035748D02*
X033656Y035773D01*
X033631Y035773D01*
X033606Y035748D01*
X033581Y035773D01*
X033556Y035773D01*
X033531Y035748D01*
X033531Y035698D01*
X033556Y035673D01*
X033531Y035625D02*
X033531Y035525D01*
X033531Y035478D02*
X033581Y035428D01*
X033581Y035453D02*
X033581Y035378D01*
X033531Y035378D02*
X033681Y035378D01*
X033681Y035453D01*
X033656Y035478D01*
X033606Y035478D01*
X033581Y035453D01*
X033631Y035525D02*
X033681Y035575D01*
X033531Y035575D01*
X033656Y035673D02*
X033681Y035698D01*
X033681Y035748D01*
X033606Y035748D02*
X033606Y035723D01*
X032771Y035748D02*
X032696Y035673D01*
X032696Y035773D01*
X032621Y035748D02*
X032771Y035748D01*
X032771Y035575D02*
X032621Y035575D01*
X032621Y035525D02*
X032621Y035625D01*
X032721Y035525D02*
X032771Y035575D01*
X032746Y035478D02*
X032696Y035478D01*
X032671Y035453D01*
X032671Y035378D01*
X032621Y035378D02*
X032771Y035378D01*
X032771Y035453D01*
X032746Y035478D01*
X032671Y035428D02*
X032621Y035478D01*
X026924Y035745D02*
X026924Y035820D01*
X026899Y035845D01*
X026849Y035845D01*
X026824Y035820D01*
X026824Y035745D01*
X026774Y035745D02*
X026924Y035745D01*
X026824Y035795D02*
X026774Y035845D01*
X026774Y035893D02*
X026774Y035993D01*
X026774Y036040D02*
X026874Y036140D01*
X026899Y036140D01*
X026924Y036115D01*
X026924Y036065D01*
X026899Y036040D01*
X026924Y035943D02*
X026774Y035943D01*
X026774Y036040D02*
X026774Y036140D01*
X026924Y035943D02*
X026874Y035893D01*
X026015Y035943D02*
X025965Y035893D01*
X025990Y035845D02*
X025940Y035845D01*
X025915Y035820D01*
X025915Y035745D01*
X025915Y035795D02*
X025864Y035845D01*
X025864Y035893D02*
X025864Y035993D01*
X025864Y036040D02*
X025864Y036140D01*
X025864Y036090D02*
X026015Y036090D01*
X025965Y036040D01*
X026015Y035943D02*
X025864Y035943D01*
X025990Y035845D02*
X026015Y035820D01*
X026015Y035745D01*
X025864Y035745D01*
X025411Y035623D02*
X025411Y035523D01*
X025411Y035425D02*
X025261Y035425D01*
X025261Y035375D02*
X025261Y035475D01*
X025261Y035523D02*
X025286Y035523D01*
X025386Y035623D01*
X025411Y035623D01*
X025411Y035425D02*
X025361Y035375D01*
X025336Y035328D02*
X025311Y035303D01*
X025311Y035228D01*
X025261Y035228D02*
X025411Y035228D01*
X025411Y035303D01*
X025386Y035328D01*
X025336Y035328D01*
X025311Y035278D02*
X025261Y035328D01*
X024502Y035303D02*
X024477Y035328D01*
X024427Y035328D01*
X024402Y035303D01*
X024402Y035228D01*
X024402Y035278D02*
X024352Y035328D01*
X024352Y035375D02*
X024352Y035475D01*
X024352Y035425D02*
X024502Y035425D01*
X024452Y035375D01*
X024502Y035303D02*
X024502Y035228D01*
X024352Y035228D01*
X024377Y035523D02*
X024402Y035523D01*
X024427Y035548D01*
X024427Y035598D01*
X024402Y035623D01*
X024377Y035623D01*
X024352Y035598D01*
X024352Y035548D01*
X024377Y035523D01*
X024427Y035548D02*
X024452Y035523D01*
X024477Y035523D01*
X024502Y035548D01*
X024502Y035598D01*
X024477Y035623D01*
X024452Y035623D01*
X024427Y035598D01*
X017674Y035895D02*
X017674Y035970D01*
X017649Y035995D01*
X017599Y035995D01*
X017574Y035970D01*
X017574Y035895D01*
X017524Y035895D02*
X017674Y035895D01*
X017574Y035945D02*
X017524Y035995D01*
X017524Y036043D02*
X017524Y036143D01*
X017524Y036093D02*
X017674Y036093D01*
X017624Y036043D01*
X017599Y036190D02*
X017649Y036240D01*
X017674Y036290D01*
X017599Y036265D02*
X017599Y036190D01*
X017549Y036190D01*
X017524Y036215D01*
X017524Y036265D01*
X017549Y036290D01*
X017574Y036290D01*
X017599Y036265D01*
X016765Y036290D02*
X016765Y036190D01*
X016690Y036190D01*
X016715Y036240D01*
X016715Y036265D01*
X016690Y036290D01*
X016640Y036290D01*
X016614Y036265D01*
X016614Y036215D01*
X016640Y036190D01*
X016614Y036143D02*
X016614Y036043D01*
X016614Y035995D02*
X016665Y035945D01*
X016665Y035970D02*
X016665Y035895D01*
X016614Y035895D02*
X016765Y035895D01*
X016765Y035970D01*
X016740Y035995D01*
X016690Y035995D01*
X016665Y035970D01*
X016715Y036043D02*
X016765Y036093D01*
X016614Y036093D01*
M02*
