G75*
G70*
%OFA0B0*%
%FSLAX24Y24*%
%IPPOS*%
%LPD*%
%AMOC8*
5,1,8,0,0,1.08239X$1,22.5*
%
%ADD10C,0.0000*%
%ADD11C,0.0040*%
%ADD12C,0.0030*%
%ADD13R,0.5591X0.2283*%
%ADD14C,0.0080*%
%ADD15C,0.0060*%
%ADD16R,0.0200X0.0736*%
%ADD17R,0.0250X0.0335*%
%ADD18C,0.0050*%
%ADD19C,0.0100*%
%ADD20C,0.0010*%
%ADD21C,0.0120*%
%ADD22C,0.0070*%
%ADD23R,0.1200X0.0200*%
%ADD24R,0.0300X0.0350*%
%ADD25C,0.0020*%
%ADD26C,0.0001*%
%ADD27R,0.0079X0.0079*%
%ADD28R,0.0098X0.0059*%
D10*
X001029Y005856D02*
X001026Y038516D01*
X047510Y038516D01*
X047513Y005856D01*
X038300Y005856D01*
X038304Y005855D02*
X037304Y005855D01*
X037304Y002300D01*
X037004Y002000D01*
X011604Y002000D01*
X011304Y002300D01*
X011304Y005855D01*
X010304Y005855D01*
X010308Y005856D02*
X001029Y005856D01*
X002260Y007628D02*
X002262Y007678D01*
X002268Y007728D01*
X002278Y007778D01*
X002291Y007826D01*
X002308Y007874D01*
X002329Y007920D01*
X002353Y007964D01*
X002381Y008006D01*
X002412Y008046D01*
X002446Y008083D01*
X002483Y008118D01*
X002522Y008149D01*
X002563Y008178D01*
X002607Y008203D01*
X002653Y008225D01*
X002700Y008243D01*
X002748Y008257D01*
X002797Y008268D01*
X002847Y008275D01*
X002897Y008278D01*
X002948Y008277D01*
X002998Y008272D01*
X003048Y008263D01*
X003096Y008251D01*
X003144Y008234D01*
X003190Y008214D01*
X003235Y008191D01*
X003278Y008164D01*
X003318Y008134D01*
X003356Y008101D01*
X003391Y008065D01*
X003424Y008026D01*
X003453Y007985D01*
X003479Y007942D01*
X003502Y007897D01*
X003521Y007850D01*
X003536Y007802D01*
X003548Y007753D01*
X003556Y007703D01*
X003560Y007653D01*
X003560Y007603D01*
X003556Y007553D01*
X003548Y007503D01*
X003536Y007454D01*
X003521Y007406D01*
X003502Y007359D01*
X003479Y007314D01*
X003453Y007271D01*
X003424Y007230D01*
X003391Y007191D01*
X003356Y007155D01*
X003318Y007122D01*
X003278Y007092D01*
X003235Y007065D01*
X003190Y007042D01*
X003144Y007022D01*
X003096Y007005D01*
X003048Y006993D01*
X002998Y006984D01*
X002948Y006979D01*
X002897Y006978D01*
X002847Y006981D01*
X002797Y006988D01*
X002748Y006999D01*
X002700Y007013D01*
X002653Y007031D01*
X002607Y007053D01*
X002563Y007078D01*
X002522Y007107D01*
X002483Y007138D01*
X002446Y007173D01*
X002412Y007210D01*
X002381Y007250D01*
X002353Y007292D01*
X002329Y007336D01*
X002308Y007382D01*
X002291Y007430D01*
X002278Y007478D01*
X002268Y007528D01*
X002262Y007578D01*
X002260Y007628D01*
X003606Y019833D02*
X003608Y019883D01*
X003614Y019933D01*
X003624Y019982D01*
X003638Y020030D01*
X003655Y020077D01*
X003676Y020122D01*
X003701Y020166D01*
X003729Y020207D01*
X003761Y020246D01*
X003795Y020283D01*
X003832Y020317D01*
X003872Y020347D01*
X003914Y020374D01*
X003958Y020398D01*
X004004Y020419D01*
X004051Y020435D01*
X004099Y020448D01*
X004149Y020457D01*
X004198Y020462D01*
X004249Y020463D01*
X004299Y020460D01*
X004348Y020453D01*
X004397Y020442D01*
X004445Y020427D01*
X004491Y020409D01*
X004536Y020387D01*
X004579Y020361D01*
X004620Y020332D01*
X004659Y020300D01*
X004695Y020265D01*
X004727Y020227D01*
X004757Y020187D01*
X004784Y020144D01*
X004807Y020100D01*
X004826Y020054D01*
X004842Y020006D01*
X004854Y019957D01*
X004862Y019908D01*
X004866Y019858D01*
X004866Y019808D01*
X004862Y019758D01*
X004854Y019709D01*
X004842Y019660D01*
X004826Y019612D01*
X004807Y019566D01*
X004784Y019522D01*
X004757Y019479D01*
X004727Y019439D01*
X004695Y019401D01*
X004659Y019366D01*
X004620Y019334D01*
X004579Y019305D01*
X004536Y019279D01*
X004491Y019257D01*
X004445Y019239D01*
X004397Y019224D01*
X004348Y019213D01*
X004299Y019206D01*
X004249Y019203D01*
X004198Y019204D01*
X004149Y019209D01*
X004099Y019218D01*
X004051Y019231D01*
X004004Y019247D01*
X003958Y019268D01*
X003914Y019292D01*
X003872Y019319D01*
X003832Y019349D01*
X003795Y019383D01*
X003761Y019420D01*
X003729Y019459D01*
X003701Y019500D01*
X003676Y019544D01*
X003655Y019589D01*
X003638Y019636D01*
X003624Y019684D01*
X003614Y019733D01*
X003608Y019783D01*
X003606Y019833D01*
X022885Y015084D02*
X022888Y015063D01*
X022894Y015043D01*
X022904Y015025D01*
X022916Y015008D01*
X022932Y014994D01*
X022949Y014983D01*
X022969Y014975D01*
X022989Y014970D01*
X023010Y014969D01*
X023031Y014972D01*
X023051Y014978D01*
X023069Y014988D01*
X023086Y015000D01*
X023100Y015016D01*
X023111Y015033D01*
X023119Y015053D01*
X023124Y015073D01*
X023125Y015094D01*
X043705Y019833D02*
X043707Y019883D01*
X043713Y019933D01*
X043723Y019982D01*
X043737Y020030D01*
X043754Y020077D01*
X043775Y020122D01*
X043800Y020166D01*
X043828Y020207D01*
X043860Y020246D01*
X043894Y020283D01*
X043931Y020317D01*
X043971Y020347D01*
X044013Y020374D01*
X044057Y020398D01*
X044103Y020419D01*
X044150Y020435D01*
X044198Y020448D01*
X044248Y020457D01*
X044297Y020462D01*
X044348Y020463D01*
X044398Y020460D01*
X044447Y020453D01*
X044496Y020442D01*
X044544Y020427D01*
X044590Y020409D01*
X044635Y020387D01*
X044678Y020361D01*
X044719Y020332D01*
X044758Y020300D01*
X044794Y020265D01*
X044826Y020227D01*
X044856Y020187D01*
X044883Y020144D01*
X044906Y020100D01*
X044925Y020054D01*
X044941Y020006D01*
X044953Y019957D01*
X044961Y019908D01*
X044965Y019858D01*
X044965Y019808D01*
X044961Y019758D01*
X044953Y019709D01*
X044941Y019660D01*
X044925Y019612D01*
X044906Y019566D01*
X044883Y019522D01*
X044856Y019479D01*
X044826Y019439D01*
X044794Y019401D01*
X044758Y019366D01*
X044719Y019334D01*
X044678Y019305D01*
X044635Y019279D01*
X044590Y019257D01*
X044544Y019239D01*
X044496Y019224D01*
X044447Y019213D01*
X044398Y019206D01*
X044348Y019203D01*
X044297Y019204D01*
X044248Y019209D01*
X044198Y019218D01*
X044150Y019231D01*
X044103Y019247D01*
X044057Y019268D01*
X044013Y019292D01*
X043971Y019319D01*
X043931Y019349D01*
X043894Y019383D01*
X043860Y019420D01*
X043828Y019459D01*
X043800Y019500D01*
X043775Y019544D01*
X043754Y019589D01*
X043737Y019636D01*
X043723Y019684D01*
X043713Y019733D01*
X043707Y019783D01*
X043705Y019833D01*
X044599Y007628D02*
X044601Y007678D01*
X044607Y007728D01*
X044617Y007778D01*
X044630Y007826D01*
X044647Y007874D01*
X044668Y007920D01*
X044692Y007964D01*
X044720Y008006D01*
X044751Y008046D01*
X044785Y008083D01*
X044822Y008118D01*
X044861Y008149D01*
X044902Y008178D01*
X044946Y008203D01*
X044992Y008225D01*
X045039Y008243D01*
X045087Y008257D01*
X045136Y008268D01*
X045186Y008275D01*
X045236Y008278D01*
X045287Y008277D01*
X045337Y008272D01*
X045387Y008263D01*
X045435Y008251D01*
X045483Y008234D01*
X045529Y008214D01*
X045574Y008191D01*
X045617Y008164D01*
X045657Y008134D01*
X045695Y008101D01*
X045730Y008065D01*
X045763Y008026D01*
X045792Y007985D01*
X045818Y007942D01*
X045841Y007897D01*
X045860Y007850D01*
X045875Y007802D01*
X045887Y007753D01*
X045895Y007703D01*
X045899Y007653D01*
X045899Y007603D01*
X045895Y007553D01*
X045887Y007503D01*
X045875Y007454D01*
X045860Y007406D01*
X045841Y007359D01*
X045818Y007314D01*
X045792Y007271D01*
X045763Y007230D01*
X045730Y007191D01*
X045695Y007155D01*
X045657Y007122D01*
X045617Y007092D01*
X045574Y007065D01*
X045529Y007042D01*
X045483Y007022D01*
X045435Y007005D01*
X045387Y006993D01*
X045337Y006984D01*
X045287Y006979D01*
X045236Y006978D01*
X045186Y006981D01*
X045136Y006988D01*
X045087Y006999D01*
X045039Y007013D01*
X044992Y007031D01*
X044946Y007053D01*
X044902Y007078D01*
X044861Y007107D01*
X044822Y007138D01*
X044785Y007173D01*
X044751Y007210D01*
X044720Y007250D01*
X044692Y007292D01*
X044668Y007336D01*
X044647Y007382D01*
X044630Y007430D01*
X044617Y007478D01*
X044607Y007528D01*
X044601Y007578D01*
X044599Y007628D01*
X044599Y036240D02*
X044601Y036290D01*
X044607Y036340D01*
X044617Y036390D01*
X044630Y036438D01*
X044647Y036486D01*
X044668Y036532D01*
X044692Y036576D01*
X044720Y036618D01*
X044751Y036658D01*
X044785Y036695D01*
X044822Y036730D01*
X044861Y036761D01*
X044902Y036790D01*
X044946Y036815D01*
X044992Y036837D01*
X045039Y036855D01*
X045087Y036869D01*
X045136Y036880D01*
X045186Y036887D01*
X045236Y036890D01*
X045287Y036889D01*
X045337Y036884D01*
X045387Y036875D01*
X045435Y036863D01*
X045483Y036846D01*
X045529Y036826D01*
X045574Y036803D01*
X045617Y036776D01*
X045657Y036746D01*
X045695Y036713D01*
X045730Y036677D01*
X045763Y036638D01*
X045792Y036597D01*
X045818Y036554D01*
X045841Y036509D01*
X045860Y036462D01*
X045875Y036414D01*
X045887Y036365D01*
X045895Y036315D01*
X045899Y036265D01*
X045899Y036215D01*
X045895Y036165D01*
X045887Y036115D01*
X045875Y036066D01*
X045860Y036018D01*
X045841Y035971D01*
X045818Y035926D01*
X045792Y035883D01*
X045763Y035842D01*
X045730Y035803D01*
X045695Y035767D01*
X045657Y035734D01*
X045617Y035704D01*
X045574Y035677D01*
X045529Y035654D01*
X045483Y035634D01*
X045435Y035617D01*
X045387Y035605D01*
X045337Y035596D01*
X045287Y035591D01*
X045236Y035590D01*
X045186Y035593D01*
X045136Y035600D01*
X045087Y035611D01*
X045039Y035625D01*
X044992Y035643D01*
X044946Y035665D01*
X044902Y035690D01*
X044861Y035719D01*
X044822Y035750D01*
X044785Y035785D01*
X044751Y035822D01*
X044720Y035862D01*
X044692Y035904D01*
X044668Y035948D01*
X044647Y035994D01*
X044630Y036042D01*
X044617Y036090D01*
X044607Y036140D01*
X044601Y036190D01*
X044599Y036240D01*
X002601Y036240D02*
X002603Y036290D01*
X002609Y036340D01*
X002619Y036390D01*
X002632Y036438D01*
X002649Y036486D01*
X002670Y036532D01*
X002694Y036576D01*
X002722Y036618D01*
X002753Y036658D01*
X002787Y036695D01*
X002824Y036730D01*
X002863Y036761D01*
X002904Y036790D01*
X002948Y036815D01*
X002994Y036837D01*
X003041Y036855D01*
X003089Y036869D01*
X003138Y036880D01*
X003188Y036887D01*
X003238Y036890D01*
X003289Y036889D01*
X003339Y036884D01*
X003389Y036875D01*
X003437Y036863D01*
X003485Y036846D01*
X003531Y036826D01*
X003576Y036803D01*
X003619Y036776D01*
X003659Y036746D01*
X003697Y036713D01*
X003732Y036677D01*
X003765Y036638D01*
X003794Y036597D01*
X003820Y036554D01*
X003843Y036509D01*
X003862Y036462D01*
X003877Y036414D01*
X003889Y036365D01*
X003897Y036315D01*
X003901Y036265D01*
X003901Y036215D01*
X003897Y036165D01*
X003889Y036115D01*
X003877Y036066D01*
X003862Y036018D01*
X003843Y035971D01*
X003820Y035926D01*
X003794Y035883D01*
X003765Y035842D01*
X003732Y035803D01*
X003697Y035767D01*
X003659Y035734D01*
X003619Y035704D01*
X003576Y035677D01*
X003531Y035654D01*
X003485Y035634D01*
X003437Y035617D01*
X003389Y035605D01*
X003339Y035596D01*
X003289Y035591D01*
X003238Y035590D01*
X003188Y035593D01*
X003138Y035600D01*
X003089Y035611D01*
X003041Y035625D01*
X002994Y035643D01*
X002948Y035665D01*
X002904Y035690D01*
X002863Y035719D01*
X002824Y035750D01*
X002787Y035785D01*
X002753Y035822D01*
X002722Y035862D01*
X002694Y035904D01*
X002670Y035948D01*
X002649Y035994D01*
X002632Y036042D01*
X002619Y036090D01*
X002609Y036140D01*
X002603Y036190D01*
X002601Y036240D01*
D11*
X014975Y020927D02*
X014975Y020620D01*
X014975Y020774D02*
X014515Y020774D01*
X014669Y020620D01*
X014592Y020467D02*
X014515Y020390D01*
X014515Y020236D01*
X014592Y020160D01*
X014899Y020160D01*
X014975Y020236D01*
X014975Y020390D01*
X014899Y020467D01*
X014975Y020006D02*
X014975Y019853D01*
X014975Y019929D02*
X014515Y019929D01*
X014515Y019853D02*
X014515Y020006D01*
X021147Y022199D02*
X021300Y022199D01*
X021224Y022199D02*
X021224Y022660D01*
X021300Y022660D02*
X021147Y022660D01*
X021454Y022660D02*
X021761Y022199D01*
X021761Y022660D01*
X021914Y022506D02*
X022068Y022660D01*
X022068Y022199D01*
X022221Y022199D02*
X021914Y022199D01*
X021454Y022199D02*
X021454Y022660D01*
X022434Y022675D02*
X022588Y022675D01*
X022511Y022675D02*
X022511Y022215D01*
X022434Y022215D02*
X022588Y022215D01*
X022741Y022215D02*
X022741Y022675D01*
X023048Y022215D01*
X023048Y022675D01*
X023202Y022599D02*
X023278Y022675D01*
X023432Y022675D01*
X023509Y022599D01*
X023509Y022522D01*
X023202Y022215D01*
X023509Y022215D01*
X025190Y022215D02*
X025344Y022215D01*
X025267Y022215D02*
X025267Y022675D01*
X025190Y022675D02*
X025344Y022675D01*
X025497Y022675D02*
X025804Y022215D01*
X025804Y022675D01*
X025958Y022599D02*
X026034Y022675D01*
X026188Y022675D01*
X026265Y022599D01*
X026265Y022522D01*
X025958Y022215D01*
X026265Y022215D01*
X026568Y022215D02*
X026722Y022215D01*
X026645Y022215D02*
X026645Y022675D01*
X026568Y022675D02*
X026722Y022675D01*
X026875Y022675D02*
X027182Y022215D01*
X027182Y022675D01*
X027336Y022522D02*
X027489Y022675D01*
X027489Y022215D01*
X027336Y022215D02*
X027642Y022215D01*
X026875Y022215D02*
X026875Y022675D01*
X025497Y022675D02*
X025497Y022215D01*
X033645Y019623D02*
X033645Y019469D01*
X033722Y019392D01*
X033722Y019239D02*
X033645Y019162D01*
X033645Y019009D01*
X033722Y018932D01*
X034029Y018932D01*
X034105Y019009D01*
X034105Y019162D01*
X034029Y019239D01*
X034105Y019392D02*
X033798Y019699D01*
X033722Y019699D01*
X033645Y019623D01*
X034105Y019699D02*
X034105Y019392D01*
X034105Y018779D02*
X034105Y018625D01*
X034105Y018702D02*
X033645Y018702D01*
X033645Y018625D02*
X033645Y018779D01*
X046340Y027145D02*
X046340Y027405D01*
X046427Y027492D01*
X046774Y027492D01*
X046860Y027405D01*
X046860Y027145D01*
X046340Y027145D01*
X046340Y027661D02*
X046774Y027661D01*
X046860Y027748D01*
X046860Y027921D01*
X046774Y028008D01*
X046340Y028008D01*
X046513Y028177D02*
X046340Y028350D01*
X046513Y028523D01*
X046860Y028523D01*
X046860Y028692D02*
X046340Y028692D01*
X046600Y028523D02*
X046600Y028177D01*
X046513Y028177D02*
X046860Y028177D01*
X046860Y028692D02*
X046860Y029039D01*
X046340Y029723D02*
X046340Y030070D01*
X046340Y030239D02*
X046860Y030239D01*
X046600Y030239D02*
X046600Y030586D01*
X046687Y030755D02*
X046687Y031015D01*
X046600Y031102D01*
X046427Y031102D01*
X046340Y031015D01*
X046340Y030755D01*
X046860Y030755D01*
X046860Y030586D02*
X046340Y030586D01*
X046687Y030928D02*
X046860Y031102D01*
X046774Y031270D02*
X046860Y031357D01*
X046860Y031531D01*
X046774Y031617D01*
X046340Y031617D01*
X046427Y031786D02*
X046513Y031786D01*
X046600Y031873D01*
X046600Y032046D01*
X046687Y032133D01*
X046774Y032133D01*
X046860Y032046D01*
X046860Y031873D01*
X046774Y031786D01*
X046427Y031786D02*
X046340Y031873D01*
X046340Y032046D01*
X046427Y032133D01*
X046340Y032302D02*
X046340Y032649D01*
X046340Y032817D02*
X046860Y032817D01*
X046860Y033164D01*
X046860Y033333D02*
X046340Y033333D01*
X046340Y033593D01*
X046427Y033680D01*
X046600Y033680D01*
X046687Y033593D01*
X046687Y033333D01*
X046687Y033506D02*
X046860Y033680D01*
X046774Y034364D02*
X046427Y034364D01*
X046340Y034451D01*
X046340Y034624D01*
X046427Y034711D01*
X046427Y034880D02*
X046774Y034880D01*
X046860Y034967D01*
X046860Y035140D01*
X046774Y035227D01*
X046427Y035227D01*
X046340Y035140D01*
X046340Y034967D01*
X046427Y034880D01*
X046774Y034711D02*
X046860Y034624D01*
X046860Y034451D01*
X046774Y034364D01*
X046860Y035395D02*
X046340Y035395D01*
X046860Y035742D01*
X046340Y035742D01*
X046340Y035911D02*
X046340Y036258D01*
X046340Y036427D02*
X046340Y036687D01*
X046427Y036774D01*
X046600Y036774D01*
X046687Y036687D01*
X046687Y036427D01*
X046687Y036600D02*
X046860Y036774D01*
X046774Y036942D02*
X046860Y037029D01*
X046860Y037203D01*
X046774Y037289D01*
X046427Y037289D01*
X046340Y037203D01*
X046340Y037029D01*
X046427Y036942D01*
X046774Y036942D01*
X046860Y036427D02*
X046340Y036427D01*
X046340Y036085D02*
X046860Y036085D01*
X046860Y037458D02*
X046340Y037458D01*
X046860Y037458D02*
X046860Y037805D01*
X044442Y037412D02*
X044442Y037259D01*
X044365Y037182D01*
X044058Y037489D01*
X044365Y037489D01*
X044442Y037412D01*
X044365Y037182D02*
X044058Y037182D01*
X043981Y037259D01*
X043981Y037412D01*
X044058Y037489D01*
X044518Y037029D02*
X044518Y036722D01*
X044442Y036568D02*
X044288Y036415D01*
X044288Y036491D02*
X044288Y036261D01*
X044442Y036261D02*
X043981Y036261D01*
X043981Y036491D01*
X044058Y036568D01*
X044211Y036568D01*
X044288Y036491D01*
X044365Y036108D02*
X044058Y036108D01*
X043981Y036031D01*
X043981Y035878D01*
X044058Y035801D01*
X044365Y035801D01*
X044442Y035878D01*
X044442Y036031D01*
X044365Y036108D01*
X043981Y035647D02*
X043981Y035340D01*
X043981Y035494D02*
X044442Y035494D01*
X044365Y035187D02*
X044058Y035187D01*
X043981Y035110D01*
X043981Y034957D01*
X044058Y034880D01*
X044365Y034880D01*
X044442Y034957D01*
X044442Y035110D01*
X044365Y035187D01*
X044442Y034727D02*
X043981Y034727D01*
X044135Y034573D01*
X043981Y034420D01*
X044442Y034420D01*
X044442Y033946D02*
X044442Y033639D01*
X044442Y033792D02*
X043981Y033792D01*
X044135Y033639D01*
X044518Y033485D02*
X044518Y033178D01*
X044442Y033025D02*
X044288Y032871D01*
X044288Y032948D02*
X044288Y032718D01*
X044442Y032718D02*
X043981Y032718D01*
X043981Y032948D01*
X044058Y033025D01*
X044211Y033025D01*
X044288Y032948D01*
X044365Y032564D02*
X044058Y032564D01*
X043981Y032488D01*
X043981Y032334D01*
X044058Y032258D01*
X044365Y032258D01*
X044442Y032334D01*
X044442Y032488D01*
X044365Y032564D01*
X043981Y032104D02*
X043981Y031797D01*
X043981Y031951D02*
X044442Y031951D01*
X044365Y031644D02*
X044058Y031644D01*
X043981Y031567D01*
X043981Y031414D01*
X044058Y031337D01*
X044365Y031337D01*
X044442Y031414D01*
X044442Y031567D01*
X044365Y031644D01*
X044442Y031183D02*
X043981Y031183D01*
X044135Y031030D01*
X043981Y030876D01*
X044442Y030876D01*
X046340Y031270D02*
X046774Y031270D01*
X046860Y029897D02*
X046340Y029897D01*
X046340Y032475D02*
X046860Y032475D01*
X046600Y032817D02*
X046600Y032991D01*
X046340Y033164D02*
X046340Y032817D01*
X036978Y006280D02*
X036978Y005820D01*
X037131Y005820D02*
X036824Y005820D01*
X036824Y006127D02*
X036978Y006280D01*
X011413Y009047D02*
X011326Y008961D01*
X011153Y008961D01*
X011066Y009047D01*
X011066Y009221D02*
X011239Y009308D01*
X011326Y009308D01*
X011413Y009221D01*
X011413Y009047D01*
X011066Y009221D02*
X011066Y009481D01*
X011413Y009481D01*
X010724Y009481D02*
X010724Y008961D01*
X010897Y008961D02*
X010550Y008961D01*
X010382Y009047D02*
X010382Y009394D01*
X010035Y009047D01*
X010121Y008961D01*
X010295Y008961D01*
X010382Y009047D01*
X010550Y009308D02*
X010724Y009481D01*
X010382Y009394D02*
X010295Y009481D01*
X010121Y009481D01*
X010035Y009394D01*
X010035Y009047D01*
X009866Y008961D02*
X009519Y008961D01*
X009866Y009308D01*
X009866Y009394D01*
X009779Y009481D01*
X009606Y009481D01*
X009519Y009394D01*
X008835Y009308D02*
X008835Y008961D01*
X008835Y009221D02*
X008488Y009221D01*
X008488Y009308D02*
X008488Y008961D01*
X008319Y009047D02*
X008232Y008961D01*
X008059Y008961D01*
X007972Y009047D01*
X007803Y008961D02*
X007630Y009134D01*
X007717Y009134D02*
X007456Y009134D01*
X007456Y008961D02*
X007456Y009481D01*
X007717Y009481D01*
X007803Y009394D01*
X007803Y009221D01*
X007717Y009134D01*
X007972Y009308D02*
X008059Y009221D01*
X008232Y009221D01*
X008319Y009134D01*
X008319Y009047D01*
X008488Y009308D02*
X008661Y009481D01*
X008835Y009308D01*
X008319Y009394D02*
X008232Y009481D01*
X008059Y009481D01*
X007972Y009394D01*
X007972Y009308D01*
X007288Y009481D02*
X007288Y009047D01*
X007201Y008961D01*
X007028Y008961D01*
X006941Y009047D01*
X006941Y009481D01*
X006257Y009308D02*
X006257Y008961D01*
X006257Y009221D02*
X005910Y009221D01*
X005910Y009308D02*
X005910Y008961D01*
X005741Y009047D02*
X005741Y009481D01*
X005910Y009308D02*
X006083Y009481D01*
X006257Y009308D01*
X005741Y009047D02*
X005654Y008961D01*
X005481Y008961D01*
X005394Y009047D01*
X005394Y009481D01*
X005225Y009394D02*
X005225Y009047D01*
X005138Y008961D01*
X004965Y008961D01*
X004878Y009047D01*
X004878Y009394D01*
X004965Y009481D01*
X005138Y009481D01*
X005225Y009394D01*
X005052Y009134D02*
X005225Y008961D01*
X004710Y008961D02*
X004710Y009308D01*
X004536Y009481D01*
X004363Y009308D01*
X004363Y008961D01*
X004363Y009221D02*
X004710Y009221D01*
X005963Y008531D02*
X005963Y008011D01*
X006310Y008011D02*
X006310Y008531D01*
X006136Y008358D01*
X005963Y008531D01*
X006994Y008531D02*
X006994Y008011D01*
X007254Y008011D01*
X007341Y008097D01*
X007341Y008184D01*
X007254Y008271D01*
X006994Y008271D01*
X007254Y008271D02*
X007341Y008358D01*
X007341Y008444D01*
X007254Y008531D01*
X006994Y008531D01*
X007510Y008531D02*
X007510Y008097D01*
X007596Y008011D01*
X007770Y008011D01*
X007857Y008097D01*
X007857Y008531D01*
X008199Y008531D02*
X008372Y008531D01*
X008285Y008531D02*
X008285Y008097D01*
X008199Y008011D01*
X008112Y008011D01*
X008025Y008097D01*
X008541Y008097D02*
X008541Y008444D01*
X008628Y008531D01*
X008801Y008531D01*
X008888Y008444D01*
X008888Y008097D01*
X008801Y008011D01*
X008628Y008011D01*
X008541Y008097D01*
X009056Y008011D02*
X009056Y008531D01*
X009572Y008531D02*
X009832Y008531D01*
X009919Y008444D01*
X009919Y008097D01*
X009832Y008011D01*
X009572Y008011D01*
X009572Y008531D01*
X009403Y008011D02*
X009056Y008011D01*
D12*
X021760Y014927D02*
X022074Y015241D01*
X022074Y015084D02*
X021760Y015084D01*
X021760Y015241D02*
X022074Y014927D01*
X021917Y014927D02*
X021917Y015241D01*
X022240Y015339D02*
X022397Y015339D01*
X022318Y015339D02*
X022318Y015809D01*
X022240Y015809D02*
X022397Y015809D01*
X022547Y015731D02*
X022547Y015417D01*
X022625Y015339D01*
X022782Y015339D01*
X022860Y015417D01*
X023007Y015339D02*
X023321Y015339D01*
X023468Y015339D02*
X023468Y015417D01*
X023781Y015731D01*
X023781Y015809D01*
X023468Y015809D01*
X023164Y015809D02*
X023164Y015339D01*
X023007Y015653D02*
X023164Y015809D01*
X022860Y015731D02*
X022782Y015809D01*
X022625Y015809D01*
X022547Y015731D01*
X024263Y035005D02*
X024201Y035067D01*
X024263Y035005D02*
X024386Y035005D01*
X024448Y035067D01*
X024448Y035129D01*
X024386Y035190D01*
X024324Y035190D01*
X024386Y035190D02*
X024448Y035252D01*
X024448Y035314D01*
X024386Y035376D01*
X024263Y035376D01*
X024201Y035314D01*
X024201Y035605D02*
X024448Y035852D01*
X024448Y035914D01*
X024386Y035976D01*
X024263Y035976D01*
X024201Y035914D01*
X024201Y036205D02*
X024448Y036205D01*
X024324Y036205D02*
X024324Y036576D01*
X024201Y036452D01*
X024938Y036329D02*
X025061Y036205D01*
X025185Y036329D01*
X025185Y036576D01*
X025306Y036576D02*
X025306Y036205D01*
X025553Y036205D01*
X025674Y036205D02*
X025674Y036576D01*
X025859Y036576D01*
X025921Y036514D01*
X025921Y036390D01*
X025859Y036329D01*
X025674Y036329D01*
X025798Y036329D02*
X025921Y036205D01*
X025859Y035976D02*
X025921Y035914D01*
X025921Y035790D01*
X025859Y035729D01*
X025674Y035729D01*
X025798Y035729D02*
X025921Y035605D01*
X026043Y035605D02*
X026166Y035605D01*
X026104Y035605D02*
X026104Y035976D01*
X026043Y035976D02*
X026166Y035976D01*
X026288Y035976D02*
X026535Y035976D01*
X026535Y035914D01*
X026288Y035667D01*
X026288Y035605D01*
X026535Y035605D01*
X026658Y035376D02*
X026411Y035376D01*
X026411Y035005D01*
X026289Y035005D02*
X026289Y035252D01*
X026166Y035376D01*
X026043Y035252D01*
X026043Y035005D01*
X025921Y035005D02*
X025798Y035129D01*
X025859Y035129D02*
X025674Y035129D01*
X025674Y035005D02*
X025674Y035376D01*
X025859Y035376D01*
X025921Y035314D01*
X025921Y035190D01*
X025859Y035129D01*
X026043Y035190D02*
X026289Y035190D01*
X026411Y035190D02*
X026534Y035190D01*
X025674Y035605D02*
X025674Y035976D01*
X025859Y035976D01*
X025553Y035914D02*
X025553Y035667D01*
X025491Y035605D01*
X025368Y035605D01*
X025306Y035667D01*
X025306Y035914D01*
X025368Y035976D01*
X025491Y035976D01*
X025553Y035914D01*
X025185Y035976D02*
X025185Y035605D01*
X025185Y035790D02*
X024938Y035790D01*
X024938Y035605D02*
X024938Y035976D01*
X024938Y036329D02*
X024938Y036576D01*
X025306Y036576D02*
X025553Y036576D01*
X025429Y036390D02*
X025306Y036390D01*
X026043Y036576D02*
X026289Y036576D01*
X026166Y036576D02*
X026166Y036205D01*
X025553Y035376D02*
X025306Y035376D01*
X025429Y035376D02*
X025429Y035005D01*
X025185Y035067D02*
X025123Y035005D01*
X024999Y035005D01*
X024938Y035067D01*
X024999Y035190D02*
X025123Y035190D01*
X025185Y035129D01*
X025185Y035067D01*
X024999Y035190D02*
X024938Y035252D01*
X024938Y035314D01*
X024999Y035376D01*
X025123Y035376D01*
X025185Y035314D01*
X024448Y035605D02*
X024201Y035605D01*
D13*
X041273Y007667D03*
D14*
X032710Y016791D02*
X032210Y016791D01*
X016360Y022741D02*
X015860Y022741D01*
X015190Y031368D02*
X012710Y031368D01*
X012710Y032313D01*
X015190Y032313D01*
X015190Y031368D01*
X015190Y033534D02*
X012710Y033534D01*
X012710Y034478D01*
X015190Y034478D01*
X015190Y033534D01*
X010816Y035618D02*
X010816Y037118D01*
X033422Y037512D02*
X033422Y036012D01*
X035347Y033494D02*
X037828Y033494D01*
X037828Y032549D01*
X035347Y032549D01*
X035347Y033494D01*
X035347Y032116D02*
X037828Y032116D01*
X037828Y031171D01*
X035347Y031171D01*
X035347Y032116D01*
X039838Y030850D02*
X043687Y030850D01*
X043687Y031559D01*
X042732Y031559D01*
X042732Y033132D01*
X043687Y033132D01*
X043687Y033841D01*
X039838Y033841D01*
X039838Y030850D01*
X043687Y031559D02*
X043687Y033132D01*
X043666Y034450D02*
X039817Y034450D01*
X039817Y037441D01*
X043666Y037441D01*
X043666Y036732D01*
X042711Y036732D01*
X042711Y035159D01*
X043666Y035159D01*
X043666Y036732D01*
X043666Y035159D02*
X043666Y034450D01*
X036769Y036012D02*
X036769Y037512D01*
D15*
X036769Y036762D02*
X036771Y036825D01*
X036777Y036887D01*
X036787Y036949D01*
X036800Y037011D01*
X036818Y037071D01*
X036839Y037130D01*
X036864Y037188D01*
X036893Y037244D01*
X036925Y037298D01*
X036960Y037350D01*
X036998Y037399D01*
X037040Y037447D01*
X037084Y037491D01*
X037132Y037533D01*
X037181Y037571D01*
X037233Y037606D01*
X037287Y037638D01*
X037343Y037667D01*
X037401Y037692D01*
X037460Y037713D01*
X037520Y037731D01*
X037582Y037744D01*
X037644Y037754D01*
X037706Y037760D01*
X037769Y037762D01*
X037832Y037760D01*
X037894Y037754D01*
X037956Y037744D01*
X038018Y037731D01*
X038078Y037713D01*
X038137Y037692D01*
X038195Y037667D01*
X038251Y037638D01*
X038305Y037606D01*
X038357Y037571D01*
X038406Y037533D01*
X038454Y037491D01*
X038498Y037447D01*
X038540Y037399D01*
X038578Y037350D01*
X038613Y037298D01*
X038645Y037244D01*
X038674Y037188D01*
X038699Y037130D01*
X038720Y037071D01*
X038738Y037011D01*
X038751Y036949D01*
X038761Y036887D01*
X038767Y036825D01*
X038769Y036762D01*
X038767Y036699D01*
X038761Y036637D01*
X038751Y036575D01*
X038738Y036513D01*
X038720Y036453D01*
X038699Y036394D01*
X038674Y036336D01*
X038645Y036280D01*
X038613Y036226D01*
X038578Y036174D01*
X038540Y036125D01*
X038498Y036077D01*
X038454Y036033D01*
X038406Y035991D01*
X038357Y035953D01*
X038305Y035918D01*
X038251Y035886D01*
X038195Y035857D01*
X038137Y035832D01*
X038078Y035811D01*
X038018Y035793D01*
X037956Y035780D01*
X037894Y035770D01*
X037832Y035764D01*
X037769Y035762D01*
X037706Y035764D01*
X037644Y035770D01*
X037582Y035780D01*
X037520Y035793D01*
X037460Y035811D01*
X037401Y035832D01*
X037343Y035857D01*
X037287Y035886D01*
X037233Y035918D01*
X037181Y035953D01*
X037132Y035991D01*
X037084Y036033D01*
X037040Y036077D01*
X036998Y036125D01*
X036960Y036174D01*
X036925Y036226D01*
X036893Y036280D01*
X036864Y036336D01*
X036839Y036394D01*
X036818Y036453D01*
X036800Y036513D01*
X036787Y036575D01*
X036777Y036637D01*
X036771Y036699D01*
X036769Y036762D01*
X033422Y036762D02*
X033424Y036825D01*
X033430Y036887D01*
X033440Y036949D01*
X033453Y037011D01*
X033471Y037071D01*
X033492Y037130D01*
X033517Y037188D01*
X033546Y037244D01*
X033578Y037298D01*
X033613Y037350D01*
X033651Y037399D01*
X033693Y037447D01*
X033737Y037491D01*
X033785Y037533D01*
X033834Y037571D01*
X033886Y037606D01*
X033940Y037638D01*
X033996Y037667D01*
X034054Y037692D01*
X034113Y037713D01*
X034173Y037731D01*
X034235Y037744D01*
X034297Y037754D01*
X034359Y037760D01*
X034422Y037762D01*
X034485Y037760D01*
X034547Y037754D01*
X034609Y037744D01*
X034671Y037731D01*
X034731Y037713D01*
X034790Y037692D01*
X034848Y037667D01*
X034904Y037638D01*
X034958Y037606D01*
X035010Y037571D01*
X035059Y037533D01*
X035107Y037491D01*
X035151Y037447D01*
X035193Y037399D01*
X035231Y037350D01*
X035266Y037298D01*
X035298Y037244D01*
X035327Y037188D01*
X035352Y037130D01*
X035373Y037071D01*
X035391Y037011D01*
X035404Y036949D01*
X035414Y036887D01*
X035420Y036825D01*
X035422Y036762D01*
X035420Y036699D01*
X035414Y036637D01*
X035404Y036575D01*
X035391Y036513D01*
X035373Y036453D01*
X035352Y036394D01*
X035327Y036336D01*
X035298Y036280D01*
X035266Y036226D01*
X035231Y036174D01*
X035193Y036125D01*
X035151Y036077D01*
X035107Y036033D01*
X035059Y035991D01*
X035010Y035953D01*
X034958Y035918D01*
X034904Y035886D01*
X034848Y035857D01*
X034790Y035832D01*
X034731Y035811D01*
X034671Y035793D01*
X034609Y035780D01*
X034547Y035770D01*
X034485Y035764D01*
X034422Y035762D01*
X034359Y035764D01*
X034297Y035770D01*
X034235Y035780D01*
X034173Y035793D01*
X034113Y035811D01*
X034054Y035832D01*
X033996Y035857D01*
X033940Y035886D01*
X033886Y035918D01*
X033834Y035953D01*
X033785Y035991D01*
X033737Y036033D01*
X033693Y036077D01*
X033651Y036125D01*
X033613Y036174D01*
X033578Y036226D01*
X033546Y036280D01*
X033517Y036336D01*
X033492Y036394D01*
X033471Y036453D01*
X033453Y036513D01*
X033440Y036575D01*
X033430Y036637D01*
X033424Y036699D01*
X033422Y036762D01*
X031895Y036928D02*
X031895Y034628D01*
X027895Y034628D01*
X027895Y035378D01*
X027934Y035380D01*
X027973Y035386D01*
X028011Y035395D01*
X028048Y035408D01*
X028084Y035425D01*
X028117Y035445D01*
X028149Y035469D01*
X028178Y035495D01*
X028204Y035524D01*
X028228Y035556D01*
X028248Y035589D01*
X028265Y035625D01*
X028278Y035662D01*
X028287Y035700D01*
X028293Y035739D01*
X028295Y035778D01*
X028293Y035817D01*
X028287Y035856D01*
X028278Y035894D01*
X028265Y035931D01*
X028248Y035967D01*
X028228Y036000D01*
X028204Y036032D01*
X028178Y036061D01*
X028149Y036087D01*
X028117Y036111D01*
X028084Y036131D01*
X028048Y036148D01*
X028011Y036161D01*
X027973Y036170D01*
X027934Y036176D01*
X027895Y036178D01*
X027895Y036928D01*
X031895Y036928D01*
X027780Y030553D02*
X026141Y030553D01*
X026141Y029829D01*
X027780Y029829D01*
X027780Y030553D01*
X027210Y030191D02*
X026960Y030191D01*
X026960Y030441D01*
X026960Y030191D02*
X026960Y029941D01*
X026960Y030191D02*
X026360Y030191D01*
X026560Y029941D02*
X026560Y030441D01*
X026960Y030191D01*
X026560Y029941D01*
X026141Y029453D02*
X026141Y028729D01*
X027780Y028729D01*
X027780Y029453D01*
X026141Y029453D01*
X026710Y029091D02*
X026960Y029091D01*
X026960Y028841D01*
X026960Y029091D02*
X026960Y029341D01*
X026960Y029091D02*
X027360Y029341D01*
X027360Y028841D01*
X026960Y029091D01*
X027560Y029091D01*
X027780Y027553D02*
X026141Y027553D01*
X026141Y026829D01*
X027780Y026829D01*
X027780Y027553D01*
X027210Y027191D02*
X026960Y027191D01*
X026960Y027441D01*
X026960Y027191D02*
X026360Y027191D01*
X026560Y026941D02*
X026960Y027191D01*
X026960Y026941D01*
X026960Y027191D02*
X026560Y027441D01*
X026560Y026941D01*
X026141Y026453D02*
X026141Y025729D01*
X027780Y025729D01*
X027780Y026453D01*
X026141Y026453D01*
X026710Y026091D02*
X026960Y026091D01*
X026960Y025841D01*
X026960Y026091D02*
X026960Y026341D01*
X026960Y026091D02*
X027360Y026341D01*
X027360Y025841D01*
X026960Y026091D01*
X027560Y026091D01*
X028010Y023833D02*
X027960Y023783D01*
X027960Y023333D01*
X028010Y023283D01*
X028010Y022983D01*
X027960Y022933D01*
X027960Y015883D01*
X028010Y015833D01*
X031810Y015833D01*
X031810Y022983D01*
X031810Y023283D01*
X031810Y023833D01*
X028010Y023833D01*
X027960Y023783D02*
X027910Y023733D01*
X027910Y023383D01*
X027930Y023383D01*
X027930Y023733D01*
X027910Y023383D02*
X027960Y023333D01*
X028010Y023283D02*
X028030Y023283D01*
X028060Y023283D01*
X028060Y022983D01*
X028030Y022983D01*
X028030Y023283D01*
X028060Y023283D02*
X031710Y023283D01*
X031710Y022983D01*
X028060Y022983D01*
X028030Y022983D02*
X028010Y022983D01*
X027960Y022933D02*
X027910Y022883D01*
X027930Y022883D01*
X027930Y015933D01*
X027910Y015933D02*
X027960Y015883D01*
X027910Y015933D02*
X027910Y022883D01*
X029310Y022333D02*
X029910Y022333D01*
X029910Y022783D01*
X030110Y022633D02*
X030410Y022633D01*
X030260Y022783D02*
X030260Y022483D01*
X030510Y022333D02*
X029910Y022333D01*
X029910Y021783D02*
X029910Y016033D01*
X031810Y015833D02*
X031910Y015933D01*
X031910Y022883D01*
X031810Y022983D01*
X031710Y022983D01*
X031710Y023283D02*
X031810Y023283D01*
X031910Y023383D01*
X031910Y023733D01*
X031810Y023833D01*
X030510Y022333D02*
X030510Y022133D01*
X029310Y022133D01*
X029310Y022333D01*
X030160Y026341D02*
X030510Y026341D01*
X030610Y026441D01*
X036410Y026441D01*
X036510Y026341D01*
X036860Y026341D01*
X036883Y026343D01*
X036906Y026348D01*
X036928Y026357D01*
X036948Y026370D01*
X036966Y026385D01*
X036981Y026403D01*
X036994Y026423D01*
X037003Y026445D01*
X037008Y026468D01*
X037010Y026491D01*
X037010Y029791D01*
X037008Y029814D01*
X037003Y029837D01*
X036994Y029859D01*
X036981Y029879D01*
X036966Y029897D01*
X036948Y029912D01*
X036928Y029925D01*
X036906Y029934D01*
X036883Y029939D01*
X036860Y029941D01*
X036510Y029941D01*
X036410Y029841D01*
X030610Y029841D01*
X030510Y029941D01*
X030160Y029941D01*
X030137Y029939D01*
X030114Y029934D01*
X030092Y029925D01*
X030072Y029912D01*
X030054Y029897D01*
X030039Y029879D01*
X030026Y029859D01*
X030017Y029837D01*
X030012Y029814D01*
X030010Y029791D01*
X030010Y026491D01*
X030012Y026468D01*
X030017Y026445D01*
X030026Y026423D01*
X030039Y026403D01*
X030054Y026385D01*
X030072Y026370D01*
X030092Y026357D01*
X030114Y026348D01*
X030137Y026343D01*
X030160Y026341D01*
X022430Y026403D02*
X022430Y025679D01*
X020791Y025679D01*
X020791Y026403D01*
X022430Y026403D01*
X022430Y026779D02*
X022430Y027503D01*
X020791Y027503D01*
X020791Y026779D01*
X022430Y026779D01*
X022010Y026291D02*
X021610Y026041D01*
X021610Y025791D01*
X021610Y026041D02*
X021360Y026041D01*
X021610Y026041D02*
X021610Y026291D01*
X021610Y026041D02*
X022210Y026041D01*
X022010Y025791D02*
X021610Y026041D01*
X022010Y026291D02*
X022010Y025791D01*
X021610Y026891D02*
X021610Y027141D01*
X021610Y027391D01*
X021610Y027141D02*
X021210Y026891D01*
X021210Y027391D01*
X021610Y027141D01*
X021010Y027141D01*
X021610Y027141D02*
X021860Y027141D01*
X022430Y028679D02*
X020791Y028679D01*
X020791Y029403D01*
X022430Y029403D01*
X022430Y028679D01*
X022210Y029041D02*
X021610Y029041D01*
X021610Y028791D01*
X021610Y029041D02*
X021360Y029041D01*
X021610Y029041D02*
X021610Y029291D01*
X021610Y029041D02*
X022010Y029291D01*
X022010Y028791D01*
X021610Y029041D01*
X021610Y029891D02*
X021610Y030141D01*
X021610Y030391D01*
X021610Y030141D02*
X021210Y029891D01*
X021210Y030391D01*
X021610Y030141D01*
X021010Y030141D01*
X020791Y029779D02*
X022430Y029779D01*
X022430Y030503D01*
X020791Y030503D01*
X020791Y029779D01*
X021610Y030141D02*
X021860Y030141D01*
X018360Y029791D02*
X018360Y026491D01*
X018358Y026468D01*
X018353Y026445D01*
X018344Y026423D01*
X018331Y026403D01*
X018316Y026385D01*
X018298Y026370D01*
X018278Y026357D01*
X018256Y026348D01*
X018233Y026343D01*
X018210Y026341D01*
X017860Y026341D01*
X017760Y026441D01*
X011960Y026441D01*
X011860Y026341D01*
X011510Y026341D01*
X011487Y026343D01*
X011464Y026348D01*
X011442Y026357D01*
X011422Y026370D01*
X011404Y026385D01*
X011389Y026403D01*
X011376Y026423D01*
X011367Y026445D01*
X011362Y026468D01*
X011360Y026491D01*
X011360Y029791D01*
X011362Y029814D01*
X011367Y029837D01*
X011376Y029859D01*
X011389Y029879D01*
X011404Y029897D01*
X011422Y029912D01*
X011442Y029925D01*
X011464Y029934D01*
X011487Y029939D01*
X011510Y029941D01*
X011860Y029941D01*
X011960Y029841D01*
X017760Y029841D01*
X017860Y029941D01*
X018210Y029941D01*
X018233Y029939D01*
X018256Y029934D01*
X018278Y029925D01*
X018298Y029912D01*
X018316Y029897D01*
X018331Y029879D01*
X018344Y029859D01*
X018353Y029837D01*
X018358Y029814D01*
X018360Y029791D01*
X019430Y034628D02*
X019430Y035378D01*
X019469Y035380D01*
X019508Y035386D01*
X019546Y035395D01*
X019583Y035408D01*
X019619Y035425D01*
X019652Y035445D01*
X019684Y035469D01*
X019713Y035495D01*
X019739Y035524D01*
X019763Y035556D01*
X019783Y035589D01*
X019800Y035625D01*
X019813Y035662D01*
X019822Y035700D01*
X019828Y035739D01*
X019830Y035778D01*
X019828Y035817D01*
X019822Y035856D01*
X019813Y035894D01*
X019800Y035931D01*
X019783Y035967D01*
X019763Y036000D01*
X019739Y036032D01*
X019713Y036061D01*
X019684Y036087D01*
X019652Y036111D01*
X019619Y036131D01*
X019583Y036148D01*
X019546Y036161D01*
X019508Y036170D01*
X019469Y036176D01*
X019430Y036178D01*
X019430Y036928D01*
X023430Y036928D01*
X023430Y034628D01*
X019430Y034628D01*
X008816Y036368D02*
X008818Y036431D01*
X008824Y036493D01*
X008834Y036555D01*
X008847Y036617D01*
X008865Y036677D01*
X008886Y036736D01*
X008911Y036794D01*
X008940Y036850D01*
X008972Y036904D01*
X009007Y036956D01*
X009045Y037005D01*
X009087Y037053D01*
X009131Y037097D01*
X009179Y037139D01*
X009228Y037177D01*
X009280Y037212D01*
X009334Y037244D01*
X009390Y037273D01*
X009448Y037298D01*
X009507Y037319D01*
X009567Y037337D01*
X009629Y037350D01*
X009691Y037360D01*
X009753Y037366D01*
X009816Y037368D01*
X009879Y037366D01*
X009941Y037360D01*
X010003Y037350D01*
X010065Y037337D01*
X010125Y037319D01*
X010184Y037298D01*
X010242Y037273D01*
X010298Y037244D01*
X010352Y037212D01*
X010404Y037177D01*
X010453Y037139D01*
X010501Y037097D01*
X010545Y037053D01*
X010587Y037005D01*
X010625Y036956D01*
X010660Y036904D01*
X010692Y036850D01*
X010721Y036794D01*
X010746Y036736D01*
X010767Y036677D01*
X010785Y036617D01*
X010798Y036555D01*
X010808Y036493D01*
X010814Y036431D01*
X010816Y036368D01*
X010814Y036305D01*
X010808Y036243D01*
X010798Y036181D01*
X010785Y036119D01*
X010767Y036059D01*
X010746Y036000D01*
X010721Y035942D01*
X010692Y035886D01*
X010660Y035832D01*
X010625Y035780D01*
X010587Y035731D01*
X010545Y035683D01*
X010501Y035639D01*
X010453Y035597D01*
X010404Y035559D01*
X010352Y035524D01*
X010298Y035492D01*
X010242Y035463D01*
X010184Y035438D01*
X010125Y035417D01*
X010065Y035399D01*
X010003Y035386D01*
X009941Y035376D01*
X009879Y035370D01*
X009816Y035368D01*
X009753Y035370D01*
X009691Y035376D01*
X009629Y035386D01*
X009567Y035399D01*
X009507Y035417D01*
X009448Y035438D01*
X009390Y035463D01*
X009334Y035492D01*
X009280Y035524D01*
X009228Y035559D01*
X009179Y035597D01*
X009131Y035639D01*
X009087Y035683D01*
X009045Y035731D01*
X009007Y035780D01*
X008972Y035832D01*
X008940Y035886D01*
X008911Y035942D01*
X008886Y036000D01*
X008865Y036059D01*
X008847Y036119D01*
X008834Y036181D01*
X008824Y036243D01*
X008818Y036305D01*
X008816Y036368D01*
X016760Y023833D02*
X016660Y023733D01*
X016660Y016783D01*
X016760Y016683D01*
X016760Y016383D01*
X016760Y015833D01*
X020560Y015833D01*
X020610Y015883D01*
X020610Y016333D01*
X020560Y016383D01*
X020560Y016683D01*
X020610Y016733D01*
X020610Y023783D01*
X020560Y023833D01*
X016760Y023833D01*
X016760Y016683D01*
X016860Y016683D01*
X020510Y016683D01*
X020540Y016683D01*
X020540Y016383D01*
X020510Y016383D01*
X020510Y016683D01*
X020540Y016683D02*
X020560Y016683D01*
X020610Y016733D02*
X020660Y016783D01*
X020640Y016783D01*
X020640Y023733D01*
X020660Y023733D02*
X020610Y023783D01*
X020660Y023733D02*
X020660Y016783D01*
X020560Y016383D02*
X020540Y016383D01*
X020510Y016383D02*
X016860Y016383D01*
X016860Y016683D01*
X016860Y016383D02*
X016760Y016383D01*
X016660Y016283D01*
X016660Y015933D01*
X016760Y015833D01*
X018160Y017033D02*
X018460Y017033D01*
X018310Y016883D02*
X018310Y017183D01*
X018060Y017333D02*
X018060Y017533D01*
X019260Y017533D01*
X019260Y017333D01*
X018660Y017333D01*
X018660Y016883D01*
X018660Y017333D02*
X018060Y017333D01*
X018660Y017883D02*
X018660Y023633D01*
X020610Y016333D02*
X020660Y016283D01*
X020640Y016283D01*
X020640Y015933D01*
X020660Y015933D02*
X020610Y015883D01*
X020660Y015933D02*
X020660Y016283D01*
X022235Y015084D02*
X022235Y013164D01*
X023775Y013164D01*
X023775Y015084D01*
X022885Y015084D01*
X022235Y015084D01*
X022235Y014974D02*
X021825Y014974D01*
X021825Y014774D01*
X022235Y014774D01*
X022235Y014974D01*
X022235Y014474D02*
X021825Y014474D01*
X021825Y014274D01*
X022235Y014274D01*
X022235Y014474D01*
X022235Y013974D02*
X021825Y013974D01*
X021825Y013774D01*
X022235Y013774D01*
X022235Y013974D01*
X022235Y013474D02*
X021825Y013474D01*
X021825Y013274D01*
X022235Y013274D01*
X022235Y013474D01*
X023775Y013474D02*
X024185Y013474D01*
X024185Y013274D01*
X023775Y013274D01*
X023775Y013474D01*
X023775Y013774D02*
X024185Y013774D01*
X024185Y013974D01*
X023775Y013974D01*
X023775Y013774D01*
X023775Y014274D02*
X024185Y014274D01*
X024185Y014474D01*
X023775Y014474D01*
X023775Y014274D01*
X023775Y014774D02*
X024185Y014774D01*
X024185Y014974D01*
X023775Y014974D01*
X023775Y014774D01*
X026240Y012491D02*
X026660Y012491D01*
X027060Y012491D01*
X027480Y012491D01*
X027503Y012489D01*
X027526Y012484D01*
X027548Y012475D01*
X027568Y012462D01*
X027586Y012447D01*
X027601Y012429D01*
X027614Y012409D01*
X027623Y012387D01*
X027628Y012364D01*
X027630Y012341D01*
X027630Y008641D01*
X027628Y008618D01*
X027623Y008595D01*
X027614Y008573D01*
X027601Y008553D01*
X027586Y008535D01*
X027568Y008520D01*
X027548Y008507D01*
X027526Y008498D01*
X027503Y008493D01*
X027480Y008491D01*
X026240Y008491D01*
X026217Y008493D01*
X026194Y008498D01*
X026172Y008507D01*
X026152Y008520D01*
X026134Y008535D01*
X026119Y008553D01*
X026106Y008573D01*
X026097Y008595D01*
X026092Y008618D01*
X026090Y008641D01*
X026090Y012341D01*
X026092Y012364D01*
X026097Y012387D01*
X026106Y012409D01*
X026119Y012429D01*
X026134Y012447D01*
X026152Y012462D01*
X026172Y012475D01*
X026194Y012484D01*
X026217Y012489D01*
X026240Y012491D01*
X026660Y012491D02*
X026662Y012464D01*
X026667Y012437D01*
X026677Y012411D01*
X026689Y012387D01*
X026705Y012365D01*
X026723Y012345D01*
X026745Y012328D01*
X026768Y012313D01*
X026793Y012303D01*
X026819Y012295D01*
X026846Y012291D01*
X026874Y012291D01*
X026901Y012295D01*
X026927Y012303D01*
X026952Y012313D01*
X026975Y012328D01*
X026997Y012345D01*
X027015Y012365D01*
X027031Y012387D01*
X027043Y012411D01*
X027053Y012437D01*
X027058Y012464D01*
X027060Y012491D01*
X020130Y010441D02*
X020130Y007241D01*
X020128Y007218D01*
X020123Y007195D01*
X020114Y007173D01*
X020101Y007153D01*
X020086Y007135D01*
X020068Y007120D01*
X020048Y007107D01*
X020026Y007098D01*
X020003Y007093D01*
X019980Y007091D01*
X018740Y007091D01*
X018717Y007093D01*
X018694Y007098D01*
X018672Y007107D01*
X018652Y007120D01*
X018634Y007135D01*
X018619Y007153D01*
X018606Y007173D01*
X018597Y007195D01*
X018592Y007218D01*
X018590Y007241D01*
X018590Y010441D01*
X018592Y010464D01*
X018597Y010487D01*
X018606Y010509D01*
X018619Y010529D01*
X018634Y010547D01*
X018652Y010562D01*
X018672Y010575D01*
X018694Y010584D01*
X018717Y010589D01*
X018740Y010591D01*
X019160Y010591D01*
X019560Y010591D01*
X019980Y010591D01*
X020003Y010589D01*
X020026Y010584D01*
X020048Y010575D01*
X020068Y010562D01*
X020086Y010547D01*
X020101Y010529D01*
X020114Y010509D01*
X020123Y010487D01*
X020128Y010464D01*
X020130Y010441D01*
X019560Y010591D02*
X019558Y010564D01*
X019553Y010537D01*
X019543Y010511D01*
X019531Y010487D01*
X019515Y010465D01*
X019497Y010445D01*
X019475Y010428D01*
X019452Y010413D01*
X019427Y010403D01*
X019401Y010395D01*
X019374Y010391D01*
X019346Y010391D01*
X019319Y010395D01*
X019293Y010403D01*
X019268Y010413D01*
X019245Y010428D01*
X019223Y010445D01*
X019205Y010465D01*
X019189Y010487D01*
X019177Y010511D01*
X019167Y010537D01*
X019162Y010564D01*
X019160Y010591D01*
X014630Y010441D02*
X014630Y007241D01*
X014628Y007218D01*
X014623Y007195D01*
X014614Y007173D01*
X014601Y007153D01*
X014586Y007135D01*
X014568Y007120D01*
X014548Y007107D01*
X014526Y007098D01*
X014503Y007093D01*
X014480Y007091D01*
X013240Y007091D01*
X013217Y007093D01*
X013194Y007098D01*
X013172Y007107D01*
X013152Y007120D01*
X013134Y007135D01*
X013119Y007153D01*
X013106Y007173D01*
X013097Y007195D01*
X013092Y007218D01*
X013090Y007241D01*
X013090Y010441D01*
X013092Y010464D01*
X013097Y010487D01*
X013106Y010509D01*
X013119Y010529D01*
X013134Y010547D01*
X013152Y010562D01*
X013172Y010575D01*
X013194Y010584D01*
X013217Y010589D01*
X013240Y010591D01*
X013660Y010591D01*
X014060Y010591D01*
X014480Y010591D01*
X014503Y010589D01*
X014526Y010584D01*
X014548Y010575D01*
X014568Y010562D01*
X014586Y010547D01*
X014601Y010529D01*
X014614Y010509D01*
X014623Y010487D01*
X014628Y010464D01*
X014630Y010441D01*
X014060Y010591D02*
X014058Y010564D01*
X014053Y010537D01*
X014043Y010511D01*
X014031Y010487D01*
X014015Y010465D01*
X013997Y010445D01*
X013975Y010428D01*
X013952Y010413D01*
X013927Y010403D01*
X013901Y010395D01*
X013874Y010391D01*
X013846Y010391D01*
X013819Y010395D01*
X013793Y010403D01*
X013768Y010413D01*
X013745Y010428D01*
X013723Y010445D01*
X013705Y010465D01*
X013689Y010487D01*
X013677Y010511D01*
X013667Y010537D01*
X013662Y010564D01*
X013660Y010591D01*
X034690Y012341D02*
X034690Y008641D01*
X034692Y008618D01*
X034697Y008595D01*
X034706Y008573D01*
X034719Y008553D01*
X034734Y008535D01*
X034752Y008520D01*
X034772Y008507D01*
X034794Y008498D01*
X034817Y008493D01*
X034840Y008491D01*
X036080Y008491D01*
X036103Y008493D01*
X036126Y008498D01*
X036148Y008507D01*
X036168Y008520D01*
X036186Y008535D01*
X036201Y008553D01*
X036214Y008573D01*
X036223Y008595D01*
X036228Y008618D01*
X036230Y008641D01*
X036230Y012341D01*
X036228Y012364D01*
X036223Y012387D01*
X036214Y012409D01*
X036201Y012429D01*
X036186Y012447D01*
X036168Y012462D01*
X036148Y012475D01*
X036126Y012484D01*
X036103Y012489D01*
X036080Y012491D01*
X035660Y012491D01*
X035260Y012491D01*
X034840Y012491D01*
X034817Y012489D01*
X034794Y012484D01*
X034772Y012475D01*
X034752Y012462D01*
X034734Y012447D01*
X034719Y012429D01*
X034706Y012409D01*
X034697Y012387D01*
X034692Y012364D01*
X034690Y012341D01*
X035260Y012491D02*
X035262Y012464D01*
X035267Y012437D01*
X035277Y012411D01*
X035289Y012387D01*
X035305Y012365D01*
X035323Y012345D01*
X035345Y012328D01*
X035368Y012313D01*
X035393Y012303D01*
X035419Y012295D01*
X035446Y012291D01*
X035474Y012291D01*
X035501Y012295D01*
X035527Y012303D01*
X035552Y012313D01*
X035575Y012328D01*
X035597Y012345D01*
X035615Y012365D01*
X035631Y012387D01*
X035643Y012411D01*
X035653Y012437D01*
X035658Y012464D01*
X035660Y012491D01*
D16*
X026410Y026085D03*
X027510Y027197D03*
X026410Y029085D03*
X027510Y030197D03*
X022160Y030147D03*
X021060Y029035D03*
X022160Y027147D03*
X021060Y026035D03*
D17*
X020666Y026041D03*
X020666Y027141D03*
X022555Y027141D03*
X022555Y026041D03*
X026016Y026091D03*
X026016Y027191D03*
X027905Y027191D03*
X027905Y026091D03*
X027905Y029091D03*
X027905Y030191D03*
X026016Y030191D03*
X026016Y029091D03*
X022555Y029041D03*
X022555Y030141D03*
X020666Y030141D03*
X020666Y029041D03*
D18*
X020667Y028493D02*
X020442Y028493D01*
X020442Y028043D01*
X020667Y028043D01*
X020742Y028118D01*
X020742Y028418D01*
X020667Y028493D01*
X020902Y028418D02*
X020977Y028493D01*
X021127Y028493D01*
X021202Y028418D01*
X021202Y028343D01*
X021127Y028268D01*
X021202Y028193D01*
X021202Y028118D01*
X021127Y028043D01*
X020977Y028043D01*
X020902Y028118D01*
X021052Y028268D02*
X021127Y028268D01*
X021908Y028140D02*
X021908Y027689D01*
X022134Y027689D01*
X022209Y027764D01*
X022209Y028065D01*
X022134Y028140D01*
X021908Y028140D01*
X022369Y028065D02*
X022444Y028140D01*
X022594Y028140D01*
X022669Y028065D01*
X022669Y027990D01*
X022369Y027689D01*
X022669Y027689D01*
X021052Y025493D02*
X021052Y025043D01*
X020902Y025043D02*
X021202Y025043D01*
X020902Y025343D02*
X021052Y025493D01*
X020742Y025418D02*
X020667Y025493D01*
X020442Y025493D01*
X020442Y025043D01*
X020667Y025043D01*
X020742Y025118D01*
X020742Y025418D01*
X018725Y025881D02*
X018425Y025881D01*
X018650Y026106D01*
X018650Y025656D01*
X018265Y025656D02*
X018115Y025806D01*
X018190Y025806D02*
X017965Y025806D01*
X017965Y025656D02*
X017965Y026106D01*
X018190Y026106D01*
X018265Y026031D01*
X018265Y025881D01*
X018190Y025806D01*
X021510Y030689D02*
X021735Y030689D01*
X021810Y030764D01*
X021810Y031065D01*
X021735Y031140D01*
X021510Y031140D01*
X021510Y030689D01*
X021970Y030914D02*
X022271Y030914D01*
X022196Y030689D02*
X022196Y031140D01*
X021970Y030914D01*
X025792Y028543D02*
X025792Y028093D01*
X026017Y028093D01*
X026092Y028168D01*
X026092Y028468D01*
X026017Y028543D01*
X025792Y028543D01*
X026252Y028318D02*
X026252Y028168D01*
X026327Y028093D01*
X026477Y028093D01*
X026552Y028168D01*
X026552Y028243D01*
X026477Y028318D01*
X026252Y028318D01*
X026402Y028468D01*
X026552Y028543D01*
X027258Y028190D02*
X027258Y027739D01*
X027484Y027739D01*
X027559Y027814D01*
X027559Y028115D01*
X027484Y028190D01*
X027258Y028190D01*
X027719Y028190D02*
X028019Y028190D01*
X028019Y028115D01*
X027719Y027814D01*
X027719Y027739D01*
X026477Y025543D02*
X026552Y025468D01*
X026552Y025393D01*
X026477Y025318D01*
X026327Y025318D01*
X026252Y025393D01*
X026252Y025468D01*
X026327Y025543D01*
X026477Y025543D01*
X026477Y025318D02*
X026552Y025243D01*
X026552Y025168D01*
X026477Y025093D01*
X026327Y025093D01*
X026252Y025168D01*
X026252Y025243D01*
X026327Y025318D01*
X026092Y025468D02*
X026017Y025543D01*
X025792Y025543D01*
X025792Y025093D01*
X026017Y025093D01*
X026092Y025168D01*
X026092Y025468D01*
X029535Y030176D02*
X029535Y030626D01*
X029761Y030626D01*
X029836Y030551D01*
X029836Y030401D01*
X029761Y030326D01*
X029535Y030326D01*
X029686Y030326D02*
X029836Y030176D01*
X029996Y030176D02*
X029996Y030251D01*
X030296Y030551D01*
X030296Y030626D01*
X029996Y030626D01*
X027921Y030814D02*
X027846Y030739D01*
X027695Y030739D01*
X027620Y030814D01*
X027620Y030964D02*
X027770Y031040D01*
X027846Y031040D01*
X027921Y030964D01*
X027921Y030814D01*
X027620Y030964D02*
X027620Y031190D01*
X027921Y031190D01*
X027460Y031115D02*
X027460Y030814D01*
X027385Y030739D01*
X027160Y030739D01*
X027160Y031190D01*
X027385Y031190D01*
X027460Y031115D01*
X027469Y034653D02*
X027544Y034728D01*
X027544Y034878D01*
X027620Y034953D01*
X027695Y034953D01*
X027770Y034878D01*
X027770Y034728D01*
X027695Y034653D01*
X027469Y034653D02*
X027394Y034653D01*
X027319Y034728D01*
X027319Y034878D01*
X027394Y034953D01*
X027319Y035113D02*
X027770Y035113D01*
X027620Y035263D01*
X027770Y035413D01*
X027319Y035413D01*
X027394Y035573D02*
X027319Y035648D01*
X027319Y035799D01*
X027394Y035874D01*
X027695Y035573D01*
X027770Y035648D01*
X027770Y035799D01*
X027695Y035874D01*
X027394Y035874D01*
X027394Y035573D02*
X027695Y035573D01*
X033480Y035162D02*
X033480Y034712D01*
X033705Y034712D01*
X033780Y034787D01*
X033780Y035087D01*
X033705Y035162D01*
X033480Y035162D01*
X033940Y035162D02*
X034090Y035162D01*
X034015Y035162D02*
X034015Y034712D01*
X033940Y034712D02*
X034090Y034712D01*
X034247Y034712D02*
X034247Y035162D01*
X034472Y035162D01*
X034547Y035087D01*
X034547Y034937D01*
X034472Y034862D01*
X034247Y034862D01*
X034397Y034862D02*
X034547Y034712D01*
X034708Y034637D02*
X035008Y034637D01*
X035168Y034712D02*
X035468Y034712D01*
X035318Y034712D02*
X035318Y035162D01*
X035168Y035012D01*
X035363Y034067D02*
X035498Y034067D01*
X035543Y034022D01*
X035543Y033932D01*
X035498Y033887D01*
X035363Y033887D01*
X035453Y033887D02*
X035543Y033797D01*
X035657Y033797D02*
X035837Y033797D01*
X035747Y033797D02*
X035747Y034067D01*
X035657Y033977D01*
X035363Y034067D02*
X035363Y033797D01*
X035803Y033122D02*
X035713Y033032D01*
X035848Y033032D01*
X035893Y032987D01*
X035893Y032942D01*
X035848Y032897D01*
X035758Y032897D01*
X035713Y032942D01*
X035713Y033032D01*
X035803Y033122D02*
X035893Y033167D01*
X036007Y033122D02*
X036007Y033077D01*
X036052Y033032D01*
X036142Y033032D01*
X036187Y032987D01*
X036187Y032942D01*
X036142Y032897D01*
X036052Y032897D01*
X036007Y032942D01*
X036007Y032987D01*
X036052Y033032D01*
X036142Y033032D02*
X036187Y033077D01*
X036187Y033122D01*
X036142Y033167D01*
X036052Y033167D01*
X036007Y033122D01*
X036302Y033122D02*
X036347Y033167D01*
X036437Y033167D01*
X036482Y033122D01*
X036302Y032942D01*
X036347Y032897D01*
X036437Y032897D01*
X036482Y032942D01*
X036482Y033122D01*
X036302Y033122D02*
X036302Y032942D01*
X036809Y031769D02*
X036719Y031724D01*
X036629Y031634D01*
X036764Y031634D01*
X036809Y031589D01*
X036809Y031544D01*
X036764Y031499D01*
X036674Y031499D01*
X036629Y031544D01*
X036629Y031634D01*
X036923Y031679D02*
X036923Y031724D01*
X036968Y031769D01*
X037058Y031769D01*
X037103Y031724D01*
X037103Y031679D01*
X037058Y031634D01*
X036968Y031634D01*
X036923Y031679D01*
X036968Y031634D02*
X036923Y031589D01*
X036923Y031544D01*
X036968Y031499D01*
X037058Y031499D01*
X037103Y031544D01*
X037103Y031589D01*
X037058Y031634D01*
X037218Y031724D02*
X037263Y031769D01*
X037353Y031769D01*
X037398Y031724D01*
X037218Y031544D01*
X037263Y031499D01*
X037353Y031499D01*
X037398Y031544D01*
X037398Y031724D01*
X037218Y031724D02*
X037218Y031544D01*
X037273Y030869D02*
X037408Y030869D01*
X037453Y030824D01*
X037453Y030734D01*
X037408Y030689D01*
X037273Y030689D01*
X037273Y030599D02*
X037273Y030869D01*
X037363Y030689D02*
X037453Y030599D01*
X037568Y030644D02*
X037613Y030599D01*
X037703Y030599D01*
X037748Y030644D01*
X037748Y030734D01*
X037703Y030779D01*
X037658Y030779D01*
X037568Y030734D01*
X037568Y030869D01*
X037748Y030869D01*
X038054Y034637D02*
X038354Y034637D01*
X038514Y034787D02*
X038815Y035087D01*
X038815Y034787D01*
X038740Y034712D01*
X038589Y034712D01*
X038514Y034787D01*
X038514Y035087D01*
X038589Y035162D01*
X038740Y035162D01*
X038815Y035087D01*
X037894Y035087D02*
X037894Y034937D01*
X037819Y034862D01*
X037594Y034862D01*
X037744Y034862D02*
X037894Y034712D01*
X037594Y034712D02*
X037594Y035162D01*
X037819Y035162D01*
X037894Y035087D01*
X037437Y035162D02*
X037287Y035162D01*
X037362Y035162D02*
X037362Y034712D01*
X037287Y034712D02*
X037437Y034712D01*
X037127Y034787D02*
X037127Y035087D01*
X037051Y035162D01*
X036826Y035162D01*
X036826Y034712D01*
X037051Y034712D01*
X037127Y034787D01*
X019305Y034728D02*
X019230Y034653D01*
X019305Y034728D02*
X019305Y034878D01*
X019230Y034953D01*
X019155Y034953D01*
X019080Y034878D01*
X019080Y034728D01*
X019005Y034653D01*
X018930Y034653D01*
X018855Y034728D01*
X018855Y034878D01*
X018930Y034953D01*
X018855Y035113D02*
X019305Y035113D01*
X019155Y035263D01*
X019305Y035413D01*
X018855Y035413D01*
X019005Y035573D02*
X018855Y035724D01*
X019305Y035724D01*
X019305Y035874D02*
X019305Y035573D01*
X014764Y034041D02*
X014629Y033951D01*
X014764Y033861D01*
X014629Y033861D02*
X014629Y034131D01*
X014425Y034131D02*
X014425Y033861D01*
X014335Y033861D02*
X014515Y033861D01*
X014335Y034041D02*
X014425Y034131D01*
X014635Y033231D02*
X014771Y033231D01*
X014816Y033186D01*
X014816Y033096D01*
X014771Y033051D01*
X014635Y033051D01*
X014635Y032961D02*
X014635Y033231D01*
X014726Y033051D02*
X014816Y032961D01*
X014930Y033006D02*
X014975Y032961D01*
X015065Y032961D01*
X015110Y033006D01*
X015110Y033051D01*
X015065Y033096D01*
X015020Y033096D01*
X015065Y033096D02*
X015110Y033141D01*
X015110Y033186D01*
X015065Y033231D01*
X014975Y033231D01*
X014930Y033186D01*
X013505Y031896D02*
X013369Y031806D01*
X013505Y031716D01*
X013369Y031716D02*
X013369Y031986D01*
X013165Y031986D02*
X013165Y031716D01*
X013075Y031716D02*
X013255Y031716D01*
X013075Y031896D02*
X013165Y031986D01*
X013200Y032616D02*
X013019Y032616D01*
X013200Y032796D01*
X013200Y032841D01*
X013155Y032886D01*
X013064Y032886D01*
X013019Y032841D01*
X012905Y032841D02*
X012905Y032751D01*
X012860Y032706D01*
X012725Y032706D01*
X012815Y032706D02*
X012905Y032616D01*
X012725Y032616D02*
X012725Y032886D01*
X012860Y032886D01*
X012905Y032841D01*
X010819Y033332D02*
X010799Y033391D01*
X010776Y033448D01*
X010749Y033505D01*
X010718Y033559D01*
X010685Y033612D01*
X010648Y033662D01*
X010609Y033711D01*
X010566Y033756D01*
X010521Y033800D01*
X010474Y033840D01*
X010424Y033878D01*
X010372Y033913D01*
X010318Y033944D01*
X010263Y033972D01*
X010206Y033997D01*
X010147Y034018D01*
X010087Y034036D01*
X010026Y034051D01*
X009965Y034061D01*
X009903Y034068D01*
X009841Y034072D01*
X009778Y034071D01*
X009716Y034067D01*
X009716Y033909D01*
X009166Y033846D02*
X009166Y032197D01*
X009716Y032134D02*
X009716Y031976D01*
X009541Y031737D02*
X009541Y031436D01*
X009541Y031586D02*
X009091Y031586D01*
X009241Y031436D01*
X009166Y031276D02*
X009466Y031276D01*
X009541Y031201D01*
X009541Y031051D01*
X009466Y030976D01*
X009166Y030976D01*
X009091Y031051D01*
X009091Y031201D01*
X009166Y031276D01*
X009391Y031126D02*
X009541Y031276D01*
X009716Y032909D02*
X009716Y033134D01*
X009166Y033847D02*
X009214Y033882D01*
X009264Y033915D01*
X009316Y033946D01*
X009370Y033973D01*
X009425Y033997D01*
X009482Y034017D01*
X009539Y034035D01*
X009597Y034049D01*
X009656Y034060D01*
X009716Y034067D01*
X010819Y032712D02*
X010799Y032652D01*
X010775Y032593D01*
X010747Y032536D01*
X010716Y032481D01*
X010681Y032427D01*
X010644Y032376D01*
X010603Y032327D01*
X010559Y032281D01*
X010513Y032237D01*
X010464Y032196D01*
X010413Y032158D01*
X010360Y032124D01*
X010304Y032092D01*
X010247Y032065D01*
X010188Y032040D01*
X010128Y032020D01*
X010067Y032002D01*
X010005Y031989D01*
X009942Y031980D01*
X009879Y031974D01*
X009815Y031972D01*
X009751Y031974D01*
X009688Y031980D01*
X009625Y031989D01*
X009563Y032003D01*
X009502Y032020D01*
X009442Y032041D01*
X009383Y032065D01*
X009326Y032093D01*
X009270Y032125D01*
X009217Y032160D01*
X009166Y032197D01*
X007325Y030915D02*
X007325Y034042D01*
X005125Y034042D01*
X005125Y037170D01*
X007325Y037170D02*
X007325Y034042D01*
X005125Y034042D02*
X005125Y030915D01*
X000125Y030915D01*
X000125Y034042D01*
X005125Y034042D01*
X005125Y030915D02*
X007325Y030915D01*
X011140Y036234D02*
X011140Y036685D01*
X011215Y036460D02*
X011441Y036234D01*
X011601Y036234D02*
X011751Y036234D01*
X011676Y036234D02*
X011676Y036685D01*
X011601Y036685D02*
X011751Y036685D01*
X011908Y036685D02*
X011908Y036234D01*
X012208Y036234D01*
X012368Y036234D02*
X012668Y036234D01*
X012828Y036159D02*
X013129Y036159D01*
X013289Y036309D02*
X013364Y036234D01*
X013514Y036234D01*
X013589Y036309D01*
X013589Y036610D01*
X013514Y036685D01*
X013364Y036685D01*
X013289Y036610D01*
X013289Y036309D01*
X013749Y036234D02*
X013749Y036685D01*
X014049Y036234D01*
X014049Y036685D01*
X012368Y036685D02*
X012368Y036234D01*
X011441Y036685D02*
X011140Y036384D01*
X007325Y037170D02*
X000125Y037170D01*
X000125Y034042D01*
X026135Y008316D02*
X026286Y008316D01*
X026210Y008316D02*
X026210Y007866D01*
X026135Y007866D02*
X026286Y007866D01*
X026442Y007941D02*
X026517Y007866D01*
X026668Y007866D01*
X026743Y007941D01*
X026903Y007866D02*
X027203Y007866D01*
X027053Y007866D02*
X027053Y008316D01*
X026903Y008166D01*
X026743Y008241D02*
X026668Y008316D01*
X026517Y008316D01*
X026442Y008241D01*
X026442Y007941D01*
X027363Y007941D02*
X027363Y008016D01*
X027438Y008091D01*
X027588Y008091D01*
X027663Y008016D01*
X027663Y007941D01*
X027588Y007866D01*
X027438Y007866D01*
X027363Y007941D01*
X027438Y008091D02*
X027363Y008166D01*
X027363Y008241D01*
X027438Y008316D01*
X027588Y008316D01*
X027663Y008241D01*
X027663Y008166D01*
X027588Y008091D01*
X034735Y007866D02*
X034886Y007866D01*
X034810Y007866D02*
X034810Y008316D01*
X034735Y008316D02*
X034886Y008316D01*
X035042Y008241D02*
X035042Y007941D01*
X035117Y007866D01*
X035268Y007866D01*
X035343Y007941D01*
X035503Y007866D02*
X035803Y007866D01*
X035653Y007866D02*
X035653Y008316D01*
X035503Y008166D01*
X035343Y008241D02*
X035268Y008316D01*
X035117Y008316D01*
X035042Y008241D01*
X035963Y008091D02*
X036188Y008091D01*
X036263Y008016D01*
X036263Y007941D01*
X036188Y007866D01*
X036038Y007866D01*
X035963Y007941D01*
X035963Y008091D01*
X036113Y008241D01*
X036263Y008316D01*
X019953Y006591D02*
X019653Y006591D01*
X019878Y006816D01*
X019878Y006366D01*
X019493Y006441D02*
X019418Y006366D01*
X019267Y006366D01*
X019192Y006441D01*
X019192Y006741D01*
X019267Y006816D01*
X019418Y006816D01*
X019493Y006741D01*
X019036Y006816D02*
X018885Y006816D01*
X018960Y006816D02*
X018960Y006366D01*
X018885Y006366D02*
X019036Y006366D01*
X014403Y006491D02*
X014328Y006416D01*
X014178Y006416D01*
X014103Y006491D01*
X014103Y006641D02*
X014253Y006716D01*
X014328Y006716D01*
X014403Y006641D01*
X014403Y006491D01*
X014103Y006641D02*
X014103Y006866D01*
X014403Y006866D01*
X013943Y006791D02*
X013868Y006866D01*
X013717Y006866D01*
X013642Y006791D01*
X013642Y006491D01*
X013717Y006416D01*
X013868Y006416D01*
X013943Y006491D01*
X013486Y006416D02*
X013335Y006416D01*
X013410Y006416D02*
X013410Y006866D01*
X013335Y006866D02*
X013486Y006866D01*
X010493Y007286D02*
X010493Y007296D01*
X010493Y007636D01*
X010492Y007636D02*
X010489Y007650D01*
X010483Y007663D01*
X010474Y007674D01*
X010463Y007684D01*
X010451Y007691D01*
X010437Y007695D01*
X010423Y007696D01*
X009183Y007696D01*
X009183Y007226D01*
X010423Y007226D01*
X010432Y007227D02*
X010446Y007230D01*
X010459Y007236D01*
X010470Y007245D01*
X010480Y007256D01*
X010487Y007268D01*
X010491Y007282D01*
X010492Y007296D01*
X009183Y007226D02*
X009183Y007036D01*
X009033Y007696D02*
X007753Y007056D01*
X007753Y007706D01*
X007593Y007636D02*
X007593Y007296D01*
X007593Y007286D01*
X007592Y007296D02*
X007591Y007282D01*
X007587Y007268D01*
X007580Y007256D01*
X007570Y007245D01*
X007559Y007236D01*
X007546Y007230D01*
X007532Y007227D01*
X007523Y007226D02*
X007513Y007226D01*
X006283Y007226D01*
X006283Y007036D01*
X006153Y007036D02*
X006153Y007706D01*
X006133Y007696D02*
X004903Y007036D01*
X005263Y007226D02*
X006133Y007226D01*
X006283Y007226D02*
X006283Y007696D01*
X007523Y007696D01*
X007537Y007695D01*
X007551Y007691D01*
X007563Y007684D01*
X007574Y007674D01*
X007583Y007663D01*
X007589Y007650D01*
X007592Y007636D01*
X007583Y007176D02*
X007583Y007036D01*
X007582Y007166D02*
X007579Y007180D01*
X007573Y007193D01*
X007564Y007204D01*
X007553Y007214D01*
X007541Y007221D01*
X007527Y007225D01*
X007513Y007226D01*
D19*
X010816Y035618D02*
X010773Y035564D01*
X010727Y035512D01*
X010678Y035463D01*
X010626Y035416D01*
X010572Y035373D01*
X010516Y035332D01*
X010457Y035295D01*
X010397Y035261D01*
X010334Y035231D01*
X010271Y035204D01*
X010205Y035180D01*
X010139Y035160D01*
X010071Y035144D01*
X010003Y035132D01*
X009934Y035124D01*
X009865Y035119D01*
X009795Y035118D01*
X009726Y035121D01*
X009657Y035128D01*
X009589Y035139D01*
X009521Y035153D01*
X009454Y035172D01*
X009388Y035194D01*
X009323Y035219D01*
X009260Y035248D01*
X009199Y035281D01*
X009140Y035317D01*
X009083Y035356D01*
X009027Y035398D01*
X008975Y035443D01*
X008925Y035491D01*
X008878Y035542D01*
X008833Y035596D01*
X008792Y035651D01*
X008754Y035709D01*
X008719Y035769D01*
X008687Y035831D01*
X008659Y035894D01*
X008635Y035959D01*
X008614Y036025D01*
X008597Y036093D01*
X008583Y036161D01*
X008574Y036230D01*
X008568Y036299D01*
X008566Y036368D01*
X008568Y036437D01*
X008574Y036506D01*
X008583Y036575D01*
X008597Y036643D01*
X008614Y036711D01*
X008635Y036777D01*
X008659Y036842D01*
X008687Y036905D01*
X008719Y036967D01*
X008754Y037027D01*
X008792Y037085D01*
X008833Y037140D01*
X008878Y037194D01*
X008925Y037245D01*
X008975Y037293D01*
X009027Y037338D01*
X009083Y037380D01*
X009140Y037419D01*
X009199Y037455D01*
X009260Y037488D01*
X009323Y037517D01*
X009388Y037542D01*
X009454Y037564D01*
X009521Y037583D01*
X009589Y037597D01*
X009657Y037608D01*
X009726Y037615D01*
X009795Y037618D01*
X009865Y037617D01*
X009934Y037612D01*
X010003Y037604D01*
X010071Y037592D01*
X010139Y037576D01*
X010205Y037556D01*
X010271Y037532D01*
X010334Y037505D01*
X010397Y037475D01*
X010457Y037441D01*
X010516Y037404D01*
X010572Y037363D01*
X010626Y037320D01*
X010678Y037273D01*
X010727Y037224D01*
X010773Y037172D01*
X010816Y037118D01*
X033422Y037512D02*
X033465Y037566D01*
X033511Y037618D01*
X033560Y037667D01*
X033612Y037714D01*
X033666Y037757D01*
X033722Y037798D01*
X033781Y037835D01*
X033841Y037869D01*
X033904Y037899D01*
X033967Y037926D01*
X034033Y037950D01*
X034099Y037970D01*
X034167Y037986D01*
X034235Y037998D01*
X034304Y038006D01*
X034373Y038011D01*
X034443Y038012D01*
X034512Y038009D01*
X034581Y038002D01*
X034649Y037991D01*
X034717Y037977D01*
X034784Y037958D01*
X034850Y037936D01*
X034915Y037911D01*
X034978Y037882D01*
X035039Y037849D01*
X035098Y037813D01*
X035155Y037774D01*
X035211Y037732D01*
X035263Y037687D01*
X035313Y037639D01*
X035360Y037588D01*
X035405Y037534D01*
X035446Y037479D01*
X035484Y037421D01*
X035519Y037361D01*
X035551Y037299D01*
X035579Y037236D01*
X035603Y037171D01*
X035624Y037105D01*
X035641Y037037D01*
X035655Y036969D01*
X035664Y036900D01*
X035670Y036831D01*
X035672Y036762D01*
X035670Y036693D01*
X035664Y036624D01*
X035655Y036555D01*
X035641Y036487D01*
X035624Y036419D01*
X035603Y036353D01*
X035579Y036288D01*
X035551Y036225D01*
X035519Y036163D01*
X035484Y036103D01*
X035446Y036045D01*
X035405Y035990D01*
X035360Y035936D01*
X035313Y035885D01*
X035263Y035837D01*
X035211Y035792D01*
X035155Y035750D01*
X035098Y035711D01*
X035039Y035675D01*
X034978Y035642D01*
X034915Y035613D01*
X034850Y035588D01*
X034784Y035566D01*
X034717Y035547D01*
X034649Y035533D01*
X034581Y035522D01*
X034512Y035515D01*
X034443Y035512D01*
X034373Y035513D01*
X034304Y035518D01*
X034235Y035526D01*
X034167Y035538D01*
X034099Y035554D01*
X034033Y035574D01*
X033967Y035598D01*
X033904Y035625D01*
X033841Y035655D01*
X033781Y035689D01*
X033722Y035726D01*
X033666Y035767D01*
X033612Y035810D01*
X033560Y035857D01*
X033511Y035906D01*
X033465Y035958D01*
X033422Y036012D01*
X036769Y036012D02*
X036812Y035958D01*
X036858Y035906D01*
X036907Y035857D01*
X036959Y035810D01*
X037013Y035767D01*
X037069Y035726D01*
X037128Y035689D01*
X037188Y035655D01*
X037251Y035625D01*
X037314Y035598D01*
X037380Y035574D01*
X037446Y035554D01*
X037514Y035538D01*
X037582Y035526D01*
X037651Y035518D01*
X037720Y035513D01*
X037790Y035512D01*
X037859Y035515D01*
X037928Y035522D01*
X037996Y035533D01*
X038064Y035547D01*
X038131Y035566D01*
X038197Y035588D01*
X038262Y035613D01*
X038325Y035642D01*
X038386Y035675D01*
X038445Y035711D01*
X038502Y035750D01*
X038558Y035792D01*
X038610Y035837D01*
X038660Y035885D01*
X038707Y035936D01*
X038752Y035990D01*
X038793Y036045D01*
X038831Y036103D01*
X038866Y036163D01*
X038898Y036225D01*
X038926Y036288D01*
X038950Y036353D01*
X038971Y036419D01*
X038988Y036487D01*
X039002Y036555D01*
X039011Y036624D01*
X039017Y036693D01*
X039019Y036762D01*
X039017Y036831D01*
X039011Y036900D01*
X039002Y036969D01*
X038988Y037037D01*
X038971Y037105D01*
X038950Y037171D01*
X038926Y037236D01*
X038898Y037299D01*
X038866Y037361D01*
X038831Y037421D01*
X038793Y037479D01*
X038752Y037534D01*
X038707Y037588D01*
X038660Y037639D01*
X038610Y037687D01*
X038558Y037732D01*
X038502Y037774D01*
X038445Y037813D01*
X038386Y037849D01*
X038325Y037882D01*
X038262Y037911D01*
X038197Y037936D01*
X038131Y037958D01*
X038064Y037977D01*
X037996Y037991D01*
X037928Y038002D01*
X037859Y038009D01*
X037790Y038012D01*
X037720Y038011D01*
X037651Y038006D01*
X037582Y037998D01*
X037514Y037986D01*
X037446Y037970D01*
X037380Y037950D01*
X037314Y037926D01*
X037251Y037899D01*
X037188Y037869D01*
X037128Y037835D01*
X037069Y037798D01*
X037013Y037757D01*
X036959Y037714D01*
X036907Y037667D01*
X036858Y037618D01*
X036812Y037566D01*
X036769Y037512D01*
D20*
X015605Y022693D02*
X015605Y022593D01*
X015505Y022693D01*
X015480Y022693D01*
X015455Y022668D01*
X015455Y022618D01*
X015480Y022593D01*
X015480Y022546D02*
X015455Y022521D01*
X015455Y022471D01*
X015480Y022446D01*
X015580Y022446D01*
X015605Y022471D01*
X015605Y022521D01*
X015580Y022546D01*
X021022Y018133D02*
X021047Y018158D01*
X021147Y018058D01*
X021172Y018083D01*
X021172Y018133D01*
X021147Y018158D01*
X021047Y018158D01*
X021022Y018133D02*
X021022Y018083D01*
X021047Y018058D01*
X021147Y018058D01*
X021172Y018010D02*
X021172Y017910D01*
X021172Y017863D02*
X021122Y017813D01*
X021122Y017838D02*
X021122Y017763D01*
X021172Y017763D02*
X021022Y017763D01*
X021022Y017838D01*
X021047Y017863D01*
X021097Y017863D01*
X021122Y017838D01*
X021072Y017910D02*
X021022Y017960D01*
X021172Y017960D01*
X022400Y017935D02*
X022425Y017910D01*
X022450Y017910D01*
X022475Y017935D01*
X022475Y018010D01*
X022525Y018010D02*
X022425Y018010D01*
X022400Y017985D01*
X022400Y017935D01*
X022425Y017863D02*
X022475Y017863D01*
X022500Y017838D01*
X022500Y017763D01*
X022550Y017763D02*
X022400Y017763D01*
X022400Y017838D01*
X022425Y017863D01*
X022500Y017813D02*
X022550Y017863D01*
X022525Y017910D02*
X022550Y017935D01*
X022550Y017985D01*
X022525Y018010D01*
X023068Y015835D02*
X023143Y015835D01*
X023168Y015810D01*
X023168Y015760D01*
X023143Y015734D01*
X023068Y015734D01*
X023068Y015684D02*
X023068Y015835D01*
X023118Y015734D02*
X023168Y015684D01*
X023215Y015684D02*
X023315Y015785D01*
X023315Y015810D01*
X023290Y015835D01*
X023240Y015835D01*
X023215Y015810D01*
X023215Y015684D02*
X023315Y015684D01*
X023363Y015709D02*
X023463Y015810D01*
X023463Y015709D01*
X023438Y015684D01*
X023388Y015684D01*
X023363Y015709D01*
X023363Y015810D01*
X023388Y015835D01*
X023438Y015835D01*
X023463Y015810D01*
X025156Y017763D02*
X025156Y017838D01*
X025181Y017863D01*
X025231Y017863D01*
X025256Y017838D01*
X025256Y017763D01*
X025306Y017763D02*
X025156Y017763D01*
X025256Y017813D02*
X025306Y017863D01*
X025281Y017910D02*
X025306Y017935D01*
X025306Y017985D01*
X025281Y018010D01*
X025256Y018010D01*
X025231Y017985D01*
X025231Y017910D01*
X025281Y017910D01*
X025231Y017910D02*
X025181Y017960D01*
X025156Y018010D01*
X026534Y017985D02*
X026559Y018010D01*
X026584Y018010D01*
X026609Y017985D01*
X026609Y017935D01*
X026584Y017910D01*
X026559Y017910D01*
X026534Y017935D01*
X026534Y017985D01*
X026609Y017985D02*
X026634Y018010D01*
X026659Y018010D01*
X026684Y017985D01*
X026684Y017935D01*
X026659Y017910D01*
X026634Y017910D01*
X026609Y017935D01*
X026609Y017863D02*
X026634Y017838D01*
X026634Y017763D01*
X026684Y017763D02*
X026534Y017763D01*
X026534Y017838D01*
X026559Y017863D01*
X026609Y017863D01*
X026634Y017813D02*
X026684Y017863D01*
X023283Y012800D02*
X023233Y012800D01*
X023208Y012775D01*
X023208Y012750D01*
X023233Y012725D01*
X023309Y012725D01*
X023309Y012675D02*
X023309Y012775D01*
X023283Y012800D01*
X023161Y012775D02*
X023136Y012800D01*
X023086Y012800D01*
X023061Y012775D01*
X023061Y012675D01*
X023086Y012650D01*
X023136Y012650D01*
X023161Y012675D01*
X023208Y012675D02*
X023233Y012650D01*
X023283Y012650D01*
X023309Y012675D01*
X020707Y012463D02*
X020682Y012488D01*
X020632Y012488D01*
X020607Y012463D01*
X020607Y012438D01*
X020632Y012413D01*
X020707Y012413D01*
X020707Y012363D02*
X020707Y012463D01*
X020707Y012363D02*
X020682Y012338D01*
X020632Y012338D01*
X020607Y012363D01*
X020559Y012338D02*
X020459Y012338D01*
X020412Y012338D02*
X020362Y012388D01*
X020387Y012388D02*
X020312Y012388D01*
X020312Y012338D02*
X020312Y012488D01*
X020387Y012488D01*
X020412Y012463D01*
X020412Y012413D01*
X020387Y012388D01*
X020459Y012438D02*
X020509Y012488D01*
X020509Y012338D01*
X019818Y010836D02*
X019768Y010811D01*
X019718Y010761D01*
X019793Y010761D01*
X019818Y010736D01*
X019818Y010711D01*
X019793Y010686D01*
X019743Y010686D01*
X019718Y010711D01*
X019718Y010761D01*
X019671Y010711D02*
X019646Y010686D01*
X019596Y010686D01*
X019571Y010711D01*
X019571Y010811D01*
X019596Y010836D01*
X019646Y010836D01*
X019671Y010811D01*
X014368Y010811D02*
X014343Y010786D01*
X014293Y010786D01*
X014268Y010811D01*
X014221Y010811D02*
X014196Y010786D01*
X014146Y010786D01*
X014121Y010811D01*
X014121Y010911D01*
X014146Y010936D01*
X014196Y010936D01*
X014221Y010911D01*
X014268Y010936D02*
X014268Y010861D01*
X014318Y010886D01*
X014343Y010886D01*
X014368Y010861D01*
X014368Y010811D01*
X014368Y010936D02*
X014268Y010936D01*
X029776Y011916D02*
X029801Y011891D01*
X029901Y011891D01*
X029926Y011916D01*
X029926Y011966D01*
X029901Y011991D01*
X029901Y012038D02*
X029926Y012038D01*
X029901Y012038D02*
X029801Y012138D01*
X029776Y012138D01*
X029776Y012038D01*
X029801Y011991D02*
X029776Y011966D01*
X029776Y011916D01*
X032990Y016801D02*
X033090Y016801D01*
X033115Y016826D01*
X033115Y016876D01*
X033090Y016901D01*
X033090Y016949D02*
X033115Y016974D01*
X033115Y017024D01*
X033090Y017049D01*
X033065Y017049D01*
X033040Y017024D01*
X033040Y016999D01*
X033040Y017024D02*
X033015Y017049D01*
X032990Y017049D01*
X032965Y017024D01*
X032965Y016974D01*
X032990Y016949D01*
X032990Y016901D02*
X032965Y016876D01*
X032965Y016826D01*
X032990Y016801D01*
X038516Y012130D02*
X038541Y012155D01*
X038566Y012155D01*
X038591Y012130D01*
X038591Y012080D01*
X038566Y012055D01*
X038541Y012055D01*
X038516Y012080D01*
X038516Y012130D01*
X038591Y012130D02*
X038616Y012155D01*
X038641Y012155D01*
X038666Y012130D01*
X038666Y012080D01*
X038641Y012055D01*
X038616Y012055D01*
X038591Y012080D01*
X038541Y012008D02*
X038516Y011983D01*
X038516Y011933D01*
X038541Y011908D01*
X038641Y011908D01*
X038666Y011933D01*
X038666Y011983D01*
X038641Y012008D01*
D21*
X031860Y015933D02*
X031860Y022883D01*
X031760Y023033D02*
X031760Y023233D01*
X031860Y023383D02*
X031860Y023733D01*
X016710Y023733D02*
X016710Y016783D01*
X016810Y016633D02*
X016810Y016433D01*
X016710Y016283D02*
X016710Y015933D01*
D22*
X016525Y016073D02*
X016525Y016283D01*
X016420Y016388D01*
X016525Y016612D02*
X016525Y017033D01*
X016525Y016822D02*
X015895Y016822D01*
X016105Y016612D01*
X016000Y016388D02*
X015895Y016283D01*
X015895Y016073D01*
X016000Y015968D01*
X016420Y015968D01*
X016525Y016073D01*
X032045Y022584D02*
X032150Y022479D01*
X032570Y022479D01*
X032675Y022584D01*
X032675Y022794D01*
X032570Y022899D01*
X032360Y023123D02*
X032360Y023544D01*
X032045Y023438D02*
X032360Y023123D01*
X032150Y022899D02*
X032045Y022794D01*
X032045Y022584D01*
X032045Y023438D02*
X032675Y023438D01*
D23*
X029910Y021833D03*
X018660Y017833D03*
D24*
X018660Y015658D03*
X018660Y024008D03*
X029910Y024008D03*
X029910Y015658D03*
D25*
X026230Y012491D02*
X026230Y008491D01*
X018730Y007091D02*
X018730Y010591D01*
X013230Y010591D02*
X013230Y007091D01*
X010530Y006876D02*
X010470Y006876D01*
X010500Y006906D02*
X010500Y006786D01*
X010530Y006756D01*
X010406Y006756D02*
X010316Y006756D01*
X010286Y006786D01*
X010286Y006846D01*
X010316Y006876D01*
X010406Y006876D01*
X010222Y006846D02*
X010222Y006816D01*
X010102Y006816D01*
X010102Y006786D02*
X010102Y006846D01*
X010132Y006876D01*
X010192Y006876D01*
X010222Y006846D01*
X010192Y006756D02*
X010132Y006756D01*
X010102Y006786D01*
X010039Y006726D02*
X010039Y006876D01*
X010039Y006936D02*
X010039Y006966D01*
X009915Y006846D02*
X009885Y006876D01*
X009825Y006876D01*
X009795Y006846D01*
X009795Y006786D01*
X009825Y006756D01*
X009885Y006756D01*
X009915Y006786D01*
X009915Y006846D01*
X009979Y006696D02*
X010009Y006696D01*
X010039Y006726D01*
X009731Y006876D02*
X009701Y006876D01*
X009641Y006816D01*
X009641Y006756D02*
X009641Y006876D01*
X009577Y006846D02*
X009577Y006786D01*
X009547Y006756D01*
X009457Y006756D01*
X009457Y006696D02*
X009457Y006876D01*
X009547Y006876D01*
X009577Y006846D01*
X009209Y006846D02*
X009209Y006816D01*
X009089Y006816D01*
X009089Y006786D02*
X009089Y006846D01*
X009119Y006876D01*
X009179Y006876D01*
X009209Y006846D01*
X009179Y006756D02*
X009119Y006756D01*
X009089Y006786D01*
X009026Y006756D02*
X008966Y006756D01*
X008996Y006756D02*
X008996Y006936D01*
X008966Y006936D01*
X008902Y006876D02*
X008812Y006876D01*
X008782Y006846D01*
X008782Y006786D01*
X008812Y006756D01*
X008902Y006756D01*
X008719Y006756D02*
X008659Y006756D01*
X008689Y006756D02*
X008689Y006876D01*
X008659Y006876D01*
X008689Y006936D02*
X008689Y006966D01*
X008595Y006846D02*
X008565Y006876D01*
X008505Y006876D01*
X008475Y006846D01*
X008411Y006846D02*
X008411Y006816D01*
X008291Y006816D01*
X008291Y006786D02*
X008291Y006846D01*
X008321Y006876D01*
X008381Y006876D01*
X008411Y006846D01*
X008381Y006756D02*
X008321Y006756D01*
X008291Y006786D01*
X008227Y006876D02*
X008167Y006756D01*
X008107Y006876D01*
X007859Y006876D02*
X007768Y006876D01*
X007738Y006846D01*
X007738Y006786D01*
X007768Y006756D01*
X007859Y006756D01*
X007676Y006756D02*
X007616Y006756D01*
X007646Y006756D02*
X007646Y006876D01*
X007616Y006876D01*
X007553Y006876D02*
X007493Y006876D01*
X007523Y006906D02*
X007523Y006786D01*
X007553Y006756D01*
X007429Y006786D02*
X007429Y006846D01*
X007399Y006876D01*
X007339Y006876D01*
X007309Y006846D01*
X007309Y006786D01*
X007339Y006756D01*
X007399Y006756D01*
X007429Y006786D01*
X007245Y006786D02*
X007245Y006846D01*
X007215Y006876D01*
X007125Y006876D01*
X007125Y006936D02*
X007125Y006756D01*
X007215Y006756D01*
X007245Y006786D01*
X007061Y006786D02*
X007061Y006846D01*
X007031Y006876D01*
X006970Y006876D01*
X006940Y006846D01*
X006940Y006786D01*
X006970Y006756D01*
X007031Y006756D01*
X007061Y006786D01*
X006877Y006876D02*
X006847Y006876D01*
X006787Y006816D01*
X006787Y006756D02*
X006787Y006876D01*
X006539Y006876D02*
X006449Y006876D01*
X006419Y006846D01*
X006449Y006816D01*
X006509Y006816D01*
X006539Y006786D01*
X006509Y006756D01*
X006419Y006756D01*
X006355Y006756D02*
X006355Y006876D01*
X006355Y006756D02*
X006265Y006756D01*
X006235Y006786D01*
X006235Y006876D01*
X006170Y006846D02*
X006140Y006876D01*
X006080Y006876D01*
X006050Y006846D01*
X006050Y006786D01*
X006080Y006756D01*
X006140Y006756D01*
X006170Y006786D01*
X006170Y006846D01*
X005986Y006846D02*
X005986Y006756D01*
X005926Y006756D02*
X005926Y006846D01*
X005956Y006876D01*
X005986Y006846D01*
X005926Y006846D02*
X005896Y006876D01*
X005866Y006876D01*
X005866Y006756D01*
X005802Y006786D02*
X005802Y006846D01*
X005772Y006876D01*
X005712Y006876D01*
X005682Y006846D01*
X005682Y006786D01*
X005712Y006756D01*
X005772Y006756D01*
X005802Y006786D01*
X005618Y006756D02*
X005618Y006846D01*
X005588Y006876D01*
X005498Y006876D01*
X005498Y006756D01*
X005434Y006786D02*
X005434Y006846D01*
X005404Y006876D01*
X005344Y006876D01*
X005314Y006846D01*
X005314Y006786D01*
X005344Y006756D01*
X005404Y006756D01*
X005434Y006786D01*
X005251Y006756D02*
X005221Y006786D01*
X005221Y006906D01*
X005191Y006876D02*
X005251Y006876D01*
X005127Y006876D02*
X005127Y006756D01*
X005037Y006756D01*
X005007Y006786D01*
X005007Y006876D01*
X004943Y006846D02*
X004943Y006756D01*
X004853Y006756D01*
X004823Y006786D01*
X004853Y006816D01*
X004943Y006816D01*
X004943Y006846D02*
X004913Y006876D01*
X004853Y006876D01*
X004883Y007116D02*
X004763Y007206D01*
X004813Y007226D01*
X004783Y007296D01*
X004863Y007276D01*
X004873Y007326D01*
X004953Y007256D01*
X004913Y007416D01*
X004983Y007386D01*
X005033Y007496D01*
X005083Y007386D01*
X005143Y007416D01*
X005103Y007256D01*
X007646Y006966D02*
X007646Y006936D01*
X008475Y006936D02*
X008475Y006756D01*
X008595Y006756D02*
X008595Y006846D01*
X034830Y008491D02*
X034830Y012491D01*
D26*
X027349Y020980D02*
X027323Y021009D01*
X027324Y021009D02*
X027345Y021030D01*
X027364Y021054D01*
X027380Y021080D01*
X027393Y021107D01*
X027403Y021136D01*
X027409Y021166D01*
X027413Y021196D01*
X027413Y021226D01*
X027409Y021256D01*
X027403Y021286D01*
X027393Y021315D01*
X027380Y021342D01*
X027364Y021368D01*
X027345Y021392D01*
X027324Y021413D01*
X027349Y021442D01*
X027350Y021442D01*
X027374Y021418D01*
X027396Y021390D01*
X027414Y021361D01*
X027429Y021329D01*
X027440Y021297D01*
X027448Y021263D01*
X027452Y021228D01*
X027452Y021194D01*
X027448Y021159D01*
X027440Y021125D01*
X027429Y021093D01*
X027414Y021061D01*
X027396Y021032D01*
X027374Y021004D01*
X027350Y020980D01*
X027349Y020980D01*
X027373Y021005D01*
X027395Y021032D01*
X027413Y021062D01*
X027428Y021093D01*
X027439Y021126D01*
X027447Y021159D01*
X027451Y021194D01*
X027451Y021228D01*
X027447Y021263D01*
X027439Y021296D01*
X027428Y021329D01*
X027413Y021360D01*
X027395Y021390D01*
X027373Y021417D01*
X027349Y021442D01*
X027349Y021441D01*
X027373Y021416D01*
X027394Y021389D01*
X027412Y021360D01*
X027427Y021329D01*
X027438Y021296D01*
X027446Y021262D01*
X027450Y021228D01*
X027450Y021194D01*
X027446Y021160D01*
X027438Y021126D01*
X027427Y021093D01*
X027412Y021062D01*
X027394Y021033D01*
X027373Y021006D01*
X027349Y020981D01*
X027348Y020982D01*
X027372Y021006D01*
X027393Y021033D01*
X027411Y021063D01*
X027426Y021094D01*
X027437Y021126D01*
X027445Y021160D01*
X027449Y021194D01*
X027449Y021228D01*
X027445Y021262D01*
X027437Y021296D01*
X027426Y021328D01*
X027411Y021359D01*
X027393Y021389D01*
X027372Y021416D01*
X027348Y021440D01*
X027347Y021439D01*
X027371Y021415D01*
X027392Y021388D01*
X027410Y021359D01*
X027425Y021328D01*
X027436Y021296D01*
X027444Y021262D01*
X027448Y021228D01*
X027448Y021194D01*
X027444Y021160D01*
X027436Y021126D01*
X027425Y021094D01*
X027410Y021063D01*
X027392Y021034D01*
X027371Y021007D01*
X027347Y020983D01*
X027370Y021008D01*
X027392Y021035D01*
X027409Y021064D01*
X027424Y021094D01*
X027435Y021127D01*
X027443Y021160D01*
X027447Y021194D01*
X027447Y021228D01*
X027443Y021262D01*
X027435Y021295D01*
X027424Y021328D01*
X027409Y021358D01*
X027392Y021387D01*
X027370Y021414D01*
X027347Y021439D01*
X027346Y021438D01*
X027370Y021414D01*
X027391Y021387D01*
X027409Y021358D01*
X027423Y021327D01*
X027434Y021295D01*
X027442Y021262D01*
X027446Y021228D01*
X027446Y021194D01*
X027442Y021160D01*
X027434Y021127D01*
X027423Y021095D01*
X027409Y021064D01*
X027391Y021035D01*
X027370Y021008D01*
X027346Y020984D01*
X027345Y020985D01*
X027369Y021009D01*
X027390Y021036D01*
X027408Y021065D01*
X027422Y021095D01*
X027433Y021127D01*
X027441Y021160D01*
X027445Y021194D01*
X027445Y021228D01*
X027441Y021262D01*
X027433Y021295D01*
X027422Y021327D01*
X027408Y021357D01*
X027390Y021386D01*
X027369Y021413D01*
X027345Y021437D01*
X027345Y021436D01*
X027368Y021412D01*
X027389Y021386D01*
X027407Y021357D01*
X027421Y021326D01*
X027432Y021294D01*
X027440Y021261D01*
X027444Y021228D01*
X027444Y021194D01*
X027440Y021161D01*
X027432Y021128D01*
X027421Y021096D01*
X027407Y021065D01*
X027389Y021036D01*
X027368Y021010D01*
X027345Y020986D01*
X027344Y020986D01*
X027367Y021010D01*
X027388Y021037D01*
X027406Y021066D01*
X027420Y021096D01*
X027431Y021128D01*
X027439Y021161D01*
X027443Y021194D01*
X027443Y021228D01*
X027439Y021261D01*
X027431Y021294D01*
X027420Y021326D01*
X027406Y021356D01*
X027388Y021385D01*
X027367Y021412D01*
X027344Y021436D01*
X027343Y021435D01*
X027367Y021411D01*
X027387Y021384D01*
X027405Y021356D01*
X027419Y021326D01*
X027430Y021294D01*
X027438Y021261D01*
X027442Y021228D01*
X027442Y021194D01*
X027438Y021161D01*
X027430Y021128D01*
X027419Y021096D01*
X027405Y021066D01*
X027387Y021038D01*
X027367Y021011D01*
X027343Y020987D01*
X027343Y020988D01*
X027366Y021012D01*
X027387Y021038D01*
X027404Y021067D01*
X027419Y021097D01*
X027429Y021128D01*
X027437Y021161D01*
X027441Y021194D01*
X027441Y021228D01*
X027437Y021261D01*
X027429Y021294D01*
X027419Y021325D01*
X027404Y021355D01*
X027387Y021384D01*
X027366Y021410D01*
X027343Y021434D01*
X027342Y021433D01*
X027365Y021410D01*
X027386Y021383D01*
X027403Y021355D01*
X027418Y021325D01*
X027429Y021293D01*
X027436Y021261D01*
X027440Y021228D01*
X027440Y021194D01*
X027436Y021161D01*
X027429Y021129D01*
X027418Y021097D01*
X027403Y021067D01*
X027386Y021039D01*
X027365Y021012D01*
X027342Y020989D01*
X027341Y020989D01*
X027364Y021013D01*
X027385Y021039D01*
X027402Y021067D01*
X027417Y021098D01*
X027428Y021129D01*
X027435Y021161D01*
X027439Y021194D01*
X027439Y021228D01*
X027435Y021261D01*
X027428Y021293D01*
X027417Y021324D01*
X027402Y021355D01*
X027385Y021383D01*
X027364Y021409D01*
X027341Y021433D01*
X027340Y021432D01*
X027364Y021408D01*
X027384Y021382D01*
X027402Y021354D01*
X027416Y021324D01*
X027427Y021293D01*
X027434Y021260D01*
X027438Y021228D01*
X027438Y021194D01*
X027434Y021162D01*
X027427Y021129D01*
X027416Y021098D01*
X027402Y021068D01*
X027384Y021040D01*
X027364Y021014D01*
X027340Y020990D01*
X027340Y020991D01*
X027363Y021014D01*
X027383Y021040D01*
X027401Y021068D01*
X027415Y021098D01*
X027426Y021129D01*
X027433Y021162D01*
X027437Y021194D01*
X027437Y021228D01*
X027433Y021260D01*
X027426Y021293D01*
X027415Y021324D01*
X027401Y021354D01*
X027383Y021382D01*
X027363Y021408D01*
X027340Y021431D01*
X027339Y021430D01*
X027362Y021407D01*
X027383Y021381D01*
X027400Y021353D01*
X027414Y021323D01*
X027425Y021292D01*
X027432Y021260D01*
X027436Y021227D01*
X027436Y021195D01*
X027432Y021162D01*
X027425Y021130D01*
X027414Y021099D01*
X027400Y021069D01*
X027383Y021041D01*
X027362Y021015D01*
X027339Y020992D01*
X027338Y020992D01*
X027361Y021016D01*
X027382Y021042D01*
X027399Y021069D01*
X027413Y021099D01*
X027424Y021130D01*
X027431Y021162D01*
X027435Y021195D01*
X027435Y021227D01*
X027431Y021260D01*
X027424Y021292D01*
X027413Y021323D01*
X027399Y021353D01*
X027382Y021380D01*
X027361Y021406D01*
X027338Y021430D01*
X027338Y021429D01*
X027361Y021406D01*
X027381Y021380D01*
X027398Y021352D01*
X027412Y021323D01*
X027423Y021292D01*
X027430Y021260D01*
X027434Y021227D01*
X027434Y021195D01*
X027430Y021162D01*
X027423Y021130D01*
X027412Y021099D01*
X027398Y021070D01*
X027381Y021042D01*
X027361Y021016D01*
X027338Y020993D01*
X027337Y020994D01*
X027360Y021017D01*
X027380Y021043D01*
X027397Y021070D01*
X027411Y021100D01*
X027422Y021131D01*
X027429Y021162D01*
X027433Y021195D01*
X027433Y021227D01*
X027429Y021260D01*
X027422Y021291D01*
X027411Y021322D01*
X027397Y021352D01*
X027380Y021379D01*
X027360Y021405D01*
X027337Y021428D01*
X027336Y021427D01*
X027359Y021404D01*
X027379Y021379D01*
X027396Y021351D01*
X027410Y021322D01*
X027421Y021291D01*
X027428Y021259D01*
X027432Y021227D01*
X027432Y021195D01*
X027428Y021163D01*
X027421Y021131D01*
X027410Y021100D01*
X027396Y021071D01*
X027379Y021043D01*
X027359Y021018D01*
X027336Y020995D01*
X027358Y021018D01*
X027378Y021044D01*
X027395Y021071D01*
X027409Y021101D01*
X027420Y021131D01*
X027427Y021163D01*
X027431Y021195D01*
X027431Y021227D01*
X027427Y021259D01*
X027420Y021291D01*
X027409Y021321D01*
X027395Y021351D01*
X027378Y021378D01*
X027358Y021404D01*
X027336Y021427D01*
X027335Y021426D01*
X027358Y021403D01*
X027378Y021378D01*
X027395Y021350D01*
X027408Y021321D01*
X027419Y021291D01*
X027426Y021259D01*
X027430Y021227D01*
X027430Y021195D01*
X027426Y021163D01*
X027419Y021131D01*
X027408Y021101D01*
X027395Y021072D01*
X027378Y021044D01*
X027358Y021019D01*
X027335Y020996D01*
X027334Y020997D01*
X027357Y021020D01*
X027377Y021045D01*
X027394Y021072D01*
X027407Y021101D01*
X027418Y021132D01*
X027425Y021163D01*
X027429Y021195D01*
X027429Y021227D01*
X027425Y021259D01*
X027418Y021290D01*
X027407Y021321D01*
X027394Y021350D01*
X027377Y021377D01*
X027357Y021402D01*
X027334Y021425D01*
X027356Y021402D01*
X027376Y021376D01*
X027393Y021349D01*
X027407Y021320D01*
X027417Y021290D01*
X027424Y021259D01*
X027428Y021227D01*
X027428Y021195D01*
X027424Y021163D01*
X027417Y021132D01*
X027407Y021102D01*
X027393Y021073D01*
X027376Y021046D01*
X027356Y021020D01*
X027334Y020997D01*
X027333Y020998D01*
X027355Y021021D01*
X027375Y021046D01*
X027392Y021073D01*
X027406Y021102D01*
X027416Y021132D01*
X027423Y021163D01*
X027427Y021195D01*
X027427Y021227D01*
X027423Y021259D01*
X027416Y021290D01*
X027406Y021320D01*
X027392Y021349D01*
X027375Y021376D01*
X027355Y021401D01*
X027333Y021424D01*
X027332Y021423D01*
X027355Y021400D01*
X027374Y021375D01*
X027391Y021348D01*
X027405Y021320D01*
X027415Y021290D01*
X027422Y021258D01*
X027426Y021227D01*
X027426Y021195D01*
X027422Y021164D01*
X027415Y021132D01*
X027405Y021102D01*
X027391Y021074D01*
X027374Y021047D01*
X027355Y021022D01*
X027332Y020999D01*
X027332Y021000D01*
X027354Y021022D01*
X027373Y021047D01*
X027390Y021074D01*
X027404Y021103D01*
X027414Y021133D01*
X027421Y021164D01*
X027425Y021195D01*
X027425Y021227D01*
X027421Y021258D01*
X027414Y021289D01*
X027404Y021319D01*
X027390Y021348D01*
X027373Y021375D01*
X027354Y021400D01*
X027332Y021422D01*
X027331Y021422D01*
X027353Y021399D01*
X027373Y021374D01*
X027389Y021347D01*
X027403Y021319D01*
X027413Y021289D01*
X027420Y021258D01*
X027424Y021227D01*
X027424Y021195D01*
X027420Y021164D01*
X027413Y021133D01*
X027403Y021103D01*
X027389Y021075D01*
X027373Y021048D01*
X027353Y021023D01*
X027331Y021000D01*
X027330Y021001D01*
X027352Y021024D01*
X027372Y021048D01*
X027388Y021075D01*
X027402Y021104D01*
X027412Y021133D01*
X027419Y021164D01*
X027423Y021195D01*
X027423Y021227D01*
X027419Y021258D01*
X027412Y021289D01*
X027402Y021318D01*
X027388Y021347D01*
X027372Y021374D01*
X027352Y021398D01*
X027330Y021421D01*
X027330Y021420D01*
X027352Y021398D01*
X027371Y021373D01*
X027388Y021346D01*
X027401Y021318D01*
X027411Y021288D01*
X027418Y021258D01*
X027422Y021227D01*
X027422Y021195D01*
X027418Y021164D01*
X027411Y021134D01*
X027401Y021104D01*
X027388Y021076D01*
X027371Y021049D01*
X027352Y021024D01*
X027330Y021002D01*
X027329Y021003D01*
X027351Y021025D01*
X027370Y021050D01*
X027387Y021076D01*
X027400Y021104D01*
X027410Y021134D01*
X027417Y021164D01*
X027421Y021195D01*
X027421Y021227D01*
X027417Y021258D01*
X027410Y021288D01*
X027400Y021318D01*
X027387Y021346D01*
X027370Y021372D01*
X027351Y021397D01*
X027329Y021419D01*
X027328Y021419D01*
X027350Y021396D01*
X027369Y021372D01*
X027386Y021345D01*
X027399Y021317D01*
X027409Y021288D01*
X027416Y021257D01*
X027420Y021227D01*
X027420Y021195D01*
X027416Y021165D01*
X027409Y021134D01*
X027399Y021105D01*
X027386Y021077D01*
X027369Y021050D01*
X027350Y021026D01*
X027328Y021003D01*
X027328Y021004D01*
X027349Y021026D01*
X027369Y021051D01*
X027385Y021077D01*
X027398Y021105D01*
X027408Y021134D01*
X027415Y021165D01*
X027419Y021195D01*
X027419Y021227D01*
X027415Y021257D01*
X027408Y021288D01*
X027398Y021317D01*
X027385Y021345D01*
X027369Y021371D01*
X027349Y021396D01*
X027328Y021418D01*
X027327Y021417D01*
X027349Y021395D01*
X027368Y021371D01*
X027384Y021344D01*
X027397Y021317D01*
X027407Y021287D01*
X027414Y021257D01*
X027418Y021226D01*
X027418Y021196D01*
X027414Y021165D01*
X027407Y021135D01*
X027397Y021105D01*
X027384Y021078D01*
X027368Y021051D01*
X027349Y021027D01*
X027327Y021005D01*
X027326Y021006D01*
X027348Y021028D01*
X027367Y021052D01*
X027383Y021078D01*
X027396Y021106D01*
X027406Y021135D01*
X027413Y021165D01*
X027417Y021196D01*
X027417Y021226D01*
X027413Y021257D01*
X027406Y021287D01*
X027396Y021316D01*
X027383Y021344D01*
X027367Y021370D01*
X027348Y021394D01*
X027326Y021416D01*
X027347Y021394D01*
X027366Y021370D01*
X027382Y021343D01*
X027395Y021316D01*
X027405Y021287D01*
X027412Y021257D01*
X027416Y021226D01*
X027416Y021196D01*
X027412Y021165D01*
X027405Y021135D01*
X027395Y021106D01*
X027382Y021079D01*
X027366Y021052D01*
X027347Y021028D01*
X027326Y021006D01*
X027325Y021007D01*
X027346Y021029D01*
X027365Y021053D01*
X027381Y021079D01*
X027394Y021107D01*
X027404Y021136D01*
X027411Y021165D01*
X027415Y021196D01*
X027415Y021226D01*
X027411Y021257D01*
X027404Y021286D01*
X027394Y021315D01*
X027381Y021343D01*
X027365Y021369D01*
X027346Y021393D01*
X027325Y021415D01*
X027324Y021414D01*
X027346Y021392D01*
X027364Y021368D01*
X027381Y021343D01*
X027394Y021315D01*
X027404Y021286D01*
X027410Y021257D01*
X027414Y021226D01*
X027414Y021196D01*
X027410Y021165D01*
X027404Y021136D01*
X027394Y021107D01*
X027381Y021079D01*
X027364Y021054D01*
X027346Y021030D01*
X027324Y021008D01*
X026929Y021442D02*
X026955Y021413D01*
X026954Y021413D02*
X026933Y021392D01*
X026914Y021368D01*
X026898Y021342D01*
X026885Y021315D01*
X026875Y021286D01*
X026869Y021256D01*
X026865Y021226D01*
X026865Y021196D01*
X026869Y021166D01*
X026875Y021136D01*
X026885Y021107D01*
X026898Y021080D01*
X026914Y021054D01*
X026933Y021030D01*
X026954Y021009D01*
X026929Y020980D01*
X026928Y020980D01*
X026904Y021004D01*
X026882Y021032D01*
X026864Y021061D01*
X026849Y021093D01*
X026838Y021125D01*
X026830Y021159D01*
X026826Y021194D01*
X026826Y021228D01*
X026830Y021263D01*
X026838Y021297D01*
X026849Y021329D01*
X026864Y021361D01*
X026882Y021390D01*
X026904Y021418D01*
X026928Y021442D01*
X026929Y021442D01*
X026905Y021417D01*
X026883Y021390D01*
X026865Y021360D01*
X026850Y021329D01*
X026839Y021296D01*
X026831Y021263D01*
X026827Y021228D01*
X026827Y021194D01*
X026831Y021159D01*
X026839Y021126D01*
X026850Y021093D01*
X026865Y021062D01*
X026883Y021032D01*
X026905Y021005D01*
X026929Y020980D01*
X026929Y020981D01*
X026905Y021006D01*
X026884Y021033D01*
X026866Y021062D01*
X026851Y021093D01*
X026840Y021126D01*
X026832Y021160D01*
X026828Y021194D01*
X026828Y021228D01*
X026832Y021262D01*
X026840Y021296D01*
X026851Y021329D01*
X026866Y021360D01*
X026884Y021389D01*
X026905Y021416D01*
X026929Y021441D01*
X026930Y021440D01*
X026906Y021416D01*
X026885Y021389D01*
X026867Y021359D01*
X026852Y021328D01*
X026841Y021296D01*
X026833Y021262D01*
X026829Y021228D01*
X026829Y021194D01*
X026833Y021160D01*
X026841Y021126D01*
X026852Y021094D01*
X026867Y021063D01*
X026885Y021033D01*
X026906Y021006D01*
X026930Y020982D01*
X026931Y020983D01*
X026907Y021007D01*
X026886Y021034D01*
X026868Y021063D01*
X026853Y021094D01*
X026842Y021126D01*
X026834Y021160D01*
X026830Y021194D01*
X026830Y021228D01*
X026834Y021262D01*
X026842Y021296D01*
X026853Y021328D01*
X026868Y021359D01*
X026886Y021388D01*
X026907Y021415D01*
X026931Y021439D01*
X026908Y021414D01*
X026886Y021387D01*
X026869Y021358D01*
X026854Y021328D01*
X026843Y021295D01*
X026835Y021262D01*
X026831Y021228D01*
X026831Y021194D01*
X026835Y021160D01*
X026843Y021127D01*
X026854Y021094D01*
X026869Y021064D01*
X026886Y021035D01*
X026908Y021008D01*
X026931Y020983D01*
X026932Y020984D01*
X026908Y021008D01*
X026887Y021035D01*
X026869Y021064D01*
X026855Y021095D01*
X026844Y021127D01*
X026836Y021160D01*
X026832Y021194D01*
X026832Y021228D01*
X026836Y021262D01*
X026844Y021295D01*
X026855Y021327D01*
X026869Y021358D01*
X026887Y021387D01*
X026908Y021414D01*
X026932Y021438D01*
X026933Y021437D01*
X026909Y021413D01*
X026888Y021386D01*
X026870Y021357D01*
X026856Y021327D01*
X026845Y021295D01*
X026837Y021262D01*
X026833Y021228D01*
X026833Y021194D01*
X026837Y021160D01*
X026845Y021127D01*
X026856Y021095D01*
X026870Y021065D01*
X026888Y021036D01*
X026909Y021009D01*
X026933Y020985D01*
X026933Y020986D01*
X026910Y021010D01*
X026889Y021036D01*
X026871Y021065D01*
X026857Y021096D01*
X026846Y021128D01*
X026838Y021161D01*
X026834Y021194D01*
X026834Y021228D01*
X026838Y021261D01*
X026846Y021294D01*
X026857Y021326D01*
X026871Y021357D01*
X026889Y021386D01*
X026910Y021412D01*
X026933Y021436D01*
X026934Y021436D01*
X026911Y021412D01*
X026890Y021385D01*
X026872Y021356D01*
X026858Y021326D01*
X026847Y021294D01*
X026839Y021261D01*
X026835Y021228D01*
X026835Y021194D01*
X026839Y021161D01*
X026847Y021128D01*
X026858Y021096D01*
X026872Y021066D01*
X026890Y021037D01*
X026911Y021010D01*
X026934Y020986D01*
X026935Y020987D01*
X026911Y021011D01*
X026891Y021038D01*
X026873Y021066D01*
X026859Y021096D01*
X026848Y021128D01*
X026840Y021161D01*
X026836Y021194D01*
X026836Y021228D01*
X026840Y021261D01*
X026848Y021294D01*
X026859Y021326D01*
X026873Y021356D01*
X026891Y021384D01*
X026911Y021411D01*
X026935Y021435D01*
X026935Y021434D01*
X026912Y021410D01*
X026891Y021384D01*
X026874Y021355D01*
X026859Y021325D01*
X026849Y021294D01*
X026841Y021261D01*
X026837Y021228D01*
X026837Y021194D01*
X026841Y021161D01*
X026849Y021128D01*
X026859Y021097D01*
X026874Y021067D01*
X026891Y021038D01*
X026912Y021012D01*
X026935Y020988D01*
X026936Y020989D01*
X026913Y021012D01*
X026892Y021039D01*
X026875Y021067D01*
X026860Y021097D01*
X026849Y021129D01*
X026842Y021161D01*
X026838Y021194D01*
X026838Y021228D01*
X026842Y021261D01*
X026849Y021293D01*
X026860Y021325D01*
X026875Y021355D01*
X026892Y021383D01*
X026913Y021410D01*
X026936Y021433D01*
X026937Y021433D01*
X026914Y021409D01*
X026893Y021383D01*
X026876Y021355D01*
X026861Y021324D01*
X026850Y021293D01*
X026843Y021261D01*
X026839Y021228D01*
X026839Y021194D01*
X026843Y021161D01*
X026850Y021129D01*
X026861Y021098D01*
X026876Y021067D01*
X026893Y021039D01*
X026914Y021013D01*
X026937Y020989D01*
X026938Y020990D01*
X026914Y021014D01*
X026894Y021040D01*
X026876Y021068D01*
X026862Y021098D01*
X026851Y021129D01*
X026844Y021162D01*
X026840Y021194D01*
X026840Y021228D01*
X026844Y021260D01*
X026851Y021293D01*
X026862Y021324D01*
X026876Y021354D01*
X026894Y021382D01*
X026914Y021408D01*
X026938Y021432D01*
X026938Y021431D01*
X026915Y021408D01*
X026895Y021382D01*
X026877Y021354D01*
X026863Y021324D01*
X026852Y021293D01*
X026845Y021260D01*
X026841Y021228D01*
X026841Y021194D01*
X026845Y021162D01*
X026852Y021129D01*
X026863Y021098D01*
X026877Y021068D01*
X026895Y021040D01*
X026915Y021014D01*
X026938Y020991D01*
X026939Y020992D01*
X026916Y021015D01*
X026895Y021041D01*
X026878Y021069D01*
X026864Y021099D01*
X026853Y021130D01*
X026846Y021162D01*
X026842Y021195D01*
X026842Y021227D01*
X026846Y021260D01*
X026853Y021292D01*
X026864Y021323D01*
X026878Y021353D01*
X026895Y021381D01*
X026916Y021407D01*
X026939Y021430D01*
X026940Y021430D01*
X026917Y021406D01*
X026896Y021380D01*
X026879Y021353D01*
X026865Y021323D01*
X026854Y021292D01*
X026847Y021260D01*
X026843Y021227D01*
X026843Y021195D01*
X026847Y021162D01*
X026854Y021130D01*
X026865Y021099D01*
X026879Y021069D01*
X026896Y021042D01*
X026917Y021016D01*
X026940Y020992D01*
X026940Y020993D01*
X026917Y021016D01*
X026897Y021042D01*
X026880Y021070D01*
X026866Y021099D01*
X026855Y021130D01*
X026848Y021162D01*
X026844Y021195D01*
X026844Y021227D01*
X026848Y021260D01*
X026855Y021292D01*
X026866Y021323D01*
X026880Y021352D01*
X026897Y021380D01*
X026917Y021406D01*
X026940Y021429D01*
X026941Y021428D01*
X026918Y021405D01*
X026898Y021379D01*
X026881Y021352D01*
X026867Y021322D01*
X026856Y021291D01*
X026849Y021260D01*
X026845Y021227D01*
X026845Y021195D01*
X026849Y021162D01*
X026856Y021131D01*
X026867Y021100D01*
X026881Y021070D01*
X026898Y021043D01*
X026918Y021017D01*
X026941Y020994D01*
X026942Y020995D01*
X026919Y021018D01*
X026899Y021043D01*
X026882Y021071D01*
X026868Y021100D01*
X026857Y021131D01*
X026850Y021163D01*
X026846Y021195D01*
X026846Y021227D01*
X026850Y021259D01*
X026857Y021291D01*
X026868Y021322D01*
X026882Y021351D01*
X026899Y021379D01*
X026919Y021404D01*
X026942Y021427D01*
X026920Y021404D01*
X026900Y021378D01*
X026883Y021351D01*
X026869Y021321D01*
X026858Y021291D01*
X026851Y021259D01*
X026847Y021227D01*
X026847Y021195D01*
X026851Y021163D01*
X026858Y021131D01*
X026869Y021101D01*
X026883Y021071D01*
X026900Y021044D01*
X026920Y021018D01*
X026942Y020995D01*
X026943Y020996D01*
X026920Y021019D01*
X026900Y021044D01*
X026883Y021072D01*
X026870Y021101D01*
X026859Y021131D01*
X026852Y021163D01*
X026848Y021195D01*
X026848Y021227D01*
X026852Y021259D01*
X026859Y021291D01*
X026870Y021321D01*
X026883Y021350D01*
X026900Y021378D01*
X026920Y021403D01*
X026943Y021426D01*
X026944Y021425D01*
X026921Y021402D01*
X026901Y021377D01*
X026884Y021350D01*
X026871Y021321D01*
X026860Y021290D01*
X026853Y021259D01*
X026849Y021227D01*
X026849Y021195D01*
X026853Y021163D01*
X026860Y021132D01*
X026871Y021101D01*
X026884Y021072D01*
X026901Y021045D01*
X026921Y021020D01*
X026944Y020997D01*
X026922Y021020D01*
X026902Y021046D01*
X026885Y021073D01*
X026871Y021102D01*
X026861Y021132D01*
X026854Y021163D01*
X026850Y021195D01*
X026850Y021227D01*
X026854Y021259D01*
X026861Y021290D01*
X026871Y021320D01*
X026885Y021349D01*
X026902Y021376D01*
X026922Y021402D01*
X026944Y021425D01*
X026945Y021424D01*
X026923Y021401D01*
X026903Y021376D01*
X026886Y021349D01*
X026872Y021320D01*
X026862Y021290D01*
X026855Y021259D01*
X026851Y021227D01*
X026851Y021195D01*
X026855Y021163D01*
X026862Y021132D01*
X026872Y021102D01*
X026886Y021073D01*
X026903Y021046D01*
X026923Y021021D01*
X026945Y020998D01*
X026946Y020999D01*
X026923Y021022D01*
X026904Y021047D01*
X026887Y021074D01*
X026873Y021102D01*
X026863Y021132D01*
X026856Y021164D01*
X026852Y021195D01*
X026852Y021227D01*
X026856Y021258D01*
X026863Y021290D01*
X026873Y021320D01*
X026887Y021348D01*
X026904Y021375D01*
X026923Y021400D01*
X026946Y021423D01*
X026946Y021422D01*
X026924Y021400D01*
X026905Y021375D01*
X026888Y021348D01*
X026874Y021319D01*
X026864Y021289D01*
X026857Y021258D01*
X026853Y021227D01*
X026853Y021195D01*
X026857Y021164D01*
X026864Y021133D01*
X026874Y021103D01*
X026888Y021074D01*
X026905Y021047D01*
X026924Y021022D01*
X026946Y021000D01*
X026947Y021000D01*
X026925Y021023D01*
X026905Y021048D01*
X026889Y021075D01*
X026875Y021103D01*
X026865Y021133D01*
X026858Y021164D01*
X026854Y021195D01*
X026854Y021227D01*
X026858Y021258D01*
X026865Y021289D01*
X026875Y021319D01*
X026889Y021347D01*
X026905Y021374D01*
X026925Y021399D01*
X026947Y021422D01*
X026948Y021421D01*
X026926Y021398D01*
X026906Y021374D01*
X026890Y021347D01*
X026876Y021318D01*
X026866Y021289D01*
X026859Y021258D01*
X026855Y021227D01*
X026855Y021195D01*
X026859Y021164D01*
X026866Y021133D01*
X026876Y021104D01*
X026890Y021075D01*
X026906Y021048D01*
X026926Y021024D01*
X026948Y021001D01*
X026948Y021002D01*
X026926Y021024D01*
X026907Y021049D01*
X026890Y021076D01*
X026877Y021104D01*
X026867Y021134D01*
X026860Y021164D01*
X026856Y021195D01*
X026856Y021227D01*
X026860Y021258D01*
X026867Y021288D01*
X026877Y021318D01*
X026890Y021346D01*
X026907Y021373D01*
X026926Y021398D01*
X026948Y021420D01*
X026949Y021419D01*
X026927Y021397D01*
X026908Y021372D01*
X026891Y021346D01*
X026878Y021318D01*
X026868Y021288D01*
X026861Y021258D01*
X026857Y021227D01*
X026857Y021195D01*
X026861Y021164D01*
X026868Y021134D01*
X026878Y021104D01*
X026891Y021076D01*
X026908Y021050D01*
X026927Y021025D01*
X026949Y021003D01*
X026950Y021003D01*
X026928Y021026D01*
X026909Y021050D01*
X026892Y021077D01*
X026879Y021105D01*
X026869Y021134D01*
X026862Y021165D01*
X026858Y021195D01*
X026858Y021227D01*
X026862Y021257D01*
X026869Y021288D01*
X026879Y021317D01*
X026892Y021345D01*
X026909Y021372D01*
X026928Y021396D01*
X026950Y021419D01*
X026950Y021418D01*
X026929Y021396D01*
X026909Y021371D01*
X026893Y021345D01*
X026880Y021317D01*
X026870Y021288D01*
X026863Y021257D01*
X026859Y021227D01*
X026859Y021195D01*
X026863Y021165D01*
X026870Y021134D01*
X026880Y021105D01*
X026893Y021077D01*
X026909Y021051D01*
X026929Y021026D01*
X026950Y021004D01*
X026951Y021005D01*
X026929Y021027D01*
X026910Y021051D01*
X026894Y021078D01*
X026881Y021105D01*
X026871Y021135D01*
X026864Y021165D01*
X026860Y021196D01*
X026860Y021226D01*
X026864Y021257D01*
X026871Y021287D01*
X026881Y021317D01*
X026894Y021344D01*
X026910Y021371D01*
X026929Y021395D01*
X026951Y021417D01*
X026952Y021416D01*
X026930Y021394D01*
X026911Y021370D01*
X026895Y021344D01*
X026882Y021316D01*
X026872Y021287D01*
X026865Y021257D01*
X026861Y021226D01*
X026861Y021196D01*
X026865Y021165D01*
X026872Y021135D01*
X026882Y021106D01*
X026895Y021078D01*
X026911Y021052D01*
X026930Y021028D01*
X026952Y021006D01*
X026931Y021028D01*
X026912Y021052D01*
X026896Y021079D01*
X026883Y021106D01*
X026873Y021135D01*
X026866Y021165D01*
X026862Y021196D01*
X026862Y021226D01*
X026866Y021257D01*
X026873Y021287D01*
X026883Y021316D01*
X026896Y021343D01*
X026912Y021370D01*
X026931Y021394D01*
X026952Y021416D01*
X026953Y021415D01*
X026932Y021393D01*
X026913Y021369D01*
X026897Y021343D01*
X026884Y021315D01*
X026874Y021286D01*
X026867Y021257D01*
X026863Y021226D01*
X026863Y021196D01*
X026867Y021165D01*
X026874Y021136D01*
X026884Y021107D01*
X026897Y021079D01*
X026913Y021053D01*
X026932Y021029D01*
X026953Y021007D01*
X026954Y021008D01*
X026932Y021030D01*
X026914Y021054D01*
X026897Y021079D01*
X026884Y021107D01*
X026874Y021136D01*
X026868Y021165D01*
X026864Y021196D01*
X026864Y021226D01*
X026868Y021257D01*
X026874Y021286D01*
X026884Y021315D01*
X026897Y021343D01*
X026914Y021368D01*
X026932Y021392D01*
X026954Y021414D01*
X025971Y020980D02*
X025945Y021009D01*
X025946Y021009D02*
X025967Y021030D01*
X025986Y021054D01*
X026002Y021080D01*
X026015Y021107D01*
X026025Y021136D01*
X026031Y021166D01*
X026035Y021196D01*
X026035Y021226D01*
X026031Y021256D01*
X026025Y021286D01*
X026015Y021315D01*
X026002Y021342D01*
X025986Y021368D01*
X025967Y021392D01*
X025946Y021413D01*
X025971Y021442D01*
X025972Y021442D01*
X025996Y021418D01*
X026018Y021390D01*
X026036Y021361D01*
X026051Y021329D01*
X026062Y021297D01*
X026070Y021263D01*
X026074Y021228D01*
X026074Y021194D01*
X026070Y021159D01*
X026062Y021125D01*
X026051Y021093D01*
X026036Y021061D01*
X026018Y021032D01*
X025996Y021004D01*
X025972Y020980D01*
X025971Y020980D01*
X025995Y021005D01*
X026017Y021032D01*
X026035Y021062D01*
X026050Y021093D01*
X026061Y021126D01*
X026069Y021159D01*
X026073Y021194D01*
X026073Y021228D01*
X026069Y021263D01*
X026061Y021296D01*
X026050Y021329D01*
X026035Y021360D01*
X026017Y021390D01*
X025995Y021417D01*
X025971Y021442D01*
X025971Y021441D01*
X025995Y021416D01*
X026016Y021389D01*
X026034Y021360D01*
X026049Y021329D01*
X026060Y021296D01*
X026068Y021262D01*
X026072Y021228D01*
X026072Y021194D01*
X026068Y021160D01*
X026060Y021126D01*
X026049Y021093D01*
X026034Y021062D01*
X026016Y021033D01*
X025995Y021006D01*
X025971Y020981D01*
X025970Y020982D01*
X025994Y021006D01*
X026015Y021033D01*
X026033Y021063D01*
X026048Y021094D01*
X026059Y021126D01*
X026067Y021160D01*
X026071Y021194D01*
X026071Y021228D01*
X026067Y021262D01*
X026059Y021296D01*
X026048Y021328D01*
X026033Y021359D01*
X026015Y021389D01*
X025994Y021416D01*
X025970Y021440D01*
X025969Y021439D01*
X025993Y021415D01*
X026014Y021388D01*
X026032Y021359D01*
X026047Y021328D01*
X026058Y021296D01*
X026066Y021262D01*
X026070Y021228D01*
X026070Y021194D01*
X026066Y021160D01*
X026058Y021126D01*
X026047Y021094D01*
X026032Y021063D01*
X026014Y021034D01*
X025993Y021007D01*
X025969Y020983D01*
X025992Y021008D01*
X026014Y021035D01*
X026031Y021064D01*
X026046Y021094D01*
X026057Y021127D01*
X026065Y021160D01*
X026069Y021194D01*
X026069Y021228D01*
X026065Y021262D01*
X026057Y021295D01*
X026046Y021328D01*
X026031Y021358D01*
X026014Y021387D01*
X025992Y021414D01*
X025969Y021439D01*
X025968Y021438D01*
X025992Y021414D01*
X026013Y021387D01*
X026031Y021358D01*
X026045Y021327D01*
X026056Y021295D01*
X026064Y021262D01*
X026068Y021228D01*
X026068Y021194D01*
X026064Y021160D01*
X026056Y021127D01*
X026045Y021095D01*
X026031Y021064D01*
X026013Y021035D01*
X025992Y021008D01*
X025968Y020984D01*
X025967Y020985D01*
X025991Y021009D01*
X026012Y021036D01*
X026030Y021065D01*
X026044Y021095D01*
X026055Y021127D01*
X026063Y021160D01*
X026067Y021194D01*
X026067Y021228D01*
X026063Y021262D01*
X026055Y021295D01*
X026044Y021327D01*
X026030Y021357D01*
X026012Y021386D01*
X025991Y021413D01*
X025967Y021437D01*
X025967Y021436D01*
X025990Y021412D01*
X026011Y021386D01*
X026029Y021357D01*
X026043Y021326D01*
X026054Y021294D01*
X026062Y021261D01*
X026066Y021228D01*
X026066Y021194D01*
X026062Y021161D01*
X026054Y021128D01*
X026043Y021096D01*
X026029Y021065D01*
X026011Y021036D01*
X025990Y021010D01*
X025967Y020986D01*
X025966Y020986D01*
X025989Y021010D01*
X026010Y021037D01*
X026028Y021066D01*
X026042Y021096D01*
X026053Y021128D01*
X026061Y021161D01*
X026065Y021194D01*
X026065Y021228D01*
X026061Y021261D01*
X026053Y021294D01*
X026042Y021326D01*
X026028Y021356D01*
X026010Y021385D01*
X025989Y021412D01*
X025966Y021436D01*
X025965Y021435D01*
X025989Y021411D01*
X026009Y021384D01*
X026027Y021356D01*
X026041Y021326D01*
X026052Y021294D01*
X026060Y021261D01*
X026064Y021228D01*
X026064Y021194D01*
X026060Y021161D01*
X026052Y021128D01*
X026041Y021096D01*
X026027Y021066D01*
X026009Y021038D01*
X025989Y021011D01*
X025965Y020987D01*
X025965Y020988D01*
X025988Y021012D01*
X026009Y021038D01*
X026026Y021067D01*
X026041Y021097D01*
X026051Y021128D01*
X026059Y021161D01*
X026063Y021194D01*
X026063Y021228D01*
X026059Y021261D01*
X026051Y021294D01*
X026041Y021325D01*
X026026Y021355D01*
X026009Y021384D01*
X025988Y021410D01*
X025965Y021434D01*
X025964Y021433D01*
X025987Y021410D01*
X026008Y021383D01*
X026025Y021355D01*
X026040Y021325D01*
X026051Y021293D01*
X026058Y021261D01*
X026062Y021228D01*
X026062Y021194D01*
X026058Y021161D01*
X026051Y021129D01*
X026040Y021097D01*
X026025Y021067D01*
X026008Y021039D01*
X025987Y021012D01*
X025964Y020989D01*
X025963Y020989D01*
X025986Y021013D01*
X026007Y021039D01*
X026024Y021067D01*
X026039Y021098D01*
X026050Y021129D01*
X026057Y021161D01*
X026061Y021194D01*
X026061Y021228D01*
X026057Y021261D01*
X026050Y021293D01*
X026039Y021324D01*
X026024Y021355D01*
X026007Y021383D01*
X025986Y021409D01*
X025963Y021433D01*
X025962Y021432D01*
X025986Y021408D01*
X026006Y021382D01*
X026024Y021354D01*
X026038Y021324D01*
X026049Y021293D01*
X026056Y021260D01*
X026060Y021228D01*
X026060Y021194D01*
X026056Y021162D01*
X026049Y021129D01*
X026038Y021098D01*
X026024Y021068D01*
X026006Y021040D01*
X025986Y021014D01*
X025962Y020990D01*
X025962Y020991D01*
X025985Y021014D01*
X026005Y021040D01*
X026023Y021068D01*
X026037Y021098D01*
X026048Y021129D01*
X026055Y021162D01*
X026059Y021194D01*
X026059Y021228D01*
X026055Y021260D01*
X026048Y021293D01*
X026037Y021324D01*
X026023Y021354D01*
X026005Y021382D01*
X025985Y021408D01*
X025962Y021431D01*
X025961Y021430D01*
X025984Y021407D01*
X026005Y021381D01*
X026022Y021353D01*
X026036Y021323D01*
X026047Y021292D01*
X026054Y021260D01*
X026058Y021227D01*
X026058Y021195D01*
X026054Y021162D01*
X026047Y021130D01*
X026036Y021099D01*
X026022Y021069D01*
X026005Y021041D01*
X025984Y021015D01*
X025961Y020992D01*
X025960Y020992D01*
X025983Y021016D01*
X026004Y021042D01*
X026021Y021069D01*
X026035Y021099D01*
X026046Y021130D01*
X026053Y021162D01*
X026057Y021195D01*
X026057Y021227D01*
X026053Y021260D01*
X026046Y021292D01*
X026035Y021323D01*
X026021Y021353D01*
X026004Y021380D01*
X025983Y021406D01*
X025960Y021430D01*
X025960Y021429D01*
X025983Y021406D01*
X026003Y021380D01*
X026020Y021352D01*
X026034Y021323D01*
X026045Y021292D01*
X026052Y021260D01*
X026056Y021227D01*
X026056Y021195D01*
X026052Y021162D01*
X026045Y021130D01*
X026034Y021099D01*
X026020Y021070D01*
X026003Y021042D01*
X025983Y021016D01*
X025960Y020993D01*
X025959Y020994D01*
X025982Y021017D01*
X026002Y021043D01*
X026019Y021070D01*
X026033Y021100D01*
X026044Y021131D01*
X026051Y021162D01*
X026055Y021195D01*
X026055Y021227D01*
X026051Y021260D01*
X026044Y021291D01*
X026033Y021322D01*
X026019Y021352D01*
X026002Y021379D01*
X025982Y021405D01*
X025959Y021428D01*
X025958Y021427D01*
X025981Y021404D01*
X026001Y021379D01*
X026018Y021351D01*
X026032Y021322D01*
X026043Y021291D01*
X026050Y021259D01*
X026054Y021227D01*
X026054Y021195D01*
X026050Y021163D01*
X026043Y021131D01*
X026032Y021100D01*
X026018Y021071D01*
X026001Y021043D01*
X025981Y021018D01*
X025958Y020995D01*
X025980Y021018D01*
X026000Y021044D01*
X026017Y021071D01*
X026031Y021101D01*
X026042Y021131D01*
X026049Y021163D01*
X026053Y021195D01*
X026053Y021227D01*
X026049Y021259D01*
X026042Y021291D01*
X026031Y021321D01*
X026017Y021351D01*
X026000Y021378D01*
X025980Y021404D01*
X025958Y021427D01*
X025957Y021426D01*
X025980Y021403D01*
X026000Y021378D01*
X026017Y021350D01*
X026030Y021321D01*
X026041Y021291D01*
X026048Y021259D01*
X026052Y021227D01*
X026052Y021195D01*
X026048Y021163D01*
X026041Y021131D01*
X026030Y021101D01*
X026017Y021072D01*
X026000Y021044D01*
X025980Y021019D01*
X025957Y020996D01*
X025956Y020997D01*
X025979Y021020D01*
X025999Y021045D01*
X026016Y021072D01*
X026029Y021101D01*
X026040Y021132D01*
X026047Y021163D01*
X026051Y021195D01*
X026051Y021227D01*
X026047Y021259D01*
X026040Y021290D01*
X026029Y021321D01*
X026016Y021350D01*
X025999Y021377D01*
X025979Y021402D01*
X025956Y021425D01*
X025978Y021402D01*
X025998Y021376D01*
X026015Y021349D01*
X026029Y021320D01*
X026039Y021290D01*
X026046Y021259D01*
X026050Y021227D01*
X026050Y021195D01*
X026046Y021163D01*
X026039Y021132D01*
X026029Y021102D01*
X026015Y021073D01*
X025998Y021046D01*
X025978Y021020D01*
X025956Y020997D01*
X025955Y020998D01*
X025977Y021021D01*
X025997Y021046D01*
X026014Y021073D01*
X026028Y021102D01*
X026038Y021132D01*
X026045Y021163D01*
X026049Y021195D01*
X026049Y021227D01*
X026045Y021259D01*
X026038Y021290D01*
X026028Y021320D01*
X026014Y021349D01*
X025997Y021376D01*
X025977Y021401D01*
X025955Y021424D01*
X025954Y021423D01*
X025977Y021400D01*
X025996Y021375D01*
X026013Y021348D01*
X026027Y021320D01*
X026037Y021290D01*
X026044Y021258D01*
X026048Y021227D01*
X026048Y021195D01*
X026044Y021164D01*
X026037Y021132D01*
X026027Y021102D01*
X026013Y021074D01*
X025996Y021047D01*
X025977Y021022D01*
X025954Y020999D01*
X025954Y021000D01*
X025976Y021022D01*
X025995Y021047D01*
X026012Y021074D01*
X026026Y021103D01*
X026036Y021133D01*
X026043Y021164D01*
X026047Y021195D01*
X026047Y021227D01*
X026043Y021258D01*
X026036Y021289D01*
X026026Y021319D01*
X026012Y021348D01*
X025995Y021375D01*
X025976Y021400D01*
X025954Y021422D01*
X025953Y021422D01*
X025975Y021399D01*
X025995Y021374D01*
X026011Y021347D01*
X026025Y021319D01*
X026035Y021289D01*
X026042Y021258D01*
X026046Y021227D01*
X026046Y021195D01*
X026042Y021164D01*
X026035Y021133D01*
X026025Y021103D01*
X026011Y021075D01*
X025995Y021048D01*
X025975Y021023D01*
X025953Y021000D01*
X025952Y021001D01*
X025974Y021024D01*
X025994Y021048D01*
X026010Y021075D01*
X026024Y021104D01*
X026034Y021133D01*
X026041Y021164D01*
X026045Y021195D01*
X026045Y021227D01*
X026041Y021258D01*
X026034Y021289D01*
X026024Y021318D01*
X026010Y021347D01*
X025994Y021374D01*
X025974Y021398D01*
X025952Y021421D01*
X025952Y021420D01*
X025974Y021398D01*
X025993Y021373D01*
X026010Y021346D01*
X026023Y021318D01*
X026033Y021288D01*
X026040Y021258D01*
X026044Y021227D01*
X026044Y021195D01*
X026040Y021164D01*
X026033Y021134D01*
X026023Y021104D01*
X026010Y021076D01*
X025993Y021049D01*
X025974Y021024D01*
X025952Y021002D01*
X025951Y021003D01*
X025973Y021025D01*
X025992Y021050D01*
X026009Y021076D01*
X026022Y021104D01*
X026032Y021134D01*
X026039Y021164D01*
X026043Y021195D01*
X026043Y021227D01*
X026039Y021258D01*
X026032Y021288D01*
X026022Y021318D01*
X026009Y021346D01*
X025992Y021372D01*
X025973Y021397D01*
X025951Y021419D01*
X025950Y021419D01*
X025972Y021396D01*
X025991Y021372D01*
X026008Y021345D01*
X026021Y021317D01*
X026031Y021288D01*
X026038Y021257D01*
X026042Y021227D01*
X026042Y021195D01*
X026038Y021165D01*
X026031Y021134D01*
X026021Y021105D01*
X026008Y021077D01*
X025991Y021050D01*
X025972Y021026D01*
X025950Y021003D01*
X025950Y021004D01*
X025971Y021026D01*
X025991Y021051D01*
X026007Y021077D01*
X026020Y021105D01*
X026030Y021134D01*
X026037Y021165D01*
X026041Y021195D01*
X026041Y021227D01*
X026037Y021257D01*
X026030Y021288D01*
X026020Y021317D01*
X026007Y021345D01*
X025991Y021371D01*
X025971Y021396D01*
X025950Y021418D01*
X025949Y021417D01*
X025971Y021395D01*
X025990Y021371D01*
X026006Y021344D01*
X026019Y021317D01*
X026029Y021287D01*
X026036Y021257D01*
X026040Y021226D01*
X026040Y021196D01*
X026036Y021165D01*
X026029Y021135D01*
X026019Y021105D01*
X026006Y021078D01*
X025990Y021051D01*
X025971Y021027D01*
X025949Y021005D01*
X025948Y021006D01*
X025970Y021028D01*
X025989Y021052D01*
X026005Y021078D01*
X026018Y021106D01*
X026028Y021135D01*
X026035Y021165D01*
X026039Y021196D01*
X026039Y021226D01*
X026035Y021257D01*
X026028Y021287D01*
X026018Y021316D01*
X026005Y021344D01*
X025989Y021370D01*
X025970Y021394D01*
X025948Y021416D01*
X025969Y021394D01*
X025988Y021370D01*
X026004Y021343D01*
X026017Y021316D01*
X026027Y021287D01*
X026034Y021257D01*
X026038Y021226D01*
X026038Y021196D01*
X026034Y021165D01*
X026027Y021135D01*
X026017Y021106D01*
X026004Y021079D01*
X025988Y021052D01*
X025969Y021028D01*
X025948Y021006D01*
X025947Y021007D01*
X025968Y021029D01*
X025987Y021053D01*
X026003Y021079D01*
X026016Y021107D01*
X026026Y021136D01*
X026033Y021165D01*
X026037Y021196D01*
X026037Y021226D01*
X026033Y021257D01*
X026026Y021286D01*
X026016Y021315D01*
X026003Y021343D01*
X025987Y021369D01*
X025968Y021393D01*
X025947Y021415D01*
X025946Y021414D01*
X025968Y021392D01*
X025986Y021368D01*
X026003Y021343D01*
X026016Y021315D01*
X026026Y021286D01*
X026032Y021257D01*
X026036Y021226D01*
X026036Y021196D01*
X026032Y021165D01*
X026026Y021136D01*
X026016Y021107D01*
X026003Y021079D01*
X025986Y021054D01*
X025968Y021030D01*
X025946Y021008D01*
X025551Y021442D02*
X025577Y021413D01*
X025576Y021413D02*
X025555Y021392D01*
X025536Y021368D01*
X025520Y021342D01*
X025507Y021315D01*
X025497Y021286D01*
X025491Y021256D01*
X025487Y021226D01*
X025487Y021196D01*
X025491Y021166D01*
X025497Y021136D01*
X025507Y021107D01*
X025520Y021080D01*
X025536Y021054D01*
X025555Y021030D01*
X025576Y021009D01*
X025551Y020980D01*
X025550Y020980D01*
X025526Y021004D01*
X025504Y021032D01*
X025486Y021061D01*
X025471Y021093D01*
X025460Y021125D01*
X025452Y021159D01*
X025448Y021194D01*
X025448Y021228D01*
X025452Y021263D01*
X025460Y021297D01*
X025471Y021329D01*
X025486Y021361D01*
X025504Y021390D01*
X025526Y021418D01*
X025550Y021442D01*
X025551Y021442D01*
X025527Y021417D01*
X025505Y021390D01*
X025487Y021360D01*
X025472Y021329D01*
X025461Y021296D01*
X025453Y021263D01*
X025449Y021228D01*
X025449Y021194D01*
X025453Y021159D01*
X025461Y021126D01*
X025472Y021093D01*
X025487Y021062D01*
X025505Y021032D01*
X025527Y021005D01*
X025551Y020980D01*
X025551Y020981D01*
X025527Y021006D01*
X025506Y021033D01*
X025488Y021062D01*
X025473Y021093D01*
X025462Y021126D01*
X025454Y021160D01*
X025450Y021194D01*
X025450Y021228D01*
X025454Y021262D01*
X025462Y021296D01*
X025473Y021329D01*
X025488Y021360D01*
X025506Y021389D01*
X025527Y021416D01*
X025551Y021441D01*
X025552Y021440D01*
X025528Y021416D01*
X025507Y021389D01*
X025489Y021359D01*
X025474Y021328D01*
X025463Y021296D01*
X025455Y021262D01*
X025451Y021228D01*
X025451Y021194D01*
X025455Y021160D01*
X025463Y021126D01*
X025474Y021094D01*
X025489Y021063D01*
X025507Y021033D01*
X025528Y021006D01*
X025552Y020982D01*
X025553Y020983D01*
X025529Y021007D01*
X025508Y021034D01*
X025490Y021063D01*
X025475Y021094D01*
X025464Y021126D01*
X025456Y021160D01*
X025452Y021194D01*
X025452Y021228D01*
X025456Y021262D01*
X025464Y021296D01*
X025475Y021328D01*
X025490Y021359D01*
X025508Y021388D01*
X025529Y021415D01*
X025553Y021439D01*
X025530Y021414D01*
X025508Y021387D01*
X025491Y021358D01*
X025476Y021328D01*
X025465Y021295D01*
X025457Y021262D01*
X025453Y021228D01*
X025453Y021194D01*
X025457Y021160D01*
X025465Y021127D01*
X025476Y021094D01*
X025491Y021064D01*
X025508Y021035D01*
X025530Y021008D01*
X025553Y020983D01*
X025554Y020984D01*
X025530Y021008D01*
X025509Y021035D01*
X025491Y021064D01*
X025477Y021095D01*
X025466Y021127D01*
X025458Y021160D01*
X025454Y021194D01*
X025454Y021228D01*
X025458Y021262D01*
X025466Y021295D01*
X025477Y021327D01*
X025491Y021358D01*
X025509Y021387D01*
X025530Y021414D01*
X025554Y021438D01*
X025555Y021437D01*
X025531Y021413D01*
X025510Y021386D01*
X025492Y021357D01*
X025478Y021327D01*
X025467Y021295D01*
X025459Y021262D01*
X025455Y021228D01*
X025455Y021194D01*
X025459Y021160D01*
X025467Y021127D01*
X025478Y021095D01*
X025492Y021065D01*
X025510Y021036D01*
X025531Y021009D01*
X025555Y020985D01*
X025555Y020986D01*
X025532Y021010D01*
X025511Y021036D01*
X025493Y021065D01*
X025479Y021096D01*
X025468Y021128D01*
X025460Y021161D01*
X025456Y021194D01*
X025456Y021228D01*
X025460Y021261D01*
X025468Y021294D01*
X025479Y021326D01*
X025493Y021357D01*
X025511Y021386D01*
X025532Y021412D01*
X025555Y021436D01*
X025556Y021436D01*
X025533Y021412D01*
X025512Y021385D01*
X025494Y021356D01*
X025480Y021326D01*
X025469Y021294D01*
X025461Y021261D01*
X025457Y021228D01*
X025457Y021194D01*
X025461Y021161D01*
X025469Y021128D01*
X025480Y021096D01*
X025494Y021066D01*
X025512Y021037D01*
X025533Y021010D01*
X025556Y020986D01*
X025557Y020987D01*
X025533Y021011D01*
X025513Y021038D01*
X025495Y021066D01*
X025481Y021096D01*
X025470Y021128D01*
X025462Y021161D01*
X025458Y021194D01*
X025458Y021228D01*
X025462Y021261D01*
X025470Y021294D01*
X025481Y021326D01*
X025495Y021356D01*
X025513Y021384D01*
X025533Y021411D01*
X025557Y021435D01*
X025557Y021434D01*
X025534Y021410D01*
X025513Y021384D01*
X025496Y021355D01*
X025481Y021325D01*
X025471Y021294D01*
X025463Y021261D01*
X025459Y021228D01*
X025459Y021194D01*
X025463Y021161D01*
X025471Y021128D01*
X025481Y021097D01*
X025496Y021067D01*
X025513Y021038D01*
X025534Y021012D01*
X025557Y020988D01*
X025558Y020989D01*
X025535Y021012D01*
X025514Y021039D01*
X025497Y021067D01*
X025482Y021097D01*
X025471Y021129D01*
X025464Y021161D01*
X025460Y021194D01*
X025460Y021228D01*
X025464Y021261D01*
X025471Y021293D01*
X025482Y021325D01*
X025497Y021355D01*
X025514Y021383D01*
X025535Y021410D01*
X025558Y021433D01*
X025559Y021433D01*
X025536Y021409D01*
X025515Y021383D01*
X025498Y021355D01*
X025483Y021324D01*
X025472Y021293D01*
X025465Y021261D01*
X025461Y021228D01*
X025461Y021194D01*
X025465Y021161D01*
X025472Y021129D01*
X025483Y021098D01*
X025498Y021067D01*
X025515Y021039D01*
X025536Y021013D01*
X025559Y020989D01*
X025560Y020990D01*
X025536Y021014D01*
X025516Y021040D01*
X025498Y021068D01*
X025484Y021098D01*
X025473Y021129D01*
X025466Y021162D01*
X025462Y021194D01*
X025462Y021228D01*
X025466Y021260D01*
X025473Y021293D01*
X025484Y021324D01*
X025498Y021354D01*
X025516Y021382D01*
X025536Y021408D01*
X025560Y021432D01*
X025560Y021431D01*
X025537Y021408D01*
X025517Y021382D01*
X025499Y021354D01*
X025485Y021324D01*
X025474Y021293D01*
X025467Y021260D01*
X025463Y021228D01*
X025463Y021194D01*
X025467Y021162D01*
X025474Y021129D01*
X025485Y021098D01*
X025499Y021068D01*
X025517Y021040D01*
X025537Y021014D01*
X025560Y020991D01*
X025561Y020992D01*
X025538Y021015D01*
X025517Y021041D01*
X025500Y021069D01*
X025486Y021099D01*
X025475Y021130D01*
X025468Y021162D01*
X025464Y021195D01*
X025464Y021227D01*
X025468Y021260D01*
X025475Y021292D01*
X025486Y021323D01*
X025500Y021353D01*
X025517Y021381D01*
X025538Y021407D01*
X025561Y021430D01*
X025562Y021430D01*
X025539Y021406D01*
X025518Y021380D01*
X025501Y021353D01*
X025487Y021323D01*
X025476Y021292D01*
X025469Y021260D01*
X025465Y021227D01*
X025465Y021195D01*
X025469Y021162D01*
X025476Y021130D01*
X025487Y021099D01*
X025501Y021069D01*
X025518Y021042D01*
X025539Y021016D01*
X025562Y020992D01*
X025562Y020993D01*
X025539Y021016D01*
X025519Y021042D01*
X025502Y021070D01*
X025488Y021099D01*
X025477Y021130D01*
X025470Y021162D01*
X025466Y021195D01*
X025466Y021227D01*
X025470Y021260D01*
X025477Y021292D01*
X025488Y021323D01*
X025502Y021352D01*
X025519Y021380D01*
X025539Y021406D01*
X025562Y021429D01*
X025563Y021428D01*
X025540Y021405D01*
X025520Y021379D01*
X025503Y021352D01*
X025489Y021322D01*
X025478Y021291D01*
X025471Y021260D01*
X025467Y021227D01*
X025467Y021195D01*
X025471Y021162D01*
X025478Y021131D01*
X025489Y021100D01*
X025503Y021070D01*
X025520Y021043D01*
X025540Y021017D01*
X025563Y020994D01*
X025564Y020995D01*
X025541Y021018D01*
X025521Y021043D01*
X025504Y021071D01*
X025490Y021100D01*
X025479Y021131D01*
X025472Y021163D01*
X025468Y021195D01*
X025468Y021227D01*
X025472Y021259D01*
X025479Y021291D01*
X025490Y021322D01*
X025504Y021351D01*
X025521Y021379D01*
X025541Y021404D01*
X025564Y021427D01*
X025542Y021404D01*
X025522Y021378D01*
X025505Y021351D01*
X025491Y021321D01*
X025480Y021291D01*
X025473Y021259D01*
X025469Y021227D01*
X025469Y021195D01*
X025473Y021163D01*
X025480Y021131D01*
X025491Y021101D01*
X025505Y021071D01*
X025522Y021044D01*
X025542Y021018D01*
X025564Y020995D01*
X025565Y020996D01*
X025542Y021019D01*
X025522Y021044D01*
X025505Y021072D01*
X025492Y021101D01*
X025481Y021131D01*
X025474Y021163D01*
X025470Y021195D01*
X025470Y021227D01*
X025474Y021259D01*
X025481Y021291D01*
X025492Y021321D01*
X025505Y021350D01*
X025522Y021378D01*
X025542Y021403D01*
X025565Y021426D01*
X025566Y021425D01*
X025543Y021402D01*
X025523Y021377D01*
X025506Y021350D01*
X025493Y021321D01*
X025482Y021290D01*
X025475Y021259D01*
X025471Y021227D01*
X025471Y021195D01*
X025475Y021163D01*
X025482Y021132D01*
X025493Y021101D01*
X025506Y021072D01*
X025523Y021045D01*
X025543Y021020D01*
X025566Y020997D01*
X025544Y021020D01*
X025524Y021046D01*
X025507Y021073D01*
X025493Y021102D01*
X025483Y021132D01*
X025476Y021163D01*
X025472Y021195D01*
X025472Y021227D01*
X025476Y021259D01*
X025483Y021290D01*
X025493Y021320D01*
X025507Y021349D01*
X025524Y021376D01*
X025544Y021402D01*
X025566Y021425D01*
X025567Y021424D01*
X025545Y021401D01*
X025525Y021376D01*
X025508Y021349D01*
X025494Y021320D01*
X025484Y021290D01*
X025477Y021259D01*
X025473Y021227D01*
X025473Y021195D01*
X025477Y021163D01*
X025484Y021132D01*
X025494Y021102D01*
X025508Y021073D01*
X025525Y021046D01*
X025545Y021021D01*
X025567Y020998D01*
X025568Y020999D01*
X025545Y021022D01*
X025526Y021047D01*
X025509Y021074D01*
X025495Y021102D01*
X025485Y021132D01*
X025478Y021164D01*
X025474Y021195D01*
X025474Y021227D01*
X025478Y021258D01*
X025485Y021290D01*
X025495Y021320D01*
X025509Y021348D01*
X025526Y021375D01*
X025545Y021400D01*
X025568Y021423D01*
X025568Y021422D01*
X025546Y021400D01*
X025527Y021375D01*
X025510Y021348D01*
X025496Y021319D01*
X025486Y021289D01*
X025479Y021258D01*
X025475Y021227D01*
X025475Y021195D01*
X025479Y021164D01*
X025486Y021133D01*
X025496Y021103D01*
X025510Y021074D01*
X025527Y021047D01*
X025546Y021022D01*
X025568Y021000D01*
X025569Y021000D01*
X025547Y021023D01*
X025527Y021048D01*
X025511Y021075D01*
X025497Y021103D01*
X025487Y021133D01*
X025480Y021164D01*
X025476Y021195D01*
X025476Y021227D01*
X025480Y021258D01*
X025487Y021289D01*
X025497Y021319D01*
X025511Y021347D01*
X025527Y021374D01*
X025547Y021399D01*
X025569Y021422D01*
X025570Y021421D01*
X025548Y021398D01*
X025528Y021374D01*
X025512Y021347D01*
X025498Y021318D01*
X025488Y021289D01*
X025481Y021258D01*
X025477Y021227D01*
X025477Y021195D01*
X025481Y021164D01*
X025488Y021133D01*
X025498Y021104D01*
X025512Y021075D01*
X025528Y021048D01*
X025548Y021024D01*
X025570Y021001D01*
X025570Y021002D01*
X025548Y021024D01*
X025529Y021049D01*
X025512Y021076D01*
X025499Y021104D01*
X025489Y021134D01*
X025482Y021164D01*
X025478Y021195D01*
X025478Y021227D01*
X025482Y021258D01*
X025489Y021288D01*
X025499Y021318D01*
X025512Y021346D01*
X025529Y021373D01*
X025548Y021398D01*
X025570Y021420D01*
X025571Y021419D01*
X025549Y021397D01*
X025530Y021372D01*
X025513Y021346D01*
X025500Y021318D01*
X025490Y021288D01*
X025483Y021258D01*
X025479Y021227D01*
X025479Y021195D01*
X025483Y021164D01*
X025490Y021134D01*
X025500Y021104D01*
X025513Y021076D01*
X025530Y021050D01*
X025549Y021025D01*
X025571Y021003D01*
X025572Y021003D01*
X025550Y021026D01*
X025531Y021050D01*
X025514Y021077D01*
X025501Y021105D01*
X025491Y021134D01*
X025484Y021165D01*
X025480Y021195D01*
X025480Y021227D01*
X025484Y021257D01*
X025491Y021288D01*
X025501Y021317D01*
X025514Y021345D01*
X025531Y021372D01*
X025550Y021396D01*
X025572Y021419D01*
X025572Y021418D01*
X025551Y021396D01*
X025531Y021371D01*
X025515Y021345D01*
X025502Y021317D01*
X025492Y021288D01*
X025485Y021257D01*
X025481Y021227D01*
X025481Y021195D01*
X025485Y021165D01*
X025492Y021134D01*
X025502Y021105D01*
X025515Y021077D01*
X025531Y021051D01*
X025551Y021026D01*
X025572Y021004D01*
X025573Y021005D01*
X025551Y021027D01*
X025532Y021051D01*
X025516Y021078D01*
X025503Y021105D01*
X025493Y021135D01*
X025486Y021165D01*
X025482Y021196D01*
X025482Y021226D01*
X025486Y021257D01*
X025493Y021287D01*
X025503Y021317D01*
X025516Y021344D01*
X025532Y021371D01*
X025551Y021395D01*
X025573Y021417D01*
X025574Y021416D01*
X025552Y021394D01*
X025533Y021370D01*
X025517Y021344D01*
X025504Y021316D01*
X025494Y021287D01*
X025487Y021257D01*
X025483Y021226D01*
X025483Y021196D01*
X025487Y021165D01*
X025494Y021135D01*
X025504Y021106D01*
X025517Y021078D01*
X025533Y021052D01*
X025552Y021028D01*
X025574Y021006D01*
X025553Y021028D01*
X025534Y021052D01*
X025518Y021079D01*
X025505Y021106D01*
X025495Y021135D01*
X025488Y021165D01*
X025484Y021196D01*
X025484Y021226D01*
X025488Y021257D01*
X025495Y021287D01*
X025505Y021316D01*
X025518Y021343D01*
X025534Y021370D01*
X025553Y021394D01*
X025574Y021416D01*
X025575Y021415D01*
X025554Y021393D01*
X025535Y021369D01*
X025519Y021343D01*
X025506Y021315D01*
X025496Y021286D01*
X025489Y021257D01*
X025485Y021226D01*
X025485Y021196D01*
X025489Y021165D01*
X025496Y021136D01*
X025506Y021107D01*
X025519Y021079D01*
X025535Y021053D01*
X025554Y021029D01*
X025575Y021007D01*
X025576Y021008D01*
X025554Y021030D01*
X025536Y021054D01*
X025519Y021079D01*
X025506Y021107D01*
X025496Y021136D01*
X025490Y021165D01*
X025486Y021196D01*
X025486Y021226D01*
X025490Y021257D01*
X025496Y021286D01*
X025506Y021315D01*
X025519Y021343D01*
X025536Y021368D01*
X025554Y021392D01*
X025576Y021414D01*
X023215Y020980D02*
X023189Y021009D01*
X023190Y021009D02*
X023211Y021030D01*
X023230Y021054D01*
X023246Y021080D01*
X023259Y021107D01*
X023269Y021136D01*
X023275Y021166D01*
X023279Y021196D01*
X023279Y021226D01*
X023275Y021256D01*
X023269Y021286D01*
X023259Y021315D01*
X023246Y021342D01*
X023230Y021368D01*
X023211Y021392D01*
X023190Y021413D01*
X023215Y021442D01*
X023216Y021442D01*
X023240Y021418D01*
X023262Y021390D01*
X023280Y021361D01*
X023295Y021329D01*
X023306Y021297D01*
X023314Y021263D01*
X023318Y021228D01*
X023318Y021194D01*
X023314Y021159D01*
X023306Y021125D01*
X023295Y021093D01*
X023280Y021061D01*
X023262Y021032D01*
X023240Y021004D01*
X023216Y020980D01*
X023215Y020980D01*
X023239Y021005D01*
X023261Y021032D01*
X023279Y021062D01*
X023294Y021093D01*
X023305Y021126D01*
X023313Y021159D01*
X023317Y021194D01*
X023317Y021228D01*
X023313Y021263D01*
X023305Y021296D01*
X023294Y021329D01*
X023279Y021360D01*
X023261Y021390D01*
X023239Y021417D01*
X023215Y021442D01*
X023215Y021441D01*
X023239Y021416D01*
X023260Y021389D01*
X023278Y021360D01*
X023293Y021329D01*
X023304Y021296D01*
X023312Y021262D01*
X023316Y021228D01*
X023316Y021194D01*
X023312Y021160D01*
X023304Y021126D01*
X023293Y021093D01*
X023278Y021062D01*
X023260Y021033D01*
X023239Y021006D01*
X023215Y020981D01*
X023214Y020982D01*
X023238Y021006D01*
X023259Y021033D01*
X023277Y021063D01*
X023292Y021094D01*
X023303Y021126D01*
X023311Y021160D01*
X023315Y021194D01*
X023315Y021228D01*
X023311Y021262D01*
X023303Y021296D01*
X023292Y021328D01*
X023277Y021359D01*
X023259Y021389D01*
X023238Y021416D01*
X023214Y021440D01*
X023213Y021439D01*
X023237Y021415D01*
X023258Y021388D01*
X023276Y021359D01*
X023291Y021328D01*
X023302Y021296D01*
X023310Y021262D01*
X023314Y021228D01*
X023314Y021194D01*
X023310Y021160D01*
X023302Y021126D01*
X023291Y021094D01*
X023276Y021063D01*
X023258Y021034D01*
X023237Y021007D01*
X023213Y020983D01*
X023236Y021008D01*
X023258Y021035D01*
X023275Y021064D01*
X023290Y021094D01*
X023301Y021127D01*
X023309Y021160D01*
X023313Y021194D01*
X023313Y021228D01*
X023309Y021262D01*
X023301Y021295D01*
X023290Y021328D01*
X023275Y021358D01*
X023258Y021387D01*
X023236Y021414D01*
X023213Y021439D01*
X023212Y021438D01*
X023236Y021414D01*
X023257Y021387D01*
X023275Y021358D01*
X023289Y021327D01*
X023300Y021295D01*
X023308Y021262D01*
X023312Y021228D01*
X023312Y021194D01*
X023308Y021160D01*
X023300Y021127D01*
X023289Y021095D01*
X023275Y021064D01*
X023257Y021035D01*
X023236Y021008D01*
X023212Y020984D01*
X023211Y020985D01*
X023235Y021009D01*
X023256Y021036D01*
X023274Y021065D01*
X023288Y021095D01*
X023299Y021127D01*
X023307Y021160D01*
X023311Y021194D01*
X023311Y021228D01*
X023307Y021262D01*
X023299Y021295D01*
X023288Y021327D01*
X023274Y021357D01*
X023256Y021386D01*
X023235Y021413D01*
X023211Y021437D01*
X023211Y021436D01*
X023234Y021412D01*
X023255Y021386D01*
X023273Y021357D01*
X023287Y021326D01*
X023298Y021294D01*
X023306Y021261D01*
X023310Y021228D01*
X023310Y021194D01*
X023306Y021161D01*
X023298Y021128D01*
X023287Y021096D01*
X023273Y021065D01*
X023255Y021036D01*
X023234Y021010D01*
X023211Y020986D01*
X023210Y020986D01*
X023233Y021010D01*
X023254Y021037D01*
X023272Y021066D01*
X023286Y021096D01*
X023297Y021128D01*
X023305Y021161D01*
X023309Y021194D01*
X023309Y021228D01*
X023305Y021261D01*
X023297Y021294D01*
X023286Y021326D01*
X023272Y021356D01*
X023254Y021385D01*
X023233Y021412D01*
X023210Y021436D01*
X023209Y021435D01*
X023233Y021411D01*
X023253Y021384D01*
X023271Y021356D01*
X023285Y021326D01*
X023296Y021294D01*
X023304Y021261D01*
X023308Y021228D01*
X023308Y021194D01*
X023304Y021161D01*
X023296Y021128D01*
X023285Y021096D01*
X023271Y021066D01*
X023253Y021038D01*
X023233Y021011D01*
X023209Y020987D01*
X023209Y020988D01*
X023232Y021012D01*
X023253Y021038D01*
X023270Y021067D01*
X023285Y021097D01*
X023295Y021128D01*
X023303Y021161D01*
X023307Y021194D01*
X023307Y021228D01*
X023303Y021261D01*
X023295Y021294D01*
X023285Y021325D01*
X023270Y021355D01*
X023253Y021384D01*
X023232Y021410D01*
X023209Y021434D01*
X023208Y021433D01*
X023231Y021410D01*
X023252Y021383D01*
X023269Y021355D01*
X023284Y021325D01*
X023295Y021293D01*
X023302Y021261D01*
X023306Y021228D01*
X023306Y021194D01*
X023302Y021161D01*
X023295Y021129D01*
X023284Y021097D01*
X023269Y021067D01*
X023252Y021039D01*
X023231Y021012D01*
X023208Y020989D01*
X023207Y020989D01*
X023230Y021013D01*
X023251Y021039D01*
X023268Y021067D01*
X023283Y021098D01*
X023294Y021129D01*
X023301Y021161D01*
X023305Y021194D01*
X023305Y021228D01*
X023301Y021261D01*
X023294Y021293D01*
X023283Y021324D01*
X023268Y021355D01*
X023251Y021383D01*
X023230Y021409D01*
X023207Y021433D01*
X023206Y021432D01*
X023230Y021408D01*
X023250Y021382D01*
X023268Y021354D01*
X023282Y021324D01*
X023293Y021293D01*
X023300Y021260D01*
X023304Y021228D01*
X023304Y021194D01*
X023300Y021162D01*
X023293Y021129D01*
X023282Y021098D01*
X023268Y021068D01*
X023250Y021040D01*
X023230Y021014D01*
X023206Y020990D01*
X023206Y020991D01*
X023229Y021014D01*
X023249Y021040D01*
X023267Y021068D01*
X023281Y021098D01*
X023292Y021129D01*
X023299Y021162D01*
X023303Y021194D01*
X023303Y021228D01*
X023299Y021260D01*
X023292Y021293D01*
X023281Y021324D01*
X023267Y021354D01*
X023249Y021382D01*
X023229Y021408D01*
X023206Y021431D01*
X023205Y021430D01*
X023228Y021407D01*
X023249Y021381D01*
X023266Y021353D01*
X023280Y021323D01*
X023291Y021292D01*
X023298Y021260D01*
X023302Y021227D01*
X023302Y021195D01*
X023298Y021162D01*
X023291Y021130D01*
X023280Y021099D01*
X023266Y021069D01*
X023249Y021041D01*
X023228Y021015D01*
X023205Y020992D01*
X023204Y020992D01*
X023227Y021016D01*
X023248Y021042D01*
X023265Y021069D01*
X023279Y021099D01*
X023290Y021130D01*
X023297Y021162D01*
X023301Y021195D01*
X023301Y021227D01*
X023297Y021260D01*
X023290Y021292D01*
X023279Y021323D01*
X023265Y021353D01*
X023248Y021380D01*
X023227Y021406D01*
X023204Y021430D01*
X023204Y021429D01*
X023227Y021406D01*
X023247Y021380D01*
X023264Y021352D01*
X023278Y021323D01*
X023289Y021292D01*
X023296Y021260D01*
X023300Y021227D01*
X023300Y021195D01*
X023296Y021162D01*
X023289Y021130D01*
X023278Y021099D01*
X023264Y021070D01*
X023247Y021042D01*
X023227Y021016D01*
X023204Y020993D01*
X023203Y020994D01*
X023226Y021017D01*
X023246Y021043D01*
X023263Y021070D01*
X023277Y021100D01*
X023288Y021131D01*
X023295Y021162D01*
X023299Y021195D01*
X023299Y021227D01*
X023295Y021260D01*
X023288Y021291D01*
X023277Y021322D01*
X023263Y021352D01*
X023246Y021379D01*
X023226Y021405D01*
X023203Y021428D01*
X023202Y021427D01*
X023225Y021404D01*
X023245Y021379D01*
X023262Y021351D01*
X023276Y021322D01*
X023287Y021291D01*
X023294Y021259D01*
X023298Y021227D01*
X023298Y021195D01*
X023294Y021163D01*
X023287Y021131D01*
X023276Y021100D01*
X023262Y021071D01*
X023245Y021043D01*
X023225Y021018D01*
X023202Y020995D01*
X023224Y021018D01*
X023244Y021044D01*
X023261Y021071D01*
X023275Y021101D01*
X023286Y021131D01*
X023293Y021163D01*
X023297Y021195D01*
X023297Y021227D01*
X023293Y021259D01*
X023286Y021291D01*
X023275Y021321D01*
X023261Y021351D01*
X023244Y021378D01*
X023224Y021404D01*
X023202Y021427D01*
X023201Y021426D01*
X023224Y021403D01*
X023244Y021378D01*
X023261Y021350D01*
X023274Y021321D01*
X023285Y021291D01*
X023292Y021259D01*
X023296Y021227D01*
X023296Y021195D01*
X023292Y021163D01*
X023285Y021131D01*
X023274Y021101D01*
X023261Y021072D01*
X023244Y021044D01*
X023224Y021019D01*
X023201Y020996D01*
X023200Y020997D01*
X023223Y021020D01*
X023243Y021045D01*
X023260Y021072D01*
X023273Y021101D01*
X023284Y021132D01*
X023291Y021163D01*
X023295Y021195D01*
X023295Y021227D01*
X023291Y021259D01*
X023284Y021290D01*
X023273Y021321D01*
X023260Y021350D01*
X023243Y021377D01*
X023223Y021402D01*
X023200Y021425D01*
X023222Y021402D01*
X023242Y021376D01*
X023259Y021349D01*
X023273Y021320D01*
X023283Y021290D01*
X023290Y021259D01*
X023294Y021227D01*
X023294Y021195D01*
X023290Y021163D01*
X023283Y021132D01*
X023273Y021102D01*
X023259Y021073D01*
X023242Y021046D01*
X023222Y021020D01*
X023200Y020997D01*
X023199Y020998D01*
X023221Y021021D01*
X023241Y021046D01*
X023258Y021073D01*
X023272Y021102D01*
X023282Y021132D01*
X023289Y021163D01*
X023293Y021195D01*
X023293Y021227D01*
X023289Y021259D01*
X023282Y021290D01*
X023272Y021320D01*
X023258Y021349D01*
X023241Y021376D01*
X023221Y021401D01*
X023199Y021424D01*
X023198Y021423D01*
X023221Y021400D01*
X023240Y021375D01*
X023257Y021348D01*
X023271Y021320D01*
X023281Y021290D01*
X023288Y021258D01*
X023292Y021227D01*
X023292Y021195D01*
X023288Y021164D01*
X023281Y021132D01*
X023271Y021102D01*
X023257Y021074D01*
X023240Y021047D01*
X023221Y021022D01*
X023198Y020999D01*
X023198Y021000D01*
X023220Y021022D01*
X023239Y021047D01*
X023256Y021074D01*
X023270Y021103D01*
X023280Y021133D01*
X023287Y021164D01*
X023291Y021195D01*
X023291Y021227D01*
X023287Y021258D01*
X023280Y021289D01*
X023270Y021319D01*
X023256Y021348D01*
X023239Y021375D01*
X023220Y021400D01*
X023198Y021422D01*
X023197Y021422D01*
X023219Y021399D01*
X023239Y021374D01*
X023255Y021347D01*
X023269Y021319D01*
X023279Y021289D01*
X023286Y021258D01*
X023290Y021227D01*
X023290Y021195D01*
X023286Y021164D01*
X023279Y021133D01*
X023269Y021103D01*
X023255Y021075D01*
X023239Y021048D01*
X023219Y021023D01*
X023197Y021000D01*
X023196Y021001D01*
X023218Y021024D01*
X023238Y021048D01*
X023254Y021075D01*
X023268Y021104D01*
X023278Y021133D01*
X023285Y021164D01*
X023289Y021195D01*
X023289Y021227D01*
X023285Y021258D01*
X023278Y021289D01*
X023268Y021318D01*
X023254Y021347D01*
X023238Y021374D01*
X023218Y021398D01*
X023196Y021421D01*
X023196Y021420D01*
X023218Y021398D01*
X023237Y021373D01*
X023254Y021346D01*
X023267Y021318D01*
X023277Y021288D01*
X023284Y021258D01*
X023288Y021227D01*
X023288Y021195D01*
X023284Y021164D01*
X023277Y021134D01*
X023267Y021104D01*
X023254Y021076D01*
X023237Y021049D01*
X023218Y021024D01*
X023196Y021002D01*
X023195Y021003D01*
X023217Y021025D01*
X023236Y021050D01*
X023253Y021076D01*
X023266Y021104D01*
X023276Y021134D01*
X023283Y021164D01*
X023287Y021195D01*
X023287Y021227D01*
X023283Y021258D01*
X023276Y021288D01*
X023266Y021318D01*
X023253Y021346D01*
X023236Y021372D01*
X023217Y021397D01*
X023195Y021419D01*
X023194Y021419D01*
X023216Y021396D01*
X023235Y021372D01*
X023252Y021345D01*
X023265Y021317D01*
X023275Y021288D01*
X023282Y021257D01*
X023286Y021227D01*
X023286Y021195D01*
X023282Y021165D01*
X023275Y021134D01*
X023265Y021105D01*
X023252Y021077D01*
X023235Y021050D01*
X023216Y021026D01*
X023194Y021003D01*
X023194Y021004D01*
X023215Y021026D01*
X023235Y021051D01*
X023251Y021077D01*
X023264Y021105D01*
X023274Y021134D01*
X023281Y021165D01*
X023285Y021195D01*
X023285Y021227D01*
X023281Y021257D01*
X023274Y021288D01*
X023264Y021317D01*
X023251Y021345D01*
X023235Y021371D01*
X023215Y021396D01*
X023194Y021418D01*
X023193Y021417D01*
X023215Y021395D01*
X023234Y021371D01*
X023250Y021344D01*
X023263Y021317D01*
X023273Y021287D01*
X023280Y021257D01*
X023284Y021226D01*
X023284Y021196D01*
X023280Y021165D01*
X023273Y021135D01*
X023263Y021105D01*
X023250Y021078D01*
X023234Y021051D01*
X023215Y021027D01*
X023193Y021005D01*
X023192Y021006D01*
X023214Y021028D01*
X023233Y021052D01*
X023249Y021078D01*
X023262Y021106D01*
X023272Y021135D01*
X023279Y021165D01*
X023283Y021196D01*
X023283Y021226D01*
X023279Y021257D01*
X023272Y021287D01*
X023262Y021316D01*
X023249Y021344D01*
X023233Y021370D01*
X023214Y021394D01*
X023192Y021416D01*
X023213Y021394D01*
X023232Y021370D01*
X023248Y021343D01*
X023261Y021316D01*
X023271Y021287D01*
X023278Y021257D01*
X023282Y021226D01*
X023282Y021196D01*
X023278Y021165D01*
X023271Y021135D01*
X023261Y021106D01*
X023248Y021079D01*
X023232Y021052D01*
X023213Y021028D01*
X023192Y021006D01*
X023191Y021007D01*
X023212Y021029D01*
X023231Y021053D01*
X023247Y021079D01*
X023260Y021107D01*
X023270Y021136D01*
X023277Y021165D01*
X023281Y021196D01*
X023281Y021226D01*
X023277Y021257D01*
X023270Y021286D01*
X023260Y021315D01*
X023247Y021343D01*
X023231Y021369D01*
X023212Y021393D01*
X023191Y021415D01*
X023190Y021414D01*
X023212Y021392D01*
X023230Y021368D01*
X023247Y021343D01*
X023260Y021315D01*
X023270Y021286D01*
X023276Y021257D01*
X023280Y021226D01*
X023280Y021196D01*
X023276Y021165D01*
X023270Y021136D01*
X023260Y021107D01*
X023247Y021079D01*
X023230Y021054D01*
X023212Y021030D01*
X023190Y021008D01*
X022795Y021442D02*
X022821Y021413D01*
X022820Y021413D02*
X022799Y021392D01*
X022780Y021368D01*
X022764Y021342D01*
X022751Y021315D01*
X022741Y021286D01*
X022735Y021256D01*
X022731Y021226D01*
X022731Y021196D01*
X022735Y021166D01*
X022741Y021136D01*
X022751Y021107D01*
X022764Y021080D01*
X022780Y021054D01*
X022799Y021030D01*
X022820Y021009D01*
X022795Y020980D01*
X022794Y020980D01*
X022770Y021004D01*
X022748Y021032D01*
X022730Y021061D01*
X022715Y021093D01*
X022704Y021125D01*
X022696Y021159D01*
X022692Y021194D01*
X022692Y021228D01*
X022696Y021263D01*
X022704Y021297D01*
X022715Y021329D01*
X022730Y021361D01*
X022748Y021390D01*
X022770Y021418D01*
X022794Y021442D01*
X022795Y021442D01*
X022771Y021417D01*
X022749Y021390D01*
X022731Y021360D01*
X022716Y021329D01*
X022705Y021296D01*
X022697Y021263D01*
X022693Y021228D01*
X022693Y021194D01*
X022697Y021159D01*
X022705Y021126D01*
X022716Y021093D01*
X022731Y021062D01*
X022749Y021032D01*
X022771Y021005D01*
X022795Y020980D01*
X022795Y020981D01*
X022771Y021006D01*
X022750Y021033D01*
X022732Y021062D01*
X022717Y021093D01*
X022706Y021126D01*
X022698Y021160D01*
X022694Y021194D01*
X022694Y021228D01*
X022698Y021262D01*
X022706Y021296D01*
X022717Y021329D01*
X022732Y021360D01*
X022750Y021389D01*
X022771Y021416D01*
X022795Y021441D01*
X022796Y021440D01*
X022772Y021416D01*
X022751Y021389D01*
X022733Y021359D01*
X022718Y021328D01*
X022707Y021296D01*
X022699Y021262D01*
X022695Y021228D01*
X022695Y021194D01*
X022699Y021160D01*
X022707Y021126D01*
X022718Y021094D01*
X022733Y021063D01*
X022751Y021033D01*
X022772Y021006D01*
X022796Y020982D01*
X022797Y020983D01*
X022773Y021007D01*
X022752Y021034D01*
X022734Y021063D01*
X022719Y021094D01*
X022708Y021126D01*
X022700Y021160D01*
X022696Y021194D01*
X022696Y021228D01*
X022700Y021262D01*
X022708Y021296D01*
X022719Y021328D01*
X022734Y021359D01*
X022752Y021388D01*
X022773Y021415D01*
X022797Y021439D01*
X022774Y021414D01*
X022752Y021387D01*
X022735Y021358D01*
X022720Y021328D01*
X022709Y021295D01*
X022701Y021262D01*
X022697Y021228D01*
X022697Y021194D01*
X022701Y021160D01*
X022709Y021127D01*
X022720Y021094D01*
X022735Y021064D01*
X022752Y021035D01*
X022774Y021008D01*
X022797Y020983D01*
X022798Y020984D01*
X022774Y021008D01*
X022753Y021035D01*
X022735Y021064D01*
X022721Y021095D01*
X022710Y021127D01*
X022702Y021160D01*
X022698Y021194D01*
X022698Y021228D01*
X022702Y021262D01*
X022710Y021295D01*
X022721Y021327D01*
X022735Y021358D01*
X022753Y021387D01*
X022774Y021414D01*
X022798Y021438D01*
X022799Y021437D01*
X022775Y021413D01*
X022754Y021386D01*
X022736Y021357D01*
X022722Y021327D01*
X022711Y021295D01*
X022703Y021262D01*
X022699Y021228D01*
X022699Y021194D01*
X022703Y021160D01*
X022711Y021127D01*
X022722Y021095D01*
X022736Y021065D01*
X022754Y021036D01*
X022775Y021009D01*
X022799Y020985D01*
X022799Y020986D01*
X022776Y021010D01*
X022755Y021036D01*
X022737Y021065D01*
X022723Y021096D01*
X022712Y021128D01*
X022704Y021161D01*
X022700Y021194D01*
X022700Y021228D01*
X022704Y021261D01*
X022712Y021294D01*
X022723Y021326D01*
X022737Y021357D01*
X022755Y021386D01*
X022776Y021412D01*
X022799Y021436D01*
X022800Y021436D01*
X022777Y021412D01*
X022756Y021385D01*
X022738Y021356D01*
X022724Y021326D01*
X022713Y021294D01*
X022705Y021261D01*
X022701Y021228D01*
X022701Y021194D01*
X022705Y021161D01*
X022713Y021128D01*
X022724Y021096D01*
X022738Y021066D01*
X022756Y021037D01*
X022777Y021010D01*
X022800Y020986D01*
X022801Y020987D01*
X022777Y021011D01*
X022757Y021038D01*
X022739Y021066D01*
X022725Y021096D01*
X022714Y021128D01*
X022706Y021161D01*
X022702Y021194D01*
X022702Y021228D01*
X022706Y021261D01*
X022714Y021294D01*
X022725Y021326D01*
X022739Y021356D01*
X022757Y021384D01*
X022777Y021411D01*
X022801Y021435D01*
X022801Y021434D01*
X022778Y021410D01*
X022757Y021384D01*
X022740Y021355D01*
X022725Y021325D01*
X022715Y021294D01*
X022707Y021261D01*
X022703Y021228D01*
X022703Y021194D01*
X022707Y021161D01*
X022715Y021128D01*
X022725Y021097D01*
X022740Y021067D01*
X022757Y021038D01*
X022778Y021012D01*
X022801Y020988D01*
X022802Y020989D01*
X022779Y021012D01*
X022758Y021039D01*
X022741Y021067D01*
X022726Y021097D01*
X022715Y021129D01*
X022708Y021161D01*
X022704Y021194D01*
X022704Y021228D01*
X022708Y021261D01*
X022715Y021293D01*
X022726Y021325D01*
X022741Y021355D01*
X022758Y021383D01*
X022779Y021410D01*
X022802Y021433D01*
X022803Y021433D01*
X022780Y021409D01*
X022759Y021383D01*
X022742Y021355D01*
X022727Y021324D01*
X022716Y021293D01*
X022709Y021261D01*
X022705Y021228D01*
X022705Y021194D01*
X022709Y021161D01*
X022716Y021129D01*
X022727Y021098D01*
X022742Y021067D01*
X022759Y021039D01*
X022780Y021013D01*
X022803Y020989D01*
X022804Y020990D01*
X022780Y021014D01*
X022760Y021040D01*
X022742Y021068D01*
X022728Y021098D01*
X022717Y021129D01*
X022710Y021162D01*
X022706Y021194D01*
X022706Y021228D01*
X022710Y021260D01*
X022717Y021293D01*
X022728Y021324D01*
X022742Y021354D01*
X022760Y021382D01*
X022780Y021408D01*
X022804Y021432D01*
X022804Y021431D01*
X022781Y021408D01*
X022761Y021382D01*
X022743Y021354D01*
X022729Y021324D01*
X022718Y021293D01*
X022711Y021260D01*
X022707Y021228D01*
X022707Y021194D01*
X022711Y021162D01*
X022718Y021129D01*
X022729Y021098D01*
X022743Y021068D01*
X022761Y021040D01*
X022781Y021014D01*
X022804Y020991D01*
X022805Y020992D01*
X022782Y021015D01*
X022761Y021041D01*
X022744Y021069D01*
X022730Y021099D01*
X022719Y021130D01*
X022712Y021162D01*
X022708Y021195D01*
X022708Y021227D01*
X022712Y021260D01*
X022719Y021292D01*
X022730Y021323D01*
X022744Y021353D01*
X022761Y021381D01*
X022782Y021407D01*
X022805Y021430D01*
X022806Y021430D01*
X022783Y021406D01*
X022762Y021380D01*
X022745Y021353D01*
X022731Y021323D01*
X022720Y021292D01*
X022713Y021260D01*
X022709Y021227D01*
X022709Y021195D01*
X022713Y021162D01*
X022720Y021130D01*
X022731Y021099D01*
X022745Y021069D01*
X022762Y021042D01*
X022783Y021016D01*
X022806Y020992D01*
X022806Y020993D01*
X022783Y021016D01*
X022763Y021042D01*
X022746Y021070D01*
X022732Y021099D01*
X022721Y021130D01*
X022714Y021162D01*
X022710Y021195D01*
X022710Y021227D01*
X022714Y021260D01*
X022721Y021292D01*
X022732Y021323D01*
X022746Y021352D01*
X022763Y021380D01*
X022783Y021406D01*
X022806Y021429D01*
X022807Y021428D01*
X022784Y021405D01*
X022764Y021379D01*
X022747Y021352D01*
X022733Y021322D01*
X022722Y021291D01*
X022715Y021260D01*
X022711Y021227D01*
X022711Y021195D01*
X022715Y021162D01*
X022722Y021131D01*
X022733Y021100D01*
X022747Y021070D01*
X022764Y021043D01*
X022784Y021017D01*
X022807Y020994D01*
X022808Y020995D01*
X022785Y021018D01*
X022765Y021043D01*
X022748Y021071D01*
X022734Y021100D01*
X022723Y021131D01*
X022716Y021163D01*
X022712Y021195D01*
X022712Y021227D01*
X022716Y021259D01*
X022723Y021291D01*
X022734Y021322D01*
X022748Y021351D01*
X022765Y021379D01*
X022785Y021404D01*
X022808Y021427D01*
X022786Y021404D01*
X022766Y021378D01*
X022749Y021351D01*
X022735Y021321D01*
X022724Y021291D01*
X022717Y021259D01*
X022713Y021227D01*
X022713Y021195D01*
X022717Y021163D01*
X022724Y021131D01*
X022735Y021101D01*
X022749Y021071D01*
X022766Y021044D01*
X022786Y021018D01*
X022808Y020995D01*
X022809Y020996D01*
X022786Y021019D01*
X022766Y021044D01*
X022749Y021072D01*
X022736Y021101D01*
X022725Y021131D01*
X022718Y021163D01*
X022714Y021195D01*
X022714Y021227D01*
X022718Y021259D01*
X022725Y021291D01*
X022736Y021321D01*
X022749Y021350D01*
X022766Y021378D01*
X022786Y021403D01*
X022809Y021426D01*
X022810Y021425D01*
X022787Y021402D01*
X022767Y021377D01*
X022750Y021350D01*
X022737Y021321D01*
X022726Y021290D01*
X022719Y021259D01*
X022715Y021227D01*
X022715Y021195D01*
X022719Y021163D01*
X022726Y021132D01*
X022737Y021101D01*
X022750Y021072D01*
X022767Y021045D01*
X022787Y021020D01*
X022810Y020997D01*
X022788Y021020D01*
X022768Y021046D01*
X022751Y021073D01*
X022737Y021102D01*
X022727Y021132D01*
X022720Y021163D01*
X022716Y021195D01*
X022716Y021227D01*
X022720Y021259D01*
X022727Y021290D01*
X022737Y021320D01*
X022751Y021349D01*
X022768Y021376D01*
X022788Y021402D01*
X022810Y021425D01*
X022811Y021424D01*
X022789Y021401D01*
X022769Y021376D01*
X022752Y021349D01*
X022738Y021320D01*
X022728Y021290D01*
X022721Y021259D01*
X022717Y021227D01*
X022717Y021195D01*
X022721Y021163D01*
X022728Y021132D01*
X022738Y021102D01*
X022752Y021073D01*
X022769Y021046D01*
X022789Y021021D01*
X022811Y020998D01*
X022812Y020999D01*
X022789Y021022D01*
X022770Y021047D01*
X022753Y021074D01*
X022739Y021102D01*
X022729Y021132D01*
X022722Y021164D01*
X022718Y021195D01*
X022718Y021227D01*
X022722Y021258D01*
X022729Y021290D01*
X022739Y021320D01*
X022753Y021348D01*
X022770Y021375D01*
X022789Y021400D01*
X022812Y021423D01*
X022812Y021422D01*
X022790Y021400D01*
X022771Y021375D01*
X022754Y021348D01*
X022740Y021319D01*
X022730Y021289D01*
X022723Y021258D01*
X022719Y021227D01*
X022719Y021195D01*
X022723Y021164D01*
X022730Y021133D01*
X022740Y021103D01*
X022754Y021074D01*
X022771Y021047D01*
X022790Y021022D01*
X022812Y021000D01*
X022813Y021000D01*
X022791Y021023D01*
X022771Y021048D01*
X022755Y021075D01*
X022741Y021103D01*
X022731Y021133D01*
X022724Y021164D01*
X022720Y021195D01*
X022720Y021227D01*
X022724Y021258D01*
X022731Y021289D01*
X022741Y021319D01*
X022755Y021347D01*
X022771Y021374D01*
X022791Y021399D01*
X022813Y021422D01*
X022814Y021421D01*
X022792Y021398D01*
X022772Y021374D01*
X022756Y021347D01*
X022742Y021318D01*
X022732Y021289D01*
X022725Y021258D01*
X022721Y021227D01*
X022721Y021195D01*
X022725Y021164D01*
X022732Y021133D01*
X022742Y021104D01*
X022756Y021075D01*
X022772Y021048D01*
X022792Y021024D01*
X022814Y021001D01*
X022814Y021002D01*
X022792Y021024D01*
X022773Y021049D01*
X022756Y021076D01*
X022743Y021104D01*
X022733Y021134D01*
X022726Y021164D01*
X022722Y021195D01*
X022722Y021227D01*
X022726Y021258D01*
X022733Y021288D01*
X022743Y021318D01*
X022756Y021346D01*
X022773Y021373D01*
X022792Y021398D01*
X022814Y021420D01*
X022815Y021419D01*
X022793Y021397D01*
X022774Y021372D01*
X022757Y021346D01*
X022744Y021318D01*
X022734Y021288D01*
X022727Y021258D01*
X022723Y021227D01*
X022723Y021195D01*
X022727Y021164D01*
X022734Y021134D01*
X022744Y021104D01*
X022757Y021076D01*
X022774Y021050D01*
X022793Y021025D01*
X022815Y021003D01*
X022816Y021003D01*
X022794Y021026D01*
X022775Y021050D01*
X022758Y021077D01*
X022745Y021105D01*
X022735Y021134D01*
X022728Y021165D01*
X022724Y021195D01*
X022724Y021227D01*
X022728Y021257D01*
X022735Y021288D01*
X022745Y021317D01*
X022758Y021345D01*
X022775Y021372D01*
X022794Y021396D01*
X022816Y021419D01*
X022816Y021418D01*
X022795Y021396D01*
X022775Y021371D01*
X022759Y021345D01*
X022746Y021317D01*
X022736Y021288D01*
X022729Y021257D01*
X022725Y021227D01*
X022725Y021195D01*
X022729Y021165D01*
X022736Y021134D01*
X022746Y021105D01*
X022759Y021077D01*
X022775Y021051D01*
X022795Y021026D01*
X022816Y021004D01*
X022817Y021005D01*
X022795Y021027D01*
X022776Y021051D01*
X022760Y021078D01*
X022747Y021105D01*
X022737Y021135D01*
X022730Y021165D01*
X022726Y021196D01*
X022726Y021226D01*
X022730Y021257D01*
X022737Y021287D01*
X022747Y021317D01*
X022760Y021344D01*
X022776Y021371D01*
X022795Y021395D01*
X022817Y021417D01*
X022818Y021416D01*
X022796Y021394D01*
X022777Y021370D01*
X022761Y021344D01*
X022748Y021316D01*
X022738Y021287D01*
X022731Y021257D01*
X022727Y021226D01*
X022727Y021196D01*
X022731Y021165D01*
X022738Y021135D01*
X022748Y021106D01*
X022761Y021078D01*
X022777Y021052D01*
X022796Y021028D01*
X022818Y021006D01*
X022797Y021028D01*
X022778Y021052D01*
X022762Y021079D01*
X022749Y021106D01*
X022739Y021135D01*
X022732Y021165D01*
X022728Y021196D01*
X022728Y021226D01*
X022732Y021257D01*
X022739Y021287D01*
X022749Y021316D01*
X022762Y021343D01*
X022778Y021370D01*
X022797Y021394D01*
X022818Y021416D01*
X022819Y021415D01*
X022798Y021393D01*
X022779Y021369D01*
X022763Y021343D01*
X022750Y021315D01*
X022740Y021286D01*
X022733Y021257D01*
X022729Y021226D01*
X022729Y021196D01*
X022733Y021165D01*
X022740Y021136D01*
X022750Y021107D01*
X022763Y021079D01*
X022779Y021053D01*
X022798Y021029D01*
X022819Y021007D01*
X022820Y021008D01*
X022798Y021030D01*
X022780Y021054D01*
X022763Y021079D01*
X022750Y021107D01*
X022740Y021136D01*
X022734Y021165D01*
X022730Y021196D01*
X022730Y021226D01*
X022734Y021257D01*
X022740Y021286D01*
X022750Y021315D01*
X022763Y021343D01*
X022780Y021368D01*
X022798Y021392D01*
X022820Y021414D01*
X021837Y020980D02*
X021811Y021009D01*
X021812Y021009D02*
X021833Y021030D01*
X021852Y021054D01*
X021868Y021080D01*
X021881Y021107D01*
X021891Y021136D01*
X021897Y021166D01*
X021901Y021196D01*
X021901Y021226D01*
X021897Y021256D01*
X021891Y021286D01*
X021881Y021315D01*
X021868Y021342D01*
X021852Y021368D01*
X021833Y021392D01*
X021812Y021413D01*
X021837Y021442D01*
X021838Y021442D01*
X021862Y021418D01*
X021884Y021390D01*
X021902Y021361D01*
X021917Y021329D01*
X021928Y021297D01*
X021936Y021263D01*
X021940Y021228D01*
X021940Y021194D01*
X021936Y021159D01*
X021928Y021125D01*
X021917Y021093D01*
X021902Y021061D01*
X021884Y021032D01*
X021862Y021004D01*
X021838Y020980D01*
X021837Y020980D01*
X021861Y021005D01*
X021883Y021032D01*
X021901Y021062D01*
X021916Y021093D01*
X021927Y021126D01*
X021935Y021159D01*
X021939Y021194D01*
X021939Y021228D01*
X021935Y021263D01*
X021927Y021296D01*
X021916Y021329D01*
X021901Y021360D01*
X021883Y021390D01*
X021861Y021417D01*
X021837Y021442D01*
X021837Y021441D01*
X021861Y021416D01*
X021882Y021389D01*
X021900Y021360D01*
X021915Y021329D01*
X021926Y021296D01*
X021934Y021262D01*
X021938Y021228D01*
X021938Y021194D01*
X021934Y021160D01*
X021926Y021126D01*
X021915Y021093D01*
X021900Y021062D01*
X021882Y021033D01*
X021861Y021006D01*
X021837Y020981D01*
X021836Y020982D01*
X021860Y021006D01*
X021881Y021033D01*
X021899Y021063D01*
X021914Y021094D01*
X021925Y021126D01*
X021933Y021160D01*
X021937Y021194D01*
X021937Y021228D01*
X021933Y021262D01*
X021925Y021296D01*
X021914Y021328D01*
X021899Y021359D01*
X021881Y021389D01*
X021860Y021416D01*
X021836Y021440D01*
X021835Y021439D01*
X021859Y021415D01*
X021880Y021388D01*
X021898Y021359D01*
X021913Y021328D01*
X021924Y021296D01*
X021932Y021262D01*
X021936Y021228D01*
X021936Y021194D01*
X021932Y021160D01*
X021924Y021126D01*
X021913Y021094D01*
X021898Y021063D01*
X021880Y021034D01*
X021859Y021007D01*
X021835Y020983D01*
X021858Y021008D01*
X021880Y021035D01*
X021897Y021064D01*
X021912Y021094D01*
X021923Y021127D01*
X021931Y021160D01*
X021935Y021194D01*
X021935Y021228D01*
X021931Y021262D01*
X021923Y021295D01*
X021912Y021328D01*
X021897Y021358D01*
X021880Y021387D01*
X021858Y021414D01*
X021835Y021439D01*
X021834Y021438D01*
X021858Y021414D01*
X021879Y021387D01*
X021897Y021358D01*
X021911Y021327D01*
X021922Y021295D01*
X021930Y021262D01*
X021934Y021228D01*
X021934Y021194D01*
X021930Y021160D01*
X021922Y021127D01*
X021911Y021095D01*
X021897Y021064D01*
X021879Y021035D01*
X021858Y021008D01*
X021834Y020984D01*
X021833Y020985D01*
X021857Y021009D01*
X021878Y021036D01*
X021896Y021065D01*
X021910Y021095D01*
X021921Y021127D01*
X021929Y021160D01*
X021933Y021194D01*
X021933Y021228D01*
X021929Y021262D01*
X021921Y021295D01*
X021910Y021327D01*
X021896Y021357D01*
X021878Y021386D01*
X021857Y021413D01*
X021833Y021437D01*
X021833Y021436D01*
X021856Y021412D01*
X021877Y021386D01*
X021895Y021357D01*
X021909Y021326D01*
X021920Y021294D01*
X021928Y021261D01*
X021932Y021228D01*
X021932Y021194D01*
X021928Y021161D01*
X021920Y021128D01*
X021909Y021096D01*
X021895Y021065D01*
X021877Y021036D01*
X021856Y021010D01*
X021833Y020986D01*
X021832Y020986D01*
X021855Y021010D01*
X021876Y021037D01*
X021894Y021066D01*
X021908Y021096D01*
X021919Y021128D01*
X021927Y021161D01*
X021931Y021194D01*
X021931Y021228D01*
X021927Y021261D01*
X021919Y021294D01*
X021908Y021326D01*
X021894Y021356D01*
X021876Y021385D01*
X021855Y021412D01*
X021832Y021436D01*
X021831Y021435D01*
X021855Y021411D01*
X021875Y021384D01*
X021893Y021356D01*
X021907Y021326D01*
X021918Y021294D01*
X021926Y021261D01*
X021930Y021228D01*
X021930Y021194D01*
X021926Y021161D01*
X021918Y021128D01*
X021907Y021096D01*
X021893Y021066D01*
X021875Y021038D01*
X021855Y021011D01*
X021831Y020987D01*
X021831Y020988D01*
X021854Y021012D01*
X021875Y021038D01*
X021892Y021067D01*
X021907Y021097D01*
X021917Y021128D01*
X021925Y021161D01*
X021929Y021194D01*
X021929Y021228D01*
X021925Y021261D01*
X021917Y021294D01*
X021907Y021325D01*
X021892Y021355D01*
X021875Y021384D01*
X021854Y021410D01*
X021831Y021434D01*
X021830Y021433D01*
X021853Y021410D01*
X021874Y021383D01*
X021891Y021355D01*
X021906Y021325D01*
X021917Y021293D01*
X021924Y021261D01*
X021928Y021228D01*
X021928Y021194D01*
X021924Y021161D01*
X021917Y021129D01*
X021906Y021097D01*
X021891Y021067D01*
X021874Y021039D01*
X021853Y021012D01*
X021830Y020989D01*
X021829Y020989D01*
X021852Y021013D01*
X021873Y021039D01*
X021890Y021067D01*
X021905Y021098D01*
X021916Y021129D01*
X021923Y021161D01*
X021927Y021194D01*
X021927Y021228D01*
X021923Y021261D01*
X021916Y021293D01*
X021905Y021324D01*
X021890Y021355D01*
X021873Y021383D01*
X021852Y021409D01*
X021829Y021433D01*
X021828Y021432D01*
X021852Y021408D01*
X021872Y021382D01*
X021890Y021354D01*
X021904Y021324D01*
X021915Y021293D01*
X021922Y021260D01*
X021926Y021228D01*
X021926Y021194D01*
X021922Y021162D01*
X021915Y021129D01*
X021904Y021098D01*
X021890Y021068D01*
X021872Y021040D01*
X021852Y021014D01*
X021828Y020990D01*
X021828Y020991D01*
X021851Y021014D01*
X021871Y021040D01*
X021889Y021068D01*
X021903Y021098D01*
X021914Y021129D01*
X021921Y021162D01*
X021925Y021194D01*
X021925Y021228D01*
X021921Y021260D01*
X021914Y021293D01*
X021903Y021324D01*
X021889Y021354D01*
X021871Y021382D01*
X021851Y021408D01*
X021828Y021431D01*
X021827Y021430D01*
X021850Y021407D01*
X021871Y021381D01*
X021888Y021353D01*
X021902Y021323D01*
X021913Y021292D01*
X021920Y021260D01*
X021924Y021227D01*
X021924Y021195D01*
X021920Y021162D01*
X021913Y021130D01*
X021902Y021099D01*
X021888Y021069D01*
X021871Y021041D01*
X021850Y021015D01*
X021827Y020992D01*
X021826Y020992D01*
X021849Y021016D01*
X021870Y021042D01*
X021887Y021069D01*
X021901Y021099D01*
X021912Y021130D01*
X021919Y021162D01*
X021923Y021195D01*
X021923Y021227D01*
X021919Y021260D01*
X021912Y021292D01*
X021901Y021323D01*
X021887Y021353D01*
X021870Y021380D01*
X021849Y021406D01*
X021826Y021430D01*
X021826Y021429D01*
X021849Y021406D01*
X021869Y021380D01*
X021886Y021352D01*
X021900Y021323D01*
X021911Y021292D01*
X021918Y021260D01*
X021922Y021227D01*
X021922Y021195D01*
X021918Y021162D01*
X021911Y021130D01*
X021900Y021099D01*
X021886Y021070D01*
X021869Y021042D01*
X021849Y021016D01*
X021826Y020993D01*
X021825Y020994D01*
X021848Y021017D01*
X021868Y021043D01*
X021885Y021070D01*
X021899Y021100D01*
X021910Y021131D01*
X021917Y021162D01*
X021921Y021195D01*
X021921Y021227D01*
X021917Y021260D01*
X021910Y021291D01*
X021899Y021322D01*
X021885Y021352D01*
X021868Y021379D01*
X021848Y021405D01*
X021825Y021428D01*
X021824Y021427D01*
X021847Y021404D01*
X021867Y021379D01*
X021884Y021351D01*
X021898Y021322D01*
X021909Y021291D01*
X021916Y021259D01*
X021920Y021227D01*
X021920Y021195D01*
X021916Y021163D01*
X021909Y021131D01*
X021898Y021100D01*
X021884Y021071D01*
X021867Y021043D01*
X021847Y021018D01*
X021824Y020995D01*
X021846Y021018D01*
X021866Y021044D01*
X021883Y021071D01*
X021897Y021101D01*
X021908Y021131D01*
X021915Y021163D01*
X021919Y021195D01*
X021919Y021227D01*
X021915Y021259D01*
X021908Y021291D01*
X021897Y021321D01*
X021883Y021351D01*
X021866Y021378D01*
X021846Y021404D01*
X021824Y021427D01*
X021823Y021426D01*
X021846Y021403D01*
X021866Y021378D01*
X021883Y021350D01*
X021896Y021321D01*
X021907Y021291D01*
X021914Y021259D01*
X021918Y021227D01*
X021918Y021195D01*
X021914Y021163D01*
X021907Y021131D01*
X021896Y021101D01*
X021883Y021072D01*
X021866Y021044D01*
X021846Y021019D01*
X021823Y020996D01*
X021822Y020997D01*
X021845Y021020D01*
X021865Y021045D01*
X021882Y021072D01*
X021895Y021101D01*
X021906Y021132D01*
X021913Y021163D01*
X021917Y021195D01*
X021917Y021227D01*
X021913Y021259D01*
X021906Y021290D01*
X021895Y021321D01*
X021882Y021350D01*
X021865Y021377D01*
X021845Y021402D01*
X021822Y021425D01*
X021844Y021402D01*
X021864Y021376D01*
X021881Y021349D01*
X021895Y021320D01*
X021905Y021290D01*
X021912Y021259D01*
X021916Y021227D01*
X021916Y021195D01*
X021912Y021163D01*
X021905Y021132D01*
X021895Y021102D01*
X021881Y021073D01*
X021864Y021046D01*
X021844Y021020D01*
X021822Y020997D01*
X021821Y020998D01*
X021843Y021021D01*
X021863Y021046D01*
X021880Y021073D01*
X021894Y021102D01*
X021904Y021132D01*
X021911Y021163D01*
X021915Y021195D01*
X021915Y021227D01*
X021911Y021259D01*
X021904Y021290D01*
X021894Y021320D01*
X021880Y021349D01*
X021863Y021376D01*
X021843Y021401D01*
X021821Y021424D01*
X021820Y021423D01*
X021843Y021400D01*
X021862Y021375D01*
X021879Y021348D01*
X021893Y021320D01*
X021903Y021290D01*
X021910Y021258D01*
X021914Y021227D01*
X021914Y021195D01*
X021910Y021164D01*
X021903Y021132D01*
X021893Y021102D01*
X021879Y021074D01*
X021862Y021047D01*
X021843Y021022D01*
X021820Y020999D01*
X021820Y021000D01*
X021842Y021022D01*
X021861Y021047D01*
X021878Y021074D01*
X021892Y021103D01*
X021902Y021133D01*
X021909Y021164D01*
X021913Y021195D01*
X021913Y021227D01*
X021909Y021258D01*
X021902Y021289D01*
X021892Y021319D01*
X021878Y021348D01*
X021861Y021375D01*
X021842Y021400D01*
X021820Y021422D01*
X021819Y021422D01*
X021841Y021399D01*
X021861Y021374D01*
X021877Y021347D01*
X021891Y021319D01*
X021901Y021289D01*
X021908Y021258D01*
X021912Y021227D01*
X021912Y021195D01*
X021908Y021164D01*
X021901Y021133D01*
X021891Y021103D01*
X021877Y021075D01*
X021861Y021048D01*
X021841Y021023D01*
X021819Y021000D01*
X021818Y021001D01*
X021840Y021024D01*
X021860Y021048D01*
X021876Y021075D01*
X021890Y021104D01*
X021900Y021133D01*
X021907Y021164D01*
X021911Y021195D01*
X021911Y021227D01*
X021907Y021258D01*
X021900Y021289D01*
X021890Y021318D01*
X021876Y021347D01*
X021860Y021374D01*
X021840Y021398D01*
X021818Y021421D01*
X021818Y021420D01*
X021840Y021398D01*
X021859Y021373D01*
X021876Y021346D01*
X021889Y021318D01*
X021899Y021288D01*
X021906Y021258D01*
X021910Y021227D01*
X021910Y021195D01*
X021906Y021164D01*
X021899Y021134D01*
X021889Y021104D01*
X021876Y021076D01*
X021859Y021049D01*
X021840Y021024D01*
X021818Y021002D01*
X021817Y021003D01*
X021839Y021025D01*
X021858Y021050D01*
X021875Y021076D01*
X021888Y021104D01*
X021898Y021134D01*
X021905Y021164D01*
X021909Y021195D01*
X021909Y021227D01*
X021905Y021258D01*
X021898Y021288D01*
X021888Y021318D01*
X021875Y021346D01*
X021858Y021372D01*
X021839Y021397D01*
X021817Y021419D01*
X021816Y021419D01*
X021838Y021396D01*
X021857Y021372D01*
X021874Y021345D01*
X021887Y021317D01*
X021897Y021288D01*
X021904Y021257D01*
X021908Y021227D01*
X021908Y021195D01*
X021904Y021165D01*
X021897Y021134D01*
X021887Y021105D01*
X021874Y021077D01*
X021857Y021050D01*
X021838Y021026D01*
X021816Y021003D01*
X021816Y021004D01*
X021837Y021026D01*
X021857Y021051D01*
X021873Y021077D01*
X021886Y021105D01*
X021896Y021134D01*
X021903Y021165D01*
X021907Y021195D01*
X021907Y021227D01*
X021903Y021257D01*
X021896Y021288D01*
X021886Y021317D01*
X021873Y021345D01*
X021857Y021371D01*
X021837Y021396D01*
X021816Y021418D01*
X021815Y021417D01*
X021837Y021395D01*
X021856Y021371D01*
X021872Y021344D01*
X021885Y021317D01*
X021895Y021287D01*
X021902Y021257D01*
X021906Y021226D01*
X021906Y021196D01*
X021902Y021165D01*
X021895Y021135D01*
X021885Y021105D01*
X021872Y021078D01*
X021856Y021051D01*
X021837Y021027D01*
X021815Y021005D01*
X021814Y021006D01*
X021836Y021028D01*
X021855Y021052D01*
X021871Y021078D01*
X021884Y021106D01*
X021894Y021135D01*
X021901Y021165D01*
X021905Y021196D01*
X021905Y021226D01*
X021901Y021257D01*
X021894Y021287D01*
X021884Y021316D01*
X021871Y021344D01*
X021855Y021370D01*
X021836Y021394D01*
X021814Y021416D01*
X021835Y021394D01*
X021854Y021370D01*
X021870Y021343D01*
X021883Y021316D01*
X021893Y021287D01*
X021900Y021257D01*
X021904Y021226D01*
X021904Y021196D01*
X021900Y021165D01*
X021893Y021135D01*
X021883Y021106D01*
X021870Y021079D01*
X021854Y021052D01*
X021835Y021028D01*
X021814Y021006D01*
X021813Y021007D01*
X021834Y021029D01*
X021853Y021053D01*
X021869Y021079D01*
X021882Y021107D01*
X021892Y021136D01*
X021899Y021165D01*
X021903Y021196D01*
X021903Y021226D01*
X021899Y021257D01*
X021892Y021286D01*
X021882Y021315D01*
X021869Y021343D01*
X021853Y021369D01*
X021834Y021393D01*
X021813Y021415D01*
X021812Y021414D01*
X021834Y021392D01*
X021852Y021368D01*
X021869Y021343D01*
X021882Y021315D01*
X021892Y021286D01*
X021898Y021257D01*
X021902Y021226D01*
X021902Y021196D01*
X021898Y021165D01*
X021892Y021136D01*
X021882Y021107D01*
X021869Y021079D01*
X021852Y021054D01*
X021834Y021030D01*
X021812Y021008D01*
X021417Y021442D02*
X021443Y021413D01*
X021442Y021413D02*
X021421Y021392D01*
X021402Y021368D01*
X021386Y021342D01*
X021373Y021315D01*
X021363Y021286D01*
X021357Y021256D01*
X021353Y021226D01*
X021353Y021196D01*
X021357Y021166D01*
X021363Y021136D01*
X021373Y021107D01*
X021386Y021080D01*
X021402Y021054D01*
X021421Y021030D01*
X021442Y021009D01*
X021417Y020980D01*
X021416Y020980D01*
X021392Y021004D01*
X021370Y021032D01*
X021352Y021061D01*
X021337Y021093D01*
X021326Y021125D01*
X021318Y021159D01*
X021314Y021194D01*
X021314Y021228D01*
X021318Y021263D01*
X021326Y021297D01*
X021337Y021329D01*
X021352Y021361D01*
X021370Y021390D01*
X021392Y021418D01*
X021416Y021442D01*
X021417Y021442D01*
X021393Y021417D01*
X021371Y021390D01*
X021353Y021360D01*
X021338Y021329D01*
X021327Y021296D01*
X021319Y021263D01*
X021315Y021228D01*
X021315Y021194D01*
X021319Y021159D01*
X021327Y021126D01*
X021338Y021093D01*
X021353Y021062D01*
X021371Y021032D01*
X021393Y021005D01*
X021417Y020980D01*
X021417Y020981D01*
X021393Y021006D01*
X021372Y021033D01*
X021354Y021062D01*
X021339Y021093D01*
X021328Y021126D01*
X021320Y021160D01*
X021316Y021194D01*
X021316Y021228D01*
X021320Y021262D01*
X021328Y021296D01*
X021339Y021329D01*
X021354Y021360D01*
X021372Y021389D01*
X021393Y021416D01*
X021417Y021441D01*
X021418Y021440D01*
X021394Y021416D01*
X021373Y021389D01*
X021355Y021359D01*
X021340Y021328D01*
X021329Y021296D01*
X021321Y021262D01*
X021317Y021228D01*
X021317Y021194D01*
X021321Y021160D01*
X021329Y021126D01*
X021340Y021094D01*
X021355Y021063D01*
X021373Y021033D01*
X021394Y021006D01*
X021418Y020982D01*
X021419Y020983D01*
X021395Y021007D01*
X021374Y021034D01*
X021356Y021063D01*
X021341Y021094D01*
X021330Y021126D01*
X021322Y021160D01*
X021318Y021194D01*
X021318Y021228D01*
X021322Y021262D01*
X021330Y021296D01*
X021341Y021328D01*
X021356Y021359D01*
X021374Y021388D01*
X021395Y021415D01*
X021419Y021439D01*
X021396Y021414D01*
X021374Y021387D01*
X021357Y021358D01*
X021342Y021328D01*
X021331Y021295D01*
X021323Y021262D01*
X021319Y021228D01*
X021319Y021194D01*
X021323Y021160D01*
X021331Y021127D01*
X021342Y021094D01*
X021357Y021064D01*
X021374Y021035D01*
X021396Y021008D01*
X021419Y020983D01*
X021420Y020984D01*
X021396Y021008D01*
X021375Y021035D01*
X021357Y021064D01*
X021343Y021095D01*
X021332Y021127D01*
X021324Y021160D01*
X021320Y021194D01*
X021320Y021228D01*
X021324Y021262D01*
X021332Y021295D01*
X021343Y021327D01*
X021357Y021358D01*
X021375Y021387D01*
X021396Y021414D01*
X021420Y021438D01*
X021421Y021437D01*
X021397Y021413D01*
X021376Y021386D01*
X021358Y021357D01*
X021344Y021327D01*
X021333Y021295D01*
X021325Y021262D01*
X021321Y021228D01*
X021321Y021194D01*
X021325Y021160D01*
X021333Y021127D01*
X021344Y021095D01*
X021358Y021065D01*
X021376Y021036D01*
X021397Y021009D01*
X021421Y020985D01*
X021421Y020986D01*
X021398Y021010D01*
X021377Y021036D01*
X021359Y021065D01*
X021345Y021096D01*
X021334Y021128D01*
X021326Y021161D01*
X021322Y021194D01*
X021322Y021228D01*
X021326Y021261D01*
X021334Y021294D01*
X021345Y021326D01*
X021359Y021357D01*
X021377Y021386D01*
X021398Y021412D01*
X021421Y021436D01*
X021422Y021436D01*
X021399Y021412D01*
X021378Y021385D01*
X021360Y021356D01*
X021346Y021326D01*
X021335Y021294D01*
X021327Y021261D01*
X021323Y021228D01*
X021323Y021194D01*
X021327Y021161D01*
X021335Y021128D01*
X021346Y021096D01*
X021360Y021066D01*
X021378Y021037D01*
X021399Y021010D01*
X021422Y020986D01*
X021423Y020987D01*
X021399Y021011D01*
X021379Y021038D01*
X021361Y021066D01*
X021347Y021096D01*
X021336Y021128D01*
X021328Y021161D01*
X021324Y021194D01*
X021324Y021228D01*
X021328Y021261D01*
X021336Y021294D01*
X021347Y021326D01*
X021361Y021356D01*
X021379Y021384D01*
X021399Y021411D01*
X021423Y021435D01*
X021423Y021434D01*
X021400Y021410D01*
X021379Y021384D01*
X021362Y021355D01*
X021347Y021325D01*
X021337Y021294D01*
X021329Y021261D01*
X021325Y021228D01*
X021325Y021194D01*
X021329Y021161D01*
X021337Y021128D01*
X021347Y021097D01*
X021362Y021067D01*
X021379Y021038D01*
X021400Y021012D01*
X021423Y020988D01*
X021424Y020989D01*
X021401Y021012D01*
X021380Y021039D01*
X021363Y021067D01*
X021348Y021097D01*
X021337Y021129D01*
X021330Y021161D01*
X021326Y021194D01*
X021326Y021228D01*
X021330Y021261D01*
X021337Y021293D01*
X021348Y021325D01*
X021363Y021355D01*
X021380Y021383D01*
X021401Y021410D01*
X021424Y021433D01*
X021425Y021433D01*
X021402Y021409D01*
X021381Y021383D01*
X021364Y021355D01*
X021349Y021324D01*
X021338Y021293D01*
X021331Y021261D01*
X021327Y021228D01*
X021327Y021194D01*
X021331Y021161D01*
X021338Y021129D01*
X021349Y021098D01*
X021364Y021067D01*
X021381Y021039D01*
X021402Y021013D01*
X021425Y020989D01*
X021426Y020990D01*
X021402Y021014D01*
X021382Y021040D01*
X021364Y021068D01*
X021350Y021098D01*
X021339Y021129D01*
X021332Y021162D01*
X021328Y021194D01*
X021328Y021228D01*
X021332Y021260D01*
X021339Y021293D01*
X021350Y021324D01*
X021364Y021354D01*
X021382Y021382D01*
X021402Y021408D01*
X021426Y021432D01*
X021426Y021431D01*
X021403Y021408D01*
X021383Y021382D01*
X021365Y021354D01*
X021351Y021324D01*
X021340Y021293D01*
X021333Y021260D01*
X021329Y021228D01*
X021329Y021194D01*
X021333Y021162D01*
X021340Y021129D01*
X021351Y021098D01*
X021365Y021068D01*
X021383Y021040D01*
X021403Y021014D01*
X021426Y020991D01*
X021427Y020992D01*
X021404Y021015D01*
X021383Y021041D01*
X021366Y021069D01*
X021352Y021099D01*
X021341Y021130D01*
X021334Y021162D01*
X021330Y021195D01*
X021330Y021227D01*
X021334Y021260D01*
X021341Y021292D01*
X021352Y021323D01*
X021366Y021353D01*
X021383Y021381D01*
X021404Y021407D01*
X021427Y021430D01*
X021428Y021430D01*
X021405Y021406D01*
X021384Y021380D01*
X021367Y021353D01*
X021353Y021323D01*
X021342Y021292D01*
X021335Y021260D01*
X021331Y021227D01*
X021331Y021195D01*
X021335Y021162D01*
X021342Y021130D01*
X021353Y021099D01*
X021367Y021069D01*
X021384Y021042D01*
X021405Y021016D01*
X021428Y020992D01*
X021428Y020993D01*
X021405Y021016D01*
X021385Y021042D01*
X021368Y021070D01*
X021354Y021099D01*
X021343Y021130D01*
X021336Y021162D01*
X021332Y021195D01*
X021332Y021227D01*
X021336Y021260D01*
X021343Y021292D01*
X021354Y021323D01*
X021368Y021352D01*
X021385Y021380D01*
X021405Y021406D01*
X021428Y021429D01*
X021429Y021428D01*
X021406Y021405D01*
X021386Y021379D01*
X021369Y021352D01*
X021355Y021322D01*
X021344Y021291D01*
X021337Y021260D01*
X021333Y021227D01*
X021333Y021195D01*
X021337Y021162D01*
X021344Y021131D01*
X021355Y021100D01*
X021369Y021070D01*
X021386Y021043D01*
X021406Y021017D01*
X021429Y020994D01*
X021430Y020995D01*
X021407Y021018D01*
X021387Y021043D01*
X021370Y021071D01*
X021356Y021100D01*
X021345Y021131D01*
X021338Y021163D01*
X021334Y021195D01*
X021334Y021227D01*
X021338Y021259D01*
X021345Y021291D01*
X021356Y021322D01*
X021370Y021351D01*
X021387Y021379D01*
X021407Y021404D01*
X021430Y021427D01*
X021408Y021404D01*
X021388Y021378D01*
X021371Y021351D01*
X021357Y021321D01*
X021346Y021291D01*
X021339Y021259D01*
X021335Y021227D01*
X021335Y021195D01*
X021339Y021163D01*
X021346Y021131D01*
X021357Y021101D01*
X021371Y021071D01*
X021388Y021044D01*
X021408Y021018D01*
X021430Y020995D01*
X021431Y020996D01*
X021408Y021019D01*
X021388Y021044D01*
X021371Y021072D01*
X021358Y021101D01*
X021347Y021131D01*
X021340Y021163D01*
X021336Y021195D01*
X021336Y021227D01*
X021340Y021259D01*
X021347Y021291D01*
X021358Y021321D01*
X021371Y021350D01*
X021388Y021378D01*
X021408Y021403D01*
X021431Y021426D01*
X021432Y021425D01*
X021409Y021402D01*
X021389Y021377D01*
X021372Y021350D01*
X021359Y021321D01*
X021348Y021290D01*
X021341Y021259D01*
X021337Y021227D01*
X021337Y021195D01*
X021341Y021163D01*
X021348Y021132D01*
X021359Y021101D01*
X021372Y021072D01*
X021389Y021045D01*
X021409Y021020D01*
X021432Y020997D01*
X021410Y021020D01*
X021390Y021046D01*
X021373Y021073D01*
X021359Y021102D01*
X021349Y021132D01*
X021342Y021163D01*
X021338Y021195D01*
X021338Y021227D01*
X021342Y021259D01*
X021349Y021290D01*
X021359Y021320D01*
X021373Y021349D01*
X021390Y021376D01*
X021410Y021402D01*
X021432Y021425D01*
X021433Y021424D01*
X021411Y021401D01*
X021391Y021376D01*
X021374Y021349D01*
X021360Y021320D01*
X021350Y021290D01*
X021343Y021259D01*
X021339Y021227D01*
X021339Y021195D01*
X021343Y021163D01*
X021350Y021132D01*
X021360Y021102D01*
X021374Y021073D01*
X021391Y021046D01*
X021411Y021021D01*
X021433Y020998D01*
X021434Y020999D01*
X021411Y021022D01*
X021392Y021047D01*
X021375Y021074D01*
X021361Y021102D01*
X021351Y021132D01*
X021344Y021164D01*
X021340Y021195D01*
X021340Y021227D01*
X021344Y021258D01*
X021351Y021290D01*
X021361Y021320D01*
X021375Y021348D01*
X021392Y021375D01*
X021411Y021400D01*
X021434Y021423D01*
X021434Y021422D01*
X021412Y021400D01*
X021393Y021375D01*
X021376Y021348D01*
X021362Y021319D01*
X021352Y021289D01*
X021345Y021258D01*
X021341Y021227D01*
X021341Y021195D01*
X021345Y021164D01*
X021352Y021133D01*
X021362Y021103D01*
X021376Y021074D01*
X021393Y021047D01*
X021412Y021022D01*
X021434Y021000D01*
X021435Y021000D01*
X021413Y021023D01*
X021393Y021048D01*
X021377Y021075D01*
X021363Y021103D01*
X021353Y021133D01*
X021346Y021164D01*
X021342Y021195D01*
X021342Y021227D01*
X021346Y021258D01*
X021353Y021289D01*
X021363Y021319D01*
X021377Y021347D01*
X021393Y021374D01*
X021413Y021399D01*
X021435Y021422D01*
X021436Y021421D01*
X021414Y021398D01*
X021394Y021374D01*
X021378Y021347D01*
X021364Y021318D01*
X021354Y021289D01*
X021347Y021258D01*
X021343Y021227D01*
X021343Y021195D01*
X021347Y021164D01*
X021354Y021133D01*
X021364Y021104D01*
X021378Y021075D01*
X021394Y021048D01*
X021414Y021024D01*
X021436Y021001D01*
X021436Y021002D01*
X021414Y021024D01*
X021395Y021049D01*
X021378Y021076D01*
X021365Y021104D01*
X021355Y021134D01*
X021348Y021164D01*
X021344Y021195D01*
X021344Y021227D01*
X021348Y021258D01*
X021355Y021288D01*
X021365Y021318D01*
X021378Y021346D01*
X021395Y021373D01*
X021414Y021398D01*
X021436Y021420D01*
X021437Y021419D01*
X021415Y021397D01*
X021396Y021372D01*
X021379Y021346D01*
X021366Y021318D01*
X021356Y021288D01*
X021349Y021258D01*
X021345Y021227D01*
X021345Y021195D01*
X021349Y021164D01*
X021356Y021134D01*
X021366Y021104D01*
X021379Y021076D01*
X021396Y021050D01*
X021415Y021025D01*
X021437Y021003D01*
X021438Y021003D01*
X021416Y021026D01*
X021397Y021050D01*
X021380Y021077D01*
X021367Y021105D01*
X021357Y021134D01*
X021350Y021165D01*
X021346Y021195D01*
X021346Y021227D01*
X021350Y021257D01*
X021357Y021288D01*
X021367Y021317D01*
X021380Y021345D01*
X021397Y021372D01*
X021416Y021396D01*
X021438Y021419D01*
X021438Y021418D01*
X021417Y021396D01*
X021397Y021371D01*
X021381Y021345D01*
X021368Y021317D01*
X021358Y021288D01*
X021351Y021257D01*
X021347Y021227D01*
X021347Y021195D01*
X021351Y021165D01*
X021358Y021134D01*
X021368Y021105D01*
X021381Y021077D01*
X021397Y021051D01*
X021417Y021026D01*
X021438Y021004D01*
X021439Y021005D01*
X021417Y021027D01*
X021398Y021051D01*
X021382Y021078D01*
X021369Y021105D01*
X021359Y021135D01*
X021352Y021165D01*
X021348Y021196D01*
X021348Y021226D01*
X021352Y021257D01*
X021359Y021287D01*
X021369Y021317D01*
X021382Y021344D01*
X021398Y021371D01*
X021417Y021395D01*
X021439Y021417D01*
X021440Y021416D01*
X021418Y021394D01*
X021399Y021370D01*
X021383Y021344D01*
X021370Y021316D01*
X021360Y021287D01*
X021353Y021257D01*
X021349Y021226D01*
X021349Y021196D01*
X021353Y021165D01*
X021360Y021135D01*
X021370Y021106D01*
X021383Y021078D01*
X021399Y021052D01*
X021418Y021028D01*
X021440Y021006D01*
X021419Y021028D01*
X021400Y021052D01*
X021384Y021079D01*
X021371Y021106D01*
X021361Y021135D01*
X021354Y021165D01*
X021350Y021196D01*
X021350Y021226D01*
X021354Y021257D01*
X021361Y021287D01*
X021371Y021316D01*
X021384Y021343D01*
X021400Y021370D01*
X021419Y021394D01*
X021440Y021416D01*
X021441Y021415D01*
X021420Y021393D01*
X021401Y021369D01*
X021385Y021343D01*
X021372Y021315D01*
X021362Y021286D01*
X021355Y021257D01*
X021351Y021226D01*
X021351Y021196D01*
X021355Y021165D01*
X021362Y021136D01*
X021372Y021107D01*
X021385Y021079D01*
X021401Y021053D01*
X021420Y021029D01*
X021441Y021007D01*
X021442Y021008D01*
X021420Y021030D01*
X021402Y021054D01*
X021385Y021079D01*
X021372Y021107D01*
X021362Y021136D01*
X021356Y021165D01*
X021352Y021196D01*
X021352Y021226D01*
X021356Y021257D01*
X021362Y021286D01*
X021372Y021315D01*
X021385Y021343D01*
X021402Y021368D01*
X021420Y021392D01*
X021442Y021414D01*
D27*
X021627Y021211D03*
X023005Y021211D03*
X025761Y021211D03*
X027139Y021211D03*
D28*
X026912Y021004D03*
X025534Y021004D03*
X022779Y021004D03*
X021401Y021004D03*
M02*
