%
M48
M72
T01C0.0236
T02C0.0276
T03C0.0315
T04C0.0320
T05C0.0354
T06C0.0433
T07C0.0440
T08C0.0472
T09C0.0600
T10C0.0669
T11C0.1260
T12C0.1300
%
T01
X17690Y21998
X11784Y9400
X13162Y15502
X20052Y22982
X10603Y13730
X17410Y7341
X25660Y8041
X26863Y11723
X29658Y8455
X29540Y35778
X32532Y34242
X21548Y16841
X27966Y17746
X25918Y15620
X24383Y15778
X16810Y10341
X21517Y10341
X15721Y16486
X15525Y11959
X22808Y12943
X28084Y13061
X36706Y12943
X16824Y25305
X16273Y29006
X16360Y7341
X28517Y21801
X30564Y10423
X36115Y34872
X37360Y8841
X13760Y9841
X19260Y9841
X29760Y9841
X24860Y9241
X19410Y8341
X16910Y8341
X28910Y8741
X13359Y5660
X8960Y18841
X8960Y7499
X8960Y14237
X16824Y14242
X31115Y17077
X25052Y19085
X30918Y32352
X30485Y16486
X24580Y19478
X25525Y32392
X33310Y5691
X33310Y9641
X31310Y5691
X33460Y10741
X35810Y9241
X35460Y9741
X35860Y10241
X25170Y5463
X22808Y7431
X24599Y14380
X33044Y37274
X34310Y7791
X30310Y6941
X24777Y37274
X17218Y34597
X18084Y34675
X32310Y7291
X15860Y8841
X26548Y19833
X15997Y10778
X16863Y12077
X26548Y12943
X18517Y31801
X19265Y31053
T02
X16110Y22241
X16110Y23241
X32460Y17291
X32460Y16291
T03
X12310Y23841
X9410Y23841
X36260Y15891
X40860Y20891
T04
X38269Y36762
X37269Y36762
X9316Y36368
X10316Y36368
X34922Y36762
X33922Y36762
X9816Y32522
X10566Y33022
X9816Y33522
X28395Y34278
X29395Y34278
X29395Y37278
X28395Y37278
X30395Y34278
X31395Y34278
X30395Y37278
X31395Y37278
X19930Y34278
X20930Y34278
X20930Y37278
X19930Y37278
X21930Y34278
X22930Y34278
X21930Y37278
X22930Y37278
T05
X34588Y33022
X38588Y33022
X11950Y31841
X15950Y31841
X15950Y34006
X11950Y34006
X38588Y31644
X34588Y31644
T06
X20110Y26041
X23110Y26041
X23110Y27141
X20110Y27141
X20110Y29041
X23110Y29041
X23110Y30141
X20110Y30141
X28460Y30191
X25460Y30191
X25460Y29091
X28460Y29091
X28460Y27191
X25460Y27191
X25460Y26091
X28460Y26091
T07
X18660Y14833
X18660Y24833
X29910Y24833
X29910Y14833
T08
X11345Y19833
X13345Y20333
X11345Y20833
X13345Y21333
X11345Y21833
X13345Y22333
X13345Y19333
X11345Y18833
X13345Y18333
X11345Y17833
X13345Y17333
X11345Y22833
X13345Y23333
X11345Y16833
X13345Y16333
X19360Y28141
X10360Y28141
X37225Y19833
X35225Y19333
X37225Y18833
X35225Y18333
X37225Y17833
X35225Y17333
X35225Y20333
X37225Y20833
X35225Y21333
X37225Y21833
X35225Y22333
X37225Y16833
X35225Y16333
X37225Y22833
X35225Y23333
X29010Y28141
X38010Y28141
T09
X6325Y32515
X6325Y35620
T10
X41717Y36730
X41717Y35171
X41738Y33130
X41738Y31571
T11
X4236Y19833
X44335Y19833
T12
X2910Y7628
X3251Y36240
X45249Y36240
X45249Y7628
M30
